<svg xmlns="http://www.w3.org/2000/svg" viewBox="0 0 986.29 64"><defs><style>.cls-1{fill:#567bbb;}.cls-2{fill:#ee5d7d;}.cls-3{fill:#061a36;}.cls-4{fill:#7da0d1;}.cls-5{fill:#fff;}.cls-6{fill:#f18259;}.cls-7{fill:#58bb7a;}.cls-8{fill:#81d2e6;}</style></defs><g id="Laag_2" data-name="Laag 2"><g id="Laag_2-2" data-name="Laag 2"><line class="cls-1" y1="64" y2="32"/><rect class="cls-2" y="32" width="31.86" height="32"/><rect class="cls-2" x="63.71" y="32" width="35.68" height="32"/><path class="cls-3" d="M0,60.37V35.56"/><path class="cls-4" d="M0,60.37A12.38,12.38,0,0,0,12.35,48,12.37,12.37,0,0,0,0,35.56Z"/><path class="cls-3" d="M63.72,64a16,16,0,0,0,0-32Z"/><rect class="cls-1" x="31.86" y="32" width="31.86" height="32"/><path class="cls-5" d="M36.42,57.49a3.32,3.32,0,0,0,3.3,3.31A3.35,3.35,0,0,0,36.42,57.49Z"/><path class="cls-4" d="M36.42,53a3.32,3.32,0,0,0,3.3,3.31A3.35,3.35,0,0,0,36.42,53Z"/><path class="cls-3" d="M36.42,48.48a3.32,3.32,0,0,0,3.3,3.3A3.34,3.34,0,0,0,36.42,48.48Z"/><path class="cls-5" d="M36.42,44a3.32,3.32,0,0,0,3.3,3.3A3.34,3.34,0,0,0,36.42,44Z"/><path class="cls-4" d="M36.42,39.57a3.32,3.32,0,0,0,3.3,3.31A3.35,3.35,0,0,0,36.42,39.57Z"/><path class="cls-3" d="M36.42,35.09a3.33,3.33,0,0,0,3.3,3.31A3.35,3.35,0,0,0,36.42,35.09Z"/><path class="cls-5" d="M43,57.49A3.31,3.31,0,0,0,46.3,60.8,3.34,3.34,0,0,0,43,57.49Z"/><path class="cls-4" d="M43,53a3.31,3.31,0,0,0,3.29,3.31A3.34,3.34,0,0,0,43,53Z"/><path class="cls-3" d="M43,48.48a3.31,3.31,0,0,0,3.29,3.3A3.33,3.33,0,0,0,43,48.48Z"/><path class="cls-5" d="M43,44a3.31,3.31,0,0,0,3.29,3.3A3.33,3.33,0,0,0,43,44Z"/><path class="cls-4" d="M43,39.57a3.31,3.31,0,0,0,3.29,3.31A3.34,3.34,0,0,0,43,39.57Z"/><path class="cls-3" d="M43,35.09A3.32,3.32,0,0,0,46.3,38.4,3.34,3.34,0,0,0,43,35.09Z"/><path class="cls-5" d="M49.59,57.49a3.32,3.32,0,0,0,3.29,3.31A3.33,3.33,0,0,0,49.59,57.49Z"/><path class="cls-5" d="M56.17,57.49a3.32,3.32,0,0,0,3.3,3.31A3.34,3.34,0,0,0,56.17,57.49Z"/><path class="cls-4" d="M49.59,53a3.32,3.32,0,0,0,3.29,3.31A3.33,3.33,0,0,0,49.59,53Z"/><path class="cls-4" d="M56.17,53a3.32,3.32,0,0,0,3.3,3.31A3.34,3.34,0,0,0,56.17,53Z"/><path class="cls-3" d="M49.59,48.48a3.32,3.32,0,0,0,3.29,3.3A3.33,3.33,0,0,0,49.59,48.48Z"/><path class="cls-3" d="M56.17,48.48a3.32,3.32,0,0,0,3.3,3.3A3.34,3.34,0,0,0,56.17,48.48Z"/><path class="cls-5" d="M49.59,44a3.32,3.32,0,0,0,3.29,3.3A3.33,3.33,0,0,0,49.59,44Z"/><path class="cls-4" d="M49.59,39.57a3.32,3.32,0,0,0,3.29,3.31A3.33,3.33,0,0,0,49.59,39.57Z"/><path class="cls-3" d="M49.59,35.09a3.33,3.33,0,0,0,3.29,3.31A3.33,3.33,0,0,0,49.59,35.09Z"/><path class="cls-5" d="M56.17,44a3.32,3.32,0,0,0,3.3,3.3A3.34,3.34,0,0,0,56.17,44Z"/><path class="cls-4" d="M56.17,39.57a3.32,3.32,0,0,0,3.3,3.31A3.34,3.34,0,0,0,56.17,39.57Z"/><path class="cls-3" d="M56.17,35.09a3.33,3.33,0,0,0,3.3,3.31A3.34,3.34,0,0,0,56.17,35.09Z"/><path class="cls-2" d="M33.13,60.8a3.33,3.33,0,0,1,3.29-3.31A3.33,3.33,0,0,1,33.13,60.8Z"/><path class="cls-2" d="M33.13,56.29A3.33,3.33,0,0,1,36.42,53,3.33,3.33,0,0,1,33.13,56.29Z"/><path class="cls-2" d="M33.13,51.78a3.33,3.33,0,0,1,3.29-3.31A3.33,3.33,0,0,1,33.13,51.78Z"/><path class="cls-2" d="M33.13,47.27A3.32,3.32,0,0,1,36.42,44,3.33,3.33,0,0,1,33.13,47.27Z"/><path class="cls-2" d="M33.13,42.88a3.33,3.33,0,0,1,3.29-3.31A3.33,3.33,0,0,1,33.13,42.88Z"/><path class="cls-2" d="M33.13,38.4a3.33,3.33,0,0,1,3.29-3.31A3.33,3.33,0,0,1,33.13,38.4Z"/><path class="cls-5" d="M39.71,60.8A3.33,3.33,0,0,1,43,57.49,3.34,3.34,0,0,1,39.71,60.8Z"/><path class="cls-4" d="M39.71,56.29A3.33,3.33,0,0,1,43,53,3.34,3.34,0,0,1,39.71,56.29Z"/><path class="cls-3" d="M39.71,51.78A3.33,3.33,0,0,1,43,48.47,3.34,3.34,0,0,1,39.71,51.78Z"/><path class="cls-5" d="M39.71,47.27A3.32,3.32,0,0,1,43,44,3.34,3.34,0,0,1,39.71,47.27Z"/><path class="cls-4" d="M39.71,42.88A3.33,3.33,0,0,1,43,39.57,3.34,3.34,0,0,1,39.71,42.88Z"/><path class="cls-3" d="M39.71,38.4A3.33,3.33,0,0,1,43,35.09,3.34,3.34,0,0,1,39.71,38.4Z"/><path class="cls-5" d="M46.3,60.8a3.32,3.32,0,0,1,3.29-3.31A3.33,3.33,0,0,1,46.3,60.8Z"/><path class="cls-5" d="M52.88,60.8a3.33,3.33,0,0,1,3.29-3.31A3.33,3.33,0,0,1,52.88,60.8Z"/><path class="cls-4" d="M46.3,56.29A3.32,3.32,0,0,1,49.59,53,3.33,3.33,0,0,1,46.3,56.29Z"/><path class="cls-4" d="M52.88,56.29A3.33,3.33,0,0,1,56.17,53,3.33,3.33,0,0,1,52.88,56.29Z"/><path class="cls-3" d="M46.3,51.78a3.32,3.32,0,0,1,3.29-3.31A3.33,3.33,0,0,1,46.3,51.78Z"/><path class="cls-3" d="M52.88,51.78a3.33,3.33,0,0,1,3.29-3.31A3.33,3.33,0,0,1,52.88,51.78Z"/><path class="cls-5" d="M46.3,47.27A3.31,3.31,0,0,1,49.59,44,3.33,3.33,0,0,1,46.3,47.27Z"/><path class="cls-4" d="M46.3,42.88a3.32,3.32,0,0,1,3.29-3.31A3.33,3.33,0,0,1,46.3,42.88Z"/><path class="cls-3" d="M46.3,38.4a3.32,3.32,0,0,1,3.29-3.31A3.33,3.33,0,0,1,46.3,38.4Z"/><path class="cls-5" d="M52.88,47.27A3.32,3.32,0,0,1,56.17,44,3.33,3.33,0,0,1,52.88,47.27Z"/><path class="cls-4" d="M52.88,42.88a3.33,3.33,0,0,1,3.29-3.31A3.33,3.33,0,0,1,52.88,42.88Z"/><path class="cls-3" d="M52.88,38.4a3.33,3.33,0,0,1,3.29-3.31A3.33,3.33,0,0,1,52.88,38.4Z"/><rect class="cls-1" x="198.79" y="32" width="31.86" height="32"/><rect class="cls-2" x="166.93" y="32" width="31.86" height="32"/><rect class="cls-2" x="99.39" y="32" width="35.68" height="32"/><path class="cls-3" d="M198.79,35.56a12.41,12.41,0,0,1,0,24.81Z"/><path class="cls-4" d="M198.79,60.37a12.41,12.41,0,0,1,0-24.81Z"/><path class="cls-3" d="M135.07,64a16,16,0,0,1,0-32Z"/><rect class="cls-1" x="135.07" y="32" width="31.86" height="32"/><path class="cls-5" d="M162.36,57.49a3.31,3.31,0,0,1-3.29,3.31A3.34,3.34,0,0,1,162.36,57.49Z"/><path class="cls-4" d="M162.36,53a3.31,3.31,0,0,1-3.29,3.31A3.34,3.34,0,0,1,162.36,53Z"/><path class="cls-3" d="M162.36,48.48a3.31,3.31,0,0,1-3.29,3.3A3.33,3.33,0,0,1,162.36,48.48Z"/><path class="cls-5" d="M162.36,44a3.31,3.31,0,0,1-3.29,3.3A3.33,3.33,0,0,1,162.36,44Z"/><path class="cls-4" d="M162.36,39.57a3.31,3.31,0,0,1-3.29,3.31A3.34,3.34,0,0,1,162.36,39.57Z"/><path class="cls-3" d="M162.36,35.09a3.32,3.32,0,0,1-3.29,3.31A3.34,3.34,0,0,1,162.36,35.09Z"/><path class="cls-5" d="M155.78,57.49a3.31,3.31,0,0,1-3.29,3.31A3.33,3.33,0,0,1,155.78,57.49Z"/><path class="cls-4" d="M155.78,53a3.31,3.31,0,0,1-3.29,3.31A3.33,3.33,0,0,1,155.78,53Z"/><path class="cls-3" d="M155.78,48.48a3.31,3.31,0,0,1-3.29,3.3A3.33,3.33,0,0,1,155.78,48.48Z"/><path class="cls-5" d="M155.78,44a3.31,3.31,0,0,1-3.29,3.3A3.33,3.33,0,0,1,155.78,44Z"/><path class="cls-4" d="M155.78,39.57a3.31,3.31,0,0,1-3.29,3.31A3.33,3.33,0,0,1,155.78,39.57Z"/><path class="cls-3" d="M155.78,35.09a3.32,3.32,0,0,1-3.29,3.31A3.33,3.33,0,0,1,155.78,35.09Z"/><path class="cls-5" d="M149.2,57.49a3.32,3.32,0,0,1-3.3,3.31A3.35,3.35,0,0,1,149.2,57.49Z"/><path class="cls-5" d="M142.61,57.49a3.31,3.31,0,0,1-3.29,3.31A3.34,3.34,0,0,1,142.61,57.49Z"/><path class="cls-4" d="M149.2,53a3.32,3.32,0,0,1-3.3,3.31A3.35,3.35,0,0,1,149.2,53Z"/><path class="cls-4" d="M142.61,53a3.31,3.31,0,0,1-3.29,3.31A3.34,3.34,0,0,1,142.61,53Z"/><path class="cls-3" d="M149.2,48.48a3.32,3.32,0,0,1-3.3,3.3A3.34,3.34,0,0,1,149.2,48.48Z"/><path class="cls-3" d="M142.61,48.48a3.31,3.31,0,0,1-3.29,3.3A3.33,3.33,0,0,1,142.61,48.48Z"/><path class="cls-5" d="M149.2,44a3.32,3.32,0,0,1-3.3,3.3A3.34,3.34,0,0,1,149.2,44Z"/><path class="cls-4" d="M149.2,39.57a3.32,3.32,0,0,1-3.3,3.31A3.35,3.35,0,0,1,149.2,39.57Z"/><path class="cls-3" d="M149.2,35.09a3.33,3.33,0,0,1-3.3,3.31A3.35,3.35,0,0,1,149.2,35.09Z"/><path class="cls-5" d="M142.61,44a3.31,3.31,0,0,1-3.29,3.3A3.33,3.33,0,0,1,142.61,44Z"/><path class="cls-4" d="M142.61,39.57a3.31,3.31,0,0,1-3.29,3.31A3.34,3.34,0,0,1,142.61,39.57Z"/><path class="cls-3" d="M142.61,35.09a3.32,3.32,0,0,1-3.29,3.31A3.34,3.34,0,0,1,142.61,35.09Z"/><path class="cls-2" d="M165.66,60.8a3.33,3.33,0,0,0-3.3-3.31A3.35,3.35,0,0,0,165.66,60.8Z"/><path class="cls-2" d="M165.66,56.29a3.33,3.33,0,0,0-3.3-3.31A3.35,3.35,0,0,0,165.66,56.29Z"/><path class="cls-2" d="M165.66,51.78a3.33,3.33,0,0,0-3.3-3.31A3.35,3.35,0,0,0,165.66,51.78Z"/><path class="cls-2" d="M165.66,47.27a3.32,3.32,0,0,0-3.3-3.3A3.34,3.34,0,0,0,165.66,47.27Z"/><path class="cls-2" d="M165.66,42.88a3.33,3.33,0,0,0-3.3-3.31A3.35,3.35,0,0,0,165.66,42.88Z"/><path class="cls-2" d="M165.66,38.4a3.33,3.33,0,0,0-3.3-3.31A3.35,3.35,0,0,0,165.66,38.4Z"/><path class="cls-5" d="M159.07,60.8a3.32,3.32,0,0,0-3.29-3.31A3.33,3.33,0,0,0,159.07,60.8Z"/><path class="cls-4" d="M159.07,56.29A3.32,3.32,0,0,0,155.78,53,3.33,3.33,0,0,0,159.07,56.29Z"/><path class="cls-3" d="M159.07,51.78a3.32,3.32,0,0,0-3.29-3.31A3.33,3.33,0,0,0,159.07,51.78Z"/><path class="cls-5" d="M159.07,47.27a3.31,3.31,0,0,0-3.29-3.3A3.33,3.33,0,0,0,159.07,47.27Z"/><path class="cls-4" d="M159.07,42.88a3.32,3.32,0,0,0-3.29-3.31A3.33,3.33,0,0,0,159.07,42.88Z"/><path class="cls-3" d="M159.07,38.4a3.32,3.32,0,0,0-3.29-3.31A3.33,3.33,0,0,0,159.07,38.4Z"/><path class="cls-5" d="M152.49,60.8a3.33,3.33,0,0,0-3.29-3.31A3.33,3.33,0,0,0,152.49,60.8Z"/><path class="cls-5" d="M145.91,60.8a3.33,3.33,0,0,0-3.3-3.31A3.34,3.34,0,0,0,145.91,60.8Z"/><path class="cls-4" d="M152.49,56.29A3.33,3.33,0,0,0,149.2,53,3.33,3.33,0,0,0,152.49,56.29Z"/><path class="cls-4" d="M145.91,56.29a3.33,3.33,0,0,0-3.3-3.31A3.34,3.34,0,0,0,145.91,56.29Z"/><path class="cls-3" d="M152.49,51.78a3.33,3.33,0,0,0-3.29-3.31A3.33,3.33,0,0,0,152.49,51.78Z"/><path class="cls-3" d="M145.91,51.78a3.33,3.33,0,0,0-3.3-3.31A3.34,3.34,0,0,0,145.91,51.78Z"/><path class="cls-5" d="M152.49,47.27A3.32,3.32,0,0,0,149.2,44,3.33,3.33,0,0,0,152.49,47.27Z"/><path class="cls-4" d="M152.49,42.88a3.33,3.33,0,0,0-3.29-3.31A3.33,3.33,0,0,0,152.49,42.88Z"/><path class="cls-3" d="M152.49,38.4a3.33,3.33,0,0,0-3.29-3.31A3.33,3.33,0,0,0,152.49,38.4Z"/><path class="cls-5" d="M145.91,47.27a3.32,3.32,0,0,0-3.3-3.3A3.34,3.34,0,0,0,145.91,47.27Z"/><path class="cls-4" d="M145.91,42.88a3.33,3.33,0,0,0-3.3-3.31A3.34,3.34,0,0,0,145.91,42.88Z"/><path class="cls-3" d="M145.91,38.4a3.33,3.33,0,0,0-3.3-3.31A3.34,3.34,0,0,0,145.91,38.4Z"/><path class="cls-3" d="M99.07,32V64L81.55,32Z"/><path class="cls-3" d="M99.07,32V0L116.6,32Z"/><path class="cls-1" d="M99.07,32H81.55L99.07,0Z"/><path class="cls-1" d="M99.07,32H116.6L99.07,64Z"/><path class="cls-5" d="M99.07,32c.14,3.32,2.26,10,10.2,10.24C109,38.83,106.79,32,99.07,32Z"/><path class="cls-5" d="M88.88,42.24c.14-3.32,2.26-10,10.19-10.24C98.84,35.41,96.59,42.24,88.88,42.24Z"/><path class="cls-5" d="M99.07,32c-.13-3.32-2.25-10-10.19-10.24C89.11,25.17,91.36,32,99.07,32Z"/><path class="cls-5" d="M109.27,21.76c-.14,3.32-2.26,10-10.19,10.24C99.31,28.59,101.56,21.76,109.27,21.76Z"/><rect class="cls-1" x="230.64" y="32" width="31.86" height="32"/><rect class="cls-6" x="262.5" y="32" width="31.86" height="32"/><rect class="cls-6" x="326.21" y="32" width="35.68" height="32"/><path class="cls-3" d="M262.5,35.56a12.41,12.41,0,0,0,0,24.81Z"/><path class="cls-4" d="M262.5,60.37a12.41,12.41,0,0,0,0-24.81Z"/><path class="cls-3" d="M326.22,64a16,16,0,0,0,0-32Z"/><rect class="cls-1" x="294.36" y="32" width="31.86" height="32"/><path class="cls-5" d="M298.92,57.49a3.33,3.33,0,0,0,3.3,3.31A3.35,3.35,0,0,0,298.92,57.49Z"/><path class="cls-4" d="M298.92,53a3.32,3.32,0,0,0,3.3,3.31A3.35,3.35,0,0,0,298.92,53Z"/><path class="cls-3" d="M298.92,48.47a3.32,3.32,0,0,0,3.3,3.31A3.35,3.35,0,0,0,298.92,48.47Z"/><path class="cls-5" d="M298.92,44a3.32,3.32,0,0,0,3.3,3.31A3.35,3.35,0,0,0,298.92,44Z"/><path class="cls-4" d="M298.92,39.57a3.33,3.33,0,0,0,3.3,3.31A3.35,3.35,0,0,0,298.92,39.57Z"/><path class="cls-3" d="M298.92,35.09a3.33,3.33,0,0,0,3.3,3.31A3.35,3.35,0,0,0,298.92,35.09Z"/><path class="cls-5" d="M305.51,57.49a3.32,3.32,0,0,0,3.29,3.31A3.34,3.34,0,0,0,305.51,57.49Z"/><path class="cls-4" d="M305.51,53a3.31,3.31,0,0,0,3.29,3.31A3.34,3.34,0,0,0,305.51,53Z"/><path class="cls-3" d="M305.51,48.47a3.31,3.31,0,0,0,3.29,3.31A3.34,3.34,0,0,0,305.51,48.47Z"/><path class="cls-5" d="M305.51,44a3.31,3.31,0,0,0,3.29,3.31A3.34,3.34,0,0,0,305.51,44Z"/><path class="cls-4" d="M305.51,39.57a3.32,3.32,0,0,0,3.29,3.31A3.34,3.34,0,0,0,305.51,39.57Z"/><path class="cls-3" d="M305.51,35.09a3.32,3.32,0,0,0,3.29,3.31A3.34,3.34,0,0,0,305.51,35.09Z"/><path class="cls-5" d="M312.09,57.49a3.33,3.33,0,0,0,3.29,3.31A3.33,3.33,0,0,0,312.09,57.49Z"/><path class="cls-5" d="M318.67,57.49A3.33,3.33,0,0,0,322,60.8,3.34,3.34,0,0,0,318.67,57.49Z"/><path class="cls-4" d="M312.09,53a3.32,3.32,0,0,0,3.29,3.31A3.33,3.33,0,0,0,312.09,53Z"/><path class="cls-4" d="M318.67,53a3.32,3.32,0,0,0,3.3,3.31A3.34,3.34,0,0,0,318.67,53Z"/><path class="cls-3" d="M312.09,48.47a3.32,3.32,0,0,0,3.29,3.31A3.33,3.33,0,0,0,312.09,48.47Z"/><path class="cls-3" d="M318.67,48.47a3.32,3.32,0,0,0,3.3,3.31A3.34,3.34,0,0,0,318.67,48.47Z"/><path class="cls-5" d="M312.09,44a3.32,3.32,0,0,0,3.29,3.31A3.33,3.33,0,0,0,312.09,44Z"/><path class="cls-4" d="M312.09,39.57a3.33,3.33,0,0,0,3.29,3.31A3.33,3.33,0,0,0,312.09,39.57Z"/><path class="cls-3" d="M312.09,35.09a3.33,3.33,0,0,0,3.29,3.31A3.33,3.33,0,0,0,312.09,35.09Z"/><path class="cls-5" d="M318.67,44a3.32,3.32,0,0,0,3.3,3.31A3.34,3.34,0,0,0,318.67,44Z"/><path class="cls-4" d="M318.67,39.57a3.33,3.33,0,0,0,3.3,3.31A3.34,3.34,0,0,0,318.67,39.57Z"/><path class="cls-3" d="M318.67,35.09A3.33,3.33,0,0,0,322,38.4,3.34,3.34,0,0,0,318.67,35.09Z"/><path class="cls-6" d="M295.63,60.8a3.32,3.32,0,0,1,3.29-3.31A3.33,3.33,0,0,1,295.63,60.8Z"/><path class="cls-6" d="M295.63,56.29A3.32,3.32,0,0,1,298.92,53,3.33,3.33,0,0,1,295.63,56.29Z"/><path class="cls-6" d="M295.63,51.78a3.32,3.32,0,0,1,3.29-3.31A3.33,3.33,0,0,1,295.63,51.78Z"/><path class="cls-6" d="M295.63,47.27A3.32,3.32,0,0,1,298.92,44,3.33,3.33,0,0,1,295.63,47.27Z"/><path class="cls-6" d="M295.63,42.88a3.32,3.32,0,0,1,3.29-3.31A3.33,3.33,0,0,1,295.63,42.88Z"/><path class="cls-6" d="M295.63,38.4a3.32,3.32,0,0,1,3.29-3.31A3.33,3.33,0,0,1,295.63,38.4Z"/><path class="cls-5" d="M302.21,60.8a3.33,3.33,0,0,1,3.3-3.31A3.34,3.34,0,0,1,302.21,60.8Z"/><path class="cls-4" d="M302.21,56.29a3.33,3.33,0,0,1,3.3-3.31A3.34,3.34,0,0,1,302.21,56.29Z"/><path class="cls-3" d="M302.21,51.78a3.33,3.33,0,0,1,3.3-3.31A3.34,3.34,0,0,1,302.21,51.78Z"/><path class="cls-5" d="M302.21,47.27a3.33,3.33,0,0,1,3.3-3.31A3.34,3.34,0,0,1,302.21,47.27Z"/><path class="cls-4" d="M302.21,42.88a3.33,3.33,0,0,1,3.3-3.31A3.34,3.34,0,0,1,302.21,42.88Z"/><path class="cls-3" d="M302.21,38.4a3.33,3.33,0,0,1,3.3-3.31A3.34,3.34,0,0,1,302.21,38.4Z"/><path class="cls-5" d="M308.8,60.8a3.32,3.32,0,0,1,3.29-3.31A3.33,3.33,0,0,1,308.8,60.8Z"/><path class="cls-5" d="M315.38,60.8a3.33,3.33,0,0,1,3.29-3.31A3.33,3.33,0,0,1,315.38,60.8Z"/><path class="cls-4" d="M308.8,56.29A3.32,3.32,0,0,1,312.09,53,3.33,3.33,0,0,1,308.8,56.29Z"/><path class="cls-4" d="M315.38,56.29A3.33,3.33,0,0,1,318.67,53,3.33,3.33,0,0,1,315.38,56.29Z"/><path class="cls-3" d="M308.8,51.78a3.32,3.32,0,0,1,3.29-3.31A3.33,3.33,0,0,1,308.8,51.78Z"/><path class="cls-3" d="M315.38,51.78a3.33,3.33,0,0,1,3.29-3.31A3.33,3.33,0,0,1,315.38,51.78Z"/><path class="cls-5" d="M308.8,47.27A3.32,3.32,0,0,1,312.09,44,3.33,3.33,0,0,1,308.8,47.27Z"/><path class="cls-4" d="M308.8,42.88a3.32,3.32,0,0,1,3.29-3.31A3.33,3.33,0,0,1,308.8,42.88Z"/><path class="cls-3" d="M308.8,38.4a3.32,3.32,0,0,1,3.29-3.31A3.33,3.33,0,0,1,308.8,38.4Z"/><path class="cls-5" d="M315.38,47.27A3.33,3.33,0,0,1,318.67,44,3.33,3.33,0,0,1,315.38,47.27Z"/><path class="cls-4" d="M315.38,42.88a3.33,3.33,0,0,1,3.29-3.31A3.33,3.33,0,0,1,315.38,42.88Z"/><path class="cls-3" d="M315.38,38.4a3.33,3.33,0,0,1,3.29-3.31A3.33,3.33,0,0,1,315.38,38.4Z"/><rect class="cls-1" x="461.29" y="32" width="31.86" height="32"/><rect class="cls-6" x="429.43" y="32" width="31.86" height="32"/><rect class="cls-6" x="361.89" y="32" width="35.68" height="32"/><path class="cls-3" d="M461.29,35.56a12.41,12.41,0,0,1,0,24.81Z"/><path class="cls-4" d="M461.29,60.37a12.41,12.41,0,0,1,0-24.81Z"/><path class="cls-3" d="M397.57,64a16,16,0,0,1,0-32Z"/><rect class="cls-1" x="397.57" y="32" width="31.86" height="32"/><path class="cls-5" d="M424.86,57.49a3.32,3.32,0,0,1-3.29,3.31A3.34,3.34,0,0,1,424.86,57.49Z"/><path class="cls-4" d="M424.86,53a3.31,3.31,0,0,1-3.29,3.31A3.34,3.34,0,0,1,424.86,53Z"/><path class="cls-3" d="M424.86,48.47a3.31,3.31,0,0,1-3.29,3.31A3.34,3.34,0,0,1,424.86,48.47Z"/><path class="cls-5" d="M424.86,44a3.31,3.31,0,0,1-3.29,3.31A3.34,3.34,0,0,1,424.86,44Z"/><path class="cls-4" d="M424.86,39.57a3.32,3.32,0,0,1-3.29,3.31A3.34,3.34,0,0,1,424.86,39.57Z"/><path class="cls-3" d="M424.86,35.09a3.32,3.32,0,0,1-3.29,3.31A3.34,3.34,0,0,1,424.86,35.09Z"/><path class="cls-5" d="M418.28,57.49A3.32,3.32,0,0,1,415,60.8,3.33,3.33,0,0,1,418.28,57.49Z"/><path class="cls-4" d="M418.28,53A3.31,3.31,0,0,1,415,56.29,3.33,3.33,0,0,1,418.28,53Z"/><path class="cls-3" d="M418.28,48.47A3.31,3.31,0,0,1,415,51.78,3.33,3.33,0,0,1,418.28,48.47Z"/><path class="cls-5" d="M418.28,44A3.31,3.31,0,0,1,415,47.27,3.33,3.33,0,0,1,418.28,44Z"/><path class="cls-4" d="M418.28,39.57A3.32,3.32,0,0,1,415,42.88,3.33,3.33,0,0,1,418.28,39.57Z"/><path class="cls-3" d="M418.28,35.09A3.32,3.32,0,0,1,415,38.4,3.33,3.33,0,0,1,418.28,35.09Z"/><path class="cls-5" d="M411.7,57.49a3.33,3.33,0,0,1-3.3,3.31A3.35,3.35,0,0,1,411.7,57.49Z"/><path class="cls-5" d="M405.11,57.49a3.32,3.32,0,0,1-3.29,3.31A3.34,3.34,0,0,1,405.11,57.49Z"/><path class="cls-4" d="M411.7,53a3.32,3.32,0,0,1-3.3,3.31A3.35,3.35,0,0,1,411.7,53Z"/><path class="cls-4" d="M405.11,53a3.31,3.31,0,0,1-3.29,3.31A3.34,3.34,0,0,1,405.11,53Z"/><path class="cls-3" d="M411.7,48.47a3.32,3.32,0,0,1-3.3,3.31A3.35,3.35,0,0,1,411.7,48.47Z"/><path class="cls-3" d="M405.11,48.47a3.31,3.31,0,0,1-3.29,3.31A3.34,3.34,0,0,1,405.11,48.47Z"/><path class="cls-5" d="M411.7,44a3.32,3.32,0,0,1-3.3,3.31A3.35,3.35,0,0,1,411.7,44Z"/><path class="cls-4" d="M411.7,39.57a3.33,3.33,0,0,1-3.3,3.31A3.35,3.35,0,0,1,411.7,39.57Z"/><path class="cls-3" d="M411.7,35.09a3.33,3.33,0,0,1-3.3,3.31A3.35,3.35,0,0,1,411.7,35.09Z"/><path class="cls-5" d="M405.11,44a3.31,3.31,0,0,1-3.29,3.31A3.34,3.34,0,0,1,405.11,44Z"/><path class="cls-4" d="M405.11,39.57a3.32,3.32,0,0,1-3.29,3.31A3.34,3.34,0,0,1,405.11,39.57Z"/><path class="cls-3" d="M405.11,35.09a3.32,3.32,0,0,1-3.29,3.31A3.34,3.34,0,0,1,405.11,35.09Z"/><path class="cls-6" d="M428.16,60.8a3.33,3.33,0,0,0-3.3-3.31A3.35,3.35,0,0,0,428.16,60.8Z"/><path class="cls-6" d="M428.16,56.29a3.33,3.33,0,0,0-3.3-3.31A3.35,3.35,0,0,0,428.16,56.29Z"/><path class="cls-6" d="M428.16,51.78a3.33,3.33,0,0,0-3.3-3.31A3.35,3.35,0,0,0,428.16,51.78Z"/><path class="cls-6" d="M428.16,47.27a3.33,3.33,0,0,0-3.3-3.31A3.35,3.35,0,0,0,428.16,47.27Z"/><path class="cls-6" d="M428.16,42.88a3.33,3.33,0,0,0-3.3-3.31A3.35,3.35,0,0,0,428.16,42.88Z"/><path class="cls-6" d="M428.16,38.4a3.33,3.33,0,0,0-3.3-3.31A3.35,3.35,0,0,0,428.16,38.4Z"/><path class="cls-5" d="M421.57,60.8a3.32,3.32,0,0,0-3.29-3.31A3.33,3.33,0,0,0,421.57,60.8Z"/><path class="cls-4" d="M421.57,56.29A3.32,3.32,0,0,0,418.28,53,3.33,3.33,0,0,0,421.57,56.29Z"/><path class="cls-3" d="M421.57,51.78a3.32,3.32,0,0,0-3.29-3.31A3.33,3.33,0,0,0,421.57,51.78Z"/><path class="cls-5" d="M421.57,47.27A3.32,3.32,0,0,0,418.28,44,3.33,3.33,0,0,0,421.57,47.27Z"/><path class="cls-4" d="M421.57,42.88a3.32,3.32,0,0,0-3.29-3.31A3.33,3.33,0,0,0,421.57,42.88Z"/><path class="cls-3" d="M421.57,38.4a3.32,3.32,0,0,0-3.29-3.31A3.33,3.33,0,0,0,421.57,38.4Z"/><path class="cls-5" d="M415,60.8a3.33,3.33,0,0,0-3.29-3.31A3.33,3.33,0,0,0,415,60.8Z"/><path class="cls-5" d="M408.41,60.8a3.33,3.33,0,0,0-3.3-3.31A3.34,3.34,0,0,0,408.41,60.8Z"/><path class="cls-4" d="M415,56.29A3.33,3.33,0,0,0,411.7,53,3.33,3.33,0,0,0,415,56.29Z"/><path class="cls-4" d="M408.41,56.29a3.33,3.33,0,0,0-3.3-3.31A3.34,3.34,0,0,0,408.41,56.29Z"/><path class="cls-3" d="M415,51.78a3.33,3.33,0,0,0-3.29-3.31A3.33,3.33,0,0,0,415,51.78Z"/><path class="cls-3" d="M408.41,51.78a3.33,3.33,0,0,0-3.3-3.31A3.34,3.34,0,0,0,408.41,51.78Z"/><path class="cls-5" d="M415,47.27A3.33,3.33,0,0,0,411.7,44,3.33,3.33,0,0,0,415,47.27Z"/><path class="cls-4" d="M415,42.88a3.33,3.33,0,0,0-3.29-3.31A3.33,3.33,0,0,0,415,42.88Z"/><path class="cls-3" d="M415,38.4a3.33,3.33,0,0,0-3.29-3.31A3.33,3.33,0,0,0,415,38.4Z"/><path class="cls-5" d="M408.41,47.27a3.33,3.33,0,0,0-3.3-3.31A3.34,3.34,0,0,0,408.41,47.27Z"/><path class="cls-4" d="M408.41,42.88a3.33,3.33,0,0,0-3.3-3.31A3.34,3.34,0,0,0,408.41,42.88Z"/><path class="cls-3" d="M408.41,38.4a3.33,3.33,0,0,0-3.3-3.31A3.34,3.34,0,0,0,408.41,38.4Z"/><path class="cls-3" d="M361.57,32V64L344.05,32Z"/><path class="cls-3" d="M361.57,32V0L379.1,32Z"/><path class="cls-1" d="M361.57,32H344.05L361.57,0Z"/><path class="cls-1" d="M361.57,32H379.1L361.57,64Z"/><path class="cls-5" d="M361.58,32c.13,3.32,2.25,10,10.19,10.24C371.54,38.82,369.29,32,361.58,32Z"/><path class="cls-5" d="M351.38,42.24c.14-3.32,2.26-10,10.19-10.24C361.35,35.41,359.1,42.24,351.38,42.24Z"/><path class="cls-5" d="M361.58,32c-.14-3.32-2.26-10-10.2-10.24C351.61,25.17,353.86,32,361.58,32Z"/><path class="cls-5" d="M371.77,21.76c-.14,3.32-2.26,10-10.19,10.24C361.81,28.58,364.06,21.76,371.77,21.76Z"/><rect class="cls-1" x="493.14" y="32" width="31.86" height="32"/><rect class="cls-7" x="525" y="32" width="31.86" height="32"/><rect class="cls-7" x="588.71" y="32" width="35.68" height="32"/><path class="cls-3" d="M525,35.56a12.41,12.41,0,0,0,0,24.81Z"/><path class="cls-4" d="M525,60.37a12.41,12.41,0,0,0,0-24.81Z"/><path class="cls-3" d="M588.72,64a16,16,0,0,0,0-32Z"/><rect class="cls-1" x="556.86" y="32" width="31.86" height="32"/><path class="cls-5" d="M561.42,57.49a3.33,3.33,0,0,0,3.3,3.31A3.35,3.35,0,0,0,561.42,57.49Z"/><path class="cls-4" d="M561.42,53a3.32,3.32,0,0,0,3.3,3.31A3.35,3.35,0,0,0,561.42,53Z"/><path class="cls-3" d="M561.42,48.47a3.32,3.32,0,0,0,3.3,3.31A3.35,3.35,0,0,0,561.42,48.47Z"/><path class="cls-5" d="M561.42,44a3.32,3.32,0,0,0,3.3,3.31A3.35,3.35,0,0,0,561.42,44Z"/><path class="cls-4" d="M561.42,39.57a3.33,3.33,0,0,0,3.3,3.31A3.35,3.35,0,0,0,561.42,39.57Z"/><path class="cls-3" d="M561.42,35.09a3.33,3.33,0,0,0,3.3,3.31A3.35,3.35,0,0,0,561.42,35.09Z"/><path class="cls-5" d="M568,57.49a3.32,3.32,0,0,0,3.29,3.31A3.34,3.34,0,0,0,568,57.49Z"/><path class="cls-4" d="M568,53a3.31,3.31,0,0,0,3.29,3.31A3.34,3.34,0,0,0,568,53Z"/><path class="cls-3" d="M568,48.47a3.31,3.31,0,0,0,3.29,3.31A3.34,3.34,0,0,0,568,48.47Z"/><path class="cls-5" d="M568,44a3.31,3.31,0,0,0,3.29,3.31A3.34,3.34,0,0,0,568,44Z"/><path class="cls-4" d="M568,39.57a3.32,3.32,0,0,0,3.29,3.31A3.34,3.34,0,0,0,568,39.57Z"/><path class="cls-3" d="M568,35.09a3.32,3.32,0,0,0,3.29,3.31A3.34,3.34,0,0,0,568,35.09Z"/><path class="cls-5" d="M574.59,57.49a3.33,3.33,0,0,0,3.29,3.31A3.33,3.33,0,0,0,574.59,57.49Z"/><path class="cls-5" d="M581.17,57.49a3.33,3.33,0,0,0,3.3,3.31A3.34,3.34,0,0,0,581.17,57.49Z"/><path class="cls-4" d="M574.59,53a3.32,3.32,0,0,0,3.29,3.31A3.33,3.33,0,0,0,574.59,53Z"/><path class="cls-4" d="M581.17,53a3.32,3.32,0,0,0,3.3,3.31A3.34,3.34,0,0,0,581.17,53Z"/><path class="cls-3" d="M574.59,48.47a3.32,3.32,0,0,0,3.29,3.31A3.33,3.33,0,0,0,574.59,48.47Z"/><path class="cls-3" d="M581.17,48.47a3.32,3.32,0,0,0,3.3,3.31A3.34,3.34,0,0,0,581.17,48.47Z"/><path class="cls-5" d="M574.59,44a3.32,3.32,0,0,0,3.29,3.31A3.33,3.33,0,0,0,574.59,44Z"/><path class="cls-4" d="M574.59,39.57a3.33,3.33,0,0,0,3.29,3.31A3.33,3.33,0,0,0,574.59,39.57Z"/><path class="cls-3" d="M574.59,35.09a3.33,3.33,0,0,0,3.29,3.31A3.33,3.33,0,0,0,574.59,35.09Z"/><path class="cls-5" d="M581.17,44a3.32,3.32,0,0,0,3.3,3.31A3.34,3.34,0,0,0,581.17,44Z"/><path class="cls-4" d="M581.17,39.57a3.33,3.33,0,0,0,3.3,3.31A3.34,3.34,0,0,0,581.17,39.57Z"/><path class="cls-3" d="M581.17,35.09a3.33,3.33,0,0,0,3.3,3.31A3.34,3.34,0,0,0,581.17,35.09Z"/><path class="cls-7" d="M558.13,60.8a3.32,3.32,0,0,1,3.29-3.31A3.33,3.33,0,0,1,558.13,60.8Z"/><path class="cls-7" d="M558.13,56.29A3.32,3.32,0,0,1,561.42,53,3.33,3.33,0,0,1,558.13,56.29Z"/><path class="cls-7" d="M558.13,51.78a3.32,3.32,0,0,1,3.29-3.31A3.33,3.33,0,0,1,558.13,51.78Z"/><path class="cls-7" d="M558.13,47.27A3.32,3.32,0,0,1,561.42,44,3.33,3.33,0,0,1,558.13,47.27Z"/><path class="cls-7" d="M558.13,42.88a3.32,3.32,0,0,1,3.29-3.31A3.33,3.33,0,0,1,558.13,42.88Z"/><path class="cls-7" d="M558.13,38.4a3.32,3.32,0,0,1,3.29-3.31A3.33,3.33,0,0,1,558.13,38.4Z"/><path class="cls-5" d="M564.71,60.8a3.33,3.33,0,0,1,3.3-3.31A3.34,3.34,0,0,1,564.71,60.8Z"/><path class="cls-4" d="M564.71,56.29A3.33,3.33,0,0,1,568,53,3.34,3.34,0,0,1,564.71,56.29Z"/><path class="cls-3" d="M564.71,51.78a3.33,3.33,0,0,1,3.3-3.31A3.34,3.34,0,0,1,564.71,51.78Z"/><path class="cls-5" d="M564.71,47.27A3.33,3.33,0,0,1,568,44,3.34,3.34,0,0,1,564.71,47.27Z"/><path class="cls-4" d="M564.71,42.88a3.33,3.33,0,0,1,3.3-3.31A3.34,3.34,0,0,1,564.71,42.88Z"/><path class="cls-3" d="M564.71,38.4a3.33,3.33,0,0,1,3.3-3.31A3.34,3.34,0,0,1,564.71,38.4Z"/><path class="cls-5" d="M571.3,60.8a3.32,3.32,0,0,1,3.29-3.31A3.33,3.33,0,0,1,571.3,60.8Z"/><path class="cls-5" d="M577.88,60.8a3.33,3.33,0,0,1,3.29-3.31A3.33,3.33,0,0,1,577.88,60.8Z"/><path class="cls-4" d="M571.3,56.29A3.32,3.32,0,0,1,574.59,53,3.33,3.33,0,0,1,571.3,56.29Z"/><path class="cls-4" d="M577.88,56.29A3.33,3.33,0,0,1,581.17,53,3.33,3.33,0,0,1,577.88,56.29Z"/><path class="cls-3" d="M571.3,51.78a3.32,3.32,0,0,1,3.29-3.31A3.33,3.33,0,0,1,571.3,51.78Z"/><path class="cls-3" d="M577.88,51.78a3.33,3.33,0,0,1,3.29-3.31A3.33,3.33,0,0,1,577.88,51.78Z"/><path class="cls-5" d="M571.3,47.27A3.32,3.32,0,0,1,574.59,44,3.33,3.33,0,0,1,571.3,47.27Z"/><path class="cls-4" d="M571.3,42.88a3.32,3.32,0,0,1,3.29-3.31A3.33,3.33,0,0,1,571.3,42.88Z"/><path class="cls-3" d="M571.3,38.4a3.32,3.32,0,0,1,3.29-3.31A3.33,3.33,0,0,1,571.3,38.4Z"/><path class="cls-5" d="M577.88,47.27A3.33,3.33,0,0,1,581.17,44,3.33,3.33,0,0,1,577.88,47.27Z"/><path class="cls-4" d="M577.88,42.88a3.33,3.33,0,0,1,3.29-3.31A3.33,3.33,0,0,1,577.88,42.88Z"/><path class="cls-3" d="M577.88,38.4a3.33,3.33,0,0,1,3.29-3.31A3.33,3.33,0,0,1,577.88,38.4Z"/><rect class="cls-1" x="723.79" y="32" width="31.86" height="32"/><rect class="cls-7" x="691.93" y="32" width="31.86" height="32"/><rect class="cls-7" x="624.39" y="32" width="35.68" height="32"/><path class="cls-3" d="M723.79,35.56a12.41,12.41,0,0,1,0,24.81Z"/><path class="cls-4" d="M723.79,60.37a12.41,12.41,0,0,1,0-24.81Z"/><path class="cls-3" d="M660.07,64a16,16,0,0,1,0-32Z"/><rect class="cls-1" x="660.07" y="32" width="31.86" height="32"/><path class="cls-5" d="M687.36,57.49a3.32,3.32,0,0,1-3.29,3.31A3.34,3.34,0,0,1,687.36,57.49Z"/><path class="cls-4" d="M687.36,53a3.31,3.31,0,0,1-3.29,3.31A3.34,3.34,0,0,1,687.36,53Z"/><path class="cls-3" d="M687.36,48.47a3.31,3.31,0,0,1-3.29,3.31A3.34,3.34,0,0,1,687.36,48.47Z"/><path class="cls-5" d="M687.36,44a3.31,3.31,0,0,1-3.29,3.31A3.34,3.34,0,0,1,687.36,44Z"/><path class="cls-4" d="M687.36,39.57a3.32,3.32,0,0,1-3.29,3.31A3.34,3.34,0,0,1,687.36,39.57Z"/><path class="cls-3" d="M687.36,35.09a3.32,3.32,0,0,1-3.29,3.31A3.34,3.34,0,0,1,687.36,35.09Z"/><path class="cls-5" d="M680.78,57.49a3.32,3.32,0,0,1-3.29,3.31A3.33,3.33,0,0,1,680.78,57.49Z"/><path class="cls-4" d="M680.78,53a3.31,3.31,0,0,1-3.29,3.31A3.33,3.33,0,0,1,680.78,53Z"/><path class="cls-3" d="M680.78,48.47a3.31,3.31,0,0,1-3.29,3.31A3.33,3.33,0,0,1,680.78,48.47Z"/><path class="cls-5" d="M680.78,44a3.31,3.31,0,0,1-3.29,3.31A3.33,3.33,0,0,1,680.78,44Z"/><path class="cls-4" d="M680.78,39.57a3.32,3.32,0,0,1-3.29,3.31A3.33,3.33,0,0,1,680.78,39.57Z"/><path class="cls-3" d="M680.78,35.09a3.32,3.32,0,0,1-3.29,3.31A3.33,3.33,0,0,1,680.78,35.09Z"/><path class="cls-5" d="M674.2,57.49a3.33,3.33,0,0,1-3.3,3.31A3.35,3.35,0,0,1,674.2,57.49Z"/><path class="cls-5" d="M667.61,57.49a3.32,3.32,0,0,1-3.29,3.31A3.34,3.34,0,0,1,667.61,57.49Z"/><path class="cls-4" d="M674.2,53a3.32,3.32,0,0,1-3.3,3.31A3.35,3.35,0,0,1,674.2,53Z"/><path class="cls-4" d="M667.61,53a3.31,3.31,0,0,1-3.29,3.31A3.34,3.34,0,0,1,667.61,53Z"/><path class="cls-3" d="M674.2,48.47a3.32,3.32,0,0,1-3.3,3.31A3.35,3.35,0,0,1,674.2,48.47Z"/><path class="cls-3" d="M667.61,48.47a3.31,3.31,0,0,1-3.29,3.31A3.34,3.34,0,0,1,667.61,48.47Z"/><path class="cls-5" d="M674.2,44a3.32,3.32,0,0,1-3.3,3.31A3.35,3.35,0,0,1,674.2,44Z"/><path class="cls-4" d="M674.2,39.57a3.33,3.33,0,0,1-3.3,3.31A3.35,3.35,0,0,1,674.2,39.57Z"/><path class="cls-3" d="M674.2,35.09a3.33,3.33,0,0,1-3.3,3.31A3.35,3.35,0,0,1,674.2,35.09Z"/><path class="cls-5" d="M667.61,44a3.31,3.31,0,0,1-3.29,3.31A3.34,3.34,0,0,1,667.61,44Z"/><path class="cls-4" d="M667.61,39.57a3.32,3.32,0,0,1-3.29,3.31A3.34,3.34,0,0,1,667.61,39.57Z"/><path class="cls-3" d="M667.61,35.09a3.32,3.32,0,0,1-3.29,3.31A3.34,3.34,0,0,1,667.61,35.09Z"/><path class="cls-7" d="M690.66,60.8a3.33,3.33,0,0,0-3.29-3.31A3.33,3.33,0,0,0,690.66,60.8Z"/><path class="cls-7" d="M690.66,56.29A3.33,3.33,0,0,0,687.37,53,3.33,3.33,0,0,0,690.66,56.29Z"/><path class="cls-7" d="M690.66,51.78a3.33,3.33,0,0,0-3.29-3.31A3.33,3.33,0,0,0,690.66,51.78Z"/><path class="cls-7" d="M690.66,47.27A3.33,3.33,0,0,0,687.37,44,3.33,3.33,0,0,0,690.66,47.27Z"/><path class="cls-7" d="M690.66,42.88a3.33,3.33,0,0,0-3.29-3.31A3.33,3.33,0,0,0,690.66,42.88Z"/><path class="cls-7" d="M690.66,38.4a3.33,3.33,0,0,0-3.29-3.31A3.33,3.33,0,0,0,690.66,38.4Z"/><path class="cls-5" d="M684.07,60.8a3.32,3.32,0,0,0-3.29-3.31A3.33,3.33,0,0,0,684.07,60.8Z"/><path class="cls-4" d="M684.07,56.29A3.32,3.32,0,0,0,680.78,53,3.33,3.33,0,0,0,684.07,56.29Z"/><path class="cls-3" d="M684.07,51.78a3.32,3.32,0,0,0-3.29-3.31A3.33,3.33,0,0,0,684.07,51.78Z"/><path class="cls-5" d="M684.07,47.27A3.32,3.32,0,0,0,680.78,44,3.33,3.33,0,0,0,684.07,47.27Z"/><path class="cls-4" d="M684.07,42.88a3.32,3.32,0,0,0-3.29-3.31A3.33,3.33,0,0,0,684.07,42.88Z"/><path class="cls-3" d="M684.07,38.4a3.32,3.32,0,0,0-3.29-3.31A3.33,3.33,0,0,0,684.07,38.4Z"/><path class="cls-5" d="M677.49,60.8a3.33,3.33,0,0,0-3.29-3.31A3.33,3.33,0,0,0,677.49,60.8Z"/><path class="cls-5" d="M670.91,60.8a3.33,3.33,0,0,0-3.3-3.31A3.34,3.34,0,0,0,670.91,60.8Z"/><path class="cls-4" d="M677.49,56.29A3.33,3.33,0,0,0,674.2,53,3.33,3.33,0,0,0,677.49,56.29Z"/><path class="cls-4" d="M670.91,56.29a3.33,3.33,0,0,0-3.3-3.31A3.34,3.34,0,0,0,670.91,56.29Z"/><path class="cls-3" d="M677.49,51.78a3.33,3.33,0,0,0-3.29-3.31A3.33,3.33,0,0,0,677.49,51.78Z"/><path class="cls-3" d="M670.91,51.78a3.33,3.33,0,0,0-3.3-3.31A3.34,3.34,0,0,0,670.91,51.78Z"/><path class="cls-5" d="M677.49,47.27A3.33,3.33,0,0,0,674.2,44,3.33,3.33,0,0,0,677.49,47.27Z"/><path class="cls-4" d="M677.49,42.88a3.33,3.33,0,0,0-3.29-3.31A3.33,3.33,0,0,0,677.49,42.88Z"/><path class="cls-3" d="M677.49,38.4a3.33,3.33,0,0,0-3.29-3.31A3.33,3.33,0,0,0,677.49,38.4Z"/><path class="cls-5" d="M670.91,47.27a3.33,3.33,0,0,0-3.3-3.31A3.34,3.34,0,0,0,670.91,47.27Z"/><path class="cls-4" d="M670.91,42.88a3.33,3.33,0,0,0-3.3-3.31A3.34,3.34,0,0,0,670.91,42.88Z"/><path class="cls-3" d="M670.91,38.4a3.33,3.33,0,0,0-3.3-3.31A3.34,3.34,0,0,0,670.91,38.4Z"/><path class="cls-3" d="M624.07,32V64L606.55,32Z"/><path class="cls-3" d="M624.07,32V0L641.6,32Z"/><path class="cls-1" d="M624.07,32H606.55L624.07,0Z"/><path class="cls-1" d="M624.07,32H641.6L624.07,64Z"/><path class="cls-5" d="M624.07,32c.14,3.32,2.26,10,10.2,10.24C634,38.82,631.79,32,624.07,32Z"/><path class="cls-5" d="M613.88,42.24c.14-3.32,2.26-10,10.19-10.24C623.84,35.41,621.59,42.24,613.88,42.24Z"/><path class="cls-5" d="M624.08,32c-.14-3.32-2.26-10-10.2-10.24C614.11,25.17,616.36,32,624.08,32Z"/><path class="cls-5" d="M634.27,21.76c-.14,3.32-2.26,10-10.19,10.24C624.31,28.58,626.56,21.76,634.27,21.76Z"/><rect class="cls-1" x="755.64" y="32" width="31.86" height="32"/><rect class="cls-8" x="787.5" y="32" width="31.86" height="32"/><rect class="cls-8" x="851.21" y="32" width="35.68" height="32"/><path class="cls-3" d="M787.5,35.56a12.41,12.41,0,0,0,0,24.81Z"/><path class="cls-4" d="M787.5,60.37a12.41,12.41,0,0,0,0-24.81Z"/><path class="cls-3" d="M851.22,64a16,16,0,0,0,0-32Z"/><rect class="cls-1" x="819.36" y="32" width="31.86" height="32"/><path class="cls-5" d="M823.92,57.49a3.33,3.33,0,0,0,3.29,3.31A3.33,3.33,0,0,0,823.92,57.49Z"/><path class="cls-4" d="M823.92,53a3.32,3.32,0,0,0,3.29,3.31A3.33,3.33,0,0,0,823.92,53Z"/><path class="cls-3" d="M823.92,48.47a3.32,3.32,0,0,0,3.29,3.31A3.33,3.33,0,0,0,823.92,48.47Z"/><path class="cls-5" d="M823.92,44a3.32,3.32,0,0,0,3.29,3.31A3.33,3.33,0,0,0,823.92,44Z"/><path class="cls-4" d="M823.92,39.57a3.33,3.33,0,0,0,3.29,3.31A3.33,3.33,0,0,0,823.92,39.57Z"/><path class="cls-3" d="M823.92,35.09a3.33,3.33,0,0,0,3.29,3.31A3.33,3.33,0,0,0,823.92,35.09Z"/><path class="cls-5" d="M830.51,57.49a3.32,3.32,0,0,0,3.29,3.31A3.34,3.34,0,0,0,830.51,57.49Z"/><path class="cls-4" d="M830.51,53a3.31,3.31,0,0,0,3.29,3.31A3.34,3.34,0,0,0,830.51,53Z"/><path class="cls-3" d="M830.51,48.47a3.31,3.31,0,0,0,3.29,3.31A3.34,3.34,0,0,0,830.51,48.47Z"/><path class="cls-5" d="M830.51,44a3.31,3.31,0,0,0,3.29,3.31A3.34,3.34,0,0,0,830.51,44Z"/><path class="cls-4" d="M830.51,39.57a3.32,3.32,0,0,0,3.29,3.31A3.34,3.34,0,0,0,830.51,39.57Z"/><path class="cls-3" d="M830.51,35.09a3.32,3.32,0,0,0,3.29,3.31A3.34,3.34,0,0,0,830.51,35.09Z"/><path class="cls-5" d="M837.09,57.49a3.33,3.33,0,0,0,3.29,3.31A3.33,3.33,0,0,0,837.09,57.49Z"/><path class="cls-5" d="M843.67,57.49A3.33,3.33,0,0,0,847,60.8,3.34,3.34,0,0,0,843.67,57.49Z"/><path class="cls-4" d="M837.09,53a3.32,3.32,0,0,0,3.29,3.31A3.33,3.33,0,0,0,837.09,53Z"/><path class="cls-4" d="M843.67,53a3.32,3.32,0,0,0,3.3,3.31A3.34,3.34,0,0,0,843.67,53Z"/><path class="cls-3" d="M837.09,48.47a3.32,3.32,0,0,0,3.29,3.31A3.33,3.33,0,0,0,837.09,48.47Z"/><path class="cls-3" d="M843.67,48.47a3.32,3.32,0,0,0,3.3,3.31A3.34,3.34,0,0,0,843.67,48.47Z"/><path class="cls-5" d="M837.09,44a3.32,3.32,0,0,0,3.29,3.31A3.33,3.33,0,0,0,837.09,44Z"/><path class="cls-4" d="M837.09,39.57a3.33,3.33,0,0,0,3.29,3.31A3.33,3.33,0,0,0,837.09,39.57Z"/><path class="cls-3" d="M837.09,35.09a3.33,3.33,0,0,0,3.29,3.31A3.33,3.33,0,0,0,837.09,35.09Z"/><path class="cls-5" d="M843.67,44a3.32,3.32,0,0,0,3.3,3.31A3.34,3.34,0,0,0,843.67,44Z"/><path class="cls-4" d="M843.67,39.57a3.33,3.33,0,0,0,3.3,3.31A3.34,3.34,0,0,0,843.67,39.57Z"/><path class="cls-3" d="M843.67,35.09A3.33,3.33,0,0,0,847,38.4,3.34,3.34,0,0,0,843.67,35.09Z"/><path class="cls-8" d="M820.63,60.8a3.33,3.33,0,0,1,3.29-3.31A3.33,3.33,0,0,1,820.63,60.8Z"/><path class="cls-8" d="M820.63,56.29A3.33,3.33,0,0,1,823.92,53,3.33,3.33,0,0,1,820.63,56.29Z"/><path class="cls-8" d="M820.63,51.78a3.33,3.33,0,0,1,3.29-3.31A3.33,3.33,0,0,1,820.63,51.78Z"/><path class="cls-8" d="M820.63,47.27A3.33,3.33,0,0,1,823.92,44,3.33,3.33,0,0,1,820.63,47.27Z"/><path class="cls-8" d="M820.63,42.88a3.33,3.33,0,0,1,3.29-3.31A3.33,3.33,0,0,1,820.63,42.88Z"/><path class="cls-8" d="M820.63,38.4a3.33,3.33,0,0,1,3.29-3.31A3.33,3.33,0,0,1,820.63,38.4Z"/><path class="cls-5" d="M827.21,60.8a3.33,3.33,0,0,1,3.3-3.31A3.34,3.34,0,0,1,827.21,60.8Z"/><path class="cls-4" d="M827.21,56.29a3.33,3.33,0,0,1,3.3-3.31A3.34,3.34,0,0,1,827.21,56.29Z"/><path class="cls-3" d="M827.21,51.78a3.33,3.33,0,0,1,3.3-3.31A3.34,3.34,0,0,1,827.21,51.78Z"/><path class="cls-5" d="M827.21,47.27a3.33,3.33,0,0,1,3.3-3.31A3.34,3.34,0,0,1,827.21,47.27Z"/><path class="cls-4" d="M827.21,42.88a3.33,3.33,0,0,1,3.3-3.31A3.34,3.34,0,0,1,827.21,42.88Z"/><path class="cls-3" d="M827.21,38.4a3.33,3.33,0,0,1,3.3-3.31A3.34,3.34,0,0,1,827.21,38.4Z"/><path class="cls-5" d="M833.8,60.8a3.32,3.32,0,0,1,3.29-3.31A3.33,3.33,0,0,1,833.8,60.8Z"/><path class="cls-5" d="M840.38,60.8a3.33,3.33,0,0,1,3.29-3.31A3.33,3.33,0,0,1,840.38,60.8Z"/><path class="cls-4" d="M833.8,56.29A3.32,3.32,0,0,1,837.09,53,3.33,3.33,0,0,1,833.8,56.29Z"/><path class="cls-4" d="M840.38,56.29A3.33,3.33,0,0,1,843.67,53,3.33,3.33,0,0,1,840.38,56.29Z"/><path class="cls-3" d="M833.8,51.78a3.32,3.32,0,0,1,3.29-3.31A3.33,3.33,0,0,1,833.8,51.78Z"/><path class="cls-3" d="M840.38,51.78a3.33,3.33,0,0,1,3.29-3.31A3.33,3.33,0,0,1,840.38,51.78Z"/><path class="cls-5" d="M833.8,47.27A3.32,3.32,0,0,1,837.09,44,3.33,3.33,0,0,1,833.8,47.27Z"/><path class="cls-4" d="M833.8,42.88a3.32,3.32,0,0,1,3.29-3.31A3.33,3.33,0,0,1,833.8,42.88Z"/><path class="cls-3" d="M833.8,38.4a3.32,3.32,0,0,1,3.29-3.31A3.33,3.33,0,0,1,833.8,38.4Z"/><path class="cls-5" d="M840.38,47.27A3.33,3.33,0,0,1,843.67,44,3.33,3.33,0,0,1,840.38,47.27Z"/><path class="cls-4" d="M840.38,42.88a3.33,3.33,0,0,1,3.29-3.31A3.33,3.33,0,0,1,840.38,42.88Z"/><path class="cls-3" d="M840.38,38.4a3.33,3.33,0,0,1,3.29-3.31A3.33,3.33,0,0,1,840.38,38.4Z"/><line class="cls-1" x1="986.29" y1="64" x2="986.29" y2="32"/><rect class="cls-8" x="954.43" y="32" width="31.86" height="32"/><rect class="cls-8" x="886.89" y="32" width="35.68" height="32"/><path class="cls-3" d="M986.28,60.37V35.56"/><path class="cls-4" d="M986.28,60.37a12.41,12.41,0,0,1,0-24.81Z"/><path class="cls-3" d="M922.57,64a16,16,0,0,1,0-32Z"/><rect class="cls-1" x="922.57" y="32" width="31.86" height="32"/><path class="cls-5" d="M949.86,57.49a3.32,3.32,0,0,1-3.29,3.31A3.34,3.34,0,0,1,949.86,57.49Z"/><path class="cls-4" d="M949.86,53a3.31,3.31,0,0,1-3.29,3.31A3.34,3.34,0,0,1,949.86,53Z"/><path class="cls-3" d="M949.86,48.47a3.31,3.31,0,0,1-3.29,3.31A3.34,3.34,0,0,1,949.86,48.47Z"/><path class="cls-5" d="M949.86,44a3.31,3.31,0,0,1-3.29,3.31A3.34,3.34,0,0,1,949.86,44Z"/><path class="cls-4" d="M949.86,39.57a3.32,3.32,0,0,1-3.29,3.31A3.34,3.34,0,0,1,949.86,39.57Z"/><path class="cls-3" d="M949.86,35.09a3.32,3.32,0,0,1-3.29,3.31A3.34,3.34,0,0,1,949.86,35.09Z"/><path class="cls-5" d="M943.28,57.49A3.32,3.32,0,0,1,940,60.8,3.33,3.33,0,0,1,943.28,57.49Z"/><path class="cls-4" d="M943.28,53A3.31,3.31,0,0,1,940,56.29,3.33,3.33,0,0,1,943.28,53Z"/><path class="cls-3" d="M943.28,48.47A3.31,3.31,0,0,1,940,51.78,3.33,3.33,0,0,1,943.28,48.47Z"/><path class="cls-5" d="M943.28,44A3.31,3.31,0,0,1,940,47.27,3.33,3.33,0,0,1,943.28,44Z"/><path class="cls-4" d="M943.28,39.57A3.32,3.32,0,0,1,940,42.88,3.33,3.33,0,0,1,943.28,39.57Z"/><path class="cls-3" d="M943.28,35.09A3.32,3.32,0,0,1,940,38.4,3.33,3.33,0,0,1,943.28,35.09Z"/><path class="cls-5" d="M936.7,57.49a3.33,3.33,0,0,1-3.3,3.31A3.35,3.35,0,0,1,936.7,57.49Z"/><path class="cls-5" d="M930.11,57.49a3.32,3.32,0,0,1-3.29,3.31A3.34,3.34,0,0,1,930.11,57.49Z"/><path class="cls-4" d="M936.7,53a3.32,3.32,0,0,1-3.3,3.31A3.35,3.35,0,0,1,936.7,53Z"/><path class="cls-4" d="M930.11,53a3.31,3.31,0,0,1-3.29,3.31A3.34,3.34,0,0,1,930.11,53Z"/><path class="cls-3" d="M936.7,48.47a3.32,3.32,0,0,1-3.3,3.31A3.35,3.35,0,0,1,936.7,48.47Z"/><path class="cls-3" d="M930.11,48.47a3.31,3.31,0,0,1-3.29,3.31A3.34,3.34,0,0,1,930.11,48.47Z"/><path class="cls-5" d="M936.7,44a3.32,3.32,0,0,1-3.3,3.31A3.35,3.35,0,0,1,936.7,44Z"/><path class="cls-4" d="M936.7,39.57a3.33,3.33,0,0,1-3.3,3.31A3.35,3.35,0,0,1,936.7,39.57Z"/><path class="cls-3" d="M936.7,35.09a3.33,3.33,0,0,1-3.3,3.31A3.35,3.35,0,0,1,936.7,35.09Z"/><path class="cls-5" d="M930.11,44a3.31,3.31,0,0,1-3.29,3.31A3.34,3.34,0,0,1,930.11,44Z"/><path class="cls-4" d="M930.11,39.57a3.32,3.32,0,0,1-3.29,3.31A3.34,3.34,0,0,1,930.11,39.57Z"/><path class="cls-3" d="M930.11,35.09a3.32,3.32,0,0,1-3.29,3.31A3.34,3.34,0,0,1,930.11,35.09Z"/><path class="cls-8" d="M953.16,60.8a3.33,3.33,0,0,0-3.29-3.31A3.33,3.33,0,0,0,953.16,60.8Z"/><path class="cls-8" d="M953.16,56.29A3.33,3.33,0,0,0,949.87,53,3.33,3.33,0,0,0,953.16,56.29Z"/><path class="cls-8" d="M953.16,51.78a3.33,3.33,0,0,0-3.29-3.31A3.33,3.33,0,0,0,953.16,51.78Z"/><path class="cls-8" d="M953.16,47.27A3.33,3.33,0,0,0,949.87,44,3.33,3.33,0,0,0,953.16,47.27Z"/><path class="cls-8" d="M953.16,42.88a3.33,3.33,0,0,0-3.29-3.31A3.33,3.33,0,0,0,953.16,42.88Z"/><path class="cls-8" d="M953.16,38.4a3.33,3.33,0,0,0-3.29-3.31A3.33,3.33,0,0,0,953.16,38.4Z"/><path class="cls-5" d="M946.57,60.8a3.32,3.32,0,0,0-3.29-3.31A3.33,3.33,0,0,0,946.57,60.8Z"/><path class="cls-4" d="M946.57,56.29A3.32,3.32,0,0,0,943.28,53,3.33,3.33,0,0,0,946.57,56.29Z"/><path class="cls-3" d="M946.57,51.78a3.32,3.32,0,0,0-3.29-3.31A3.33,3.33,0,0,0,946.57,51.78Z"/><path class="cls-5" d="M946.57,47.27A3.32,3.32,0,0,0,943.28,44,3.33,3.33,0,0,0,946.57,47.27Z"/><path class="cls-4" d="M946.57,42.88a3.32,3.32,0,0,0-3.29-3.31A3.33,3.33,0,0,0,946.57,42.88Z"/><path class="cls-3" d="M946.57,38.4a3.32,3.32,0,0,0-3.29-3.31A3.33,3.33,0,0,0,946.57,38.4Z"/><path class="cls-5" d="M940,60.8a3.33,3.33,0,0,0-3.29-3.31A3.33,3.33,0,0,0,940,60.8Z"/><path class="cls-5" d="M933.41,60.8a3.33,3.33,0,0,0-3.3-3.31A3.34,3.34,0,0,0,933.41,60.8Z"/><path class="cls-4" d="M940,56.29A3.33,3.33,0,0,0,936.7,53,3.33,3.33,0,0,0,940,56.29Z"/><path class="cls-4" d="M933.41,56.29a3.33,3.33,0,0,0-3.3-3.31A3.34,3.34,0,0,0,933.41,56.29Z"/><path class="cls-3" d="M940,51.78a3.33,3.33,0,0,0-3.29-3.31A3.33,3.33,0,0,0,940,51.78Z"/><path class="cls-3" d="M933.41,51.78a3.33,3.33,0,0,0-3.3-3.31A3.34,3.34,0,0,0,933.41,51.78Z"/><path class="cls-5" d="M940,47.27A3.33,3.33,0,0,0,936.7,44,3.33,3.33,0,0,0,940,47.27Z"/><path class="cls-4" d="M940,42.88a3.33,3.33,0,0,0-3.29-3.31A3.33,3.33,0,0,0,940,42.88Z"/><path class="cls-3" d="M940,38.4a3.33,3.33,0,0,0-3.29-3.31A3.33,3.33,0,0,0,940,38.4Z"/><path class="cls-5" d="M933.41,47.27a3.33,3.33,0,0,0-3.3-3.31A3.34,3.34,0,0,0,933.41,47.27Z"/><path class="cls-4" d="M933.41,42.88a3.33,3.33,0,0,0-3.3-3.31A3.34,3.34,0,0,0,933.41,42.88Z"/><path class="cls-3" d="M933.41,38.4a3.33,3.33,0,0,0-3.3-3.31A3.34,3.34,0,0,0,933.41,38.4Z"/><path class="cls-3" d="M886.57,32V64L869.05,32Z"/><path class="cls-3" d="M886.57,32V0L904.1,32Z"/><path class="cls-1" d="M886.57,32H869.05L886.57,0Z"/><path class="cls-1" d="M886.57,32H904.1L886.57,64Z"/><path class="cls-5" d="M886.57,32c.14,3.32,2.26,10,10.2,10.24C896.54,38.82,894.29,32,886.57,32Z"/><path class="cls-5" d="M876.38,42.24c.14-3.32,2.26-10,10.19-10.24C886.34,35.41,884.09,42.24,876.38,42.24Z"/><path class="cls-5" d="M886.58,32c-.14-3.32-2.26-10-10.2-10.24C876.61,25.17,878.86,32,886.58,32Z"/><path class="cls-5" d="M896.77,21.76c-.14,3.32-2.26,10-10.19,10.24C886.81,28.58,889.06,21.76,896.77,21.76Z"/></g></g></svg>