<svg xmlns="http://www.w3.org/2000/svg" viewBox="0 0 262.5 63.71"><defs><style>.cls-1{fill:#587dd1;}.cls-2{fill:#a6dfff;}.cls-3{fill:#001b3a;}.cls-4{fill:#86abff;}.cls-5{fill:#fff;}</style></defs><g id="Laag_2" data-name="Laag 2"><g id="Laag_1-2" data-name="Laag 1"><rect class="cls-1" y="31.86" width="31.86" height="31.86"/><rect class="cls-2" x="31.86" y="31.86" width="31.86" height="31.86"/><rect class="cls-2" x="95.57" y="31.86" width="35.68" height="31.86"/><path class="cls-3" d="M31.86,35.4a12.35,12.35,0,1,0,0,24.7Z"/><path class="cls-4" d="M31.86,60.1a12.35,12.35,0,0,0,0-24.7Z"/><path class="cls-3" d="M95.57,63.71a15.93,15.93,0,1,0,0-31.85Z"/><rect class="cls-1" x="63.71" y="31.86" width="31.86" height="31.86"/><path class="cls-5" d="M68.28,57.23a3.31,3.31,0,0,0,3.29,3.3A3.33,3.33,0,0,0,68.28,57.23Z"/><path class="cls-4" d="M68.28,52.75A3.3,3.3,0,0,0,71.57,56,3.32,3.32,0,0,0,68.28,52.75Z"/><path class="cls-3" d="M68.28,48.26a3.3,3.3,0,0,0,3.29,3.29A3.32,3.32,0,0,0,68.28,48.26Z"/><path class="cls-5" d="M68.28,43.77a3.3,3.3,0,0,0,3.29,3.29A3.32,3.32,0,0,0,68.28,43.77Z"/><path class="cls-4" d="M68.28,39.4a3.31,3.31,0,0,0,3.29,3.29A3.32,3.32,0,0,0,68.28,39.4Z"/><path class="cls-3" d="M68.28,34.93a3.31,3.31,0,0,0,3.29,3.3A3.33,3.33,0,0,0,68.28,34.93Z"/><path class="cls-5" d="M74.86,57.23a3.32,3.32,0,0,0,3.3,3.3A3.34,3.34,0,0,0,74.86,57.23Z"/><path class="cls-4" d="M74.86,52.75A3.31,3.31,0,0,0,78.16,56,3.34,3.34,0,0,0,74.86,52.75Z"/><path class="cls-3" d="M74.86,48.26a3.31,3.31,0,0,0,3.3,3.29A3.34,3.34,0,0,0,74.86,48.26Z"/><path class="cls-5" d="M74.86,43.77a3.31,3.31,0,0,0,3.3,3.29A3.34,3.34,0,0,0,74.86,43.77Z"/><path class="cls-4" d="M74.86,39.4a3.32,3.32,0,0,0,3.3,3.29A3.34,3.34,0,0,0,74.86,39.4Z"/><path class="cls-3" d="M74.86,34.93a3.32,3.32,0,0,0,3.3,3.3A3.34,3.34,0,0,0,74.86,34.93Z"/><path class="cls-5" d="M81.45,57.23a3.31,3.31,0,0,0,3.29,3.3A3.33,3.33,0,0,0,81.45,57.23Z"/><path class="cls-5" d="M88,57.23a3.32,3.32,0,0,0,3.29,3.3A3.33,3.33,0,0,0,88,57.23Z"/><path class="cls-4" d="M81.45,52.75A3.3,3.3,0,0,0,84.74,56,3.33,3.33,0,0,0,81.45,52.75Z"/><path class="cls-4" d="M88,52.75A3.31,3.31,0,0,0,91.32,56,3.32,3.32,0,0,0,88,52.75Z"/><path class="cls-3" d="M81.45,48.26a3.3,3.3,0,0,0,3.29,3.29A3.33,3.33,0,0,0,81.45,48.26Z"/><path class="cls-3" d="M88,48.26a3.31,3.31,0,0,0,3.29,3.29A3.32,3.32,0,0,0,88,48.26Z"/><path class="cls-5" d="M81.45,43.77a3.3,3.3,0,0,0,3.29,3.29A3.33,3.33,0,0,0,81.45,43.77Z"/><path class="cls-4" d="M81.45,39.4a3.31,3.31,0,0,0,3.29,3.29A3.33,3.33,0,0,0,81.45,39.4Z"/><path class="cls-3" d="M81.45,34.93a3.31,3.31,0,0,0,3.29,3.3A3.33,3.33,0,0,0,81.45,34.93Z"/><path class="cls-5" d="M88,43.77a3.31,3.31,0,0,0,3.29,3.29A3.32,3.32,0,0,0,88,43.77Z"/><path class="cls-4" d="M88,39.4a3.32,3.32,0,0,0,3.29,3.29A3.32,3.32,0,0,0,88,39.4Z"/><path class="cls-3" d="M88,34.93a3.32,3.32,0,0,0,3.29,3.3A3.33,3.33,0,0,0,88,34.93Z"/><path class="cls-2" d="M65,60.53a3.3,3.3,0,0,1,3.29-3.29A3.32,3.32,0,0,1,65,60.53Z"/><path class="cls-2" d="M65,56a3.3,3.3,0,0,1,3.29-3.29A3.32,3.32,0,0,1,65,56Z"/><path class="cls-2" d="M65,51.55a3.3,3.3,0,0,1,3.29-3.29A3.32,3.32,0,0,1,65,51.55Z"/><path class="cls-2" d="M65,47.06a3.3,3.3,0,0,1,3.29-3.29A3.32,3.32,0,0,1,65,47.06Z"/><path class="cls-2" d="M65,42.69a3.3,3.3,0,0,1,3.29-3.29A3.32,3.32,0,0,1,65,42.69Z"/><path class="cls-2" d="M65,38.23a3.3,3.3,0,0,1,3.29-3.29A3.32,3.32,0,0,1,65,38.23Z"/><path class="cls-5" d="M71.57,60.53a3.3,3.3,0,0,1,3.29-3.29A3.32,3.32,0,0,1,71.57,60.53Z"/><path class="cls-4" d="M71.57,56a3.3,3.3,0,0,1,3.29-3.29A3.32,3.32,0,0,1,71.57,56Z"/><path class="cls-3" d="M71.57,51.55a3.3,3.3,0,0,1,3.29-3.29A3.32,3.32,0,0,1,71.57,51.55Z"/><path class="cls-5" d="M71.57,47.06a3.3,3.3,0,0,1,3.29-3.29A3.32,3.32,0,0,1,71.57,47.06Z"/><path class="cls-4" d="M71.57,42.69a3.3,3.3,0,0,1,3.29-3.29A3.32,3.32,0,0,1,71.57,42.69Z"/><path class="cls-3" d="M71.57,38.23a3.3,3.3,0,0,1,3.29-3.29A3.32,3.32,0,0,1,71.57,38.23Z"/><path class="cls-5" d="M78.16,60.53a3.3,3.3,0,0,1,3.29-3.29A3.33,3.33,0,0,1,78.16,60.53Z"/><path class="cls-5" d="M84.74,60.53A3.3,3.3,0,0,1,88,57.24,3.32,3.32,0,0,1,84.74,60.53Z"/><path class="cls-4" d="M78.16,56a3.3,3.3,0,0,1,3.29-3.29A3.33,3.33,0,0,1,78.16,56Z"/><path class="cls-4" d="M84.74,56A3.3,3.3,0,0,1,88,52.75,3.32,3.32,0,0,1,84.74,56Z"/><path class="cls-3" d="M78.16,51.55a3.3,3.3,0,0,1,3.29-3.29A3.33,3.33,0,0,1,78.16,51.55Z"/><path class="cls-3" d="M84.74,51.55A3.3,3.3,0,0,1,88,48.26,3.32,3.32,0,0,1,84.74,51.55Z"/><path class="cls-5" d="M78.16,47.06a3.3,3.3,0,0,1,3.29-3.29A3.33,3.33,0,0,1,78.16,47.06Z"/><path class="cls-4" d="M78.16,42.69a3.3,3.3,0,0,1,3.29-3.29A3.33,3.33,0,0,1,78.16,42.69Z"/><path class="cls-3" d="M78.16,38.23a3.3,3.3,0,0,1,3.29-3.29A3.33,3.33,0,0,1,78.16,38.23Z"/><path class="cls-5" d="M84.74,47.06A3.3,3.3,0,0,1,88,43.77,3.32,3.32,0,0,1,84.74,47.06Z"/><path class="cls-4" d="M84.74,42.69A3.3,3.3,0,0,1,88,39.4,3.32,3.32,0,0,1,84.74,42.69Z"/><path class="cls-3" d="M84.74,38.23A3.3,3.3,0,0,1,88,34.94,3.32,3.32,0,0,1,84.74,38.23Z"/><rect class="cls-1" x="230.64" y="31.86" width="31.86" height="31.86"/><rect class="cls-2" x="198.78" y="31.86" width="31.86" height="31.86"/><rect class="cls-2" x="131.25" y="31.86" width="35.68" height="31.86"/><path class="cls-3" d="M230.64,35.4a12.35,12.35,0,1,1,0,24.7Z"/><path class="cls-4" d="M230.64,60.1a12.35,12.35,0,0,1,0-24.7Z"/><path class="cls-3" d="M166.93,63.71a15.93,15.93,0,1,1,0-31.85Z"/><rect class="cls-1" x="166.93" y="31.86" width="31.86" height="31.86"/><path class="cls-5" d="M194.22,57.23a3.31,3.31,0,0,1-3.29,3.3A3.33,3.33,0,0,1,194.22,57.23Z"/><path class="cls-4" d="M194.22,52.75A3.3,3.3,0,0,1,190.93,56,3.32,3.32,0,0,1,194.22,52.75Z"/><path class="cls-3" d="M194.22,48.26a3.3,3.3,0,0,1-3.29,3.29A3.32,3.32,0,0,1,194.22,48.26Z"/><path class="cls-5" d="M194.22,43.77a3.3,3.3,0,0,1-3.29,3.29A3.32,3.32,0,0,1,194.22,43.77Z"/><path class="cls-4" d="M194.22,39.4a3.31,3.31,0,0,1-3.29,3.29A3.32,3.32,0,0,1,194.22,39.4Z"/><path class="cls-3" d="M194.22,34.93a3.31,3.31,0,0,1-3.29,3.3A3.33,3.33,0,0,1,194.22,34.93Z"/><path class="cls-5" d="M187.64,57.23a3.32,3.32,0,0,1-3.3,3.3A3.34,3.34,0,0,1,187.64,57.23Z"/><path class="cls-4" d="M187.64,52.75a3.31,3.31,0,0,1-3.3,3.29A3.34,3.34,0,0,1,187.64,52.75Z"/><path class="cls-3" d="M187.64,48.26a3.31,3.31,0,0,1-3.3,3.29A3.34,3.34,0,0,1,187.64,48.26Z"/><path class="cls-5" d="M187.64,43.77a3.31,3.31,0,0,1-3.3,3.29A3.34,3.34,0,0,1,187.64,43.77Z"/><path class="cls-4" d="M187.64,39.4a3.32,3.32,0,0,1-3.3,3.29A3.34,3.34,0,0,1,187.64,39.4Z"/><path class="cls-3" d="M187.64,34.93a3.32,3.32,0,0,1-3.3,3.3A3.34,3.34,0,0,1,187.64,34.93Z"/><path class="cls-5" d="M181.05,57.23a3.31,3.31,0,0,1-3.29,3.3A3.33,3.33,0,0,1,181.05,57.23Z"/><path class="cls-5" d="M174.47,57.23a3.32,3.32,0,0,1-3.29,3.3A3.33,3.33,0,0,1,174.47,57.23Z"/><path class="cls-4" d="M181.05,52.75A3.3,3.3,0,0,1,177.76,56,3.33,3.33,0,0,1,181.05,52.75Z"/><path class="cls-4" d="M174.47,52.75A3.31,3.31,0,0,1,171.18,56,3.32,3.32,0,0,1,174.47,52.75Z"/><path class="cls-3" d="M181.05,48.26a3.3,3.3,0,0,1-3.29,3.29A3.33,3.33,0,0,1,181.05,48.26Z"/><path class="cls-3" d="M174.47,48.26a3.31,3.31,0,0,1-3.29,3.29A3.32,3.32,0,0,1,174.47,48.26Z"/><path class="cls-5" d="M181.05,43.77a3.3,3.3,0,0,1-3.29,3.29A3.33,3.33,0,0,1,181.05,43.77Z"/><path class="cls-4" d="M181.05,39.4a3.31,3.31,0,0,1-3.29,3.29A3.33,3.33,0,0,1,181.05,39.4Z"/><path class="cls-3" d="M181.05,34.93a3.31,3.31,0,0,1-3.29,3.3A3.33,3.33,0,0,1,181.05,34.93Z"/><path class="cls-5" d="M174.47,43.77a3.31,3.31,0,0,1-3.29,3.29A3.32,3.32,0,0,1,174.47,43.77Z"/><path class="cls-4" d="M174.47,39.4a3.32,3.32,0,0,1-3.29,3.29A3.32,3.32,0,0,1,174.47,39.4Z"/><path class="cls-3" d="M174.47,34.93a3.32,3.32,0,0,1-3.29,3.3A3.33,3.33,0,0,1,174.47,34.93Z"/><path class="cls-2" d="M197.51,60.53a3.3,3.3,0,0,0-3.29-3.29A3.33,3.33,0,0,0,197.51,60.53Z"/><path class="cls-2" d="M197.51,56a3.3,3.3,0,0,0-3.29-3.29A3.33,3.33,0,0,0,197.51,56Z"/><path class="cls-2" d="M197.51,51.55a3.3,3.3,0,0,0-3.29-3.29A3.33,3.33,0,0,0,197.51,51.55Z"/><path class="cls-2" d="M197.51,47.06a3.3,3.3,0,0,0-3.29-3.29A3.33,3.33,0,0,0,197.51,47.06Z"/><path class="cls-2" d="M197.51,42.69a3.3,3.3,0,0,0-3.29-3.29A3.33,3.33,0,0,0,197.51,42.69Z"/><path class="cls-2" d="M197.51,38.23a3.3,3.3,0,0,0-3.29-3.29A3.33,3.33,0,0,0,197.51,38.23Z"/><path class="cls-5" d="M190.93,60.53a3.31,3.31,0,0,0-3.29-3.29A3.32,3.32,0,0,0,190.93,60.53Z"/><path class="cls-4" d="M190.93,56a3.31,3.31,0,0,0-3.29-3.29A3.32,3.32,0,0,0,190.93,56Z"/><path class="cls-3" d="M190.93,51.55a3.31,3.31,0,0,0-3.29-3.29A3.32,3.32,0,0,0,190.93,51.55Z"/><path class="cls-5" d="M190.93,47.06a3.31,3.31,0,0,0-3.29-3.29A3.32,3.32,0,0,0,190.93,47.06Z"/><path class="cls-4" d="M190.93,42.69a3.31,3.31,0,0,0-3.29-3.29A3.32,3.32,0,0,0,190.93,42.69Z"/><path class="cls-3" d="M190.93,38.23a3.31,3.31,0,0,0-3.29-3.29A3.32,3.32,0,0,0,190.93,38.23Z"/><path class="cls-5" d="M184.35,60.53a3.31,3.31,0,0,0-3.3-3.29A3.33,3.33,0,0,0,184.35,60.53Z"/><path class="cls-5" d="M177.76,60.53a3.3,3.3,0,0,0-3.29-3.29A3.32,3.32,0,0,0,177.76,60.53Z"/><path class="cls-4" d="M184.35,56a3.31,3.31,0,0,0-3.3-3.29A3.33,3.33,0,0,0,184.35,56Z"/><path class="cls-4" d="M177.76,56a3.3,3.3,0,0,0-3.29-3.29A3.32,3.32,0,0,0,177.76,56Z"/><path class="cls-3" d="M184.35,51.55a3.31,3.31,0,0,0-3.3-3.29A3.33,3.33,0,0,0,184.35,51.55Z"/><path class="cls-3" d="M177.76,51.55a3.3,3.3,0,0,0-3.29-3.29A3.32,3.32,0,0,0,177.76,51.55Z"/><path class="cls-5" d="M184.35,47.06a3.31,3.31,0,0,0-3.3-3.29A3.33,3.33,0,0,0,184.35,47.06Z"/><path class="cls-4" d="M184.35,42.69a3.31,3.31,0,0,0-3.3-3.29A3.33,3.33,0,0,0,184.35,42.69Z"/><path class="cls-3" d="M184.35,38.23a3.31,3.31,0,0,0-3.3-3.29A3.33,3.33,0,0,0,184.35,38.23Z"/><path class="cls-5" d="M177.76,47.06a3.3,3.3,0,0,0-3.29-3.29A3.32,3.32,0,0,0,177.76,47.06Z"/><path class="cls-4" d="M177.76,42.69a3.3,3.3,0,0,0-3.29-3.29A3.32,3.32,0,0,0,177.76,42.69Z"/><path class="cls-3" d="M177.76,38.23a3.3,3.3,0,0,0-3.29-3.29A3.32,3.32,0,0,0,177.76,38.23Z"/><path class="cls-3" d="M130.93,31.86V63.71L113.41,31.86Z"/><path class="cls-3" d="M130.93,31.86V0l17.52,31.86Z"/><path class="cls-1" d="M130.93,31.86H113.41L130.93,0Z"/><path class="cls-1" d="M130.93,31.86h17.52L130.93,63.71Z"/><path class="cls-5" d="M130.93,31.86c.14,3.3,2.26,10,10.2,10.19C140.9,38.65,138.65,31.86,130.93,31.86Z"/><path class="cls-5" d="M120.74,42.05c.14-3.31,2.26-10,10.19-10.19C130.7,35.25,128.45,42.05,120.74,42.05Z"/><path class="cls-5" d="M130.93,31.85c-.14-3.3-2.26-10-10.19-10.19C121,25.06,123.22,31.85,130.93,31.85Z"/><path class="cls-5" d="M141.13,21.66c-.14,3.31-2.26,10-10.2,10.2C131.16,28.46,133.41,21.66,141.13,21.66Z"/></g></g></svg>