<svg xmlns="http://www.w3.org/2000/svg" viewBox="0 0 262.5 64"><defs><style>.cls-1{fill:#587dd1;}.cls-2{fill:#ff82d4;}.cls-3{fill:#001b3a;}.cls-4{fill:#86abff;}.cls-5{fill:#fff;}.cls-6{fill:#061a36;}.cls-7{fill:#567bbb;}</style></defs><g id="Laag_2" data-name="Laag 2"><g id="Laag_1-2" data-name="Laag 1"><rect class="cls-1" y="32.15" width="31.86" height="31.86"/><rect class="cls-2" x="31.86" y="32.15" width="31.86" height="31.86"/><rect class="cls-2" x="95.57" y="32.15" width="35.68" height="31.86"/><path class="cls-3" d="M31.86,35.69a12.35,12.35,0,0,0,0,24.7Z"/><path class="cls-4" d="M31.86,60.39a12.35,12.35,0,0,0,0-24.7Z"/><path class="cls-3" d="M95.57,64a15.93,15.93,0,1,0,0-31.85Z"/><rect class="cls-1" x="63.71" y="32.15" width="31.86" height="31.86"/><path class="cls-5" d="M68.28,57.52a3.32,3.32,0,0,0,3.29,3.3A3.33,3.33,0,0,0,68.28,57.52Z"/><path class="cls-4" d="M68.28,53a3.31,3.31,0,0,0,3.29,3.29A3.32,3.32,0,0,0,68.28,53Z"/><path class="cls-3" d="M68.28,48.55a3.3,3.3,0,0,0,3.29,3.29A3.32,3.32,0,0,0,68.28,48.55Z"/><path class="cls-5" d="M68.28,44.06a3.31,3.31,0,0,0,3.29,3.29A3.32,3.32,0,0,0,68.28,44.06Z"/><path class="cls-4" d="M68.28,39.69A3.31,3.31,0,0,0,71.57,43,3.32,3.32,0,0,0,68.28,39.69Z"/><path class="cls-3" d="M68.28,35.22a3.32,3.32,0,0,0,3.29,3.3A3.33,3.33,0,0,0,68.28,35.22Z"/><path class="cls-5" d="M74.86,57.52a3.32,3.32,0,0,0,3.29,3.3A3.33,3.33,0,0,0,74.86,57.52Z"/><path class="cls-4" d="M74.86,53a3.32,3.32,0,0,0,3.29,3.29A3.32,3.32,0,0,0,74.86,53Z"/><path class="cls-3" d="M74.86,48.55a3.31,3.31,0,0,0,3.29,3.29A3.32,3.32,0,0,0,74.86,48.55Z"/><path class="cls-5" d="M74.86,44.06a3.32,3.32,0,0,0,3.29,3.29A3.32,3.32,0,0,0,74.86,44.06Z"/><path class="cls-4" d="M74.86,39.69A3.32,3.32,0,0,0,78.15,43,3.32,3.32,0,0,0,74.86,39.69Z"/><path class="cls-3" d="M74.86,35.22a3.32,3.32,0,0,0,3.29,3.3A3.33,3.33,0,0,0,74.86,35.22Z"/><path class="cls-5" d="M81.45,57.52a3.32,3.32,0,0,0,3.29,3.3A3.33,3.33,0,0,0,81.45,57.52Z"/><path class="cls-5" d="M88,57.52a3.32,3.32,0,0,0,3.29,3.3A3.33,3.33,0,0,0,88,57.52Z"/><path class="cls-4" d="M81.45,53a3.31,3.31,0,0,0,3.29,3.29A3.32,3.32,0,0,0,81.45,53Z"/><path class="cls-4" d="M88,53a3.32,3.32,0,0,0,3.29,3.29A3.32,3.32,0,0,0,88,53Z"/><path class="cls-3" d="M81.45,48.55a3.3,3.3,0,0,0,3.29,3.29A3.32,3.32,0,0,0,81.45,48.55Z"/><path class="cls-3" d="M88,48.55a3.31,3.31,0,0,0,3.29,3.29A3.32,3.32,0,0,0,88,48.55Z"/><path class="cls-5" d="M81.45,44.06a3.31,3.31,0,0,0,3.29,3.29A3.32,3.32,0,0,0,81.45,44.06Z"/><path class="cls-4" d="M81.45,39.69A3.31,3.31,0,0,0,84.74,43,3.32,3.32,0,0,0,81.45,39.69Z"/><path class="cls-3" d="M81.45,35.22a3.32,3.32,0,0,0,3.29,3.3A3.33,3.33,0,0,0,81.45,35.22Z"/><path class="cls-5" d="M88,44.06a3.32,3.32,0,0,0,3.29,3.29A3.32,3.32,0,0,0,88,44.06Z"/><path class="cls-4" d="M88,39.69A3.32,3.32,0,0,0,91.32,43,3.32,3.32,0,0,0,88,39.69Z"/><path class="cls-3" d="M88,35.22a3.32,3.32,0,0,0,3.29,3.3A3.33,3.33,0,0,0,88,35.22Z"/><path class="cls-2" d="M65,60.82a3.32,3.32,0,0,1,3.29-3.3A3.33,3.33,0,0,1,65,60.82Z"/><path class="cls-2" d="M65,56.33A3.3,3.3,0,0,1,68.28,53,3.33,3.33,0,0,1,65,56.33Z"/><path class="cls-2" d="M65,51.84a3.3,3.3,0,0,1,3.29-3.29A3.33,3.33,0,0,1,65,51.84Z"/><path class="cls-2" d="M65,47.35a3.3,3.3,0,0,1,3.29-3.29A3.33,3.33,0,0,1,65,47.35Z"/><path class="cls-2" d="M65,43a3.3,3.3,0,0,1,3.29-3.29A3.33,3.33,0,0,1,65,43Z"/><path class="cls-2" d="M65,38.52a3.32,3.32,0,0,1,3.29-3.3A3.33,3.33,0,0,1,65,38.52Z"/><path class="cls-5" d="M71.57,60.82a3.32,3.32,0,0,1,3.29-3.3A3.33,3.33,0,0,1,71.57,60.82Z"/><path class="cls-4" d="M71.57,56.33A3.3,3.3,0,0,1,74.86,53,3.32,3.32,0,0,1,71.57,56.33Z"/><path class="cls-3" d="M71.57,51.84a3.3,3.3,0,0,1,3.29-3.29A3.32,3.32,0,0,1,71.57,51.84Z"/><path class="cls-5" d="M71.57,47.35a3.3,3.3,0,0,1,3.29-3.29A3.32,3.32,0,0,1,71.57,47.35Z"/><path class="cls-4" d="M71.57,43a3.3,3.3,0,0,1,3.29-3.29A3.32,3.32,0,0,1,71.57,43Z"/><path class="cls-3" d="M71.57,38.52a3.32,3.32,0,0,1,3.29-3.3A3.33,3.33,0,0,1,71.57,38.52Z"/><path class="cls-5" d="M78.16,60.82a3.32,3.32,0,0,1,3.29-3.3A3.33,3.33,0,0,1,78.16,60.82Z"/><path class="cls-5" d="M84.74,60.82A3.32,3.32,0,0,1,88,57.52,3.33,3.33,0,0,1,84.74,60.82Z"/><path class="cls-4" d="M78.16,56.33A3.3,3.3,0,0,1,81.45,53,3.33,3.33,0,0,1,78.16,56.33Z"/><path class="cls-4" d="M84.74,56.33A3.3,3.3,0,0,1,88,53,3.32,3.32,0,0,1,84.74,56.33Z"/><path class="cls-3" d="M78.16,51.84a3.3,3.3,0,0,1,3.29-3.29A3.33,3.33,0,0,1,78.16,51.84Z"/><path class="cls-3" d="M84.74,51.84A3.3,3.3,0,0,1,88,48.55,3.32,3.32,0,0,1,84.74,51.84Z"/><path class="cls-5" d="M78.16,47.35a3.3,3.3,0,0,1,3.29-3.29A3.33,3.33,0,0,1,78.16,47.35Z"/><path class="cls-4" d="M78.16,43a3.3,3.3,0,0,1,3.29-3.29A3.33,3.33,0,0,1,78.16,43Z"/><path class="cls-3" d="M78.16,38.52a3.32,3.32,0,0,1,3.29-3.3A3.33,3.33,0,0,1,78.16,38.52Z"/><path class="cls-5" d="M84.74,47.35A3.3,3.3,0,0,1,88,44.06,3.32,3.32,0,0,1,84.74,47.35Z"/><path class="cls-4" d="M84.74,43A3.3,3.3,0,0,1,88,39.69,3.32,3.32,0,0,1,84.74,43Z"/><path class="cls-3" d="M84.74,38.52A3.32,3.32,0,0,1,88,35.22,3.33,3.33,0,0,1,84.74,38.52Z"/><rect class="cls-1" x="230.64" y="32.15" width="31.86" height="31.86"/><rect class="cls-2" x="198.79" y="32.15" width="31.86" height="31.86"/><rect class="cls-2" x="131.25" y="32.15" width="35.68" height="31.86"/><path class="cls-3" d="M230.64,35.69a12.35,12.35,0,1,1,0,24.7Z"/><path class="cls-4" d="M230.64,60.39a12.35,12.35,0,0,1,0-24.7Z"/><path class="cls-3" d="M166.93,64a15.93,15.93,0,1,1,0-31.85Z"/><rect class="cls-1" x="166.93" y="32.15" width="31.86" height="31.86"/><path class="cls-5" d="M194.22,57.52a3.32,3.32,0,0,1-3.29,3.3A3.33,3.33,0,0,1,194.22,57.52Z"/><path class="cls-4" d="M194.22,53a3.31,3.31,0,0,1-3.29,3.29A3.32,3.32,0,0,1,194.22,53Z"/><path class="cls-3" d="M194.22,48.55a3.3,3.3,0,0,1-3.29,3.29A3.32,3.32,0,0,1,194.22,48.55Z"/><path class="cls-5" d="M194.22,44.06a3.31,3.31,0,0,1-3.29,3.29A3.32,3.32,0,0,1,194.22,44.06Z"/><path class="cls-4" d="M194.22,39.69A3.31,3.31,0,0,1,190.93,43,3.32,3.32,0,0,1,194.22,39.69Z"/><path class="cls-3" d="M194.22,35.22a3.32,3.32,0,0,1-3.29,3.3A3.33,3.33,0,0,1,194.22,35.22Z"/><path class="cls-5" d="M187.64,57.52a3.32,3.32,0,0,1-3.29,3.3A3.33,3.33,0,0,1,187.64,57.52Z"/><path class="cls-4" d="M187.64,53a3.32,3.32,0,0,1-3.29,3.29A3.32,3.32,0,0,1,187.64,53Z"/><path class="cls-3" d="M187.64,48.55a3.31,3.31,0,0,1-3.29,3.29A3.32,3.32,0,0,1,187.64,48.55Z"/><path class="cls-5" d="M187.64,44.06a3.32,3.32,0,0,1-3.29,3.29A3.32,3.32,0,0,1,187.64,44.06Z"/><path class="cls-4" d="M187.64,39.69A3.32,3.32,0,0,1,184.35,43,3.32,3.32,0,0,1,187.64,39.69Z"/><path class="cls-3" d="M187.64,35.22a3.32,3.32,0,0,1-3.29,3.3A3.33,3.33,0,0,1,187.64,35.22Z"/><path class="cls-5" d="M181.05,57.52a3.32,3.32,0,0,1-3.29,3.3A3.33,3.33,0,0,1,181.05,57.52Z"/><path class="cls-5" d="M174.47,57.52a3.32,3.32,0,0,1-3.29,3.3A3.33,3.33,0,0,1,174.47,57.52Z"/><path class="cls-4" d="M181.05,53a3.31,3.31,0,0,1-3.29,3.29A3.33,3.33,0,0,1,181.05,53Z"/><path class="cls-4" d="M174.47,53a3.32,3.32,0,0,1-3.29,3.29A3.32,3.32,0,0,1,174.47,53Z"/><path class="cls-3" d="M181.05,48.55a3.3,3.3,0,0,1-3.29,3.29A3.33,3.33,0,0,1,181.05,48.55Z"/><path class="cls-3" d="M174.47,48.55a3.31,3.31,0,0,1-3.29,3.29A3.32,3.32,0,0,1,174.47,48.55Z"/><path class="cls-5" d="M181.05,44.06a3.31,3.31,0,0,1-3.29,3.29A3.33,3.33,0,0,1,181.05,44.06Z"/><path class="cls-4" d="M181.05,39.69A3.31,3.31,0,0,1,177.76,43,3.33,3.33,0,0,1,181.05,39.69Z"/><path class="cls-3" d="M181.05,35.22a3.32,3.32,0,0,1-3.29,3.3A3.33,3.33,0,0,1,181.05,35.22Z"/><path class="cls-5" d="M174.47,44.06a3.32,3.32,0,0,1-3.29,3.29A3.32,3.32,0,0,1,174.47,44.06Z"/><path class="cls-4" d="M174.47,39.69A3.32,3.32,0,0,1,171.18,43,3.32,3.32,0,0,1,174.47,39.69Z"/><path class="cls-3" d="M174.47,35.22a3.32,3.32,0,0,1-3.29,3.3A3.33,3.33,0,0,1,174.47,35.22Z"/><path class="cls-2" d="M197.51,60.82a3.32,3.32,0,0,0-3.29-3.3A3.33,3.33,0,0,0,197.51,60.82Z"/><path class="cls-2" d="M197.51,56.33A3.3,3.3,0,0,0,194.22,53,3.33,3.33,0,0,0,197.51,56.33Z"/><path class="cls-2" d="M197.51,51.84a3.3,3.3,0,0,0-3.29-3.29A3.33,3.33,0,0,0,197.51,51.84Z"/><path class="cls-2" d="M197.51,47.35a3.3,3.3,0,0,0-3.29-3.29A3.33,3.33,0,0,0,197.51,47.35Z"/><path class="cls-2" d="M197.51,43a3.3,3.3,0,0,0-3.29-3.29A3.33,3.33,0,0,0,197.51,43Z"/><path class="cls-2" d="M197.51,38.52a3.32,3.32,0,0,0-3.29-3.3A3.33,3.33,0,0,0,197.51,38.52Z"/><path class="cls-5" d="M190.93,60.82a3.32,3.32,0,0,0-3.29-3.3A3.33,3.33,0,0,0,190.93,60.82Z"/><path class="cls-4" d="M190.93,56.33A3.31,3.31,0,0,0,187.64,53,3.32,3.32,0,0,0,190.93,56.33Z"/><path class="cls-3" d="M190.93,51.84a3.31,3.31,0,0,0-3.29-3.29A3.32,3.32,0,0,0,190.93,51.84Z"/><path class="cls-5" d="M190.93,47.35a3.31,3.31,0,0,0-3.29-3.29A3.32,3.32,0,0,0,190.93,47.35Z"/><path class="cls-4" d="M190.93,43a3.31,3.31,0,0,0-3.29-3.29A3.32,3.32,0,0,0,190.93,43Z"/><path class="cls-3" d="M190.93,38.52a3.32,3.32,0,0,0-3.29-3.3A3.33,3.33,0,0,0,190.93,38.52Z"/><path class="cls-5" d="M184.35,60.82a3.33,3.33,0,0,0-3.3-3.3A3.34,3.34,0,0,0,184.35,60.82Z"/><path class="cls-5" d="M177.76,60.82a3.32,3.32,0,0,0-3.29-3.3A3.33,3.33,0,0,0,177.76,60.82Z"/><path class="cls-4" d="M184.35,56.33a3.31,3.31,0,0,0-3.3-3.29A3.34,3.34,0,0,0,184.35,56.33Z"/><path class="cls-4" d="M177.76,56.33A3.3,3.3,0,0,0,174.47,53,3.32,3.32,0,0,0,177.76,56.33Z"/><path class="cls-3" d="M184.35,51.84a3.31,3.31,0,0,0-3.3-3.29A3.34,3.34,0,0,0,184.35,51.84Z"/><path class="cls-3" d="M177.76,51.84a3.3,3.3,0,0,0-3.29-3.29A3.32,3.32,0,0,0,177.76,51.84Z"/><path class="cls-5" d="M184.35,47.35a3.31,3.31,0,0,0-3.3-3.29A3.34,3.34,0,0,0,184.35,47.35Z"/><path class="cls-4" d="M184.35,43a3.31,3.31,0,0,0-3.3-3.29A3.34,3.34,0,0,0,184.35,43Z"/><path class="cls-3" d="M184.35,38.52a3.33,3.33,0,0,0-3.3-3.3A3.34,3.34,0,0,0,184.35,38.52Z"/><path class="cls-5" d="M177.76,47.35a3.3,3.3,0,0,0-3.29-3.29A3.32,3.32,0,0,0,177.76,47.35Z"/><path class="cls-4" d="M177.76,43a3.3,3.3,0,0,0-3.29-3.29A3.32,3.32,0,0,0,177.76,43Z"/><path class="cls-3" d="M177.76,38.52a3.32,3.32,0,0,0-3.29-3.3A3.33,3.33,0,0,0,177.76,38.52Z"/><path class="cls-6" d="M130.93,32V64L113.41,32Z"/><path class="cls-6" d="M130.93,32V0l17.52,32Z"/><path class="cls-7" d="M130.93,32H113.41L130.93,0Z"/><path class="cls-7" d="M130.93,32h17.52L130.93,64Z"/><path class="cls-5" d="M130.93,32c.14,3.32,2.26,10,10.2,10.24C140.9,38.82,138.65,32,130.93,32Z"/><path class="cls-5" d="M120.74,42.24c.14-3.32,2.26-10,10.19-10.24C130.7,35.41,128.45,42.24,120.74,42.24Z"/><path class="cls-5" d="M130.93,32c-.14-3.32-2.26-10-10.19-10.24C121,25.17,123.22,32,130.93,32Z"/><path class="cls-5" d="M141.13,21.76c-.14,3.32-2.26,10-10.2,10.24C131.16,28.58,133.41,21.76,141.13,21.76Z"/></g></g></svg>