<svg xmlns="http://www.w3.org/2000/svg" viewBox="0 0 31.86 230.64"><defs><style>.cls-1{fill:#587dd1;}.cls-2{fill:#001b3a;}.cls-3{fill:#86abff;}.cls-4{fill:#fff;}.cls-5{fill:#a8ffea;}</style></defs><g id="Laag_2" data-name="Laag 2"><g id="Laag_1-2" data-name="Laag 1"><rect class="cls-1" width="31.86" height="31.86"/><path class="cls-2" d="M31.86,28.31a12.35,12.35,0,1,1,0-24.69Z"/><rect class="cls-2" y="31.86" width="31.86" height="31.86"/><path class="cls-1" d="M4,35.84v-4l-4,4Z"/><path class="cls-1" d="M4,35.84v4l4-4Z"/><path class="cls-3" d="M4,35.84H0l4,4Z"/><path class="cls-3" d="M4,35.84H8l-4-4Z"/><path class="cls-1" d="M4,51.77v-4l-4,4Z"/><path class="cls-1" d="M4,51.77v4l4-4Z"/><path class="cls-3" d="M4,51.77H0l4,4Z"/><path class="cls-3" d="M4,51.77H8l-4-4Z"/><path class="cls-1" d="M19.91,35.84v-4l-4,4Z"/><path class="cls-1" d="M19.91,35.84v4l4-4Z"/><path class="cls-3" d="M19.91,35.84h-4l4,4Z"/><path class="cls-3" d="M19.91,35.84h4l-4-4Z"/><path class="cls-1" d="M19.91,51.77v-4l-4,4Z"/><path class="cls-1" d="M19.91,51.77v4l4-4Z"/><path class="cls-3" d="M19.91,51.77h-4l4,4Z"/><path class="cls-3" d="M19.91,51.77h4l-4-4Z"/><path class="cls-1" d="M12,43.8v-4l-4,4Z"/><path class="cls-1" d="M12,43.8v4l4-4Z"/><path class="cls-3" d="M12,43.8H8l4,4Z"/><path class="cls-3" d="M12,43.8h4l-4-4Z"/><path class="cls-1" d="M12,59.73v-4l-4,4Z"/><path class="cls-1" d="M12,59.73v4l4-4Z"/><path class="cls-3" d="M12,59.73H8l4,4Z"/><path class="cls-3" d="M12,59.73h4l-4-4Z"/><path class="cls-1" d="M27.88,43.8v-4l-4,4Z"/><path class="cls-1" d="M27.88,43.8v4l4-4Z"/><path class="cls-3" d="M27.88,43.8h-4l4,4Z"/><path class="cls-3" d="M27.88,43.8h4l-4-4Z"/><path class="cls-1" d="M27.88,59.73v-4l-4,4Z"/><path class="cls-1" d="M27.88,59.73v4l4-4Z"/><path class="cls-3" d="M27.88,59.73h-4l4,4Z"/><path class="cls-3" d="M27.88,59.73h4l-4-4Z"/><path class="cls-1" d="M12,35.84v-4l-4,4Z"/><path class="cls-1" d="M12,35.84v4l4-4Z"/><path class="cls-3" d="M12,35.84H8l4,4Z"/><path class="cls-3" d="M12,35.84h4l-4-4Z"/><path class="cls-1" d="M12,51.77v-4l-4,4Z"/><path class="cls-1" d="M12,51.77v4l4-4Z"/><path class="cls-3" d="M12,51.77H8l4,4Z"/><path class="cls-3" d="M12,51.77h4l-4-4Z"/><path class="cls-1" d="M27.88,35.84v-4l-4,4Z"/><path class="cls-1" d="M27.88,35.84v4l4-4Z"/><path class="cls-3" d="M27.88,35.84h-4l4,4Z"/><path class="cls-3" d="M27.88,35.84h4l-4-4Z"/><path class="cls-1" d="M27.88,51.77v-4l-4,4Z"/><path class="cls-1" d="M27.88,51.77v4l4-4Z"/><path class="cls-3" d="M27.88,51.77h-4l4,4Z"/><path class="cls-3" d="M27.88,51.77h4l-4-4Z"/><path class="cls-1" d="M4,43.8v-4l-4,4Z"/><path class="cls-1" d="M4,43.8v4l4-4Z"/><path class="cls-3" d="M4,43.8H0l4,4Z"/><path class="cls-3" d="M4,43.8H8l-4-4Z"/><path class="cls-1" d="M4,59.73v-4l-4,4Z"/><path class="cls-1" d="M4,59.73v4l4-4Z"/><path class="cls-3" d="M4,59.73H0l4,4Z"/><path class="cls-3" d="M4,59.73H8l-4-4Z"/><path class="cls-1" d="M19.91,43.8v-4l-4,4Z"/><path class="cls-1" d="M19.91,43.8v4l4-4Z"/><path class="cls-3" d="M19.91,43.8h-4l4,4Z"/><path class="cls-3" d="M19.91,43.8h4l-4-4Z"/><path class="cls-1" d="M19.91,59.73v-4l-4,4Z"/><path class="cls-1" d="M19.91,59.73v4l4-4Z"/><path class="cls-3" d="M19.91,59.73h-4l4,4Z"/><path class="cls-3" d="M19.91,59.73h4l-4-4Z"/><rect class="cls-2" y="198.78" width="31.86" height="31.86"/><path class="cls-1" d="M4,226.66v4l-4-4Z"/><path class="cls-1" d="M4,226.66v-4l4,4Z"/><path class="cls-3" d="M4,226.66H0l4-4Z"/><path class="cls-3" d="M4,226.66H8l-4,4Z"/><path class="cls-1" d="M4,210.73v4l-4-4Z"/><path class="cls-1" d="M4,210.73v-4l4,4Z"/><path class="cls-3" d="M4,210.73H0l4-4Z"/><path class="cls-3" d="M4,210.73H8l-4,4Z"/><path class="cls-1" d="M19.91,226.66v4l-4-4Z"/><path class="cls-1" d="M19.91,226.66v-4l4,4Z"/><path class="cls-3" d="M19.91,226.66h-4l4-4Z"/><path class="cls-3" d="M19.91,226.66h4l-4,4Z"/><path class="cls-1" d="M19.91,210.73v4l-4-4Z"/><path class="cls-1" d="M19.91,210.73v-4l4,4Z"/><path class="cls-3" d="M19.91,210.73h-4l4-4Z"/><path class="cls-3" d="M19.91,210.73h4l-4,4Z"/><path class="cls-1" d="M12,218.7v4l-4-4Z"/><path class="cls-1" d="M12,218.7v-4l4,4Z"/><path class="cls-3" d="M12,218.7H8l4-4Z"/><path class="cls-3" d="M12,218.7h4l-4,4Z"/><path class="cls-1" d="M12,202.77v4l-4-4Z"/><path class="cls-1" d="M12,202.77v-4l4,4Z"/><path class="cls-3" d="M12,202.77H8l4-4Z"/><path class="cls-3" d="M12,202.77h4l-4,4Z"/><path class="cls-1" d="M27.88,218.7v4l-4-4Z"/><path class="cls-1" d="M27.88,218.7v-4l4,4Z"/><path class="cls-3" d="M27.88,218.7h-4l4-4Z"/><path class="cls-3" d="M27.88,218.7h4l-4,4Z"/><path class="cls-1" d="M27.88,202.77v4l-4-4Z"/><path class="cls-1" d="M27.88,202.77v-4l4,4Z"/><path class="cls-3" d="M27.88,202.77h-4l4-4Z"/><path class="cls-3" d="M27.88,202.77h4l-4,4Z"/><path class="cls-1" d="M12,226.66v4l-4-4Z"/><path class="cls-1" d="M12,226.66v-4l4,4Z"/><path class="cls-3" d="M12,226.66H8l4-4Z"/><path class="cls-3" d="M12,226.66h4l-4,4Z"/><path class="cls-1" d="M12,210.73v4l-4-4Z"/><path class="cls-1" d="M12,210.73v-4l4,4Z"/><path class="cls-3" d="M12,210.73H8l4-4Z"/><path class="cls-3" d="M12,210.73h4l-4,4Z"/><path class="cls-1" d="M27.88,226.66v4l-4-4Z"/><path class="cls-1" d="M27.88,226.66v-4l4,4Z"/><path class="cls-3" d="M27.88,226.66h-4l4-4Z"/><path class="cls-3" d="M27.88,226.66h4l-4,4Z"/><path class="cls-1" d="M27.88,210.73v4l-4-4Z"/><path class="cls-1" d="M27.88,210.73v-4l4,4Z"/><path class="cls-3" d="M27.88,210.73h-4l4-4Z"/><path class="cls-3" d="M27.88,210.73h4l-4,4Z"/><path class="cls-1" d="M4,218.7v4l-4-4Z"/><path class="cls-1" d="M4,218.7v-4l4,4Z"/><path class="cls-3" d="M4,218.7H0l4-4Z"/><path class="cls-3" d="M4,218.7H8l-4,4Z"/><path class="cls-1" d="M4,202.77v4l-4-4Z"/><path class="cls-1" d="M4,202.77v-4l4,4Z"/><path class="cls-3" d="M4,202.77H0l4-4Z"/><path class="cls-3" d="M4,202.77H8l-4,4Z"/><path class="cls-1" d="M19.91,218.7v4l-4-4Z"/><path class="cls-1" d="M19.91,218.7v-4l4,4Z"/><path class="cls-3" d="M19.91,218.7h-4l4-4Z"/><path class="cls-3" d="M19.91,218.7h4l-4,4Z"/><path class="cls-1" d="M19.91,202.77v4l-4-4Z"/><path class="cls-1" d="M19.91,202.77v-4l4,4Z"/><path class="cls-3" d="M19.91,202.77h-4l4-4Z"/><path class="cls-3" d="M19.91,202.77h4l-4,4Z"/><rect class="cls-1" y="63.71" width="31.86" height="31.86"/><path class="cls-4" d="M15.93,84.74c.15-3.51,2.4-10.6,10.83-10.83C26.52,77.52,24.13,84.74,15.93,84.74Z"/><path class="cls-4" d="M5.1,73.91c.14,3.51,2.4,10.59,10.83,10.83C15.69,81.13,13.29,73.91,5.1,73.91Z"/><rect class="cls-2" y="95.57" width="31.86" height="71.36"/><rect class="cls-1" y="166.93" width="31.86" height="31.86"/><path class="cls-4" d="M15.93,188c.15-3.51,2.4-10.59,10.83-10.83C26.52,180.73,24.13,188,15.93,188Z"/><path class="cls-4" d="M5.1,177.12c.14,3.52,2.4,10.6,10.83,10.83C15.69,184.34,13.29,177.12,5.1,177.12Z"/><path class="cls-4" d="M15.36,129.34V110.86L5.1,129.34Z"/><path class="cls-4" d="M15.36,129.34v18.48l10.27-18.48Z"/><path class="cls-3" d="M15.36,129.34H5.1l10.26,18.48Z"/><path class="cls-3" d="M15.36,129.34H25.63L15.36,110.86Z"/><path class="cls-5" d="M15.36,120.1v-9.24l-5.13,9.24Z"/><path class="cls-5" d="M15.36,120.1v9.24l5.14-9.24Z"/><path class="cls-1" d="M15.36,120.1H10.23l5.13,9.24Z"/><path class="cls-1" d="M15.36,120.1H20.5l-5.14-9.24Z"/><path class="cls-5" d="M15.36,138.58v-9.24l-5.13,9.24Z"/><path class="cls-5" d="M15.36,138.58v9.24l5.14-9.24Z"/><path class="cls-1" d="M15.36,138.58H10.23l5.13,9.24Z"/><path class="cls-1" d="M15.36,138.58H20.5l-5.14-9.24Z"/></g></g></svg>