<svg xmlns="http://www.w3.org/2000/svg" viewBox="0 0 32 668.14"><defs><style>.cls-1{fill:#7da0d1;}.cls-2{fill:#061a36;}.cls-3{fill:#567bbb;}.cls-4{fill:#fff;}.cls-5{fill:#c06ea9;}</style></defs><g id="Laag_2" data-name="Laag 2"><g id="Laag_2-2" data-name="Laag 2"><polyline class="cls-1" points="32 406.14 0 406.14 0 230.14 32 230.14"/><polyline class="cls-2" points="31.86 31.86 0 31.86 0 0 31.86 0"/><path class="cls-3" d="M4,4V0L0,4Z"/><path class="cls-3" d="M4,4V8L8,4Z"/><path class="cls-1" d="M4,4H0L4,8Z"/><path class="cls-1" d="M4,4H8L4,0Z"/><path class="cls-3" d="M4,19.91v-4l-4,4Z"/><path class="cls-3" d="M4,19.91v4l4-4Z"/><path class="cls-1" d="M4,19.91H0l4,4Z"/><path class="cls-1" d="M4,19.91H8l-4-4Z"/><path class="cls-3" d="M19.91,4V0l-4,4Z"/><path class="cls-3" d="M19.91,4V8l4-4Z"/><path class="cls-1" d="M19.91,4h-4l4,4Z"/><path class="cls-1" d="M19.91,4h4l-4-4Z"/><path class="cls-3" d="M19.91,19.91v-4l-4,4Z"/><path class="cls-3" d="M19.91,19.91v4l4-4Z"/><path class="cls-1" d="M19.91,19.91h-4l4,4Z"/><path class="cls-1" d="M19.91,19.91h4l-4-4Z"/><path class="cls-3" d="M12,12V8L8,12Z"/><path class="cls-3" d="M12,12v4l4-4Z"/><path class="cls-1" d="M12,12H8l4,4Z"/><path class="cls-1" d="M12,12h4L12,8Z"/><path class="cls-3" d="M12,27.88v-4l-4,4Z"/><path class="cls-3" d="M12,27.88v4l4-4Z"/><path class="cls-1" d="M12,27.88H8l4,4Z"/><path class="cls-1" d="M12,27.88h4l-4-4Z"/><path class="cls-3" d="M27.88,12V8l-4,4Z"/><path class="cls-3" d="M31.86,12h-4v4l4-4"/><path class="cls-1" d="M27.88,12h-4l4,4Z"/><path class="cls-1" d="M31.86,12l-4-4v4h4"/><path class="cls-3" d="M27.88,27.88v-4l-4,4Z"/><path class="cls-3" d="M31.86,27.88h-4v4l4-4"/><path class="cls-1" d="M27.88,27.88h-4l4,4Z"/><path class="cls-1" d="M31.86,27.88l-4-4v4h4"/><path class="cls-3" d="M12,4V0L8,4Z"/><path class="cls-3" d="M12,4V8l4-4Z"/><path class="cls-1" d="M12,4H8l4,4Z"/><path class="cls-1" d="M12,4h4L12,0Z"/><path class="cls-3" d="M12,19.91v-4l-4,4Z"/><path class="cls-3" d="M12,19.91v4l4-4Z"/><path class="cls-1" d="M12,19.91H8l4,4Z"/><path class="cls-1" d="M12,19.91h4l-4-4Z"/><path class="cls-3" d="M27.88,4V0l-4,4Z"/><path class="cls-3" d="M31.86,4h-4V8l4-4"/><path class="cls-1" d="M27.88,4h-4l4,4Z"/><path class="cls-1" d="M31.86,4l-4-4V4h4"/><path class="cls-3" d="M27.88,19.91v-4l-4,4Z"/><path class="cls-3" d="M31.86,19.91h-4v4l4-4"/><path class="cls-1" d="M27.88,19.91h-4l4,4Z"/><path class="cls-1" d="M31.86,19.91l-4-4v4h4"/><path class="cls-3" d="M4,12V8L0,12Z"/><path class="cls-3" d="M4,12v4l4-4Z"/><path class="cls-1" d="M4,12H0l4,4Z"/><path class="cls-1" d="M4,12H8L4,8Z"/><path class="cls-3" d="M4,27.88v-4l-4,4Z"/><path class="cls-3" d="M4,27.88v4l4-4Z"/><path class="cls-1" d="M4,27.88H0l4,4Z"/><path class="cls-1" d="M4,27.88H8l-4-4Z"/><path class="cls-3" d="M19.91,12V8l-4,4Z"/><path class="cls-3" d="M19.91,12v4l4-4Z"/><path class="cls-1" d="M19.91,12h-4l4,4Z"/><path class="cls-1" d="M19.91,12h4l-4-4Z"/><path class="cls-3" d="M19.91,27.88v-4l-4,4Z"/><path class="cls-3" d="M19.91,27.88v4l4-4Z"/><path class="cls-1" d="M19.91,27.88h-4l4,4Z"/><path class="cls-1" d="M19.91,27.88h4l-4-4Z"/><polyline class="cls-3" points="31.86 198.79 0 198.79 0 230.64 31.86 230.64"/><polyline class="cls-2" points="31.86 166.93 0 166.93 0 198.78 31.86 198.78"/><path class="cls-3" d="M4,194.8v4l-4-4Z"/><path class="cls-3" d="M4,194.8v-4l4,4Z"/><path class="cls-1" d="M4,194.8H0l4-4Z"/><path class="cls-1" d="M4,194.8H8l-4,4Z"/><path class="cls-3" d="M4,178.88v4l-4-4Z"/><path class="cls-3" d="M4,178.88v-4l4,4Z"/><path class="cls-1" d="M4,178.88H0l4-4Z"/><path class="cls-1" d="M4,178.88H8l-4,4Z"/><path class="cls-3" d="M19.91,194.8v4l-4-4Z"/><path class="cls-3" d="M19.91,194.8v-4l4,4Z"/><path class="cls-1" d="M19.91,194.8h-4l4-4Z"/><path class="cls-1" d="M19.91,194.8h4l-4,4Z"/><path class="cls-3" d="M19.91,178.88v4l-4-4Z"/><path class="cls-3" d="M19.91,178.88v-4l4,4Z"/><path class="cls-1" d="M19.91,178.88h-4l4-4Z"/><path class="cls-1" d="M19.91,178.88h4l-4,4Z"/><path class="cls-3" d="M12,186.84v4l-4-4Z"/><path class="cls-3" d="M12,186.84v-4l4,4Z"/><path class="cls-1" d="M12,186.84H8l4-4Z"/><path class="cls-1" d="M12,186.84h4l-4,4Z"/><path class="cls-3" d="M12,170.91v4l-4-4Z"/><path class="cls-3" d="M12,170.91v-4l4,4Z"/><path class="cls-1" d="M12,170.91H8l4-4Z"/><path class="cls-1" d="M12,170.91h4l-4,4Z"/><path class="cls-3" d="M27.88,186.84v4l-4-4Z"/><path class="cls-3" d="M31.86,186.84h-4v-4l4,4"/><path class="cls-1" d="M27.88,186.84h-4l4-4Z"/><path class="cls-1" d="M31.86,186.84l-4,4v-4h4"/><path class="cls-3" d="M27.88,170.91v4l-4-4Z"/><path class="cls-3" d="M31.86,170.91h-4v-4l4,4"/><path class="cls-1" d="M27.88,170.91h-4l4-4Z"/><path class="cls-1" d="M31.86,170.91l-4,4v-4h4"/><path class="cls-3" d="M12,194.8v4l-4-4Z"/><path class="cls-3" d="M12,194.8v-4l4,4Z"/><path class="cls-1" d="M12,194.8H8l4-4Z"/><path class="cls-1" d="M12,194.8h4l-4,4Z"/><path class="cls-3" d="M12,178.88v4l-4-4Z"/><path class="cls-3" d="M12,178.88v-4l4,4Z"/><path class="cls-1" d="M12,178.88H8l4-4Z"/><path class="cls-1" d="M12,178.88h4l-4,4Z"/><path class="cls-3" d="M27.88,194.8v4l-4-4Z"/><path class="cls-3" d="M31.86,194.8h-4v-4l4,4"/><path class="cls-1" d="M27.88,194.8h-4l4-4Z"/><path class="cls-1" d="M31.86,194.8l-4,4v-4h4"/><path class="cls-3" d="M27.88,178.88v4l-4-4Z"/><path class="cls-3" d="M31.86,178.88h-4v-4l4,4"/><path class="cls-1" d="M27.88,178.88h-4l4-4Z"/><path class="cls-1" d="M31.86,178.88l-4,4v-4h4"/><path class="cls-3" d="M4,186.84v4l-4-4Z"/><path class="cls-3" d="M4,186.84v-4l4,4Z"/><path class="cls-1" d="M4,186.84H0l4-4Z"/><path class="cls-1" d="M4,186.84H8l-4,4Z"/><path class="cls-3" d="M4,170.91v4l-4-4Z"/><path class="cls-3" d="M4,170.91v-4l4,4Z"/><path class="cls-1" d="M4,170.91H0l4-4Z"/><path class="cls-1" d="M4,170.91H8l-4,4Z"/><path class="cls-3" d="M19.91,186.84v4l-4-4Z"/><path class="cls-3" d="M19.91,186.84v-4l4,4Z"/><path class="cls-1" d="M19.91,186.84h-4l4-4Z"/><path class="cls-1" d="M19.91,186.84h4l-4,4Z"/><path class="cls-3" d="M19.91,170.91v4l-4-4Z"/><path class="cls-3" d="M19.91,170.91v-4l4,4Z"/><path class="cls-1" d="M19.91,170.91h-4l4-4Z"/><path class="cls-1" d="M19.91,170.91h4l-4,4Z"/><polyline class="cls-3" points="31.86 63.71 0 63.71 0 31.86 31.86 31.86"/><path class="cls-4" d="M15.93,52.88c.15-3.51,2.4-10.59,10.83-10.83C26.52,45.66,24.13,52.88,15.93,52.88Z"/><path class="cls-4" d="M5.1,42.05c.14,3.51,2.4,10.6,10.83,10.83C15.69,49.27,13.29,42.05,5.1,42.05Z"/><polyline class="cls-2" points="31.86 135.07 0 135.07 0 63.71 31.86 63.71"/><polyline class="cls-3" points="31.86 166.93 0 166.93 0 135.07 31.86 135.07"/><path class="cls-4" d="M15.93,156.1c.15-3.52,2.4-10.6,10.83-10.83C26.52,148.88,24.13,156.1,15.93,156.1Z"/><path class="cls-4" d="M5.1,145.27c.14,3.51,2.4,10.59,10.83,10.83C15.69,152.49,13.29,145.27,5.1,145.27Z"/><path class="cls-4" d="M15.36,97.48V79L5.1,97.48Z"/><path class="cls-4" d="M15.36,97.48V116L25.63,97.48Z"/><path class="cls-1" d="M15.36,97.48H5.1L15.36,116Z"/><path class="cls-1" d="M15.36,97.48H25.63L15.36,79Z"/><path class="cls-5" d="M15.36,88.24V79l-5.13,9.23Z"/><path class="cls-5" d="M15.36,88.24v9.24l5.14-9.24Z"/><path class="cls-3" d="M15.36,88.24H10.23l5.13,9.24Z"/><path class="cls-3" d="M15.36,88.24H20.5L15.36,79Z"/><path class="cls-5" d="M15.36,106.72V97.48l-5.13,9.24Z"/><path class="cls-5" d="M15.36,106.72V116l5.14-9.24Z"/><path class="cls-3" d="M15.36,106.72H10.23L15.36,116Z"/><path class="cls-3" d="M15.36,106.72H20.5l-5.14-9.24Z"/><line class="cls-3" x1="31.86"/><polyline class="cls-3" points="31.86 636.14 0 636.14 0 668.14 31.86 668.14"/><path class="cls-2" d="M31.86,639.7a12.41,12.41,0,0,0,0,24.81"/><polyline class="cls-3" points="31.86 437.5 0 437.5 0 405.64 31.86 405.64"/><polyline class="cls-2" points="31.86 469.36 0 469.36 0 437.5 31.86 437.5"/><path class="cls-3" d="M4,441.48v-4l-4,4Z"/><path class="cls-3" d="M4,441.48v4l4-4Z"/><path class="cls-1" d="M4,441.48H0l4,4Z"/><path class="cls-1" d="M4,441.48H8l-4-4Z"/><path class="cls-3" d="M4,457.41v-4l-4,4Z"/><path class="cls-3" d="M4,457.41v4l4-4Z"/><path class="cls-1" d="M4,457.41H0l4,4Z"/><path class="cls-1" d="M4,457.41H8l-4-4Z"/><path class="cls-3" d="M19.91,441.48v-4l-4,4Z"/><path class="cls-3" d="M19.91,441.48v4l4-4Z"/><path class="cls-1" d="M19.91,441.48h-4l4,4Z"/><path class="cls-1" d="M19.91,441.48h4l-4-4Z"/><path class="cls-3" d="M19.91,457.41v-4l-4,4Z"/><path class="cls-3" d="M19.91,457.41v4l4-4Z"/><path class="cls-1" d="M19.91,457.41h-4l4,4Z"/><path class="cls-1" d="M19.91,457.41h4l-4-4Z"/><path class="cls-3" d="M12,449.45v-4l-4,4Z"/><path class="cls-3" d="M12,449.45v4l4-4Z"/><path class="cls-1" d="M12,449.45H8l4,4Z"/><path class="cls-1" d="M12,449.45h4l-4-4Z"/><path class="cls-3" d="M12,465.38v-4l-4,4Z"/><path class="cls-3" d="M12,465.38v4l4-4Z"/><path class="cls-1" d="M12,465.38H8l4,4Z"/><path class="cls-1" d="M12,465.38h4l-4-4Z"/><path class="cls-3" d="M27.88,449.45v-4l-4,4Z"/><path class="cls-3" d="M31.86,449.45h-4v4l4-4"/><path class="cls-1" d="M27.88,449.45h-4l4,4Z"/><path class="cls-1" d="M31.86,449.45l-4-4v4h4"/><path class="cls-3" d="M27.88,465.38v-4l-4,4Z"/><path class="cls-3" d="M31.86,465.38h-4v4l4-4"/><path class="cls-1" d="M27.88,465.38h-4l4,4Z"/><path class="cls-1" d="M31.86,465.38l-4-4v4h4"/><path class="cls-3" d="M12,441.48v-4l-4,4Z"/><path class="cls-3" d="M12,441.48v4l4-4Z"/><path class="cls-1" d="M12,441.48H8l4,4Z"/><path class="cls-1" d="M12,441.48h4l-4-4Z"/><path class="cls-3" d="M12,457.41v-4l-4,4Z"/><path class="cls-3" d="M12,457.41v4l4-4Z"/><path class="cls-1" d="M12,457.41H8l4,4Z"/><path class="cls-1" d="M12,457.41h4l-4-4Z"/><path class="cls-3" d="M27.88,441.48v-4l-4,4Z"/><path class="cls-3" d="M31.86,441.48h-4v4l4-4"/><path class="cls-1" d="M27.88,441.48h-4l4,4Z"/><path class="cls-1" d="M31.86,441.48l-4-4v4h4"/><path class="cls-3" d="M27.88,457.41v-4l-4,4Z"/><path class="cls-3" d="M31.86,457.41h-4v4l4-4"/><path class="cls-1" d="M27.88,457.41h-4l4,4Z"/><path class="cls-1" d="M31.86,457.41l-4-4v4h4"/><path class="cls-3" d="M4,449.45v-4l-4,4Z"/><path class="cls-3" d="M4,449.45v4l4-4Z"/><path class="cls-1" d="M4,449.45H0l4,4Z"/><path class="cls-1" d="M4,449.45H8l-4-4Z"/><path class="cls-3" d="M4,465.38v-4l-4,4Z"/><path class="cls-3" d="M4,465.38v4l4-4Z"/><path class="cls-1" d="M4,465.38H0l4,4Z"/><path class="cls-1" d="M4,465.38H8l-4-4Z"/><path class="cls-3" d="M19.91,449.45v-4l-4,4Z"/><path class="cls-3" d="M19.91,449.45v4l4-4Z"/><path class="cls-1" d="M19.91,449.45h-4l4,4Z"/><path class="cls-1" d="M19.91,449.45h4l-4-4Z"/><path class="cls-3" d="M19.91,465.38v-4l-4,4Z"/><path class="cls-3" d="M19.91,465.38v4l4-4Z"/><path class="cls-1" d="M19.91,465.38h-4l4,4Z"/><path class="cls-1" d="M19.91,465.38h4l-4-4Z"/><polyline class="cls-2" points="31.86 604.43 0 604.43 0 636.28 31.86 636.28"/><path class="cls-3" d="M4,632.31v4l-4-4Z"/><path class="cls-3" d="M4,632.31v-4l4,4Z"/><path class="cls-1" d="M4,632.31H0l4-4Z"/><path class="cls-1" d="M4,632.31H8l-4,4Z"/><path class="cls-3" d="M4,616.38v4l-4-4Z"/><path class="cls-3" d="M4,616.38v-4l4,4Z"/><path class="cls-1" d="M4,616.38H0l4-4Z"/><path class="cls-1" d="M4,616.38H8l-4,4Z"/><path class="cls-3" d="M19.91,632.31v4l-4-4Z"/><path class="cls-3" d="M19.91,632.31v-4l4,4Z"/><path class="cls-1" d="M19.91,632.31h-4l4-4Z"/><path class="cls-1" d="M19.91,632.31h4l-4,4Z"/><path class="cls-3" d="M19.91,616.38v4l-4-4Z"/><path class="cls-3" d="M19.91,616.38v-4l4,4Z"/><path class="cls-1" d="M19.91,616.38h-4l4-4Z"/><path class="cls-1" d="M19.91,616.38h4l-4,4Z"/><path class="cls-3" d="M12,624.34v4l-4-4Z"/><path class="cls-3" d="M12,624.34v-4l4,4Z"/><path class="cls-1" d="M12,624.34H8l4-4Z"/><path class="cls-1" d="M12,624.34h4l-4,4Z"/><path class="cls-3" d="M12,608.41v4l-4-4Z"/><path class="cls-3" d="M12,608.41v-4l4,4Z"/><path class="cls-1" d="M12,608.41H8l4-4Z"/><path class="cls-1" d="M12,608.41h4l-4,4Z"/><path class="cls-3" d="M27.88,624.34v4l-4-4Z"/><path class="cls-3" d="M31.86,624.34h-4v-4l4,4"/><path class="cls-1" d="M27.88,624.34h-4l4-4Z"/><path class="cls-1" d="M31.86,624.34l-4,4v-4h4"/><path class="cls-3" d="M27.88,608.41v4l-4-4Z"/><path class="cls-3" d="M31.86,608.41h-4v-4l4,4"/><path class="cls-1" d="M27.88,608.41h-4l4-4Z"/><path class="cls-1" d="M31.86,608.41l-4,4v-4h4"/><path class="cls-3" d="M12,632.3v4l-4-4Z"/><path class="cls-3" d="M12,632.3v-4l4,4Z"/><path class="cls-1" d="M12,632.3H8l4-4Z"/><path class="cls-1" d="M12,632.3h4l-4,4Z"/><path class="cls-3" d="M12,616.38v4l-4-4Z"/><path class="cls-3" d="M12,616.38v-4l4,4Z"/><path class="cls-1" d="M12,616.38H8l4-4Z"/><path class="cls-1" d="M12,616.38h4l-4,4Z"/><path class="cls-3" d="M27.88,632.3v4l-4-4Z"/><path class="cls-3" d="M31.86,632.3h-4v-4l4,4"/><path class="cls-1" d="M27.88,632.3h-4l4-4Z"/><path class="cls-1" d="M31.86,632.3l-4,4v-4h4"/><path class="cls-3" d="M27.88,616.38v4l-4-4Z"/><path class="cls-3" d="M31.86,616.38h-4v-4l4,4"/><path class="cls-1" d="M27.88,616.38h-4l4-4Z"/><path class="cls-1" d="M31.86,616.38l-4,4v-4h4"/><path class="cls-3" d="M4,624.34v4l-4-4Z"/><path class="cls-3" d="M4,624.34v-4l4,4Z"/><path class="cls-1" d="M4,624.34H0l4-4Z"/><path class="cls-1" d="M4,624.34H8l-4,4Z"/><path class="cls-3" d="M4,608.41v4l-4-4Z"/><path class="cls-3" d="M4,608.41v-4l4,4Z"/><path class="cls-1" d="M4,608.41H0l4-4Z"/><path class="cls-1" d="M4,608.41H8l-4,4Z"/><path class="cls-3" d="M19.91,624.34v4l-4-4Z"/><path class="cls-3" d="M19.91,624.34v-4l4,4Z"/><path class="cls-1" d="M19.91,624.34h-4l4-4Z"/><path class="cls-1" d="M19.91,624.34h4l-4,4Z"/><path class="cls-3" d="M19.91,608.41v4l-4-4Z"/><path class="cls-3" d="M19.91,608.41v-4l4,4Z"/><path class="cls-1" d="M19.91,608.41h-4l4-4Z"/><path class="cls-1" d="M19.91,608.41h4l-4,4Z"/><polyline class="cls-3" points="31.86 501.22 0 501.22 0 469.36 31.86 469.36"/><path class="cls-4" d="M15.93,490.38c.15-3.51,2.4-10.59,10.83-10.83C26.52,483.16,24.13,490.38,15.93,490.38Z"/><path class="cls-4" d="M5.1,479.55c.14,3.52,2.4,10.6,10.83,10.83C15.69,486.77,13.29,479.55,5.1,479.55Z"/><polyline class="cls-2" points="31.86 572.57 0 572.57 0 501.21 31.86 501.21"/><polyline class="cls-3" points="31.86 604.43 0 604.43 0 572.58 31.86 572.58"/><path class="cls-4" d="M15.93,593.6c.15-3.51,2.4-10.6,10.83-10.83C26.52,586.38,24.13,593.6,15.93,593.6Z"/><path class="cls-4" d="M5.1,582.77c.14,3.51,2.4,10.6,10.83,10.83C15.69,590,13.29,582.77,5.1,582.77Z"/><path class="cls-4" d="M15.36,535V516.51L5.1,535Z"/><path class="cls-4" d="M15.36,535v18.47L25.63,535Z"/><path class="cls-1" d="M15.36,535H5.1l10.26,18.47Z"/><path class="cls-1" d="M15.36,535H25.63L15.36,516.51Z"/><path class="cls-5" d="M15.36,525.75v-9.24l-5.13,9.24Z"/><path class="cls-5" d="M15.36,525.75V535l5.14-9.24Z"/><path class="cls-3" d="M15.36,525.75H10.23L15.36,535Z"/><path class="cls-3" d="M15.36,525.75H20.5l-5.14-9.24Z"/><path class="cls-5" d="M15.36,544.22V535l-5.13,9.24Z"/><path class="cls-5" d="M15.36,544.22v9.24l5.14-9.24Z"/><path class="cls-3" d="M15.36,544.22H10.23l5.13,9.24Z"/><path class="cls-3" d="M15.36,544.22H20.5L15.36,535Z"/><path class="cls-2" d="M16,319.64v-25.5L2,319.64Z"/><path class="cls-2" d="M30.05,319.64H16v25.5l14-25.5"/><path class="cls-3" d="M16,319.64H2l14,25.5Z"/><path class="cls-3" d="M30.05,319.64l-14-25.5v25.5h14"/><path class="cls-4" d="M16,319.65c.11-2.65,1.8-8,8.16-8.16C24,314.21,22.2,319.65,16,319.65Z"/><path class="cls-4" d="M7.86,311.49c.12,2.64,1.81,8,8.16,8.16C15.84,316.93,14,311.49,7.86,311.49Z"/><path class="cls-4" d="M16,319.64c-.11,2.65-1.81,8-8.16,8.16C8.05,325.08,9.85,319.64,16,319.64Z"/><path class="cls-4" d="M24.19,327.81c-.11-2.65-1.81-8-8.16-8.16C16.21,322.37,18,327.81,24.19,327.81Z"/></g></g></svg>