<svg xmlns="http://www.w3.org/2000/svg" viewBox="0 0 31.86 230.64"><defs><style>.cls-1{fill:#001b3a;}.cls-2{fill:#587dd1;}.cls-3{fill:#86abff;}.cls-4{fill:#fff;}.cls-5{fill:#ff5473;}</style></defs><g id="Laag_2" data-name="Laag 2"><g id="Laag_1-2" data-name="Laag 1"><rect class="cls-1" width="31.86" height="31.86"/><path class="cls-2" d="M4,4V0L0,4Z"/><path class="cls-2" d="M4,4V8L8,4Z"/><path class="cls-3" d="M4,4H0L4,8Z"/><path class="cls-3" d="M4,4H8L4,0Z"/><path class="cls-2" d="M4,19.91v-4l-4,4Z"/><path class="cls-2" d="M4,19.91v4l4-4Z"/><path class="cls-3" d="M4,19.91H0l4,4Z"/><path class="cls-3" d="M4,19.91H8l-4-4Z"/><path class="cls-2" d="M19.91,4V0l-4,4Z"/><path class="cls-2" d="M19.91,4V8l4-4Z"/><path class="cls-3" d="M19.91,4h-4l4,4Z"/><path class="cls-3" d="M19.91,4h4l-4-4Z"/><path class="cls-2" d="M19.91,19.91v-4l-4,4Z"/><path class="cls-2" d="M19.91,19.91v4l4-4Z"/><path class="cls-3" d="M19.91,19.91h-4l4,4Z"/><path class="cls-3" d="M19.91,19.91h4l-4-4Z"/><path class="cls-2" d="M12,12V8L8,12Z"/><path class="cls-2" d="M12,12v4l4-4Z"/><path class="cls-3" d="M12,12H8l4,4Z"/><path class="cls-3" d="M12,12h4L12,8Z"/><path class="cls-2" d="M12,27.88v-4l-4,4Z"/><path class="cls-2" d="M12,27.88v4l4-4Z"/><path class="cls-3" d="M12,27.88H8l4,4Z"/><path class="cls-3" d="M12,27.88h4l-4-4Z"/><path class="cls-2" d="M27.88,12V8l-4,4Z"/><path class="cls-2" d="M27.88,12v4l4-4Z"/><path class="cls-3" d="M27.88,12h-4l4,4Z"/><path class="cls-3" d="M27.88,12h4l-4-4Z"/><path class="cls-2" d="M27.88,27.88v-4l-4,4Z"/><path class="cls-2" d="M27.88,27.88v4l4-4Z"/><path class="cls-3" d="M27.88,27.88h-4l4,4Z"/><path class="cls-3" d="M27.88,27.88h4l-4-4Z"/><path class="cls-2" d="M12,4V0L8,4Z"/><path class="cls-2" d="M12,4V8l4-4Z"/><path class="cls-3" d="M12,4H8l4,4Z"/><path class="cls-3" d="M12,4h4L12,0Z"/><path class="cls-2" d="M12,19.91v-4l-4,4Z"/><path class="cls-2" d="M12,19.91v4l4-4Z"/><path class="cls-3" d="M12,19.91H8l4,4Z"/><path class="cls-3" d="M12,19.91h4l-4-4Z"/><path class="cls-2" d="M27.88,4V0l-4,4Z"/><path class="cls-2" d="M27.88,4V8l4-4Z"/><path class="cls-3" d="M27.88,4h-4l4,4Z"/><path class="cls-3" d="M27.88,4h4l-4-4Z"/><path class="cls-2" d="M27.88,19.91v-4l-4,4Z"/><path class="cls-2" d="M27.88,19.91v4l4-4Z"/><path class="cls-3" d="M27.88,19.91h-4l4,4Z"/><path class="cls-3" d="M27.88,19.91h4l-4-4Z"/><path class="cls-2" d="M4,12V8L0,12Z"/><path class="cls-2" d="M4,12v4l4-4Z"/><path class="cls-3" d="M4,12H0l4,4Z"/><path class="cls-3" d="M4,12H8L4,8Z"/><path class="cls-2" d="M4,27.88v-4l-4,4Z"/><path class="cls-2" d="M4,27.88v4l4-4Z"/><path class="cls-3" d="M4,27.88H0l4,4Z"/><path class="cls-3" d="M4,27.88H8l-4-4Z"/><path class="cls-2" d="M19.91,12V8l-4,4Z"/><path class="cls-2" d="M19.91,12v4l4-4Z"/><path class="cls-3" d="M19.91,12h-4l4,4Z"/><path class="cls-3" d="M19.91,12h4l-4-4Z"/><path class="cls-2" d="M19.91,27.88v-4l-4,4Z"/><path class="cls-2" d="M19.91,27.88v4l4-4Z"/><path class="cls-3" d="M19.91,27.88h-4l4,4Z"/><path class="cls-3" d="M19.91,27.88h4l-4-4Z"/><rect class="cls-2" y="198.79" width="31.86" height="31.86"/><path class="cls-1" d="M31.86,202.33a12.35,12.35,0,0,0,0,24.7Z"/><rect class="cls-1" y="166.93" width="31.86" height="31.86"/><path class="cls-2" d="M4,194.8v4l-4-4Z"/><path class="cls-2" d="M4,194.8v-4l4,4Z"/><path class="cls-3" d="M4,194.8H0l4-4Z"/><path class="cls-3" d="M4,194.8H8l-4,4Z"/><path class="cls-2" d="M4,178.88v4l-4-4Z"/><path class="cls-2" d="M4,178.88v-4l4,4Z"/><path class="cls-3" d="M4,178.88H0l4-4Z"/><path class="cls-3" d="M4,178.88H8l-4,4Z"/><path class="cls-2" d="M19.91,194.8v4l-4-4Z"/><path class="cls-2" d="M19.91,194.8v-4l4,4Z"/><path class="cls-3" d="M19.91,194.8h-4l4-4Z"/><path class="cls-3" d="M19.91,194.8h4l-4,4Z"/><path class="cls-2" d="M19.91,178.88v4l-4-4Z"/><path class="cls-2" d="M19.91,178.88v-4l4,4Z"/><path class="cls-3" d="M19.91,178.88h-4l4-4Z"/><path class="cls-3" d="M19.91,178.88h4l-4,4Z"/><path class="cls-2" d="M12,186.84v4l-4-4Z"/><path class="cls-2" d="M12,186.84v-4l4,4Z"/><path class="cls-3" d="M12,186.84H8l4-4Z"/><path class="cls-3" d="M12,186.84h4l-4,4Z"/><path class="cls-2" d="M12,170.91v4l-4-4Z"/><path class="cls-2" d="M12,170.91v-4l4,4Z"/><path class="cls-3" d="M12,170.91H8l4-4Z"/><path class="cls-3" d="M12,170.91h4l-4,4Z"/><path class="cls-2" d="M27.88,186.84v4l-4-4Z"/><path class="cls-2" d="M27.88,186.84v-4l4,4Z"/><path class="cls-3" d="M27.88,186.84h-4l4-4Z"/><path class="cls-3" d="M27.88,186.84h4l-4,4Z"/><path class="cls-2" d="M27.88,170.91v4l-4-4Z"/><path class="cls-2" d="M27.88,170.91v-4l4,4Z"/><path class="cls-3" d="M27.88,170.91h-4l4-4Z"/><path class="cls-3" d="M27.88,170.91h4l-4,4Z"/><path class="cls-2" d="M12,194.8v4l-4-4Z"/><path class="cls-2" d="M12,194.8v-4l4,4Z"/><path class="cls-3" d="M12,194.8H8l4-4Z"/><path class="cls-3" d="M12,194.8h4l-4,4Z"/><path class="cls-2" d="M12,178.88v4l-4-4Z"/><path class="cls-2" d="M12,178.88v-4l4,4Z"/><path class="cls-3" d="M12,178.88H8l4-4Z"/><path class="cls-3" d="M12,178.88h4l-4,4Z"/><path class="cls-2" d="M27.88,194.8v4l-4-4Z"/><path class="cls-2" d="M27.88,194.8v-4l4,4Z"/><path class="cls-3" d="M27.88,194.8h-4l4-4Z"/><path class="cls-3" d="M27.88,194.8h4l-4,4Z"/><path class="cls-2" d="M27.88,178.88v4l-4-4Z"/><path class="cls-2" d="M27.88,178.88v-4l4,4Z"/><path class="cls-3" d="M27.88,178.88h-4l4-4Z"/><path class="cls-3" d="M27.88,178.88h4l-4,4Z"/><path class="cls-2" d="M4,186.84v4l-4-4Z"/><path class="cls-2" d="M4,186.84v-4l4,4Z"/><path class="cls-3" d="M4,186.84H0l4-4Z"/><path class="cls-3" d="M4,186.84H8l-4,4Z"/><path class="cls-2" d="M4,170.91v4l-4-4Z"/><path class="cls-2" d="M4,170.91v-4l4,4Z"/><path class="cls-3" d="M4,170.91H0l4-4Z"/><path class="cls-3" d="M4,170.91H8l-4,4Z"/><path class="cls-2" d="M19.91,186.84v4l-4-4Z"/><path class="cls-2" d="M19.91,186.84v-4l4,4Z"/><path class="cls-3" d="M19.91,186.84h-4l4-4Z"/><path class="cls-3" d="M19.91,186.84h4l-4,4Z"/><path class="cls-2" d="M19.91,170.91v4l-4-4Z"/><path class="cls-2" d="M19.91,170.91v-4l4,4Z"/><path class="cls-3" d="M19.91,170.91h-4l4-4Z"/><path class="cls-3" d="M19.91,170.91h4l-4,4Z"/><rect class="cls-2" y="31.86" width="31.86" height="31.86"/><path class="cls-4" d="M15.93,52.88c.15-3.51,2.4-10.59,10.83-10.83C26.52,45.66,24.13,52.88,15.93,52.88Z"/><path class="cls-4" d="M5.1,42.05c.14,3.51,2.4,10.6,10.83,10.83C15.69,49.27,13.29,42.05,5.1,42.05Z"/><rect class="cls-1" y="63.71" width="31.86" height="71.36"/><rect class="cls-2" y="135.07" width="31.86" height="31.86"/><path class="cls-4" d="M15.93,156.1c.15-3.52,2.4-10.6,10.83-10.83C26.52,148.88,24.13,156.1,15.93,156.1Z"/><path class="cls-4" d="M5.1,145.27c.14,3.51,2.4,10.59,10.83,10.83C15.69,152.49,13.29,145.27,5.1,145.27Z"/><path class="cls-4" d="M15.36,97.48V79L5.1,97.48Z"/><path class="cls-4" d="M15.36,97.48V116L25.63,97.48Z"/><path class="cls-3" d="M15.36,97.48H5.1L15.36,116Z"/><path class="cls-3" d="M15.36,97.48H25.63L15.36,79Z"/><path class="cls-5" d="M15.36,88.24V79l-5.13,9.23Z"/><path class="cls-5" d="M15.36,88.24v9.24l5.14-9.24Z"/><path class="cls-2" d="M15.36,88.24H10.23l5.13,9.24Z"/><path class="cls-2" d="M15.36,88.24H20.5L15.36,79Z"/><path class="cls-5" d="M15.36,106.72V97.48l-5.13,9.24Z"/><path class="cls-5" d="M15.36,106.72V116l5.14-9.24Z"/><path class="cls-2" d="M15.36,106.72H10.23L15.36,116Z"/><path class="cls-2" d="M15.36,106.72H20.5l-5.14-9.24Z"/></g></g></svg>