<svg xmlns="http://www.w3.org/2000/svg" viewBox="0 0 32 176"><defs><style>.cls-1{fill:#86abff;}.cls-2{fill:#001b3a;}.cls-3{fill:#587dd1;}.cls-4{fill:#fff;}</style></defs><g id="Laag_2" data-name="Laag 2"><g id="Laag_1-2" data-name="Laag 1"><rect class="cls-1" width="32" height="176"/><path class="cls-2" d="M16,89.5V64L2,89.5Z"/><path class="cls-2" d="M16,89.5V115l14-25.5Z"/><path class="cls-3" d="M16,89.5H2L16,115Z"/><path class="cls-3" d="M16,89.5h14L16,64Z"/><path class="cls-4" d="M16,89.5c.11-2.65,1.8-8,8.16-8.16C24,84.06,22.2,89.5,16,89.5Z"/><path class="cls-4" d="M7.86,81.34C8,84,9.67,89.32,16,89.5,15.84,86.78,14,81.34,7.86,81.34Z"/><path class="cls-4" d="M16,89.5c-.12,2.65-1.81,8-8.16,8.16C8.05,94.94,9.85,89.5,16,89.5Z"/><path class="cls-4" d="M24.19,97.66c-.11-2.65-1.81-8-8.16-8.16C16.21,92.22,18,97.66,24.19,97.66Z"/></g></g></svg>