<svg xmlns="http://www.w3.org/2000/svg" viewBox="0 0 32 668.14"><defs><style>.cls-1{fill:#7da0d1;}.cls-2{fill:#061a36;}.cls-3{fill:#567bbb;}.cls-4{fill:#fff;}.cls-5{fill:#c06ea9;}</style></defs><g id="Laag_2" data-name="Laag 2"><g id="Laag_2-2" data-name="Laag 2"><polyline class="cls-1" points="0 230.14 32 230.14 32 406.14 0 406.14"/><polyline class="cls-2" points="0.14 31.86 32 31.86 32 0 0.14 0"/><path class="cls-3" d="M28,4V0l4,4Z"/><path class="cls-3" d="M28,4V8L24,4Z"/><path class="cls-1" d="M28,4h4L28,8Z"/><path class="cls-1" d="M28,4H24l4-4Z"/><path class="cls-3" d="M28,19.91v-4l4,4Z"/><path class="cls-3" d="M28,19.91v4l-4-4Z"/><path class="cls-1" d="M28,19.91h4l-4,4Z"/><path class="cls-1" d="M28,19.91H24l4-4Z"/><path class="cls-3" d="M12.09,4V0l4,4Z"/><path class="cls-3" d="M12.09,4V8l-4-4Z"/><path class="cls-1" d="M12.09,4h4l-4,4Z"/><path class="cls-1" d="M12.09,4h-4l4-4Z"/><path class="cls-3" d="M12.09,19.91v-4l4,4Z"/><path class="cls-3" d="M12.09,19.91v4l-4-4Z"/><path class="cls-1" d="M12.09,19.91h4l-4,4Z"/><path class="cls-1" d="M12.09,19.91h-4l4-4Z"/><path class="cls-3" d="M20.05,12V8l4,4Z"/><path class="cls-3" d="M20.05,12v4l-4-4Z"/><path class="cls-1" d="M20.05,12h4l-4,4Z"/><path class="cls-1" d="M20.05,12h-4l4-4Z"/><path class="cls-3" d="M20.05,27.88v-4l4,4Z"/><path class="cls-3" d="M20.05,27.88v4l-4-4Z"/><path class="cls-1" d="M20.05,27.88h4l-4,4Z"/><path class="cls-1" d="M20.05,27.88h-4l4-4Z"/><path class="cls-3" d="M4.13,12V8l4,4Z"/><path class="cls-3" d="M.14,12h4v4l-4-4"/><path class="cls-1" d="M4.13,12h4l-4,4Z"/><path class="cls-1" d="M.14,12l4-4v4h-4"/><path class="cls-3" d="M4.13,27.88v-4l4,4Z"/><path class="cls-3" d="M.14,27.88h4v4l-4-4"/><path class="cls-1" d="M4.13,27.88h4l-4,4Z"/><path class="cls-1" d="M.14,27.88l4-4v4h-4"/><path class="cls-3" d="M20.05,4V0l4,4Z"/><path class="cls-3" d="M20.05,4V8l-4-4Z"/><path class="cls-1" d="M20.05,4h4l-4,4Z"/><path class="cls-1" d="M20.05,4h-4l4-4Z"/><path class="cls-3" d="M20.05,19.91v-4l4,4Z"/><path class="cls-3" d="M20.05,19.91v4l-4-4Z"/><path class="cls-1" d="M20.05,19.91h4l-4,4Z"/><path class="cls-1" d="M20.05,19.91h-4l4-4Z"/><path class="cls-3" d="M4.13,4V0l4,4Z"/><path class="cls-3" d="M.14,4h4V8l-4-4"/><path class="cls-1" d="M4.13,4h4l-4,4Z"/><path class="cls-1" d="M.14,4l4-4V4h-4"/><path class="cls-3" d="M4.13,19.91v-4l4,4Z"/><path class="cls-3" d="M.14,19.91h4v4l-4-4"/><path class="cls-1" d="M4.13,19.91h4l-4,4Z"/><path class="cls-1" d="M.14,19.91l4-4v4h-4"/><path class="cls-3" d="M28,12V8l4,4Z"/><path class="cls-3" d="M28,12v4l-4-4Z"/><path class="cls-1" d="M28,12h4l-4,4Z"/><path class="cls-1" d="M28,12H24l4-4Z"/><path class="cls-3" d="M28,27.88v-4l4,4Z"/><path class="cls-3" d="M28,27.88v4l-4-4Z"/><path class="cls-1" d="M28,27.88h4l-4,4Z"/><path class="cls-1" d="M28,27.88H24l4-4Z"/><path class="cls-3" d="M12.09,12V8l4,4Z"/><path class="cls-3" d="M12.09,12v4l-4-4Z"/><path class="cls-1" d="M12.09,12h4l-4,4Z"/><path class="cls-1" d="M12.09,12h-4l4-4Z"/><path class="cls-3" d="M12.09,27.88v-4l4,4Z"/><path class="cls-3" d="M12.09,27.88v4l-4-4Z"/><path class="cls-1" d="M12.09,27.88h4l-4,4Z"/><path class="cls-1" d="M12.09,27.88h-4l4-4Z"/><line class="cls-3" x1="0.14" x2="32"/><polyline class="cls-3" points="0.14 636.14 32 636.14 32 668.14 0.14 668.14"/><path class="cls-2" d="M.14,639.7a12.38,12.38,0,0,1,12.35,12.4A12.38,12.38,0,0,1,.14,664.51"/><polyline class="cls-3" points="0.14 198.79 32 198.79 32 230.64 0.14 230.64"/><polyline class="cls-2" points="0.14 166.93 32 166.93 32 198.78 0.14 198.78"/><path class="cls-3" d="M28,194.81v4l4-4Z"/><path class="cls-3" d="M28,194.81v-4l-4,4Z"/><path class="cls-1" d="M28,194.81h4l-4-4Z"/><path class="cls-1" d="M28,194.81H24l4,4Z"/><path class="cls-3" d="M28,178.87v4l4-4Z"/><path class="cls-3" d="M28,178.87v-4l-4,4Z"/><path class="cls-1" d="M28,178.87h4l-4-4Z"/><path class="cls-1" d="M28,178.87H24l4,4Z"/><path class="cls-3" d="M12.09,194.8v4l4-4Z"/><path class="cls-3" d="M12.09,194.8v-4l-4,4Z"/><path class="cls-1" d="M12.09,194.8h4l-4-4Z"/><path class="cls-1" d="M12.09,194.8h-4l4,4Z"/><path class="cls-3" d="M12.09,178.87v4l4-4Z"/><path class="cls-3" d="M12.09,178.87v-4l-4,4Z"/><path class="cls-1" d="M12.09,178.87h4l-4-4Z"/><path class="cls-1" d="M12.09,178.87h-4l4,4Z"/><path class="cls-3" d="M20.05,186.84v4l4-4Z"/><path class="cls-3" d="M20.05,186.84v-4l-4,4Z"/><path class="cls-1" d="M20.05,186.84h4l-4-4Z"/><path class="cls-1" d="M20.05,186.84h-4l4,4Z"/><path class="cls-3" d="M20.05,170.91v4l4-4Z"/><path class="cls-3" d="M20.05,170.91v-4l-4,4Z"/><path class="cls-1" d="M20.05,170.91h4l-4-4Z"/><path class="cls-1" d="M20.05,170.91h-4l4,4Z"/><path class="cls-3" d="M4.13,186.84v4l4-4Z"/><path class="cls-3" d="M.14,186.84h4v-4l-4,4"/><path class="cls-1" d="M4.13,186.84h4l-4-4Z"/><path class="cls-1" d="M.14,186.84l4,4v-4h-4"/><path class="cls-3" d="M4.13,170.91v4l4-4Z"/><path class="cls-3" d="M.14,170.91h4v-4l-4,4"/><path class="cls-1" d="M4.13,170.91h4l-4-4Z"/><path class="cls-1" d="M.14,170.91l4,4v-4h-4"/><path class="cls-3" d="M20.05,194.8v4l4-4Z"/><path class="cls-3" d="M20.05,194.8v-4l-4,4Z"/><path class="cls-1" d="M20.05,194.8h4l-4-4Z"/><path class="cls-1" d="M20.05,194.8h-4l4,4Z"/><path class="cls-3" d="M20.05,178.87v4l4-4Z"/><path class="cls-3" d="M20.05,178.87v-4l-4,4Z"/><path class="cls-1" d="M20.05,178.87h4l-4-4Z"/><path class="cls-1" d="M20.05,178.87h-4l4,4Z"/><path class="cls-3" d="M4.13,194.8v4l4-4Z"/><path class="cls-3" d="M.14,194.8h4v-4l-4,4"/><path class="cls-1" d="M4.13,194.8h4l-4-4Z"/><path class="cls-1" d="M.14,194.8l4,4v-4h-4"/><path class="cls-3" d="M4.13,178.87v4l4-4Z"/><path class="cls-3" d="M.14,178.87h4v-4l-4,4"/><path class="cls-1" d="M4.13,178.87h4l-4-4Z"/><path class="cls-1" d="M.14,178.87l4,4v-4h-4"/><path class="cls-3" d="M28,186.84v4l4-4Z"/><path class="cls-3" d="M28,186.84v-4l-4,4Z"/><path class="cls-1" d="M28,186.84h4l-4-4Z"/><path class="cls-1" d="M28,186.84H24l4,4Z"/><path class="cls-3" d="M28,170.91v4l4-4Z"/><path class="cls-3" d="M28,170.91v-4l-4,4Z"/><path class="cls-1" d="M28,170.91h4l-4-4Z"/><path class="cls-1" d="M28,170.91H24l4,4Z"/><path class="cls-3" d="M12.09,186.84v4l4-4Z"/><path class="cls-3" d="M12.09,186.84v-4l-4,4Z"/><path class="cls-1" d="M12.09,186.84h4l-4-4Z"/><path class="cls-1" d="M12.09,186.84h-4l4,4Z"/><path class="cls-3" d="M12.09,170.91v4l4-4Z"/><path class="cls-3" d="M12.09,170.91v-4l-4,4Z"/><path class="cls-1" d="M12.09,170.91h4l-4-4Z"/><path class="cls-1" d="M12.09,170.91h-4l4,4Z"/><polyline class="cls-2" points="0.14 63.71 32 63.71 32 135.07 0.14 135.07"/><polyline class="cls-3" points="0.14 31.86 32 31.86 32 63.71 0.14 63.71"/><path class="cls-4" d="M16.07,52.88c.15-3.51,2.4-10.59,10.83-10.83C26.66,45.66,24.27,52.88,16.07,52.88Z"/><path class="cls-4" d="M5.24,42.05c.15,3.51,2.4,10.6,10.83,10.83C15.83,49.27,13.44,42.05,5.24,42.05Z"/><polyline class="cls-3" points="0.14 135.07 32 135.07 32 166.93 0.14 166.93"/><path class="cls-4" d="M16.07,156.1c.15-3.51,2.4-10.6,10.83-10.83C26.66,148.88,24.27,156.1,16.07,156.1Z"/><path class="cls-4" d="M5.24,145.27c.15,3.51,2.4,10.59,10.83,10.83C15.83,152.49,13.44,145.27,5.24,145.27Z"/><path class="cls-4" d="M16.78,97.48V79L6.52,97.48Z"/><path class="cls-4" d="M16.78,97.48V116L27,97.48Z"/><path class="cls-1" d="M16.78,97.48H6.52L16.78,116Z"/><path class="cls-1" d="M16.78,97.48H27L16.78,79Z"/><path class="cls-5" d="M16.78,88.24V79l-5.13,9.23Z"/><path class="cls-5" d="M16.78,88.24v9.24l5.13-9.24Z"/><path class="cls-3" d="M16.78,88.24H11.65l5.13,9.24Z"/><path class="cls-3" d="M16.78,88.24h5.13L16.78,79Z"/><path class="cls-5" d="M16.78,106.72V97.48l-5.13,9.24Z"/><path class="cls-5" d="M16.78,106.72V116l5.13-9.24Z"/><path class="cls-3" d="M16.78,106.72H11.65L16.78,116Z"/><path class="cls-3" d="M16.78,106.72h5.13l-5.13-9.24Z"/><polyline class="cls-3" points="0.14 437.5 32 437.5 32 405.64 0.14 405.64"/><polyline class="cls-2" points="0.14 469.36 32 469.36 32 437.5 0.14 437.5"/><path class="cls-3" d="M28,441.48v-4l4,4Z"/><path class="cls-3" d="M28,441.48v4l-4-4Z"/><path class="cls-1" d="M28,441.48h4l-4,4Z"/><path class="cls-1" d="M28,441.48H24l4-4Z"/><path class="cls-3" d="M28,457.41v-4l4,4Z"/><path class="cls-3" d="M28,457.41v4l-4-4Z"/><path class="cls-1" d="M28,457.41h4l-4,4Z"/><path class="cls-1" d="M28,457.41H24l4-4Z"/><path class="cls-3" d="M12.09,441.48v-4l4,4Z"/><path class="cls-3" d="M12.09,441.48v4l-4-4Z"/><path class="cls-1" d="M12.09,441.48h4l-4,4Z"/><path class="cls-1" d="M12.09,441.48h-4l4-4Z"/><path class="cls-3" d="M12.09,457.41v-4l4,4Z"/><path class="cls-3" d="M12.09,457.41v4l-4-4Z"/><path class="cls-1" d="M12.09,457.41h4l-4,4Z"/><path class="cls-1" d="M12.09,457.41h-4l4-4Z"/><path class="cls-3" d="M20.05,449.45v-4l4,4Z"/><path class="cls-3" d="M20.05,449.45v4l-4-4Z"/><path class="cls-1" d="M20.05,449.45h4l-4,4Z"/><path class="cls-1" d="M20.05,449.45h-4l4-4Z"/><path class="cls-3" d="M20.05,465.38v-4l4,4Z"/><path class="cls-3" d="M20.05,465.38v4l-4-4Z"/><path class="cls-1" d="M20.05,465.38h4l-4,4Z"/><path class="cls-1" d="M20.05,465.38h-4l4-4Z"/><path class="cls-3" d="M4.13,449.45v-4l4,4Z"/><path class="cls-3" d="M.14,449.45h4v4l-4-4"/><path class="cls-1" d="M4.13,449.45h4l-4,4Z"/><path class="cls-1" d="M.14,449.45l4-4v4h-4"/><path class="cls-3" d="M4.13,465.38v-4l4,4Z"/><path class="cls-3" d="M.14,465.38h4v4l-4-4"/><path class="cls-1" d="M4.13,465.38h4l-4,4Z"/><path class="cls-1" d="M.14,465.38l4-4v4h-4"/><path class="cls-3" d="M20.05,441.48v-4l4,4Z"/><path class="cls-3" d="M20.05,441.48v4l-4-4Z"/><path class="cls-1" d="M20.05,441.48h4l-4,4Z"/><path class="cls-1" d="M20.05,441.48h-4l4-4Z"/><path class="cls-3" d="M20.05,457.41v-4l4,4Z"/><path class="cls-3" d="M20.05,457.41v4l-4-4Z"/><path class="cls-1" d="M20.05,457.41h4l-4,4Z"/><path class="cls-1" d="M20.05,457.41h-4l4-4Z"/><path class="cls-3" d="M4.13,441.48v-4l4,4Z"/><path class="cls-3" d="M.14,441.48h4v4l-4-4"/><path class="cls-1" d="M4.13,441.48h4l-4,4Z"/><path class="cls-1" d="M.14,441.48l4-4v4h-4"/><path class="cls-3" d="M4.13,457.41v-4l4,4Z"/><path class="cls-3" d="M.14,457.41h4v4l-4-4"/><path class="cls-1" d="M4.13,457.41h4l-4,4Z"/><path class="cls-1" d="M.14,457.41l4-4v4h-4"/><path class="cls-3" d="M28,449.45v-4l4,4Z"/><path class="cls-3" d="M28,449.45v4l-4-4Z"/><path class="cls-1" d="M28,449.45h4l-4,4Z"/><path class="cls-1" d="M28,449.45H24l4-4Z"/><path class="cls-3" d="M28,465.38v-4l4,4Z"/><path class="cls-3" d="M28,465.38v4l-4-4Z"/><path class="cls-1" d="M28,465.38h4l-4,4Z"/><path class="cls-1" d="M28,465.38H24l4-4Z"/><path class="cls-3" d="M12.09,449.45v-4l4,4Z"/><path class="cls-3" d="M12.09,449.45v4l-4-4Z"/><path class="cls-1" d="M12.09,449.45h4l-4,4Z"/><path class="cls-1" d="M12.09,449.45h-4l4-4Z"/><path class="cls-3" d="M12.09,465.38v-4l4,4Z"/><path class="cls-3" d="M12.09,465.38v4l-4-4Z"/><path class="cls-1" d="M12.09,465.38h4l-4,4Z"/><path class="cls-1" d="M12.09,465.38h-4l4-4Z"/><polyline class="cls-2" points="0.14 604.43 32 604.43 32 636.29 0.14 636.29"/><path class="cls-3" d="M28,632.31v4l4-4Z"/><path class="cls-3" d="M28,632.31v-4l-4,4Z"/><path class="cls-1" d="M28,632.31h4l-4-4Z"/><path class="cls-1" d="M28,632.31H24l4,4Z"/><path class="cls-3" d="M28,616.38v4l4-4Z"/><path class="cls-3" d="M28,616.38v-4l-4,4Z"/><path class="cls-1" d="M28,616.38h4l-4-4Z"/><path class="cls-1" d="M28,616.38H24l4,4Z"/><path class="cls-3" d="M12.09,632.3v4l4-4Z"/><path class="cls-3" d="M12.09,632.3v-4l-4,4Z"/><path class="cls-1" d="M12.09,632.3h4l-4-4Z"/><path class="cls-1" d="M12.09,632.3h-4l4,4Z"/><path class="cls-3" d="M12.09,616.38v4l4-4Z"/><path class="cls-3" d="M12.09,616.38v-4l-4,4Z"/><path class="cls-1" d="M12.09,616.38h4l-4-4Z"/><path class="cls-1" d="M12.09,616.38h-4l4,4Z"/><path class="cls-3" d="M20.05,624.34v4l4-4Z"/><path class="cls-3" d="M20.05,624.34v-4l-4,4Z"/><path class="cls-1" d="M20.05,624.34h4l-4-4Z"/><path class="cls-1" d="M20.05,624.34h-4l4,4Z"/><path class="cls-3" d="M20.05,608.41v4l4-4Z"/><path class="cls-3" d="M20.05,608.41v-4l-4,4Z"/><path class="cls-1" d="M20.05,608.41h4l-4-4Z"/><path class="cls-1" d="M20.05,608.41h-4l4,4Z"/><path class="cls-3" d="M4.13,624.34v4l4-4Z"/><path class="cls-3" d="M.14,624.34h4v-4l-4,4"/><path class="cls-1" d="M4.13,624.34h4l-4-4Z"/><path class="cls-1" d="M.14,624.34l4,4v-4h-4"/><path class="cls-3" d="M4.13,608.41v4l4-4Z"/><path class="cls-3" d="M.14,608.41h4v-4l-4,4"/><path class="cls-1" d="M4.13,608.41h4l-4-4Z"/><path class="cls-1" d="M.14,608.41l4,4v-4h-4"/><path class="cls-3" d="M20.05,632.3v4l4-4Z"/><path class="cls-3" d="M20.05,632.3v-4l-4,4Z"/><path class="cls-1" d="M20.05,632.3h4l-4-4Z"/><path class="cls-1" d="M20.05,632.3h-4l4,4Z"/><path class="cls-3" d="M20.05,616.38v4l4-4Z"/><path class="cls-3" d="M20.05,616.38v-4l-4,4Z"/><path class="cls-1" d="M20.05,616.38h4l-4-4Z"/><path class="cls-1" d="M20.05,616.38h-4l4,4Z"/><path class="cls-3" d="M4.13,632.3v4l4-4Z"/><path class="cls-3" d="M.14,632.3h4v-4l-4,4"/><path class="cls-1" d="M4.13,632.3h4l-4-4Z"/><path class="cls-1" d="M.14,632.3l4,4v-4h-4"/><path class="cls-3" d="M4.13,616.38v4l4-4Z"/><path class="cls-3" d="M.14,616.38h4v-4l-4,4"/><path class="cls-1" d="M4.13,616.38h4l-4-4Z"/><path class="cls-1" d="M.14,616.38l4,4v-4h-4"/><path class="cls-3" d="M28,624.34v4l4-4Z"/><path class="cls-3" d="M28,624.34v-4l-4,4Z"/><path class="cls-1" d="M28,624.34h4l-4-4Z"/><path class="cls-1" d="M28,624.34H24l4,4Z"/><path class="cls-3" d="M28,608.41v4l4-4Z"/><path class="cls-3" d="M28,608.41v-4l-4,4Z"/><path class="cls-1" d="M28,608.41h4l-4-4Z"/><path class="cls-1" d="M28,608.41H24l4,4Z"/><path class="cls-3" d="M12.09,624.34v4l4-4Z"/><path class="cls-3" d="M12.09,624.34v-4l-4,4Z"/><path class="cls-1" d="M12.09,624.34h4l-4-4Z"/><path class="cls-1" d="M12.09,624.34h-4l4,4Z"/><path class="cls-3" d="M12.09,608.41v4l4-4Z"/><path class="cls-3" d="M12.09,608.41v-4l-4,4Z"/><path class="cls-1" d="M12.09,608.41h4l-4-4Z"/><path class="cls-1" d="M12.09,608.41h-4l4,4Z"/><polyline class="cls-2" points="0.14 501.21 32 501.21 32 572.57 0.14 572.57"/><polyline class="cls-3" points="0.14 469.36 32 469.36 32 501.22 0.14 501.22"/><path class="cls-4" d="M16.07,490.38c.15-3.51,2.4-10.59,10.83-10.83C26.66,483.16,24.27,490.38,16.07,490.38Z"/><path class="cls-4" d="M5.24,479.55c.15,3.51,2.4,10.6,10.83,10.83C15.83,486.77,13.44,479.55,5.24,479.55Z"/><polyline class="cls-3" points="0.14 572.58 32 572.58 32 604.43 0.14 604.43"/><path class="cls-4" d="M16.07,593.6c.15-3.51,2.4-10.6,10.83-10.83C26.66,586.38,24.27,593.6,16.07,593.6Z"/><path class="cls-4" d="M5.24,582.77c.15,3.51,2.4,10.59,10.83,10.83C15.83,590,13.44,582.77,5.24,582.77Z"/><path class="cls-4" d="M16.78,535V516.51L6.52,535Z"/><path class="cls-4" d="M16.78,535v18.48L27,535Z"/><path class="cls-1" d="M16.78,535H6.52l10.26,18.48Z"/><path class="cls-1" d="M16.78,535H27L16.78,516.51Z"/><path class="cls-5" d="M16.78,525.75v-9.24l-5.13,9.24Z"/><path class="cls-5" d="M16.78,525.75V535l5.13-9.23Z"/><path class="cls-3" d="M16.78,525.75H11.65L16.78,535Z"/><path class="cls-3" d="M16.78,525.75h5.13l-5.13-9.24Z"/><path class="cls-5" d="M16.78,544.22V535l-5.13,9.24Z"/><path class="cls-5" d="M16.78,544.22v9.24l5.13-9.24Z"/><path class="cls-3" d="M16.78,544.22H11.65l5.13,9.24Z"/><path class="cls-3" d="M16.78,544.22h5.13L16.78,535Z"/><path class="cls-2" d="M2,319.64H16v-25.5L2,319.64"/><path class="cls-2" d="M16,319.64v25.5l14-25.5Z"/><path class="cls-3" d="M2,319.64l14,25.5v-25.5H2"/><path class="cls-3" d="M16,319.64h14l-14-25.5Z"/><path class="cls-4" d="M16,319.64c.11-2.64,1.8-8,8.16-8.16C24,314.2,22.2,319.64,16,319.64Z"/><path class="cls-4" d="M7.86,311.48c.12,2.65,1.81,8,8.16,8.16C15.84,316.92,14,311.48,7.86,311.48Z"/><path class="cls-4" d="M16,319.64c-.12,2.65-1.81,8-8.16,8.16C8.05,325.08,9.85,319.64,16,319.64Z"/><path class="cls-4" d="M24.19,327.8c-.11-2.64-1.81-8-8.16-8.16C16.21,322.36,18,327.8,24.19,327.8Z"/></g></g></svg>