<svg xmlns="http://www.w3.org/2000/svg" viewBox="0 0 262.5 63.71"><defs><style>.cls-1{fill:#567bbb;}.cls-2{fill:#58bb7a;}.cls-3{fill:#061a36;}.cls-4{fill:#7da0d1;}.cls-5{fill:#fff;}</style></defs><g id="Laag_2" data-name="Laag 2"><g id="Laag_2-2" data-name="Laag 2"><rect class="cls-1" width="31.86" height="31.86"/><rect class="cls-2" x="31.86" width="31.86" height="31.86"/><rect class="cls-2" x="95.57" width="35.68" height="31.86"/><path class="cls-3" d="M31.86,28.31a12.35,12.35,0,1,1,0-24.69Z"/><path class="cls-4" d="M31.86,3.62a12.35,12.35,0,0,1,0,24.69Z"/><path class="cls-3" d="M95.57,0a15.93,15.93,0,1,1,0,31.86Z"/><rect class="cls-1" x="63.71" width="31.86" height="31.86"/><path class="cls-5" d="M68.28,6.48a3.3,3.3,0,0,1,3.29-3.29A3.32,3.32,0,0,1,68.28,6.48Z"/><path class="cls-4" d="M68.28,11a3.32,3.32,0,0,1,3.29-3.3A3.33,3.33,0,0,1,68.28,11Z"/><path class="cls-3" d="M68.28,15.46a3.31,3.31,0,0,1,3.29-3.3A3.33,3.33,0,0,1,68.28,15.46Z"/><path class="cls-5" d="M68.28,20a3.31,3.31,0,0,1,3.29-3.3A3.33,3.33,0,0,1,68.28,20Z"/><path class="cls-4" d="M68.28,24.32A3.3,3.3,0,0,1,71.57,21,3.32,3.32,0,0,1,68.28,24.32Z"/><path class="cls-3" d="M68.28,28.78a3.3,3.3,0,0,1,3.29-3.29A3.32,3.32,0,0,1,68.28,28.78Z"/><path class="cls-5" d="M74.86,6.48a3.31,3.31,0,0,1,3.29-3.29A3.32,3.32,0,0,1,74.86,6.48Z"/><path class="cls-4" d="M74.86,11a3.32,3.32,0,0,1,3.29-3.3A3.33,3.33,0,0,1,74.86,11Z"/><path class="cls-3" d="M74.86,15.46a3.32,3.32,0,0,1,3.29-3.3A3.33,3.33,0,0,1,74.86,15.46Z"/><path class="cls-5" d="M74.86,20a3.32,3.32,0,0,1,3.29-3.3A3.33,3.33,0,0,1,74.86,20Z"/><path class="cls-4" d="M74.86,24.32A3.31,3.31,0,0,1,78.15,21,3.32,3.32,0,0,1,74.86,24.32Z"/><path class="cls-3" d="M74.86,28.78a3.31,3.31,0,0,1,3.29-3.29A3.32,3.32,0,0,1,74.86,28.78Z"/><path class="cls-5" d="M81.45,6.48a3.3,3.3,0,0,1,3.29-3.29A3.33,3.33,0,0,1,81.45,6.48Z"/><path class="cls-5" d="M88,6.48a3.3,3.3,0,0,1,3.29-3.29A3.32,3.32,0,0,1,88,6.48Z"/><path class="cls-4" d="M81.45,11a3.32,3.32,0,0,1,3.29-3.3A3.33,3.33,0,0,1,81.45,11Z"/><path class="cls-4" d="M88,11a3.32,3.32,0,0,1,3.29-3.3A3.33,3.33,0,0,1,88,11Z"/><path class="cls-3" d="M81.45,15.46a3.31,3.31,0,0,1,3.29-3.3A3.33,3.33,0,0,1,81.45,15.46Z"/><path class="cls-3" d="M88,15.46a3.31,3.31,0,0,1,3.29-3.3A3.33,3.33,0,0,1,88,15.46Z"/><path class="cls-5" d="M81.45,20a3.31,3.31,0,0,1,3.29-3.3A3.33,3.33,0,0,1,81.45,20Z"/><path class="cls-4" d="M81.45,24.32A3.3,3.3,0,0,1,84.74,21,3.33,3.33,0,0,1,81.45,24.32Z"/><path class="cls-3" d="M81.45,28.78a3.3,3.3,0,0,1,3.29-3.29A3.33,3.33,0,0,1,81.45,28.78Z"/><path class="cls-5" d="M88,20a3.31,3.31,0,0,1,3.29-3.3A3.33,3.33,0,0,1,88,20Z"/><path class="cls-4" d="M88,24.32A3.3,3.3,0,0,1,91.32,21,3.32,3.32,0,0,1,88,24.32Z"/><path class="cls-3" d="M88,28.78a3.3,3.3,0,0,1,3.29-3.29A3.32,3.32,0,0,1,88,28.78Z"/><path class="cls-2" d="M65,3.19a3.31,3.31,0,0,0,3.29,3.29A3.33,3.33,0,0,0,65,3.19Z"/><path class="cls-2" d="M65,7.68A3.31,3.31,0,0,0,68.28,11,3.33,3.33,0,0,0,65,7.68Z"/><path class="cls-2" d="M65,12.16a3.32,3.32,0,0,0,3.29,3.3A3.33,3.33,0,0,0,65,12.16Z"/><path class="cls-2" d="M65,16.65A3.32,3.32,0,0,0,68.28,20,3.33,3.33,0,0,0,65,16.65Z"/><path class="cls-2" d="M65,21a3.31,3.31,0,0,0,3.29,3.29A3.33,3.33,0,0,0,65,21Z"/><path class="cls-2" d="M65,25.49a3.31,3.31,0,0,0,3.29,3.29A3.33,3.33,0,0,0,65,25.49Z"/><path class="cls-5" d="M71.57,3.19a3.31,3.31,0,0,0,3.29,3.29A3.32,3.32,0,0,0,71.57,3.19Z"/><path class="cls-4" d="M71.57,7.68A3.31,3.31,0,0,0,74.86,11,3.32,3.32,0,0,0,71.57,7.68Z"/><path class="cls-3" d="M71.57,12.16a3.32,3.32,0,0,0,3.29,3.3A3.33,3.33,0,0,0,71.57,12.16Z"/><path class="cls-5" d="M71.57,16.65A3.32,3.32,0,0,0,74.86,20,3.33,3.33,0,0,0,71.57,16.65Z"/><path class="cls-4" d="M71.57,21a3.31,3.31,0,0,0,3.29,3.29A3.32,3.32,0,0,0,71.57,21Z"/><path class="cls-3" d="M71.57,25.49a3.31,3.31,0,0,0,3.29,3.29A3.32,3.32,0,0,0,71.57,25.49Z"/><path class="cls-5" d="M78.16,3.19a3.31,3.31,0,0,0,3.29,3.29A3.33,3.33,0,0,0,78.16,3.19Z"/><path class="cls-5" d="M84.74,3.19A3.31,3.31,0,0,0,88,6.48,3.32,3.32,0,0,0,84.74,3.19Z"/><path class="cls-4" d="M78.16,7.68A3.31,3.31,0,0,0,81.45,11,3.33,3.33,0,0,0,78.16,7.68Z"/><path class="cls-4" d="M84.74,7.68A3.31,3.31,0,0,0,88,11,3.32,3.32,0,0,0,84.74,7.68Z"/><path class="cls-3" d="M78.16,12.16a3.32,3.32,0,0,0,3.29,3.3A3.33,3.33,0,0,0,78.16,12.16Z"/><path class="cls-3" d="M84.74,12.16A3.32,3.32,0,0,0,88,15.46,3.33,3.33,0,0,0,84.74,12.16Z"/><path class="cls-5" d="M78.16,16.65A3.32,3.32,0,0,0,81.45,20,3.33,3.33,0,0,0,78.16,16.65Z"/><path class="cls-4" d="M78.16,21a3.31,3.31,0,0,0,3.29,3.29A3.33,3.33,0,0,0,78.16,21Z"/><path class="cls-3" d="M78.16,25.49a3.31,3.31,0,0,0,3.29,3.29A3.33,3.33,0,0,0,78.16,25.49Z"/><path class="cls-5" d="M84.74,16.65A3.32,3.32,0,0,0,88,20,3.33,3.33,0,0,0,84.74,16.65Z"/><path class="cls-4" d="M84.74,21A3.31,3.31,0,0,0,88,24.32,3.32,3.32,0,0,0,84.74,21Z"/><path class="cls-3" d="M84.74,25.49A3.31,3.31,0,0,0,88,28.78,3.32,3.32,0,0,0,84.74,25.49Z"/><rect class="cls-1" x="230.64" width="31.86" height="31.86"/><rect class="cls-2" x="198.79" width="31.86" height="31.86"/><rect class="cls-2" x="131.25" width="35.68" height="31.86"/><path class="cls-3" d="M230.64,28.31a12.35,12.35,0,1,0,0-24.69Z"/><path class="cls-4" d="M230.64,3.62a12.35,12.35,0,0,0,0,24.69Z"/><path class="cls-3" d="M166.93,0a15.93,15.93,0,0,0,0,31.86Z"/><rect class="cls-1" x="166.93" width="31.86" height="31.86"/><path class="cls-5" d="M194.22,6.48a3.3,3.3,0,0,0-3.29-3.29A3.32,3.32,0,0,0,194.22,6.48Z"/><path class="cls-4" d="M194.22,11a3.32,3.32,0,0,0-3.29-3.3A3.33,3.33,0,0,0,194.22,11Z"/><path class="cls-3" d="M194.22,15.46a3.31,3.31,0,0,0-3.29-3.3A3.33,3.33,0,0,0,194.22,15.46Z"/><path class="cls-5" d="M194.22,20a3.31,3.31,0,0,0-3.29-3.3A3.33,3.33,0,0,0,194.22,20Z"/><path class="cls-4" d="M194.22,24.32A3.3,3.3,0,0,0,190.93,21,3.32,3.32,0,0,0,194.22,24.32Z"/><path class="cls-3" d="M194.22,28.78a3.3,3.3,0,0,0-3.29-3.29A3.32,3.32,0,0,0,194.22,28.78Z"/><path class="cls-5" d="M187.64,6.48a3.31,3.31,0,0,0-3.3-3.29A3.34,3.34,0,0,0,187.64,6.48Z"/><path class="cls-4" d="M187.64,11a3.33,3.33,0,0,0-3.3-3.3A3.34,3.34,0,0,0,187.64,11Z"/><path class="cls-3" d="M187.64,15.46a3.32,3.32,0,0,0-3.3-3.3A3.34,3.34,0,0,0,187.64,15.46Z"/><path class="cls-5" d="M187.64,20a3.32,3.32,0,0,0-3.3-3.3A3.34,3.34,0,0,0,187.64,20Z"/><path class="cls-4" d="M187.64,24.32a3.31,3.31,0,0,0-3.3-3.29A3.34,3.34,0,0,0,187.64,24.32Z"/><path class="cls-3" d="M187.64,28.78a3.31,3.31,0,0,0-3.3-3.29A3.34,3.34,0,0,0,187.64,28.78Z"/><path class="cls-5" d="M181.05,6.48a3.3,3.3,0,0,0-3.29-3.29A3.33,3.33,0,0,0,181.05,6.48Z"/><path class="cls-5" d="M174.47,6.48a3.31,3.31,0,0,0-3.29-3.29A3.32,3.32,0,0,0,174.47,6.48Z"/><path class="cls-4" d="M181.05,11a3.32,3.32,0,0,0-3.29-3.3A3.33,3.33,0,0,0,181.05,11Z"/><path class="cls-4" d="M174.47,11a3.32,3.32,0,0,0-3.29-3.3A3.33,3.33,0,0,0,174.47,11Z"/><path class="cls-3" d="M181.05,15.46a3.31,3.31,0,0,0-3.29-3.3A3.33,3.33,0,0,0,181.05,15.46Z"/><path class="cls-3" d="M174.47,15.46a3.32,3.32,0,0,0-3.29-3.3A3.33,3.33,0,0,0,174.47,15.46Z"/><path class="cls-5" d="M181.05,20a3.31,3.31,0,0,0-3.29-3.3A3.33,3.33,0,0,0,181.05,20Z"/><path class="cls-4" d="M181.05,24.32A3.3,3.3,0,0,0,177.76,21,3.33,3.33,0,0,0,181.05,24.32Z"/><path class="cls-3" d="M181.05,28.78a3.3,3.3,0,0,0-3.29-3.29A3.33,3.33,0,0,0,181.05,28.78Z"/><path class="cls-5" d="M174.47,20a3.32,3.32,0,0,0-3.29-3.3A3.33,3.33,0,0,0,174.47,20Z"/><path class="cls-4" d="M174.47,24.32A3.31,3.31,0,0,0,171.18,21,3.32,3.32,0,0,0,174.47,24.32Z"/><path class="cls-3" d="M174.47,28.78a3.31,3.31,0,0,0-3.29-3.29A3.32,3.32,0,0,0,174.47,28.78Z"/><path class="cls-2" d="M197.51,3.19a3.31,3.31,0,0,1-3.29,3.29A3.33,3.33,0,0,1,197.51,3.19Z"/><path class="cls-2" d="M197.51,7.68A3.31,3.31,0,0,1,194.22,11,3.33,3.33,0,0,1,197.51,7.68Z"/><path class="cls-2" d="M197.51,12.16a3.32,3.32,0,0,1-3.29,3.3A3.33,3.33,0,0,1,197.51,12.16Z"/><path class="cls-2" d="M197.51,16.65a3.32,3.32,0,0,1-3.29,3.3A3.33,3.33,0,0,1,197.51,16.65Z"/><path class="cls-2" d="M197.51,21a3.31,3.31,0,0,1-3.29,3.29A3.33,3.33,0,0,1,197.51,21Z"/><path class="cls-2" d="M197.51,25.49a3.31,3.31,0,0,1-3.29,3.29A3.33,3.33,0,0,1,197.51,25.49Z"/><path class="cls-5" d="M190.93,3.19a3.32,3.32,0,0,1-3.29,3.29A3.32,3.32,0,0,1,190.93,3.19Z"/><path class="cls-4" d="M190.93,7.68A3.32,3.32,0,0,1,187.64,11,3.32,3.32,0,0,1,190.93,7.68Z"/><path class="cls-3" d="M190.93,12.16a3.32,3.32,0,0,1-3.29,3.3A3.33,3.33,0,0,1,190.93,12.16Z"/><path class="cls-5" d="M190.93,16.65a3.32,3.32,0,0,1-3.29,3.3A3.33,3.33,0,0,1,190.93,16.65Z"/><path class="cls-4" d="M190.93,21a3.32,3.32,0,0,1-3.29,3.29A3.32,3.32,0,0,1,190.93,21Z"/><path class="cls-3" d="M190.93,25.49a3.32,3.32,0,0,1-3.29,3.29A3.32,3.32,0,0,1,190.93,25.49Z"/><path class="cls-5" d="M184.35,3.19a3.32,3.32,0,0,1-3.3,3.29A3.33,3.33,0,0,1,184.35,3.19Z"/><path class="cls-5" d="M177.76,3.19a3.31,3.31,0,0,1-3.29,3.29A3.32,3.32,0,0,1,177.76,3.19Z"/><path class="cls-4" d="M184.35,7.68a3.32,3.32,0,0,1-3.3,3.29A3.33,3.33,0,0,1,184.35,7.68Z"/><path class="cls-4" d="M177.76,7.68A3.31,3.31,0,0,1,174.47,11,3.32,3.32,0,0,1,177.76,7.68Z"/><path class="cls-3" d="M184.35,12.16a3.33,3.33,0,0,1-3.3,3.3A3.34,3.34,0,0,1,184.35,12.16Z"/><path class="cls-3" d="M177.76,12.16a3.32,3.32,0,0,1-3.29,3.3A3.33,3.33,0,0,1,177.76,12.16Z"/><path class="cls-5" d="M184.35,16.65a3.33,3.33,0,0,1-3.3,3.3A3.34,3.34,0,0,1,184.35,16.65Z"/><path class="cls-4" d="M184.35,21a3.32,3.32,0,0,1-3.3,3.29A3.33,3.33,0,0,1,184.35,21Z"/><path class="cls-3" d="M184.35,25.49a3.32,3.32,0,0,1-3.3,3.29A3.33,3.33,0,0,1,184.35,25.49Z"/><path class="cls-5" d="M177.76,16.65a3.32,3.32,0,0,1-3.29,3.3A3.33,3.33,0,0,1,177.76,16.65Z"/><path class="cls-4" d="M177.76,21a3.31,3.31,0,0,1-3.29,3.29A3.32,3.32,0,0,1,177.76,21Z"/><path class="cls-3" d="M177.76,25.49a3.31,3.31,0,0,1-3.29,3.29A3.32,3.32,0,0,1,177.76,25.49Z"/><path class="cls-3" d="M130.93,31.86V0L113.41,31.86Z"/><path class="cls-3" d="M130.93,31.86V63.71l17.52-31.85Z"/><path class="cls-1" d="M130.93,31.86H113.41l17.52,31.85Z"/><path class="cls-1" d="M130.93,31.86h17.52L130.93,0Z"/><path class="cls-5" d="M130.93,31.86c.14-3.31,2.26-10,10.19-10.2C140.9,25.06,138.65,31.86,130.93,31.86Z"/><path class="cls-5" d="M120.74,21.66c.13,3.31,2.25,10,10.19,10.2C130.7,28.46,128.45,21.66,120.74,21.66Z"/><path class="cls-5" d="M130.93,31.86c-.14,3.3-2.26,10-10.19,10.19C121,38.65,123.22,31.86,130.93,31.86Z"/><path class="cls-5" d="M141.12,42.05c-.13-3.3-2.25-10-10.19-10.19C131.16,35.26,133.41,42.05,141.12,42.05Z"/></g></g></svg>