<svg xmlns="http://www.w3.org/2000/svg" viewBox="0 0 262.51 63.71"><defs><style>.cls-1{fill:#ee5d7d;}.cls-2{fill:#7da0d1;}.cls-3{fill:#061a36;}.cls-4{fill:#567bbb;}.cls-5{fill:#fff;}</style></defs><g id="Laag_2" data-name="Laag 2"><g id="Laag_2-2" data-name="Laag 2"><polyline class="cls-1" points="31.86 0 63.72 0 63.72 31.86 31.86 31.86"/><rect class="cls-1" x="95.58" width="35.68" height="31.86"/><path class="cls-2" d="M31.86,3.62a12.35,12.35,0,1,1,0,24.69"/><path class="cls-3" d="M95.58,0a15.93,15.93,0,1,1,0,31.86Z"/><rect class="cls-4" x="63.72" width="31.86" height="31.86"/><path class="cls-5" d="M68.29,6.48a3.3,3.3,0,0,1,3.29-3.29A3.33,3.33,0,0,1,68.29,6.48Z"/><path class="cls-2" d="M68.29,11a3.3,3.3,0,0,1,3.29-3.29A3.33,3.33,0,0,1,68.29,11Z"/><path class="cls-3" d="M68.29,15.46a3.31,3.31,0,0,1,3.29-3.3A3.33,3.33,0,0,1,68.29,15.46Z"/><path class="cls-5" d="M68.29,20a3.32,3.32,0,0,1,3.29-3.3A3.33,3.33,0,0,1,68.29,20Z"/><path class="cls-2" d="M68.29,24.32A3.3,3.3,0,0,1,71.58,21,3.33,3.33,0,0,1,68.29,24.32Z"/><path class="cls-3" d="M68.29,28.78a3.3,3.3,0,0,1,3.29-3.29A3.33,3.33,0,0,1,68.29,28.78Z"/><path class="cls-5" d="M74.87,6.48a3.3,3.3,0,0,1,3.29-3.29A3.32,3.32,0,0,1,74.87,6.48Z"/><path class="cls-2" d="M74.87,11a3.3,3.3,0,0,1,3.29-3.29A3.32,3.32,0,0,1,74.87,11Z"/><path class="cls-3" d="M74.87,15.46a3.31,3.31,0,0,1,3.29-3.3A3.33,3.33,0,0,1,74.87,15.46Z"/><path class="cls-5" d="M74.87,20a3.32,3.32,0,0,1,3.29-3.3A3.33,3.33,0,0,1,74.87,20Z"/><path class="cls-2" d="M74.87,24.32A3.3,3.3,0,0,1,78.16,21,3.32,3.32,0,0,1,74.87,24.32Z"/><path class="cls-3" d="M74.87,28.78a3.3,3.3,0,0,1,3.29-3.29A3.32,3.32,0,0,1,74.87,28.78Z"/><path class="cls-5" d="M81.45,6.48a3.31,3.31,0,0,1,3.3-3.29A3.34,3.34,0,0,1,81.45,6.48Z"/><path class="cls-5" d="M88,6.48a3.3,3.3,0,0,1,3.29-3.29A3.33,3.33,0,0,1,88,6.48Z"/><path class="cls-2" d="M81.45,11a3.31,3.31,0,0,1,3.3-3.29A3.34,3.34,0,0,1,81.45,11Z"/><path class="cls-2" d="M88,11a3.3,3.3,0,0,1,3.29-3.29A3.33,3.33,0,0,1,88,11Z"/><path class="cls-3" d="M81.45,15.46a3.32,3.32,0,0,1,3.3-3.3A3.34,3.34,0,0,1,81.45,15.46Z"/><path class="cls-3" d="M88,15.46a3.31,3.31,0,0,1,3.29-3.3A3.33,3.33,0,0,1,88,15.46Z"/><path class="cls-5" d="M81.45,20a3.33,3.33,0,0,1,3.3-3.3A3.34,3.34,0,0,1,81.45,20Z"/><path class="cls-2" d="M81.45,24.32A3.31,3.31,0,0,1,84.75,21,3.34,3.34,0,0,1,81.45,24.32Z"/><path class="cls-3" d="M81.45,28.78a3.31,3.31,0,0,1,3.3-3.29A3.34,3.34,0,0,1,81.45,28.78Z"/><path class="cls-5" d="M88,20a3.32,3.32,0,0,1,3.29-3.3A3.33,3.33,0,0,1,88,20Z"/><path class="cls-2" d="M88,24.32A3.3,3.3,0,0,1,91.33,21,3.33,3.33,0,0,1,88,24.32Z"/><path class="cls-3" d="M88,28.78a3.3,3.3,0,0,1,3.29-3.29A3.33,3.33,0,0,1,88,28.78Z"/><path class="cls-1" d="M65,3.19a3.32,3.32,0,0,0,3.3,3.29A3.34,3.34,0,0,0,65,3.19Z"/><path class="cls-1" d="M65,7.68A3.32,3.32,0,0,0,68.29,11,3.34,3.34,0,0,0,65,7.68Z"/><path class="cls-1" d="M65,12.16a3.32,3.32,0,0,0,3.3,3.3A3.34,3.34,0,0,0,65,12.16Z"/><path class="cls-1" d="M65,16.65a3.33,3.33,0,0,0,3.3,3.3A3.34,3.34,0,0,0,65,16.65Z"/><path class="cls-1" d="M65,21a3.32,3.32,0,0,0,3.3,3.29A3.34,3.34,0,0,0,65,21Z"/><path class="cls-1" d="M65,25.49a3.32,3.32,0,0,0,3.3,3.29A3.34,3.34,0,0,0,65,25.49Z"/><path class="cls-5" d="M71.58,3.19a3.31,3.31,0,0,0,3.29,3.29A3.33,3.33,0,0,0,71.58,3.19Z"/><path class="cls-2" d="M71.58,7.68A3.31,3.31,0,0,0,74.87,11,3.33,3.33,0,0,0,71.58,7.68Z"/><path class="cls-3" d="M71.58,12.16a3.31,3.31,0,0,0,3.29,3.3A3.33,3.33,0,0,0,71.58,12.16Z"/><path class="cls-5" d="M71.58,16.65A3.32,3.32,0,0,0,74.87,20,3.33,3.33,0,0,0,71.58,16.65Z"/><path class="cls-2" d="M71.58,21a3.31,3.31,0,0,0,3.29,3.29A3.33,3.33,0,0,0,71.58,21Z"/><path class="cls-3" d="M71.58,25.49a3.31,3.31,0,0,0,3.29,3.29A3.33,3.33,0,0,0,71.58,25.49Z"/><path class="cls-5" d="M78.16,3.19a3.32,3.32,0,0,0,3.29,3.29A3.32,3.32,0,0,0,78.16,3.19Z"/><path class="cls-5" d="M84.74,3.19A3.32,3.32,0,0,0,88,6.48,3.33,3.33,0,0,0,84.74,3.19Z"/><path class="cls-2" d="M78.16,7.68A3.32,3.32,0,0,0,81.45,11,3.32,3.32,0,0,0,78.16,7.68Z"/><path class="cls-2" d="M84.74,7.68A3.32,3.32,0,0,0,88,11,3.33,3.33,0,0,0,84.74,7.68Z"/><path class="cls-3" d="M78.16,12.16a3.32,3.32,0,0,0,3.29,3.3A3.33,3.33,0,0,0,78.16,12.16Z"/><path class="cls-3" d="M84.74,12.16a3.32,3.32,0,0,0,3.3,3.3A3.34,3.34,0,0,0,84.74,12.16Z"/><path class="cls-5" d="M78.16,16.65A3.32,3.32,0,0,0,81.45,20,3.33,3.33,0,0,0,78.16,16.65Z"/><path class="cls-2" d="M78.16,21a3.32,3.32,0,0,0,3.29,3.29A3.32,3.32,0,0,0,78.16,21Z"/><path class="cls-3" d="M78.16,25.49a3.32,3.32,0,0,0,3.29,3.29A3.32,3.32,0,0,0,78.16,25.49Z"/><path class="cls-5" d="M84.74,16.65A3.33,3.33,0,0,0,88,20,3.34,3.34,0,0,0,84.74,16.65Z"/><path class="cls-2" d="M84.74,21A3.32,3.32,0,0,0,88,24.32,3.33,3.33,0,0,0,84.74,21Z"/><path class="cls-3" d="M84.74,25.49A3.32,3.32,0,0,0,88,28.78,3.33,3.33,0,0,0,84.74,25.49Z"/><rect class="cls-4" x="230.65" width="31.86" height="31.86"/><rect class="cls-1" x="198.79" width="31.86" height="31.86"/><rect class="cls-1" x="131.26" width="35.68" height="31.86"/><path class="cls-3" d="M230.65,28.31a12.35,12.35,0,1,0,0-24.69Z"/><path class="cls-2" d="M230.65,3.62a12.35,12.35,0,1,0,0,24.69Z"/><path class="cls-3" d="M166.94,0a15.93,15.93,0,0,0,0,31.86Z"/><rect class="cls-4" x="166.94" width="31.86" height="31.86"/><path class="cls-5" d="M194.23,6.48a3.31,3.31,0,0,0-3.29-3.29A3.32,3.32,0,0,0,194.23,6.48Z"/><path class="cls-2" d="M194.23,11a3.31,3.31,0,0,0-3.29-3.29A3.32,3.32,0,0,0,194.23,11Z"/><path class="cls-3" d="M194.23,15.46a3.32,3.32,0,0,0-3.29-3.3A3.33,3.33,0,0,0,194.23,15.46Z"/><path class="cls-5" d="M194.23,20a3.32,3.32,0,0,0-3.29-3.3A3.33,3.33,0,0,0,194.23,20Z"/><path class="cls-2" d="M194.23,24.32A3.31,3.31,0,0,0,190.94,21,3.32,3.32,0,0,0,194.23,24.32Z"/><path class="cls-3" d="M194.23,28.78a3.31,3.31,0,0,0-3.29-3.29A3.32,3.32,0,0,0,194.23,28.78Z"/><path class="cls-5" d="M187.64,6.48a3.3,3.3,0,0,0-3.29-3.29A3.33,3.33,0,0,0,187.64,6.48Z"/><path class="cls-2" d="M187.64,11a3.3,3.3,0,0,0-3.29-3.29A3.33,3.33,0,0,0,187.64,11Z"/><path class="cls-3" d="M187.64,15.46a3.31,3.31,0,0,0-3.29-3.3A3.33,3.33,0,0,0,187.64,15.46Z"/><path class="cls-5" d="M187.64,20a3.32,3.32,0,0,0-3.29-3.3A3.33,3.33,0,0,0,187.64,20Z"/><path class="cls-2" d="M187.64,24.32A3.3,3.3,0,0,0,184.35,21,3.33,3.33,0,0,0,187.64,24.32Z"/><path class="cls-3" d="M187.64,28.78a3.3,3.3,0,0,0-3.29-3.29A3.33,3.33,0,0,0,187.64,28.78Z"/><path class="cls-5" d="M181.06,6.48a3.3,3.3,0,0,0-3.29-3.29A3.32,3.32,0,0,0,181.06,6.48Z"/><path class="cls-5" d="M174.48,6.48a3.31,3.31,0,0,0-3.3-3.29A3.33,3.33,0,0,0,174.48,6.48Z"/><path class="cls-2" d="M181.06,11a3.3,3.3,0,0,0-3.29-3.29A3.32,3.32,0,0,0,181.06,11Z"/><path class="cls-2" d="M174.48,11a3.31,3.31,0,0,0-3.3-3.29A3.33,3.33,0,0,0,174.48,11Z"/><path class="cls-3" d="M181.06,15.46a3.31,3.31,0,0,0-3.29-3.3A3.33,3.33,0,0,0,181.06,15.46Z"/><path class="cls-3" d="M174.48,15.46a3.32,3.32,0,0,0-3.3-3.3A3.34,3.34,0,0,0,174.48,15.46Z"/><path class="cls-5" d="M181.06,20a3.32,3.32,0,0,0-3.29-3.3A3.33,3.33,0,0,0,181.06,20Z"/><path class="cls-2" d="M181.06,24.32A3.3,3.3,0,0,0,177.77,21,3.32,3.32,0,0,0,181.06,24.32Z"/><path class="cls-3" d="M181.06,28.78a3.3,3.3,0,0,0-3.29-3.29A3.32,3.32,0,0,0,181.06,28.78Z"/><path class="cls-5" d="M174.48,20a3.33,3.33,0,0,0-3.3-3.3A3.34,3.34,0,0,0,174.48,20Z"/><path class="cls-2" d="M174.48,24.32a3.31,3.31,0,0,0-3.3-3.29A3.33,3.33,0,0,0,174.48,24.32Z"/><path class="cls-3" d="M174.48,28.78a3.31,3.31,0,0,0-3.3-3.29A3.33,3.33,0,0,0,174.48,28.78Z"/><path class="cls-1" d="M197.52,3.19a3.31,3.31,0,0,1-3.29,3.29A3.32,3.32,0,0,1,197.52,3.19Z"/><path class="cls-1" d="M197.52,7.68A3.31,3.31,0,0,1,194.23,11,3.32,3.32,0,0,1,197.52,7.68Z"/><path class="cls-1" d="M197.52,12.16a3.31,3.31,0,0,1-3.29,3.3A3.33,3.33,0,0,1,197.52,12.16Z"/><path class="cls-1" d="M197.52,16.65a3.32,3.32,0,0,1-3.29,3.3A3.33,3.33,0,0,1,197.52,16.65Z"/><path class="cls-1" d="M197.52,21a3.31,3.31,0,0,1-3.29,3.29A3.32,3.32,0,0,1,197.52,21Z"/><path class="cls-1" d="M197.52,25.49a3.31,3.31,0,0,1-3.29,3.29A3.32,3.32,0,0,1,197.52,25.49Z"/><path class="cls-5" d="M190.93,3.19a3.3,3.3,0,0,1-3.29,3.29A3.33,3.33,0,0,1,190.93,3.19Z"/><path class="cls-2" d="M190.93,7.68A3.3,3.3,0,0,1,187.64,11,3.33,3.33,0,0,1,190.93,7.68Z"/><path class="cls-3" d="M190.93,12.16a3.3,3.3,0,0,1-3.29,3.3A3.33,3.33,0,0,1,190.93,12.16Z"/><path class="cls-5" d="M190.93,16.65a3.31,3.31,0,0,1-3.29,3.3A3.33,3.33,0,0,1,190.93,16.65Z"/><path class="cls-2" d="M190.93,21a3.3,3.3,0,0,1-3.29,3.29A3.33,3.33,0,0,1,190.93,21Z"/><path class="cls-3" d="M190.93,25.49a3.3,3.3,0,0,1-3.29,3.29A3.33,3.33,0,0,1,190.93,25.49Z"/><path class="cls-5" d="M184.35,3.19a3.31,3.31,0,0,1-3.29,3.29A3.32,3.32,0,0,1,184.35,3.19Z"/><path class="cls-5" d="M177.77,3.19a3.32,3.32,0,0,1-3.29,3.29A3.32,3.32,0,0,1,177.77,3.19Z"/><path class="cls-2" d="M184.35,7.68A3.31,3.31,0,0,1,181.06,11,3.32,3.32,0,0,1,184.35,7.68Z"/><path class="cls-2" d="M177.77,7.68A3.32,3.32,0,0,1,174.48,11,3.32,3.32,0,0,1,177.77,7.68Z"/><path class="cls-3" d="M184.35,12.16a3.31,3.31,0,0,1-3.29,3.3A3.33,3.33,0,0,1,184.35,12.16Z"/><path class="cls-3" d="M177.77,12.16a3.32,3.32,0,0,1-3.29,3.3A3.33,3.33,0,0,1,177.77,12.16Z"/><path class="cls-5" d="M184.35,16.65a3.32,3.32,0,0,1-3.29,3.3A3.33,3.33,0,0,1,184.35,16.65Z"/><path class="cls-2" d="M184.35,21a3.31,3.31,0,0,1-3.29,3.29A3.32,3.32,0,0,1,184.35,21Z"/><path class="cls-3" d="M184.35,25.49a3.31,3.31,0,0,1-3.29,3.29A3.32,3.32,0,0,1,184.35,25.49Z"/><path class="cls-5" d="M177.77,16.65a3.32,3.32,0,0,1-3.29,3.3A3.33,3.33,0,0,1,177.77,16.65Z"/><path class="cls-2" d="M177.77,21a3.32,3.32,0,0,1-3.29,3.29A3.32,3.32,0,0,1,177.77,21Z"/><path class="cls-3" d="M177.77,25.49a3.32,3.32,0,0,1-3.29,3.29A3.32,3.32,0,0,1,177.77,25.49Z"/><path class="cls-3" d="M130.94,31.86V0L113.42,31.86Z"/><path class="cls-3" d="M130.94,31.86V63.71l17.52-31.85Z"/><path class="cls-4" d="M130.94,31.86H113.42l17.52,31.85Z"/><path class="cls-4" d="M130.94,31.86h17.52L130.94,0Z"/><path class="cls-5" d="M130.94,31.86c.14-3.31,2.26-10,10.19-10.2C140.9,25.06,138.65,31.86,130.94,31.86Z"/><path class="cls-5" d="M120.74,21.66c.14,3.31,2.26,10,10.2,10.2C130.71,28.46,128.46,21.66,120.74,21.66Z"/><path class="cls-5" d="M130.94,31.86c-.14,3.3-2.26,10-10.2,10.19C121,38.65,123.22,31.86,130.94,31.86Z"/><path class="cls-5" d="M141.13,42.05c-.14-3.3-2.26-10-10.19-10.19C131.17,35.26,133.42,42.05,141.13,42.05Z"/><polyline class="cls-4" points="0 31.89 0 0.04 31.86 0.04 31.86 31.89"/><line class="cls-1" x1="31.86" y1="32.58" x2="31.86" y2="0.73"/><path class="cls-3" d="M31.86,29a12.35,12.35,0,0,1,0-24.7V29"/><path class="cls-2" d="M31.86,29V4.34"/></g></g></svg>