<svg xmlns="http://www.w3.org/2000/svg" viewBox="0 0 1050.01 63.71"><defs><style>.cls-1{fill:#ee5d7d;}.cls-2{fill:#7da0d1;}.cls-3{fill:#061a36;}.cls-4{fill:#567bbb;}.cls-5{fill:#fff;}.cls-6{fill:#f18259;}.cls-7{fill:#58bb7a;}.cls-8{fill:#81d2e6;}</style></defs><g id="Laag_2" data-name="Laag 2"><g id="Laag_2-2" data-name="Laag 2"><polyline class="cls-1" points="31.86 0 63.72 0 63.72 31.86 31.86 31.86"/><rect class="cls-1" x="95.58" width="35.68" height="31.86"/><path class="cls-2" d="M31.86,3.62a12.35,12.35,0,1,1,0,24.69"/><path class="cls-3" d="M95.58,0a15.93,15.93,0,1,1,0,31.86Z"/><rect class="cls-4" x="63.72" width="31.86" height="31.86"/><path class="cls-5" d="M68.29,6.48a3.3,3.3,0,0,1,3.29-3.29A3.33,3.33,0,0,1,68.29,6.48Z"/><path class="cls-2" d="M68.29,11a3.3,3.3,0,0,1,3.29-3.29A3.33,3.33,0,0,1,68.29,11Z"/><path class="cls-3" d="M68.29,15.46a3.31,3.31,0,0,1,3.29-3.3A3.33,3.33,0,0,1,68.29,15.46Z"/><path class="cls-5" d="M68.29,20a3.32,3.32,0,0,1,3.29-3.3A3.33,3.33,0,0,1,68.29,20Z"/><path class="cls-2" d="M68.29,24.32A3.3,3.3,0,0,1,71.58,21,3.33,3.33,0,0,1,68.29,24.32Z"/><path class="cls-3" d="M68.29,28.78a3.3,3.3,0,0,1,3.29-3.29A3.33,3.33,0,0,1,68.29,28.78Z"/><path class="cls-5" d="M74.87,6.48a3.3,3.3,0,0,1,3.29-3.29A3.32,3.32,0,0,1,74.87,6.48Z"/><path class="cls-2" d="M74.87,11a3.3,3.3,0,0,1,3.29-3.29A3.32,3.32,0,0,1,74.87,11Z"/><path class="cls-3" d="M74.87,15.46a3.31,3.31,0,0,1,3.29-3.3A3.33,3.33,0,0,1,74.87,15.46Z"/><path class="cls-5" d="M74.87,20a3.32,3.32,0,0,1,3.29-3.3A3.33,3.33,0,0,1,74.87,20Z"/><path class="cls-2" d="M74.87,24.32A3.3,3.3,0,0,1,78.16,21,3.32,3.32,0,0,1,74.87,24.32Z"/><path class="cls-3" d="M74.87,28.78a3.3,3.3,0,0,1,3.29-3.29A3.32,3.32,0,0,1,74.87,28.78Z"/><path class="cls-5" d="M81.45,6.48a3.31,3.31,0,0,1,3.3-3.29A3.34,3.34,0,0,1,81.45,6.48Z"/><path class="cls-5" d="M88,6.48a3.3,3.3,0,0,1,3.29-3.29A3.33,3.33,0,0,1,88,6.48Z"/><path class="cls-2" d="M81.45,11a3.31,3.31,0,0,1,3.3-3.29A3.34,3.34,0,0,1,81.45,11Z"/><path class="cls-2" d="M88,11a3.3,3.3,0,0,1,3.29-3.29A3.33,3.33,0,0,1,88,11Z"/><path class="cls-3" d="M81.45,15.46a3.32,3.32,0,0,1,3.3-3.3A3.34,3.34,0,0,1,81.45,15.46Z"/><path class="cls-3" d="M88,15.46a3.31,3.31,0,0,1,3.29-3.3A3.33,3.33,0,0,1,88,15.46Z"/><path class="cls-5" d="M81.45,20a3.33,3.33,0,0,1,3.3-3.3A3.34,3.34,0,0,1,81.45,20Z"/><path class="cls-2" d="M81.45,24.32A3.31,3.31,0,0,1,84.75,21,3.34,3.34,0,0,1,81.45,24.32Z"/><path class="cls-3" d="M81.45,28.78a3.31,3.31,0,0,1,3.3-3.29A3.34,3.34,0,0,1,81.45,28.78Z"/><path class="cls-5" d="M88,20a3.32,3.32,0,0,1,3.29-3.3A3.33,3.33,0,0,1,88,20Z"/><path class="cls-2" d="M88,24.32A3.3,3.3,0,0,1,91.33,21,3.33,3.33,0,0,1,88,24.32Z"/><path class="cls-3" d="M88,28.78a3.3,3.3,0,0,1,3.29-3.29A3.33,3.33,0,0,1,88,28.78Z"/><path class="cls-1" d="M65,3.19a3.32,3.32,0,0,0,3.3,3.29A3.34,3.34,0,0,0,65,3.19Z"/><path class="cls-1" d="M65,7.68A3.32,3.32,0,0,0,68.29,11,3.34,3.34,0,0,0,65,7.68Z"/><path class="cls-1" d="M65,12.16a3.32,3.32,0,0,0,3.3,3.3A3.34,3.34,0,0,0,65,12.16Z"/><path class="cls-1" d="M65,16.65a3.33,3.33,0,0,0,3.3,3.3A3.34,3.34,0,0,0,65,16.65Z"/><path class="cls-1" d="M65,21a3.32,3.32,0,0,0,3.3,3.29A3.34,3.34,0,0,0,65,21Z"/><path class="cls-1" d="M65,25.49a3.32,3.32,0,0,0,3.3,3.29A3.34,3.34,0,0,0,65,25.49Z"/><path class="cls-5" d="M71.58,3.19a3.31,3.31,0,0,0,3.29,3.29A3.33,3.33,0,0,0,71.58,3.19Z"/><path class="cls-2" d="M71.58,7.68A3.31,3.31,0,0,0,74.87,11,3.33,3.33,0,0,0,71.58,7.68Z"/><path class="cls-3" d="M71.58,12.16a3.31,3.31,0,0,0,3.29,3.3A3.33,3.33,0,0,0,71.58,12.16Z"/><path class="cls-5" d="M71.58,16.65A3.32,3.32,0,0,0,74.87,20,3.33,3.33,0,0,0,71.58,16.65Z"/><path class="cls-2" d="M71.58,21a3.31,3.31,0,0,0,3.29,3.29A3.33,3.33,0,0,0,71.58,21Z"/><path class="cls-3" d="M71.58,25.49a3.31,3.31,0,0,0,3.29,3.29A3.33,3.33,0,0,0,71.58,25.49Z"/><path class="cls-5" d="M78.16,3.19a3.32,3.32,0,0,0,3.29,3.29A3.32,3.32,0,0,0,78.16,3.19Z"/><path class="cls-5" d="M84.74,3.19A3.32,3.32,0,0,0,88,6.48,3.33,3.33,0,0,0,84.74,3.19Z"/><path class="cls-2" d="M78.16,7.68A3.32,3.32,0,0,0,81.45,11,3.32,3.32,0,0,0,78.16,7.68Z"/><path class="cls-2" d="M84.74,7.68A3.32,3.32,0,0,0,88,11,3.33,3.33,0,0,0,84.74,7.68Z"/><path class="cls-3" d="M78.16,12.16a3.32,3.32,0,0,0,3.29,3.3A3.33,3.33,0,0,0,78.16,12.16Z"/><path class="cls-3" d="M84.74,12.16a3.32,3.32,0,0,0,3.3,3.3A3.34,3.34,0,0,0,84.74,12.16Z"/><path class="cls-5" d="M78.16,16.65A3.32,3.32,0,0,0,81.45,20,3.33,3.33,0,0,0,78.16,16.65Z"/><path class="cls-2" d="M78.16,21a3.32,3.32,0,0,0,3.29,3.29A3.32,3.32,0,0,0,78.16,21Z"/><path class="cls-3" d="M78.16,25.49a3.32,3.32,0,0,0,3.29,3.29A3.32,3.32,0,0,0,78.16,25.49Z"/><path class="cls-5" d="M84.74,16.65A3.33,3.33,0,0,0,88,20,3.34,3.34,0,0,0,84.74,16.65Z"/><path class="cls-2" d="M84.74,21A3.32,3.32,0,0,0,88,24.32,3.33,3.33,0,0,0,84.74,21Z"/><path class="cls-3" d="M84.74,25.49A3.32,3.32,0,0,0,88,28.78,3.33,3.33,0,0,0,84.74,25.49Z"/><rect class="cls-4" x="230.65" width="31.86" height="31.86"/><rect class="cls-1" x="198.79" width="31.86" height="31.86"/><rect class="cls-1" x="131.26" width="35.68" height="31.86"/><path class="cls-3" d="M230.65,28.31a12.35,12.35,0,1,0,0-24.69Z"/><path class="cls-2" d="M230.65,3.62a12.35,12.35,0,1,0,0,24.69Z"/><path class="cls-3" d="M166.94,0a15.93,15.93,0,0,0,0,31.86Z"/><rect class="cls-4" x="166.94" width="31.86" height="31.86"/><path class="cls-5" d="M194.23,6.48a3.31,3.31,0,0,0-3.29-3.29A3.32,3.32,0,0,0,194.23,6.48Z"/><path class="cls-2" d="M194.23,11a3.31,3.31,0,0,0-3.29-3.29A3.32,3.32,0,0,0,194.23,11Z"/><path class="cls-3" d="M194.23,15.46a3.32,3.32,0,0,0-3.29-3.3A3.33,3.33,0,0,0,194.23,15.46Z"/><path class="cls-5" d="M194.23,20a3.32,3.32,0,0,0-3.29-3.3A3.33,3.33,0,0,0,194.23,20Z"/><path class="cls-2" d="M194.23,24.32A3.31,3.31,0,0,0,190.94,21,3.32,3.32,0,0,0,194.23,24.32Z"/><path class="cls-3" d="M194.23,28.78a3.31,3.31,0,0,0-3.29-3.29A3.32,3.32,0,0,0,194.23,28.78Z"/><path class="cls-5" d="M187.64,6.48a3.3,3.3,0,0,0-3.29-3.29A3.33,3.33,0,0,0,187.64,6.48Z"/><path class="cls-2" d="M187.64,11a3.3,3.3,0,0,0-3.29-3.29A3.33,3.33,0,0,0,187.64,11Z"/><path class="cls-3" d="M187.64,15.46a3.31,3.31,0,0,0-3.29-3.3A3.33,3.33,0,0,0,187.64,15.46Z"/><path class="cls-5" d="M187.64,20a3.32,3.32,0,0,0-3.29-3.3A3.33,3.33,0,0,0,187.64,20Z"/><path class="cls-2" d="M187.64,24.32A3.3,3.3,0,0,0,184.35,21,3.33,3.33,0,0,0,187.64,24.32Z"/><path class="cls-3" d="M187.64,28.78a3.3,3.3,0,0,0-3.29-3.29A3.33,3.33,0,0,0,187.64,28.78Z"/><path class="cls-5" d="M181.06,6.48a3.3,3.3,0,0,0-3.29-3.29A3.32,3.32,0,0,0,181.06,6.48Z"/><path class="cls-5" d="M174.48,6.48a3.31,3.31,0,0,0-3.3-3.29A3.33,3.33,0,0,0,174.48,6.48Z"/><path class="cls-2" d="M181.06,11a3.3,3.3,0,0,0-3.29-3.29A3.32,3.32,0,0,0,181.06,11Z"/><path class="cls-2" d="M174.48,11a3.31,3.31,0,0,0-3.3-3.29A3.33,3.33,0,0,0,174.48,11Z"/><path class="cls-3" d="M181.06,15.46a3.31,3.31,0,0,0-3.29-3.3A3.33,3.33,0,0,0,181.06,15.46Z"/><path class="cls-3" d="M174.48,15.46a3.32,3.32,0,0,0-3.3-3.3A3.34,3.34,0,0,0,174.48,15.46Z"/><path class="cls-5" d="M181.06,20a3.32,3.32,0,0,0-3.29-3.3A3.33,3.33,0,0,0,181.06,20Z"/><path class="cls-2" d="M181.06,24.32A3.3,3.3,0,0,0,177.77,21,3.32,3.32,0,0,0,181.06,24.32Z"/><path class="cls-3" d="M181.06,28.78a3.3,3.3,0,0,0-3.29-3.29A3.32,3.32,0,0,0,181.06,28.78Z"/><path class="cls-5" d="M174.48,20a3.33,3.33,0,0,0-3.3-3.3A3.34,3.34,0,0,0,174.48,20Z"/><path class="cls-2" d="M174.48,24.32a3.31,3.31,0,0,0-3.3-3.29A3.33,3.33,0,0,0,174.48,24.32Z"/><path class="cls-3" d="M174.48,28.78a3.31,3.31,0,0,0-3.3-3.29A3.33,3.33,0,0,0,174.48,28.78Z"/><path class="cls-1" d="M197.52,3.19a3.31,3.31,0,0,1-3.29,3.29A3.32,3.32,0,0,1,197.52,3.19Z"/><path class="cls-1" d="M197.52,7.68A3.31,3.31,0,0,1,194.23,11,3.32,3.32,0,0,1,197.52,7.68Z"/><path class="cls-1" d="M197.52,12.16a3.31,3.31,0,0,1-3.29,3.3A3.33,3.33,0,0,1,197.52,12.16Z"/><path class="cls-1" d="M197.52,16.65a3.32,3.32,0,0,1-3.29,3.3A3.33,3.33,0,0,1,197.52,16.65Z"/><path class="cls-1" d="M197.52,21a3.31,3.31,0,0,1-3.29,3.29A3.32,3.32,0,0,1,197.52,21Z"/><path class="cls-1" d="M197.52,25.49a3.31,3.31,0,0,1-3.29,3.29A3.32,3.32,0,0,1,197.52,25.49Z"/><path class="cls-5" d="M190.93,3.19a3.3,3.3,0,0,1-3.29,3.29A3.33,3.33,0,0,1,190.93,3.19Z"/><path class="cls-2" d="M190.93,7.68A3.3,3.3,0,0,1,187.64,11,3.33,3.33,0,0,1,190.93,7.68Z"/><path class="cls-3" d="M190.93,12.16a3.3,3.3,0,0,1-3.29,3.3A3.33,3.33,0,0,1,190.93,12.16Z"/><path class="cls-5" d="M190.93,16.65a3.31,3.31,0,0,1-3.29,3.3A3.33,3.33,0,0,1,190.93,16.65Z"/><path class="cls-2" d="M190.93,21a3.3,3.3,0,0,1-3.29,3.29A3.33,3.33,0,0,1,190.93,21Z"/><path class="cls-3" d="M190.93,25.49a3.3,3.3,0,0,1-3.29,3.29A3.33,3.33,0,0,1,190.93,25.49Z"/><path class="cls-5" d="M184.35,3.19a3.31,3.31,0,0,1-3.29,3.29A3.32,3.32,0,0,1,184.35,3.19Z"/><path class="cls-5" d="M177.77,3.19a3.32,3.32,0,0,1-3.29,3.29A3.32,3.32,0,0,1,177.77,3.19Z"/><path class="cls-2" d="M184.35,7.68A3.31,3.31,0,0,1,181.06,11,3.32,3.32,0,0,1,184.35,7.68Z"/><path class="cls-2" d="M177.77,7.68A3.32,3.32,0,0,1,174.48,11,3.32,3.32,0,0,1,177.77,7.68Z"/><path class="cls-3" d="M184.35,12.16a3.31,3.31,0,0,1-3.29,3.3A3.33,3.33,0,0,1,184.35,12.16Z"/><path class="cls-3" d="M177.77,12.16a3.32,3.32,0,0,1-3.29,3.3A3.33,3.33,0,0,1,177.77,12.16Z"/><path class="cls-5" d="M184.35,16.65a3.32,3.32,0,0,1-3.29,3.3A3.33,3.33,0,0,1,184.35,16.65Z"/><path class="cls-2" d="M184.35,21a3.31,3.31,0,0,1-3.29,3.29A3.32,3.32,0,0,1,184.35,21Z"/><path class="cls-3" d="M184.35,25.49a3.31,3.31,0,0,1-3.29,3.29A3.32,3.32,0,0,1,184.35,25.49Z"/><path class="cls-5" d="M177.77,16.65a3.32,3.32,0,0,1-3.29,3.3A3.33,3.33,0,0,1,177.77,16.65Z"/><path class="cls-2" d="M177.77,21a3.32,3.32,0,0,1-3.29,3.29A3.32,3.32,0,0,1,177.77,21Z"/><path class="cls-3" d="M177.77,25.49a3.32,3.32,0,0,1-3.29,3.29A3.32,3.32,0,0,1,177.77,25.49Z"/><path class="cls-3" d="M130.94,31.86V0L113.42,31.86Z"/><path class="cls-3" d="M130.94,31.86V63.71l17.52-31.85Z"/><path class="cls-4" d="M130.94,31.86H113.42l17.52,31.85Z"/><path class="cls-4" d="M130.94,31.86h17.52L130.94,0Z"/><path class="cls-5" d="M130.94,31.86c.14-3.31,2.26-10,10.19-10.2C140.9,25.06,138.65,31.86,130.94,31.86Z"/><path class="cls-5" d="M120.74,21.66c.14,3.31,2.26,10,10.2,10.2C130.71,28.46,128.46,21.66,120.74,21.66Z"/><path class="cls-5" d="M130.94,31.86c-.14,3.3-2.26,10-10.2,10.19C121,38.65,123.22,31.86,130.94,31.86Z"/><path class="cls-5" d="M141.13,42.05c-.14-3.3-2.26-10-10.19-10.19C131.17,35.26,133.42,42.05,141.13,42.05Z"/><rect class="cls-4" x="262.51" width="31.86" height="31.86"/><rect class="cls-6" x="294.36" width="31.86" height="31.86"/><rect class="cls-6" x="358.08" width="35.68" height="31.86"/><path class="cls-3" d="M294.36,28.31a12.35,12.35,0,0,1,0-24.69Z"/><path class="cls-2" d="M294.36,3.62a12.35,12.35,0,1,1,0,24.69Z"/><path class="cls-3" d="M358.08,0a15.93,15.93,0,1,1,0,31.86Z"/><rect class="cls-4" x="326.22" width="31.86" height="31.86"/><path class="cls-5" d="M330.79,6.48a3.3,3.3,0,0,1,3.29-3.29A3.33,3.33,0,0,1,330.79,6.48Z"/><path class="cls-2" d="M330.79,11a3.3,3.3,0,0,1,3.29-3.29A3.33,3.33,0,0,1,330.79,11Z"/><path class="cls-3" d="M330.79,15.46a3.32,3.32,0,0,1,3.29-3.3A3.33,3.33,0,0,1,330.79,15.46Z"/><path class="cls-5" d="M330.79,20a3.32,3.32,0,0,1,3.29-3.3A3.33,3.33,0,0,1,330.79,20Z"/><path class="cls-2" d="M330.79,24.32A3.3,3.3,0,0,1,334.08,21,3.33,3.33,0,0,1,330.79,24.32Z"/><path class="cls-3" d="M330.79,28.78a3.3,3.3,0,0,1,3.29-3.29A3.33,3.33,0,0,1,330.79,28.78Z"/><path class="cls-5" d="M337.37,6.48a3.3,3.3,0,0,1,3.29-3.29A3.32,3.32,0,0,1,337.37,6.48Z"/><path class="cls-2" d="M337.37,11a3.3,3.3,0,0,1,3.29-3.29A3.32,3.32,0,0,1,337.37,11Z"/><path class="cls-3" d="M337.37,15.46a3.32,3.32,0,0,1,3.29-3.3A3.33,3.33,0,0,1,337.37,15.46Z"/><path class="cls-5" d="M337.37,20a3.32,3.32,0,0,1,3.29-3.3A3.33,3.33,0,0,1,337.37,20Z"/><path class="cls-2" d="M337.37,24.32A3.3,3.3,0,0,1,340.66,21,3.32,3.32,0,0,1,337.37,24.32Z"/><path class="cls-3" d="M337.37,28.78a3.3,3.3,0,0,1,3.29-3.29A3.32,3.32,0,0,1,337.37,28.78Z"/><path class="cls-5" d="M344,6.48a3.31,3.31,0,0,1,3.3-3.29A3.34,3.34,0,0,1,344,6.48Z"/><path class="cls-5" d="M350.54,6.48a3.3,3.3,0,0,1,3.29-3.29A3.33,3.33,0,0,1,350.54,6.48Z"/><path class="cls-2" d="M344,11a3.31,3.31,0,0,1,3.3-3.29A3.34,3.34,0,0,1,344,11Z"/><path class="cls-2" d="M350.54,11a3.3,3.3,0,0,1,3.29-3.29A3.33,3.33,0,0,1,350.54,11Z"/><path class="cls-3" d="M344,15.46a3.33,3.33,0,0,1,3.3-3.3A3.34,3.34,0,0,1,344,15.46Z"/><path class="cls-3" d="M350.54,15.46a3.32,3.32,0,0,1,3.29-3.3A3.33,3.33,0,0,1,350.54,15.46Z"/><path class="cls-5" d="M344,20a3.33,3.33,0,0,1,3.3-3.3A3.34,3.34,0,0,1,344,20Z"/><path class="cls-2" d="M344,24.32a3.31,3.31,0,0,1,3.3-3.29A3.34,3.34,0,0,1,344,24.32Z"/><path class="cls-3" d="M344,28.78a3.31,3.31,0,0,1,3.3-3.29A3.34,3.34,0,0,1,344,28.78Z"/><path class="cls-5" d="M350.54,20a3.32,3.32,0,0,1,3.29-3.3A3.33,3.33,0,0,1,350.54,20Z"/><path class="cls-2" d="M350.54,24.32A3.3,3.3,0,0,1,353.83,21,3.33,3.33,0,0,1,350.54,24.32Z"/><path class="cls-3" d="M350.54,28.78a3.3,3.3,0,0,1,3.29-3.29A3.33,3.33,0,0,1,350.54,28.78Z"/><path class="cls-6" d="M327.49,3.19a3.31,3.31,0,0,0,3.3,3.29A3.34,3.34,0,0,0,327.49,3.19Z"/><path class="cls-6" d="M327.49,7.68a3.32,3.32,0,0,0,3.3,3.29A3.34,3.34,0,0,0,327.49,7.68Z"/><path class="cls-6" d="M327.49,12.17a3.32,3.32,0,0,0,3.3,3.29A3.34,3.34,0,0,0,327.49,12.17Z"/><path class="cls-6" d="M327.49,16.65a3.32,3.32,0,0,0,3.3,3.3A3.34,3.34,0,0,0,327.49,16.65Z"/><path class="cls-6" d="M327.49,21a3.32,3.32,0,0,0,3.3,3.29A3.34,3.34,0,0,0,327.49,21Z"/><path class="cls-6" d="M327.49,25.49a3.31,3.31,0,0,0,3.3,3.29A3.34,3.34,0,0,0,327.49,25.49Z"/><path class="cls-5" d="M334.08,3.19a3.3,3.3,0,0,0,3.29,3.29A3.33,3.33,0,0,0,334.08,3.19Z"/><path class="cls-2" d="M334.08,7.68A3.31,3.31,0,0,0,337.37,11,3.33,3.33,0,0,0,334.08,7.68Z"/><path class="cls-3" d="M334.08,12.17a3.31,3.31,0,0,0,3.29,3.29A3.33,3.33,0,0,0,334.08,12.17Z"/><path class="cls-5" d="M334.08,16.65a3.31,3.31,0,0,0,3.29,3.3A3.33,3.33,0,0,0,334.08,16.65Z"/><path class="cls-2" d="M334.08,21a3.31,3.31,0,0,0,3.29,3.29A3.33,3.33,0,0,0,334.08,21Z"/><path class="cls-3" d="M334.08,25.49a3.3,3.3,0,0,0,3.29,3.29A3.33,3.33,0,0,0,334.08,25.49Z"/><path class="cls-5" d="M340.66,3.19A3.31,3.31,0,0,0,344,6.48,3.32,3.32,0,0,0,340.66,3.19Z"/><path class="cls-5" d="M347.24,3.19a3.31,3.31,0,0,0,3.3,3.29A3.33,3.33,0,0,0,347.24,3.19Z"/><path class="cls-2" d="M340.66,7.68A3.32,3.32,0,0,0,344,11,3.32,3.32,0,0,0,340.66,7.68Z"/><path class="cls-2" d="M347.24,7.68a3.32,3.32,0,0,0,3.3,3.29A3.33,3.33,0,0,0,347.24,7.68Z"/><path class="cls-3" d="M340.66,12.17A3.32,3.32,0,0,0,344,15.46,3.32,3.32,0,0,0,340.66,12.17Z"/><path class="cls-3" d="M347.24,12.17a3.32,3.32,0,0,0,3.3,3.29A3.33,3.33,0,0,0,347.24,12.17Z"/><path class="cls-5" d="M340.66,16.65A3.32,3.32,0,0,0,344,20,3.33,3.33,0,0,0,340.66,16.65Z"/><path class="cls-2" d="M340.66,21A3.32,3.32,0,0,0,344,24.32,3.32,3.32,0,0,0,340.66,21Z"/><path class="cls-3" d="M340.66,25.49A3.31,3.31,0,0,0,344,28.78,3.32,3.32,0,0,0,340.66,25.49Z"/><path class="cls-5" d="M347.24,16.65a3.32,3.32,0,0,0,3.3,3.3A3.34,3.34,0,0,0,347.24,16.65Z"/><path class="cls-2" d="M347.24,21a3.32,3.32,0,0,0,3.3,3.29A3.33,3.33,0,0,0,347.24,21Z"/><path class="cls-3" d="M347.24,25.49a3.31,3.31,0,0,0,3.3,3.29A3.33,3.33,0,0,0,347.24,25.49Z"/><rect class="cls-4" x="493.15" width="31.86" height="31.86"/><rect class="cls-6" x="461.29" width="31.86" height="31.86"/><rect class="cls-6" x="393.76" width="35.68" height="31.86"/><path class="cls-3" d="M493.15,28.31a12.35,12.35,0,1,0,0-24.69Z"/><path class="cls-2" d="M493.15,3.62a12.35,12.35,0,1,0,0,24.69Z"/><path class="cls-3" d="M429.44,0a15.93,15.93,0,0,0,0,31.86Z"/><rect class="cls-4" x="429.44" width="31.86" height="31.86"/><path class="cls-5" d="M456.73,6.48a3.31,3.31,0,0,0-3.29-3.29A3.32,3.32,0,0,0,456.73,6.48Z"/><path class="cls-2" d="M456.73,11a3.31,3.31,0,0,0-3.29-3.29A3.32,3.32,0,0,0,456.73,11Z"/><path class="cls-3" d="M456.73,15.46a3.32,3.32,0,0,0-3.29-3.3A3.33,3.33,0,0,0,456.73,15.46Z"/><path class="cls-5" d="M456.73,20a3.32,3.32,0,0,0-3.29-3.3A3.33,3.33,0,0,0,456.73,20Z"/><path class="cls-2" d="M456.73,24.32A3.31,3.31,0,0,0,453.44,21,3.32,3.32,0,0,0,456.73,24.32Z"/><path class="cls-3" d="M456.73,28.78a3.31,3.31,0,0,0-3.29-3.29A3.32,3.32,0,0,0,456.73,28.78Z"/><path class="cls-5" d="M450.14,6.48a3.3,3.3,0,0,0-3.29-3.29A3.33,3.33,0,0,0,450.14,6.48Z"/><path class="cls-2" d="M450.14,11a3.3,3.3,0,0,0-3.29-3.29A3.33,3.33,0,0,0,450.14,11Z"/><path class="cls-3" d="M450.14,15.46a3.32,3.32,0,0,0-3.29-3.3A3.33,3.33,0,0,0,450.14,15.46Z"/><path class="cls-5" d="M450.14,20a3.32,3.32,0,0,0-3.29-3.3A3.33,3.33,0,0,0,450.14,20Z"/><path class="cls-2" d="M450.14,24.32A3.3,3.3,0,0,0,446.85,21,3.33,3.33,0,0,0,450.14,24.32Z"/><path class="cls-3" d="M450.14,28.78a3.3,3.3,0,0,0-3.29-3.29A3.33,3.33,0,0,0,450.14,28.78Z"/><path class="cls-5" d="M443.56,6.48a3.3,3.3,0,0,0-3.29-3.29A3.32,3.32,0,0,0,443.56,6.48Z"/><path class="cls-5" d="M437,6.48a3.31,3.31,0,0,0-3.3-3.29A3.33,3.33,0,0,0,437,6.48Z"/><path class="cls-2" d="M443.56,11a3.3,3.3,0,0,0-3.29-3.29A3.32,3.32,0,0,0,443.56,11Z"/><path class="cls-2" d="M437,11a3.31,3.31,0,0,0-3.3-3.29A3.33,3.33,0,0,0,437,11Z"/><path class="cls-3" d="M443.56,15.46a3.32,3.32,0,0,0-3.29-3.3A3.33,3.33,0,0,0,443.56,15.46Z"/><path class="cls-3" d="M437,15.46a3.33,3.33,0,0,0-3.3-3.3A3.34,3.34,0,0,0,437,15.46Z"/><path class="cls-5" d="M443.56,20a3.32,3.32,0,0,0-3.29-3.3A3.33,3.33,0,0,0,443.56,20Z"/><path class="cls-2" d="M443.56,24.32A3.3,3.3,0,0,0,440.27,21,3.32,3.32,0,0,0,443.56,24.32Z"/><path class="cls-3" d="M443.56,28.78a3.3,3.3,0,0,0-3.29-3.29A3.32,3.32,0,0,0,443.56,28.78Z"/><path class="cls-5" d="M437,20a3.33,3.33,0,0,0-3.3-3.3A3.34,3.34,0,0,0,437,20Z"/><path class="cls-2" d="M437,24.32a3.31,3.31,0,0,0-3.3-3.29A3.33,3.33,0,0,0,437,24.32Z"/><path class="cls-3" d="M437,28.78a3.31,3.31,0,0,0-3.3-3.29A3.33,3.33,0,0,0,437,28.78Z"/><path class="cls-6" d="M460,3.19a3.3,3.3,0,0,1-3.29,3.29A3.32,3.32,0,0,1,460,3.19Z"/><path class="cls-6" d="M460,7.68A3.31,3.31,0,0,1,456.73,11,3.32,3.32,0,0,1,460,7.68Z"/><path class="cls-6" d="M460,12.17a3.31,3.31,0,0,1-3.29,3.29A3.32,3.32,0,0,1,460,12.17Z"/><path class="cls-6" d="M460,16.65a3.31,3.31,0,0,1-3.29,3.3A3.33,3.33,0,0,1,460,16.65Z"/><path class="cls-6" d="M460,21a3.31,3.31,0,0,1-3.29,3.29A3.32,3.32,0,0,1,460,21Z"/><path class="cls-6" d="M460,25.49a3.3,3.3,0,0,1-3.29,3.29A3.32,3.32,0,0,1,460,25.49Z"/><path class="cls-5" d="M453.43,3.19a3.3,3.3,0,0,1-3.29,3.29A3.33,3.33,0,0,1,453.43,3.19Z"/><path class="cls-2" d="M453.43,7.68A3.3,3.3,0,0,1,450.14,11,3.33,3.33,0,0,1,453.43,7.68Z"/><path class="cls-3" d="M453.43,12.17a3.3,3.3,0,0,1-3.29,3.29A3.33,3.33,0,0,1,453.43,12.17Z"/><path class="cls-5" d="M453.43,16.65a3.3,3.3,0,0,1-3.29,3.3A3.33,3.33,0,0,1,453.43,16.65Z"/><path class="cls-2" d="M453.43,21a3.3,3.3,0,0,1-3.29,3.29A3.33,3.33,0,0,1,453.43,21Z"/><path class="cls-3" d="M453.43,25.49a3.3,3.3,0,0,1-3.29,3.29A3.33,3.33,0,0,1,453.43,25.49Z"/><path class="cls-5" d="M446.85,3.19a3.3,3.3,0,0,1-3.29,3.29A3.32,3.32,0,0,1,446.85,3.19Z"/><path class="cls-5" d="M440.27,3.19A3.31,3.31,0,0,1,437,6.48,3.32,3.32,0,0,1,440.27,3.19Z"/><path class="cls-2" d="M446.85,7.68A3.31,3.31,0,0,1,443.56,11,3.32,3.32,0,0,1,446.85,7.68Z"/><path class="cls-2" d="M440.27,7.68A3.32,3.32,0,0,1,437,11,3.32,3.32,0,0,1,440.27,7.68Z"/><path class="cls-3" d="M446.85,12.17a3.31,3.31,0,0,1-3.29,3.29A3.32,3.32,0,0,1,446.85,12.17Z"/><path class="cls-3" d="M440.27,12.17A3.32,3.32,0,0,1,437,15.46,3.32,3.32,0,0,1,440.27,12.17Z"/><path class="cls-5" d="M446.85,16.65a3.31,3.31,0,0,1-3.29,3.3A3.33,3.33,0,0,1,446.85,16.65Z"/><path class="cls-2" d="M446.85,21a3.31,3.31,0,0,1-3.29,3.29A3.32,3.32,0,0,1,446.85,21Z"/><path class="cls-3" d="M446.85,25.49a3.3,3.3,0,0,1-3.29,3.29A3.32,3.32,0,0,1,446.85,25.49Z"/><path class="cls-5" d="M440.27,16.65A3.32,3.32,0,0,1,437,20,3.33,3.33,0,0,1,440.27,16.65Z"/><path class="cls-2" d="M440.27,21A3.32,3.32,0,0,1,437,24.32,3.32,3.32,0,0,1,440.27,21Z"/><path class="cls-3" d="M440.27,25.49A3.31,3.31,0,0,1,437,28.78,3.32,3.32,0,0,1,440.27,25.49Z"/><path class="cls-3" d="M393.44,31.86V0L375.92,31.86Z"/><path class="cls-3" d="M393.44,31.86V63.71L411,31.86Z"/><path class="cls-4" d="M393.44,31.86H375.92l17.52,31.85Z"/><path class="cls-4" d="M393.44,31.86H411L393.44,0Z"/><path class="cls-5" d="M393.44,31.86c.14-3.31,2.26-10,10.19-10.2C403.4,25.06,401.15,31.86,393.44,31.86Z"/><path class="cls-5" d="M383.24,21.67c.14,3.3,2.26,10,10.2,10.19C393.21,28.46,391,21.67,383.24,21.67Z"/><path class="cls-5" d="M393.44,31.86c-.14,3.3-2.26,10-10.2,10.19C383.47,38.65,385.72,31.86,393.44,31.86Z"/><path class="cls-5" d="M403.63,42.05c-.13-3.3-2.26-10-10.19-10.19C393.67,35.26,395.92,42.05,403.63,42.05Z"/><rect class="cls-4" x="525.01" width="31.86" height="31.86"/><rect class="cls-7" x="556.86" width="31.86" height="31.86"/><rect class="cls-7" x="620.58" width="35.68" height="31.86"/><path class="cls-3" d="M556.86,28.31a12.35,12.35,0,0,1,0-24.69Z"/><path class="cls-2" d="M556.86,3.62a12.35,12.35,0,1,1,0,24.69Z"/><path class="cls-3" d="M620.58,0a15.93,15.93,0,0,1,0,31.86Z"/><rect class="cls-4" x="588.72" width="31.86" height="31.86"/><path class="cls-5" d="M593.29,6.48a3.3,3.3,0,0,1,3.29-3.29A3.33,3.33,0,0,1,593.29,6.48Z"/><path class="cls-2" d="M593.29,11a3.3,3.3,0,0,1,3.29-3.29A3.33,3.33,0,0,1,593.29,11Z"/><path class="cls-3" d="M593.29,15.46a3.32,3.32,0,0,1,3.29-3.3A3.33,3.33,0,0,1,593.29,15.46Z"/><path class="cls-5" d="M593.29,20a3.32,3.32,0,0,1,3.29-3.3A3.33,3.33,0,0,1,593.29,20Z"/><path class="cls-2" d="M593.29,24.32A3.3,3.3,0,0,1,596.58,21,3.33,3.33,0,0,1,593.29,24.32Z"/><path class="cls-3" d="M593.29,28.78a3.3,3.3,0,0,1,3.29-3.29A3.33,3.33,0,0,1,593.29,28.78Z"/><path class="cls-5" d="M599.87,6.48a3.3,3.3,0,0,1,3.29-3.29A3.32,3.32,0,0,1,599.87,6.48Z"/><path class="cls-2" d="M599.87,11a3.3,3.3,0,0,1,3.29-3.29A3.32,3.32,0,0,1,599.87,11Z"/><path class="cls-3" d="M599.87,15.46a3.32,3.32,0,0,1,3.29-3.3A3.33,3.33,0,0,1,599.87,15.46Z"/><path class="cls-5" d="M599.87,20a3.32,3.32,0,0,1,3.29-3.3A3.33,3.33,0,0,1,599.87,20Z"/><path class="cls-2" d="M599.87,24.32A3.3,3.3,0,0,1,603.16,21,3.32,3.32,0,0,1,599.87,24.32Z"/><path class="cls-3" d="M599.87,28.78a3.3,3.3,0,0,1,3.29-3.29A3.32,3.32,0,0,1,599.87,28.78Z"/><path class="cls-5" d="M606.45,6.48a3.31,3.31,0,0,1,3.3-3.29A3.34,3.34,0,0,1,606.45,6.48Z"/><path class="cls-5" d="M613,6.48a3.3,3.3,0,0,1,3.29-3.29A3.33,3.33,0,0,1,613,6.48Z"/><path class="cls-2" d="M606.45,11a3.31,3.31,0,0,1,3.3-3.29A3.34,3.34,0,0,1,606.45,11Z"/><path class="cls-2" d="M613,11a3.3,3.3,0,0,1,3.29-3.29A3.33,3.33,0,0,1,613,11Z"/><path class="cls-3" d="M606.45,15.46a3.33,3.33,0,0,1,3.3-3.3A3.34,3.34,0,0,1,606.45,15.46Z"/><path class="cls-3" d="M613,15.46a3.32,3.32,0,0,1,3.29-3.3A3.33,3.33,0,0,1,613,15.46Z"/><path class="cls-5" d="M606.45,20a3.33,3.33,0,0,1,3.3-3.3A3.34,3.34,0,0,1,606.45,20Z"/><path class="cls-2" d="M606.45,24.32a3.31,3.31,0,0,1,3.3-3.29A3.34,3.34,0,0,1,606.45,24.32Z"/><path class="cls-3" d="M606.45,28.78a3.31,3.31,0,0,1,3.3-3.29A3.34,3.34,0,0,1,606.45,28.78Z"/><path class="cls-5" d="M613,20a3.32,3.32,0,0,1,3.29-3.3A3.33,3.33,0,0,1,613,20Z"/><path class="cls-2" d="M613,24.32A3.3,3.3,0,0,1,616.33,21,3.33,3.33,0,0,1,613,24.32Z"/><path class="cls-3" d="M613,28.78a3.3,3.3,0,0,1,3.29-3.29A3.33,3.33,0,0,1,613,28.78Z"/><path class="cls-7" d="M590,3.19a3.31,3.31,0,0,0,3.3,3.29A3.34,3.34,0,0,0,590,3.19Z"/><path class="cls-7" d="M590,7.68a3.32,3.32,0,0,0,3.3,3.29A3.34,3.34,0,0,0,590,7.68Z"/><path class="cls-7" d="M590,12.17a3.32,3.32,0,0,0,3.3,3.29A3.34,3.34,0,0,0,590,12.17Z"/><path class="cls-7" d="M590,16.65a3.32,3.32,0,0,0,3.3,3.3A3.34,3.34,0,0,0,590,16.65Z"/><path class="cls-7" d="M590,21a3.32,3.32,0,0,0,3.3,3.29A3.34,3.34,0,0,0,590,21Z"/><path class="cls-7" d="M590,25.49a3.31,3.31,0,0,0,3.3,3.29A3.34,3.34,0,0,0,590,25.49Z"/><path class="cls-5" d="M596.58,3.19a3.3,3.3,0,0,0,3.29,3.29A3.33,3.33,0,0,0,596.58,3.19Z"/><path class="cls-2" d="M596.58,7.68A3.31,3.31,0,0,0,599.87,11,3.33,3.33,0,0,0,596.58,7.68Z"/><path class="cls-3" d="M596.58,12.17a3.31,3.31,0,0,0,3.29,3.29A3.33,3.33,0,0,0,596.58,12.17Z"/><path class="cls-5" d="M596.58,16.65a3.31,3.31,0,0,0,3.29,3.3A3.33,3.33,0,0,0,596.58,16.65Z"/><path class="cls-2" d="M596.58,21a3.31,3.31,0,0,0,3.29,3.29A3.33,3.33,0,0,0,596.58,21Z"/><path class="cls-3" d="M596.58,25.49a3.3,3.3,0,0,0,3.29,3.29A3.33,3.33,0,0,0,596.58,25.49Z"/><path class="cls-5" d="M603.16,3.19a3.31,3.31,0,0,0,3.29,3.29A3.32,3.32,0,0,0,603.16,3.19Z"/><path class="cls-5" d="M609.74,3.19A3.31,3.31,0,0,0,613,6.48,3.33,3.33,0,0,0,609.74,3.19Z"/><path class="cls-2" d="M603.16,7.68A3.32,3.32,0,0,0,606.45,11,3.32,3.32,0,0,0,603.16,7.68Z"/><path class="cls-2" d="M609.74,7.68A3.32,3.32,0,0,0,613,11,3.33,3.33,0,0,0,609.74,7.68Z"/><path class="cls-3" d="M603.16,12.17a3.32,3.32,0,0,0,3.29,3.29A3.32,3.32,0,0,0,603.16,12.17Z"/><path class="cls-3" d="M609.74,12.17a3.32,3.32,0,0,0,3.3,3.29A3.33,3.33,0,0,0,609.74,12.17Z"/><path class="cls-5" d="M603.16,16.65a3.32,3.32,0,0,0,3.29,3.3A3.33,3.33,0,0,0,603.16,16.65Z"/><path class="cls-2" d="M603.16,21a3.32,3.32,0,0,0,3.29,3.29A3.32,3.32,0,0,0,603.16,21Z"/><path class="cls-3" d="M603.16,25.49a3.31,3.31,0,0,0,3.29,3.29A3.32,3.32,0,0,0,603.16,25.49Z"/><path class="cls-5" d="M609.74,16.65A3.32,3.32,0,0,0,613,20,3.34,3.34,0,0,0,609.74,16.65Z"/><path class="cls-2" d="M609.74,21a3.32,3.32,0,0,0,3.3,3.29A3.33,3.33,0,0,0,609.74,21Z"/><path class="cls-3" d="M609.74,25.49a3.31,3.31,0,0,0,3.3,3.29A3.33,3.33,0,0,0,609.74,25.49Z"/><rect class="cls-4" x="755.65" width="31.86" height="31.86"/><rect class="cls-7" x="723.79" width="31.86" height="31.86"/><rect class="cls-7" x="656.26" width="35.68" height="31.86"/><path class="cls-3" d="M755.65,28.31a12.35,12.35,0,1,0,0-24.69Z"/><path class="cls-2" d="M755.65,3.62a12.35,12.35,0,1,0,0,24.69Z"/><path class="cls-3" d="M691.94,0a15.93,15.93,0,0,0,0,31.86Z"/><rect class="cls-4" x="691.94" width="31.86" height="31.86"/><path class="cls-5" d="M719.23,6.48a3.31,3.31,0,0,0-3.29-3.29A3.32,3.32,0,0,0,719.23,6.48Z"/><path class="cls-2" d="M719.23,11a3.31,3.31,0,0,0-3.29-3.29A3.32,3.32,0,0,0,719.23,11Z"/><path class="cls-3" d="M719.23,15.46a3.32,3.32,0,0,0-3.29-3.3A3.33,3.33,0,0,0,719.23,15.46Z"/><path class="cls-5" d="M719.23,20a3.32,3.32,0,0,0-3.29-3.3A3.33,3.33,0,0,0,719.23,20Z"/><path class="cls-2" d="M719.23,24.32A3.31,3.31,0,0,0,715.94,21,3.32,3.32,0,0,0,719.23,24.32Z"/><path class="cls-3" d="M719.23,28.78a3.31,3.31,0,0,0-3.29-3.29A3.32,3.32,0,0,0,719.23,28.78Z"/><path class="cls-5" d="M712.64,6.48a3.3,3.3,0,0,0-3.29-3.29A3.33,3.33,0,0,0,712.64,6.48Z"/><path class="cls-2" d="M712.64,11a3.3,3.3,0,0,0-3.29-3.29A3.33,3.33,0,0,0,712.64,11Z"/><path class="cls-3" d="M712.64,15.46a3.32,3.32,0,0,0-3.29-3.3A3.33,3.33,0,0,0,712.64,15.46Z"/><path class="cls-5" d="M712.64,20a3.32,3.32,0,0,0-3.29-3.3A3.33,3.33,0,0,0,712.64,20Z"/><path class="cls-2" d="M712.64,24.32A3.3,3.3,0,0,0,709.35,21,3.33,3.33,0,0,0,712.64,24.32Z"/><path class="cls-3" d="M712.64,28.78a3.3,3.3,0,0,0-3.29-3.29A3.33,3.33,0,0,0,712.64,28.78Z"/><path class="cls-5" d="M706.06,6.48a3.3,3.3,0,0,0-3.29-3.29A3.32,3.32,0,0,0,706.06,6.48Z"/><path class="cls-5" d="M699.48,6.48a3.31,3.31,0,0,0-3.3-3.29A3.34,3.34,0,0,0,699.48,6.48Z"/><path class="cls-2" d="M706.06,11a3.3,3.3,0,0,0-3.29-3.29A3.32,3.32,0,0,0,706.06,11Z"/><path class="cls-2" d="M699.48,11a3.31,3.31,0,0,0-3.3-3.29A3.34,3.34,0,0,0,699.48,11Z"/><path class="cls-3" d="M706.06,15.46a3.32,3.32,0,0,0-3.29-3.3A3.33,3.33,0,0,0,706.06,15.46Z"/><path class="cls-3" d="M699.48,15.46a3.33,3.33,0,0,0-3.3-3.3A3.34,3.34,0,0,0,699.48,15.46Z"/><path class="cls-5" d="M706.06,20a3.32,3.32,0,0,0-3.29-3.3A3.33,3.33,0,0,0,706.06,20Z"/><path class="cls-2" d="M706.06,24.32A3.3,3.3,0,0,0,702.77,21,3.32,3.32,0,0,0,706.06,24.32Z"/><path class="cls-3" d="M706.06,28.78a3.3,3.3,0,0,0-3.29-3.29A3.32,3.32,0,0,0,706.06,28.78Z"/><path class="cls-5" d="M699.48,20a3.33,3.33,0,0,0-3.3-3.3A3.34,3.34,0,0,0,699.48,20Z"/><path class="cls-2" d="M699.48,24.32a3.31,3.31,0,0,0-3.3-3.29A3.34,3.34,0,0,0,699.48,24.32Z"/><path class="cls-3" d="M699.48,28.78a3.31,3.31,0,0,0-3.3-3.29A3.34,3.34,0,0,0,699.48,28.78Z"/><path class="cls-7" d="M722.52,3.19a3.3,3.3,0,0,1-3.29,3.29A3.32,3.32,0,0,1,722.52,3.19Z"/><path class="cls-7" d="M722.52,7.68A3.31,3.31,0,0,1,719.23,11,3.32,3.32,0,0,1,722.52,7.68Z"/><path class="cls-7" d="M722.52,12.17a3.31,3.31,0,0,1-3.29,3.29A3.32,3.32,0,0,1,722.52,12.17Z"/><path class="cls-7" d="M722.52,16.65a3.31,3.31,0,0,1-3.29,3.3A3.33,3.33,0,0,1,722.52,16.65Z"/><path class="cls-7" d="M722.52,21a3.31,3.31,0,0,1-3.29,3.29A3.32,3.32,0,0,1,722.52,21Z"/><path class="cls-7" d="M722.52,25.49a3.3,3.3,0,0,1-3.29,3.29A3.32,3.32,0,0,1,722.52,25.49Z"/><path class="cls-5" d="M715.93,3.19a3.3,3.3,0,0,1-3.29,3.29A3.33,3.33,0,0,1,715.93,3.19Z"/><path class="cls-2" d="M715.93,7.68A3.3,3.3,0,0,1,712.64,11,3.33,3.33,0,0,1,715.93,7.68Z"/><path class="cls-3" d="M715.93,12.17a3.3,3.3,0,0,1-3.29,3.29A3.33,3.33,0,0,1,715.93,12.17Z"/><path class="cls-5" d="M715.93,16.65a3.3,3.3,0,0,1-3.29,3.3A3.33,3.33,0,0,1,715.93,16.65Z"/><path class="cls-2" d="M715.93,21a3.3,3.3,0,0,1-3.29,3.29A3.33,3.33,0,0,1,715.93,21Z"/><path class="cls-3" d="M715.93,25.49a3.3,3.3,0,0,1-3.29,3.29A3.33,3.33,0,0,1,715.93,25.49Z"/><path class="cls-5" d="M709.35,3.19a3.3,3.3,0,0,1-3.29,3.29A3.32,3.32,0,0,1,709.35,3.19Z"/><path class="cls-5" d="M702.77,3.19a3.31,3.31,0,0,1-3.29,3.29A3.32,3.32,0,0,1,702.77,3.19Z"/><path class="cls-2" d="M709.35,7.68A3.31,3.31,0,0,1,706.06,11,3.32,3.32,0,0,1,709.35,7.68Z"/><path class="cls-2" d="M702.77,7.68A3.32,3.32,0,0,1,699.48,11,3.32,3.32,0,0,1,702.77,7.68Z"/><path class="cls-3" d="M709.35,12.17a3.31,3.31,0,0,1-3.29,3.29A3.32,3.32,0,0,1,709.35,12.17Z"/><path class="cls-3" d="M702.77,12.17a3.32,3.32,0,0,1-3.29,3.29A3.32,3.32,0,0,1,702.77,12.17Z"/><path class="cls-5" d="M709.35,16.65a3.31,3.31,0,0,1-3.29,3.3A3.33,3.33,0,0,1,709.35,16.65Z"/><path class="cls-2" d="M709.35,21a3.31,3.31,0,0,1-3.29,3.29A3.32,3.32,0,0,1,709.35,21Z"/><path class="cls-3" d="M709.35,25.49a3.3,3.3,0,0,1-3.29,3.29A3.32,3.32,0,0,1,709.35,25.49Z"/><path class="cls-5" d="M702.77,16.65a3.32,3.32,0,0,1-3.29,3.3A3.33,3.33,0,0,1,702.77,16.65Z"/><path class="cls-2" d="M702.77,21a3.32,3.32,0,0,1-3.29,3.29A3.32,3.32,0,0,1,702.77,21Z"/><path class="cls-3" d="M702.77,25.49a3.31,3.31,0,0,1-3.29,3.29A3.32,3.32,0,0,1,702.77,25.49Z"/><path class="cls-3" d="M655.94,31.86V0L638.42,31.86Z"/><path class="cls-3" d="M655.94,31.86V63.71l17.52-31.85Z"/><path class="cls-4" d="M655.94,31.86H638.42l17.52,31.85Z"/><path class="cls-4" d="M655.94,31.86h17.52L655.94,0Z"/><path class="cls-5" d="M655.94,31.86c.14-3.31,2.26-10,10.19-10.2C665.9,25.06,663.65,31.86,655.94,31.86Z"/><path class="cls-5" d="M645.74,21.67c.14,3.3,2.26,10,10.2,10.19C655.71,28.46,653.46,21.67,645.74,21.67Z"/><path class="cls-5" d="M655.94,31.86c-.14,3.3-2.26,10-10.2,10.19C646,38.65,648.22,31.86,655.94,31.86Z"/><path class="cls-5" d="M666.13,42.05c-.13-3.3-2.26-10-10.19-10.19C656.17,35.26,658.42,42.05,666.13,42.05Z"/><rect class="cls-4" x="787.51" width="31.86" height="31.86"/><rect class="cls-8" x="819.36" width="31.86" height="31.86"/><rect class="cls-8" x="883.08" width="35.68" height="31.86"/><path class="cls-3" d="M819.36,28.31a12.35,12.35,0,0,1,0-24.69Z"/><path class="cls-2" d="M819.36,3.62a12.35,12.35,0,1,1,0,24.69Z"/><path class="cls-3" d="M883.08,0a15.93,15.93,0,0,1,0,31.86Z"/><rect class="cls-4" x="851.22" width="31.86" height="31.86"/><path class="cls-5" d="M855.79,6.48a3.3,3.3,0,0,1,3.29-3.29A3.33,3.33,0,0,1,855.79,6.48Z"/><path class="cls-2" d="M855.79,11a3.3,3.3,0,0,1,3.29-3.29A3.33,3.33,0,0,1,855.79,11Z"/><path class="cls-3" d="M855.79,15.46a3.32,3.32,0,0,1,3.29-3.3A3.33,3.33,0,0,1,855.79,15.46Z"/><path class="cls-5" d="M855.79,20a3.32,3.32,0,0,1,3.29-3.3A3.33,3.33,0,0,1,855.79,20Z"/><path class="cls-2" d="M855.79,24.32A3.3,3.3,0,0,1,859.08,21,3.33,3.33,0,0,1,855.79,24.32Z"/><path class="cls-3" d="M855.79,28.78a3.3,3.3,0,0,1,3.29-3.29A3.33,3.33,0,0,1,855.79,28.78Z"/><path class="cls-5" d="M862.37,6.48a3.3,3.3,0,0,1,3.29-3.29A3.32,3.32,0,0,1,862.37,6.48Z"/><path class="cls-2" d="M862.37,11a3.3,3.3,0,0,1,3.29-3.29A3.32,3.32,0,0,1,862.37,11Z"/><path class="cls-3" d="M862.37,15.46a3.32,3.32,0,0,1,3.29-3.3A3.33,3.33,0,0,1,862.37,15.46Z"/><path class="cls-5" d="M862.37,20a3.32,3.32,0,0,1,3.29-3.3A3.33,3.33,0,0,1,862.37,20Z"/><path class="cls-2" d="M862.37,24.32A3.3,3.3,0,0,1,865.66,21,3.32,3.32,0,0,1,862.37,24.32Z"/><path class="cls-3" d="M862.37,28.78a3.3,3.3,0,0,1,3.29-3.29A3.32,3.32,0,0,1,862.37,28.78Z"/><path class="cls-5" d="M869,6.48a3.31,3.31,0,0,1,3.3-3.29A3.34,3.34,0,0,1,869,6.48Z"/><path class="cls-5" d="M875.54,6.48a3.3,3.3,0,0,1,3.29-3.29A3.33,3.33,0,0,1,875.54,6.48Z"/><path class="cls-2" d="M869,11a3.31,3.31,0,0,1,3.3-3.29A3.34,3.34,0,0,1,869,11Z"/><path class="cls-2" d="M875.54,11a3.3,3.3,0,0,1,3.29-3.29A3.33,3.33,0,0,1,875.54,11Z"/><path class="cls-3" d="M869,15.46a3.33,3.33,0,0,1,3.3-3.3A3.34,3.34,0,0,1,869,15.46Z"/><path class="cls-3" d="M875.54,15.46a3.32,3.32,0,0,1,3.29-3.3A3.33,3.33,0,0,1,875.54,15.46Z"/><path class="cls-5" d="M869,20a3.33,3.33,0,0,1,3.3-3.3A3.34,3.34,0,0,1,869,20Z"/><path class="cls-2" d="M869,24.32a3.31,3.31,0,0,1,3.3-3.29A3.34,3.34,0,0,1,869,24.32Z"/><path class="cls-3" d="M869,28.78a3.31,3.31,0,0,1,3.3-3.29A3.34,3.34,0,0,1,869,28.78Z"/><path class="cls-5" d="M875.54,20a3.32,3.32,0,0,1,3.29-3.3A3.33,3.33,0,0,1,875.54,20Z"/><path class="cls-2" d="M875.54,24.32A3.3,3.3,0,0,1,878.83,21,3.33,3.33,0,0,1,875.54,24.32Z"/><path class="cls-3" d="M875.54,28.78a3.3,3.3,0,0,1,3.29-3.29A3.33,3.33,0,0,1,875.54,28.78Z"/><path class="cls-8" d="M852.49,3.19a3.31,3.31,0,0,0,3.3,3.29A3.34,3.34,0,0,0,852.49,3.19Z"/><path class="cls-8" d="M852.49,7.68a3.32,3.32,0,0,0,3.3,3.29A3.34,3.34,0,0,0,852.49,7.68Z"/><path class="cls-8" d="M852.49,12.17a3.32,3.32,0,0,0,3.3,3.29A3.34,3.34,0,0,0,852.49,12.17Z"/><path class="cls-8" d="M852.49,16.65a3.32,3.32,0,0,0,3.3,3.3A3.34,3.34,0,0,0,852.49,16.65Z"/><path class="cls-8" d="M852.49,21a3.32,3.32,0,0,0,3.3,3.29A3.34,3.34,0,0,0,852.49,21Z"/><path class="cls-8" d="M852.49,25.49a3.31,3.31,0,0,0,3.3,3.29A3.34,3.34,0,0,0,852.49,25.49Z"/><path class="cls-5" d="M859.08,3.19a3.3,3.3,0,0,0,3.29,3.29A3.32,3.32,0,0,0,859.08,3.19Z"/><path class="cls-2" d="M859.08,7.68A3.31,3.31,0,0,0,862.37,11,3.32,3.32,0,0,0,859.08,7.68Z"/><path class="cls-3" d="M859.08,12.17a3.31,3.31,0,0,0,3.29,3.29A3.32,3.32,0,0,0,859.08,12.17Z"/><path class="cls-5" d="M859.08,16.65a3.31,3.31,0,0,0,3.29,3.3A3.33,3.33,0,0,0,859.08,16.65Z"/><path class="cls-2" d="M859.08,21a3.31,3.31,0,0,0,3.29,3.29A3.32,3.32,0,0,0,859.08,21Z"/><path class="cls-3" d="M859.08,25.49a3.3,3.3,0,0,0,3.29,3.29A3.32,3.32,0,0,0,859.08,25.49Z"/><path class="cls-5" d="M865.66,3.19A3.31,3.31,0,0,0,869,6.48,3.32,3.32,0,0,0,865.66,3.19Z"/><path class="cls-5" d="M872.24,3.19a3.31,3.31,0,0,0,3.3,3.29A3.33,3.33,0,0,0,872.24,3.19Z"/><path class="cls-2" d="M865.66,7.68A3.32,3.32,0,0,0,869,11,3.32,3.32,0,0,0,865.66,7.68Z"/><path class="cls-2" d="M872.24,7.68a3.32,3.32,0,0,0,3.3,3.29A3.33,3.33,0,0,0,872.24,7.68Z"/><path class="cls-3" d="M865.66,12.17A3.32,3.32,0,0,0,869,15.46,3.32,3.32,0,0,0,865.66,12.17Z"/><path class="cls-3" d="M872.24,12.17a3.32,3.32,0,0,0,3.3,3.29A3.33,3.33,0,0,0,872.24,12.17Z"/><path class="cls-5" d="M865.66,16.65A3.32,3.32,0,0,0,869,20,3.33,3.33,0,0,0,865.66,16.65Z"/><path class="cls-2" d="M865.66,21A3.32,3.32,0,0,0,869,24.32,3.32,3.32,0,0,0,865.66,21Z"/><path class="cls-3" d="M865.66,25.49A3.31,3.31,0,0,0,869,28.78,3.32,3.32,0,0,0,865.66,25.49Z"/><path class="cls-5" d="M872.24,16.65a3.32,3.32,0,0,0,3.3,3.3A3.34,3.34,0,0,0,872.24,16.65Z"/><path class="cls-2" d="M872.24,21a3.32,3.32,0,0,0,3.3,3.29A3.33,3.33,0,0,0,872.24,21Z"/><path class="cls-3" d="M872.24,25.49a3.31,3.31,0,0,0,3.3,3.29A3.33,3.33,0,0,0,872.24,25.49Z"/><polyline class="cls-8" points="1018.15 0 986.29 0 986.29 31.86 1018.15 31.86"/><rect class="cls-8" x="918.76" width="35.68" height="31.86"/><path class="cls-2" d="M1018.15,3.62a12.35,12.35,0,0,0,0,24.69"/><path class="cls-3" d="M954.44,0a15.93,15.93,0,0,0,0,31.86Z"/><rect class="cls-4" x="954.44" width="31.86" height="31.86"/><path class="cls-5" d="M981.73,6.48a3.31,3.31,0,0,0-3.29-3.29A3.32,3.32,0,0,0,981.73,6.48Z"/><path class="cls-2" d="M981.73,11a3.31,3.31,0,0,0-3.29-3.29A3.32,3.32,0,0,0,981.73,11Z"/><path class="cls-3" d="M981.73,15.46a3.32,3.32,0,0,0-3.29-3.3A3.33,3.33,0,0,0,981.73,15.46Z"/><path class="cls-5" d="M981.73,20a3.32,3.32,0,0,0-3.29-3.3A3.33,3.33,0,0,0,981.73,20Z"/><path class="cls-2" d="M981.73,24.32A3.31,3.31,0,0,0,978.44,21,3.32,3.32,0,0,0,981.73,24.32Z"/><path class="cls-3" d="M981.73,28.78a3.31,3.31,0,0,0-3.29-3.29A3.32,3.32,0,0,0,981.73,28.78Z"/><path class="cls-5" d="M975.14,6.48a3.3,3.3,0,0,0-3.29-3.29A3.33,3.33,0,0,0,975.14,6.48Z"/><path class="cls-2" d="M975.14,11a3.3,3.3,0,0,0-3.29-3.29A3.33,3.33,0,0,0,975.14,11Z"/><path class="cls-3" d="M975.14,15.46a3.32,3.32,0,0,0-3.29-3.3A3.33,3.33,0,0,0,975.14,15.46Z"/><path class="cls-5" d="M975.14,20a3.32,3.32,0,0,0-3.29-3.3A3.33,3.33,0,0,0,975.14,20Z"/><path class="cls-2" d="M975.14,24.32A3.3,3.3,0,0,0,971.85,21,3.33,3.33,0,0,0,975.14,24.32Z"/><path class="cls-3" d="M975.14,28.78a3.3,3.3,0,0,0-3.29-3.29A3.33,3.33,0,0,0,975.14,28.78Z"/><path class="cls-5" d="M968.56,6.48a3.3,3.3,0,0,0-3.29-3.29A3.32,3.32,0,0,0,968.56,6.48Z"/><path class="cls-5" d="M962,6.48a3.31,3.31,0,0,0-3.3-3.29A3.34,3.34,0,0,0,962,6.48Z"/><path class="cls-2" d="M968.56,11a3.3,3.3,0,0,0-3.29-3.29A3.32,3.32,0,0,0,968.56,11Z"/><path class="cls-2" d="M962,11a3.31,3.31,0,0,0-3.3-3.29A3.34,3.34,0,0,0,962,11Z"/><path class="cls-3" d="M968.56,15.46a3.32,3.32,0,0,0-3.29-3.3A3.33,3.33,0,0,0,968.56,15.46Z"/><path class="cls-3" d="M962,15.46a3.33,3.33,0,0,0-3.3-3.3A3.34,3.34,0,0,0,962,15.46Z"/><path class="cls-5" d="M968.56,20a3.32,3.32,0,0,0-3.29-3.3A3.33,3.33,0,0,0,968.56,20Z"/><path class="cls-2" d="M968.56,24.32A3.3,3.3,0,0,0,965.27,21,3.32,3.32,0,0,0,968.56,24.32Z"/><path class="cls-3" d="M968.56,28.78a3.3,3.3,0,0,0-3.29-3.29A3.32,3.32,0,0,0,968.56,28.78Z"/><path class="cls-5" d="M962,20a3.33,3.33,0,0,0-3.3-3.3A3.34,3.34,0,0,0,962,20Z"/><path class="cls-2" d="M962,24.32a3.31,3.31,0,0,0-3.3-3.29A3.34,3.34,0,0,0,962,24.32Z"/><path class="cls-3" d="M962,28.78a3.31,3.31,0,0,0-3.3-3.29A3.34,3.34,0,0,0,962,28.78Z"/><path class="cls-8" d="M985,3.19a3.3,3.3,0,0,1-3.29,3.29A3.32,3.32,0,0,1,985,3.19Z"/><path class="cls-8" d="M985,7.68A3.31,3.31,0,0,1,981.73,11,3.32,3.32,0,0,1,985,7.68Z"/><path class="cls-8" d="M985,12.17a3.31,3.31,0,0,1-3.29,3.29A3.32,3.32,0,0,1,985,12.17Z"/><path class="cls-8" d="M985,16.65a3.31,3.31,0,0,1-3.29,3.3A3.33,3.33,0,0,1,985,16.65Z"/><path class="cls-8" d="M985,21a3.31,3.31,0,0,1-3.29,3.29A3.32,3.32,0,0,1,985,21Z"/><path class="cls-8" d="M985,25.49a3.3,3.3,0,0,1-3.29,3.29A3.32,3.32,0,0,1,985,25.49Z"/><path class="cls-5" d="M978.43,3.19a3.3,3.3,0,0,1-3.29,3.29A3.33,3.33,0,0,1,978.43,3.19Z"/><path class="cls-2" d="M978.43,7.68A3.3,3.3,0,0,1,975.14,11,3.33,3.33,0,0,1,978.43,7.68Z"/><path class="cls-3" d="M978.43,12.17a3.3,3.3,0,0,1-3.29,3.29A3.33,3.33,0,0,1,978.43,12.17Z"/><path class="cls-5" d="M978.43,16.65a3.3,3.3,0,0,1-3.29,3.3A3.33,3.33,0,0,1,978.43,16.65Z"/><path class="cls-2" d="M978.43,21a3.3,3.3,0,0,1-3.29,3.29A3.33,3.33,0,0,1,978.43,21Z"/><path class="cls-3" d="M978.43,25.49a3.3,3.3,0,0,1-3.29,3.29A3.33,3.33,0,0,1,978.43,25.49Z"/><path class="cls-5" d="M971.85,3.19a3.3,3.3,0,0,1-3.29,3.29A3.32,3.32,0,0,1,971.85,3.19Z"/><path class="cls-5" d="M965.27,3.19A3.31,3.31,0,0,1,962,6.48,3.32,3.32,0,0,1,965.27,3.19Z"/><path class="cls-2" d="M971.85,7.68A3.31,3.31,0,0,1,968.56,11,3.32,3.32,0,0,1,971.85,7.68Z"/><path class="cls-2" d="M965.27,7.68A3.32,3.32,0,0,1,962,11,3.32,3.32,0,0,1,965.27,7.68Z"/><path class="cls-3" d="M971.85,12.17a3.31,3.31,0,0,1-3.29,3.29A3.32,3.32,0,0,1,971.85,12.17Z"/><path class="cls-3" d="M965.27,12.17A3.32,3.32,0,0,1,962,15.46,3.32,3.32,0,0,1,965.27,12.17Z"/><path class="cls-5" d="M971.85,16.65a3.31,3.31,0,0,1-3.29,3.3A3.33,3.33,0,0,1,971.85,16.65Z"/><path class="cls-2" d="M971.85,21a3.31,3.31,0,0,1-3.29,3.29A3.32,3.32,0,0,1,971.85,21Z"/><path class="cls-3" d="M971.85,25.49a3.3,3.3,0,0,1-3.29,3.29A3.32,3.32,0,0,1,971.85,25.49Z"/><path class="cls-5" d="M965.27,16.65A3.32,3.32,0,0,1,962,20,3.33,3.33,0,0,1,965.27,16.65Z"/><path class="cls-2" d="M965.27,21A3.32,3.32,0,0,1,962,24.32,3.32,3.32,0,0,1,965.27,21Z"/><path class="cls-3" d="M965.27,25.49A3.31,3.31,0,0,1,962,28.78,3.32,3.32,0,0,1,965.27,25.49Z"/><path class="cls-3" d="M918.44,31.86V0L900.92,31.86Z"/><path class="cls-3" d="M918.44,31.86V63.71L936,31.86Z"/><path class="cls-4" d="M918.44,31.86H900.92l17.52,31.85Z"/><path class="cls-4" d="M918.44,31.86H936L918.44,0Z"/><path class="cls-5" d="M918.44,31.86c.14-3.31,2.26-10,10.19-10.2C928.4,25.06,926.15,31.86,918.44,31.86Z"/><path class="cls-5" d="M908.24,21.67c.14,3.3,2.26,10,10.2,10.19C918.21,28.46,916,21.67,908.24,21.67Z"/><path class="cls-5" d="M918.44,31.86c-.14,3.3-2.26,10-10.2,10.19C908.47,38.65,910.72,31.86,918.44,31.86Z"/><path class="cls-5" d="M928.63,42.05c-.14-3.3-2.26-10-10.19-10.19C918.67,35.26,920.92,42.05,928.63,42.05Z"/><polyline class="cls-4" points="0 31.89 0 0.04 31.86 0.04 31.86 31.89"/><line class="cls-1" x1="31.86" y1="32.58" x2="31.86" y2="0.73"/><path class="cls-3" d="M31.86,29a12.35,12.35,0,0,1,0-24.7V29"/><path class="cls-2" d="M31.86,29V4.34"/><polyline class="cls-4" points="1050.01 31.89 1050.01 0.04 1018.15 0.04 1018.15 31.89"/><line class="cls-8" x1="1018.15" y1="31.89" x2="1018.15" y2="0.04"/><path class="cls-3" d="M1018.15,28.35a12.35,12.35,0,1,0,0-24.7Z"/><path class="cls-2" d="M1018.15,28.35V3.65"/></g></g></svg>