<?xml version="1.0" standalone="no"?>
<!DOCTYPE svg PUBLIC "-//W3C//DTD SVG 20010904//EN"
 "http://www.w3.org/TR/2001/REC-SVG-20010904/DTD/svg10.dtd">
<svg version="1.0" xmlns="http://www.w3.org/2000/svg"
 width="1000.000000pt" height="1000.000000pt" viewBox="0 0 1000.000000 1000.000000"
 preserveAspectRatio="xMidYMid meet">
<metadata>
Created by potrace 1.14, written by Peter Selinger 2001-2017
</metadata>
<g transform="translate(0.000000,1000.000000) scale(0.100000,-0.100000)"
fill="#000000" stroke="none">
<path d="M4775 9994 c-618 -38 -1105 -144 -1640 -357 -182 -72 -577 -264 -581
-282 -1 -5 77 -62 174 -127 891 -587 1583 -1549 1970 -2738 153 -470 264
-1000 295 -1415 l3 -40 6 35 c3 19 14 116 23 215 80 879 416 1840 900 2575
382 580 890 1079 1432 1407 62 37 113 71 113 74 0 10 -252 142 -390 205 -511
232 -1045 375 -1607 429 -153 15 -576 27 -698 19z"/>
<path d="M9236 7442 c-653 -1184 -1648 -1968 -2896 -2282 -348 -87 -603 -123
-1135 -157 l-110 -7 125 -7 c1017 -59 1928 -360 2661 -880 540 -383 1028 -928
1361 -1521 33 -60 64 -108 69 -108 4 0 40 59 79 130 327 596 524 1252 591
1970 17 172 17 666 0 835 -69 726 -253 1347 -577 1950 -113 211 -98 204 -168
77z"/>
<path d="M610 7390 c-327 -596 -524 -1252 -591 -1970 -17 -172 -17 -666 0
-835 51 -535 158 -988 343 -1450 65 -164 220 -484 293 -608 l47 -79 88 155
c260 457 550 831 912 1174 678 644 1535 1040 2535 1172 136 18 270 29 558 48
l110 7 -125 7 c-1017 59 -1928 360 -2661 880 -540 383 -1028 928 -1361 1522
-33 59 -64 107 -69 107 -4 0 -40 -59 -79 -130z"/>
<path d="M4998 4930 c-3 -19 -14 -116 -23 -215 -90 -988 -491 -2042 -1073
-2821 -349 -468 -799 -883 -1259 -1161 -62 -37 -113 -71 -113 -74 0 -10 252
-142 390 -205 524 -238 1062 -379 1660 -435 172 -17 666 -17 835 0 540 51 973
154 1450 344 182 72 577 264 581 282 1 6 -77 62 -174 127 -891 587 -1583 1549
-1970 2738 -153 470 -264 1000 -295 1415 l-3 40 -6 -35z"/>
</g>
</svg>
