<?xml version="1.0" standalone="no"?>
<!DOCTYPE svg PUBLIC "-//W3C//DTD SVG 20010904//EN"
 "http://www.w3.org/TR/2001/REC-SVG-20010904/DTD/svg10.dtd">
<svg version="1.0" xmlns="http://www.w3.org/2000/svg"
 width="1000.000000pt" height="1000.000000pt" viewBox="0 0 1000.000000 1000.000000"
 preserveAspectRatio="xMidYMid meet">
<metadata>
Created by potrace 1.14, written by Peter Selinger 2001-2017
</metadata>
<g transform="translate(0.000000,1000.000000) scale(0.100000,-0.100000)"
fill="#000000" stroke="none">
<path d="M4666 9989 c-405 -26 -852 -114 -1243 -244 -230 -77 -387 -142 -618
-255 -570 -279 -1100 -682 -1523 -1155 -212 -238 -317 -380 -601 -815 -66
-100 -256 -492 -328 -675 -392 -992 -459 -2072 -192 -3104 272 -1054 905
-2011 1778 -2688 139 -108 370 -266 501 -343 41 -25 81 -50 88 -57 28 -27 486
-245 642 -307 1189 -465 2515 -460 3698 15 70 28 217 95 327 149 570 279 1100
682 1523 1155 212 238 317 380 601 815 66 100 256 492 328 675 392 992 459
2072 192 3104 -272 1054 -905 2011 -1778 2688 -139 108 -370 266 -501 343 -41
25 -81 50 -88 57 -28 27 -486 245 -642 307 -686 268 -1423 382 -2164 335z
m-672 -3664 c163 -34 288 -131 361 -278 21 -42 35 -81 33 -88 -3 -10 -322
-109 -350 -109 -5 0 -8 6 -8 13 0 23 -58 95 -89 112 -17 8 -56 15 -90 15 -75
0 -121 -32 -121 -84 0 -57 36 -80 240 -151 176 -61 279 -116 352 -187 191
-186 159 -499 -67 -649 -119 -79 -337 -122 -508 -100 -212 26 -365 115 -454
263 -32 53 -73 181 -61 193 8 8 316 85 341 85 10 0 17 -7 17 -17 0 -10 14 -41
30 -70 42 -74 99 -105 200 -111 122 -7 190 29 190 100 0 52 -44 80 -227 147
-93 33 -201 77 -242 98 -94 46 -182 131 -219 210 -24 52 -27 69 -27 163 0 97
2 110 31 171 69 146 204 241 395 278 70 14 198 12 273 -4z m1516 5 c102 -17
210 -56 298 -111 45 -27 84 -54 87 -60 7 -10 -219 -277 -241 -286 -7 -2 -29 7
-51 21 -63 41 -144 59 -248 54 -79 -3 -101 -8 -158 -36 -129 -64 -199 -177
-200 -327 -1 -100 13 -147 63 -223 78 -116 195 -169 355 -159 129 8 125 5 125
98 l0 79 -150 0 -150 0 0 160 0 160 365 0 365 0 0 -323 0 -324 -37 -30 c-269
-213 -573 -266 -886 -153 -113 41 -195 95 -287 189 -88 89 -131 158 -173 278
-30 83 -32 97 -32 233 0 163 17 237 81 360 147 282 525 455 874 400z m-2450
-750 l0 -740 -219 0 -218 0 -8 729 c-4 401 -4 734 -1 740 5 7 79 11 227 11
l219 0 0 -740z m4059 322 c358 -907 413 -1047 418 -1055 2 -4 -103 -6 -233 -5
l-238 3 -46 120 -46 120 -218 0 -218 0 -17 -45 c-10 -25 -30 -80 -45 -122
l-28 -78 -229 0 c-126 0 -229 3 -229 8 0 4 6 19 14 33 7 14 29 68 49 120 19
52 136 357 260 679 124 322 230 597 236 613 l11 27 197 0 198 0 164 -418z
m-1899 -1609 c0 -4 -56 -113 -124 -242 -68 -130 -176 -341 -240 -468 l-116
-233 -90 0 -90 0 66 133 c36 72 145 286 241 475 l175 342 89 0 c49 0 89 -3 89
-7z m-3408 -58 c70 -25 142 -94 167 -161 55 -146 -2 -283 -173 -417 l-79 -62
157 -3 156 -3 0 -99 0 -100 -344 0 -343 0 -7 73 -6 72 82 76 c46 41 130 118
188 170 100 91 150 157 150 201 0 32 -42 69 -85 74 -53 6 -87 -13 -101 -56
l-12 -35 -117 -3 -118 -3 6 51 c11 89 64 166 147 210 76 41 237 48 332 15z
m860 -7 c213 -98 301 -394 188 -633 -94 -198 -335 -279 -532 -179 -150 76
-238 279 -208 481 26 177 123 300 273 349 69 23 210 14 279 -18z m832 -7 c109
-53 165 -154 152 -273 -11 -108 -71 -192 -226 -320 l-45 -37 158 -1 157 0 0
-100 0 -100 -344 0 -344 0 -11 73 -11 72 77 70 c321 291 343 314 343 368 0 49
-34 77 -92 77 -55 0 -88 -24 -88 -65 l0 -25 -126 0 -126 0 7 48 c10 67 31 111
73 155 71 74 141 98 278 94 91 -2 107 -6 168 -36z m2531 10 c177 -79 222 -291
97 -456 -21 -27 -74 -79 -119 -115 l-81 -65 154 -3 154 -3 0 -99 0 -100 -339
0 c-385 0 -345 -11 -355 95 l-5 60 181 160 c184 163 223 206 234 262 5 26 1
37 -19 57 -21 21 -36 26 -75 26 -54 0 -76 -16 -87 -62 l-7 -28 -120 0 -121 0
6 51 c13 107 93 198 206 234 71 23 232 15 296 -14z m846 -5 c63 -29 145 -110
178 -174 68 -133 68 -328 1 -466 -108 -224 -419 -284 -603 -116 -88 81 -137
201 -137 342 0 216 94 369 263 430 78 28 222 21 298 -16z m756 24 c67 -15 151
-75 187 -132 33 -55 46 -156 27 -225 -20 -72 -88 -161 -179 -232 l-84 -66 156
-3 156 -3 0 -99 0 -100 -339 0 c-187 0 -342 3 -345 8 -2 4 -7 39 -11 77 l-6
70 181 160 c202 179 230 212 230 272 0 53 -26 73 -91 73 -39 0 -51 -5 -68 -26
-12 -15 -21 -35 -21 -45 0 -18 -10 -19 -121 -19 l-122 0 6 55 c11 106 83 190
192 225 68 21 179 26 252 10z m851 -31 c110 -57 158 -141 150 -264 -7 -109
-63 -194 -206 -312 l-64 -53 156 0 156 0 0 -100 0 -100 -339 0 -339 0 -6 28
c-3 15 -8 48 -12 73 l-6 46 139 124 c76 69 160 142 186 163 75 61 111 137 91
191 -9 22 -57 45 -94 45 -37 0 -90 -47 -90 -79 0 -20 -5 -21 -120 -21 l-120 0
0 25 c0 42 41 136 77 176 64 71 155 100 292 95 71 -3 94 -9 149 -37z m-4268
-399 l0 -430 -130 0 -130 0 0 290 c0 160 -4 290 -9 290 -4 0 -41 -13 -81 -30
-40 -16 -74 -30 -76 -30 -4 0 -66 191 -63 194 2 1 78 35 169 74 156 67 169 71
243 71 l77 1 0 -430z"/>
<path d="M6687 5638 c-37 -101 -67 -186 -67 -190 0 -5 61 -8 136 -8 104 0 135
3 132 13 -11 45 -124 367 -128 367 -3 0 -36 -82 -73 -182z"/>
<path d="M2428 4012 c-46 -51 -62 -111 -56 -219 5 -103 30 -162 81 -193 101
-62 198 40 199 208 1 104 -15 158 -62 204 -32 33 -44 38 -83 38 -39 0 -49 -5
-79 -38z"/>
<path d="M6642 4025 c-79 -67 -96 -285 -29 -382 50 -74 130 -81 186 -18 87
100 76 337 -19 405 -40 29 -101 27 -138 -5z"/>
</g>
</svg>
