<svg id="Laag_1" data-name="Laag 1" xmlns="http://www.w3.org/2000/svg" viewBox="0 0 566.93 566.93"><defs><style>.cls-1{fill:#6e9ec9;}.cls-2{fill:#fff;}.cls-3{fill:#ff8a11;}</style></defs><rect class="cls-1" x="0.02" y="68.07" width="68.03" height="68.02"/><ellipse class="cls-2" cx="34.98" cy="81.52" rx="6.12" ry="13.47"/><circle class="cls-2" cx="34.98" cy="102.08" r="7.09"/><ellipse class="cls-2" cx="55.16" cy="102.08" rx="13.47" ry="6.12"/><ellipse class="cls-2" cx="34.98" cy="122.64" rx="6.12" ry="13.47"/><ellipse class="cls-2" cx="14.41" cy="102.08" rx="13.47" ry="6.12"/><ellipse class="cls-2" cx="49.51" cy="87.59" rx="13.47" ry="6.12" transform="translate(-47.42 60.61) rotate(-45)"/><ellipse class="cls-2" cx="49.25" cy="116.4" rx="6.12" ry="13.47" transform="translate(-67.88 68.87) rotate(-45)"/><ellipse class="cls-2" cx="20.43" cy="116.67" rx="13.47" ry="6.12" transform="translate(-76.5 48.56) rotate(-45)"/><ellipse class="cls-2" cx="20.43" cy="87.59" rx="6.12" ry="13.47" transform="translate(-55.95 40.06) rotate(-45)"/><rect class="cls-2" x="0.02" y="136.37" width="68.03" height="68.02"/><path class="cls-2" d="M6.84,170.43a27.2,27.2,0,0,1,54.39,0" transform="translate(0.01 -0.05)"/><path class="cls-1" d="M6.84,170.43a27.2,27.2,0,0,0,54.39,0" transform="translate(0.01 -0.05)"/><rect class="cls-1" x="498.88" y="68.03" width="68.03" height="68.02"/><ellipse class="cls-2" cx="553.46" cy="102.98" rx="13.47" ry="6.12"/><circle class="cls-2" cx="532.89" cy="102.98" r="7.09"/><ellipse class="cls-2" cx="532.89" cy="123.17" rx="6.12" ry="13.47"/><ellipse class="cls-2" cx="512.33" cy="102.98" rx="13.47" ry="6.12"/><ellipse class="cls-2" cx="532.89" cy="82.42" rx="6.12" ry="13.47"/><ellipse class="cls-2" cx="547.43" cy="117.57" rx="6.12" ry="13.47" transform="translate(77.22 421.5) rotate(-45)"/><ellipse class="cls-2" cx="518.61" cy="117.3" rx="13.47" ry="6.12" transform="translate(68.94 400.99) rotate(-45)"/><ellipse class="cls-2" cx="518.34" cy="88.49" rx="6.12" ry="13.47" transform="translate(89.27 392.41) rotate(-45)"/><ellipse class="cls-2" cx="547.43" cy="88.49" rx="13.47" ry="6.12" transform="translate(97.75 412.93) rotate(-45)"/><rect class="cls-2" x="498.88" y="137.73" width="68.03" height="68.02"/><path class="cls-2" d="M505.69,171.79a27.2,27.2,0,0,1,54.39,0" transform="translate(0.01 -0.05)"/><path class="cls-1" d="M505.69,171.79a27.2,27.2,0,0,0,54.39,0" transform="translate(0.01 -0.05)"/><rect class="cls-1" x="431.4" y="498.84" width="68.03" height="68.02"/><ellipse class="cls-2" cx="464.48" cy="553.41" rx="6.12" ry="13.47"/><circle class="cls-2" cx="464.48" cy="532.85" r="7.09"/><ellipse class="cls-2" cx="444.29" cy="532.85" rx="13.47" ry="6.12"/><ellipse class="cls-2" cx="464.48" cy="512.28" rx="6.12" ry="13.47"/><ellipse class="cls-2" cx="485.04" cy="532.85" rx="13.47" ry="6.12"/><ellipse class="cls-2" cx="449.93" cy="547.44" rx="13.47" ry="6.12" transform="translate(-255.31 478.39) rotate(-45)"/><ellipse class="cls-2" cx="450.2" cy="518.62" rx="6.12" ry="13.47" transform="translate(-234.86 470.23) rotate(-45)"/><ellipse class="cls-2" cx="479.01" cy="518.36" rx="13.47" ry="6.12" transform="translate(-226.23 490.44) rotate(-45)"/><ellipse class="cls-2" cx="479.01" cy="547.44" rx="6.12" ry="13.47" transform="translate(-246.79 499.04) rotate(-45)"/><rect class="cls-1" x="498.9" y="430.79" width="68.03" height="68.02"/><ellipse class="cls-2" cx="531.97" cy="485.37" rx="6.12" ry="13.47"/><circle class="cls-2" cx="531.97" cy="464.8" r="7.09"/><ellipse class="cls-2" cx="511.79" cy="464.8" rx="13.47" ry="6.12"/><ellipse class="cls-2" cx="531.97" cy="444.24" rx="6.12" ry="13.47"/><ellipse class="cls-2" cx="552.54" cy="464.8" rx="13.47" ry="6.12"/><ellipse class="cls-2" cx="517.42" cy="479.39" rx="13.47" ry="6.12" transform="translate(-187.43 506.19) rotate(-45)"/><ellipse class="cls-2" cx="517.69" cy="450.58" rx="6.12" ry="13.47" transform="translate(-166.97 498.02) rotate(-45)"/><ellipse class="cls-2" cx="546.51" cy="450.31" rx="13.47" ry="6.12" transform="translate(-158.35 518.24) rotate(-45)"/><ellipse class="cls-2" cx="546.51" cy="479.39" rx="6.12" ry="13.47" transform="translate(-178.9 526.84) rotate(-45)"/><rect class="cls-2" x="363.38" y="498.84" width="68.03" height="68.02"/><path class="cls-2" d="M397.38,505.7a27.2,27.2,0,1,1,0,54.39" transform="translate(0.01 -0.05)"/><path class="cls-1" d="M397.38,505.7a27.2,27.2,0,0,0,0,54.39" transform="translate(0.01 -0.05)"/><rect class="cls-2" x="498.9" y="362.77" width="68.03" height="68.02"/><path class="cls-2" d="M560.1,396.83a27.2,27.2,0,0,1-54.39,0" transform="translate(0.01 -0.05)"/><path class="cls-1" d="M560.1,396.83a27.2,27.2,0,1,0-54.39,0" transform="translate(0.01 -0.05)"/><rect class="cls-1" x="0.02" y="430.88" width="68.03" height="68.02"/><ellipse class="cls-2" cx="13.47" cy="463.95" rx="13.47" ry="6.12"/><circle class="cls-2" cx="34.04" cy="463.95" r="7.09"/><ellipse class="cls-2" cx="34.04" cy="443.77" rx="6.12" ry="13.47"/><ellipse class="cls-2" cx="54.6" cy="463.95" rx="13.47" ry="6.12"/><ellipse class="cls-2" cx="34.04" cy="484.52" rx="6.12" ry="13.47"/><ellipse class="cls-2" cx="19.49" cy="449.46" rx="6.12" ry="13.47" transform="translate(-312.12 145.39) rotate(-45)"/><ellipse class="cls-2" cx="48.3" cy="449.73" rx="13.47" ry="6.12" transform="translate(-303.83 165.81) rotate(-45)"/><ellipse class="cls-2" cx="48.57" cy="478.54" rx="6.12" ry="13.47" transform="translate(-324.16 174.48) rotate(-45)"/><ellipse class="cls-2" cx="19.49" cy="478.54" rx="13.47" ry="6.12" transform="translate(-332.65 153.87) rotate(-45)"/><rect class="cls-1" x="68.07" y="498.91" width="68.03" height="68.02"/><ellipse class="cls-2" cx="81.52" cy="531.98" rx="13.47" ry="6.12"/><circle class="cls-2" cx="102.09" cy="531.98" r="7.09"/><ellipse class="cls-2" cx="102.09" cy="511.79" rx="6.12" ry="13.47"/><ellipse class="cls-2" cx="122.65" cy="531.98" rx="13.47" ry="6.12"/><ellipse class="cls-2" cx="102.09" cy="552.54" rx="6.12" ry="13.47"/><ellipse class="cls-2" cx="87.54" cy="517.48" rx="6.12" ry="13.47" transform="translate(-340.29 213.44) rotate(-45)"/><ellipse class="cls-2" cx="116.36" cy="517.75" rx="13.47" ry="6.12" transform="translate(-332 233.85) rotate(-45)"/><ellipse class="cls-2" cx="116.62" cy="546.57" rx="6.12" ry="13.47" transform="translate(-352.33 242.53) rotate(-45)"/><ellipse class="cls-2" cx="87.54" cy="546.57" rx="13.47" ry="6.12" transform="translate(-360.81 221.91) rotate(-45)"/><rect class="cls-2" x="0.02" y="362.86" width="68.03" height="68.02"/><path class="cls-2" d="M61.23,396.92a27.2,27.2,0,0,1-54.39,0" transform="translate(0.01 -0.05)"/><path class="cls-1" d="M61.23,396.92a27.2,27.2,0,0,0-54.39,0" transform="translate(0.01 -0.05)"/><rect class="cls-2" x="136.13" y="498.84" width="68.03" height="68.02"/><path class="cls-2" d="M170.13,560.09a27.2,27.2,0,0,1,0-54.39" transform="translate(0.01 -0.05)"/><path class="cls-1" d="M170.13,560.09a27.2,27.2,0,1,0,0-54.39" transform="translate(0.01 -0.05)"/><rect class="cls-1" x="204.51" y="498.84" width="158.31" height="68.02"/><circle class="cls-3" cx="278.16" cy="533.15" r="11.56"/><ellipse class="cls-3" cx="278.36" cy="512.51" rx="3.02" ry="13.32"/><ellipse class="cls-3" cx="298.93" cy="532.32" rx="13.32" ry="3.02"/><ellipse class="cls-3" cx="278.36" cy="553.18" rx="3.02" ry="13.32"/><ellipse class="cls-3" cx="258.03" cy="532.85" rx="13.32" ry="3.02"/><ellipse class="cls-3" cx="293.24" cy="518.92" rx="13.32" ry="3.02" transform="translate(-276.45 343.61) rotate(-43.43)"/><ellipse class="cls-3" cx="292.99" cy="547.46" rx="3.03" ry="13.32" transform="translate(-296.15 351.3) rotate(-43.43)"/><ellipse class="cls-3" cx="263.7" cy="546.88" rx="13.32" ry="3.02" transform="translate(-303.76 330.96) rotate(-43.43)"/><ellipse class="cls-3" cx="264.49" cy="518.13" rx="3.03" ry="13.32" transform="translate(-283.79 323.67) rotate(-43.43)"/><ellipse class="cls-3" cx="286.29" cy="514.28" rx="13.32" ry="3.02" transform="translate(-299.24 574.15) rotate(-66.74)"/><ellipse class="cls-3" cx="297.36" cy="540.59" rx="3.02" ry="13.32" transform="translate(-316.71 600.27) rotate(-66.74)"/><ellipse class="cls-3" cx="270.23" cy="551.64" rx="13.32" ry="3.02" transform="translate(-343.29 582) rotate(-66.74)"/><ellipse class="cls-3" cx="259.57" cy="524.93" rx="3.02" ry="13.32" transform="translate(-325.19 556.08) rotate(-66.74)"/><ellipse class="cls-3" cx="297.44" cy="525.99" rx="13.32" ry="3.02" transform="translate(-163.13 134.78) rotate(-20.17)"/><ellipse class="cls-3" cx="285.95" cy="552.12" rx="3.03" ry="13.32" transform="translate(-172.86 132.44) rotate(-20.17)"/><ellipse class="cls-3" cx="259.27" cy="540.01" rx="13.32" ry="3.02" transform="translate(-170.31 122.48) rotate(-20.17)"/><ellipse class="cls-3" cx="271.34" cy="513.91" rx="3.03" ry="13.32" transform="translate(-160.58 125.06) rotate(-20.17)"/><rect class="cls-1" x="0.39" y="203.85" width="68.03" height="158.29"/><circle class="cls-3" cx="34.1" cy="277.49" r="11.56"/><ellipse class="cls-3" cx="54.73" cy="277.7" rx="13.32" ry="3.02"/><ellipse class="cls-3" cx="34.93" cy="298.26" rx="3.03" ry="13.32"/><ellipse class="cls-3" cx="14.07" cy="277.7" rx="13.32" ry="3.02"/><ellipse class="cls-3" cx="34.4" cy="257.36" rx="3.03" ry="13.32"/><ellipse class="cls-3" cx="48.37" cy="292.62" rx="3.02" ry="13.32" transform="translate(-187.93 113.34) rotate(-43.43)"/><ellipse class="cls-3" cx="19.83" cy="292.38" rx="13.32" ry="3.02" transform="translate(-195.56 93.63) rotate(-43.43)"/><ellipse class="cls-3" cx="20.41" cy="263.09" rx="3.02" ry="13.32" transform="translate(-175.29 86.03) rotate(-43.43)"/><ellipse class="cls-3" cx="49.16" cy="263.88" rx="13.32" ry="3.02" transform="translate(-167.94 105.99) rotate(-43.43)"/><ellipse class="cls-3" cx="53.01" cy="285.67" rx="3.02" ry="13.32" transform="translate(-230.37 221.53) rotate(-66.74)"/><ellipse class="cls-3" cx="26.7" cy="296.74" rx="13.32" ry="3.03" transform="translate(-256.46 204.03) rotate(-66.74)"/><ellipse class="cls-3" cx="15.65" cy="269.61" rx="3.02" ry="13.32" transform="translate(-238.23 177.48) rotate(-66.74)"/><ellipse class="cls-3" cx="42.36" cy="258.96" rx="13.32" ry="3.03" transform="translate(-212.27 195.56) rotate(-66.74)"/><ellipse class="cls-3" cx="41.3" cy="296.83" rx="3.02" ry="13.32" transform="translate(-99.83 32.41) rotate(-20.18)"/><ellipse class="cls-3" cx="15.17" cy="285.34" rx="13.32" ry="3.02" transform="translate(-97.45 22.68) rotate(-20.17)"/><ellipse class="cls-3" cx="27.28" cy="258.66" rx="3.02" ry="13.32" transform="translate(-87.53 25.23) rotate(-20.18)"/><ellipse class="cls-3" cx="53.38" cy="270.73" rx="13.32" ry="3.02" transform="translate(-90.08 34.96) rotate(-20.17)"/><rect class="cls-1" x="498.88" y="205.75" width="68.03" height="158.29"/><circle class="cls-3" cx="532.59" cy="279.4" r="11.56"/><ellipse class="cls-3" cx="553.23" cy="279.6" rx="13.32" ry="3.02"/><ellipse class="cls-3" cx="533.42" cy="300.16" rx="3.03" ry="13.32"/><ellipse class="cls-3" cx="512.56" cy="279.6" rx="13.32" ry="3.02"/><ellipse class="cls-3" cx="532.89" cy="259.26" rx="3.03" ry="13.32"/><ellipse class="cls-3" cx="546.87" cy="294.53" rx="3.02" ry="13.32" transform="translate(-52.73 456.59) rotate(-43.43)"/><ellipse class="cls-3" cx="518.32" cy="294.28" rx="13.32" ry="3.02" transform="translate(-60.4 436.84) rotate(-43.43)"/><ellipse class="cls-3" cx="518.91" cy="265" rx="3.02" ry="13.32" transform="translate(-40.09 429.28) rotate(-43.43)"/><ellipse class="cls-3" cx="547.65" cy="265.78" rx="13.32" ry="3.02" transform="translate(-32.77 449.21) rotate(-43.43)"/><ellipse class="cls-3" cx="551.51" cy="287.58" rx="3.02" ry="13.32" transform="translate(69.54 680.67) rotate(-66.74)"/><ellipse class="cls-3" cx="525.19" cy="298.65" rx="13.32" ry="3.03" transform="translate(43.42 663.16) rotate(-66.74)"/><ellipse class="cls-3" cx="514.14" cy="271.52" rx="3.02" ry="13.32" transform="translate(61.68 636.62) rotate(-66.74)"/><ellipse class="cls-3" cx="540.85" cy="260.86" rx="13.32" ry="3.03" transform="translate(87.61 654.68) rotate(-66.74)"/><ellipse class="cls-3" cx="539.79" cy="298.74" rx="3.02" ry="13.32" transform="translate(-69.9 204.45) rotate(-20.18)"/><ellipse class="cls-3" cx="513.66" cy="287.24" rx="13.32" ry="3.02" transform="translate(-67.54 194.69) rotate(-20.17)"/><ellipse class="cls-3" cx="525.77" cy="260.56" rx="3.02" ry="13.32" transform="translate(-57.6 197.27) rotate(-20.18)"/><ellipse class="cls-3" cx="551.87" cy="272.64" rx="13.32" ry="3.02" transform="translate(-60.16 206.97) rotate(-20.17)"/><rect class="cls-1" x="0.02" y="498.84" width="68.03" height="68.02"/><rect class="cls-2" x="0.02" y="521.96" width="68.03" height="22.67"/><path class="cls-3" d="M34,512.49l1.62,12.78,6.68-11-3.72,12.34,10.59-7.35L40.78,529l12.66-2.41-11.66,5.49L54.33,535l-12.89.28L51.7,543.1l-11.88-5L46,549.41,37.2,540l1.07,12.84L34,540.69l-4.24,12.17L30.86,540,22,549.41l6.21-11.3-11.88,5,10.26-7.79L13.73,535l12.55-2.95-11.66-5.49L27.28,529l-8.42-9.76,10.59,7.35-3.72-12.34,6.68,11Z" transform="translate(0.01 -0.05)"/><circle class="cls-3" cx="34.04" cy="532.85" r="8.16"/><rect class="cls-1" x="498.9" y="498.84" width="68.03" height="68.02"/><rect class="cls-2" x="498.9" y="521.96" width="68.03" height="22.67"/><path class="cls-3" d="M532.91,512.49l1.62,12.78,6.68-11-3.72,12.34,10.58-7.35L539.66,529l12.66-2.41-11.66,5.49L553.21,535l-12.89.28,10.26,7.79-11.88-5,6.2,11.3L536.08,540l1.07,12.84-4.24-12.17-4.25,12.17L529.74,540l-8.83,9.39,6.2-11.3-11.88,5,10.26-7.79L512.61,535l12.55-2.95-11.66-5.49L526.16,529l-8.42-9.76,10.59,7.35-3.72-12.34,6.68,11Z" transform="translate(0.01 -0.05)"/><circle class="cls-3" cx="532.91" cy="532.85" r="8.16"/><rect class="cls-1" x="430.89" y="0.02" width="68.03" height="68.02"/><ellipse class="cls-2" cx="463.97" cy="54.6" rx="6.12" ry="13.47"/><circle class="cls-2" cx="463.97" cy="34.03" r="7.09"/><ellipse class="cls-2" cx="443.78" cy="34.03" rx="13.47" ry="6.12"/><ellipse class="cls-2" cx="463.97" cy="13.47" rx="6.12" ry="13.47"/><ellipse class="cls-2" cx="484.53" cy="34.03" rx="13.47" ry="6.12"/><ellipse class="cls-2" cx="449.42" cy="48.62" rx="13.47" ry="6.12" transform="translate(97.24 331.96) rotate(-45)"/><ellipse class="cls-2" cx="449.69" cy="19.81" rx="6.12" ry="13.47" transform="translate(117.72 323.75) rotate(-45)"/><ellipse class="cls-2" cx="478.5" cy="19.54" rx="13.47" ry="6.12" transform="translate(126.32 344) rotate(-45)"/><ellipse class="cls-2" cx="478.5" cy="48.62" rx="6.12" ry="13.47" transform="translate(105.79 352.57) rotate(-45)"/><rect class="cls-2" x="363.74" y="0.25" width="68.03" height="68.02"/><path class="cls-2" d="M397.75,7.11a27.2,27.2,0,0,1,0,54.39" transform="translate(0.01 -0.05)"/><path class="cls-1" d="M397.75,7.11a27.2,27.2,0,1,0,0,54.39" transform="translate(0.01 -0.05)"/><rect class="cls-1" x="68.07" y="0.02" width="68.03" height="68.02"/><ellipse class="cls-2" cx="81.52" cy="33.84" rx="13.47" ry="6.12"/><circle class="cls-2" cx="102.09" cy="33.84" r="7.09"/><ellipse class="cls-2" cx="102.09" cy="13.66" rx="6.12" ry="13.47"/><ellipse class="cls-2" cx="122.65" cy="33.84" rx="13.47" ry="6.12"/><ellipse class="cls-2" cx="102.09" cy="54.41" rx="6.12" ry="13.47"/><ellipse class="cls-2" cx="87.54" cy="19.35" rx="6.12" ry="13.47" transform="translate(11.96 67.52) rotate(-45)"/><ellipse class="cls-2" cx="116.36" cy="19.62" rx="13.47" ry="6.12" transform="translate(20.21 87.97) rotate(-45)"/><ellipse class="cls-2" cx="116.62" cy="48.43" rx="6.12" ry="13.47" transform="translate(-0.08 96.61) rotate(-45)"/><ellipse class="cls-2" cx="87.54" cy="48.43" rx="13.47" ry="6.12" transform="translate(-8.6 76.03) rotate(-45)"/><rect class="cls-2" x="136.49" y="0.25" width="68.03" height="68.02"/><path class="cls-2" d="M170.5,61.5a27.2,27.2,0,1,1,0-54.39" transform="translate(0.01 -0.05)"/><path class="cls-1" d="M170.5,61.5a27.2,27.2,0,0,0,0-54.39" transform="translate(0.01 -0.05)"/><rect class="cls-1" x="204.87" y="0.25" width="158.31" height="68.02"/><circle class="cls-3" cx="278.52" cy="34.56" r="11.56"/><ellipse class="cls-3" cx="278.73" cy="13.92" rx="3.02" ry="13.32"/><ellipse class="cls-3" cx="299.29" cy="33.73" rx="13.32" ry="3.02"/><ellipse class="cls-3" cx="278.73" cy="54.59" rx="3.02" ry="13.32"/><ellipse class="cls-3" cx="258.39" cy="34.26" rx="13.32" ry="3.02"/><ellipse class="cls-3" cx="293.6" cy="20.33" rx="13.32" ry="3.02" transform="translate(66.41 207.36) rotate(-43.43)"/><ellipse class="cls-3" cx="293.35" cy="48.87" rx="3.03" ry="13.32" transform="translate(46.74 215.02) rotate(-43.43)"/><ellipse class="cls-3" cx="264.07" cy="48.29" rx="13.32" ry="3.02" transform="translate(39.11 194.71) rotate(-43.43)"/><ellipse class="cls-3" cx="264.85" cy="19.54" rx="3.03" ry="13.32" transform="translate(59.1 187.39) rotate(-43.43)"/><ellipse class="cls-3" cx="286.65" cy="15.69" rx="13.32" ry="3.02" transform="translate(159.04 272.79) rotate(-66.74)"/><ellipse class="cls-3" cx="297.72" cy="42" rx="3.02" ry="13.32" transform="translate(141.58 298.89) rotate(-66.74)"/><ellipse class="cls-3" cx="270.59" cy="53.05" rx="13.32" ry="3.02" transform="translate(115 280.64) rotate(-66.74)"/><ellipse class="cls-3" cx="259.93" cy="26.34" rx="3.02" ry="13.32" transform="translate(133.1 254.7) rotate(-66.74)"/><ellipse class="cls-3" cx="297.81" cy="27.4" rx="13.32" ry="3.02" transform="translate(8.82 104.33) rotate(-20.17)"/><ellipse class="cls-3" cx="286.31" cy="53.53" rx="3.03" ry="13.32" transform="translate(-0.89 101.98) rotate(-20.17)"/><ellipse class="cls-3" cx="259.63" cy="41.42" rx="13.32" ry="3.02" transform="translate(1.65 92.02) rotate(-20.17)"/><ellipse class="cls-3" cx="271.71" cy="15.32" rx="3.03" ry="13.32" transform="translate(11.39 94.6) rotate(-20.17)"/><rect class="cls-1" x="0.02" y="0.02" width="68.03" height="68.02"/><rect class="cls-2" x="0.02" y="23.15" width="68.03" height="22.67"/><path class="cls-3" d="M34,13.68l1.62,12.78,6.68-11L38.61,27.78,49.2,20.43l-8.42,9.76,12.66-2.41L41.78,33.27l12.55,2.95-12.89.27,10.26,7.8-11.88-5L46,50.59,37.2,41.2l1.07,12.85L34,41.88,29.79,54.05,30.86,41.2,22,50.59,28.24,39.3l-11.88,5,10.26-7.8-12.89-.27,12.55-2.95L14.62,27.78l12.66,2.41-8.42-9.76,10.59,7.35L25.73,15.44l6.68,11Z" transform="translate(0.01 -0.05)"/><circle class="cls-3" cx="34.04" cy="34.03" r="8.16"/><rect class="cls-1" x="498.88" y="0.02" width="68.03" height="68.02"/><rect class="cls-2" x="498.88" y="23.15" width="68.03" height="22.67"/><path class="cls-3" d="M532.88,13.68l1.63,12.78,6.68-11-3.72,12.34,10.58-7.35-8.41,9.76,12.65-2.41-11.65,5.49,12.54,2.95-12.88.27,10.26,7.8-11.88-5,6.2,11.29-8.82-9.39,1.07,12.85-4.25-12.17-4.24,12.17,1.07-12.85-8.82,9.39,6.2-11.29-11.88,5,10.26-7.8-12.88-.27,12.54-2.95-11.65-5.49,12.65,2.41-8.41-9.76,10.58,7.35-3.72-12.34,6.68,11Z" transform="translate(0.01 -0.05)"/><circle class="cls-3" cx="532.89" cy="34.03" r="8.16"/></svg>