<svg id="Laag_1" data-name="Laag 1" xmlns="http://www.w3.org/2000/svg" viewBox="0 0 566.93 566.93"><defs><style>.cls-1,.cls-7{fill:#fff;}.cls-2{fill:#3180b7;}.cls-3{fill:#fdce12;}.cls-4{fill:#eb1328;}.cls-11,.cls-5{fill:#fcd12d;}.cls-13,.cls-5,.cls-6,.cls-7{stroke:#fff;}.cls-5,.cls-6{stroke-width:0.09px;}.cls-6{fill:#fbce14;}.cls-11,.cls-7,.cls-8,.cls-9{stroke-width:0.12px;}.cls-12,.cls-13,.cls-8,.cls-9{fill:none;}.cls-8{stroke:#4190c1;}.cls-9{stroke:#2f80b5;}.cls-10{fill:#e91728;}.cls-11{stroke:#fad12a;}.cls-12{stroke:#fcd12d;}.cls-12,.cls-13{stroke-width:7px;}</style></defs><rect class="cls-1" x="0.14" width="566.71" height="566.93"/><rect class="cls-2" x="204.16" width="68" height="68.03"/><rect class="cls-3" x="217.76" width="13.6" height="68.03"/><rect class="cls-3" x="244.96" width="13.6" height="68.03"/><rect class="cls-2" x="294.83" y="498.9" width="68" height="68.03"/><rect class="cls-3" x="308.43" y="498.9" width="13.6" height="68.03"/><rect class="cls-3" x="335.63" y="498.9" width="13.6" height="68.03"/><rect class="cls-2" x="340.17" width="68" height="68.03"/><rect class="cls-3" x="340.17" y="13.61" width="68" height="13.61"/><rect class="cls-3" x="340.17" y="40.82" width="68" height="13.61"/><path class="cls-4" d="M374,15.57l4.88,13.17L379,29l.29.11L392.48,34l-13.17,4.87L379,39l-.11.29L374,52.47l-4.87-13.18-.11-.29-.29-.11L355.59,34l13.17-4.88.29-.11.11-.29Z" transform="translate(0.14 0)"/><rect class="cls-2" x="158.82" y="498.9" width="68" height="68.03"/><rect class="cls-3" x="158.82" y="512.5" width="68" height="13.61"/><rect class="cls-3" x="158.82" y="539.72" width="68" height="13.61"/><path class="cls-4" d="M192.69,514.47l4.87,13.17.11.29.29.11,13.17,4.88L198,537.79l-.29.11-.11.29-4.87,13.17-4.88-13.17-.1-.29-.3-.11-13.16-4.87L187.41,528l.3-.11.1-.29Z" transform="translate(0.14 0)"/><rect class="cls-4" x="498.85" y="362.83" width="68" height="68.03"/><path class="cls-1" d="M540.15,381.52c-5.17-2.82-12.71-1.56-15.26,0a11.55,11.55,0,0,0-7.62,0c-1,2.3-.41,6.46,0,8.25a18.24,18.24,0,0,0,0,14.74c-.54,1.81-1.16,5.52,0,7.66a9.73,9.73,0,0,0,7.62,0c2.55,1.28,9.16,3.06,15.26,0,1.63.58,5.44,1.39,7.62,0,.76-.95,1.15-4.92,0-7.66,3.14-4.51,2-12.76,0-14.74.41-1.66,1-5.63,0-8.25C545.27,380.64,541.65,381.16,540.15,381.52Z" transform="translate(0.14 0)"/><rect class="cls-4" x="0.14" y="136.06" width="68" height="68.03"/><path class="cls-1" d="M41.44,154.75c-5.16-2.83-12.7-1.56-15.25,0a11.51,11.51,0,0,0-7.63,0c-1,2.3-.4,6.46,0,8.25a18.33,18.33,0,0,0,0,14.74c-.53,1.81-1.16,5.52,0,7.66a9.76,9.76,0,0,0,7.63,0c2.54,1.27,9.15,3.06,15.25,0,1.64.58,5.45,1.39,7.63,0,.75-1,1.15-4.93,0-7.66,3.14-4.51,2-12.76,0-14.74.41-1.66,1-5.63,0-8.25C46.57,153.87,43,154.39,41.44,154.75Z" transform="translate(0.14 0)"/><rect class="cls-1" x="0.19" y="68.03" width="67.96" height="68.03"/><path class="cls-3" d="M.05,76.36H68V90.48l-68,.06Z" transform="translate(0.14 0)"/><path class="cls-3" d="M.05,115.66H68v13H0Z" transform="translate(0.14 0)"/><path class="cls-2" d="M59.24,76.35H46.13c-8.87-4.84-21.83-2.67-26.22,0H6.8V90.49a31.21,31.21,0,0,0,0,25.23v13.13H19.91c4.37,2.19,15.73,5.25,26.22,0H59.24V115.72c5.4-7.72,3.38-21.85,0-25.23Z" transform="translate(0.14 0)"/><path class="cls-4" d="M34,83.6,38.9,96.77l.11.3.29.1,13.16,4.88L39.3,106.92,39,107l-.11.3L34,120.5l-4.87-13.17-.11-.3-.29-.11L15.6,102.05l13.16-4.88.29-.1.11-.3Z" transform="translate(0.14 0)"/><rect class="cls-1" x="498.89" y="430.87" width="67.96" height="68.03"/><path class="cls-3" d="M498.75,439.2h68v14.12l-68,.05Z" transform="translate(0.14 0)"/><path class="cls-3" d="M498.75,478.49h68v13.05h-68Z" transform="translate(0.14 0)"/><path class="cls-2" d="M557.94,439.19h-13.1c-8.88-4.85-21.84-2.68-26.22,0H505.51v14.13a31.2,31.2,0,0,0,0,25.24v13.12h13.11c4.37,2.19,15.73,5.25,26.22,0h13.1V478.56c5.4-7.72,3.38-21.86,0-25.24Z" transform="translate(0.14 0)"/><path class="cls-4" d="M532.73,446.44l4.87,13.17.11.29.29.11,13.16,4.87L538,469.76l-.29.11-.11.29-4.87,13.17-4.87-13.17-.1-.29-.3-.11-13.16-4.88L527.46,460l.3-.11.1-.29Z" transform="translate(0.14 0)"/><rect class="cls-4" x="136.15" width="68" height="68.03"/><path class="cls-3" d="M182.13,7c-8.88-4.86-21.85-2.68-26.24,0-2.35-.86-8.26-2.06-13.12,0-1.67,4-.69,11.11,0,14.19a31.43,31.43,0,0,0,0,25.34c-.92,3.12-2,9.5,0,13.18a16.73,16.73,0,0,0,13.12,0c4.37,2.2,15.74,5.27,26.24,0,2.81,1,9.36,2.4,13.12,0,1.29-1.63,2-8.46,0-13.18,5.39-7.75,3.38-21.94,0-25.34.7-2.85,1.68-9.69,0-14.19C191,5.46,184.71,6.34,182.13,7Z" transform="translate(0.14 0)"/><ellipse class="cls-1" cx="169.48" cy="34.7" rx="30.6" ry="30.61"/><path class="cls-2" d="M170,13.61l5.51,14.9L190.42,34l-14.89,5.51L170,54.43l-5.51-14.9L149.62,34l14.89-5.51Z" transform="translate(0.14 0)"/><rect class="cls-4" x="362.84" y="498.9" width="68" height="68.03"/><path class="cls-3" d="M408.81,505.87c-8.88-4.87-21.85-2.69-26.24,0-2.35-.86-8.26-2.06-13.12,0-1.66,3.95-.69,11.11,0,14.19a31.48,31.48,0,0,0,0,25.34c-.92,3.12-2,9.49,0,13.18a16.73,16.73,0,0,0,13.12,0c4.38,2.19,15.75,5.27,26.24,0,2.81,1,9.36,2.4,13.12,0,1.29-1.64,2-8.47,0-13.18,5.4-7.75,3.38-21.94,0-25.34.7-2.86,1.68-9.69,0-14.19C417.63,504.36,411.39,505.24,408.81,505.87Z" transform="translate(0.14 0)"/><ellipse class="cls-1" cx="396.16" cy="533.59" rx="30.6" ry="30.61"/><path class="cls-2" d="M396.7,512.51l5.51,14.89,14.89,5.52-14.89,5.51-5.51,14.89-5.51-14.89-14.89-5.51,14.89-5.52Z" transform="translate(0.14 0)"/><rect class="cls-4" x="498.85" width="68" height="68.03"/><path class="cls-3" d="M533.48,56.09c20.35-6.48,25.21-29,25.18-40.54,0-.49-.64-.71-1.14-.39C545.71,22.65,526,40.08,532.6,55.79A.7.7,0,0,0,533.48,56.09Z" transform="translate(0.14 0)"/><path class="cls-1" d="M558.66,15.55l-.39,0h0ZM533.48,56.09l.09.31h0Zm24-40.93.2.25h0ZM532.6,55.79l-.37.15h0ZM558.27,15.6a53.15,53.15,0,0,1-4.91,22c-3.73,7.82-10,15-20,18.15l.18.61c10.34-3.3,16.72-10.66,20.5-18.6a53.77,53.77,0,0,0,5-22.3Zm-.95-.69c-5.94,3.76-13.87,10-19.48,17.34s-9,15.71-5.61,23.69l.73-.3c-3.24-7.72,0-15.89,5.51-23.1s13.38-13.41,19.25-17.13ZM533.39,55.79a.34.34,0,0,1-.43-.15l-.73.3a1.07,1.07,0,0,0,1.34.46ZM559,15.5c0-.74-1-1.07-1.72-.59l.4.5c.24-.15.55-.05.55.19Z" transform="translate(0.14 0)"/><path class="cls-3" d="M533.1,56c18.28-9.81,15.56-33,11.7-44.25a.69.69,0,0,0-1.17-.16C534.53,21,520.86,41.9,533.1,56Z" transform="translate(0.14 0)"/><path class="cls-1" d="M544.8,11.72l.35-.14h0ZM533.1,56l-.29.24.18.21.26-.14Zm10.53-44.41.26.22h0Zm-3.49,18a.3.3,0,0,0-.26-.39.4.4,0,0,0-.44.29Zm4.31-17.7a52,52,0,0,1,2.44,22.53c-1.11,8.35-5,16.46-13.94,21.28l.3.61c9.29-5,13.23-13.37,14.36-21.87a52.69,52.69,0,0,0-2.46-22.83Zm-1.07-.53C538.8,16.1,533.07,23.73,530,32s-3.43,17.11,2.79,24.26l.58-.48c-6-6.92-5.68-15.51-2.68-23.6s8.65-15.64,13.18-20.35ZM533.45,56l6.69-26.46-.7-.1-6.7,26.46Zm11.7-44.44a1,1,0,0,0-1.77-.25l.51.45a.33.33,0,0,1,.56.08Z" transform="translate(0.14 0)"/><path class="cls-3" d="M533.1,56c18.28-9.81,15.56-33,11.7-44.25a.69.69,0,0,0-1.17-.16C534.53,21,520.86,41.9,533.1,56Z" transform="translate(0.14 0)"/><path class="cls-1" d="M544.8,11.72l.35-.14h0ZM533.1,56l-.29.24.18.21.26-.14Zm10.53-44.41.26.22h0Zm-3.49,18a.3.3,0,0,0-.26-.39.4.4,0,0,0-.44.29Zm4.31-17.7a52,52,0,0,1,2.44,22.53c-1.11,8.35-5,16.46-13.94,21.28l.3.61c9.29-5,13.23-13.37,14.36-21.87a52.69,52.69,0,0,0-2.46-22.83Zm-1.07-.53C538.8,16.1,533.07,23.73,530,32s-3.43,17.11,2.79,24.26l.58-.48c-6-6.92-5.68-15.51-2.68-23.6s8.65-15.64,13.18-20.35ZM533.45,56l6.69-26.46-.7-.1-6.7,26.46Zm11.7-44.44a1,1,0,0,0-1.77-.25l.51.45a.33.33,0,0,1,.56.08Z" transform="translate(0.14 0)"/><path class="cls-3" d="M531.94,56.09c-20.35-6.48-25.21-29-25.17-40.54,0-.49.63-.71,1.13-.39,11.82,7.49,31.52,24.92,24.93,40.63A.71.71,0,0,1,531.94,56.09Z" transform="translate(0.14 0)"/><path class="cls-1" d="M506.77,15.55l.38,0h0Zm25.17,40.54-.09.31h0Zm-24-40.93-.2.25h0Zm24.93,40.63.36.15h0ZM507.15,15.6a53.34,53.34,0,0,0,4.92,22c3.73,7.82,9.95,15,20,18.15l-.18.61c-10.34-3.3-16.72-10.66-20.5-18.6a53.77,53.77,0,0,1-5-22.3Zm1-.69a79.4,79.4,0,0,1,19.48,17.34c5.61,7.3,9,15.71,5.6,23.69l-.73-.3c3.25-7.72,0-15.89-5.51-23.1A78.37,78.37,0,0,0,507.7,15.41ZM532,55.79a.34.34,0,0,0,.43-.15l.73.3a1.07,1.07,0,0,1-1.34.46ZM506.38,15.5c0-.74,1-1.07,1.73-.59l-.41.5c-.24-.15-.55-.05-.55.19Z" transform="translate(0.14 0)"/><path class="cls-3" d="M532.33,56c-18.27-9.81-15.56-33-11.7-44.25a.69.69,0,0,1,1.17-.16C530.9,21,544.57,41.9,532.33,56Z" transform="translate(0.14 0)"/><path class="cls-1" d="M520.63,11.72l-.34-.14h0ZM532.33,56l.29.24-.17.21-.27-.14ZM521.8,11.56l-.26.22h0Zm3.49,18a.3.3,0,0,1,.26-.39.39.39,0,0,1,.44.29ZM521,11.86a52,52,0,0,0-2.44,22.53c1.12,8.35,5,16.46,14,21.28l-.31.61c-9.29-5-13.23-13.37-14.36-21.87a52.53,52.53,0,0,1,2.47-22.83Zm1.07-.53c4.58,4.77,10.31,12.4,13.36,20.62s3.43,17.11-2.79,24.26l-.58-.48c6-6.92,5.68-15.51,2.69-23.6s-8.66-15.64-13.19-20.35ZM532,56l-6.69-26.46.7-.1,6.7,26.46ZM520.29,11.58a1,1,0,0,1,1.76-.25l-.51.45a.33.33,0,0,0-.56.08Z" transform="translate(0.14 0)"/><path class="cls-3" d="M532.66,55.89c15.7-12.18,7.16-34.21.48-44.75a.68.68,0,0,0-1.16,0C525.31,21.68,517,43.71,532.66,55.89Z" transform="translate(0.14 0)"/><path class="cls-1" d="M533.14,11.14l-.3.19h0Zm-.48,44.75-.22.28.22.17.21-.17ZM532,11.14l.3.19h0Zm1,18.22a.36.36,0,1,0-.71,0Zm-.17-18c3.32,5.24,7.1,13.33,8.1,21.61s-.78,16.68-8.5,22.66l.43.57c8-6.19,9.79-14.89,8.77-23.31S536.8,16.25,533.45,11ZM531.68,11c-3.35,5.3-7.14,13.49-8.1,21.91s.88,17.12,8.86,23.31l.43-.57c-7.72-6-9.54-14.39-8.59-22.66s4.69-16.37,8-21.61ZM533,55.89V29.36h-.71V55.89ZM533.45,11a1,1,0,0,0-1.77,0l.6.38a.33.33,0,0,1,.56,0Z" transform="translate(0.14 0)"/><rect class="cls-4" x="0.14" y="498.9" width="68" height="68.03"/><path class="cls-3" d="M34.78,555C55.13,548.5,60,526,60,514.45c0-.49-.63-.71-1.13-.39C47,521.54,27.3,539,33.89,554.69A.72.72,0,0,0,34.78,555Z" transform="translate(0.14 0)"/><path class="cls-1" d="M60,514.45l-.38,0h0ZM34.78,555l.09.3h0Zm24-40.93.2.25h0ZM33.89,554.69l-.36.14h0Zm25.68-40.2a53.34,53.34,0,0,1-4.92,22c-3.73,7.83-9.95,15-20,18.16l.18.6c10.34-3.29,16.72-10.66,20.5-18.59a53.77,53.77,0,0,0,5-22.3Zm-1-.68c-5.93,3.76-13.86,10-19.47,17.33s-9,15.71-5.61,23.69l.73-.29c-3.24-7.72,0-15.89,5.51-23.1A78.37,78.37,0,0,1,59,514.31ZM34.69,554.69a.34.34,0,0,1-.43-.15l-.73.29a1.06,1.06,0,0,0,1.34.46ZM60.34,514.4c0-.74-1-1.07-1.73-.59l.41.5c.24-.16.55,0,.55.18Z" transform="translate(0.14 0)"/><path class="cls-3" d="M34.4,554.87c18.27-9.81,15.56-33,11.7-44.25a.69.69,0,0,0-1.17-.17C35.83,519.93,22.16,540.8,34.4,554.87Z" transform="translate(0.14 0)"/><path class="cls-1" d="M46.1,510.62l.34-.14h0ZM34.4,554.87l-.29.24.17.2.27-.14Zm10.53-44.42.26.23h0Zm-3.49,18a.32.32,0,0,0-.26-.4.43.43,0,0,0-.45.3Zm4.31-17.7a52,52,0,0,1,2.44,22.53c-1.12,8.35-5,16.46-13.95,21.28l.31.6c9.29-5,13.23-13.37,14.36-21.86a52.66,52.66,0,0,0-2.47-22.83Zm-1.08-.53c-4.57,4.77-10.3,12.4-13.35,20.62S27.89,548,34.11,555.11l.57-.48c-6-6.92-5.68-15.52-2.68-23.6s8.66-15.64,13.19-20.35Zm-9.92,44.69,6.69-26.46-.71-.1L34,554.82Zm11.69-44.44a1,1,0,0,0-1.77-.25l.52.45a.33.33,0,0,1,.56.08Z" transform="translate(0.14 0)"/><path class="cls-3" d="M34.4,554.87c18.27-9.81,15.56-33,11.7-44.25a.69.69,0,0,0-1.17-.17C35.83,519.93,22.16,540.8,34.4,554.87Z" transform="translate(0.14 0)"/><path class="cls-1" d="M46.1,510.62l.34-.14h0ZM34.4,554.87l-.29.24.17.2.27-.14Zm10.53-44.42.26.23h0Zm-3.49,18a.32.32,0,0,0-.26-.4.43.43,0,0,0-.45.3Zm4.31-17.7a52,52,0,0,1,2.44,22.53c-1.12,8.35-5,16.46-13.95,21.28l.31.6c9.29-5,13.23-13.37,14.36-21.86a52.66,52.66,0,0,0-2.47-22.83Zm-1.08-.53c-4.57,4.77-10.3,12.4-13.35,20.62S27.89,548,34.11,555.11l.57-.48c-6-6.92-5.68-15.52-2.68-23.6s8.66-15.64,13.19-20.35Zm-9.92,44.69,6.69-26.46-.71-.1L34,554.82Zm11.69-44.44a1,1,0,0,0-1.77-.25l.52.45a.33.33,0,0,1,.56.08Z" transform="translate(0.14 0)"/><path class="cls-3" d="M33.24,555C12.89,548.5,8,526,8.06,514.45c0-.49.64-.71,1.14-.39C21,521.54,40.72,539,34.12,554.69A.7.7,0,0,1,33.24,555Z" transform="translate(0.14 0)"/><path class="cls-1" d="M8.06,514.45l.39,0h0ZM33.24,555l-.09.3h0Zm-24-40.93-.2.25H9Zm24.92,40.63.37.14h0ZM8.45,514.49a53.31,53.31,0,0,0,4.91,22c3.73,7.83,10,15,20,18.16l-.18.6C22.81,552,16.43,544.63,12.65,536.7a53.77,53.77,0,0,1-5-22.3Zm1-.68c5.94,3.76,13.87,10,19.48,17.33s9,15.71,5.61,23.69l-.73-.29c3.24-7.72,0-15.89-5.51-23.1S14.87,518,9,514.31Zm23.93,40.88a.34.34,0,0,0,.43-.15l.73.29a1.06,1.06,0,0,1-1.34.46ZM7.68,514.4c0-.74,1-1.07,1.72-.59l-.4.5c-.24-.16-.55,0-.55.18Z" transform="translate(0.14 0)"/><path class="cls-3" d="M33.63,554.87c-18.28-9.81-15.56-33-11.7-44.25a.69.69,0,0,1,1.17-.17C32.2,519.93,45.87,540.8,33.63,554.87Z" transform="translate(0.14 0)"/><path class="cls-1" d="M21.93,510.62l-.35-.14h0Zm11.7,44.25.29.24-.18.2-.26-.14ZM23.1,510.45l-.26.23h0Zm3.48,18a.33.33,0,0,1,.27-.4.41.41,0,0,1,.44.3Zm-4.3-17.7a52,52,0,0,0-2.44,22.53c1.11,8.35,5,16.46,13.94,21.28l-.3.6c-9.29-5-13.23-13.37-14.36-21.86a52.67,52.67,0,0,1,2.46-22.83Zm1.07-.53c4.58,4.77,10.31,12.4,13.36,20.62s3.43,17.11-2.79,24.26l-.58-.48c6-6.92,5.68-15.52,2.68-23.6s-8.66-15.64-13.18-20.35Zm9.93,44.69-6.7-26.46.71-.1L34,554.82Zm-11.7-44.44a1,1,0,0,1,1.77-.25l-.51.45a.33.33,0,0,0-.56.08Z" transform="translate(0.14 0)"/><path class="cls-3" d="M34,554.78c15.7-12.17,7.16-34.2.49-44.74a.68.68,0,0,0-1.16,0C26.61,520.58,18.25,542.61,34,554.78Z" transform="translate(0.14 0)"/><path class="cls-1" d="M34.44,510l-.3.19h0ZM34,554.78l-.22.29.22.17.22-.17ZM33.28,510l.3.19h0Zm1,18.22a.36.36,0,1,0-.71,0Zm-.17-18c3.32,5.24,7.1,13.33,8.09,21.61s-.78,16.68-8.5,22.66l.44.57c8-6.19,9.79-14.89,8.77-23.32s-4.84-16.61-8.2-21.9ZM33,509.85c-3.35,5.3-7.13,13.49-8.1,21.91s.88,17.12,8.86,23.31l.44-.57c-7.72-6-9.54-14.39-8.59-22.66s4.68-16.37,8-21.61Zm1.34,44.93V528.26H33.6v26.52Zm.43-44.93a1,1,0,0,0-1.77,0l.61.38a.33.33,0,0,1,.56,0Z" transform="translate(0.14 0)"/><rect class="cls-1" x="272.16" width="68" height="68.03"/><ellipse class="cls-4" cx="306.17" cy="34.02" rx="27.2" ry="27.21"/><path class="cls-1" d="M302.32,17.66a.25.25,0,1,0-.42.27Zm3.38,24.45a.25.25,0,0,0,.25.25.24.24,0,0,0,.25-.25Zm-3.8-24.18c3.5,5.5,4,10,3.8,24.18h.5c.21-14.18-.29-18.81-3.88-24.45Z" transform="translate(0.14 0)"/><path class="cls-5" d="M303.45,16.71a4.55,4.55,0,0,1,.47,2.21,1.31,1.31,0,0,1-.59,1.19,1.29,1.29,0,0,1-1.29-.33,4.53,4.53,0,0,1-1.37-1.8,4.79,4.79,0,0,1-.47-2.21,1.31,1.31,0,0,1,.6-1.19,1.3,1.3,0,0,1,1.29.33A4.61,4.61,0,0,1,303.45,16.71Z" transform="translate(0.14 0)"/><path class="cls-3" d="M306,54.07c11.93-3.8,14.77-17,14.75-23.76,0-.29-.37-.41-.66-.23-6.92,4.39-18.47,14.61-14.61,23.81A.42.42,0,0,0,306,54.07Z" transform="translate(0.14 0)"/><path class="cls-1" d="M320.75,30.31l-.22,0h0ZM306,54.07l-.05-.18h0Zm14.09-24,.12.15h0ZM305.48,53.89l.22-.09h0Zm15-23.55a31.27,31.27,0,0,1-2.88,12.91A19.41,19.41,0,0,1,306,53.89l.11.35a19.92,19.92,0,0,0,12-10.89A31.61,31.61,0,0,0,321,30.28Zm-.56-.4a46.62,46.62,0,0,0-11.42,10.15c-3.29,4.29-5.25,9.21-3.28,13.88l.43-.17c-1.9-4.52,0-9.31,3.23-13.54a45.79,45.79,0,0,1,11.28-10Zm-14,24a.21.21,0,0,1-.25-.09l-.43.17a.62.62,0,0,0,.79.27Zm15-23.61c0-.43-.57-.63-1-.34l.24.29c.14-.09.32,0,.32.11Z" transform="translate(0.14 0)"/><path class="cls-3" d="M305.78,54c10.71-5.75,9.12-19.32,6.85-25.94A.4.4,0,0,0,312,28C306.62,33.52,298.61,45.75,305.78,54Z" transform="translate(0.14 0)"/><path class="cls-1" d="M312.63,28.06l.21-.08h0ZM305.78,54l-.17.14.1.12.16-.09ZM312,28l.15.13h0Zm-2,10.55a.19.19,0,0,0-.16-.23.24.24,0,0,0-.26.17Zm2.52-10.37a30.55,30.55,0,0,1,1.43,13.2c-.65,4.89-2.91,9.64-8.17,12.47l.18.35c5.44-2.92,7.75-7.83,8.41-12.81A31,31,0,0,0,312.84,28Zm-.63-.31A37.52,37.52,0,0,0,304,39.92c-1.78,4.82-2,10,1.64,14.22l.34-.28c-3.53-4.06-3.33-9.1-1.57-13.84A36.91,36.91,0,0,1,312.1,28.1ZM306,54l3.93-15.5-.42-.06L305.57,54Zm6.86-26a.62.62,0,0,0-1-.14l.3.26a.19.19,0,0,1,.33,0Z" transform="translate(0.14 0)"/><path class="cls-3" d="M305.78,54c10.71-5.75,9.12-19.32,6.85-25.94A.4.4,0,0,0,312,28C306.62,33.52,298.61,45.75,305.78,54Z" transform="translate(0.14 0)"/><path class="cls-1" d="M312.63,28.06l.21-.08h0ZM305.78,54l-.17.14.1.12.16-.09ZM312,28l.15.13h0Zm-2,10.55a.19.19,0,0,0-.16-.23.24.24,0,0,0-.26.17Zm2.52-10.37a30.55,30.55,0,0,1,1.43,13.2c-.65,4.89-2.91,9.64-8.17,12.47l.18.35c5.44-2.92,7.75-7.83,8.41-12.81A31,31,0,0,0,312.84,28Zm-.63-.31A37.52,37.52,0,0,0,304,39.92c-1.78,4.82-2,10,1.64,14.22l.34-.28c-3.53-4.06-3.33-9.1-1.57-13.84A36.91,36.91,0,0,1,312.1,28.1ZM306,54l3.93-15.5-.42-.06L305.57,54Zm6.86-26a.62.62,0,0,0-1-.14l.3.26a.19.19,0,0,1,.33,0Z" transform="translate(0.14 0)"/><path class="cls-3" d="M305.1,54.07c-11.92-3.8-14.77-17-14.75-23.76,0-.29.37-.41.67-.23,6.92,4.39,18.46,14.61,14.6,23.81A.42.42,0,0,1,305.1,54.07Z" transform="translate(0.14 0)"/><path class="cls-1" d="M290.35,30.31l.22,0h0ZM305.1,54.07l0-.18h0ZM291,30.08l-.12.15h0Zm14.6,23.81-.22-.09h0ZM290.57,30.34a31.27,31.27,0,0,0,2.88,12.91,19.41,19.41,0,0,0,11.7,10.64l-.1.35a19.86,19.86,0,0,1-12-10.89,31.48,31.48,0,0,1-2.92-13.07Zm.56-.4a46.44,46.44,0,0,1,11.42,10.15c3.29,4.29,5.25,9.21,3.28,13.88l-.43-.17c1.91-4.52,0-9.31-3.22-13.54a46.15,46.15,0,0,0-11.28-10Zm14,24a.2.2,0,0,0,.25-.09l.43.17a.62.62,0,0,1-.78.27Zm-15-23.61c0-.43.57-.63,1-.34l-.23.29c-.15-.09-.32,0-.33.11Z" transform="translate(0.14 0)"/><path class="cls-3" d="M305.33,54c-10.71-5.75-9.12-19.32-6.86-25.94a.41.41,0,0,1,.69-.09C304.49,33.52,312.5,45.75,305.33,54Z" transform="translate(0.14 0)"/><path class="cls-1" d="M298.47,28.06l-.2-.08h0ZM305.33,54l.17.14-.1.12-.16-.09Zm-6.17-26,.15-.13h0Zm2,10.55a.18.18,0,0,1,.16-.23.24.24,0,0,1,.26.17Zm-2.52-10.37a30.4,30.4,0,0,0-1.43,13.2c.65,4.89,2.9,9.64,8.17,12.47l-.18.35c-5.44-2.92-7.75-7.83-8.41-12.81A30.72,30.72,0,0,1,298.27,28Zm.63-.31a37.34,37.34,0,0,1,7.82,12.08c1.79,4.82,2,10-1.63,14.22l-.34-.28c3.53-4.06,3.33-9.1,1.57-13.84A37.07,37.07,0,0,0,299,28.1ZM305.12,54l-3.92-15.5.42-.06L305.54,54Zm-6.85-26a.62.62,0,0,1,1-.14l-.3.26a.19.19,0,0,0-.33,0Z" transform="translate(0.14 0)"/><path class="cls-3" d="M305.52,53.94c9.2-7.13,4.2-20,.28-26.21a.39.39,0,0,0-.68,0C301.22,33.9,296.32,46.81,305.52,53.94Z" transform="translate(0.14 0)"/><path class="cls-1" d="M305.8,27.73l.18-.12h0Zm-.28,26.21-.13.17.13.1.13-.1Zm-.4-26.21-.18-.12h0Zm.61,10.67a.21.21,0,0,0-.21-.21.21.21,0,0,0-.21.21Zm-.1-10.56a32.32,32.32,0,0,1,4.74,12.66c.58,4.84-.46,9.77-5,13.28l.26.33c4.67-3.63,5.73-8.72,5.14-13.66A32.83,32.83,0,0,0,306,27.61Zm-.69-.23a32.5,32.5,0,0,0-4.74,12.84c-.57,4.94.51,10,5.19,13.66l.26-.33c-4.53-3.51-5.59-8.44-5-13.28a32,32,0,0,1,4.69-12.66Zm.79,26.33V38.4h-.42V53.94ZM306,27.61a.62.62,0,0,0-1,0l.36.23a.19.19,0,0,1,.33,0Z" transform="translate(0.14 0)"/><rect class="cls-1" x="226.83" y="498.9" width="68" height="68.03"/><ellipse class="cls-4" cx="260.83" cy="532.91" rx="27.2" ry="27.21"/><path class="cls-1" d="M257,516.56a.25.25,0,1,0-.43.27ZM260.36,541a.25.25,0,0,0,.25.25.26.26,0,0,0,.26-.25Zm-3.8-24.18c3.5,5.5,4,10,3.8,24.18h.51c.21-14.18-.29-18.81-3.88-24.45Z" transform="translate(0.14 0)"/><path class="cls-6" d="M258.12,515.6a4.85,4.85,0,0,1,.47,2.22,1.07,1.07,0,0,1-1.89.86,5.17,5.17,0,0,1-1.84-4,1.33,1.33,0,0,1,.6-1.19,1.31,1.31,0,0,1,1.29.32A4.88,4.88,0,0,1,258.12,515.6Z" transform="translate(0.14 0)"/><path class="cls-3" d="M260.67,553c11.92-3.8,14.77-17,14.75-23.75,0-.29-.38-.42-.67-.23-6.92,4.39-18.47,14.6-14.6,23.81A.41.41,0,0,0,260.67,553Z" transform="translate(0.14 0)"/><path class="cls-1" d="M275.42,529.21l-.23,0h0ZM260.67,553l-.06-.17h0Zm14.08-24,.12.14h0Zm-14.6,23.81.21-.09h0Zm15-23.56a31.12,31.12,0,0,1-2.88,12.92,19.39,19.39,0,0,1-11.7,10.64l.11.35a19.91,19.91,0,0,0,12-10.9,31.57,31.57,0,0,0,2.91-13.06Zm-.56-.4A46.67,46.67,0,0,0,263.22,539c-3.29,4.28-5.25,9.21-3.29,13.88l.43-.17c-1.9-4.53,0-9.31,3.23-13.54a46.42,46.42,0,0,1,11.28-10Zm-14,24a.21.21,0,0,1-.25-.09l-.43.17a.62.62,0,0,0,.79.27Zm15-23.61c0-.43-.56-.63-1-.35l.24.29c.14-.09.32,0,.32.11Z" transform="translate(0.14 0)"/><path class="cls-3" d="M260.44,552.89c10.71-5.75,9.12-19.31,6.86-25.93a.41.41,0,0,0-.69-.09C261.28,532.42,253.27,544.65,260.44,552.89Z" transform="translate(0.14 0)"/><path class="cls-1" d="M267.3,527l.2-.08h0Zm-6.86,25.93-.17.14.1.12.16-.08Zm6.17-26,.15.13h0Zm-2,10.55a.18.18,0,0,0-.16-.23.24.24,0,0,0-.26.17ZM267.09,527a30.47,30.47,0,0,1,1.43,13.21c-.65,4.89-2.9,9.64-8.17,12.47l.18.35c5.44-2.92,7.75-7.83,8.42-12.81a30.86,30.86,0,0,0-1.45-13.38Zm-.63-.3a37.34,37.34,0,0,0-7.82,12.08c-1.79,4.82-2,10,1.63,14.21l.34-.28c-3.53-4-3.33-9.09-1.57-13.83A37.07,37.07,0,0,1,266.76,527Zm-5.81,26.18,3.92-15.5-.42-.06-3.92,15.5Zm6.85-26a.62.62,0,0,0-1-.14l.3.26a.19.19,0,0,1,.33,0Z" transform="translate(0.14 0)"/><path class="cls-3" d="M260.44,552.89c10.71-5.75,9.12-19.31,6.86-25.93a.41.41,0,0,0-.69-.09C261.28,532.42,253.27,544.65,260.44,552.89Z" transform="translate(0.14 0)"/><path class="cls-1" d="M267.3,527l.2-.08h0Zm-6.86,25.93-.17.14.1.12.16-.08Zm6.17-26,.15.13h0Zm-2,10.55a.18.18,0,0,0-.16-.23.24.24,0,0,0-.26.17ZM267.09,527a30.47,30.47,0,0,1,1.43,13.21c-.65,4.89-2.9,9.64-8.17,12.47l.18.35c5.44-2.92,7.75-7.83,8.42-12.81a30.86,30.86,0,0,0-1.45-13.38Zm-.63-.3a37.34,37.34,0,0,0-7.82,12.08c-1.79,4.82-2,10,1.63,14.21l.34-.28c-3.53-4-3.33-9.09-1.57-13.83A37.07,37.07,0,0,1,266.76,527Zm-5.81,26.18,3.92-15.5-.42-.06-3.92,15.5Zm6.85-26a.62.62,0,0,0-1-.14l.3.26a.19.19,0,0,1,.33,0Z" transform="translate(0.14 0)"/><path class="cls-3" d="M259.76,553c-11.92-3.8-14.77-17-14.75-23.75,0-.29.38-.42.67-.23,6.92,4.39,18.47,14.6,14.6,23.81A.41.41,0,0,1,259.76,553Z" transform="translate(0.14 0)"/><path class="cls-1" d="M245,529.21l.23,0h0ZM259.76,553l.05-.17h0Zm-14.08-24-.12.14h0Zm14.6,23.81-.21-.09h0Zm-15-23.56a31.12,31.12,0,0,0,2.88,12.92,19.4,19.4,0,0,0,11.69,10.64l-.1.35a19.88,19.88,0,0,1-12-10.9,31.41,31.41,0,0,1-2.91-13.06Zm.56-.4A46.67,46.67,0,0,1,257.21,539c3.29,4.28,5.25,9.21,3.29,13.88l-.43-.17c1.9-4.53,0-9.31-3.23-13.54a46.42,46.42,0,0,0-11.28-10Zm14,24a.22.22,0,0,0,.26-.09l.43.17a.63.63,0,0,1-.79.27Zm-15-23.61c0-.43.56-.63,1-.35l-.24.29c-.14-.09-.32,0-.32.11Z" transform="translate(0.14 0)"/><path class="cls-3" d="M260,552.89c-10.71-5.75-9.12-19.31-6.85-25.93a.4.4,0,0,1,.68-.09C259.15,532.42,267.16,544.65,260,552.89Z" transform="translate(0.14 0)"/><path class="cls-1" d="M253.14,527l-.21-.08h0ZM260,552.89l.17.14-.1.12-.16-.08Zm-6.17-26,.15-.13h0Zm2,10.55a.19.19,0,0,1,.16-.23.24.24,0,0,1,.26.17ZM253.34,527a30.62,30.62,0,0,0-1.43,13.21c.65,4.89,2.91,9.64,8.17,12.47l-.18.35c-5.44-2.92-7.75-7.83-8.41-12.81a31,31,0,0,1,1.44-13.38Zm.63-.3a37.52,37.52,0,0,1,7.83,12.08c1.78,4.82,2,10-1.64,14.21l-.34-.28c3.53-4,3.33-9.09,1.57-13.83A36.91,36.91,0,0,0,253.67,527Zm5.82,26.18-3.93-15.5.42-.06,3.92,15.5Zm-6.86-26a.62.62,0,0,1,1-.14l-.3.26a.2.2,0,0,0-.33,0Z" transform="translate(0.14 0)"/><path class="cls-3" d="M260.18,552.84c9.2-7.13,4.2-20,.29-26.22a.41.41,0,0,0-.69,0C255.88,532.8,251,545.71,260.18,552.84Z" transform="translate(0.14 0)"/><path class="cls-1" d="M260.47,526.62l.17-.11h0Zm-.29,26.22-.13.17.13.1.13-.1Zm-.4-26.22-.17-.11h0Zm.61,10.68a.21.21,0,0,0-.21-.21.21.21,0,0,0-.21.21Zm-.1-10.57A32.27,32.27,0,0,1,265,539.4c.59,4.84-.45,9.77-5,13.28l.26.33c4.68-3.63,5.73-8.72,5.14-13.66a32.77,32.77,0,0,0-4.81-12.84Zm-.68-.22a32.35,32.35,0,0,0-4.75,12.84c-.57,4.94.52,10,5.19,13.66l.26-.33c-4.52-3.51-5.59-8.44-5-13.28A32,32,0,0,1,260,526.73Zm.78,26.33V537.3H260v15.54Zm.25-26.33a.61.61,0,0,0-1,0l.35.22a.2.2,0,0,1,.33,0Z" transform="translate(0.14 0)"/><rect class="cls-2" x="0.14" y="204.09" width="68" height="68.03"/><ellipse class="cls-4" cx="34.15" cy="238.11" rx="26.52" ry="26.53"/><path class="cls-1" d="M30.3,221.75a.25.25,0,0,0-.42.28Zm3.38,24.45a.26.26,0,0,0,.25.26.26.26,0,0,0,.26-.25ZM29.88,222c3.5,5.5,4,10,3.8,24.17h.51c.2-14.18-.3-18.81-3.89-24.46Z" transform="translate(0.14 0)"/><path class="cls-5" d="M31.43,220.8A4.59,4.59,0,0,1,31.9,223a1.31,1.31,0,0,1-.59,1.19,1.33,1.33,0,0,1-1.3-.32,4.76,4.76,0,0,1-1.36-1.8,4.85,4.85,0,0,1-.47-2.22,1.29,1.29,0,0,1,.6-1.18,1.31,1.31,0,0,1,1.29.32A4.76,4.76,0,0,1,31.43,220.8Z" transform="translate(0.14 0)"/><path class="cls-3" d="M34,258.16c11.93-3.8,14.77-17,14.75-23.76,0-.28-.37-.41-.66-.22-6.92,4.38-18.47,14.6-14.61,23.8A.42.42,0,0,0,34,258.16Z" transform="translate(0.14 0)"/><path class="cls-1" d="M48.73,234.4l.23,0h0ZM34,258.16l0-.18h0Zm14.09-24L48,234h0ZM33.46,258l.22-.08h0Zm15-23.55a31.24,31.24,0,0,1-2.88,12.91A19.41,19.41,0,0,1,33.93,258l.11.36a19.93,19.93,0,0,0,12-10.9A31.6,31.6,0,0,0,49,234.38ZM48,234a46.47,46.47,0,0,0-11.42,10.16c-3.29,4.28-5.25,9.2-3.28,13.88l.43-.17c-1.9-4.53,0-9.32,3.23-13.54a45.64,45.64,0,0,1,11.28-10Zm-14,24a.19.19,0,0,1-.25-.08l-.43.17a.63.63,0,0,0,.79.27Zm15-23.6c0-.44-.57-.63-1-.35l.24.29c.14-.09.32,0,.32.11Z" transform="translate(0.14 0)"/><path class="cls-3" d="M33.76,258.09c10.71-5.75,9.12-19.32,6.85-25.93a.4.4,0,0,0-.68-.1C34.6,237.62,26.59,249.84,33.76,258.09Z" transform="translate(0.14 0)"/><path class="cls-1" d="M40.61,232.16l.21-.08Zm-6.85,25.93-.17.14.1.12.16-.08Zm6.17-26-.15-.13h0Zm-2,10.55a.2.2,0,0,0-.16-.23.25.25,0,0,0-.26.18Zm2.52-10.37a30.57,30.57,0,0,1,1.43,13.2c-.65,4.9-2.91,9.65-8.17,12.47l.18.36c5.44-2.93,7.75-7.84,8.41-12.82a31,31,0,0,0-1.44-13.37Zm-.63-.31A37.68,37.68,0,0,0,32,244c-1.78,4.82-2,10,1.64,14.21l.34-.28c-3.53-4.06-3.33-9.09-1.57-13.83a37,37,0,0,1,7.72-11.93ZM34,258.12l3.93-15.51-.42-.05-3.92,15.5Zm6.86-26a.62.62,0,0,0-1-.15l.3.26a.2.2,0,0,1,.33.05Z" transform="translate(0.14 0)"/><path class="cls-3" d="M33.76,258.09c10.71-5.75,9.12-19.32,6.85-25.93a.4.4,0,0,0-.68-.1C34.6,237.62,26.59,249.84,33.76,258.09Z" transform="translate(0.14 0)"/><path class="cls-1" d="M40.61,232.16l.21-.08Zm-6.85,25.93-.17.14.1.12.16-.08Zm6.17-26-.15-.13h0Zm-2,10.55a.2.2,0,0,0-.16-.23.25.25,0,0,0-.26.18Zm2.52-10.37a30.57,30.57,0,0,1,1.43,13.2c-.65,4.9-2.91,9.65-8.17,12.47l.18.36c5.44-2.93,7.75-7.84,8.41-12.82a31,31,0,0,0-1.44-13.37Zm-.63-.31A37.68,37.68,0,0,0,32,244c-1.78,4.82-2,10,1.64,14.21l.34-.28c-3.53-4.06-3.33-9.09-1.57-13.83a37,37,0,0,1,7.72-11.93ZM34,258.12l3.93-15.51-.42-.05-3.92,15.5Zm6.86-26a.62.62,0,0,0-1-.15l.3.26a.2.2,0,0,1,.33.05Z" transform="translate(0.14 0)"/><path class="cls-3" d="M33.08,258.16c-11.92-3.8-14.77-17-14.75-23.76,0-.28.37-.41.67-.22,6.92,4.38,18.46,14.6,14.6,23.8A.42.42,0,0,1,33.08,258.16Z" transform="translate(0.14 0)"/><path class="cls-1" d="M18.33,234.4l-.23,0h0Zm14.75,23.76.05-.18h0ZM19,234.18l.11-.15h0ZM33.6,258l-.22-.08h0Zm-15-23.55a31.24,31.24,0,0,0,2.88,12.91A19.41,19.41,0,0,0,33.13,258l-.1.36a19.88,19.88,0,0,1-12-10.9,31.47,31.47,0,0,1-2.92-13.06Zm.56-.4a46.29,46.29,0,0,1,11.42,10.16c3.29,4.28,5.25,9.2,3.28,13.88l-.43-.17c1.91-4.53,0-9.32-3.22-13.54a46,46,0,0,0-11.28-10Zm14,24a.19.19,0,0,0,.25-.08l.43.17a.62.62,0,0,1-.78.27Zm-15-23.6c0-.44.57-.63,1-.35l-.23.29c-.15-.09-.32,0-.33.11Z" transform="translate(0.14 0)"/><path class="cls-3" d="M33.31,258.09c-10.71-5.75-9.12-19.32-6.86-25.93a.41.41,0,0,1,.69-.1C32.47,237.62,40.48,249.84,33.31,258.09Z" transform="translate(0.14 0)"/><path class="cls-1" d="M26.45,232.16l-.2-.08h0Zm6.86,25.93.17.14-.1.12-.16-.08Zm-6.17-26,.15-.13h0Zm2,10.55a.18.18,0,0,1,.16-.23.25.25,0,0,1,.26.18Zm-2.52-10.37a30.42,30.42,0,0,0-1.43,13.2c.65,4.9,2.9,9.65,8.17,12.47l-.18.36c-5.44-2.93-7.75-7.84-8.41-12.82a30.68,30.68,0,0,1,1.44-13.37Zm.63-.31A37.5,37.5,0,0,1,35.11,244c1.79,4.82,2,10-1.63,14.21l-.34-.28c3.53-4.06,3.33-9.09,1.57-13.83A37.13,37.13,0,0,0,27,232.19Zm5.81,26.19-3.92-15.51.42-.05,3.92,15.5Zm-6.85-26a.62.62,0,0,1,1-.15l-.3.26a.2.2,0,0,0-.33.05Z" transform="translate(0.14 0)"/><path class="cls-3" d="M33.5,258c9.2-7.13,4.2-20.05.28-26.22a.4.4,0,0,0-.68,0C29.2,238,24.3,250.91,33.5,258Z" transform="translate(0.14 0)"/><path class="cls-1" d="M33.78,231.82l.18-.11h0ZM33.5,258l-.13.16.13.1.13-.1Zm-.4-26.22-.18-.11h0Zm.61,10.67a.22.22,0,0,0-.21-.21.21.21,0,0,0-.21.21Zm-.1-10.56a32.32,32.32,0,0,1,4.74,12.66c.58,4.85-.46,9.78-5,13.28l.26.33c4.67-3.62,5.73-8.72,5.14-13.66A32.72,32.72,0,0,0,34,231.71Zm-.69-.22a32.39,32.39,0,0,0-4.74,12.84c-.57,4.93.51,10,5.19,13.65l.26-.33c-4.53-3.5-5.59-8.43-5-13.28a32,32,0,0,1,4.69-12.66ZM33.71,258V242.49h-.42V258ZM34,231.71a.62.62,0,0,0-1,0l.36.22a.2.2,0,0,1,.33,0Z" transform="translate(0.14 0)"/><rect class="cls-2" x="498.85" y="294.8" width="68" height="68.03"/><ellipse class="cls-4" cx="532.85" cy="328.82" rx="26.52" ry="26.53"/><path class="cls-1" d="M529,312.46a.26.26,0,0,0-.35-.08.25.25,0,0,0-.08.35Zm3.37,24.45a.26.26,0,1,0,.51,0Zm-3.8-24.18c3.5,5.5,4,10,3.8,24.18h.51c.21-14.18-.29-18.81-3.88-24.46Z" transform="translate(0.14 0)"/><path class="cls-6" d="M530.14,311.51a4.84,4.84,0,0,1,.47,2.21,1.33,1.33,0,0,1-.6,1.19,1.31,1.31,0,0,1-1.29-.32,4.84,4.84,0,0,1-1.37-1.81,4.79,4.79,0,0,1-.47-2.21,1.33,1.33,0,0,1,.6-1.19,1.32,1.32,0,0,1,1.29.33A4.8,4.8,0,0,1,530.14,311.51Z" transform="translate(0.14 0)"/><path class="cls-3" d="M532.69,348.87c11.92-3.8,14.77-17,14.75-23.76,0-.28-.38-.41-.67-.23-6.92,4.39-18.47,14.61-14.6,23.81A.42.42,0,0,0,532.69,348.87Z" transform="translate(0.14 0)"/><path class="cls-1" d="M547.44,325.11l.22,0h0Zm-14.75,23.76-.06-.18h0Zm14.08-24-.12-.14h0Zm-14.6,23.81.21-.08h0Zm15-23.55a31.08,31.08,0,0,1-2.88,12.91,19.36,19.36,0,0,1-11.7,10.64l.11.36a19.93,19.93,0,0,0,12-10.9,31.61,31.61,0,0,0,2.91-13.07Zm-.56-.4a46.26,46.26,0,0,0-11.41,10.16c-3.29,4.28-5.25,9.2-3.29,13.88l.43-.17c-1.9-4.53,0-9.32,3.23-13.54a46,46,0,0,1,11.28-10Zm-14,23.95a.2.2,0,0,1-.25-.08l-.43.17a.65.65,0,0,0,.79.27Zm15-23.61c0-.43-.57-.62-1-.34l.24.29c.14-.09.32,0,.32.11Z" transform="translate(0.14 0)"/><path class="cls-3" d="M532.46,348.8c10.71-5.75,9.12-19.32,6.86-25.93a.41.41,0,0,0-.69-.1C533.3,328.32,525.29,340.55,532.46,348.8Z" transform="translate(0.14 0)"/><path class="cls-1" d="M539.32,322.87l.2-.08Zm-6.86,25.93-.17.14.1.12.16-.08Zm6.17-26-.15-.13h0Zm-2,10.55a.18.18,0,0,0-.16-.23.25.25,0,0,0-.26.18ZM539.11,323a30.42,30.42,0,0,1,1.43,13.2c-.65,4.9-2.9,9.65-8.17,12.47l.18.36c5.44-2.93,7.75-7.84,8.41-12.82a30.68,30.68,0,0,0-1.44-13.37Zm-.63-.31a37.45,37.45,0,0,0-7.82,12.08c-1.79,4.83-2,10,1.63,14.22l.34-.28c-3.53-4.06-3.33-9.09-1.57-13.83a37,37,0,0,1,7.72-11.93Zm-5.81,26.19,3.92-15.51-.42-.05-3.92,15.5Zm6.85-26a.61.61,0,0,0-1-.15l.3.26a.2.2,0,0,1,.33.05Z" transform="translate(0.14 0)"/><path class="cls-3" d="M532.46,348.8c10.71-5.75,9.12-19.32,6.86-25.93a.41.41,0,0,0-.69-.1C533.3,328.32,525.29,340.55,532.46,348.8Z" transform="translate(0.14 0)"/><path class="cls-1" d="M539.32,322.87l.2-.08Zm-6.86,25.93-.17.14.1.12.16-.08Zm6.17-26-.15-.13h0Zm-2,10.55a.18.18,0,0,0-.16-.23.25.25,0,0,0-.26.18ZM539.11,323a30.42,30.42,0,0,1,1.43,13.2c-.65,4.9-2.9,9.65-8.17,12.47l.18.36c5.44-2.93,7.75-7.84,8.41-12.82a30.68,30.68,0,0,0-1.44-13.37Zm-.63-.31a37.45,37.45,0,0,0-7.82,12.08c-1.79,4.83-2,10,1.63,14.22l.34-.28c-3.53-4.06-3.33-9.09-1.57-13.83a37,37,0,0,1,7.72-11.93Zm-5.81,26.19,3.92-15.51-.42-.05-3.92,15.5Zm6.85-26a.61.61,0,0,0-1-.15l.3.26a.2.2,0,0,1,.33.05Z" transform="translate(0.14 0)"/><path class="cls-3" d="M531.78,348.87c-11.92-3.8-14.77-17-14.75-23.76,0-.28.38-.41.67-.23,6.92,4.39,18.47,14.61,14.6,23.81A.42.42,0,0,1,531.78,348.87Z" transform="translate(0.14 0)"/><path class="cls-1" d="M517,325.11l-.23,0h0Zm14.75,23.76.05-.18h0Zm-14.08-24,.12-.14h0Zm14.6,23.81-.21-.08h0Zm-15-23.55a31.08,31.08,0,0,0,2.88,12.91,19.37,19.37,0,0,0,11.69,10.64l-.1.36a19.91,19.91,0,0,1-12-10.9,31.48,31.48,0,0,1-2.92-13.07Zm.56-.4a46.26,46.26,0,0,1,11.41,10.16c3.29,4.28,5.25,9.2,3.29,13.88l-.43-.17c1.9-4.53,0-9.32-3.23-13.54a46,46,0,0,0-11.28-10Zm14,23.95a.21.21,0,0,0,.26-.08l.43.17a.65.65,0,0,1-.79.27Zm-15-23.61c0-.43.57-.62,1-.34l-.24.29c-.14-.09-.32,0-.32.11Z" transform="translate(0.14 0)"/><path class="cls-3" d="M532,348.8c-10.71-5.75-9.12-19.32-6.85-25.93a.4.4,0,0,1,.68-.1C531.17,328.32,539.18,340.55,532,348.8Z" transform="translate(0.14 0)"/><path class="cls-1" d="M525.16,322.87l-.21-.08h0ZM532,348.8l.17.14-.1.12-.16-.08Zm-6.17-26,.15-.13h0Zm2,10.55a.2.2,0,0,1,.16-.23.25.25,0,0,1,.26.18ZM525.36,323a30.57,30.57,0,0,0-1.43,13.2c.65,4.9,2.91,9.65,8.17,12.47l-.18.36c-5.44-2.93-7.75-7.84-8.41-12.82A31,31,0,0,1,525,322.79Zm.63-.31a37.63,37.63,0,0,1,7.83,12.08c1.78,4.83,2,10-1.64,14.22l-.34-.28c3.53-4.06,3.33-9.09,1.57-13.83a36.85,36.85,0,0,0-7.72-11.93Zm5.82,26.19-3.93-15.51.42-.05,3.92,15.5Zm-6.86-26a.61.61,0,0,1,1-.15l-.3.26a.2.2,0,0,0-.33.05Z" transform="translate(0.14 0)"/><path class="cls-3" d="M532.2,348.75c9.2-7.14,4.2-20.05.29-26.22a.41.41,0,0,0-.69,0C527.9,328.7,523,341.61,532.2,348.75Z" transform="translate(0.14 0)"/><path class="cls-1" d="M532.49,322.53l.17-.11h0Zm-.29,26.22-.13.16.13.1.13-.1Zm-.4-26.22-.17-.11h0Zm.61,10.67a.21.21,0,0,0-.21-.21.22.22,0,0,0-.21.21Zm-.1-10.56a32.16,32.16,0,0,1,4.74,12.66c.59,4.85-.45,9.77-5,13.28l.26.33c4.68-3.62,5.73-8.72,5.14-13.66a32.72,32.72,0,0,0-4.81-12.83Zm-.68-.22a32.25,32.25,0,0,0-4.75,12.83c-.57,4.94.52,10,5.19,13.66l.26-.33c-4.52-3.51-5.59-8.43-5-13.28A31.84,31.84,0,0,1,532,322.64Zm.78,26.33V333.2H532v15.55Zm.25-26.33a.6.6,0,0,0-1,0l.35.22a.2.2,0,0,1,.33,0Z" transform="translate(0.14 0)"/><path class="cls-2" d="M103.26,18c15.77,5.79,27.8,2.78,32.42.27V29.06c-5.05,2.9-18.29,6.83-32.15-.11s-28.9-3.19-35.18-.24V17.9C73.42,15.45,87.23,12.13,103.26,18ZM103.2,41.8c13.82,8,27,3.74,32.48.33v8.7c-1.87,1.1-6.47,2.71-12.28,3.26a36.74,36.74,0,0,1-19.87-3.37,40,40,0,0,0-35.18-.24V41.7C74.31,38.34,89.34,33.79,103.2,41.8Zm0,21.11c15.28,6.32,27.59,1.14,32.44-2.66v7.44H68.35V62.8C73.64,60.12,87.76,56.49,103.24,62.91Zm32.44-57-.83.46c-3.35,1.85-5.69,3.13-9.91,3.26s-10.45-.92-21.48-3.84C85.58,1.06,73,3.54,68.35,5.59V.34h67.33Z" transform="translate(0.14 0)"/><path class="cls-7" d="M135.68,59.37c-4.34,3.68-16.68,9.32-32.18,2.91S74,59.31,68.35,62V51.24a39.29,39.29,0,0,1,34.87.09,37.48,37.48,0,0,0,20.25,3.44,35.67,35.67,0,0,0,12.21-3.16ZM68.35,40.92V29.47c6-2.92,21-6.85,34.87.09s27,3.24,32.46.28V41.32c-5,3.34-18.27,7.89-32.14-.11S74.64,37.52,68.35,40.92Zm0-23.77V6.34c4.19-2,16.78-4.69,34.94.11,11,2.92,17.3,4,21.67,3.87s6.85-1.49,10.2-3.34h0l.51-.28V17.5c-4.15,2.43-16.17,5.75-32.19-.13S73.8,14.65,68.35,17.15Z" transform="translate(0.14 0)"/><rect class="cls-8" x="68.49" y="0.34" width="67.32" height="67.35"/><rect class="cls-8" x="68.49" y="0.34" width="67.32" height="67.35"/><path class="cls-2" d="M466,516.91c15.78,5.78,27.8,2.78,32.42.27V528c-5,2.89-18.29,6.82-32.15-.11s-28.9-3.19-35.18-.24V516.8C436.11,514.35,449.93,511,466,516.91Zm-.05,23.78c13.81,8,27,3.75,32.47.34v8.7c-1.87,1.1-6.47,2.71-12.27,3.26a36.86,36.86,0,0,1-19.88-3.37,40,40,0,0,0-35.18-.24V540.6C437,537.24,452,532.69,465.9,540.69Zm0,21.11c15.28,6.33,27.59,1.15,32.43-2.65v7.44H431V561.7C436.33,559,450.45,555.39,465.94,561.8Zm32.43-57-.83.46c-3.35,1.85-5.68,3.13-9.91,3.26s-10.45-.93-21.48-3.85c-17.87-4.73-30.48-2.26-35.11-.2v-5.25h67.33Z" transform="translate(0.14 0)"/><path class="cls-7" d="M498.37,558.27c-4.33,3.67-16.67,9.32-32.17,2.9s-29.5-3-35.16-.23V550.13a39.36,39.36,0,0,1,34.88.1,37.42,37.42,0,0,0,20.24,3.43,35.42,35.42,0,0,0,12.21-3.15ZM431,539.82V528.36c6-2.91,21-6.84,34.88.1s27,3.23,32.45.28v11.48c-5,3.34-18.27,7.89-32.13-.12S437.33,536.42,431,539.82Zm0-23.77V505.24c4.19-2,16.78-4.7,34.94.11,11,2.92,17.3,4,21.67,3.87s6.85-1.49,10.21-3.34h0l.5-.27v10.8c-4.14,2.42-16.17,5.74-32.19-.13S436.49,513.54,431,516.05Z" transform="translate(0.14 0)"/><rect class="cls-8" x="431.18" y="499.24" width="67.32" height="67.35"/><rect class="cls-9" x="431.18" y="499.24" width="67.32" height="67.35"/><rect class="cls-10" x="498.8" y="226.75" width="68.13" height="68.16"/><path class="cls-11" d="M534,244.65c15.77,5.84,27.8,2.8,32.42.27v10.89c-5,2.93-18.29,6.89-32.15-.11s-28.9-3.22-35.18-.24V244.54C504.13,242.06,517.94,238.71,534,244.65Zm-.06,24c13.82,8.05,27,3.78,32.48.33v8.8a33.48,33.48,0,0,1-12.28,3.28,36.4,36.4,0,0,1-19.87-3.4,39.63,39.63,0,0,0-35.18-.24v-8.87C505,265.18,520.05,260.59,533.91,268.68ZM534,290c15.28,6.39,27.59,1.16,32.44-2.68v7.52H499.06v-4.95C504.35,287.19,518.47,283.52,534,290Zm32.44-57.56c-.29.15-.56.31-.83.46-3.35,1.86-5.69,3.16-9.91,3.29s-10.45-.93-21.48-3.88c-17.88-4.79-30.48-2.29-35.11-.21v-5.3h67.33Z" transform="translate(0.14 0)"/><rect class="cls-10" y="272.05" width="68.13" height="68.16"/><path class="cls-11" d="M35.24,290.24c15.78,5.85,27.81,2.81,32.42.27v10.9c-5,2.92-18.28,6.89-32.15-.11s-28.9-3.23-35.17-.24V290.13C5.41,287.66,19.22,284.3,35.24,290.24Zm-.05,24c13.81,8.06,27,3.79,32.47.34v8.79c-1.86,1.11-6.47,2.74-12.27,3.29a36.45,36.45,0,0,1-19.88-3.4A39.62,39.62,0,0,0,.34,323v-8.87C6.29,310.78,21.32,306.19,35.19,314.27Zm0,21.33c15.28,6.39,27.59,1.15,32.43-2.68v7.51H.34v-4.94C5.63,332.79,19.74,329.12,35.23,335.6ZM67.66,278l-.83.46c-3.35,1.87-5.68,3.17-9.91,3.3s-10.44-.94-21.47-3.89C17.57,273.12,5,275.62.34,277.69v-5.3H67.66Z" transform="translate(0.14 0)"/><rect class="cls-2" x="0.14" width="68" height="68.03"/><path class="cls-12" d="M53.46,34.56A19,19,0,0,1,34.28,53.34,19,19,0,0,1,15.1,34.56,19,19,0,0,1,34.28,15.79,19,19,0,0,1,53.46,34.56Z" transform="translate(0.14 0)"/><rect class="cls-3" x="30.46" y="6.8" width="7.2" height="54.43"/><polygon class="cls-3" points="8.3 23.83 11.87 17.69 59.99 44.66 56.42 50.8 8.3 23.83"/><polygon class="cls-3" points="59.99 23.83 56.42 17.69 8.3 44.66 11.87 50.8 59.99 23.83"/><rect class="cls-2" x="498.85" y="498.9" width="68" height="68.03"/><path class="cls-12" d="M552.16,533.46A19.18,19.18,0,1,1,533,514.68,19,19,0,0,1,552.16,533.46Z" transform="translate(0.14 0)"/><rect class="cls-3" x="529.17" y="505.7" width="7.2" height="54.43"/><polygon class="cls-3" points="507.01 522.73 510.58 516.59 558.69 543.56 555.12 549.7 507.01 522.73"/><polygon class="cls-3" points="558.69 522.73 555.12 516.59 507.01 543.56 510.58 549.7 558.69 522.73"/><rect class="cls-2" x="498.85" y="158.74" width="68" height="68.03"/><path class="cls-13" d="M552.16,193.3A19.18,19.18,0,1,1,533,174.53,19,19,0,0,1,552.16,193.3Z" transform="translate(0.14 0)"/><rect class="cls-4" x="529.17" y="165.54" width="7.2" height="54.43"/><polygon class="cls-4" points="507.01 182.57 510.57 176.43 558.69 203.4 555.12 209.54 507.01 182.57"/><polygon class="cls-4" points="558.69 182.57 555.12 176.43 507.01 203.4 510.58 209.54 558.69 182.57"/><path class="cls-3" d="M532.71,186l1.84,5,5,1.84-5,1.84-1.84,5-1.84-5-5-1.84,5-1.84Z" transform="translate(0.14 0)"/><rect class="cls-2" x="0.14" y="340.16" width="68" height="68.03"/><path class="cls-13" d="M53.46,374.72A19,19,0,0,1,34.28,393.5a18.78,18.78,0,1,1,0-37.56A19,19,0,0,1,53.46,374.72Z" transform="translate(0.14 0)"/><rect class="cls-4" x="30.46" y="346.96" width="7.2" height="54.43"/><polygon class="cls-4" points="8.3 363.99 11.87 357.85 59.99 384.82 56.42 390.96 8.3 363.99"/><polygon class="cls-4" points="59.99 363.99 56.42 357.85 8.3 384.82 11.87 390.96 59.99 363.99"/><path class="cls-3" d="M34,367.37l1.84,5,5,1.84-5,1.83L34,381l-1.84-5-5-1.83,5-1.84Z" transform="translate(0.14 0)"/><rect class="cls-2" x="0.14" y="408.19" width="68" height="90.71"/><rect class="cls-2" x="498.85" y="68.03" width="68" height="90.71"/><rect class="cls-2" x="408.17" width="90.67" height="68.03"/><rect class="cls-2" x="68.15" y="498.9" width="90.67" height="68.03"/><path class="cls-1" d="M532.71,85l6.89,18.62,18.61,6.89-18.61,6.89-6.89,18.63-6.89-18.63-18.61-6.89,18.61-6.89Z" transform="translate(0.14 0)"/><path class="cls-1" d="M34,425.2l6.89,18.62,18.61,6.89L40.9,457.6,34,476.22,27.12,457.6,8.51,450.71l18.61-6.89Z" transform="translate(0.14 0)"/><path class="cls-3" d="M474.6,26.21c-2.1-7.2-10-12.86-13.74-13.75-.78-1.68-3.25-5.41-6.88-6.87C451,6.78,447.81,11,446.55,13a23.25,23.25,0,0,0-13.26,13.27c-2.12,1.15-6,3.93-6.9,6.9a12.4,12.4,0,0,0,6.87,6.88c1.14,3.44,5.49,11,13.74,13.75.95,2,3.65,6.16,6.87,6.87,1.54-.18,5.47-3.4,6.9-6.9C467.66,52.56,474,44.06,474,40.52c1.86-1.13,6-4.2,7.43-7.44C480,30,476.28,27.23,474.6,26.21Z" transform="translate(0.14 0)"/><ellipse class="cls-1" cx="453.51" cy="34.02" rx="22.67" ry="22.68"/><path class="cls-2" d="M464.77,23.34,459.86,34l4.91,10.69L454.08,39.8,443.4,44.72,448.31,34,443.4,23.34l10.68,4.92Z" transform="translate(0.14 0)"/><path class="cls-3" d="M132.63,526c-2.1-7.2-10-12.85-13.74-13.74-.78-1.68-3.25-5.41-6.87-6.88-3,1.2-6.18,5.46-7.43,7.44a23.23,23.23,0,0,0-13.27,13.27c-2.12,1.15-6,3.93-6.9,6.9a12.36,12.36,0,0,0,6.87,6.87c1.14,3.45,5.49,11,13.74,13.75,1,2,3.65,6.17,6.87,6.88,1.54-.18,5.47-3.4,6.9-6.91,6.89-1.23,13.26-9.72,13.27-13.27,1.86-1.13,6-4.19,7.43-7.43C138,529.82,134.31,527,132.63,526Z" transform="translate(0.14 0)"/><ellipse class="cls-1" cx="111.54" cy="533.8" rx="22.67" ry="22.68"/><path class="cls-2" d="M122.8,523.13l-4.91,10.69,4.91,10.69-10.68-4.92-10.69,4.92,4.91-10.69-4.91-10.69L112.12,528Z" transform="translate(0.14 0)"/></svg>