<?xml version="1.0" encoding="utf-8"?>
<!-- Generator: Adobe Illustrator 25.2.3, SVG Export Plug-In . SVG Version: 6.00 Build 0)  -->
<svg version="1.1" id="Laag_1" xmlns="http://www.w3.org/2000/svg" xmlns:xlink="http://www.w3.org/1999/xlink" x="0px" y="0px"
	 viewBox="0 0 107.6 106.9" style="enable-background:new 0 0 107.6 106.9;" xml:space="preserve">
<style type="text/css">
	.st0{fill:#FFFFFF;}
	.st1{fill-rule:evenodd;clip-rule:evenodd;fill:#042E7A;}
	.st2{fill:#C7123D;}
	.st3{fill:#042E7A;}
	.st4{clip-path:url(#SVGID_2_);}
	.st5{clip-path:url(#SVGID_4_);}
	.st6{clip-path:url(#SVGID_6_);}
	.st7{clip-path:url(#SVGID_8_);}
</style>
<g>
	<rect x="0.1" class="st0" width="107.5" height="106.9"/>
	<rect x="0.1" y="12.8" class="st0" width="12.9" height="12.8"/>
	<path class="st1" d="M4.2,15.4v7.7h4.6c0.8,0,1.5-0.7,1.5-1.5c0,0,0,0,0,0v-4.6l-1.5,6.2l-1.5-7.7v7.7L4.2,15.4z"/>
	<path class="st2" d="M4.2,15.4c-0.8,0-1.5,0.7-1.5,1.5c0,0,0,0,0,0v4.6c0,0.8,0.7,1.5,1.5,1.5c0,0,0,0,0,0V15.4z"/>
	<path class="st2" d="M4.2,15.4l3.1,7.7v-7.7H4.2z"/>
	<path class="st2" d="M10.4,16.9c0-0.8-0.7-1.5-1.5-1.5c0,0,0,0,0,0H7.3l1.5,7.7L10.4,16.9z"/>
	<rect x="81.8" class="st0" width="12.9" height="12.8"/>
	<path class="st1" d="M86,2.6v7.7h4.6c0.8,0,1.5-0.7,1.5-1.5c0,0,0,0,0,0V4.1l-1.5,6.2L89,2.6v7.7L86,2.6z"/>
	<path class="st2" d="M86,2.6c-0.8,0-1.5,0.7-1.5,1.5c0,0,0,0,0,0v4.6c0,0.8,0.7,1.5,1.5,1.5c0,0,0,0,0,0V2.6z"/>
	<path class="st2" d="M86,2.6l3.1,7.7V2.6H86z"/>
	<path class="st2" d="M92.1,4.1c0-0.8-0.7-1.5-1.5-1.5c0,0,0,0,0,0H89l1.5,7.7L92.1,4.1z"/>
	<rect x="94.7" y="81.3" class="st0" width="12.9" height="12.8"/>
	<path class="st1" d="M98.9,83.8v7.7h4.6c0.8,0,1.5-0.7,1.5-1.5c0,0,0,0,0,0v-4.6l-1.5,6.2l-1.5-7.7v7.7L98.9,83.8z"/>
	<path class="st2" d="M98.9,83.8c-0.8,0-1.5,0.7-1.5,1.5c0,0,0,0,0,0V90c0,0.8,0.7,1.5,1.5,1.5c0,0,0,0,0,0V83.8z"/>
	<path class="st2" d="M98.9,83.8l3.1,7.7v-7.7H98.9z"/>
	<path class="st2" d="M105,85.4c0-0.8-0.7-1.5-1.5-1.5c0,0,0,0,0,0H102l1.5,7.7L105,85.4z"/>
	<rect x="13" y="94.1" class="st0" width="12.9" height="12.8"/>
	<path class="st1" d="M17.1,96.7v7.7h4.6c0.8,0,1.5-0.7,1.5-1.5c0,0,0,0,0,0v-4.6l-1.5,6.2l-1.5-7.7v7.7L17.1,96.7z"/>
	<path class="st2" d="M17.1,96.7c-0.8,0-1.5,0.7-1.5,1.5c0,0,0,0,0,0v4.6c0,0.8,0.7,1.5,1.5,1.5c0,0,0,0,0,0V96.7z"/>
	<path class="st2" d="M17.1,96.7l3.1,7.7v-7.7H17.1z"/>
	<path class="st2" d="M23.3,98.2c0-0.8-0.7-1.5-1.5-1.5c0,0,0,0,0,0h-1.5l1.5,7.7L23.3,98.2z"/>
	<rect x="94.7" y="12.8" class="st0" width="12.9" height="12.8"/>
	<path class="st3" d="M102.4,19.5c0,0.2-0.1,0.4-0.1,0.6c-0.1,0.2-0.2,0.3-0.3,0.4c-0.1,0.1-0.3,0.2-0.4,0.3
		c-0.2,0.1-0.3,0.1-0.5,0.1c-0.3,0-0.6-0.1-0.9-0.3c-0.1-0.1-0.2-0.2-0.3-0.3c-0.2-0.3-0.2-0.6-0.2-0.9c0-0.1,0-0.2,0.1-0.3
		c0.1-0.1,0.1-0.3,0.3-0.4c0.1-0.1,0.3-0.2,0.4-0.3c0.2-0.1,0.4-0.1,0.6-0.1c0.4,0,0.8,0.2,1.1,0.5c0.1,0.1,0.2,0.3,0.2,0.4
		C102.4,19.2,102.4,19.4,102.4,19.5z"/>
	<path class="st3" d="M102.3,17.4c-0.2,0.8-0.5,0.9-0.7,0.9c0.2,0.1,0.4,0.2,0.6,0.4c0.1-0.3,0.4-0.5,0.7-0.5c0.6-0.1,1.8-0.6,1-1.4
		S102.4,16.4,102.3,17.4z"/>
	<path class="st3" d="M102.3,19.1c0.1,0.2,0.1,0.3,0.1,0.5c0.2-0.2,0.9,0.2,1.2,0.4c1,0.4,1.6,0,1.6-0.4c0.1-1.2-0.9-1.3-1.4-1
		C103.4,18.8,102.9,19,102.3,19.1z"/>
	<path class="st3" d="M103.8,20.5c-0.5,0-1.1-0.1-1.6-0.4c-0.1,0.2-0.2,0.3-0.3,0.4c0.4,0,0.6,0.6,0.6,1c0.2,1.2,1.3,1.3,1.6,1
		C105.3,21.6,104.5,20.5,103.8,20.5z"/>
	<path class="st3" d="M101.5,20.8c-0.2,0.1-0.3,0.1-0.5,0.1c-1.1,1.5-0.2,2.1,0.4,2.1C102.7,22.9,102,21.5,101.5,20.8z"/>
	<path class="st3" d="M100.4,18.3c0.2-0.1,0.4-0.1,0.6-0.1c0.2-0.5,0.5-1,0.8-1.4c0.5-1.1-0.5-1.4-1-1.4c-1.6,0-1.1,1.6-0.6,2.1
		C100.8,18.1,100.6,18.2,100.4,18.3z"/>
	<path class="st3" d="M99.8,20.3c-1,0.2-2.7,1-1.6,2.1c0.3,0.2,0.6,0.4,1,0.4c0.5,0,0.8-0.6,0.8-1c0-0.4-0.3-1.1,0.1-1.1
		C100,20.5,99.9,20.4,99.8,20.3z"/>
	<path class="st3" d="M99.7,19.7c0-0.1,0-0.3,0-0.4c-0.5-0.1-1-0.2-1.4-0.4c-1.1-0.3-1.3,0.5-1.2,1c0.2,1.1,1.2,0.8,1.6,0.4
		C98.9,20.1,99.3,19.9,99.7,19.7z"/>
	<path class="st3" d="M98.7,18.4c0.4,0.1,0.8,0.3,1.1,0.7c0.1-0.1,0.1-0.3,0.3-0.4c-0.3-0.3-0.3-0.8-0.4-1.2
		c-0.3-1.4-1.3-1.3-1.8-0.8C96.9,17.5,98,18.2,98.7,18.4z"/>
	<rect x="81.8" y="94.1" class="st0" width="12.9" height="12.8"/>
	<path class="st3" d="M89.5,100.8c0,0.2-0.1,0.4-0.1,0.6c-0.1,0.2-0.2,0.3-0.3,0.4c-0.1,0.1-0.3,0.2-0.4,0.3
		c-0.2,0.1-0.3,0.1-0.5,0.1c-0.3,0-0.6-0.1-0.9-0.3c-0.1-0.1-0.2-0.2-0.3-0.3c-0.2-0.3-0.2-0.6-0.2-0.9c0-0.1,0-0.2,0.1-0.3
		c0.1-0.1,0.1-0.3,0.3-0.4c0.1-0.1,0.3-0.2,0.4-0.3c0.2-0.1,0.4-0.1,0.6-0.1c0.4,0,0.8,0.2,1.1,0.5c0.1,0.1,0.2,0.3,0.2,0.4
		C89.5,100.5,89.5,100.6,89.5,100.8z"/>
	<path class="st3" d="M89.4,98.6c-0.2,0.8-0.5,0.9-0.7,0.9c0.2,0.1,0.4,0.2,0.6,0.4c0.1-0.3,0.4-0.5,0.7-0.5c0.6-0.1,1.8-0.6,1-1.4
		C90.1,97.2,89.5,97.6,89.4,98.6z"/>
	<path class="st3" d="M89.4,100.3c0.1,0.2,0.1,0.3,0.1,0.5c0.2-0.2,0.9,0.2,1.2,0.4c1,0.4,1.6-0.1,1.6-0.4c0.1-1.2-0.9-1.3-1.4-1
		C90.5,100.1,90,100.3,89.4,100.3z"/>
	<path class="st3" d="M90.9,101.8c-0.5,0-1.1-0.1-1.6-0.4c-0.1,0.2-0.2,0.3-0.3,0.4c0.4,0,0.6,0.6,0.6,1c0.2,1.2,1.3,1.3,1.6,1
		C92.4,102.8,91.6,101.8,90.9,101.8z"/>
	<path class="st3" d="M88.6,102.1c-0.2,0.1-0.3,0.1-0.5,0.1c-1.1,1.5-0.2,2.1,0.4,2.1C89.8,104.2,89.1,102.8,88.6,102.1z"/>
	<path class="st3" d="M87.5,99.6c0.2-0.1,0.4-0.1,0.6-0.1c0.2-0.5,0.5-1,0.8-1.4c0.5-1.1-0.5-1.4-1-1.4c-1.6,0-1.1,1.6-0.6,2.1
		C87.9,99.4,87.7,99.4,87.5,99.6z"/>
	<path class="st3" d="M86.9,101.5c-1,0.2-2.7,1-1.6,2.1c0.3,0.2,0.6,0.4,1,0.4c0.5,0,0.8-0.6,0.8-1s-0.3-1.1,0.1-1.1
		C87.1,101.8,87,101.7,86.9,101.5z"/>
	<path class="st3" d="M86.8,101c0-0.1,0-0.3,0-0.4c-0.5-0.1-1-0.2-1.4-0.4c-1.1-0.3-1.3,0.5-1.2,1c0.2,1.1,1.2,0.8,1.6,0.4
		C86,101.3,86.4,101.1,86.8,101z"/>
	<path class="st3" d="M85.7,99.6c0.4,0.1,0.8,0.3,1.1,0.7c0.1-0.1,0.1-0.3,0.3-0.4c-0.3-0.3-0.3-0.8-0.4-1.2
		c-0.3-1.4-1.3-1.3-1.8-0.8C84,98.8,85,99.5,85.7,99.6z"/>
	<rect x="0.1" y="81.3" class="st0" width="12.9" height="12.8"/>
	<path class="st3" d="M7.8,88c0,0.2-0.1,0.4-0.1,0.6c-0.1,0.2-0.2,0.3-0.3,0.4c-0.1,0.1-0.3,0.2-0.4,0.3c-0.2,0.1-0.3,0.1-0.5,0.1
		c-0.3,0-0.7-0.1-0.9-0.3c-0.1-0.1-0.2-0.2-0.3-0.3C5,88.4,4.9,88.1,5,87.8c0-0.1,0-0.2,0.1-0.3c0.1-0.1,0.1-0.3,0.3-0.4
		c0.1-0.1,0.3-0.2,0.4-0.3c0.2-0.1,0.4-0.1,0.6-0.1c0.4,0,0.8,0.2,1.1,0.5c0.1,0.1,0.2,0.3,0.2,0.4C7.8,87.7,7.8,87.8,7.8,88z"/>
	<path class="st3" d="M7.6,85.8c-0.2,0.8-0.5,0.9-0.7,0.9c0.2,0.1,0.4,0.2,0.6,0.4c0.1-0.3,0.4-0.5,0.7-0.5c0.6-0.1,1.8-0.6,1-1.4
		C8.3,84.4,7.8,84.8,7.6,85.8z"/>
	<path class="st3" d="M7.7,87.5c0.1,0.2,0.1,0.3,0.1,0.5C8,87.8,8.7,88.2,9,88.4c1,0.4,1.6-0.1,1.6-0.4c0.1-1.2-0.9-1.3-1.4-1
		C8.7,87.3,8.2,87.4,7.7,87.5z"/>
	<path class="st3" d="M9.2,89c-0.5,0-1.1-0.1-1.6-0.4c-0.1,0.2-0.2,0.3-0.3,0.4c0.4,0,0.6,0.6,0.6,1c0.2,1.2,1.3,1.3,1.6,1
		C10.7,90,9.8,89,9.2,89z"/>
	<path class="st3" d="M6.9,89.3c-0.2,0.1-0.3,0.1-0.5,0.1c-1.1,1.5-0.2,2.1,0.4,2.1C8.1,91.4,7.4,89.9,6.9,89.3z"/>
	<path class="st3" d="M5.8,86.7c0.2-0.1,0.4-0.1,0.6-0.1c0.2-0.5,0.5-1,0.8-1.4c0.5-1.1-0.5-1.4-1-1.4c-1.6,0-1.1,1.6-0.6,2.1
		C6.1,86.5,5.9,86.6,5.8,86.7z"/>
	<path class="st3" d="M5.2,88.7c-1,0.2-2.7,1-1.6,2.1c0.3,0.2,0.6,0.4,1,0.4c0.5,0,0.8-0.6,0.8-1s-0.3-1.1,0.1-1.1
		C5.4,89,5.3,88.8,5.2,88.7z"/>
	<path class="st3" d="M5,88.2c0-0.1,0-0.3,0-0.4c-0.5-0.1-1-0.2-1.4-0.4c-1.1-0.3-1.3,0.5-1.2,1c0.2,1.1,1.2,0.8,1.6,0.4
		C4.3,88.5,4.7,88.3,5,88.2z"/>
	<path class="st3" d="M4,86.8c0.4,0.1,0.8,0.3,1.1,0.7c0.1-0.1,0.1-0.3,0.3-0.4C5,86.8,5.1,86.2,5,85.8c-0.3-1.4-1.3-1.3-1.8-0.8
		C2.3,86,3.3,86.7,4,86.8z"/>
	<rect x="13" class="st0" width="12.9" height="12.8"/>
	<path class="st3" d="M20.7,6.7c0,0.4-0.2,0.8-0.5,1.1C20.1,7.9,20,8,19.8,8.1c-0.2,0.1-0.3,0.1-0.5,0.1c-0.3,0-0.7-0.1-0.9-0.4
		c-0.1-0.1-0.2-0.2-0.3-0.3c-0.1-0.2-0.2-0.3-0.2-0.5c0-0.1,0-0.3,0-0.4c0-0.1,0-0.2,0.1-0.3c0.1-0.1,0.1-0.3,0.3-0.4
		c0.1-0.1,0.3-0.2,0.4-0.3c0.2-0.1,0.4-0.1,0.6-0.1c0.4,0,0.8,0.2,1.1,0.5c0.1,0.1,0.2,0.3,0.2,0.4C20.7,6.4,20.7,6.6,20.7,6.7z"/>
	<path class="st3" d="M20.5,4.5c-0.2,0.8-0.5,0.9-0.7,0.9c0.2,0.1,0.4,0.2,0.6,0.4c0.1-0.3,0.4-0.5,0.7-0.5c0.6-0.1,1.8-0.6,1-1.4
		C21.2,3.2,20.7,3.5,20.5,4.5z"/>
	<path class="st3" d="M20.6,6.2c0.1,0.2,0.1,0.3,0.1,0.5c0.2-0.2,0.9,0.2,1.2,0.4c1,0.4,1.6-0.1,1.6-0.4c0.1-1.2-0.9-1.3-1.4-1
		C21.6,6,21.1,6.2,20.6,6.2z"/>
	<path class="st3" d="M22.1,7.7c-0.5,0-1.1-0.1-1.6-0.4c-0.1,0.2-0.2,0.3-0.3,0.4c0.4,0,0.6,0.6,0.6,1c0.2,1.2,1.3,1.3,1.6,1
		C23.6,8.7,22.7,7.7,22.1,7.7z"/>
	<path class="st3" d="M19.8,8c-0.2,0.1-0.3,0.1-0.5,0.1c-1.1,1.5-0.2,2.1,0.4,2.1C21,10.1,20.3,8.7,19.8,8z"/>
	<path class="st3" d="M18.7,5.5c0.2-0.1,0.4-0.1,0.6-0.1c0.2-0.5,0.5-1,0.8-1.4c0.5-1.1-0.5-1.4-1-1.4c-1.6,0-1.1,1.6-0.6,2.1
		C19.1,5.3,18.8,5.3,18.7,5.5z"/>
	<path class="st3" d="M18.1,7.4c-1,0.2-2.7,1-1.6,2.1c0.3,0.2,0.6,0.4,1,0.4c0.5,0,0.8-0.6,0.8-1c0-0.4-0.3-1.1,0.1-1.1
		C18.3,7.7,18.2,7.6,18.1,7.4z"/>
	<path class="st3" d="M17.9,6.9c0-0.1,0-0.3,0-0.4c-0.5-0.1-1-0.2-1.4-0.4c-1.1-0.3-1.3,0.5-1.2,1c0.2,1.1,1.2,0.8,1.6,0.4
		C17.2,7.2,17.6,7,17.9,6.9z"/>
	<path class="st3" d="M16.9,5.5c0.4,0.1,0.8,0.3,1.1,0.7c0.1-0.1,0.1-0.3,0.3-0.4c-0.3-0.3-0.3-0.8-0.4-1.2
		c-0.3-1.4-1.3-1.3-1.8-0.8C15.2,4.7,16.2,5.4,16.9,5.5z"/>
	<rect x="0.1" class="st3" width="12.9" height="12.8"/>
	<path class="st2" d="M3.5,2.1H0.1v1h3.4v2.1h0.9V3.1h3.3v-1H4.4V0H3.5V2.1z"/>
	<path class="st2" d="M5.2,3.3l2.5,1.8V4.7L5.8,3.3H5.2z"/>
	<path class="st2" d="M5.4,1.7L7.8,0H7.1L4.9,1.7H5.4z"/>
	<path class="st2" d="M2.7,1.7L0.1,0v0.4l1.9,1.3H2.7z"/>
	<path class="st2" d="M2.5,3.3L0.1,5.1h0.5l2.4-1.8H2.5z"/>
	<path class="st0" d="M4.4,0v2.1h3.3V1.7H6.2l1.5-1.1V0L5.4,1.7H4.9L7.1,0H6.8L4.7,1.6V0H4.4z"/>
	<path class="st0" d="M7.8,3.1H4.4v2.1h0.3V3.5l2.2,1.6h0.9L5.2,3.3h0.6l1.9,1.4V4.5L6.2,3.3h1.5V3.1z"/>
	<path class="st0" d="M3.5,5.1V3.1H0.1v0.3h1.6L0.1,4.5v0.7l2.4-1.8h0.5L0.6,5.1H1l2.2-1.6v1.6H3.5z"/>
	<path class="st0" d="M0.1,2.1h3.4V0H3.2v1.6L1.1,0h-1l2.5,1.7H2.1L0.1,0.4v0.3l1.6,1.1H0.1V2.1z"/>
	<path class="st3" d="M1.7,1.7L0.1,0.7v1.1H1.7z"/>
	<path class="st3" d="M3.2,1.6V0H1.1L3.2,1.6z"/>
	<path class="st3" d="M4.7,0v1.6L6.8,0H4.7z"/>
	<path class="st3" d="M6.2,1.7h1.5V0.7L6.2,1.7z"/>
	<path class="st3" d="M7.8,3.3H6.2l1.5,1.1V3.3z"/>
	<path class="st3" d="M4.7,3.5v1.6h2.2L4.7,3.5z"/>
	<path class="st3" d="M3.2,3.5L1,5.1h2.2V3.5z"/>
	<path class="st3" d="M1.7,3.3H0.1v1.1L1.7,3.3z"/>
	<path class="st0" d="M3.2,7.2l0.3,1.4L4.8,8L4,9l1.2,0.6H3.8L4.1,11L3.2,10L2.3,11l0.3-1.3l-1.4,0l1.2-0.6L1.6,8l1.3,0.6L3.2,7.2z"
		/>
	<path class="st0" d="M10.4,0.8l0.2,0.7l0.6-0.3l-0.4,0.6L11.5,2h-0.7l0.1,0.7l-0.5-0.5L10,2.7L10.1,2H9.4L10,1.7L9.6,1.2l0.6,0.3
		L10.4,0.8z"/>
	<path class="st0" d="M11.8,4L12,4.6l0.6-0.3l-0.4,0.5L12.7,5h-0.6l0.1,0.6l-0.4-0.5l-0.4,0.5L11.6,5H11l0.5-0.3l-0.4-0.5l0.6,0.2
		L11.8,4z"/>
	<path class="st0" d="M8.2,5.5l0.2,0.6l0.6-0.2L8.6,6.3l0.5,0.3H8.5l0.1,0.6L8.2,6.7L7.8,7.2L8,6.6H7.4l0.5-0.3L7.5,5.9l0.6,0.2
		L8.2,5.5z"/>
	<path class="st0" d="M10.9,10l0.2,0.7l0.6-0.3l-0.4,0.6l0.6,0.3h-0.7l0.1,0.7l-0.5-0.5l-0.5,0.5l0.1-0.7H9.9l0.6-0.3l-0.4-0.6
		l0.6,0.3L10.9,10z"/>
	<path class="st0" d="M10.9,7.2l0.2,0.5h0.6L11.2,8l0.2,0.5l-0.5-0.3l-0.5,0.3L10.7,8l-0.5-0.3h0.6L10.9,7.2z"/>
	<rect x="94.7" class="st3" width="12.9" height="12.8"/>
	<path class="st2" d="M98.1,2.1h-3.4v1h3.4v2.1H99V3.1h3.4v-1H99V0h-0.9L98.1,2.1z"/>
	<path class="st2" d="M99.8,3.3l2.5,1.8V4.7l-1.9-1.4H99.8z"/>
	<path class="st2" d="M100,1.7l2.4-1.7h-0.6l-2.3,1.7H100z"/>
	<path class="st2" d="M97.3,1.7L94.7,0v0.4l1.9,1.3H97.3z"/>
	<path class="st2" d="M97.1,3.3l-2.4,1.8h0.5l2.4-1.8L97.1,3.3z"/>
	<path class="st0" d="M99,0v2.1h3.4V1.7h-1.6l1.5-1.1V0L100,1.7h-0.5l2.3-1.7h-0.3l-2.2,1.6V0H99z"/>
	<path class="st0" d="M102.4,3.1H99v2.1h0.3V3.5l2.2,1.6h0.9l-2.5-1.8h0.6l1.9,1.4V4.5l-1.5-1.1h1.5V3.1z"/>
	<path class="st0" d="M98.1,5.1V3.1h-3.4v0.3h1.6l-1.6,1.1v0.7l2.4-1.8h0.5l-2.4,1.8h0.4l2.2-1.6v1.6H98.1z"/>
	<path class="st0" d="M94.7,2.1h3.4V0h-0.3v1.6L95.7,0h-1l2.5,1.7h-0.6l-1.9-1.3v0.3l1.6,1.1h-1.6V2.1z"/>
	<path class="st3" d="M96.3,1.7l-1.6-1.1v1.1H96.3z"/>
	<path class="st3" d="M97.8,1.6V0h-2.1L97.8,1.6z"/>
	<path class="st3" d="M99.3,0v1.6l2.2-1.6H99.3z"/>
	<path class="st3" d="M100.8,1.7h1.5V0.7L100.8,1.7z"/>
	<path class="st3" d="M102.4,3.3h-1.5l1.5,1.1V3.3z"/>
	<path class="st3" d="M99.3,3.5v1.6h2.2L99.3,3.5z"/>
	<path class="st3" d="M97.8,3.5l-2.2,1.6h2.2V3.5z"/>
	<path class="st3" d="M96.3,3.3h-1.6v1.1L96.3,3.3z"/>
	<path class="st0" d="M97.8,7.2l0.3,1.4L99.4,8L98.6,9l1.2,0.6h-1.4l0.3,1.4L97.8,10L96.9,11l0.3-1.4h-1.4L97.1,9L96.2,8l1.3,0.6
		L97.8,7.2z"/>
	<path class="st0" d="M105,0.8l0.2,0.7l0.6-0.3l-0.4,0.6l0.6,0.3h-0.7l0.1,0.7l-0.5-0.5l-0.5,0.5l0.1-0.7h-0.7l0.6-0.3l-0.4-0.6
		l0.6,0.3L105,0.8z"/>
	<path class="st0" d="M106.5,4l0.2,0.6l0.6-0.3l-0.4,0.5l0.5,0.3h-0.6l0.1,0.6l-0.4-0.5l-0.4,0.5l0.1-0.6h-0.6l0.5-0.3l-0.4-0.5
		l0.6,0.2L106.5,4z"/>
	<path class="st0" d="M102.9,5.5l0.2,0.6l0.6-0.2l-0.4,0.5l0.5,0.3h-0.6l0.1,0.6l-0.4-0.5l-0.4,0.5l0.1-0.6H102l0.5-0.3l-0.4-0.5
		l0.6,0.2L102.9,5.5z"/>
	<path class="st0" d="M105.6,10l0.2,0.7l0.6-0.3l-0.4,0.6l0.6,0.3h-0.7l0.1,0.7l-0.5-0.5l-0.5,0.5l0.1-0.7h-0.7l0.6-0.3l-0.4-0.6
		l0.6,0.3L105.6,10z"/>
	<path class="st0" d="M105.6,7.2l0.2,0.5h0.6L105.8,8l0.2,0.5l-0.5-0.3l-0.5,0.3l0.2-0.5l-0.5-0.3h0.6L105.6,7.2z"/>
	<rect x="94.7" y="94.1" class="st3" width="12.9" height="12.8"/>
	<path class="st2" d="M98.1,96.2h-3.4v1h3.4v2.1H99v-2.1h3.4v-1H99v-2.1h-0.9L98.1,96.2z"/>
	<path class="st2" d="M99.8,97.4l2.5,1.8v-0.4l-1.9-1.4H99.8z"/>
	<path class="st2" d="M100,95.8l2.4-1.7h-0.6l-2.3,1.7H100z"/>
	<path class="st2" d="M97.3,95.8l-2.5-1.7v0.4l1.9,1.3H97.3z"/>
	<path class="st2" d="M97.1,97.4l-2.4,1.8h0.5l2.4-1.8H97.1z"/>
	<path class="st0" d="M99,94.1v2.1h3.4v-0.3h-1.6l1.5-1.1v-0.7l-2.4,1.7h-0.5l2.3-1.7h-0.3l-2.2,1.6v-1.6H99z"/>
	<path class="st0" d="M102.4,97.2H99v2.1h0.3v-1.6l2.2,1.6h0.9l-2.5-1.8h0.6l1.9,1.4v-0.3l-1.5-1.1h1.5L102.4,97.2z"/>
	<path class="st0" d="M98.1,99.2v-2.1h-3.4v0.3h1.6l-1.6,1.1v0.7l2.4-1.8h0.5l-2.4,1.8h0.4l2.2-1.6v1.6H98.1z"/>
	<path class="st0" d="M94.7,96.2h3.4v-2.1h-0.3v1.6l-2.1-1.6h-1l2.5,1.7h-0.6l-1.9-1.3v0.3l1.6,1.1h-1.6V96.2z"/>
	<path class="st3" d="M96.3,95.8l-1.6-1.1v1.1H96.3z"/>
	<path class="st3" d="M97.8,95.7v-1.6h-2.1L97.8,95.7z"/>
	<path class="st3" d="M99.3,94.1v1.6l2.2-1.6H99.3z"/>
	<path class="st3" d="M100.8,95.8h1.5v-1.1L100.8,95.8z"/>
	<path class="st3" d="M102.4,97.4h-1.5l1.5,1.1V97.4z"/>
	<path class="st3" d="M99.3,97.6v1.6h2.2L99.3,97.6z"/>
	<path class="st3" d="M97.8,97.6l-2.2,1.6h2.2V97.6z"/>
	<path class="st3" d="M96.3,97.4h-1.6v1.1L96.3,97.4z"/>
	<path class="st0" d="M97.8,101.3l0.3,1.4l1.3-0.6l-0.8,1.1l1.2,0.6h-1.4l0.3,1.4l-0.9-1.1l-0.9,1.1l0.3-1.4h-1.4l1.2-0.6l-0.8-1.1
		l1.3,0.6L97.8,101.3z"/>
	<path class="st0" d="M105,94.9l0.2,0.7l0.6-0.3l-0.4,0.6l0.6,0.3h-0.7l0.1,0.7l-0.5-0.5l-0.5,0.5l0.1-0.7h-0.7l0.6-0.3l-0.4-0.6
		l0.6,0.3L105,94.9z"/>
	<path class="st0" d="M106.5,98.1l0.2,0.6l0.6-0.2l-0.4,0.5l0.5,0.3h-0.6l0.1,0.6l-0.4-0.5l-0.4,0.5l0.1-0.6h-0.6l0.5-0.3l-0.4-0.5
		l0.6,0.2L106.5,98.1z"/>
	<path class="st0" d="M102.9,99.6l0.2,0.6l0.6-0.2l-0.4,0.5l0.5,0.3h-0.6l0.1,0.6l-0.4-0.5l-0.4,0.5l0.1-0.6H102l0.5-0.3l-0.4-0.5
		l0.6,0.2L102.9,99.6z"/>
	<path class="st0" d="M105.6,104.1l0.2,0.7l0.6-0.3L106,105l0.6,0.3h-0.7l0.1,0.7l-0.5-0.5l-0.5,0.5l0.1-0.7h-0.7l0.6-0.3l-0.4-0.6
		l0.6,0.3L105.6,104.1z"/>
	<path class="st0" d="M105.6,101.3l0.2,0.5h0.6l-0.5,0.3l0.2,0.5l-0.5-0.3l-0.5,0.3l0.2-0.5l-0.5-0.3h0.6L105.6,101.3z"/>
	<rect x="0.1" y="94.1" class="st3" width="12.9" height="12.8"/>
	<path class="st2" d="M3.5,96.2H0.1v1h3.4v2.1h0.9v-2.1h3.3v-1H4.4v-2.1H3.5V96.2z"/>
	<path class="st2" d="M5.2,97.4l2.5,1.8v-0.4l-1.9-1.4H5.2z"/>
	<path class="st2" d="M5.4,95.8l2.4-1.7H7.1l-2.3,1.7H5.4z"/>
	<path class="st2" d="M2.7,95.8l-2.5-1.7v0.4l1.9,1.3H2.7z"/>
	<path class="st2" d="M2.5,97.4l-2.4,1.8h0.5l2.4-1.8H2.5z"/>
	<path class="st0" d="M4.4,94.1v2.1h3.3v-0.3H6.2l1.5-1.1v-0.7l-2.4,1.7H4.9l2.3-1.7H6.8l-2.2,1.6v-1.6H4.4z"/>
	<path class="st0" d="M7.8,97.2H4.4v2.1h0.3v-1.6l2.2,1.6h0.9l-2.5-1.8h0.6l1.9,1.4v-0.3l-1.5-1.1h1.5V97.2z"/>
	<path class="st0" d="M3.5,99.2v-2.1H0.1v0.3h1.6l-1.6,1.1v0.7l2.4-1.8h0.5l-2.4,1.8H1l2.2-1.6v1.6H3.5z"/>
	<path class="st0" d="M0.1,96.2h3.4v-2.1H3.2v1.6l-2.1-1.6h-1l2.5,1.7H2.1l-1.9-1.3v0.3l1.6,1.1H0.1V96.2z"/>
	<path class="st3" d="M1.7,95.8l-1.6-1.1v1.1H1.7z"/>
	<path class="st3" d="M3.2,95.7v-1.6H1.1L3.2,95.7z"/>
	<path class="st3" d="M4.7,94.1v1.6l2.2-1.6H4.7z"/>
	<path class="st3" d="M6.2,95.8h1.5v-1.1L6.2,95.8z"/>
	<path class="st3" d="M7.8,97.4H6.2l1.5,1.1V97.4z"/>
	<path class="st3" d="M4.7,97.6v1.6h2.2L4.7,97.6z"/>
	<path class="st3" d="M3.2,97.6L1,99.2h2.2V97.6z"/>
	<path class="st3" d="M1.7,97.4H0.1v1.1L1.7,97.4z"/>
	<path class="st0" d="M3.2,101.3l0.3,1.4l1.3-0.6L4,103.1l1.2,0.6H3.8l0.3,1.4l-0.9-1.1l-0.9,1.1l0.3-1.4H1.2l1.2-0.6l-0.8-1.1
		l1.3,0.6L3.2,101.3z"/>
	<path class="st0" d="M10.4,94.9l0.2,0.7l0.6-0.3l-0.4,0.6l0.6,0.3h-0.7l0.1,0.7l-0.5-0.5L10,96.8l0.1-0.7H9.5l0.6-0.3l-0.4-0.6
		l0.6,0.3L10.4,94.9z"/>
	<path class="st0" d="M11.8,98.1l0.2,0.6l0.6-0.2l-0.4,0.5l0.5,0.3h-0.6l0.1,0.6l-0.4-0.5l-0.4,0.5l0.1-0.6H11l0.5-0.3l-0.4-0.5
		l0.6,0.2L11.8,98.1z"/>
	<path class="st0" d="M8.2,99.6l0.2,0.6l0.6-0.2l-0.4,0.5l0.5,0.3H8.5l0.1,0.6l-0.4-0.5l-0.4,0.5l0.1-0.6H7.4l0.5-0.3l-0.4-0.5
		l0.6,0.2L8.2,99.6z"/>
	<path class="st0" d="M10.9,104.1l0.2,0.7l0.6-0.3l-0.4,0.6l0.6,0.3h-0.7l0.1,0.7l-0.5-0.5l-0.5,0.5l0.1-0.7H9.9l0.6-0.3l-0.4-0.6
		l0.6,0.3L10.9,104.1z"/>
	<path class="st0" d="M10.9,101.3l0.2,0.5h0.6l-0.5,0.3l0.2,0.5l-0.5-0.3l-0.5,0.3l0.2-0.5l-0.5-0.3h0.6L10.9,101.3z"/>
	<g>
		<defs>
			<rect id="SVGID_1_" x="56" width="12.9" height="12.8"/>
		</defs>
		<clipPath id="SVGID_2_">
			<use xlink:href="#SVGID_1_"  style="overflow:visible;"/>
		</clipPath>
		<g class="st4">
			<rect x="56" class="st0" width="12.9" height="12.8"/>
			<path class="st2" d="M58.2,0.3c0.1,0.2,0.1,0.4,0.1,0.6c0,0.2,0,0.4-0.1,0.5c-0.1,0.1-0.2,0.3-0.3,0.4c-0.1,0.1-0.3,0.2-0.4,0.3
				c-0.3,0.1-0.6,0.2-1,0.1c-0.1,0-0.3-0.1-0.4-0.2c-0.2-0.1-0.3-0.2-0.4-0.4c0-0.1-0.1-0.1-0.1-0.2c0-0.1-0.1-0.1-0.1-0.2
				c0-0.1,0-0.2,0-0.3c0-0.2,0-0.3,0.1-0.5c0.1-0.4,0.4-0.7,0.8-0.8c0.4-0.2,0.8-0.2,1.2,0c0.1,0.1,0.3,0.2,0.4,0.3
				C58.1,0,58.2,0.1,58.2,0.3z"/>
			<path class="st2" d="M57.2-1.6c0.2,0.8-0.1,1.1-0.3,1.1c0.2,0,0.5,0,0.7,0.1c0-0.1,0-0.5,0.5-0.7s1.5-1.3,0.3-1.7
				S56.9-2.6,57.2-1.6z"/>
			<path class="st2" d="M58-0.1c0.1,0.1,0.2,0.3,0.3,0.4c0.1-0.2,0.9-0.2,1.2-0.1c1.1,0,1.4-0.7,1.3-1c-0.4-1.1-1.3-0.9-1.7-0.3
				C58.8-0.7,58.4-0.4,58-0.1z"/>
			<path class="st2" d="M59.9,0.6c-0.5,0.2-1,0.3-1.6,0.3c0,0.2,0,0.4-0.1,0.5c0.3-0.2,0.8,0.3,1,0.6c0.7,1.1,1.7,0.7,1.8,0.3
				C61.7,1,60.5,0.4,59.9,0.6z"/>
			<path class="st2" d="M58,1.8c-0.1,0.1-0.3,0.2-0.4,0.3c-0.4,1.8,0.7,2.1,1.2,1.8C59.9,3.3,58.7,2.3,58,1.8z"/>
			<path class="st2" d="M55.9,0c0.1-0.2,0.3-0.3,0.5-0.4c0-0.5,0-1.1,0.2-1.6c0-1.2-1-1.1-1.5-0.9c-1.5,0.6-0.4,1.9,0.3,2.2
				S56-0.2,55.9,0z"/>
			<path class="st2" d="M56.2,2c-0.8,0.6-2.1,2-0.6,2.5c0.3,0.1,0.7,0.1,1.1,0c0.5-0.2,0.5-0.9,0.3-1.3s-0.7-0.8-0.4-1.1
				C56.4,2.1,56.3,2.1,56.2,2z"/>
			<path class="st2" d="M55.8,1.6c0-0.1-0.1-0.1-0.1-0.2c0-0.1-0.1-0.1-0.1-0.2c-0.5,0.1-1,0.2-1.5,0.2c-1.1,0.2-0.9,1-0.7,1.4
				c0.6,0.9,1.4,0.2,1.6-0.3C55.3,2.2,55.5,1.9,55.8,1.6z"/>
			<path class="st2" d="M54.3,0.7c0.4-0.1,0.9-0.1,1.3,0.2c0-0.2,0-0.3,0.1-0.5c-0.4-0.1-0.6-0.7-0.8-1c-0.8-1.1-1.7-0.6-1.9,0
				C52.4,0.7,53.6,0.9,54.3,0.7z"/>
			<path class="st2" d="M69.4,11.4c0.1,0.1,0.3,0.3,0.3,0.5c0.1,0.2,0.1,0.3,0.1,0.5c0,0.2,0,0.3-0.1,0.5c-0.1,0.2-0.2,0.3-0.3,0.4
				c-0.2,0.2-0.6,0.4-0.9,0.4c-0.1,0-0.3,0-0.5,0c-0.2,0-0.3-0.1-0.5-0.2c-0.1,0-0.1-0.1-0.2-0.1l-0.1-0.1c-0.1-0.1-0.1-0.2-0.2-0.3
				c-0.1-0.2-0.1-0.3-0.1-0.5c0-0.2,0-0.3,0.1-0.5c0.1-0.3,0.4-0.6,0.7-0.8c0.2-0.1,0.5-0.1,0.7-0.1c0.2,0,0.3,0.1,0.5,0.1
				C69.2,11.2,69.3,11.3,69.4,11.4z"/>
			<path class="st2" d="M67.8,10c0.4,0.7,0.2,1.1,0.1,1.1c0.2-0.1,0.5-0.1,0.7-0.1c-0.1-0.3-0.1-0.6,0.2-0.9
				c0.4-0.5,0.9-1.7-0.2-1.7C67.4,8.5,67.2,9.1,67.8,10z"/>
			<path class="st2" d="M69,11.1c0.1,0.1,0.3,0.2,0.4,0.3c0-0.2,0.8-0.4,1.1-0.5c1-0.4,1.1-1.1,0.9-1.4c-0.8-0.9-1.5-0.4-1.7,0.2
				C69.6,10.3,69.4,10.7,69,11.1z"/>
			<path class="st2" d="M71.1,11.2c-0.4,0.4-0.9,0.6-1.4,0.8c0.1,0.2,0.1,0.3,0.1,0.5c0.3-0.3,0.9,0.1,1.1,0.3
				c1,0.7,1.8,0.1,1.8-0.4C72.9,10.9,71.6,10.7,71.1,11.2z"/>
			<path class="st2" d="M69.7,12.9c-0.1,0.2-0.2,0.3-0.3,0.4c0.2,1.8,1.3,1.7,1.8,1.3C72,13.7,70.5,13.1,69.7,12.9z"/>
			<path class="st2" d="M67.1,11.9c0.1-0.2,0.2-0.4,0.3-0.5c-0.2-0.5-0.3-1-0.4-1.6c-0.4-1.1-1.3-0.7-1.7-0.3
				c-1.2,1.1,0.3,1.9,1.1,2C67.3,11.5,67.1,11.8,67.1,11.9z"/>
			<path class="st2" d="M68.1,13.7c-0.6,0.8-1.3,2.5,0.3,2.6c0.4,0,0.7-0.2,1-0.4c0.3-0.4,0.2-0.9-0.1-1.3c-0.3-0.3-1-0.6-0.7-0.9
				C68.3,13.8,68.2,13.7,68.1,13.7z"/>
			<path class="st2" d="M67.6,13.5c-0.1,0-0.1-0.1-0.2-0.1l-0.1-0.1c-0.4,0.3-0.8,0.5-1.3,0.7c-1.1,0.5-0.5,1.2-0.2,1.5
				c0.9,0.7,1.4-0.2,1.4-0.8C67.3,14.2,67.4,13.8,67.6,13.5z"/>
			<path class="st2" d="M65.9,13.2c0.4-0.3,0.8-0.4,1.2-0.3c-0.1-0.2-0.1-0.3-0.1-0.5c-0.4,0-0.8-0.4-1.1-0.6
				c-1.2-0.8-1.8,0-1.8,0.7C64,13.7,65.3,13.5,65.9,13.2z"/>
			<path class="st3" d="M57.1,11.9c0.1,0.1,0.3,0.3,0.3,0.5c0.1,0.2,0.1,0.3,0.1,0.5c0,0.2,0,0.3-0.1,0.5c-0.1,0.2-0.2,0.3-0.3,0.4
				c-0.2,0.2-0.6,0.4-0.9,0.4c-0.1,0-0.3,0-0.5,0c-0.2,0-0.3-0.1-0.5-0.2c-0.1,0-0.1-0.1-0.2-0.1l-0.1-0.2c-0.1-0.1-0.1-0.2-0.2-0.3
				c-0.1-0.2-0.1-0.3-0.1-0.5c0-0.2,0-0.3,0.1-0.5c0.1-0.3,0.4-0.6,0.7-0.8c0.2-0.1,0.5-0.1,0.7-0.1c0.2,0,0.3,0.1,0.5,0.1
				C56.8,11.7,57,11.8,57.1,11.9z"/>
			<path class="st3" d="M55.4,10.5c0.4,0.7,0.2,1.1,0.1,1.1c0.2-0.1,0.5-0.1,0.7-0.1c-0.1-0.3-0.1-0.6,0.2-0.9
				c0.4-0.5,0.9-1.7-0.2-1.7S54.9,9.6,55.4,10.5z"/>
			<path class="st3" d="M56.7,11.7c0.1,0.1,0.3,0.2,0.4,0.3c0-0.2,0.8-0.4,1.1-0.5c1-0.4,1.1-1.1,0.9-1.4c-0.8-0.9-1.5-0.4-1.7,0.2
				C57.2,10.8,57,11.2,56.7,11.7z"/>
			<path class="st3" d="M58.7,11.7c-0.4,0.4-0.9,0.6-1.4,0.8c0.1,0.2,0.1,0.3,0.1,0.5c0.3-0.3,0.9,0,1.1,0.3c1,0.7,1.8,0.1,1.8-0.4
				C60.5,11.4,59.2,11.3,58.7,11.7z"/>
			<path class="st3" d="M57.3,13.5c-0.1,0.2-0.2,0.3-0.3,0.4c0.2,1.8,1.3,1.7,1.8,1.3C59.6,14.2,58.2,13.6,57.3,13.5z"/>
			<path class="st3" d="M54.7,12.4c0.1-0.2,0.2-0.4,0.3-0.5c-0.2-0.5-0.3-1-0.4-1.6C54.3,9.2,53.4,9.7,53,10c-1.2,1.1,0.3,1.9,1.1,2
				C54.7,12,54.8,12.2,54.7,12.4z"/>
			<path class="st3" d="M55.7,14.2c-0.6,0.8-1.3,2.5,0.3,2.6c0.4,0,0.7-0.2,1-0.4c0.3-0.4,0.2-0.9-0.1-1.3c-0.3-0.3-1-0.6-0.7-0.9
				C56,14.3,55.8,14.3,55.7,14.2z"/>
			<path class="st3" d="M55.2,14c-0.1,0-0.1-0.1-0.2-0.1l-0.1-0.1c-0.4,0.3-0.8,0.5-1.3,0.7c-1,0.5-0.5,1.2-0.2,1.5
				c0.9,0.7,1.4-0.2,1.4-0.8C54.9,14.7,55,14.3,55.2,14z"/>
			<path class="st3" d="M53.5,13.7c0.4-0.3,0.8-0.4,1.2-0.3c-0.1-0.2-0.1-0.3-0.1-0.5c-0.4,0-0.8-0.4-1.1-0.6
				c-1.2-0.8-1.8,0-1.8,0.7C51.6,14.3,52.9,14,53.5,13.7z"/>
			<path class="st3" d="M69.2-0.5c0.1,0.1,0.3,0.3,0.3,0.5c0.1,0.2,0.1,0.3,0.1,0.5c0,0.2-0.1,0.3-0.1,0.5c-0.1,0.2-0.2,0.3-0.3,0.4
				c-0.2,0.2-0.6,0.4-0.9,0.4c-0.2,0-0.3,0-0.5-0.1c-0.2,0-0.3-0.1-0.5-0.2l-0.2-0.1l-0.1-0.2C67,1.2,67,1.1,66.9,1
				c-0.1-0.2-0.1-0.3-0.1-0.5c0-0.2,0-0.3,0.1-0.5c0.1-0.2,0.2-0.4,0.3-0.5c0.1-0.1,0.2-0.2,0.4-0.3c0.2-0.1,0.5-0.1,0.7-0.1
				c0.2,0,0.3,0.1,0.5,0.1C69-0.7,69.1-0.6,69.2-0.5z"/>
			<path class="st3" d="M67.6-1.9c0.4,0.7,0.2,1.1,0.1,1.1c0.2-0.1,0.5-0.1,0.7-0.1c-0.1-0.3-0.1-0.6,0.2-0.9
				c0.4-0.5,0.9-1.7-0.2-1.7S67.1-2.8,67.6-1.9z"/>
			<path class="st3" d="M68.8-0.8c0.1,0.1,0.3,0.2,0.4,0.3c0-0.2,0.8-0.4,1.1-0.5c1-0.4,1.1-1.1,0.9-1.4c-0.8-0.9-1.5-0.4-1.7,0.2
				C69.4-1.6,69.2-1.2,68.8-0.8z"/>
			<path class="st3" d="M70.9-0.7c-0.4,0.4-0.9,0.6-1.4,0.7c0.1,0.2,0.1,0.3,0.1,0.5c0.3-0.3,0.9,0,1.1,0.3c1,0.7,1.8,0.1,1.8-0.4
				C72.7-1,71.4-1.2,70.9-0.7z"/>
			<path class="st3" d="M69.5,1.1c-0.1,0.2-0.2,0.3-0.3,0.4c0.2,1.8,1.3,1.7,1.8,1.3C71.8,1.8,70.3,1.2,69.5,1.1z"/>
			<path class="st3" d="M66.9,0c0.1-0.2,0.2-0.4,0.3-0.5c-0.2-0.5-0.3-1-0.4-1.6c-0.4-1.1-1.3-0.7-1.7-0.3c-1.2,1.1,0.3,1.9,1.1,2
				S67-0.2,66.9,0z"/>
			<path class="st3" d="M67.8,1.8c-0.6,0.8-1.3,2.5,0.3,2.6c0.4,0,0.7-0.1,1-0.4c0.3-0.3,0.2-1-0.1-1.3c-0.3-0.3-1-0.6-0.7-0.9
				C68.1,1.9,68,1.8,67.8,1.8z"/>
			<path class="st3" d="M67.4,1.6l-0.2-0.1l-0.1-0.2c-0.4,0.3-0.8,0.5-1.3,0.7c-0.4,0.1-0.7,0.6-0.6,1.1c0.1,0.2,0.2,0.4,0.4,0.5
				c0.9,0.7,1.4-0.2,1.4-0.8C67.1,2.3,67.2,1.9,67.4,1.6z"/>
			<path class="st3" d="M65.7,1.3C66.1,1,66.5,0.9,66.9,1c-0.1-0.2-0.1-0.3-0.1-0.5c-0.4,0-0.8-0.4-1.1-0.7c-1.2-0.8-1.8,0-1.8,0.7
				C63.8,1.8,65.1,1.6,65.7,1.3z"/>
			<path class="st3" d="M62.3,7.1c0,0.1,0,0.3-0.1,0.4c0,0.1-0.1,0.2-0.2,0.3C62,8,61.9,8,61.8,8.1c-0.1,0.1-0.2,0.1-0.3,0.1
				c-0.2,0-0.5,0-0.6-0.2c-0.1-0.1-0.2-0.1-0.2-0.2c-0.1-0.1-0.1-0.2-0.2-0.3c0,0,0-0.1,0-0.1c0,0,0-0.1,0-0.1c0-0.1,0-0.2,0-0.2
				c0-0.1,0.1-0.2,0.2-0.3c0.1-0.1,0.2-0.2,0.3-0.3c0.1-0.1,0.3-0.1,0.4-0.1c0.1,0,0.2,0,0.3,0c0.2,0,0.3,0.1,0.4,0.2
				c0.1,0.1,0.1,0.2,0.2,0.3C62.3,6.9,62.3,7,62.3,7.1z"/>
			<path class="st3" d="M62,5.7c-0.1,0.6-0.3,0.7-0.4,0.7c0.2,0,0.3,0.1,0.4,0.2c0-0.1,0.1-0.3,0.5-0.4s1.2-0.5,0.6-1.1
				S62.1,5,62,5.7z"/>
			<path class="st3" d="M62.2,6.8c0,0.1,0.1,0.2,0.1,0.3c0.1-0.1,0.6,0.1,0.8,0.2c0.7,0.2,1.1-0.1,1.1-0.4c0-0.8-0.7-0.9-1.1-0.6
				C62.9,6.6,62.6,6.7,62.2,6.8z"/>
			<path class="st3" d="M63.3,7.7c-0.4,0-0.7,0-1.1-0.2c0,0.1-0.1,0.2-0.2,0.3c0.3,0,0.4,0.4,0.5,0.6c0.2,0.8,0.9,0.8,1.2,0.6
				C64.4,8.3,63.8,7.7,63.3,7.7z"/>
			<path class="st3" d="M61.8,8.1c-0.1,0.1-0.2,0.1-0.3,0.1c-0.7,1.1,0,1.5,0.4,1.5C62.7,9.5,62.2,8.6,61.8,8.1z"/>
			<path class="st3" d="M60.9,6.4c0.1-0.1,0.3-0.1,0.4-0.1c0.1-0.4,0.3-0.7,0.5-1c0.3-0.8-0.4-0.9-0.8-0.9c-1.1,0.1-0.7,1.2-0.3,1.5
				C61.1,6.3,60.9,6.3,60.9,6.4z"/>
			<path class="st3" d="M60.6,7.8c-0.7,0.2-1.8,0.8-1,1.5c0.2,0.2,0.5,0.2,0.7,0.2c0.3,0,0.5-0.5,0.5-0.7s-0.3-0.7,0-0.8
				C60.7,8,60.6,7.9,60.6,7.8z"/>
			<path class="st3" d="M60.4,7.5c0,0,0-0.1,0-0.1c0,0,0-0.1,0-0.1c-0.3,0-0.7-0.1-1-0.2c-0.8-0.1-0.8,0.4-0.8,0.8
				c0.2,0.7,0.9,0.5,1.1,0.2C59.9,7.8,60.2,7.6,60.4,7.5z"/>
			<path class="st3" d="M59.6,6.6c0.3,0,0.6,0.2,0.8,0.4c0-0.1,0.1-0.2,0.2-0.3c-0.2-0.2-0.2-0.6-0.3-0.8c-0.3-0.9-1-0.8-1.3-0.4
				C58.4,6.1,59.2,6.5,59.6,6.6z"/>
			<path class="st2" d="M64.6,6.1c0,0.1,0,0.3,0,0.4c0,0.1-0.1,0.2-0.2,0.3c-0.1,0.1-0.2,0.2-0.3,0.2c-0.1,0.1-0.2,0.1-0.3,0.1
				c-0.2,0-0.5,0-0.6-0.2C63.1,6.9,63,6.9,63,6.8c-0.1-0.1-0.2-0.2-0.2-0.4c0,0,0-0.1,0-0.1c0,0,0-0.1,0-0.1c0-0.1,0-0.2,0-0.2
				c0-0.1,0.1-0.2,0.2-0.3c0.1-0.1,0.2-0.2,0.3-0.3c0.1-0.1,0.2-0.1,0.4-0.1c0.1,0,0.2,0,0.3,0c0.2,0,0.3,0.1,0.4,0.2
				c0.1,0.1,0.1,0.2,0.2,0.3C64.6,5.9,64.6,6,64.6,6.1z"/>
			<path class="st2" d="M64.4,4.6c0,0.6-0.3,0.7-0.4,0.7c0.2,0,0.3,0.1,0.4,0.2c0-0.1,0.1-0.3,0.5-0.4s1.2-0.5,0.6-1
				C64.8,3.6,64.4,3.9,64.4,4.6z"/>
			<path class="st2" d="M64.5,5.8c0,0.1,0.1,0.2,0.1,0.3c0.1-0.1,0.6,0.1,0.8,0.2c0.7,0.2,1.1-0.1,1.1-0.4c0-0.8-0.7-0.9-1-0.6
				C65.2,5.6,64.9,5.7,64.5,5.8z"/>
			<path class="st2" d="M65.7,6.7c-0.4,0-0.7,0-1.1-0.2c0,0.1-0.1,0.2-0.2,0.3c0.3,0,0.4,0.4,0.5,0.6c0.2,0.8,0.9,0.8,1.2,0.6
				C66.8,7.3,66.1,6.7,65.7,6.7z"/>
			<path class="st2" d="M64.1,7.1c-0.1,0.1-0.2,0.1-0.3,0.1c-0.7,1.1,0,1.5,0.4,1.5C65.1,8.4,64.5,7.5,64.1,7.1z"/>
			<path class="st2" d="M63.2,5.3c0.1-0.1,0.2-0.1,0.4-0.1c0.1-0.3,0.3-0.7,0.5-1c0.3-0.8-0.4-0.9-0.8-0.9c-1.1,0.1-0.7,1.2-0.3,1.5
				C63.4,5.3,63.3,5.3,63.2,5.3z"/>
			<path class="st2" d="M62.9,6.8c-0.7,0.2-1.8,0.8-1,1.5c0.2,0.2,0.5,0.2,0.7,0.2c0.3,0,0.5-0.5,0.5-0.7c0-0.3-0.3-0.7,0-0.8
				C63,6.9,63,6.9,62.9,6.8z"/>
			<path class="st2" d="M62.7,6.4c0,0,0-0.1,0-0.1c0,0,0-0.1,0-0.1c-0.3,0-0.7-0.1-1-0.2C61,5.8,60.9,6.4,61,6.7
				c0.2,0.7,0.9,0.5,1.1,0.2C62.3,6.7,62.5,6.5,62.7,6.4z"/>
			<path class="st2" d="M62,5.5c0.3,0,0.6,0.2,0.8,0.4c0-0.1,0.1-0.2,0.2-0.3c-0.2-0.2-0.2-0.6-0.3-0.8c-0.3-0.9-1-0.8-1.3-0.4
				C60.7,5.1,61.5,5.5,62,5.5z"/>
		</g>
	</g>
	<g>
		<defs>
			<rect id="SVGID_3_" x="94.7" y="55.6" width="12.9" height="12.8"/>
		</defs>
		<clipPath id="SVGID_4_">
			<use xlink:href="#SVGID_3_"  style="overflow:visible;"/>
		</clipPath>
		<g class="st5">
			<rect x="94.7" y="55.6" class="st0" width="12.9" height="12.8"/>
			<path class="st2" d="M96.9,55.9c0.1,0.2,0.1,0.4,0.1,0.6c0,0.2,0,0.4-0.1,0.5c-0.1,0.1-0.2,0.3-0.3,0.4c-0.1,0.1-0.3,0.2-0.4,0.3
				c-0.3,0.1-0.6,0.2-1,0.1c-0.1,0-0.3-0.1-0.4-0.2c-0.2-0.1-0.3-0.2-0.4-0.4c0-0.1-0.1-0.1-0.1-0.2c0-0.1-0.1-0.1-0.1-0.2
				c-0.1-0.3-0.1-0.5,0-0.8c0.1-0.4,0.4-0.7,0.8-0.8c0.4-0.2,0.8-0.2,1.2,0C96.6,55.3,96.8,55.6,96.9,55.9L96.9,55.9z"/>
			<path class="st2" d="M95.9,54c0.2,0.8-0.1,1.1-0.3,1.1c0.2,0,0.5,0,0.7,0.1c0-0.1,0-0.5,0.5-0.7c0.5-0.3,1.5-1.3,0.3-1.7
				S95.7,53,95.9,54z"/>
			<path class="st2" d="M96.7,55.5c0.1,0.1,0.2,0.3,0.3,0.4c0.1-0.2,0.9-0.2,1.2-0.1c1.1,0,1.4-0.7,1.3-1c-0.4-1.1-1.3-0.9-1.7-0.3
				C97.5,54.9,97.1,55.2,96.7,55.5z"/>
			<path class="st2" d="M98.6,56.2c-0.5,0.2-1,0.3-1.6,0.3c0,0.2,0,0.4-0.1,0.5c0.3-0.2,0.8,0.3,1,0.6c0.7,1.1,1.7,0.7,1.8,0.3
				C100.4,56.6,99.2,56,98.6,56.2z"/>
			<path class="st2" d="M96.7,57.4c-0.1,0.1-0.3,0.2-0.4,0.3c-0.4,1.8,0.7,2.1,1.2,1.8C98.6,58.9,97.4,57.9,96.7,57.4z"/>
			<path class="st2" d="M94.6,55.6c0.1-0.2,0.3-0.3,0.5-0.4c0-0.5,0-1.1,0.2-1.6c0-1.2-1-1.1-1.5-0.9c-1.5,0.6-0.4,1.9,0.3,2.2
				C94.9,55.3,94.7,55.4,94.6,55.6z"/>
			<path class="st2" d="M94.9,57.6c-0.8,0.6-2.1,2-0.6,2.5c0.3,0.1,0.7,0.1,1.1,0c0.4-0.2,0.5-0.9,0.3-1.2c-0.2-0.4-0.7-0.8-0.4-1.1
				C95.1,57.8,95,57.7,94.9,57.6z"/>
			<path class="st2" d="M94.5,57.2c0-0.1-0.1-0.1-0.1-0.2c0-0.1-0.1-0.1-0.1-0.2c-0.5,0.1-1,0.2-1.5,0.2c-1.1,0.2-0.9,1-0.7,1.4
				c0.6,0.9,1.4,0.2,1.6-0.3C94,57.8,94.2,57.5,94.5,57.2z"/>
			<path class="st2" d="M93,56.3c0.4-0.1,0.9-0.1,1.3,0.2c0-0.2,0-0.3,0.1-0.5c-0.4-0.1-0.6-0.7-0.8-1c-0.8-1.1-1.7-0.6-1.9,0
				C91.1,56.3,92.4,56.5,93,56.3z"/>
			<path class="st2" d="M108.1,67c0.1,0.1,0.3,0.3,0.3,0.5c0.1,0.2,0.1,0.3,0.1,0.5c0,0.2,0,0.3-0.1,0.5c-0.1,0.2-0.2,0.3-0.3,0.4
				c-0.2,0.2-0.6,0.4-0.9,0.4c-0.1,0-0.3,0-0.5,0c-0.2,0-0.3-0.1-0.5-0.2c-0.1,0-0.1-0.1-0.2-0.1l-0.1-0.1c-0.1-0.1-0.1-0.2-0.2-0.3
				c-0.1-0.2-0.1-0.3-0.1-0.5c0-0.2,0-0.3,0.1-0.5c0.1-0.3,0.4-0.6,0.7-0.8c0.2-0.1,0.5-0.1,0.7-0.1c0.2,0,0.3,0.1,0.5,0.1
				C107.9,66.8,108,66.9,108.1,67z"/>
			<path class="st2" d="M106.5,65.6c0.4,0.7,0.2,1.1,0.1,1.1c0.2-0.1,0.5-0.1,0.7-0.1c-0.1-0.3-0.1-0.6,0.2-0.9
				c0.4-0.5,0.9-1.7-0.2-1.7S106,64.7,106.5,65.6z"/>
			<path class="st2" d="M107.7,66.7c0.1,0.1,0.3,0.2,0.4,0.3c0-0.2,0.8-0.4,1.1-0.5c1-0.4,1.1-1.1,0.9-1.4c-0.8-0.9-1.5-0.4-1.7,0.2
				C108.3,65.9,108.1,66.3,107.7,66.7z"/>
			<path class="st2" d="M109.8,66.8c-0.4,0.4-0.9,0.6-1.4,0.8c0.1,0.2,0.1,0.3,0.1,0.5c0.3-0.3,0.9,0.1,1.1,0.3
				c1,0.7,1.8,0.1,1.8-0.4C111.6,66.5,110.3,66.3,109.8,66.8z"/>
			<path class="st2" d="M108.4,68.5c-0.1,0.2-0.2,0.3-0.3,0.4c0.2,1.8,1.3,1.7,1.8,1.3C110.7,69.3,109.2,68.7,108.4,68.5z"/>
			<path class="st2" d="M105.8,67.5c0.1-0.2,0.2-0.4,0.3-0.5c-0.2-0.5-0.3-1-0.4-1.6c-0.4-1.1-1.3-0.7-1.7-0.3
				c-1.2,1.1,0.3,1.9,1.1,2C105.8,67.1,105.9,67.4,105.8,67.5z"/>
			<path class="st2" d="M106.8,69.3c-0.6,0.8-1.3,2.5,0.3,2.6c0.4,0,0.7-0.2,1-0.4c0.3-0.4,0.2-0.9-0.1-1.3c-0.3-0.3-1-0.6-0.7-0.9
				C107.1,69.4,106.9,69.3,106.8,69.3z"/>
			<path class="st2" d="M106.3,69.1c-0.1,0-0.1-0.1-0.2-0.1l-0.1-0.1c-0.4,0.3-0.8,0.5-1.3,0.7c-1.1,0.5-0.5,1.2-0.2,1.5
				c0.9,0.7,1.4-0.2,1.4-0.8C106,69.8,106.1,69.4,106.3,69.1z"/>
			<path class="st2" d="M104.6,68.7c0.4-0.3,0.8-0.4,1.2-0.3c-0.1-0.2-0.1-0.3-0.1-0.5c-0.4,0-0.8-0.4-1.1-0.6
				c-1.2-0.8-1.8,0-1.8,0.7C102.7,69.3,104,69.1,104.6,68.7z"/>
			<path class="st3" d="M95.8,67.5c0.1,0.1,0.3,0.3,0.3,0.5c0.1,0.2,0.1,0.3,0.1,0.5c0,0.2,0,0.3-0.1,0.5c-0.1,0.2-0.2,0.3-0.3,0.4
				c-0.2,0.2-0.6,0.4-0.9,0.4c-0.1,0-0.3,0-0.5,0c-0.2,0-0.3-0.1-0.5-0.2c-0.1,0-0.1-0.1-0.2-0.1l-0.1-0.2c-0.1-0.1-0.1-0.2-0.2-0.3
				c-0.1-0.2-0.1-0.3-0.1-0.5c0-0.2,0-0.3,0.1-0.5c0.1-0.3,0.4-0.6,0.7-0.8c0.2-0.1,0.5-0.1,0.7-0.1c0.2,0,0.3,0.1,0.5,0.1
				C95.6,67.3,95.7,67.4,95.8,67.5z"/>
			<path class="st3" d="M94.1,66.1c0.4,0.7,0.2,1.1,0.1,1.1c0.2-0.1,0.5-0.1,0.7-0.1c-0.1-0.3-0.1-0.6,0.2-0.9
				c0.4-0.5,0.9-1.7-0.2-1.7S93.6,65.2,94.1,66.1z"/>
			<path class="st3" d="M95.4,67.3c0.1,0.1,0.3,0.2,0.4,0.3c0-0.2,0.8-0.4,1.1-0.5c1-0.4,1.1-1.1,0.9-1.4c-0.8-0.9-1.5-0.4-1.7,0.2
				C95.9,66.4,95.7,66.8,95.4,67.3z"/>
			<path class="st3" d="M97.4,67.3c-0.4,0.4-0.9,0.6-1.4,0.8c0.1,0.2,0.1,0.3,0.1,0.5c0.3-0.3,0.9,0,1.1,0.3c1,0.7,1.8,0.1,1.8-0.4
				C99.2,67,98,66.9,97.4,67.3z"/>
			<path class="st3" d="M96,69.1c-0.1,0.2-0.2,0.3-0.3,0.4c0.2,1.8,1.3,1.7,1.8,1.3C98.3,69.8,96.9,69.2,96,69.1z"/>
			<path class="st3" d="M93.4,68c0.1-0.2,0.2-0.4,0.3-0.5c-0.2-0.5-0.3-1-0.4-1.6c-0.4-1.1-1.3-0.7-1.7-0.3c-1.2,1.1,0.3,1.9,1.1,2
				C93.6,67.7,93.5,67.8,93.4,68z"/>
			<path class="st3" d="M94.4,69.8c-0.6,0.8-1.3,2.5,0.3,2.6c0.4,0,0.7-0.2,1-0.4c0.3-0.4,0.2-0.9-0.1-1.3c-0.3-0.3-1-0.6-0.7-0.9
				C94.7,69.9,94.5,69.9,94.4,69.8z"/>
			<path class="st3" d="M93.9,69.6c-0.1,0-0.1-0.1-0.2-0.1l-0.1-0.1c-0.4,0.3-0.8,0.5-1.3,0.7c-1.1,0.5-0.5,1.2-0.2,1.5
				c0.9,0.7,1.4-0.2,1.4-0.8C93.6,70.3,93.7,69.9,93.9,69.6z"/>
			<path class="st3" d="M92.2,69.3c0.4-0.3,0.8-0.4,1.2-0.3c-0.1-0.2-0.1-0.3-0.1-0.5c-0.4,0-0.8-0.4-1.1-0.6
				c-1.2-0.8-1.8,0-1.8,0.7C90.4,69.9,91.6,69.6,92.2,69.3z"/>
			<path class="st3" d="M107.9,55.1c0.1,0.1,0.3,0.3,0.3,0.5c0.1,0.2,0.1,0.3,0.1,0.5c0,0.2,0,0.3-0.1,0.5c-0.1,0.2-0.2,0.3-0.3,0.4
				c-0.2,0.2-0.6,0.4-0.9,0.4c-0.2,0-0.3,0-0.5-0.1c-0.2,0-0.3-0.1-0.5-0.2l-0.2-0.1l-0.1-0.2c-0.1-0.1-0.1-0.2-0.2-0.3
				c-0.1-0.2-0.1-0.3-0.1-0.5c0-0.2,0-0.4,0.1-0.5c0.1-0.2,0.2-0.4,0.3-0.5c0.1-0.1,0.2-0.2,0.4-0.3c0.2-0.1,0.5-0.1,0.7-0.1
				c0.2,0,0.3,0.1,0.5,0.1C107.7,54.9,107.8,55,107.9,55.1z"/>
			<path class="st3" d="M106.3,53.7c0.4,0.7,0.2,1.1,0.1,1.1c0.2-0.1,0.5-0.1,0.7-0.1c-0.1-0.3-0.1-0.6,0.2-0.9
				c0.4-0.5,0.9-1.7-0.2-1.7S105.8,52.8,106.3,53.7z"/>
			<path class="st3" d="M107.6,54.8c0.1,0.1,0.3,0.2,0.4,0.3c0-0.2,0.8-0.4,1.1-0.5c1-0.4,1.1-1.1,0.9-1.4c-0.8-0.9-1.5-0.4-1.7,0.2
				C108.1,54,107.9,54.4,107.6,54.8z"/>
			<path class="st3" d="M109.6,54.9c-0.4,0.4-0.9,0.6-1.4,0.7c0.1,0.2,0.1,0.3,0.1,0.5c0.3-0.3,0.9,0,1.1,0.3c1,0.7,1.8,0.1,1.8-0.4
				C111.4,54.6,110.1,54.4,109.6,54.9z"/>
			<path class="st3" d="M108.2,56.7c-0.1,0.2-0.2,0.3-0.3,0.4c0.2,1.8,1.3,1.7,1.8,1.3C110.5,57.4,109,56.8,108.2,56.7z"/>
			<path class="st3" d="M105.6,55.6c0.1-0.2,0.2-0.4,0.3-0.5c-0.2-0.5-0.3-1-0.4-1.6c-0.4-1.1-1.3-0.7-1.7-0.3
				c-1.2,1.1,0.3,1.9,1.1,2S105.7,55.4,105.6,55.6z"/>
			<path class="st3" d="M106.6,57.4c-0.6,0.8-1.3,2.5,0.3,2.6c0.4,0,0.7-0.1,1-0.4c0.3-0.3,0.2-1-0.1-1.3s-1-0.6-0.7-0.9
				C106.9,57.5,106.7,57.4,106.6,57.4z"/>
			<path class="st3" d="M106.1,57.2l-0.2-0.1l-0.1-0.2c-0.4,0.3-0.8,0.5-1.3,0.7c-0.4,0.1-0.7,0.6-0.6,1.1c0.1,0.2,0.2,0.4,0.4,0.5
				c0.9,0.7,1.4-0.2,1.4-0.8C105.8,57.9,105.9,57.5,106.1,57.2z"/>
			<path class="st3" d="M104.4,56.8c0.4-0.3,0.8-0.4,1.2-0.3c-0.1-0.2-0.1-0.3-0.1-0.5c-0.4,0-0.8-0.4-1.1-0.7
				c-1.2-0.8-1.8,0-1.8,0.7C102.6,57.4,103.8,57.2,104.4,56.8z"/>
			<path class="st3" d="M101,62.7c0,0.1,0,0.3,0,0.4c0,0.1-0.1,0.2-0.2,0.3c-0.1,0.1-0.2,0.2-0.3,0.2c-0.1,0.1-0.2,0.1-0.3,0.1
				c-0.2,0-0.5,0-0.6-0.2c-0.1-0.1-0.2-0.1-0.2-0.2c-0.1-0.1-0.2-0.2-0.2-0.3c0,0,0-0.1,0-0.1c0,0,0-0.1,0-0.1c0-0.1,0-0.2,0-0.2
				c0-0.1,0.1-0.2,0.2-0.3c0.1-0.1,0.2-0.2,0.3-0.2c0.1-0.1,0.3-0.1,0.4-0.1c0.1,0,0.2,0,0.3,0c0.2,0,0.3,0.1,0.4,0.2
				c0.1,0.1,0.1,0.2,0.2,0.3C101,62.5,101,62.6,101,62.7z"/>
			<path class="st3" d="M100.7,61.3c0,0.6-0.3,0.7-0.4,0.7c0.2,0,0.3,0.1,0.4,0.2c0-0.1,0.1-0.3,0.5-0.4s1.2-0.5,0.6-1
				S100.8,60.6,100.7,61.3z"/>
			<path class="st3" d="M100.9,62.4c0,0.1,0.1,0.2,0.1,0.3c0.1-0.1,0.6,0.1,0.8,0.2c0.7,0.2,1.1-0.1,1.1-0.4c0-0.8-0.7-0.9-1-0.6
				C101.6,62.2,101.3,62.3,100.9,62.4z"/>
			<path class="st3" d="M102,63.3c-0.4,0-0.7,0-1.1-0.2c0,0.1-0.1,0.2-0.2,0.3c0.3,0,0.4,0.4,0.5,0.6c0.2,0.8,0.9,0.8,1.2,0.6
				C103.1,63.9,102.5,63.3,102,63.3z"/>
			<path class="st3" d="M100.5,63.7c-0.1,0.1-0.2,0.1-0.3,0.1c-0.7,1.1,0,1.5,0.4,1.5C101.4,65.1,100.9,64.2,100.5,63.7z"/>
			<path class="st3" d="M99.6,62c0.1-0.1,0.3-0.1,0.4-0.1c0.1-0.4,0.3-0.7,0.5-1c0.3-0.8-0.4-0.9-0.8-0.9c-1.1,0.1-0.7,1.2-0.3,1.5
				C99.8,61.9,99.7,61.9,99.6,62z"/>
			<path class="st3" d="M99.3,63.4c-0.7,0.2-1.8,0.8-1,1.5c0.2,0.2,0.5,0.2,0.7,0.2c0.3,0,0.5-0.5,0.5-0.7c0-0.3-0.3-0.7,0-0.8
				C99.4,63.6,99.4,63.5,99.3,63.4z"/>
			<path class="st3" d="M99.1,63.1c0,0,0-0.1,0-0.1c0,0,0-0.1,0-0.1c-0.3,0-0.7-0.1-1-0.2c-0.8-0.1-0.8,0.4-0.8,0.8
				c0.2,0.7,0.9,0.5,1.1,0.2C98.7,63.4,98.9,63.2,99.1,63.1z"/>
			<path class="st3" d="M98.4,62.2c0.3,0,0.6,0.2,0.8,0.4c0-0.1,0.1-0.2,0.2-0.3C99,62.1,99,61.7,99,61.4c-0.3-0.9-1-0.8-1.3-0.4
				C97.1,61.7,97.9,62.1,98.4,62.2z"/>
			<path class="st2" d="M103.3,61.7c0,0.1,0,0.3-0.1,0.4c0,0.1-0.1,0.2-0.2,0.3c-0.1,0.1-0.2,0.2-0.3,0.2c-0.1,0.1-0.2,0.1-0.3,0.1
				c-0.2,0-0.5,0-0.6-0.2c-0.1-0.1-0.2-0.1-0.2-0.2c-0.1-0.1-0.1-0.2-0.2-0.3c0,0,0-0.1,0-0.1c0,0,0-0.1,0-0.1c0-0.1,0-0.2,0-0.2
				c0-0.1,0.1-0.2,0.2-0.3c0.1-0.1,0.2-0.2,0.3-0.2c0.1-0.1,0.3-0.1,0.4-0.1c0.1,0,0.2,0,0.3,0c0.2,0,0.3,0.1,0.4,0.2
				c0.1,0.1,0.1,0.2,0.2,0.3C103.3,61.5,103.3,61.6,103.3,61.7z"/>
			<path class="st2" d="M103.1,60.2c0,0.6-0.3,0.7-0.4,0.7c0.2,0,0.3,0.1,0.4,0.2c0-0.1,0.1-0.3,0.5-0.4c0.4-0.1,1.2-0.5,0.6-1
				C103.5,59.2,103.1,59.5,103.1,60.2z"/>
			<path class="st2" d="M103.3,61.4c0,0.1,0.1,0.2,0.1,0.3c0.1-0.1,0.6,0.1,0.8,0.2c0.7,0.2,1.1-0.1,1.1-0.4c0-0.8-0.7-0.9-1.1-0.6
				C103.9,61.2,103.6,61.3,103.3,61.4z"/>
			<path class="st2" d="M104.4,62.3c-0.4,0-0.7,0-1.1-0.2c0,0.1-0.1,0.2-0.2,0.3c0.3,0,0.4,0.4,0.5,0.6c0.2,0.8,0.9,0.8,1.2,0.6
				C105.5,62.9,104.8,62.3,104.4,62.3z"/>
			<path class="st2" d="M102.8,62.7c-0.1,0.1-0.2,0.1-0.3,0.1c-0.7,1.1,0,1.5,0.4,1.5C103.8,64,103.2,63.1,102.8,62.7z"/>
			<path class="st2" d="M101.9,60.9c0.1-0.1,0.3-0.1,0.4-0.1c0.1-0.4,0.3-0.7,0.5-1c0.3-0.8-0.4-0.9-0.8-0.9
				c-1.1,0.1-0.7,1.2-0.3,1.5C102.1,60.8,102,60.9,101.9,60.9z"/>
			<path class="st2" d="M101.6,62.4c-0.7,0.2-1.8,0.8-1,1.5c0.2,0.2,0.5,0.2,0.7,0.2c0.3,0,0.5-0.5,0.5-0.7c0-0.3-0.3-0.7,0-0.8
				C101.8,62.5,101.7,62.5,101.6,62.4z"/>
			<path class="st2" d="M101.5,62c0,0,0-0.1,0-0.1c0,0,0-0.1,0-0.1c-0.3,0-0.7-0.1-1-0.2c-0.8-0.1-0.8,0.4-0.8,0.8
				c0.2,0.7,0.9,0.5,1.1,0.2C101,62.3,101.2,62.1,101.5,62z"/>
			<path class="st2" d="M100.7,61.1c0.3,0,0.6,0.2,0.8,0.4c0-0.1,0.1-0.2,0.2-0.3c-0.2-0.2-0.2-0.6-0.3-0.8c-0.3-0.9-1-0.8-1.3-0.4
				C99.4,60.7,100.2,61.1,100.7,61.1z"/>
		</g>
	</g>
	<g>
		<defs>
			<rect id="SVGID_5_" x="38.8" y="94.1" width="12.9" height="12.8"/>
		</defs>
		<clipPath id="SVGID_6_">
			<use xlink:href="#SVGID_5_"  style="overflow:visible;"/>
		</clipPath>
		<g class="st6">
			<rect x="38.8" y="94.1" class="st0" width="12.9" height="12.8"/>
			<path class="st2" d="M41,94.4c0.1,0.2,0.1,0.4,0.1,0.6c0,0.2,0,0.4-0.1,0.5c-0.1,0.1-0.2,0.3-0.3,0.4c-0.1,0.1-0.3,0.2-0.4,0.3
				c-0.3,0.1-0.6,0.2-1,0.1c-0.1,0-0.3-0.1-0.4-0.2c-0.2-0.1-0.3-0.2-0.4-0.4c0-0.1-0.1-0.1-0.1-0.2c0-0.1-0.1-0.1-0.1-0.2
				c-0.1-0.3-0.1-0.5,0-0.8c0.1-0.4,0.4-0.7,0.8-0.8c0.4-0.2,0.8-0.2,1.2,0C40.6,93.8,40.9,94.1,41,94.4L41,94.4z"/>
			<path class="st2" d="M40,92.5c0.2,0.8-0.1,1.1-0.3,1.1c0.2,0,0.5,0,0.7,0.1c0-0.1,0-0.5,0.5-0.7s1.5-1.3,0.3-1.7
				S39.7,91.5,40,92.5z"/>
			<path class="st2" d="M40.8,94c0.1,0.1,0.2,0.3,0.3,0.4c0.1-0.2,0.9-0.2,1.2-0.1c1.1,0,1.4-0.7,1.3-1c-0.4-1.1-1.3-0.9-1.7-0.3
				C41.6,93.3,41.2,93.7,40.8,94z"/>
			<path class="st2" d="M42.7,94.7c-0.5,0.2-1,0.3-1.6,0.3c0,0.2,0,0.4-0.1,0.5c0.3-0.2,0.8,0.3,1,0.6c0.7,1.1,1.7,0.7,1.8,0.3
				C44.5,95.1,43.3,94.5,42.7,94.7z"/>
			<path class="st2" d="M40.8,95.9c-0.1,0.1-0.3,0.2-0.4,0.3C39.9,98,41,98.3,41.6,98C42.7,97.4,41.5,96.3,40.8,95.9z"/>
			<path class="st2" d="M38.7,94.1c0.1-0.2,0.3-0.3,0.5-0.4c0-0.5,0-1.1,0.2-1.6c0-1.2-1-1.1-1.5-0.9c-1.5,0.6-0.4,1.9,0.3,2.2
				S38.8,93.9,38.7,94.1z"/>
			<path class="st2" d="M39,96.1c-0.8,0.6-2.1,2-0.6,2.5c0.3,0.1,0.7,0.1,1.1,0c0.4-0.2,0.5-0.9,0.3-1.2c-0.2-0.4-0.7-0.8-0.4-1.1
				C39.2,96.3,39.1,96.2,39,96.1z"/>
			<path class="st2" d="M38.6,95.7c0-0.1-0.1-0.1-0.1-0.2c0-0.1-0.1-0.1-0.1-0.2c-0.5,0.1-1,0.2-1.5,0.2c-1.1,0.2-0.9,1-0.7,1.4
				c0.6,0.9,1.4,0.2,1.6-0.3C38.1,96.3,38.3,95.9,38.6,95.7z"/>
			<path class="st2" d="M37.1,94.8c0.4-0.1,0.9-0.1,1.3,0.2c0-0.2,0-0.3,0.1-0.5c-0.4-0.1-0.6-0.7-0.8-1c-0.8-1.1-1.7-0.6-1.9,0
				C35.2,94.8,36.4,95,37.1,94.8z"/>
			<path class="st2" d="M52.2,105.5c0.1,0.1,0.3,0.3,0.3,0.5c0.1,0.2,0.1,0.3,0.1,0.5c0,0.2,0,0.3-0.1,0.5c-0.1,0.2-0.2,0.3-0.3,0.4
				c-0.2,0.2-0.6,0.4-0.9,0.4c-0.1,0-0.3,0-0.5,0c-0.2,0-0.3-0.1-0.5-0.2c-0.1,0-0.1-0.1-0.2-0.1l-0.1-0.1c-0.1-0.1-0.1-0.2-0.2-0.3
				c-0.1-0.2-0.1-0.3-0.1-0.5c0-0.2,0-0.3,0.1-0.5c0.1-0.3,0.4-0.6,0.7-0.8c0.2-0.1,0.5-0.1,0.7-0.1c0.2,0,0.3,0.1,0.5,0.1
				C52,105.3,52.1,105.4,52.2,105.5z"/>
			<path class="st2" d="M50.6,104.1c0.4,0.7,0.2,1.1,0.1,1.1c0.2-0.1,0.5-0.1,0.7-0.1c-0.1-0.3-0.1-0.6,0.2-0.9
				c0.4-0.5,0.9-1.7-0.2-1.7S50,103.2,50.6,104.1z"/>
			<path class="st2" d="M51.8,105.2c0.1,0.1,0.3,0.2,0.4,0.3c0-0.2,0.8-0.4,1.1-0.5c1-0.4,1.1-1.1,0.9-1.4c-0.8-0.9-1.5-0.4-1.7,0.2
				C52.4,104.3,52.2,104.8,51.8,105.2z"/>
			<path class="st2" d="M53.9,105.3c-0.4,0.4-0.9,0.6-1.4,0.8c0.1,0.2,0.1,0.3,0.1,0.5c0.3-0.3,0.9,0,1.1,0.3c1,0.7,1.8,0.1,1.8-0.4
				C55.7,105,54.4,104.8,53.9,105.3z"/>
			<path class="st2" d="M52.5,107c-0.1,0.2-0.2,0.3-0.3,0.4c0.2,1.8,1.3,1.7,1.8,1.3C54.8,107.8,53.3,107.2,52.5,107z"/>
			<path class="st2" d="M49.9,106c0.1-0.2,0.2-0.4,0.3-0.5c-0.2-0.5-0.3-1-0.4-1.6c-0.4-1.1-1.3-0.7-1.7-0.3c-1.2,1.1,0.3,1.9,1.1,2
				C50.1,105.6,49.9,105.9,49.9,106z"/>
			<path class="st2" d="M50.8,107.8c-0.6,0.8-1.3,2.5,0.3,2.6c0.4,0,0.7-0.2,1-0.4c0.3-0.4,0.2-0.9-0.1-1.3c-0.3-0.3-1-0.6-0.7-0.9
				C51.1,107.9,51,107.8,50.8,107.8z"/>
			<path class="st2" d="M50.4,107.6c-0.1,0-0.1-0.1-0.2-0.1l-0.1-0.1c-0.4,0.3-0.8,0.5-1.3,0.7c-1.1,0.5-0.5,1.2-0.2,1.5
				c0.9,0.7,1.4-0.2,1.4-0.8C50.1,108.3,50.2,107.9,50.4,107.6z"/>
			<path class="st2" d="M48.7,107.2c0.4-0.3,0.8-0.4,1.2-0.3c-0.1-0.2-0.1-0.3-0.1-0.5c-0.4,0-0.8-0.4-1.1-0.6
				c-1.2-0.8-1.8,0-1.8,0.7C46.8,107.8,48.1,107.6,48.7,107.2z"/>
			<path class="st3" d="M39.9,106c0.1,0.1,0.3,0.3,0.3,0.5c0.1,0.2,0.1,0.3,0.1,0.5c0,0.2,0,0.3-0.1,0.5c-0.1,0.2-0.2,0.3-0.3,0.4
				c-0.2,0.2-0.6,0.4-0.9,0.4c-0.1,0-0.3,0-0.5,0c-0.2,0-0.3-0.1-0.5-0.2c-0.1,0-0.1-0.1-0.2-0.1l-0.1-0.2c-0.1-0.1-0.1-0.2-0.2-0.3
				c-0.1-0.2-0.1-0.3-0.1-0.5c0-0.2,0-0.3,0.1-0.5c0.1-0.3,0.4-0.6,0.7-0.8c0.2-0.1,0.5-0.1,0.7-0.1c0.2,0,0.3,0.1,0.5,0.1
				C39.6,105.8,39.8,105.9,39.9,106z"/>
			<path class="st3" d="M38.2,104.6c0.4,0.7,0.2,1.1,0.1,1.1c0.2-0.1,0.5-0.1,0.7-0.1c-0.1-0.3-0.1-0.6,0.2-0.9
				c0.4-0.5,0.9-1.7-0.2-1.7C37.8,103.1,37.7,103.7,38.2,104.6z"/>
			<path class="st3" d="M39.4,105.7c0.1,0.1,0.3,0.2,0.4,0.3c0-0.2,0.8-0.4,1.1-0.5c1-0.4,1.1-1.1,0.9-1.4c-0.8-0.9-1.5-0.4-1.7,0.2
				C40,104.9,39.8,105.3,39.4,105.7z"/>
			<path class="st3" d="M41.5,105.8c-0.4,0.4-0.9,0.6-1.4,0.8c0.1,0.2,0.1,0.3,0.1,0.5c0.3-0.3,0.9,0,1.1,0.2c1,0.7,1.8,0.1,1.8-0.4
				C43.3,105.5,42,105.3,41.5,105.8z"/>
			<path class="st3" d="M40.1,107.6c-0.1,0.2-0.2,0.3-0.3,0.4c0.2,1.8,1.3,1.7,1.8,1.3C42.4,108.3,41,107.7,40.1,107.6z"/>
			<path class="st3" d="M37.5,106.5c0.1-0.2,0.2-0.4,0.3-0.5c-0.2-0.5-0.3-1-0.4-1.6c-0.4-1.1-1.3-0.7-1.7-0.3
				c-1.2,1.1,0.3,1.9,1.1,2C37.5,106.1,37.6,106.3,37.5,106.5z"/>
			<path class="st3" d="M38.5,108.3c-0.6,0.8-1.3,2.5,0.3,2.6c0.4,0,0.7-0.2,1-0.4c0.3-0.4,0.2-0.9-0.1-1.3c-0.3-0.3-1-0.6-0.7-0.9
				C38.8,108.4,38.6,108.4,38.5,108.3z"/>
			<path class="st3" d="M38,108.1c-0.1,0-0.1-0.1-0.2-0.1l-0.1-0.1c-0.4,0.3-0.8,0.5-1.3,0.7c-1,0.5-0.5,1.2-0.2,1.5
				c0.9,0.7,1.4-0.2,1.4-0.8C37.7,108.8,37.8,108.4,38,108.1z"/>
			<path class="st3" d="M36.3,107.8c0.4-0.3,0.8-0.4,1.2-0.3c-0.1-0.2-0.1-0.3-0.1-0.5c-0.4,0-0.8-0.4-1.1-0.6
				c-1.2-0.8-1.8,0-1.8,0.7C34.4,108.3,35.7,108.1,36.3,107.8z"/>
			<path class="st3" d="M52,93.6c0.1,0.1,0.3,0.3,0.3,0.5c0.1,0.2,0.1,0.3,0.1,0.5c0,0.2-0.1,0.3-0.1,0.5c-0.1,0.2-0.2,0.3-0.3,0.4
				c-0.2,0.2-0.6,0.4-0.9,0.4c-0.1,0-0.3,0-0.5,0c-0.2,0-0.3-0.1-0.5-0.2L50,95.6l-0.1-0.2c-0.1-0.1-0.1-0.2-0.2-0.3
				c-0.1-0.2-0.1-0.3-0.1-0.5c0-0.2,0-0.4,0.1-0.5c0.1-0.2,0.2-0.4,0.3-0.5c0.1-0.1,0.2-0.2,0.4-0.3c0.2-0.1,0.5-0.1,0.7-0.1
				c0.2,0,0.3,0.1,0.5,0.1C51.8,93.4,51.9,93.5,52,93.6z"/>
			<path class="st3" d="M50.4,92.2c0.4,0.7,0.2,1.1,0.1,1.1c0.2-0.1,0.5-0.1,0.7-0.1c-0.1-0.3-0.1-0.6,0.2-0.9
				c0.4-0.5,0.9-1.7-0.2-1.7C50,90.7,49.8,91.3,50.4,92.2z"/>
			<path class="st3" d="M51.6,93.3c0.1,0.1,0.3,0.2,0.4,0.3c0-0.2,0.8-0.4,1.1-0.5c1-0.4,1.1-1.1,0.9-1.4c-0.8-0.9-1.5-0.4-1.7,0.2
				C52.2,92.5,52,92.9,51.6,93.3z"/>
			<path class="st3" d="M53.7,93.4c-0.4,0.4-0.9,0.6-1.4,0.7c0.1,0.2,0.1,0.3,0.1,0.5c0.3-0.3,0.9,0,1.1,0.3c1,0.7,1.8,0.1,1.8-0.4
				C55.5,93.1,54.2,92.9,53.7,93.4z"/>
			<path class="st3" d="M52.3,95.2c-0.1,0.2-0.2,0.3-0.3,0.4c0.2,1.8,1.3,1.7,1.8,1.3C54.6,95.9,53.1,95.3,52.3,95.2z"/>
			<path class="st3" d="M49.7,94.1c0.1-0.2,0.2-0.4,0.3-0.5c-0.2-0.5-0.3-1-0.4-1.6c-0.4-1.1-1.3-0.7-1.7-0.3
				c-1.2,1.1,0.3,1.9,1.1,2C49.9,93.8,49.7,93.9,49.7,94.1z"/>
			<path class="st3" d="M50.6,95.9c-0.6,0.8-1.3,2.5,0.3,2.6c0.4,0,0.7-0.1,1-0.4c0.3-0.3,0.2-1-0.1-1.3c-0.3-0.3-1-0.6-0.7-0.9
				C50.9,96,50.8,95.9,50.6,95.9z"/>
			<path class="st3" d="M50.2,95.7L50,95.5l-0.1-0.2c-0.4,0.3-0.8,0.5-1.3,0.7c-0.4,0.1-0.7,0.6-0.6,1.1c0.1,0.2,0.2,0.4,0.4,0.5
				c0.9,0.7,1.4-0.2,1.4-0.8C49.9,96.4,50,96,50.2,95.7z"/>
			<path class="st3" d="M48.5,95.3c0.4-0.3,0.8-0.4,1.2-0.3c-0.1-0.2-0.1-0.3-0.1-0.5c-0.4,0-0.8-0.4-1.1-0.7
				c-1.2-0.8-1.8,0-1.8,0.7C46.6,95.9,47.9,95.7,48.5,95.3z"/>
			<path class="st3" d="M45.1,101.2c0,0.1,0,0.3-0.1,0.4c0,0.1-0.1,0.2-0.2,0.3c-0.1,0.1-0.2,0.2-0.3,0.2c-0.1,0.1-0.2,0.1-0.3,0.1
				c-0.2,0-0.5,0-0.6-0.2c-0.1-0.1-0.2-0.1-0.2-0.2c-0.1-0.1-0.1-0.2-0.2-0.3c0,0,0-0.1,0-0.1c0,0,0-0.1,0-0.1c0-0.1,0-0.2,0-0.2
				c0-0.1,0.1-0.2,0.2-0.3c0.1-0.1,0.2-0.2,0.3-0.2c0.1-0.1,0.3-0.1,0.4-0.1c0.1,0,0.2,0,0.3,0c0.2,0,0.3,0.1,0.4,0.2
				c0.1,0.1,0.1,0.2,0.2,0.3C45.1,101,45.1,101.1,45.1,101.2z"/>
			<path class="st3" d="M44.8,99.7c-0.1,0.6-0.3,0.7-0.4,0.7c0.2,0,0.3,0.1,0.4,0.2c0-0.1,0.1-0.3,0.5-0.4c0.4-0.1,1.2-0.5,0.6-1.1
				C45.2,98.6,44.9,99.1,44.8,99.7z"/>
			<path class="st3" d="M45,100.9c0,0.1,0.1,0.2,0.1,0.3c0.1-0.1,0.6,0.1,0.8,0.2c0.7,0.2,1.1-0.1,1.1-0.4c0-0.8-0.7-0.9-1.1-0.6
				C45.7,100.7,45.4,100.8,45,100.9z"/>
			<path class="st3" d="M46.1,101.8c-0.4,0-0.7,0-1.1-0.2c0,0.1-0.1,0.2-0.2,0.3c0.3,0,0.4,0.4,0.5,0.6c0.2,0.8,0.9,0.8,1.2,0.6
				C47.2,102.4,46.6,101.8,46.1,101.8z"/>
			<path class="st3" d="M44.6,102.2c-0.1,0.1-0.2,0.1-0.3,0.1c-0.7,1.1,0,1.5,0.4,1.5C45.5,103.6,45,102.6,44.6,102.2z"/>
			<path class="st3" d="M43.7,100.5c0.1-0.1,0.3-0.1,0.4-0.1c0.1-0.4,0.3-0.7,0.5-1c0.3-0.8-0.4-0.9-0.8-0.9
				c-1.1,0.1-0.7,1.2-0.3,1.5C43.9,100.4,43.7,100.4,43.7,100.5z"/>
			<path class="st3" d="M43.4,101.9c-0.7,0.2-1.8,0.8-1,1.5c0.2,0.2,0.5,0.2,0.7,0.2c0.3,0,0.5-0.5,0.5-0.7c0-0.3-0.3-0.7,0-0.8
				C43.5,102,43.4,102,43.4,101.9z"/>
			<path class="st3" d="M43.2,101.6c0,0,0-0.1,0-0.1c0,0,0-0.1,0-0.1c-0.3,0-0.7-0.1-1-0.2c-0.8-0.1-0.8,0.4-0.8,0.8
				c0.2,0.7,0.9,0.5,1.1,0.2C42.7,101.9,43,101.7,43.2,101.6z"/>
			<path class="st3" d="M42.4,100.7c0.3,0,0.6,0.2,0.8,0.4c0-0.1,0.1-0.2,0.2-0.3c-0.2-0.2-0.2-0.6-0.3-0.8c-0.3-0.9-1-0.8-1.3-0.4
				C41.2,100.2,42,100.6,42.4,100.7z"/>
			<path class="st2" d="M47.4,100.2c0,0.1,0,0.3,0,0.4c0,0.1-0.1,0.2-0.2,0.3c-0.1,0.1-0.2,0.2-0.3,0.2c-0.1,0.1-0.2,0.1-0.3,0.1
				c-0.2,0-0.5,0-0.6-0.2c-0.1-0.1-0.2-0.1-0.2-0.2c-0.1-0.1-0.1-0.2-0.2-0.3c0,0,0-0.1,0-0.1c0,0,0-0.1,0-0.1c0-0.1,0-0.2,0-0.2
				c0-0.1,0.1-0.2,0.2-0.3c0.1-0.1,0.2-0.2,0.3-0.2c0.1-0.1,0.3-0.1,0.4-0.1c0.1,0,0.2,0,0.3,0c0.2,0,0.3,0.1,0.4,0.2
				c0.1,0.1,0.1,0.2,0.2,0.3C47.4,100,47.4,100.1,47.4,100.2z"/>
			<path class="st2" d="M47.1,98.7c0,0.6-0.3,0.7-0.4,0.7c0.2,0,0.3,0.1,0.4,0.2c0-0.1,0.1-0.3,0.5-0.4c0.4-0.1,1.2-0.5,0.6-1.1
				C47.6,97.6,47.2,98,47.1,98.7z"/>
			<path class="st2" d="M47.3,99.9c0,0.1,0.1,0.2,0.1,0.3c0.1-0.1,0.6,0.1,0.8,0.2c0.7,0.2,1.1-0.1,1.1-0.4c0-0.8-0.7-0.9-1-0.6
				C48,99.7,47.7,99.8,47.3,99.9z"/>
			<path class="st2" d="M48.5,100.8c-0.4,0-0.7,0-1.1-0.2c0,0.1-0.1,0.2-0.2,0.3c0.3,0,0.4,0.4,0.5,0.6c0.2,0.8,0.9,0.8,1.2,0.6
				C49.6,101.4,48.9,100.8,48.5,100.8z"/>
			<path class="st2" d="M46.9,101.1c-0.1,0.1-0.2,0.1-0.3,0.1c-0.7,1.1,0,1.5,0.4,1.5C47.8,102.5,47.3,101.6,46.9,101.1z"/>
			<path class="st2" d="M46,99.4c0.1-0.1,0.3-0.1,0.4-0.1c0.1-0.4,0.3-0.7,0.5-1c0.3-0.8-0.4-0.9-0.8-0.9c-1.1,0.1-0.7,1.2-0.3,1.5
				C46.2,99.3,46.1,99.4,46,99.4z"/>
			<path class="st2" d="M45.7,100.9c-0.7,0.2-1.8,0.8-1,1.5c0.2,0.2,0.5,0.2,0.7,0.2c0.3,0,0.5-0.5,0.5-0.7c0-0.3-0.3-0.7,0-0.8
				C45.8,101,45.8,100.9,45.7,100.9z"/>
			<path class="st2" d="M45.5,100.5c0,0,0-0.1,0-0.1c0,0,0-0.1,0-0.1c-0.3,0-0.7-0.1-1-0.2c-0.8-0.1-0.8,0.4-0.8,0.8
				c0.2,0.7,0.9,0.5,1.1,0.2C45.1,100.8,45.3,100.6,45.5,100.5z"/>
			<path class="st2" d="M44.8,99.6c0.3,0,0.6,0.2,0.8,0.4c0-0.1,0.1-0.2,0.2-0.3c-0.2-0.2-0.2-0.6-0.3-0.8c-0.3-0.9-1-0.8-1.3-0.4
				C43.5,99.2,44.3,99.6,44.8,99.6z"/>
		</g>
	</g>
	<g>
		<defs>
			<rect id="SVGID_7_" x="0.1" y="38.5" width="12.9" height="12.8"/>
		</defs>
		<clipPath id="SVGID_8_">
			<use xlink:href="#SVGID_7_"  style="overflow:visible;"/>
		</clipPath>
		<g class="st7">
			<rect x="0.1" y="38.5" class="st0" width="12.9" height="12.8"/>
			<path class="st2" d="M2.3,38.8c0.1,0.2,0.1,0.4,0.1,0.6c0,0.2,0,0.4-0.1,0.5c-0.1,0.1-0.2,0.3-0.3,0.4c-0.1,0.1-0.3,0.2-0.4,0.3
				c-0.3,0.1-0.6,0.2-1,0.1c-0.1,0-0.3-0.1-0.4-0.2c-0.2-0.1-0.3-0.2-0.4-0.4c0-0.1-0.1-0.1-0.1-0.2c0-0.1-0.1-0.1-0.1-0.2
				c-0.1-0.3-0.1-0.5,0-0.8c0.1-0.2,0.2-0.3,0.3-0.4c0.1-0.2,0.3-0.3,0.5-0.4C0.6,38.1,0.8,38,0.9,38c0.2,0,0.5,0,0.7,0.1
				C2,38.3,2.2,38.5,2.3,38.8L2.3,38.8z"/>
			<path class="st2" d="M1.3,36.9C1.4,37.7,1.1,38,0.9,38c0.2,0,0.5,0,0.7,0.1c0-0.1,0-0.5,0.5-0.7c0.5-0.3,1.5-1.3,0.3-1.7
				C1.4,35.3,1,35.9,1.3,36.9z"/>
			<path class="st2" d="M2.1,38.4c0.1,0.1,0.2,0.3,0.3,0.4c0.1-0.2,0.9-0.2,1.2-0.1c1.1,0,1.4-0.7,1.3-1c-0.4-1.1-1.3-0.9-1.7-0.3
				C2.9,37.7,2.5,38.1,2.1,38.4z"/>
			<path class="st2" d="M4,39.1c-0.5,0.2-1,0.3-1.6,0.3c0,0.2,0,0.4-0.1,0.5c0.3-0.2,0.8,0.3,1,0.6C4,41.6,5,41.2,5.2,40.8
				C5.8,39.5,4.6,38.9,4,39.1z"/>
			<path class="st2" d="M2.1,40.3c-0.1,0.1-0.3,0.2-0.4,0.3c-0.4,1.8,0.7,2.1,1.2,1.8C4,41.8,2.8,40.7,2.1,40.3z"/>
			<path class="st2" d="M0,38.5c0.1-0.2,0.3-0.3,0.5-0.4c0-0.5,0-1.1,0.2-1.6c0-1.2-1-1.1-1.5-0.9c-1.5,0.6-0.4,1.9,0.3,2.2
				S0.1,38.3,0,38.5z"/>
			<path class="st2" d="M0.3,40.5c-0.8,0.6-2.1,2-0.6,2.5c0.3,0.1,0.7,0.1,1.1,0c0.5-0.2,0.5-0.9,0.3-1.3s-0.7-0.8-0.4-1.1
				C0.5,40.6,0.4,40.6,0.3,40.5z"/>
			<path class="st2" d="M-0.1,40.1c0-0.1-0.1-0.1-0.1-0.2c0-0.1-0.1-0.1-0.1-0.2c-0.5,0.1-1,0.2-1.5,0.2c-1.1,0.2-0.9,1-0.7,1.4
				c0.6,0.9,1.4,0.2,1.6-0.3C-0.6,40.7-0.4,40.4-0.1,40.1z"/>
			<path class="st2" d="M-1.6,39.2c0.4-0.1,0.9-0.1,1.3,0.2c0-0.2,0-0.3,0.1-0.5c-0.4-0.1-0.6-0.7-0.8-1c-0.8-1.1-1.7-0.6-1.9,0
				C-3.5,39.2-2.3,39.4-1.6,39.2z"/>
			<path class="st2" d="M13.5,49.9c0.1,0.1,0.3,0.3,0.3,0.5c0.1,0.2,0.1,0.3,0.1,0.5c0,0.2,0,0.3-0.1,0.5c-0.1,0.2-0.2,0.3-0.3,0.4
				c-0.2,0.2-0.6,0.4-0.9,0.4c-0.1,0-0.3,0-0.5,0c-0.2,0-0.3-0.1-0.5-0.2c-0.1,0-0.1-0.1-0.2-0.1l-0.1-0.1c-0.1-0.1-0.1-0.2-0.2-0.3
				c-0.1-0.2-0.1-0.3-0.1-0.5c0-0.2,0-0.3,0.1-0.5c0.1-0.3,0.4-0.6,0.7-0.8c0.2-0.1,0.5-0.1,0.7-0.1c0.2,0,0.3,0.1,0.5,0.1
				C13.3,49.7,13.4,49.8,13.5,49.9z"/>
			<path class="st2" d="M11.9,48.5c0.4,0.7,0.2,1.1,0.1,1.1c0.2-0.1,0.5-0.1,0.7-0.1c-0.1-0.3-0.1-0.6,0.2-0.9
				c0.4-0.5,0.9-1.7-0.2-1.7S11.3,47.6,11.9,48.5z"/>
			<path class="st2" d="M13.1,49.6c0.1,0.1,0.3,0.2,0.4,0.3c0-0.2,0.8-0.4,1.1-0.5c1-0.4,1.1-1.1,0.9-1.4c-0.8-0.9-1.5-0.4-1.7,0.2
				C13.7,48.7,13.5,49.2,13.1,49.6z"/>
			<path class="st2" d="M15.2,49.7c-0.4,0.4-0.9,0.6-1.4,0.8c0.1,0.2,0.1,0.3,0.1,0.5c0.3-0.3,0.9,0.1,1.1,0.3
				c1,0.7,1.8,0.1,1.8-0.4C17,49.4,15.7,49.2,15.2,49.7z"/>
			<path class="st2" d="M13.8,51.4c-0.1,0.2-0.2,0.3-0.3,0.4c0.2,1.8,1.3,1.7,1.8,1.3C16.1,52.2,14.6,51.6,13.8,51.4z"/>
			<path class="st2" d="M11.2,50.4c0.1-0.2,0.2-0.4,0.3-0.5c-0.2-0.5-0.3-1-0.4-1.6c-0.4-1.1-1.3-0.7-1.7-0.3
				c-1.2,1.1,0.3,1.9,1.1,2C11.2,50,11.2,50.3,11.2,50.4z"/>
			<path class="st2" d="M12.1,52.2c-0.6,0.8-1.3,2.5,0.3,2.6c0.4,0,0.7-0.2,1-0.4c0.3-0.4,0.2-0.9-0.1-1.3c-0.3-0.3-1-0.6-0.7-0.9
				C12.4,52.3,12.3,52.2,12.1,52.2z"/>
			<path class="st2" d="M11.7,52c-0.1,0-0.1-0.1-0.2-0.1l-0.1-0.1c-0.4,0.3-0.8,0.5-1.3,0.7c-1,0.5-0.5,1.2-0.2,1.5
				c0.9,0.7,1.4-0.2,1.4-0.8C11.4,52.7,11.5,52.3,11.7,52z"/>
			<path class="st2" d="M10,51.6c0.4-0.3,0.8-0.4,1.2-0.3c-0.1-0.2-0.1-0.3-0.1-0.5c-0.4,0-0.8-0.4-1.1-0.6c-1.2-0.8-1.8,0-1.8,0.7
				C8.1,52.2,9.4,52,10,51.6z"/>
			<path class="st3" d="M1.2,50.4c0.1,0.1,0.3,0.3,0.3,0.5c0.1,0.2,0.1,0.3,0.1,0.5c0,0.2,0,0.3-0.1,0.5c-0.1,0.2-0.2,0.3-0.3,0.4
				c-0.2,0.2-0.6,0.4-0.9,0.4c-0.1,0-0.3,0-0.5,0c-0.2,0-0.3-0.1-0.5-0.2c-0.1,0-0.1-0.1-0.2-0.1L-1,52.2C-1,52.1-1.1,52-1.1,51.9
				c-0.1-0.2-0.1-0.3-0.1-0.5c0-0.2,0-0.3,0.1-0.5c0.1-0.2,0.2-0.4,0.3-0.5c0.1-0.1,0.2-0.2,0.4-0.3C-0.2,50,0.1,50,0.3,50
				c0.2,0,0.3,0.1,0.5,0.1C0.9,50.2,1.1,50.3,1.2,50.4z"/>
			<path class="st3" d="M-0.5,49c0.4,0.7,0.2,1.1,0.1,1.1C-0.2,50,0,49.9,0.3,50c-0.1-0.3,0-0.6,0.2-0.8c0.4-0.5,0.9-1.7-0.2-1.7
				S-1.1,48.1-0.5,49z"/>
			<path class="st3" d="M0.7,50.1c0.1,0.1,0.3,0.2,0.4,0.3c0-0.2,0.8-0.4,1.1-0.5c1-0.4,1.1-1.1,0.9-1.4c-0.8-0.9-1.5-0.4-1.7,0.2
				C1.3,49.3,1.1,49.7,0.7,50.1z"/>
			<path class="st3" d="M2.8,50.2c-0.4,0.4-0.9,0.6-1.4,0.8c0.1,0.2,0.1,0.3,0.1,0.5c0.3-0.3,0.9,0,1.1,0.3c1,0.7,1.8,0.1,1.8-0.4
				C4.6,49.9,3.3,49.7,2.8,50.2z"/>
			<path class="st3" d="M1.4,52c-0.1,0.2-0.2,0.3-0.3,0.4c0.2,1.8,1.3,1.7,1.8,1.3C3.7,52.7,2.3,52.1,1.4,52z"/>
			<path class="st3" d="M-1.2,50.9c0.1-0.2,0.2-0.4,0.3-0.5c-0.2-0.5-0.3-1-0.4-1.6c-0.4-1.1-1.3-0.7-1.7-0.3
				c-1.2,1.1,0.3,1.9,1.1,2C-1,50.6-1.2,50.7-1.2,50.9z"/>
			<path class="st3" d="M-0.2,52.7c-0.6,0.8-1.3,2.5,0.3,2.6c0.4,0,0.7-0.2,1-0.4c0.3-0.4,0.2-0.9-0.1-1.3c-0.3-0.3-1-0.6-0.7-0.9
				C0,52.8-0.1,52.8-0.2,52.7z"/>
			<path class="st3" d="M-0.7,52.5c-0.1,0-0.1-0.1-0.2-0.1L-1,52.2c-0.4,0.3-0.8,0.5-1.3,0.7c-1,0.5-0.5,1.2-0.2,1.5
				c0.9,0.7,1.4-0.2,1.4-0.8C-1,53.2-0.9,52.8-0.7,52.5z"/>
			<path class="st3" d="M-2.4,52.2c0.4-0.3,0.8-0.4,1.2-0.3c-0.1-0.2-0.1-0.3-0.1-0.5c-0.4,0-0.8-0.4-1.1-0.6
				c-1.2-0.8-1.8,0-1.8,0.7C-4.3,52.7-3,52.5-2.4,52.2z"/>
			<path class="st3" d="M13.3,38c0.1,0.1,0.3,0.3,0.3,0.5c0.1,0.2,0.1,0.3,0.1,0.5c0,0.2-0.1,0.3-0.1,0.5c-0.1,0.2-0.2,0.3-0.3,0.4
				c-0.2,0.2-0.6,0.4-0.9,0.4c-0.2,0-0.3,0-0.5-0.1c-0.2,0-0.3-0.1-0.5-0.2l-0.2-0.1l-0.1-0.2c-0.1-0.1-0.1-0.2-0.2-0.3
				c-0.1-0.2-0.1-0.3-0.1-0.5c0-0.2,0-0.4,0.1-0.5c0.1-0.2,0.2-0.4,0.3-0.5c0.1-0.1,0.2-0.2,0.4-0.3c0.2-0.1,0.5-0.1,0.7-0.1
				c0.2,0,0.3,0.1,0.5,0.1C13.1,37.8,13.2,37.9,13.3,38z"/>
			<path class="st3" d="M11.7,36.6c0.4,0.7,0.2,1.1,0.1,1.1c0.2-0.1,0.5-0.1,0.7-0.1c-0.1-0.3-0.1-0.6,0.2-0.9
				c0.4-0.5,0.9-1.7-0.2-1.7S11.1,35.7,11.7,36.6z"/>
			<path class="st3" d="M12.9,37.7c0.1,0.1,0.3,0.2,0.4,0.3c0-0.2,0.8-0.4,1.1-0.5c1-0.4,1.1-1.1,0.9-1.4c-0.8-0.9-1.5-0.4-1.7,0.2
				C13.5,36.9,13.3,37.3,12.9,37.7z"/>
			<path class="st3" d="M15,37.8c-0.4,0.4-0.9,0.6-1.4,0.7c0.1,0.2,0.1,0.3,0.1,0.5c0.3-0.3,0.9,0,1.1,0.3c1,0.7,1.8,0.1,1.8-0.4
				C16.8,37.5,15.5,37.3,15,37.8z"/>
			<path class="st3" d="M13.6,39.6c-0.1,0.2-0.2,0.3-0.3,0.4c0.2,1.8,1.3,1.7,1.8,1.3C15.9,40.3,14.4,39.7,13.6,39.6z"/>
			<path class="st3" d="M11,38.5c0.1-0.2,0.2-0.4,0.3-0.5c-0.2-0.5-0.3-1-0.4-1.6c-0.4-1.1-1.3-0.7-1.7-0.3c-1.2,1.1,0.3,1.9,1.1,2
				C11,38.1,11,38.3,11,38.5z"/>
			<path class="st3" d="M11.9,40.3c-0.6,0.8-1.3,2.5,0.3,2.6c0.4,0,0.7-0.1,1-0.4c0.3-0.3,0.2-1-0.1-1.3c-0.3-0.3-1-0.6-0.7-0.9
				C12.2,40.4,12.1,40.3,11.9,40.3z"/>
			<path class="st3" d="M11.5,40.1l-0.2-0.1l-0.1-0.2c-0.4,0.3-0.8,0.5-1.3,0.7c-0.4,0.1-0.7,0.6-0.6,1.1c0.1,0.2,0.2,0.4,0.4,0.5
				c0.9,0.7,1.4-0.2,1.4-0.8C11.2,40.8,11.3,40.4,11.5,40.1z"/>
			<path class="st3" d="M9.8,39.7c0.4-0.3,0.8-0.4,1.2-0.3c-0.1-0.2-0.1-0.3-0.1-0.5c-0.4,0-0.8-0.4-1.1-0.7C8.7,37.6,8,38.3,8,39
				C7.9,40.3,9.2,40.1,9.8,39.7z"/>
			<path class="st3" d="M6.4,45.6c0,0.1,0,0.3,0,0.4c0,0.1-0.1,0.2-0.2,0.3c-0.1,0.1-0.2,0.2-0.3,0.2c-0.1,0.1-0.2,0.1-0.3,0.1
				c-0.2,0-0.5,0-0.6-0.2c-0.1-0.1-0.2-0.1-0.2-0.2c-0.1-0.1-0.2-0.2-0.2-0.3c0,0,0-0.1,0-0.1c0,0,0-0.1,0-0.1c0-0.1,0-0.2,0-0.2
				c0-0.1,0.1-0.2,0.2-0.3C4.7,45.1,4.8,45,5,44.9c0.1-0.1,0.3-0.1,0.4-0.1c0.1,0,0.2,0,0.3,0c0.2,0,0.3,0.1,0.4,0.2
				c0.1,0.1,0.1,0.2,0.2,0.3C6.4,45.4,6.4,45.5,6.4,45.6z"/>
			<path class="st3" d="M6.1,44.1c0,0.6-0.3,0.7-0.4,0.7c0.2,0,0.3,0.1,0.4,0.2c0-0.1,0.1-0.3,0.5-0.4c0.4-0.1,1.2-0.5,0.6-1
				S6.2,43.5,6.1,44.1z"/>
			<path class="st3" d="M6.3,45.3c0,0.1,0.1,0.2,0.1,0.3c0.1-0.1,0.6,0.1,0.8,0.2c0.7,0.2,1.1-0.1,1.1-0.4c0-0.8-0.7-0.9-1.1-0.6
				C7,45.1,6.6,45.2,6.3,45.3z"/>
			<path class="st3" d="M7.4,46.2c-0.4,0-0.7,0-1.1-0.2c0,0.1-0.1,0.2-0.2,0.3c0.3,0,0.4,0.4,0.5,0.6c0.2,0.8,0.9,0.8,1.2,0.6
				C8.5,46.8,7.9,46.2,7.4,46.2z"/>
			<path class="st3" d="M5.9,46.6c-0.1,0.1-0.2,0.1-0.3,0.1c-0.7,1.1,0,1.5,0.4,1.5C6.8,48,6.3,47,5.9,46.6z"/>
			<path class="st3" d="M5,44.9c0.1-0.1,0.3-0.1,0.4-0.1c0.1-0.4,0.3-0.7,0.5-1C6.1,43,5.4,42.9,5,42.9C4,43,4.4,44,4.8,44.4
				C5.2,44.8,5,44.8,5,44.9z"/>
			<path class="st3" d="M4.7,46.3c-0.7,0.2-1.8,0.8-1,1.5C3.9,48,4.2,48,4.4,48c0.3,0,0.5-0.5,0.5-0.7c0-0.3-0.3-0.7,0-0.8
				C4.8,46.5,4.7,46.4,4.7,46.3z"/>
			<path class="st3" d="M4.5,46c0,0,0-0.1,0-0.1c0,0,0-0.1,0-0.1c-0.3,0-0.7-0.1-1-0.2c-0.8-0.1-0.8,0.4-0.8,0.8
				C3,47,3.6,46.8,3.8,46.5C4,46.3,4.3,46.1,4.5,46z"/>
			<path class="st3" d="M3.7,45.1c0.3,0,0.6,0.2,0.8,0.4c0-0.1,0.1-0.2,0.2-0.3c-0.2-0.2-0.2-0.6-0.3-0.8c-0.3-0.9-1-0.8-1.3-0.4
				C2.5,44.6,3.3,45,3.7,45.1z"/>
			<path class="st2" d="M8.7,44.6c0,0.1,0,0.3,0,0.4c0,0.1-0.1,0.2-0.2,0.3c-0.1,0.1-0.2,0.2-0.3,0.2c-0.1,0.1-0.2,0.1-0.3,0.1
				c-0.2,0-0.5,0-0.6-0.2c-0.1-0.1-0.2-0.1-0.2-0.2c-0.1-0.1-0.2-0.2-0.2-0.4c0,0,0-0.1,0-0.1c0,0,0-0.1,0-0.1c0-0.1,0-0.2,0-0.2
				c0-0.1,0.1-0.2,0.2-0.3c0.1-0.1,0.2-0.2,0.3-0.3c0.1-0.1,0.2-0.1,0.4-0.1c0.1,0,0.2,0,0.3,0c0.2,0,0.3,0.1,0.4,0.2
				c0.1,0.1,0.1,0.2,0.2,0.3C8.6,44.4,8.7,44.5,8.7,44.6z"/>
			<path class="st2" d="M8.4,43.1c0,0.6-0.3,0.7-0.4,0.7c0.2,0,0.3,0.1,0.4,0.2c0-0.1,0.1-0.3,0.5-0.4s1.2-0.5,0.6-1
				C8.8,42.1,8.5,42.4,8.4,43.1z"/>
			<path class="st2" d="M8.6,44.3c0,0.1,0.1,0.2,0.1,0.3c0.1-0.1,0.6,0.1,0.8,0.2c0.7,0.2,1.1-0.1,1.1-0.4c0-0.8-0.7-0.9-1-0.6
				C9.3,44.1,9,44.2,8.6,44.3z"/>
			<path class="st2" d="M9.8,45.2c-0.4,0-0.7,0-1.1-0.2c0,0.1-0.1,0.2-0.2,0.3C8.8,45.3,9,45.7,9,46c0.2,0.8,0.9,0.8,1.2,0.6
				C10.9,45.8,10.2,45.2,9.8,45.2z"/>
			<path class="st2" d="M8.2,45.5c-0.1,0.1-0.2,0.1-0.3,0.1c-0.7,1.1,0,1.5,0.4,1.5C9.1,46.9,8.6,46,8.2,45.5z"/>
			<path class="st2" d="M7.3,43.8c0.1-0.1,0.2-0.1,0.4-0.1c0.1-0.3,0.3-0.7,0.5-1c0.3-0.8-0.4-0.9-0.8-0.9C6.3,42,6.7,43,7.1,43.4
				C7.5,43.8,7.4,43.8,7.3,43.8z"/>
			<path class="st2" d="M7,45.3c-0.7,0.2-1.8,0.8-1,1.5C6.2,46.9,6.5,47,6.8,47c0.3,0,0.5-0.5,0.5-0.7c0-0.3-0.3-0.7,0-0.8
				C7.1,45.4,7.1,45.3,7,45.3z"/>
			<path class="st2" d="M6.8,44.9c0,0,0-0.1,0-0.1c0,0,0-0.1,0-0.1c-0.3,0-0.7-0.1-1-0.2c-0.8-0.1-0.8,0.4-0.8,0.8
				C5.3,46,6,45.7,6.2,45.4C6.4,45.2,6.6,45,6.8,44.9z"/>
			<path class="st2" d="M6.1,44c0.3,0,0.6,0.2,0.8,0.4c0-0.1,0.1-0.2,0.2-0.3c-0.2-0.2-0.2-0.6-0.3-0.8c-0.3-0.9-1-0.8-1.3-0.4
				C4.8,43.6,5.6,44,6.1,44z"/>
		</g>
	</g>
	<rect x="25.9" class="st2" width="12.9" height="12.8"/>
	<path class="st0" d="M32.4,3.3l0.5,2l1.9-0.9l-1.3,1.7l1.9,0.9l-2.2,0.1l0.4,2l-1.3-1.6L31,9.2l0.4-2l-2.1-0.1l1.9-0.9l-1.3-1.7
		l1.9,0.9L32.4,3.3z"/>
	<rect x="94.7" y="25.7" class="st2" width="12.9" height="12.8"/>
	<path class="st0" d="M101.2,29l0.5,2l1.9-0.9l-1.3,1.7l1.9,0.9l-2.2,0.1l0.4,2l-1.3-1.6l-1.3,1.6l0.4-2l-2.2-0.1l1.9-0.9l-1.2-1.7
		l1.9,0.9L101.2,29z"/>
	<rect x="68.9" y="94.1" class="st2" width="12.9" height="12.8"/>
	<path class="st0" d="M75.4,97.4l0.5,2l1.9-0.9l-1.3,1.7l1.9,0.9h-2.2l0.4,2l-1.3-1.5l-1.3,1.6l0.4-2h-2.2l1.9-0.9L73,98.6l1.9,0.9
		L75.4,97.4z"/>
	<rect x="0.1" y="68.4" class="st2" width="12.9" height="12.8"/>
	<path class="st0" d="M6.6,71.8l0.5,2L9,72.9l-1.3,1.7l1.9,0.9H7.5l0.4,2L6.6,76l-1.3,1.6l0.4-2H3.5l1.9-0.9l-1.3-1.7L6,73.8
		L6.6,71.8z"/>
	<rect x="0.1" y="25.7" class="st3" width="12.9" height="12.8"/>
	<path class="st0" d="M6.6,29l0.5,2L9,30.1l-1.3,1.7l1.9,0.9l-2.1,0.1l0.4,2l-1.3-1.6l-1.3,1.6l0.4-2l-2.1-0.1l1.9-0.9l-1.3-1.7
		L6,31L6.6,29z"/>
	<rect x="68.9" class="st3" width="12.9" height="12.8"/>
	<path class="st0" d="M75.4,3.3l0.5,2l1.9-0.9l-1.3,1.7l1.9,0.9l-2.2,0.1l0.4,2l-1.3-1.6L74,9.2l0.4-2l-2.2-0.1l1.9-0.9L73,4.5
		l1.9,0.9L75.4,3.3z"/>
	<rect x="94.7" y="68.4" class="st3" width="12.9" height="12.8"/>
	<path class="st0" d="M101.2,71.8l0.5,2l1.9-0.9l-1.3,1.7l1.9,0.9H102l0.4,2l-1.3-1.5l-1.3,1.6l0.4-2h-2.2l1.9-0.9l-1.2-1.7l1.9,0.9
		L101.2,71.8z"/>
	<rect x="25.9" y="94.1" class="st3" width="12.9" height="12.8"/>
	<path class="st0" d="M32.4,97.4l0.5,2l1.9-0.9l-1.3,1.7l1.9,0.9h-2.2l0.4,2l-1.3-1.5l-1.3,1.6l0.4-2h-2.1l1.9-0.9l-1.3-1.7l1.9,0.9
		L32.4,97.4z"/>
	<rect x="38.8" class="st3" width="17.2" height="12.8"/>
	<rect x="94.7" y="38.5" class="st3" width="12.9" height="17.1"/>
	<rect x="0.1" y="51.3" class="st3" width="12.9" height="17.1"/>
	<rect x="51.7" y="94.1" class="st3" width="17.2" height="12.8"/>
	<ellipse class="st2" cx="47.4" cy="6.4" rx="4.3" ry="4.3"/>
	<ellipse class="st2" cx="6.6" cy="59.9" rx="4.3" ry="4.3"/>
	<ellipse class="st2" cx="60.3" cy="100.5" rx="4.3" ry="4.3"/>
	<ellipse class="st2" cx="101.2" cy="47" rx="4.3" ry="4.3"/>
	<ellipse class="st0" cx="47.4" cy="6.4" rx="3.2" ry="3.2"/>
	<ellipse class="st0" cx="6.6" cy="59.9" rx="3.2" ry="3.2"/>
	<ellipse class="st0" cx="60.3" cy="100.5" rx="3.2" ry="3.2"/>
	<ellipse class="st0" cx="101.2" cy="47" rx="3.2" ry="3.2"/>
</g>
</svg>
