<svg id="Laag_1" data-name="Laag 1" xmlns="http://www.w3.org/2000/svg" xmlns:xlink="http://www.w3.org/1999/xlink" viewBox="0 0 202.73 202.73"><defs><style>.cls-1{fill:none;}.cls-2{fill:#fff;}.cls-3{fill:#da0a16;}.cls-11,.cls-4{fill:#ffb600;}.cls-5{clip-path:url(#clip-path);}.cls-11,.cls-6{fill-rule:evenodd;}.cls-7{clip-path:url(#clip-path-2);}.cls-8{clip-path:url(#clip-path-3);}.cls-9{clip-path:url(#clip-path-4);}.cls-10{clip-path:url(#clip-path-5);}.cls-12{clip-path:url(#clip-path-6);}.cls-13{clip-path:url(#clip-path-7);}.cls-14{clip-path:url(#clip-path-8);}</style><clipPath id="clip-path" transform="translate(0 0)"><rect class="cls-1" x="24.33" width="24.33" height="24.33"/></clipPath><clipPath id="clip-path-2" transform="translate(0 0)"><rect class="cls-1" x="178.4" y="24.33" width="24.33" height="24.33"/></clipPath><clipPath id="clip-path-3" transform="translate(0 0)"><rect class="cls-1" x="154.07" y="178.4" width="24.33" height="24.33"/></clipPath><clipPath id="clip-path-4" transform="translate(0 0)"><rect class="cls-1" y="154.07" width="24.33" height="24.33"/></clipPath><clipPath id="clip-path-5" transform="translate(0 0)"><rect class="cls-1" y="48.65" width="24.33" height="24.33"/></clipPath><clipPath id="clip-path-6" transform="translate(0 0)"><rect class="cls-1" x="129.75" width="24.33" height="24.33"/></clipPath><clipPath id="clip-path-7" transform="translate(0 0)"><rect class="cls-1" x="178.4" y="129.75" width="24.33" height="24.33"/></clipPath><clipPath id="clip-path-8" transform="translate(0 0)"><rect class="cls-1" x="48.65" y="178.4" width="24.33" height="24.33"/></clipPath></defs><rect class="cls-2" width="202.73" height="202.73"/><rect class="cls-3" y="72.98" width="24.33" height="24.33"/><rect class="cls-4" y="85.15" width="24.33" height="12.16"/><path d="M24.33,85.15A12.17,12.17,0,0,1,12.16,73H24.33Z" transform="translate(0 0)"/><path d="M24.33,97.31A12.17,12.17,0,0,1,12.16,85.15H24.33Z" transform="translate(0 0)"/><path d="M0,97.31A12.16,12.16,0,0,0,12.16,85.15H0Z" transform="translate(0 0)"/><path d="M12.16,73A12.16,12.16,0,0,1,0,85.15V73Z" transform="translate(0 0)"/><rect class="cls-3" x="178.4" y="105.42" width="24.33" height="24.33"/><rect class="cls-4" x="178.4" y="117.58" width="24.33" height="12.16"/><path d="M202.73,117.58a12.16,12.16,0,0,1-12.17-12.16h12.17Z" transform="translate(0 0)"/><path d="M202.73,129.75a12.17,12.17,0,0,1-12.17-12.17h12.17Z" transform="translate(0 0)"/><path d="M178.4,129.75a12.16,12.16,0,0,0,12.16-12.17H178.4Z" transform="translate(0 0)"/><path d="M190.56,105.42a12.15,12.15,0,0,1-12.16,12.16V105.42Z" transform="translate(0 0)"/><rect class="cls-3" x="72.98" y="178.4" width="24.33" height="24.33"/><rect class="cls-4" x="72.98" y="190.56" width="24.33" height="12.16"/><path d="M97.31,190.56A12.15,12.15,0,0,1,85.15,178.4H97.31Z" transform="translate(0 0)"/><path d="M97.31,202.73a12.16,12.16,0,0,1-12.16-12.17H97.31Z" transform="translate(0 0)"/><path d="M73,202.73a12.17,12.17,0,0,0,12.17-12.17H73Z" transform="translate(0 0)"/><path d="M85.15,178.4A12.16,12.16,0,0,1,73,190.56V178.4Z" transform="translate(0 0)"/><rect class="cls-3" x="105.42" width="24.33" height="24.33"/><rect class="cls-4" x="105.42" y="12.16" width="24.33" height="12.16"/><path d="M129.75,12.16A12.16,12.16,0,0,1,117.58,0h12.17Z" transform="translate(0 0)"/><path d="M129.75,24.33a12.17,12.17,0,0,1-12.17-12.17h12.17Z" transform="translate(0 0)"/><path d="M105.42,24.33a12.16,12.16,0,0,0,12.16-12.17H105.42Z" transform="translate(0 0)"/><path d="M117.58,0a12.15,12.15,0,0,1-12.16,12.16V0Z" transform="translate(0 0)"/><g class="cls-5"><rect class="cls-2" x="24.33" width="24.33" height="24.33"/><path class="cls-6" d="M40.63,16.3l-2.07-2.07H34.42L32.36,16.3Zm-12.2,3.93,2.06-2.07h12l2.06,2.07ZM26.35,22.3l-2,2H48.65l-2-2Z" transform="translate(0 0)"/><path class="cls-6" d="M32.36,8l2.06,2.07h4.14L40.63,8ZM44.55,4.1,42.49,6.16h-12L28.43,4.1ZM46.63,2l2-2H24.33l2,2Z" transform="translate(0 0)"/><path class="cls-3" d="M36.49,12.16l-2.07,2.07h4.14Z" transform="translate(0 0)"/><path class="cls-3" d="M30.49,18.16h12L40.63,16.3H32.36Z" transform="translate(0 0)"/><path class="cls-3" d="M26.35,22.3H46.63l-2.08-2.07H28.43Z" transform="translate(0 0)"/><path class="cls-3" d="M36.49,12.16l2.07-2.06H34.42Z" transform="translate(0 0)"/><path class="cls-3" d="M42.49,6.16h-12L32.36,8h8.27Z" transform="translate(0 0)"/><path class="cls-3" d="M46.63,2H26.35L28.43,4.1H44.55Z" transform="translate(0 0)"/><path class="cls-6" d="M32.36,16.3l2.06-2.07V10.1L32.36,8ZM28.43,4.1l2.06,2.06v12l-2.06,2.07ZM26.35,2l-2-2V24.33l2-2Z" transform="translate(0 0)"/><path class="cls-3" d="M36.49,12.16,34.42,10.1v4.13Z" transform="translate(0 0)"/><path class="cls-3" d="M30.49,6.16v12l1.87-1.86V8Z" transform="translate(0 0)"/><path class="cls-3" d="M26.35,2V22.3l2.08-2.07V4.1Z" transform="translate(0 0)"/><path class="cls-6" d="M40.63,8,38.56,10.1v4.13l2.07,2.07Zm3.92,12.2-2.06-2.07v-12L44.55,4.1Zm2.08,2.07,2,2V0l-2,2Z" transform="translate(0 0)"/><path class="cls-3" d="M36.49,12.16l2.07,2.07V10.1Z" transform="translate(0 0)"/><path class="cls-3" d="M42.49,18.16v-12L40.63,8V16.3Z" transform="translate(0 0)"/><path class="cls-3" d="M46.63,22.3V2L44.55,4.1V20.23Z" transform="translate(0 0)"/></g><g class="cls-7"><rect class="cls-2" x="178.4" y="24.33" width="24.33" height="24.33"/><path class="cls-6" d="M194.7,40.63l-2.07-2.07H188.5l-2.07,2.07Zm-12.2,3.92,2.06-2.06h12l2.06,2.06Zm-2.07,2.08-2,2h24.33l-2-2Z" transform="translate(0 0)"/><path class="cls-6" d="M186.43,32.36l2.07,2.06h4.13l2.07-2.06Zm12.19-3.93-2.06,2.06h-12l-2.06-2.06Zm2.08-2.08,2-2H178.4l2,2Z" transform="translate(0 0)"/><path class="cls-3" d="M190.56,36.49l-2.06,2.07h4.13Z" transform="translate(0 0)"/><path class="cls-3" d="M184.56,42.49h12l-1.86-1.86h-8.27Z" transform="translate(0 0)"/><path class="cls-3" d="M180.43,46.63H200.7l-2.08-2.08H182.5Z" transform="translate(0 0)"/><path class="cls-3" d="M190.56,36.49l2.07-2.07H188.5Z" transform="translate(0 0)"/><path class="cls-3" d="M196.56,30.49h-12l1.87,1.87h8.27Z" transform="translate(0 0)"/><path class="cls-3" d="M200.7,26.35H180.43l2.07,2.08h16.12Z" transform="translate(0 0)"/><path class="cls-6" d="M186.43,40.63l2.07-2.07V34.42l-2.07-2.06Zm-3.93-12.2,2.06,2.06v12l-2.06,2.06Zm-2.07-2.08-2-2V48.65l2-2Z" transform="translate(0 0)"/><path class="cls-3" d="M190.56,36.49l-2.06-2.07v4.14Z" transform="translate(0 0)"/><path class="cls-3" d="M184.56,30.49v12l1.87-1.86V32.36Z" transform="translate(0 0)"/><path class="cls-3" d="M180.43,26.35V46.63l2.07-2.08V28.43Z" transform="translate(0 0)"/><path class="cls-6" d="M194.7,32.36l-2.07,2.06v4.14l2.07,2.07Zm3.92,12.19-2.06-2.06v-12l2.06-2.06Zm2.08,2.08,2,2V24.33l-2,2Z" transform="translate(0 0)"/><path class="cls-3" d="M190.56,36.49l2.07,2.07V34.42Z" transform="translate(0 0)"/><path class="cls-3" d="M196.56,42.49v-12l-1.86,1.87v8.27Z" transform="translate(0 0)"/><path class="cls-3" d="M200.7,46.63V26.35l-2.08,2.08V44.55Z" transform="translate(0 0)"/></g><g class="cls-8"><rect class="cls-2" x="154.07" y="178.4" width="24.33" height="24.33"/><path class="cls-6" d="M170.37,194.7l-2.07-2.07h-4.13l-2.07,2.07Zm-12.2,3.92,2.07-2.06h12l2.06,2.06Zm-2.07,2.08-2,2H178.4l-2-2Z" transform="translate(0 0)"/><path class="cls-6" d="M162.1,186.43l2.07,2.07h4.13l2.07-2.07Zm12.2-3.93-2.06,2.06h-12l-2.07-2.06Zm2.07-2.07,2-2H154.07l2,2Z" transform="translate(0 0)"/><path class="cls-3" d="M166.24,190.56l-2.07,2.07h4.13Z" transform="translate(0 0)"/><path class="cls-3" d="M160.24,196.56h12l-1.87-1.86H162.1Z" transform="translate(0 0)"/><path class="cls-3" d="M156.1,200.7h20.27l-2.07-2.08H158.17Z" transform="translate(0 0)"/><path class="cls-3" d="M166.24,190.56l2.06-2.06h-4.13Z" transform="translate(0 0)"/><path class="cls-3" d="M172.24,184.56h-12l1.86,1.87h8.27Z" transform="translate(0 0)"/><path class="cls-3" d="M176.37,180.43H156.1l2.07,2.07H174.3Z" transform="translate(0 0)"/><path class="cls-6" d="M162.1,194.7l2.07-2.07V188.5l-2.07-2.07Zm-3.93-12.2,2.07,2.06v12l-2.07,2.06Zm-2.07-2.07-2-2v24.33l2-2Z" transform="translate(0 0)"/><path class="cls-3" d="M166.24,190.56l-2.07-2.06v4.13Z" transform="translate(0 0)"/><path class="cls-3" d="M160.24,184.56v12l1.86-1.86v-8.27Z" transform="translate(0 0)"/><path class="cls-3" d="M156.1,180.43V200.7l2.07-2.08V182.5Z" transform="translate(0 0)"/><path class="cls-6" d="M170.37,186.43l-2.07,2.07v4.13l2.07,2.07Zm3.93,12.19-2.06-2.06v-12l2.06-2.06Zm2.07,2.08,2,2V178.4l-2,2Z" transform="translate(0 0)"/><path class="cls-3" d="M166.24,190.56l2.06,2.07V188.5Z" transform="translate(0 0)"/><path class="cls-3" d="M172.24,196.56v-12l-1.87,1.87v8.27Z" transform="translate(0 0)"/><path class="cls-3" d="M176.37,200.7V180.43l-2.07,2.07v16.12Z" transform="translate(0 0)"/></g><g class="cls-9"><rect class="cls-2" y="154.07" width="24.33" height="24.33"/><path class="cls-6" d="M16.3,170.37l-2.07-2.07H10.1L8,170.37ZM4.1,174.3l2.06-2.06h12l2.07,2.06ZM2,176.37l-2,2H24.33l-2-2Z" transform="translate(0 0)"/><path class="cls-6" d="M8,162.1l2.07,2.07h4.13l2.07-2.07Zm12.2-3.93-2.07,2.07h-12L4.1,158.17Zm2.07-2.07,2-2H0l2,2Z" transform="translate(0 0)"/><path class="cls-3" d="M12.16,166.24,10.1,168.3h4.13Z" transform="translate(0 0)"/><path class="cls-3" d="M6.16,172.24h12l-1.86-1.87H8Z" transform="translate(0 0)"/><path class="cls-3" d="M2,176.37H22.3l-2.07-2.07H4.1Z" transform="translate(0 0)"/><path class="cls-3" d="M12.16,166.24l2.07-2.07H10.1Z" transform="translate(0 0)"/><path class="cls-3" d="M18.16,160.24h-12L8,162.1H16.3Z" transform="translate(0 0)"/><path class="cls-3" d="M22.3,156.1H2l2.07,2.07H20.23Z" transform="translate(0 0)"/><path class="cls-6" d="M8,170.37l2.07-2.07v-4.13L8,162.1ZM4.1,158.17l2.06,2.07v12L4.1,174.3ZM2,156.1l-2-2V178.4l2-2Z" transform="translate(0 0)"/><path class="cls-3" d="M12.16,166.24l-2.06-2.07v4.13Z" transform="translate(0 0)"/><path class="cls-3" d="M6.16,160.24v12L8,170.37V162.1Z" transform="translate(0 0)"/><path class="cls-3" d="M2,156.1v20.27L4.1,174.3V158.17Z" transform="translate(0 0)"/><path class="cls-6" d="M16.3,162.1l-2.07,2.07v4.13l2.07,2.07Zm3.93,12.2-2.07-2.06v-12l2.07-2.07Zm2.07,2.07,2,2V154.07l-2,2Z" transform="translate(0 0)"/><path class="cls-3" d="M12.16,166.24l2.07,2.06v-4.13Z" transform="translate(0 0)"/><path class="cls-3" d="M18.16,172.24v-12L16.3,162.1v8.27Z" transform="translate(0 0)"/><path class="cls-3" d="M22.3,176.37V156.1l-2.07,2.07V174.3Z" transform="translate(0 0)"/></g><g class="cls-10"><rect class="cls-2" y="48.65" width="24.33" height="24.33"/><path class="cls-11" d="M16.3,65l-2.07-2.06H10.1L8,65ZM4.1,68.88l2.06-2.06h12l2.07,2.06ZM2,71,0,73H24.33l-2-2Z" transform="translate(0 0)"/><path class="cls-11" d="M8,56.68l2.07,2.07h4.13l2.07-2.07Zm12.2-3.92-2.07,2.06h-12L4.1,52.76Zm2.07-2.08,2-2H0l2,2Z" transform="translate(0 0)"/><path d="M12.16,60.82,10.1,62.89h4.13Z" transform="translate(0 0)"/><path d="M6.16,66.82h12L16.3,65H8Z" transform="translate(0 0)"/><path d="M2,71H22.3l-2.07-2.07H4.1Z" transform="translate(0 0)"/><path d="M12.16,60.82l2.07-2.07H10.1Z" transform="translate(0 0)"/><path d="M18.16,54.82h-12L8,56.68H16.3Z" transform="translate(0 0)"/><path d="M22.3,50.68H2L4.1,52.76H20.23Z" transform="translate(0 0)"/><path class="cls-6" d="M8,65l2.07-2.06V58.75L8,56.68ZM4.1,52.76l2.06,2.06v12L4.1,68.88ZM2,50.68l-2-2V73l2-2Z" transform="translate(0 0)"/><path class="cls-4" d="M12.16,60.82,10.1,58.75v4.14Z" transform="translate(0 0)"/><path class="cls-4" d="M6.16,54.82v12L8,65V56.68Z" transform="translate(0 0)"/><path class="cls-4" d="M2,50.68V71L4.1,68.88V52.76Z" transform="translate(0 0)"/><path class="cls-6" d="M16.3,56.68l-2.07,2.07v4.14L16.3,65Zm3.93,12.2-2.07-2.06v-12l2.07-2.06ZM22.3,71l2,2V48.65l-2,2Z" transform="translate(0 0)"/><path class="cls-4" d="M12.16,60.82l2.07,2.07V58.75Z" transform="translate(0 0)"/><path class="cls-4" d="M18.16,66.82v-12L16.3,56.68V65Z" transform="translate(0 0)"/><path class="cls-4" d="M22.3,71V50.68l-2.07,2.08V68.88Z" transform="translate(0 0)"/></g><g class="cls-12"><rect class="cls-2" x="129.75" width="24.33" height="24.33"/><path class="cls-11" d="M146,16.3,144,14.23h-4.14l-2.07,2.07Zm-12.19,3.93,2.06-2.07h12L150,20.23Zm-2.08,2.07-2,2h24.32l-2-2Z" transform="translate(0 0)"/><path class="cls-11" d="M137.77,8l2.07,2.07H144L146,8ZM150,4.1l-2.06,2.06h-12L133.85,4.1ZM152.05,2l2-2H129.75l2,2Z" transform="translate(0 0)"/><path d="M141.91,12.16l-2.07,2.07H144Z" transform="translate(0 0)"/><path d="M135.91,18.16h12L146,16.3h-8.27Z" transform="translate(0 0)"/><path d="M131.77,22.3h20.28L150,20.23H133.85Z" transform="translate(0 0)"/><path d="M141.91,12.16,144,10.1h-4.14Z" transform="translate(0 0)"/><path d="M147.91,6.16h-12L137.77,8H146Z" transform="translate(0 0)"/><path d="M152.05,2H131.77l2.08,2.07H150Z" transform="translate(0 0)"/><path class="cls-6" d="M137.77,16.3l2.07-2.07V10.1L137.77,8ZM133.85,4.1l2.06,2.06v12l-2.06,2.07ZM131.77,2l-2-2V24.33l2-2Z" transform="translate(0 0)"/><path class="cls-4" d="M141.91,12.16l-2.07-2.06v4.13Z" transform="translate(0 0)"/><path class="cls-4" d="M135.91,6.16v12l1.86-1.86V8Z" transform="translate(0 0)"/><path class="cls-4" d="M131.77,2V22.3l2.08-2.07V4.1Z" transform="translate(0 0)"/><path class="cls-6" d="M146,8,144,10.1v4.13L146,16.3ZM150,20.23l-2.06-2.07v-12L150,4.1Zm2.08,2.07,2,2V0l-2,2Z" transform="translate(0 0)"/><path class="cls-4" d="M141.91,12.16,144,14.23V10.1Z" transform="translate(0 0)"/><path class="cls-4" d="M147.91,18.16v-12L146,8V16.3Z" transform="translate(0 0)"/><path class="cls-4" d="M152.05,22.3V2L150,4.1V20.23Z" transform="translate(0 0)"/></g><g class="cls-13"><rect class="cls-2" x="178.4" y="129.75" width="24.33" height="24.33"/><path class="cls-11" d="M194.7,146,192.63,144H188.5L186.43,146ZM182.5,150l2.06-2.06h12l2.06,2.06Zm-2.07,2.08-2,2h24.33l-2-2Z" transform="translate(0 0)"/><path class="cls-11" d="M186.43,137.77l2.07,2.07h4.13l2.07-2.07Zm12.19-3.92-2.06,2.06h-12l-2.06-2.06Zm2.08-2.08,2-2H178.4l2,2Z" transform="translate(0 0)"/><path d="M190.56,141.91,188.5,144h4.13Z" transform="translate(0 0)"/><path d="M184.56,147.91h12L194.7,146h-8.27Z" transform="translate(0 0)"/><path d="M180.43,152.05H200.7L198.62,150H182.5Z" transform="translate(0 0)"/><path d="M190.56,141.91l2.07-2.07H188.5Z" transform="translate(0 0)"/><path d="M196.56,135.91h-12l1.87,1.86h8.27Z" transform="translate(0 0)"/><path d="M200.7,131.77H180.43l2.07,2.08h16.12Z" transform="translate(0 0)"/><path class="cls-6" d="M186.43,146,188.5,144v-4.14l-2.07-2.07Zm-3.93-12.19,2.06,2.06v12L182.5,150Zm-2.07-2.08-2-2v24.32l2-2Z" transform="translate(0 0)"/><path class="cls-4" d="M190.56,141.91l-2.06-2.07V144Z" transform="translate(0 0)"/><path class="cls-4" d="M184.56,135.91v12l1.87-1.87v-8.27Z" transform="translate(0 0)"/><path class="cls-4" d="M180.43,131.77v20.28L182.5,150V133.85Z" transform="translate(0 0)"/><path class="cls-6" d="M194.7,137.77l-2.07,2.07V144L194.7,146Zm3.92,12.2-2.06-2.06v-12l2.06-2.06Zm2.08,2.08,2,2V129.75l-2,2Z" transform="translate(0 0)"/><path class="cls-4" d="M190.56,141.91l2.07,2.07v-4.14Z" transform="translate(0 0)"/><path class="cls-4" d="M196.56,147.91v-12l-1.86,1.86V146Z" transform="translate(0 0)"/><path class="cls-4" d="M200.7,152.05V131.77l-2.08,2.08V150Z" transform="translate(0 0)"/></g><g class="cls-14"><rect class="cls-2" x="48.65" y="178.4" width="24.33" height="24.33"/><path class="cls-11" d="M65,194.7l-2.06-2.07H58.75l-2.07,2.07Zm-12.19,3.92,2.06-2.06h12l2.06,2.06Zm-2.08,2.08-2,2H73l-2-2Z" transform="translate(0 0)"/><path class="cls-11" d="M56.68,186.43l2.07,2.07h4.14L65,186.43Zm12.2-3.93-2.06,2.06h-12l-2.06-2.06ZM71,180.43l2-2H48.65l2,2Z" transform="translate(0 0)"/><path d="M60.82,190.56l-2.07,2.07h4.14Z" transform="translate(0 0)"/><path d="M54.82,196.56h12L65,194.7H56.68Z" transform="translate(0 0)"/><path d="M50.68,200.7H71l-2.07-2.08H52.76Z" transform="translate(0 0)"/><path d="M60.82,190.56l2.07-2.06H58.75Z" transform="translate(0 0)"/><path d="M66.82,184.56h-12l1.86,1.87H65Z" transform="translate(0 0)"/><path d="M71,180.43H50.68l2.08,2.07H68.88Z" transform="translate(0 0)"/><path class="cls-6" d="M56.68,194.7l2.07-2.07V188.5l-2.07-2.07Zm-3.92-12.2,2.06,2.06v12l-2.06,2.06Zm-2.08-2.07-2-2v24.33l2-2Z" transform="translate(0 0)"/><path class="cls-4" d="M60.82,190.56l-2.07-2.06v4.13Z" transform="translate(0 0)"/><path class="cls-4" d="M54.82,184.56v12l1.86-1.86v-8.27Z" transform="translate(0 0)"/><path class="cls-4" d="M50.68,180.43V200.7l2.08-2.08V182.5Z" transform="translate(0 0)"/><path class="cls-6" d="M65,186.43l-2.06,2.07v4.13L65,194.7Zm3.93,12.19-2.06-2.06v-12l2.06-2.06ZM71,200.7l2,2V178.4l-2,2Z" transform="translate(0 0)"/><path class="cls-4" d="M60.82,190.56l2.07,2.07V188.5Z" transform="translate(0 0)"/><path class="cls-4" d="M66.82,196.56v-12L65,186.43v8.27Z" transform="translate(0 0)"/><path class="cls-4" d="M71,200.7V180.43l-2.07,2.07v16.12Z" transform="translate(0 0)"/></g><rect y="24.33" width="24.33" height="24.33"/><path class="cls-3" d="M13.74,28.72a1.48,1.48,0,1,1-1.48-1.47A1.48,1.48,0,0,1,13.74,28.72Z" transform="translate(0 0)"/><path class="cls-3" d="M13.74,35.8a1.48,1.48,0,1,1-.6-1.18A1.48,1.48,0,0,1,13.74,35.8Z" transform="translate(0 0)"/><path class="cls-3" d="M13.74,42.59a1.48,1.48,0,1,1-1.48-1.47A1.48,1.48,0,0,1,13.74,42.59Z" transform="translate(0 0)"/><path class="cls-3" d="M19.93,39.05a1.48,1.48,0,1,1-1.47-1.47A1.47,1.47,0,0,1,19.93,39.05Z" transform="translate(0 0)"/><path class="cls-3" d="M7.54,39.05a1.48,1.48,0,1,1-1.48-1.47A1.48,1.48,0,0,1,7.54,39.05Z" transform="translate(0 0)"/><path class="cls-3" d="M19.93,32.26a1.48,1.48,0,1,1-1.47-1.47A1.47,1.47,0,0,1,19.93,32.26Z" transform="translate(0 0)"/><path class="cls-3" d="M7.54,32.26a1.48,1.48,0,1,1-1.48-1.47A1.48,1.48,0,0,1,7.54,32.26Z" transform="translate(0 0)"/><path class="cls-3" d="M11.67,37h1.18v4.42H11.67Z" transform="translate(0 0)"/><path class="cls-3" d="M11.67,29.9h1.18v4.72H11.67Z" transform="translate(0 0)"/><path class="cls-3" d="M17.87,33.44h1.18v4.73H17.87Z" transform="translate(0 0)"/><path class="cls-3" d="M5.47,33.44H6.65v4.73H5.47Z" transform="translate(0 0)"/><path class="cls-3" d="M13.07,36.69l.54-.89,4,2.47-.53.88Z" transform="translate(0 0)"/><path class="cls-3" d="M7,33.15l.54-.89,4,2.47-.53.88Z" transform="translate(0 0)"/><path class="cls-3" d="M11.44,36.69l-.54-.89-4,2.47.54.88Z" transform="translate(0 0)"/><path class="cls-3" d="M11.54,29.55,11,28.66,7,31.12l.54.88Z" transform="translate(0 0)"/><path class="cls-3" d="M13.17,29.55l.54-.89,4,2.46L17.2,32Z" transform="translate(0 0)"/><path class="cls-3" d="M11.54,41.75l-.54.88L7,40.17l.54-.88Z" transform="translate(0 0)"/><path class="cls-3" d="M13.17,41.75l.54.88,4-2.46-.54-.88Z" transform="translate(0 0)"/><path class="cls-3" d="M17.71,33.15l-.54-.89-4,2.47.54.88Z" transform="translate(0 0)"/><path class="cls-3" d="M3.41,45.1l1.91-4.87.74.15L5.62,45.1A1.43,1.43,0,0,0,3.41,45.1Z" transform="translate(0 0)"/><path class="cls-3" d="M20.82,45.1,18.9,40.23l-.74.15.44,4.72A1.44,1.44,0,0,1,20.82,45.1Z" transform="translate(0 0)"/><path class="cls-3" d="M9.9,43.77h4.72v1.48H9.9Z" transform="translate(0 0)"/><rect x="154.07" width="24.33" height="24.33"/><path class="cls-3" d="M167.81,4.39a1.48,1.48,0,1,1-1.48-1.47A1.48,1.48,0,0,1,167.81,4.39Z" transform="translate(0 0)"/><path class="cls-3" d="M167.81,11.48a1.49,1.49,0,1,1-.59-1.18A1.46,1.46,0,0,1,167.81,11.48Z" transform="translate(0 0)"/><path class="cls-3" d="M167.81,18.27a1.48,1.48,0,1,1-1.48-1.48A1.47,1.47,0,0,1,167.81,18.27Z" transform="translate(0 0)"/><path class="cls-3" d="M174,14.72a1.48,1.48,0,1,1-1.47-1.47A1.47,1.47,0,0,1,174,14.72Z" transform="translate(0 0)"/><path class="cls-3" d="M161.61,14.72a1.48,1.48,0,1,1-1.48-1.47A1.48,1.48,0,0,1,161.61,14.72Z" transform="translate(0 0)"/><path class="cls-3" d="M174,7.94a1.48,1.48,0,1,1-1.47-1.48A1.47,1.47,0,0,1,174,7.94Z" transform="translate(0 0)"/><path class="cls-3" d="M161.61,7.94a1.48,1.48,0,1,1-1.48-1.48A1.47,1.47,0,0,1,161.61,7.94Z" transform="translate(0 0)"/><path class="cls-3" d="M165.74,12.66h1.18v4.42h-1.18Z" transform="translate(0 0)"/><path class="cls-3" d="M165.74,5.58h1.18V10.3h-1.18Z" transform="translate(0 0)"/><path class="cls-3" d="M171.94,9.12h1.18v4.72h-1.18Z" transform="translate(0 0)"/><path class="cls-3" d="M159.54,9.12h1.18v4.72h-1.18Z" transform="translate(0 0)"/><path class="cls-3" d="M167.14,12.36l.54-.88,4,2.46-.54.88Z" transform="translate(0 0)"/><path class="cls-3" d="M161,8.82l.54-.88,4,2.46-.54.88Z" transform="translate(0 0)"/><path class="cls-3" d="M165.51,12.36l-.54-.88-4,2.46.54.88Z" transform="translate(0 0)"/><path class="cls-3" d="M165.61,5.22l-.53-.88-4,2.45.54.89Z" transform="translate(0 0)"/><path class="cls-3" d="M167.24,5.22l.54-.88,4,2.45-.54.89Z" transform="translate(0 0)"/><path class="cls-3" d="M165.61,17.42l-.53.88-4-2.46.54-.88Z" transform="translate(0 0)"/><path class="cls-3" d="M167.24,17.42l.54.88,4-2.46-.54-.88Z" transform="translate(0 0)"/><path class="cls-3" d="M171.78,8.82l-.53-.88-4,2.46.54.88Z" transform="translate(0 0)"/><path class="cls-3" d="M157.48,20.77l1.92-4.87.73.15-.44,4.72A1.43,1.43,0,0,0,157.48,20.77Z" transform="translate(0 0)"/><path class="cls-3" d="M174.89,20.77,173,15.9l-.74.15.45,4.72A1.43,1.43,0,0,1,174.89,20.77Z" transform="translate(0 0)"/><path class="cls-3" d="M164,19.45h4.72v1.47H164Z" transform="translate(0 0)"/><rect x="178.4" y="154.07" width="24.33" height="24.33"/><path class="cls-3" d="M192.13,158.47a1.48,1.48,0,1,1-1.47-1.48A1.47,1.47,0,0,1,192.13,158.47Z" transform="translate(0 0)"/><path class="cls-3" d="M192.13,165.55a1.48,1.48,0,1,1-1.47-1.48,1.42,1.42,0,0,1,.88.3A1.47,1.47,0,0,1,192.13,165.55Z" transform="translate(0 0)"/><path class="cls-3" d="M192.13,172.34a1.48,1.48,0,1,1-1.47-1.48A1.47,1.47,0,0,1,192.13,172.34Z" transform="translate(0 0)"/><path class="cls-3" d="M198.33,168.8a1.48,1.48,0,1,1-1.47-1.48A1.47,1.47,0,0,1,198.33,168.8Z" transform="translate(0 0)"/><path class="cls-3" d="M185.94,168.8a1.48,1.48,0,1,1-1.48-1.48A1.47,1.47,0,0,1,185.94,168.8Z" transform="translate(0 0)"/><path class="cls-3" d="M198.33,162a1.48,1.48,0,1,1-1.47-1.48A1.47,1.47,0,0,1,198.33,162Z" transform="translate(0 0)"/><path class="cls-3" d="M185.94,162a1.48,1.48,0,1,1-1.48-1.48A1.47,1.47,0,0,1,185.94,162Z" transform="translate(0 0)"/><path class="cls-3" d="M190.07,166.73h1.18v4.43h-1.18Z" transform="translate(0 0)"/><path class="cls-3" d="M190.07,159.65h1.18v4.72h-1.18Z" transform="translate(0 0)"/><path class="cls-3" d="M196.27,163.19h1.18v4.72h-1.18Z" transform="translate(0 0)"/><path class="cls-3" d="M183.87,163.19h1.18v4.72h-1.18Z" transform="translate(0 0)"/><path class="cls-3" d="M191.47,166.43l.54-.88,4,2.46-.54.89Z" transform="translate(0 0)"/><path class="cls-3" d="M185.35,162.89l.54-.88,4,2.46-.54.88Z" transform="translate(0 0)"/><path class="cls-3" d="M189.84,166.43l-.54-.88-4,2.46.54.89Z" transform="translate(0 0)"/><path class="cls-3" d="M189.94,159.29l-.54-.88-4,2.46.54.88Z" transform="translate(0 0)"/><path class="cls-3" d="M191.57,159.29l.54-.88,4,2.46-.54.88Z" transform="translate(0 0)"/><path class="cls-3" d="M189.94,171.49l-.54.88-4-2.46.54-.88Z" transform="translate(0 0)"/><path class="cls-3" d="M191.57,171.49l.54.88,4-2.46-.54-.88Z" transform="translate(0 0)"/><path class="cls-3" d="M196.11,162.89l-.54-.88-4,2.46.54.88Z" transform="translate(0 0)"/><path class="cls-3" d="M181.81,174.85l1.91-4.87.74.14-.44,4.73A1.42,1.42,0,0,0,181.81,174.85Z" transform="translate(0 0)"/><path class="cls-3" d="M199.22,174.85,197.3,170l-.74.14.44,4.73A1.43,1.43,0,0,1,199.22,174.85Z" transform="translate(0 0)"/><path class="cls-3" d="M188.3,173.52H193V175H188.3Z" transform="translate(0 0)"/><rect x="24.33" y="178.4" width="24.33" height="24.33"/><path class="cls-3" d="M38.06,182.79a1.48,1.48,0,1,1-1.47-1.47A1.47,1.47,0,0,1,38.06,182.79Z" transform="translate(0 0)"/><path class="cls-3" d="M38.06,189.88a1.48,1.48,0,1,1-1.47-1.48,1.42,1.42,0,0,1,.88.3A1.46,1.46,0,0,1,38.06,189.88Z" transform="translate(0 0)"/><path class="cls-3" d="M38.06,196.66a1.48,1.48,0,1,1-1.47-1.47A1.47,1.47,0,0,1,38.06,196.66Z" transform="translate(0 0)"/><path class="cls-3" d="M44.26,193.12a1.48,1.48,0,1,1-1.48-1.47A1.48,1.48,0,0,1,44.26,193.12Z" transform="translate(0 0)"/><path class="cls-3" d="M31.86,193.12a1.48,1.48,0,1,1-1.47-1.47A1.47,1.47,0,0,1,31.86,193.12Z" transform="translate(0 0)"/><path class="cls-3" d="M44.26,186.34a1.48,1.48,0,1,1-1.48-1.48A1.47,1.47,0,0,1,44.26,186.34Z" transform="translate(0 0)"/><path class="cls-3" d="M31.86,186.34a1.48,1.48,0,1,1-1.47-1.48A1.47,1.47,0,0,1,31.86,186.34Z" transform="translate(0 0)"/><path class="cls-3" d="M36,191.06h1.18v4.42H36Z" transform="translate(0 0)"/><path class="cls-3" d="M36,184h1.18v4.73H36Z" transform="translate(0 0)"/><path class="cls-3" d="M42.19,187.52h1.18v4.72H42.19Z" transform="translate(0 0)"/><path class="cls-3" d="M29.8,187.52H31v4.72H29.8Z" transform="translate(0 0)"/><path class="cls-3" d="M37.39,190.76l.54-.88,4,2.46-.54.88Z" transform="translate(0 0)"/><path class="cls-3" d="M31.27,187.22l.54-.88,4,2.46-.54.88Z" transform="translate(0 0)"/><path class="cls-3" d="M35.76,190.76l-.53-.88-4,2.46.54.88Z" transform="translate(0 0)"/><path class="cls-3" d="M35.87,183.62l-.54-.88-4,2.45.54.89Z" transform="translate(0 0)"/><path class="cls-3" d="M37.5,183.62l.54-.89,4,2.46-.54.89Z" transform="translate(0 0)"/><path class="cls-3" d="M35.87,195.82l-.54.88-4-2.46.54-.88Z" transform="translate(0 0)"/><path class="cls-3" d="M37.5,195.82l.54.88,4-2.46-.54-.88Z" transform="translate(0 0)"/><path class="cls-3" d="M42,187.22l-.54-.88-4,2.46.54.88Z" transform="translate(0 0)"/><path class="cls-3" d="M27.73,199.17l1.92-4.87.74.15L30,199.17A1.44,1.44,0,0,0,27.73,199.17Z" transform="translate(0 0)"/><path class="cls-3" d="M45.15,199.17l-1.92-4.87-.74.15.44,4.72A1.44,1.44,0,0,1,45.15,199.17Z" transform="translate(0 0)"/><path class="cls-3" d="M34.23,197.85H39v1.47H34.23Z" transform="translate(0 0)"/><rect class="cls-3" y="97.31" width="24.33" height="24.33"/><path class="cls-4" d="M13.85,101.45a1.69,1.69,0,1,1-1.69-1.71A1.71,1.71,0,0,1,13.85,101.45Z" transform="translate(0 0)"/><path class="cls-4" d="M13.85,109.64a1.69,1.69,0,1,1-1.69-1.7,1.62,1.62,0,0,1,1,.34A1.7,1.7,0,0,1,13.85,109.64Z" transform="translate(0 0)"/><path class="cls-4" d="M13.85,117.5a1.69,1.69,0,1,1-1.69-1.71A1.7,1.7,0,0,1,13.85,117.5Z" transform="translate(0 0)"/><path class="cls-4" d="M20.92,113.4a1.69,1.69,0,1,1-1.68-1.71A1.7,1.7,0,0,1,20.92,113.4Z" transform="translate(0 0)"/><path class="cls-4" d="M6.77,113.4a1.68,1.68,0,1,1-1.68-1.71A1.7,1.7,0,0,1,6.77,113.4Z" transform="translate(0 0)"/><path class="cls-4" d="M20.92,105.55a1.69,1.69,0,1,1-1.68-1.71A1.69,1.69,0,0,1,20.92,105.55Z" transform="translate(0 0)"/><path class="cls-4" d="M6.77,105.55a1.68,1.68,0,1,1-1.68-1.71A1.69,1.69,0,0,1,6.77,105.55Z" transform="translate(0 0)"/><path class="cls-4" d="M11.49,111h1.35v5.12H11.49Z" transform="translate(0 0)"/><path class="cls-4" d="M11.49,102.81h1.35v5.47H11.49Z" transform="translate(0 0)"/><path class="cls-4" d="M18.56,106.91h1.35v5.46H18.56Z" transform="translate(0 0)"/><path class="cls-4" d="M4.42,106.91H5.76v5.46H4.42Z" transform="translate(0 0)"/><path class="cls-4" d="M13.09,110.66l.61-1,4.6,2.85-.62,1Z" transform="translate(0 0)"/><path class="cls-4" d="M6.1,106.57l.62-1,4.59,2.85-.61,1Z" transform="translate(0 0)"/><path class="cls-4" d="M11.23,110.66l-.62-1L6,112.49l.62,1Z" transform="translate(0 0)"/><path class="cls-4" d="M11.34,102.4l-.61-1-4.6,2.85.61,1Z" transform="translate(0 0)"/><path class="cls-4" d="M13.2,102.4l.62-1,4.6,2.85-.62,1Z" transform="translate(0 0)"/><path class="cls-4" d="M11.34,116.52l-.61,1-4.6-2.85.61-1Z" transform="translate(0 0)"/><path class="cls-4" d="M13.2,116.52l.62,1,4.6-2.85-.62-1Z" transform="translate(0 0)"/><path class="cls-4" d="M18.39,106.57l-.62-1-4.6,2.85.62,1Z" transform="translate(0 0)"/><rect class="cls-3" x="81.09" width="24.33" height="24.33"/><path class="cls-4" d="M94.94,4.14a1.69,1.69,0,1,1-1.69-1.71A1.71,1.71,0,0,1,94.94,4.14Z" transform="translate(0 0)"/><path class="cls-4" d="M94.94,12.33a1.69,1.69,0,1,1-1.69-1.7,1.62,1.62,0,0,1,1,.34A1.71,1.71,0,0,1,94.94,12.33Z" transform="translate(0 0)"/><path class="cls-4" d="M94.94,20.19a1.69,1.69,0,1,1-1.69-1.71A1.7,1.7,0,0,1,94.94,20.19Z" transform="translate(0 0)"/><path class="cls-4" d="M102,16.09a1.69,1.69,0,1,1-1.68-1.71A1.7,1.7,0,0,1,102,16.09Z" transform="translate(0 0)"/><path class="cls-4" d="M87.87,16.09a1.69,1.69,0,1,1-1.69-1.71A1.71,1.71,0,0,1,87.87,16.09Z" transform="translate(0 0)"/><path class="cls-4" d="M102,8.24a1.69,1.69,0,1,1-1.68-1.71A1.69,1.69,0,0,1,102,8.24Z" transform="translate(0 0)"/><path class="cls-4" d="M87.87,8.24a1.69,1.69,0,1,1-1.69-1.71A1.7,1.7,0,0,1,87.87,8.24Z" transform="translate(0 0)"/><path class="cls-4" d="M92.58,13.7h1.35v5.12H92.58Z" transform="translate(0 0)"/><path class="cls-4" d="M92.58,5.51h1.35V11H92.58Z" transform="translate(0 0)"/><path class="cls-4" d="M99.65,9.6H101v5.47H99.65Z" transform="translate(0 0)"/><path class="cls-4" d="M85.51,9.6h1.34v5.47H85.51Z" transform="translate(0 0)"/><path class="cls-4" d="M94.18,13.35l.61-1,4.6,2.85-.62,1Z" transform="translate(0 0)"/><path class="cls-4" d="M87.19,9.26l.62-1,4.59,2.85-.61,1Z" transform="translate(0 0)"/><path class="cls-4" d="M92.32,13.35l-.62-1-4.6,2.85.62,1Z" transform="translate(0 0)"/><path class="cls-4" d="M92.44,5.09l-.62-1-4.6,2.85.61,1Z" transform="translate(0 0)"/><path class="cls-4" d="M94.29,5.09l.62-1,4.6,2.85-.62,1Z" transform="translate(0 0)"/><path class="cls-4" d="M92.44,19.21l-.62,1-4.6-2.85.61-1Z" transform="translate(0 0)"/><path class="cls-4" d="M94.29,19.21l.62,1,4.6-2.85-.62-1Z" transform="translate(0 0)"/><path class="cls-4" d="M99.48,9.26l-.62-1-4.6,2.85.62,1Z" transform="translate(0 0)"/><rect class="cls-3" x="178.4" y="81.09" width="24.33" height="24.33"/><path class="cls-4" d="M192.25,85.23a1.69,1.69,0,1,1-1.69-1.71A1.71,1.71,0,0,1,192.25,85.23Z" transform="translate(0 0)"/><path class="cls-4" d="M192.25,93.43a1.69,1.69,0,1,1-1.69-1.71,1.62,1.62,0,0,1,1,.34A1.72,1.72,0,0,1,192.25,93.43Z" transform="translate(0 0)"/><path class="cls-4" d="M192.25,101.28a1.69,1.69,0,1,1-1.69-1.71A1.71,1.71,0,0,1,192.25,101.28Z" transform="translate(0 0)"/><path class="cls-4" d="M199.32,97.18a1.69,1.69,0,1,1-1.68-1.71A1.7,1.7,0,0,1,199.32,97.18Z" transform="translate(0 0)"/><path class="cls-4" d="M185.17,97.18a1.68,1.68,0,1,1-1.68-1.71A1.7,1.7,0,0,1,185.17,97.18Z" transform="translate(0 0)"/><path class="cls-4" d="M199.32,89.33a1.69,1.69,0,1,1-1.68-1.71A1.69,1.69,0,0,1,199.32,89.33Z" transform="translate(0 0)"/><path class="cls-4" d="M185.17,89.33a1.68,1.68,0,1,1-1.68-1.71A1.69,1.69,0,0,1,185.17,89.33Z" transform="translate(0 0)"/><path class="cls-4" d="M189.89,94.79h1.35v5.12h-1.35Z" transform="translate(0 0)"/><path class="cls-4" d="M189.89,86.6h1.35v5.46h-1.35Z" transform="translate(0 0)"/><path class="cls-4" d="M197,90.69h1.35v5.47H197Z" transform="translate(0 0)"/><path class="cls-4" d="M182.82,90.69h1.34v5.47h-1.34Z" transform="translate(0 0)"/><path class="cls-4" d="M191.49,94.45l.61-1,4.6,2.85-.62,1Z" transform="translate(0 0)"/><path class="cls-4" d="M184.5,90.35l.62-1,4.59,2.85-.61,1Z" transform="translate(0 0)"/><path class="cls-4" d="M189.62,94.45l-.61-1-4.6,2.85.62,1Z" transform="translate(0 0)"/><path class="cls-4" d="M189.74,86.18l-.61-1L184.53,88l.61,1Z" transform="translate(0 0)"/><path class="cls-4" d="M191.6,86.18l.62-1,4.6,2.85-.62,1Z" transform="translate(0 0)"/><path class="cls-4" d="M189.74,100.3l-.61,1-4.6-2.85.61-1Z" transform="translate(0 0)"/><path class="cls-4" d="M191.6,100.3l.62,1,4.6-2.85-.62-1Z" transform="translate(0 0)"/><path class="cls-4" d="M196.79,90.35l-.62-1-4.6,2.85.62,1Z" transform="translate(0 0)"/><rect class="cls-3" x="97.31" y="178.4" width="24.33" height="24.33"/><path class="cls-4" d="M111.16,182.54a1.69,1.69,0,1,1-1.69-1.71A1.71,1.71,0,0,1,111.16,182.54Z" transform="translate(0 0)"/><path class="cls-4" d="M111.16,190.73a1.69,1.69,0,1,1-1.69-1.7,1.62,1.62,0,0,1,1,.34A1.71,1.71,0,0,1,111.16,190.73Z" transform="translate(0 0)"/><path class="cls-4" d="M111.16,198.59a1.69,1.69,0,1,1-1.69-1.71A1.7,1.7,0,0,1,111.16,198.59Z" transform="translate(0 0)"/><path class="cls-4" d="M118.23,194.49a1.69,1.69,0,1,1-1.68-1.71A1.7,1.7,0,0,1,118.23,194.49Z" transform="translate(0 0)"/><path class="cls-4" d="M104.08,194.49a1.69,1.69,0,1,1-1.68-1.71A1.7,1.7,0,0,1,104.08,194.49Z" transform="translate(0 0)"/><path class="cls-4" d="M118.23,186.64a1.69,1.69,0,1,1-1.68-1.71A1.69,1.69,0,0,1,118.23,186.64Z" transform="translate(0 0)"/><path class="cls-4" d="M104.08,186.64a1.69,1.69,0,1,1-1.68-1.71A1.69,1.69,0,0,1,104.08,186.64Z" transform="translate(0 0)"/><path class="cls-4" d="M108.8,192.1h1.35v5.12H108.8Z" transform="translate(0 0)"/><path class="cls-4" d="M108.8,183.91h1.35v5.46H108.8Z" transform="translate(0 0)"/><path class="cls-4" d="M115.87,188h1.35v5.47h-1.35Z" transform="translate(0 0)"/><path class="cls-4" d="M101.73,188h1.34v5.47h-1.34Z" transform="translate(0 0)"/><path class="cls-4" d="M110.39,191.75l.62-1,4.6,2.85-.62,1Z" transform="translate(0 0)"/><path class="cls-4" d="M103.41,187.66l.62-1,4.59,2.85-.61,1Z" transform="translate(0 0)"/><path class="cls-4" d="M108.53,191.75l-.61-1-4.6,2.85.62,1Z" transform="translate(0 0)"/><path class="cls-4" d="M108.65,183.49l-.61-1-4.6,2.85.61,1Z" transform="translate(0 0)"/><path class="cls-4" d="M110.51,183.49l.62-1,4.6,2.85-.62,1Z" transform="translate(0 0)"/><path class="cls-4" d="M108.65,197.61l-.61,1-4.6-2.85.61-1Z" transform="translate(0 0)"/><path class="cls-4" d="M110.51,197.61l.62,1,4.6-2.85-.62-1Z" transform="translate(0 0)"/><path class="cls-4" d="M115.7,187.66l-.62-1-4.6,2.85.62,1Z" transform="translate(0 0)"/><rect class="cls-4" width="24.33" height="24.33"/><path d="M8.27,24.33H0V0H8.27Z" transform="translate(0 0)"/><rect class="cls-3" x="16.22" width="8.11" height="24.33"/><rect class="cls-4" y="178.4" width="24.33" height="24.33"/><path d="M8.27,202.73H0V178.4H8.27Z" transform="translate(0 0)"/><rect class="cls-3" x="16.22" y="178.4" width="8.11" height="24.33"/><rect class="cls-4" x="178.4" width="24.33" height="24.33"/><path d="M186.67,24.33H178.4V0h8.27Z" transform="translate(0 0)"/><rect class="cls-3" x="194.62" width="8.11" height="24.33"/><rect class="cls-4" x="178.4" y="178.4" width="24.33" height="24.33"/><path d="M186.67,202.73H178.4V178.4h8.27Z" transform="translate(0 0)"/><rect class="cls-3" x="194.62" y="178.4" width="8.11" height="24.33"/><rect class="cls-4" x="48.65" width="32.44" height="24.33"/><rect class="cls-4" x="121.64" y="178.4" width="32.44" height="24.33"/><rect class="cls-4" x="178.4" y="48.65" width="24.33" height="32.44"/><rect class="cls-4" y="121.64" width="24.33" height="32.44"/><rect class="cls-3" x="52.71" width="24.33" height="24.33"/><rect class="cls-4" x="57.66" y="4.96" width="14.53" height="14.53" rx="0.81" transform="translate(10.38 49.49) rotate(-45)"/><rect x="57.04" y="10.6" width="3.23" height="3.23" rx="0.28" transform="translate(8.54 45.05) rotate(-45)"/><rect x="60.17" y="13.74" width="3.23" height="3.23" rx="0.28" transform="translate(7.24 48.19) rotate(-45)"/><rect x="63.31" y="16.88" width="3.23" height="3.23" rx="0.28" transform="translate(5.94 51.33) rotate(-45)"/><rect x="63.31" y="4.33" width="3.23" height="3.23" rx="0.28" transform="translate(14.82 47.65) rotate(-45)"/><rect x="66.45" y="7.47" width="3.23" height="3.23" rx="0.28" transform="translate(13.52 50.79) rotate(-45)"/><rect x="69.59" y="10.6" width="3.23" height="3.23" rx="0.28" transform="translate(12.22 53.93) rotate(-45)"/><rect x="60.17" y="7.47" width="3.23" height="3.23" rx="0.28" transform="translate(11.68 46.35) rotate(-45)"/><rect x="63.31" y="10.6" width="3.23" height="3.23" rx="0.28" transform="translate(10.38 49.49) rotate(-45)"/><rect x="66.45" y="13.74" width="3.23" height="3.23" rx="0.28" transform="translate(9.08 52.63) rotate(-45)"/><rect class="cls-3" x="178.4" y="52.71" width="24.33" height="24.33"/><rect class="cls-4" x="183.35" y="57.66" width="14.53" height="14.53" rx="0.81" transform="translate(9.92 153.8) rotate(-45)"/><rect x="182.73" y="63.31" width="3.23" height="3.23" rx="0.28" transform="translate(8.08 149.37) rotate(-45)"/><rect x="185.87" y="66.45" width="3.23" height="3.23" rx="0.28" transform="translate(6.78 152.5) rotate(-45)"/><rect x="189" y="69.59" width="3.23" height="3.23" rx="0.28" transform="translate(5.48 155.64) rotate(-45)"/><rect x="189" y="57.04" width="3.23" height="3.23" rx="0.28" transform="translate(14.36 151.97) rotate(-45)"/><rect x="192.14" y="60.17" width="3.23" height="3.23" rx="0.28" transform="translate(13.06 155.1) rotate(-45)"/><rect x="195.28" y="63.31" width="3.23" height="3.23" rx="0.28" transform="translate(11.76 158.24) rotate(-45)"/><rect x="185.87" y="60.17" width="3.23" height="3.23" rx="0.28" transform="translate(11.22 150.67) rotate(-45)"/><rect x="189" y="63.31" width="3.23" height="3.23" rx="0.28" transform="translate(9.92 153.8) rotate(-45)"/><rect x="192.14" y="66.45" width="3.23" height="3.23" rx="0.28" transform="translate(8.62 156.94) rotate(-45)"/><rect class="cls-3" x="125.69" y="178.4" width="24.33" height="24.33"/><rect class="cls-4" x="130.65" y="183.35" width="14.53" height="14.53" rx="0.81" transform="translate(-94.39 153.35) rotate(-45)"/><rect x="130.02" y="189" width="3.23" height="3.23" rx="0.28" transform="translate(-96.23 148.91) rotate(-45)"/><rect x="133.16" y="192.14" width="3.23" height="3.23" rx="0.28" transform="translate(-97.53 152.05) rotate(-45)"/><rect x="136.3" y="195.28" width="3.23" height="3.23" rx="0.28" transform="translate(-98.83 155.19) rotate(-45)"/><rect x="136.3" y="182.73" width="3.23" height="3.23" rx="0.28" transform="translate(-89.96 151.51) rotate(-45)"/><rect x="139.43" y="185.87" width="3.23" height="3.23" rx="0.28" transform="translate(-91.26 154.65) rotate(-45)"/><rect x="142.57" y="189" width="3.23" height="3.23" rx="0.28" transform="translate(-92.56 157.79) rotate(-45)"/><rect x="133.16" y="185.87" width="3.23" height="3.23" rx="0.28" transform="translate(-93.09 150.21) rotate(-45)"/><rect x="136.3" y="189" width="3.23" height="3.23" rx="0.28" transform="translate(-94.39 153.35) rotate(-45)"/><rect x="139.43" y="192.14" width="3.23" height="3.23" rx="0.28" transform="translate(-95.7 156.49) rotate(-45)"/><rect class="cls-3" y="125.69" width="24.33" height="24.33"/><rect class="cls-4" x="4.95" y="130.65" width="14.53" height="14.53" rx="0.81" transform="translate(-93.94 49.03) rotate(-45)"/><rect x="4.33" y="136.3" width="3.23" height="3.23" rx="0.28" transform="translate(-95.78 44.59) rotate(-45)"/><rect x="7.47" y="139.43" width="3.23" height="3.23" rx="0.28" transform="translate(-97.08 47.73) rotate(-45)"/><rect x="10.6" y="142.57" width="3.23" height="3.23" rx="0.28" transform="translate(-98.38 50.87) rotate(-45)"/><rect x="10.6" y="130.02" width="3.23" height="3.23" rx="0.28" transform="translate(-89.5 47.19) rotate(-45)"/><rect x="13.74" y="133.16" width="3.23" height="3.23" rx="0.28" transform="translate(-90.8 50.33) rotate(-45)"/><rect x="16.88" y="136.29" width="3.23" height="3.23" rx="0.28" transform="translate(-92.1 53.47) rotate(-45)"/><rect x="7.47" y="133.16" width="3.23" height="3.23" rx="0.28" transform="translate(-92.64 45.89) rotate(-45)"/><rect x="10.6" y="136.3" width="3.23" height="3.23" rx="0.28" transform="translate(-93.94 49.03) rotate(-45)"/><rect x="13.74" y="139.43" width="3.23" height="3.23" rx="0.28" transform="translate(-95.24 52.17) rotate(-45)"/></svg>