<?xml version="1.0" encoding="utf-8"?>
<!-- Generator: Adobe Illustrator 25.2.3, SVG Export Plug-In . SVG Version: 6.00 Build 0)  -->
<svg version="1.1" id="Laag_1" xmlns="http://www.w3.org/2000/svg" xmlns:xlink="http://www.w3.org/1999/xlink" x="0px" y="0px"
	 viewBox="0 0 100 100" style="enable-background:new 0 0 100 100;" xml:space="preserve">
<style type="text/css">
	.st0{fill:#FFFFFF;}
	.st1{fill:#009B3A;}
	.st2{fill:#FEDF00;}
	.st3{fill:#003366;}
	.st4{fill:none;stroke:#079B49;stroke-miterlimit:10;}
	.st5{fill:none;stroke:#003366;stroke-miterlimit:10;}
</style>
<rect x="-0.1" y="0.2" class="st0" width="99.9" height="99.9"/>
<g>
	<rect x="32.3" y="0.1" class="st1" width="12" height="12"/>
	<polygon class="st2" points="38.3,2.1 43.6,6.1 38.3,10.2 33.1,6.1 	"/>
	<ellipse class="st3" cx="38.3" cy="6.1" rx="1.8" ry="2.2"/>
</g>
<g>
	<rect x="-0.2" y="0" class="st0" width="12" height="12"/>
	<rect x="8.2" y="4.9" transform="matrix(0.7071 -0.7071 0.7071 0.7071 -1.6257 8.6076)" class="st1" width="2.8" height="2.8"/>
	<rect x="8.2" y="0.9" transform="matrix(0.7071 -0.7071 0.7071 0.7071 1.1648 7.4517)" class="st3" width="2.8" height="2.8"/>
	<rect x="8.2" y="8.8" transform="matrix(0.7071 -0.7071 0.7071 0.7071 -4.4038 9.7583)" class="st2" width="2.8" height="2.8"/>
	<rect x="4.2" y="4.9" transform="matrix(0.7071 -0.7071 0.7071 0.7071 -2.8148 5.8033)" class="st3" width="2.8" height="2.8"/>
	<rect x="0.2" y="4.9" transform="matrix(0.7071 -0.7071 0.7071 0.7071 -4.0068 2.9978)" class="st1" width="2.8" height="2.8"/>
	
		<rect x="4.2" y="0.9" transform="matrix(0.7071 -0.7071 0.7071 0.7071 8.968547e-03 4.6612)" class="st1" width="2.8" height="2.8"/>
	<rect x="4.2" y="8.8" transform="matrix(0.7071 -0.7071 0.7071 0.7071 -5.5545 6.9803)" class="st1" width="2.8" height="2.8"/>
	<rect x="0.2" y="0.9" transform="matrix(0.7071 -0.7071 0.7071 0.7071 -1.1664 1.8237)" class="st2" width="2.8" height="2.8"/>
	<rect x="0.2" y="8.9" transform="matrix(0.7071 -0.7071 0.7071 0.7071 -6.7944 4.1549)" class="st3" width="2.8" height="2.8"/>
</g>
<g>
	<path class="st1" d="M28.5,11.8c-0.3-0.1-0.6-0.1-1-0.2c-0.1-0.1-0.2-0.1-0.3-0.2c-0.2-0.1-0.4-0.4-0.6-0.7c-0.2-0.4-0.3-0.7-0.4-1
		c0.3,0.2,0.6,0.4,0.9,0.6c-0.2-0.3-0.4-0.6-0.6-0.9c-0.1-0.2-0.2-0.5-0.3-0.8c-0.2-0.6-0.2-1.1-0.2-1.5c0.1,0.1,0.3,0.1,0.4,0.2
		c0.2,0.1,0.4,0.3,0.5,0.4c-0.1-0.3-0.3-0.5-0.4-0.8c-0.1-0.3-0.3-0.6-0.4-1.1c-0.1-0.6-0.1-1.1-0.1-1.5c0.2,0.3,0.4,0.6,0.7,0.9
		L27,5.6c-0.1-0.3-0.3-0.7-0.4-1c-0.1-0.3-0.2-0.7-0.2-1.3c0-0.3,0-0.7,0.1-1.2c0-0.1,0.1-0.3,0.1-0.4C26.8,2,26.9,2.2,27,2.4
		c0-0.2,0-0.4,0-0.7c0-0.3,0.1-0.5,0.2-0.7c0-0.1,0.1-0.2,0.2-0.4c0.2-0.1,0.3-0.2,0.4-0.2c0,0.2,0.1,0.5,0.1,0.7
		C28,1.4,28,1.6,28,1.8c0,0.2,0,0.5,0,0.7c-0.1,0.3-0.1,0.6-0.2,0.9C28,3,28.2,2.7,28.4,2.3c0.1,0.2,0.2,0.5,0.2,0.8
		c0,0.4,0,0.7-0.1,1.1c-0.1,0.2-0.1,0.6-0.3,0.9c0.2-0.2,0.3-0.4,0.5-0.7c0.1,0.3,0.2,0.7,0.2,1.2c0,0.7-0.1,1.3-0.3,1.6
		c0,0.1-0.1,0.2-0.1,0.3C28.8,7.4,29,7.2,29.2,7c0.1,0.2,0.2,0.5,0.2,0.9c0,0.4-0.1,0.6-0.2,0.8c-0.1,0.4-0.4,0.7-0.5,1
		c0.3-0.2,0.5-0.5,0.8-0.7c0.1,0.3,0.1,0.6,0.2,0.9c-0.1,0.3-0.2,0.6-0.3,1C29,11.2,28.8,11.5,28.5,11.8z"/>
	<path class="st2" d="M28.6,11.7c0.3,0,0.7-0.1,1-0.1c0.1-0.1,0.2-0.1,0.3-0.2c0.2-0.1,0.4-0.3,0.7-0.6c0.3-0.4,0.4-0.7,0.5-0.9
		c-0.3,0.2-0.6,0.4-1,0.5c0.2-0.3,0.4-0.6,0.6-0.9c0.1-0.2,0.3-0.5,0.4-0.8c0.2-0.6,0.3-1.1,0.3-1.4c-0.1,0.1-0.3,0.1-0.4,0.2
		c-0.2,0.1-0.4,0.3-0.5,0.4c0.2-0.3,0.3-0.5,0.5-0.8c0.2-0.3,0.3-0.6,0.5-1c0.2-0.6,0.2-1.1,0.2-1.5c-0.2,0.3-0.5,0.5-0.7,0.8
		l-0.3,0.3c0.2-0.3,0.3-0.6,0.5-1c0.1-0.3,0.3-0.7,0.4-1.3c0-0.3,0.1-0.7,0-1.2c0-0.2-0.1-0.3-0.1-0.4c-0.1,0.2-0.3,0.4-0.4,0.6
		c0-0.2,0.1-0.4,0.1-0.7c0-0.3-0.1-0.5-0.1-0.7c0-0.1-0.1-0.2-0.2-0.4c-0.1-0.1-0.3-0.2-0.4-0.2c-0.1,0.2-0.1,0.5-0.2,0.7
		c-0.1,0.2-0.1,0.4-0.2,0.7c0,0.2,0,0.5,0,0.7c0,0.3,0.1,0.6,0.1,0.9c-0.2-0.4-0.3-0.8-0.5-1.2c-0.1,0.2-0.2,0.5-0.3,0.8
		c-0.1,0.4,0,0.7,0,1.1c0,0.2,0.1,0.6,0.2,1c-0.1-0.2-0.3-0.5-0.4-0.7c-0.1,0.3-0.3,0.7-0.3,1.2c-0.1,0.7,0,1.3,0.1,1.6
		c0,0.1,0,0.2,0.1,0.3c-0.2-0.2-0.4-0.4-0.6-0.6c-0.1,0.2-0.2,0.5-0.2,0.8c0,0.4,0,0.6,0.1,0.8c0.1,0.4,0.3,0.8,0.5,1
		c-0.2-0.3-0.5-0.5-0.7-0.8c-0.1,0.3-0.2,0.6-0.2,0.9c0.1,0.3,0.1,0.7,0.2,1C28.1,11.1,28.3,11.4,28.6,11.7z"/>
</g>
<g>
	<g>
		<line class="st4" x1="44.7" y1="3.8" x2="47.5" y2="1.6"/>
		<line class="st4" x1="46.9" y1="1.6" x2="50.2" y2="4.1"/>
		<line class="st4" x1="49.7" y1="4.2" x2="52.9" y2="1.7"/>
		<line class="st4" x1="52.4" y1="1.7" x2="55.3" y2="3.8"/>
	</g>
	<line class="st5" x1="44.4" y1="0.8" x2="55.7" y2="0.8"/>
	<g>
		<line class="st4" x1="44.7" y1="5.7" x2="47.5" y2="3.5"/>
		<line class="st4" x1="46.9" y1="3.5" x2="50.2" y2="5.9"/>
		<line class="st4" x1="49.7" y1="6.1" x2="52.9" y2="3.6"/>
		<line class="st4" x1="52.4" y1="3.5" x2="55.3" y2="5.7"/>
	</g>
	<g>
		<line class="st4" x1="44.6" y1="9.2" x2="47.4" y2="7"/>
		<line class="st4" x1="46.8" y1="7" x2="50.1" y2="9.4"/>
		<line class="st4" x1="49.6" y1="9.6" x2="52.8" y2="7.1"/>
		<line class="st4" x1="52.3" y1="7" x2="55.2" y2="9.2"/>
	</g>
	<line class="st5" x1="44.3" y1="6.2" x2="55.6" y2="6.2"/>
	<g>
		<line class="st4" x1="44.6" y1="11.1" x2="47.4" y2="8.9"/>
		<line class="st4" x1="46.8" y1="8.8" x2="50.1" y2="11.3"/>
		<line class="st4" x1="49.6" y1="11.4" x2="52.8" y2="8.9"/>
		<line class="st4" x1="52.3" y1="8.9" x2="55.2" y2="11.1"/>
	</g>
</g>
<g>
	<rect x="87.6" y="0" class="st0" width="12" height="12"/>
	<rect x="96" y="4.9" transform="matrix(0.7071 -0.7071 0.7071 0.7071 24.1023 70.7204)" class="st1" width="2.8" height="2.8"/>
	<rect x="96" y="0.9" transform="matrix(0.7071 -0.7071 0.7071 0.7071 26.8928 69.5645)" class="st3" width="2.8" height="2.8"/>
	<rect x="96" y="8.8" transform="matrix(0.7071 -0.7071 0.7071 0.7071 21.3242 71.8711)" class="st2" width="2.8" height="2.8"/>
	<rect x="92" y="4.9" transform="matrix(0.7071 -0.7071 0.7071 0.7071 22.9132 67.9161)" class="st3" width="2.8" height="2.8"/>
	<rect x="88.1" y="4.9" transform="matrix(0.7071 -0.7071 0.7071 0.7071 21.7212 65.1106)" class="st1" width="2.8" height="2.8"/>
	<rect x="92.1" y="0.9" transform="matrix(0.7071 -0.7071 0.7071 0.7071 25.7369 66.7739)" class="st1" width="2.8" height="2.8"/>
	<rect x="92.1" y="8.8" transform="matrix(0.7071 -0.7071 0.7071 0.7071 20.1735 69.093)" class="st1" width="2.8" height="2.8"/>
	<rect x="88.1" y="0.9" transform="matrix(0.7071 -0.7071 0.7071 0.7071 24.5616 63.9365)" class="st2" width="2.8" height="2.8"/>
	<rect x="88.1" y="8.9" transform="matrix(0.7071 -0.7071 0.7071 0.7071 18.9336 66.2677)" class="st3" width="2.8" height="2.8"/>
</g>
<g>
	<rect x="75.4" y="0.1" class="st1" width="12" height="12"/>
	<polygon class="st0" points="83.7,4.4 85,4.8 86,4 86,5.3 87,6 85.8,6.4 85.4,7.6 84.7,6.6 83.4,6.6 84.2,5.6 	"/>
	<polygon class="st2" points="76.4,4.6 77,4.9 77.6,4.6 77.5,5.3 78,5.8 77.3,5.9 77,6.5 76.7,5.9 76,5.7 76.5,5.3 	"/>
	<polygon class="st3" points="78.9,5.4 79.4,6 80.2,6 79.8,6.6 80.1,7.3 79.3,7.1 78.7,7.6 78.7,6.8 78,6.4 78.7,6.1 	"/>
	<polygon class="st0" points="76.7,7.7 78,8.4 79.4,7.7 79.1,9.2 80.1,10.3 78.6,10.4 77.9,11.7 77.3,10.4 75.9,10.1 77,9.1 	"/>
	<polygon class="st3" points="83.3,0.9 84.5,1.5 85.6,0.9 85.4,2.2 86.3,3.1 85,3.3 84.4,4.4 83.8,3.3 82.6,3 83.5,2.2 	"/>
	<polygon class="st2" points="81.9,3.8 82.6,4.2 83.3,3.8 83.2,4.6 83.7,5.2 82.9,5.3 82.6,6 82.2,5.2 81.4,5.1 82,4.6 	"/>
	<polygon class="st0" points="81.2,1.3 81.8,1.6 82.4,1.3 82.3,2 82.7,2.5 82,2.6 81.7,3.2 81.4,2.6 80.8,2.4 81.3,2 	"/>
</g>
<g>
	<path class="st1" d="M72,11.8c0.3-0.1,0.6-0.1,1-0.2c0.1-0.1,0.2-0.1,0.3-0.2c0.2-0.1,0.4-0.4,0.6-0.7c0.2-0.4,0.3-0.7,0.4-1
		c-0.3,0.2-0.6,0.4-0.9,0.6c0.2-0.3,0.4-0.6,0.6-0.9c0.1-0.2,0.2-0.5,0.3-0.8c0.2-0.6,0.2-1.1,0.2-1.5c-0.1,0.1-0.3,0.1-0.4,0.2
		c-0.2,0.1-0.4,0.3-0.5,0.4c0.1-0.3,0.3-0.5,0.4-0.8C74,6.8,74.2,6.4,74.3,6c0.1-0.6,0.1-1.1,0.1-1.5c-0.2,0.3-0.4,0.6-0.7,0.9
		l-0.3,0.3c0.1-0.3,0.3-0.7,0.4-1c0.1-0.3,0.2-0.7,0.2-1.3c0-0.3,0-0.7-0.1-1.2c0-0.1-0.1-0.3-0.1-0.4c-0.1,0.2-0.2,0.4-0.4,0.7
		c0-0.2,0-0.4,0-0.7c0-0.3-0.1-0.5-0.2-0.7c0-0.1-0.1-0.2-0.2-0.4c-0.2-0.1-0.3-0.2-0.4-0.2c0,0.2-0.1,0.5-0.1,0.7
		c0,0.2-0.1,0.4-0.1,0.7c0,0.2,0,0.5,0,0.7c0.1,0.3,0.1,0.6,0.2,0.9c-0.2-0.4-0.4-0.8-0.6-1.1c-0.1,0.2-0.2,0.5-0.2,0.8
		c0,0.4,0,0.7,0.1,1.1c0.1,0.2,0.1,0.6,0.3,0.9c-0.2-0.2-0.3-0.4-0.5-0.7c-0.1,0.3-0.2,0.7-0.2,1.2c0,0.7,0.1,1.3,0.3,1.6
		c0,0.1,0.1,0.2,0.1,0.3c-0.2-0.2-0.4-0.4-0.6-0.6c-0.1,0.2-0.2,0.5-0.2,0.9c0,0.4,0.1,0.6,0.2,0.8c0.1,0.4,0.4,0.7,0.5,1
		C71.5,9.4,71.3,9.2,71,9c-0.1,0.3-0.1,0.6-0.2,0.9c0.1,0.3,0.2,0.6,0.3,1C71.4,11.2,71.7,11.5,72,11.8z"/>
	<path class="st2" d="M71.9,11.7c-0.3,0-0.7-0.1-1-0.1c-0.1-0.1-0.2-0.1-0.3-0.2c-0.2-0.1-0.4-0.3-0.7-0.6c-0.3-0.4-0.4-0.7-0.5-0.9
		c0.3,0.2,0.6,0.4,1,0.5c-0.2-0.3-0.4-0.6-0.6-0.9c-0.1-0.2-0.3-0.5-0.4-0.8c-0.2-0.6-0.3-1.1-0.3-1.4c0.1,0.1,0.3,0.1,0.4,0.2
		c0.2,0.1,0.4,0.3,0.5,0.4c-0.2-0.3-0.3-0.5-0.5-0.8c-0.2-0.3-0.3-0.6-0.5-1c-0.2-0.6-0.2-1.1-0.2-1.5c0.2,0.3,0.5,0.5,0.7,0.8
		l0.3,0.3c-0.2-0.3-0.3-0.6-0.5-1c-0.1-0.3-0.3-0.7-0.4-1.3c0-0.3-0.1-0.7,0-1.2c0-0.2,0.1-0.3,0.1-0.4c0.1,0.2,0.3,0.4,0.4,0.6
		c0-0.2-0.1-0.4-0.1-0.7c0-0.3,0.1-0.5,0.1-0.7c0-0.1,0.1-0.2,0.2-0.4c0.1-0.1,0.3-0.2,0.4-0.2c0.1,0.2,0.1,0.5,0.2,0.7
		c0.1,0.2,0.1,0.4,0.2,0.7c0,0.2,0,0.5,0,0.7c0,0.3-0.1,0.6-0.1,0.9C70.6,3,70.8,2.7,71,2.3c0.1,0.2,0.2,0.5,0.3,0.8
		c0.1,0.4,0,0.7,0,1.1c0,0.2-0.1,0.6-0.2,1c0.1-0.2,0.3-0.5,0.4-0.7c0.1,0.3,0.3,0.7,0.3,1.2c0.1,0.7,0,1.3-0.1,1.6
		c0,0.1,0,0.2-0.1,0.3c0.2-0.2,0.4-0.4,0.6-0.6c0.1,0.2,0.2,0.5,0.2,0.8c0,0.4,0,0.6-0.1,0.8c-0.1,0.4-0.3,0.8-0.5,1
		c0.2-0.3,0.5-0.5,0.7-0.8c0.1,0.3,0.2,0.6,0.2,0.9c-0.1,0.3-0.1,0.7-0.2,1C72.4,11.1,72.1,11.4,71.9,11.7z"/>
</g>
<g>
	<rect x="55.2" y="0.1" class="st1" width="12" height="12"/>
	<polygon class="st2" points="61.2,2.1 66.4,6.1 61.2,10.2 55.9,6.1 	"/>
	<ellipse class="st3" cx="61.2" cy="6.1" rx="1.8" ry="2.2"/>
</g>
<g>
	<rect x="11.8" y="0.1" class="st1" width="12" height="12"/>
	<polygon class="st0" points="20.1,4.4 21.3,4.8 22.3,4 22.3,5.3 23.4,6 22.2,6.4 21.8,7.6 21,6.6 19.8,6.6 20.5,5.6 	"/>
	<polygon class="st2" points="12.8,4.6 13.4,4.9 14,4.6 13.9,5.3 14.3,5.8 13.7,5.9 13.3,6.5 13,5.9 12.4,5.7 12.9,5.3 	"/>
	<polygon class="st3" points="15.3,5.4 15.8,6 16.6,6 16.1,6.6 16.4,7.3 15.6,7.1 15,7.6 15,6.8 14.3,6.4 15.1,6.1 	"/>
	<polygon class="st0" points="13.1,7.7 14.4,8.4 15.7,7.7 15.4,9.2 16.5,10.3 15,10.4 14.3,11.7 13.7,10.4 12.2,10.1 13.3,9.1 	"/>
	<polygon class="st3" points="19.7,0.9 20.8,1.5 22,0.9 21.7,2.2 22.6,3.1 21.3,3.3 20.7,4.4 20.2,3.3 18.9,3 19.9,2.2 	"/>
	<polygon class="st2" points="18.3,3.8 19,4.2 19.7,3.8 19.5,4.6 20.1,5.2 19.3,5.3 18.9,6 18.6,5.2 17.8,5.1 18.4,4.6 	"/>
	<polygon class="st0" points="17.5,1.3 18.1,1.6 18.7,1.3 18.6,2 19.1,2.5 18.4,2.6 18.1,3.2 17.8,2.6 17.1,2.4 17.6,2 	"/>
</g>
<g>
	<rect x="32.7" y="88.1" class="st1" width="12" height="12"/>
	<polygon class="st2" points="38.7,98.1 43.9,94.1 38.7,90.1 33.4,94.1 	"/>
	<ellipse class="st3" cx="38.7" cy="94.1" rx="1.8" ry="2.2"/>
</g>
<g>
	<rect x="0.2" y="88.2" class="st0" width="12" height="12"/>
	<rect x="8.5" y="92.6" transform="matrix(0.7071 0.7071 -0.7071 0.7071 69.3726 20.4952)" class="st1" width="2.8" height="2.8"/>
	<rect x="8.5" y="96.5" transform="matrix(0.7071 0.7071 -0.7071 0.7071 72.1632 21.6511)" class="st3" width="2.8" height="2.8"/>
	<rect x="8.5" y="88.7" transform="matrix(0.7071 0.7071 -0.7071 0.7071 66.5946 19.3445)" class="st2" width="2.8" height="2.8"/>
	<rect x="4.6" y="92.6" transform="matrix(0.7071 0.7071 -0.7071 0.7071 68.1836 23.2995)" class="st3" width="2.8" height="2.8"/>
	<rect x="0.6" y="92.5" transform="matrix(0.7071 0.7071 -0.7071 0.7071 66.9915 26.105)" class="st1" width="2.8" height="2.8"/>
	<rect x="4.6" y="96.5" transform="matrix(0.7071 0.7071 -0.7071 0.7071 71.0073 24.4416)" class="st1" width="2.8" height="2.8"/>
	<rect x="4.6" y="88.7" transform="matrix(0.7071 0.7071 -0.7071 0.7071 65.4438 22.1226)" class="st1" width="2.8" height="2.8"/>
	<rect x="0.6" y="96.5" transform="matrix(0.7071 0.7071 -0.7071 0.7071 69.832 27.2791)" class="st2" width="2.8" height="2.8"/>
	<rect x="0.6" y="88.6" transform="matrix(0.7071 0.7071 -0.7071 0.7071 64.2039 24.9479)" class="st3" width="2.8" height="2.8"/>
</g>
<g>
	<path class="st1" d="M28.9,88.4c-0.3,0.1-0.6,0.1-1,0.2c-0.1,0.1-0.2,0.1-0.3,0.2c-0.2,0.1-0.4,0.4-0.6,0.7c-0.2,0.4-0.3,0.7-0.4,1
		c0.3-0.2,0.6-0.4,0.9-0.6c-0.2,0.3-0.4,0.6-0.6,0.9c-0.1,0.2-0.2,0.5-0.3,0.8c-0.2,0.6-0.2,1.1-0.2,1.5c0.1-0.1,0.3-0.1,0.4-0.2
		c0.2-0.1,0.4-0.3,0.5-0.4c-0.1,0.3-0.3,0.5-0.4,0.8c-0.1,0.3-0.3,0.6-0.4,1.1c-0.1,0.6-0.1,1.1-0.1,1.5c0.2-0.3,0.4-0.6,0.7-0.9
		l0.3-0.3c-0.1,0.3-0.3,0.7-0.4,1c-0.1,0.3-0.2,0.7-0.2,1.3c0,0.3,0,0.7,0.1,1.2c0,0.1,0.1,0.3,0.1,0.4c0.1-0.2,0.2-0.4,0.4-0.7
		c0,0.2,0,0.4,0,0.7c0,0.3,0.1,0.5,0.2,0.7c0,0.1,0.1,0.2,0.2,0.4c0.2,0.1,0.3,0.2,0.4,0.2c0-0.2,0.1-0.5,0.1-0.7
		c0-0.2,0.1-0.4,0.1-0.7c0-0.2,0-0.5,0-0.7c-0.1-0.3-0.1-0.6-0.2-0.9c0.2,0.4,0.4,0.8,0.6,1.1c0.1-0.2,0.2-0.5,0.2-0.8
		c0-0.4,0-0.7-0.1-1.1c-0.1-0.2-0.1-0.6-0.3-0.9c0.2,0.2,0.3,0.4,0.5,0.7c0.1-0.3,0.2-0.7,0.2-1.2c0-0.7-0.1-1.3-0.3-1.6
		c0-0.1-0.1-0.2-0.1-0.3c0.2,0.2,0.4,0.4,0.6,0.6c0.1-0.2,0.2-0.5,0.2-0.9c0-0.4-0.1-0.6-0.2-0.8c-0.1-0.4-0.4-0.7-0.5-1
		c0.3,0.2,0.5,0.5,0.8,0.7c0.1-0.3,0.1-0.6,0.2-0.9c-0.1-0.3-0.2-0.6-0.3-1C29.4,89.1,29.1,88.8,28.9,88.4z"/>
	<path class="st2" d="M29,88.5c0.3,0,0.7,0.1,1,0.1c0.1,0.1,0.2,0.1,0.3,0.2c0.2,0.1,0.4,0.3,0.7,0.6c0.3,0.4,0.4,0.7,0.5,0.9
		c-0.3-0.2-0.6-0.4-1-0.5c0.2,0.3,0.4,0.6,0.6,0.9c0.1,0.2,0.3,0.5,0.4,0.8c0.2,0.6,0.3,1.1,0.3,1.4c-0.1-0.1-0.3-0.1-0.4-0.2
		c-0.2-0.1-0.4-0.3-0.5-0.4c0.2,0.3,0.3,0.5,0.5,0.8c0.2,0.3,0.3,0.6,0.5,1c0.2,0.6,0.2,1.1,0.2,1.5c-0.2-0.3-0.5-0.5-0.7-0.8
		l-0.3-0.3c0.2,0.3,0.3,0.6,0.5,1c0.1,0.3,0.3,0.7,0.4,1.3c0,0.3,0.1,0.7,0,1.2c0,0.2-0.1,0.3-0.1,0.4c-0.1-0.2-0.3-0.4-0.4-0.6
		c0,0.2,0.1,0.4,0.1,0.7c0,0.3-0.1,0.5-0.1,0.7c0,0.1-0.1,0.2-0.2,0.4c-0.1,0.1-0.3,0.2-0.4,0.2c-0.1-0.2-0.1-0.5-0.2-0.7
		c-0.1-0.2-0.1-0.4-0.2-0.7c0-0.2,0-0.5,0-0.7c0-0.3,0.1-0.6,0.1-0.9c-0.2,0.4-0.3,0.8-0.5,1.2c-0.1-0.2-0.2-0.5-0.3-0.8
		c-0.1-0.4,0-0.7,0-1.1c0-0.2,0.1-0.6,0.2-1c-0.1,0.2-0.3,0.5-0.4,0.7c-0.1-0.3-0.3-0.7-0.3-1.2c-0.1-0.7,0-1.3,0.1-1.6
		c0-0.1,0-0.2,0.1-0.3c-0.2,0.2-0.4,0.4-0.6,0.6c-0.1-0.2-0.2-0.5-0.2-0.8c0-0.4,0-0.6,0.1-0.8c0.1-0.4,0.3-0.8,0.5-1
		c-0.2,0.3-0.5,0.5-0.7,0.8c-0.1-0.3-0.2-0.6-0.2-0.9c0.1-0.3,0.1-0.7,0.2-1C28.5,89.2,28.7,88.9,29,88.5z"/>
</g>
<g>
	<g>
		<line class="st4" x1="45.1" y1="96.4" x2="47.8" y2="98.6"/>
		<line class="st4" x1="47.3" y1="98.7" x2="50.6" y2="96.2"/>
		<line class="st4" x1="50.1" y1="96.1" x2="53.3" y2="98.6"/>
		<line class="st4" x1="52.7" y1="98.6" x2="55.7" y2="96.4"/>
	</g>
	<line class="st5" x1="44.8" y1="99.4" x2="56" y2="99.4"/>
	<g>
		<line class="st4" x1="45.1" y1="94.6" x2="47.8" y2="96.8"/>
		<line class="st4" x1="47.3" y1="96.8" x2="50.6" y2="94.3"/>
		<line class="st4" x1="50.1" y1="94.2" x2="53.3" y2="96.7"/>
		<line class="st4" x1="52.7" y1="96.7" x2="55.7" y2="94.6"/>
	</g>
	<g>
		<line class="st4" x1="45" y1="91.1" x2="47.7" y2="93.2"/>
		<line class="st4" x1="47.2" y1="93.3" x2="50.5" y2="90.8"/>
		<line class="st4" x1="50" y1="90.7" x2="53.2" y2="93.2"/>
		<line class="st4" x1="52.6" y1="93.2" x2="55.6" y2="91.1"/>
	</g>
	<line class="st5" x1="44.7" y1="94" x2="55.9" y2="94"/>
	<g>
		<line class="st4" x1="45" y1="89.2" x2="47.7" y2="91.4"/>
		<line class="st4" x1="47.2" y1="91.4" x2="50.5" y2="89"/>
		<line class="st4" x1="50" y1="88.8" x2="53.2" y2="91.3"/>
		<line class="st4" x1="52.6" y1="91.4" x2="55.6" y2="89.2"/>
	</g>
</g>
<g>
	<rect x="88" y="88.2" class="st0" width="12" height="12"/>
	
		<rect x="96.4" y="92.6" transform="matrix(0.7071 0.7071 -0.7071 0.7071 95.1006 -41.6175)" class="st1" width="2.8" height="2.8"/>
	
		<rect x="96.4" y="96.5" transform="matrix(0.7071 0.7071 -0.7071 0.7071 97.8911 -40.4617)" class="st3" width="2.8" height="2.8"/>
	
		<rect x="96.4" y="88.7" transform="matrix(0.7071 0.7071 -0.7071 0.7071 92.3225 -42.7683)" class="st2" width="2.8" height="2.8"/>
	
		<rect x="92.4" y="92.6" transform="matrix(0.7071 0.7071 -0.7071 0.7071 93.9115 -38.8133)" class="st3" width="2.8" height="2.8"/>
	
		<rect x="88.4" y="92.5" transform="matrix(0.7071 0.7071 -0.7071 0.7071 92.7195 -36.0077)" class="st1" width="2.8" height="2.8"/>
	
		<rect x="92.4" y="96.5" transform="matrix(0.7071 0.7071 -0.7071 0.7071 96.7352 -37.6711)" class="st1" width="2.8" height="2.8"/>
	
		<rect x="92.5" y="88.7" transform="matrix(0.7071 0.7071 -0.7071 0.7071 91.1718 -39.9902)" class="st1" width="2.8" height="2.8"/>
	
		<rect x="88.4" y="96.5" transform="matrix(0.7071 0.7071 -0.7071 0.7071 95.5599 -34.8336)" class="st2" width="2.8" height="2.8"/>
	
		<rect x="88.4" y="88.6" transform="matrix(0.7071 0.7071 -0.7071 0.7071 89.9319 -37.1648)" class="st3" width="2.8" height="2.8"/>
</g>
<g>
	<rect x="75.8" y="88.1" class="st1" width="12" height="12"/>
	<polygon class="st0" points="84.1,95.9 85.3,95.5 86.4,96.3 86.4,95 87.4,94.2 86.2,93.8 85.8,92.6 85.1,93.7 83.8,93.6 84.5,94.7 
			"/>
	<polygon class="st2" points="76.8,95.7 77.4,95.3 78,95.6 77.9,95 78.4,94.5 77.7,94.4 77.3,93.8 77.1,94.4 76.4,94.5 76.9,95 	"/>
	<polygon class="st3" points="79.3,94.9 79.8,94.3 80.6,94.3 80.1,93.6 80.4,92.9 79.7,93.1 79,92.6 79,93.4 78.4,93.9 79.1,94.1 	
		"/>
	<polygon class="st0" points="77.1,92.6 78.4,91.9 79.7,92.5 79.5,91.1 80.5,90 79,89.8 78.3,88.5 77.7,89.9 76.2,90.1 77.3,91.1 	
		"/>
	<polygon class="st3" points="83.7,99.4 84.8,98.7 86,99.3 85.7,98 86.6,97.1 85.4,97 84.8,95.8 84.2,97 82.9,97.2 83.9,98.1 	"/>
	<polygon class="st2" points="82.3,96.5 83,96.1 83.7,96.4 83.5,95.6 84.1,95.1 83.3,95 82.9,94.3 82.6,95 81.8,95.1 82.4,95.7 	"/>
	<polygon class="st0" points="81.5,99 82.1,98.6 82.8,98.9 82.6,98.3 83.1,97.8 82.4,97.7 82.1,97.1 81.8,97.7 81.1,97.8 81.6,98.3 
			"/>
</g>
<g>
	<path class="st1" d="M72.3,88.4c0.3,0.1,0.6,0.1,1,0.2c0.1,0.1,0.2,0.1,0.3,0.2c0.2,0.1,0.4,0.4,0.6,0.7c0.2,0.4,0.3,0.7,0.4,1
		c-0.3-0.2-0.6-0.4-0.9-0.6c0.2,0.3,0.4,0.6,0.6,0.9c0.1,0.2,0.2,0.5,0.3,0.8c0.2,0.6,0.2,1.1,0.2,1.5c-0.1-0.1-0.3-0.1-0.4-0.2
		c-0.2-0.1-0.4-0.3-0.5-0.4c0.1,0.3,0.3,0.5,0.4,0.8c0.1,0.3,0.3,0.6,0.4,1.1c0.1,0.6,0.1,1.1,0.1,1.5c-0.2-0.3-0.4-0.6-0.7-0.9
		l-0.3-0.3c0.1,0.3,0.3,0.7,0.4,1c0.1,0.3,0.2,0.7,0.2,1.3c0,0.3,0,0.7-0.1,1.2c0,0.1-0.1,0.3-0.1,0.4c-0.1-0.2-0.2-0.4-0.4-0.7
		c0,0.2,0,0.4,0,0.7c0,0.3-0.1,0.5-0.2,0.7c0,0.1-0.1,0.2-0.2,0.4c-0.2,0.1-0.3,0.2-0.4,0.2c0-0.2-0.1-0.5-0.1-0.7
		c0-0.2-0.1-0.4-0.1-0.7c0-0.2,0-0.5,0-0.7c0.1-0.3,0.1-0.6,0.2-0.9c-0.2,0.4-0.4,0.8-0.6,1.1c-0.1-0.2-0.2-0.5-0.2-0.8
		c0-0.4,0-0.7,0.1-1.1c0.1-0.2,0.1-0.6,0.3-0.9c-0.2,0.2-0.3,0.4-0.5,0.7c-0.1-0.3-0.2-0.7-0.2-1.2c0-0.7,0.1-1.3,0.3-1.6
		c0-0.1,0.1-0.2,0.1-0.3c-0.2,0.2-0.4,0.4-0.6,0.6c-0.1-0.2-0.2-0.5-0.2-0.9c0-0.4,0.1-0.6,0.2-0.8c0.1-0.4,0.4-0.7,0.5-1
		c-0.3,0.2-0.5,0.5-0.8,0.7c-0.1-0.3-0.1-0.6-0.2-0.9c0.1-0.3,0.2-0.6,0.3-1C71.8,89.1,72.1,88.8,72.3,88.4z"/>
	<path class="st2" d="M72.2,88.5c-0.3,0-0.7,0.1-1,0.1c-0.1,0.1-0.2,0.1-0.3,0.2c-0.2,0.1-0.4,0.3-0.7,0.6c-0.3,0.4-0.4,0.7-0.5,0.9
		c0.3-0.2,0.6-0.4,1-0.5c-0.2,0.3-0.4,0.6-0.6,0.9c-0.1,0.2-0.3,0.5-0.4,0.8c-0.2,0.6-0.3,1.1-0.3,1.4c0.1-0.1,0.3-0.1,0.4-0.2
		c0.2-0.1,0.4-0.3,0.5-0.4c-0.2,0.3-0.3,0.5-0.5,0.8c-0.2,0.3-0.3,0.6-0.5,1c-0.2,0.6-0.2,1.1-0.2,1.5c0.2-0.3,0.5-0.5,0.7-0.8
		l0.3-0.3c-0.2,0.3-0.3,0.6-0.5,1c-0.1,0.3-0.3,0.7-0.4,1.3c0,0.3-0.1,0.7,0,1.2c0,0.2,0.1,0.3,0.1,0.4c0.1-0.2,0.3-0.4,0.4-0.6
		c0,0.2-0.1,0.4-0.1,0.7c0,0.3,0.1,0.5,0.1,0.7c0,0.1,0.1,0.2,0.2,0.4c0.1,0.1,0.3,0.2,0.4,0.2c0.1-0.2,0.1-0.5,0.2-0.7
		c0.1-0.2,0.1-0.4,0.2-0.7c0-0.2,0-0.5,0-0.7c0-0.3-0.1-0.6-0.1-0.9c0.2,0.4,0.3,0.8,0.5,1.2c0.1-0.2,0.2-0.5,0.3-0.8
		c0.1-0.4,0-0.7,0-1.1c0-0.2-0.1-0.6-0.2-1c0.1,0.2,0.3,0.5,0.4,0.7c0.1-0.3,0.3-0.7,0.3-1.2c0.1-0.7,0-1.3-0.1-1.6
		c0-0.1,0-0.2-0.1-0.3c0.2,0.2,0.4,0.4,0.6,0.6c0.1-0.2,0.2-0.5,0.2-0.8c0-0.4,0-0.6-0.1-0.8c-0.1-0.4-0.3-0.8-0.5-1
		c0.2,0.3,0.5,0.5,0.7,0.8c0.1-0.3,0.2-0.6,0.2-0.9c-0.1-0.3-0.1-0.7-0.2-1C72.7,89.2,72.5,88.9,72.2,88.5z"/>
</g>
<g>
	<rect x="55.5" y="88.1" class="st1" width="12" height="12"/>
	<polygon class="st2" points="61.5,98.1 66.8,94.1 61.5,90.1 56.3,94.1 	"/>
	<ellipse class="st3" cx="61.5" cy="94.1" rx="1.8" ry="2.2"/>
</g>
<g>
	<rect x="12.2" y="88.1" class="st1" width="12" height="12"/>
	<polygon class="st0" points="20.5,95.9 21.7,95.5 22.7,96.3 22.7,95 23.8,94.2 22.5,93.8 22.2,92.6 21.4,93.7 20.1,93.6 20.9,94.7 
			"/>
	<polygon class="st2" points="13.1,95.7 13.7,95.3 14.4,95.6 14.2,95 14.7,94.5 14,94.4 13.7,93.8 13.4,94.4 12.7,94.5 13.2,95 	"/>
	<polygon class="st3" points="15.7,94.9 16.1,94.3 16.9,94.3 16.5,93.6 16.8,92.9 16,93.1 15.4,92.6 15.4,93.4 14.7,93.9 15.5,94.1 
			"/>
	<polygon class="st0" points="13.5,92.6 14.8,91.9 16.1,92.5 15.8,91.1 16.8,90 15.4,89.8 14.7,88.5 14,89.9 12.6,90.1 13.7,91.1 	
		"/>
	<polygon class="st3" points="20.1,99.4 21.2,98.7 22.3,99.3 22.1,98 23,97.1 21.7,97 21.1,95.8 20.6,97 19.3,97.2 20.2,98.1 	"/>
	<polygon class="st2" points="18.6,96.5 19.3,96.1 20,96.4 19.9,95.6 20.4,95.1 19.6,95 19.3,94.3 18.9,95 18.2,95.1 18.7,95.7 	"/>
	<polygon class="st0" points="17.9,99 18.5,98.6 19.1,98.9 19,98.3 19.5,97.8 18.8,97.7 18.4,97.1 18.2,97.7 17.5,97.8 18,98.3 	"/>
</g>
<g>
	<rect x="0.2" y="55.8" class="st1" width="12" height="12"/>
	<polygon class="st2" points="2.1,61.8 6.2,56.5 10.2,61.8 6.2,67 	"/>
	<ellipse class="st3" cx="6.2" cy="61.8" rx="2.2" ry="1.8"/>
</g>
<g>
	<path class="st1" d="M11.8,71.6c-0.1,0.3-0.1,0.6-0.2,1c-0.1,0.1-0.1,0.2-0.2,0.3c-0.1,0.2-0.4,0.4-0.7,0.6c-0.4,0.2-0.7,0.3-1,0.4
		c0.2-0.3,0.4-0.6,0.6-0.9c-0.3,0.2-0.6,0.4-0.9,0.6c-0.2,0.1-0.5,0.2-0.8,0.3C8.1,74,7.5,74,7.2,74c0.1-0.1,0.1-0.3,0.2-0.4
		c0.1-0.2,0.3-0.4,0.4-0.5c-0.3,0.1-0.5,0.3-0.8,0.4c-0.3,0.1-0.6,0.3-1.1,0.4C5.4,74,4.8,74,4.5,74c0.3-0.2,0.6-0.4,0.9-0.7
		l0.3-0.3c-0.3,0.1-0.7,0.3-1,0.4c-0.3,0.1-0.7,0.2-1.3,0.2c-0.3,0-0.7,0-1.2-0.1c-0.1,0-0.3-0.1-0.4-0.1c0.2-0.1,0.4-0.2,0.7-0.4
		c-0.2,0-0.4,0-0.7,0c-0.3,0-0.5-0.1-0.7-0.2c-0.1,0-0.2-0.1-0.4-0.2c-0.1-0.2-0.2-0.3-0.2-0.4c0.2,0,0.5-0.1,0.7-0.1
		c0.2,0,0.4-0.1,0.7-0.1c0.2,0,0.5,0,0.7,0c0.3,0.1,0.6,0.1,0.9,0.2c-0.4-0.2-0.8-0.4-1.1-0.6c0.2-0.1,0.5-0.2,0.8-0.2
		c0.4,0,0.7,0,1.1,0.1c0.2,0.1,0.6,0.1,0.9,0.3c-0.2-0.2-0.4-0.3-0.7-0.5c0.3-0.1,0.7-0.2,1.2-0.2c0.7,0,1.3,0.1,1.6,0.3
		c0.1,0,0.2,0.1,0.3,0.1c-0.2-0.2-0.4-0.4-0.6-0.6c0.2-0.1,0.5-0.2,0.9-0.2c0.4,0,0.6,0.1,0.8,0.2c0.4,0.1,0.7,0.4,1,0.5
		c-0.2-0.3-0.5-0.5-0.7-0.8c0.3-0.1,0.6-0.1,0.9-0.2c0.3,0.1,0.6,0.2,1,0.3C11.2,71.1,11.5,71.3,11.8,71.6z"/>
	<path class="st2" d="M11.8,71.5c0-0.3-0.1-0.7-0.1-1c-0.1-0.1-0.1-0.2-0.2-0.3c-0.1-0.2-0.3-0.4-0.6-0.7c-0.4-0.3-0.7-0.4-0.9-0.5
		c0.2,0.3,0.4,0.6,0.5,1c-0.3-0.2-0.6-0.4-0.9-0.6c-0.2-0.1-0.5-0.3-0.8-0.4c-0.6-0.2-1.1-0.3-1.4-0.3c0.1,0.1,0.1,0.3,0.2,0.4
		c0.1,0.2,0.3,0.4,0.4,0.5c-0.3-0.2-0.5-0.3-0.8-0.5c-0.3-0.2-0.6-0.3-1-0.5c-0.6-0.2-1.1-0.2-1.5-0.2c0.3,0.2,0.5,0.5,0.8,0.7
		l0.3,0.3c-0.3-0.2-0.6-0.3-1-0.5c-0.3-0.1-0.7-0.3-1.3-0.4c-0.3,0-0.7-0.1-1.2,0c-0.2,0-0.3,0.1-0.4,0.1c0.2,0.1,0.4,0.3,0.6,0.4
		c-0.2,0-0.4-0.1-0.7-0.1c-0.3,0-0.5,0.1-0.7,0.1c-0.1,0-0.2,0.1-0.4,0.2c-0.1,0.1-0.2,0.3-0.2,0.4C0.7,69.9,1,70,1.2,70
		c0.2,0.1,0.4,0.1,0.7,0.2c0.2,0,0.5,0,0.7,0c0.3,0,0.6-0.1,0.9-0.1c-0.4,0.2-0.8,0.3-1.2,0.5c0.2,0.1,0.5,0.2,0.8,0.3
		c0.4,0.1,0.7,0,1.1,0c0.2,0,0.6-0.1,1-0.2C5,70.8,4.7,71,4.5,71.1c0.3,0.1,0.7,0.3,1.2,0.3c0.7,0.1,1.3,0,1.6-0.1
		c0.1,0,0.2,0,0.3-0.1c-0.2,0.2-0.4,0.4-0.6,0.6C7.1,71.9,7.4,72,7.8,72c0.4,0,0.6,0,0.8-0.1c0.4-0.1,0.8-0.3,1-0.5
		c-0.3,0.2-0.5,0.5-0.8,0.7c0.3,0.1,0.6,0.2,0.9,0.2c0.3-0.1,0.7-0.1,1-0.2C11.1,72,11.4,71.7,11.8,71.5z"/>
</g>
<g>
	<g>
		<line class="st4" x1="3.8" y1="55.4" x2="1.7" y2="52.6"/>
		<line class="st4" x1="1.6" y1="53.2" x2="4.1" y2="49.9"/>
		<line class="st4" x1="4.2" y1="50.4" x2="1.7" y2="47.2"/>
		<line class="st4" x1="1.7" y1="47.7" x2="3.8" y2="44.8"/>
	</g>
	<line class="st5" x1="0.9" y1="55.7" x2="0.9" y2="44.4"/>
	<g>
		<line class="st4" x1="5.7" y1="55.4" x2="3.5" y2="52.6"/>
		<line class="st4" x1="3.5" y1="53.2" x2="5.9" y2="49.9"/>
		<line class="st4" x1="6.1" y1="50.4" x2="3.6" y2="47.2"/>
		<line class="st4" x1="3.5" y1="47.7" x2="5.7" y2="44.8"/>
	</g>
	<g>
		<line class="st4" x1="9.2" y1="55.5" x2="7" y2="52.7"/>
		<line class="st4" x1="7" y1="53.3" x2="9.5" y2="50"/>
		<line class="st4" x1="9.6" y1="50.5" x2="7.1" y2="47.3"/>
		<line class="st4" x1="7" y1="47.8" x2="9.2" y2="44.9"/>
	</g>
	<line class="st5" x1="6.2" y1="55.8" x2="6.2" y2="44.5"/>
	<g>
		<line class="st4" x1="11.1" y1="55.5" x2="8.9" y2="52.7"/>
		<line class="st4" x1="8.9" y1="53.3" x2="11.3" y2="50"/>
		<line class="st4" x1="11.5" y1="50.5" x2="8.9" y2="47.3"/>
		<line class="st4" x1="8.9" y1="47.8" x2="11.1" y2="44.9"/>
	</g>
</g>
<g>
	<rect x="0.2" y="12.7" class="st1" width="12" height="12"/>
	<polygon class="st0" points="4.4,16.3 4.8,15.1 4,14.1 5.3,14.1 6,13.1 6.4,14.3 7.7,14.7 6.6,15.4 6.6,16.7 5.6,15.9 	"/>
	<polygon class="st2" points="4.6,23.7 4.9,23.1 4.6,22.5 5.3,22.6 5.8,22.1 5.9,22.8 6.5,23.1 5.9,23.4 5.8,24.1 5.3,23.6 	"/>
	<polygon class="st3" points="5.4,21.2 6,20.7 6,19.9 6.6,20.3 7.4,20 7.1,20.8 7.6,21.4 6.8,21.4 6.4,22.1 6.1,21.4 	"/>
	<polygon class="st0" points="7.7,23.4 8.4,22.1 7.8,20.7 9.2,21 10.3,20 10.5,21.5 11.8,22.2 10.4,22.8 10.2,24.2 9.2,23.1 	"/>
	<polygon class="st3" points="0.9,16.8 1.5,15.6 1,14.5 2.2,14.7 3.2,13.8 3.3,15.1 4.4,15.7 3.3,16.3 3,17.5 2.2,16.6 	"/>
	<polygon class="st2" points="3.8,18.2 4.2,17.5 3.8,16.8 4.6,16.9 5.2,16.4 5.3,17.2 6,17.5 5.3,17.9 5.1,18.7 4.6,18.1 	"/>
	<polygon class="st0" points="1.3,18.9 1.6,18.3 1.3,17.7 2,17.8 2.5,17.4 2.6,18.1 3.2,18.4 2.6,18.7 2.4,19.3 2,18.8 	"/>
</g>
<g>
	<path class="st1" d="M11.8,28.1c-0.1-0.3-0.1-0.6-0.2-1c-0.1-0.1-0.1-0.2-0.2-0.3c-0.1-0.2-0.4-0.4-0.7-0.6c-0.4-0.2-0.7-0.3-1-0.4
		c0.2,0.3,0.4,0.6,0.6,0.9c-0.3-0.2-0.6-0.4-0.9-0.6C9.2,26.1,9,26,8.6,25.9c-0.6-0.2-1.1-0.2-1.5-0.2c0.1,0.1,0.1,0.3,0.2,0.4
		c0.1,0.2,0.3,0.4,0.4,0.5c-0.3-0.1-0.5-0.3-0.8-0.4c-0.3-0.1-0.6-0.3-1.1-0.4c-0.6-0.1-1.1-0.1-1.5-0.1c0.3,0.2,0.6,0.4,0.9,0.7
		l0.3,0.3c-0.3-0.1-0.7-0.3-1-0.4C4.4,26.1,3.9,26,3.4,26c-0.3,0-0.7,0-1.2,0.1c-0.1,0-0.3,0.1-0.4,0.1c0.2,0.1,0.4,0.2,0.7,0.4
		c-0.2,0-0.4,0-0.7,0c-0.3,0-0.5,0.1-0.7,0.2c-0.1,0-0.2,0.1-0.4,0.2c-0.1,0.2-0.2,0.3-0.2,0.4c0.2,0,0.5,0.1,0.7,0.1
		c0.2,0,0.4,0.1,0.7,0.1c0.2,0,0.5,0,0.7,0c0.3-0.1,0.6-0.1,0.9-0.2c-0.4,0.2-0.8,0.4-1.1,0.6c0.2,0.1,0.5,0.2,0.8,0.2
		c0.4,0,0.7,0,1.1-0.1C4.5,28,4.8,28,5.2,27.8C5,28,4.8,28.2,4.5,28.3c0.3,0.1,0.7,0.2,1.2,0.2c0.7,0,1.3-0.1,1.6-0.3
		c0.1,0,0.2-0.1,0.3-0.1c-0.2,0.2-0.4,0.4-0.6,0.6C7.2,28.9,7.5,29,7.9,29c0.4,0,0.6-0.1,0.8-0.2c0.4-0.1,0.7-0.4,1-0.5
		c-0.2,0.3-0.5,0.5-0.7,0.8c0.3,0.1,0.6,0.1,0.9,0.2c0.3-0.1,0.6-0.2,1-0.3C11.2,28.7,11.5,28.4,11.8,28.1z"/>
	<path class="st2" d="M11.8,28.2c0,0.3-0.1,0.7-0.1,1c-0.1,0.1-0.1,0.2-0.2,0.3c-0.1,0.2-0.3,0.4-0.6,0.7c-0.4,0.3-0.7,0.4-0.9,0.5
		c0.2-0.3,0.4-0.6,0.5-1c-0.3,0.2-0.6,0.4-0.9,0.6c-0.2,0.1-0.5,0.3-0.8,0.4C8.2,30.9,7.7,31,7.3,31c0.1-0.1,0.1-0.3,0.2-0.4
		c0.1-0.2,0.3-0.4,0.4-0.5c-0.3,0.2-0.5,0.3-0.8,0.5c-0.3,0.2-0.6,0.3-1,0.5c-0.6,0.2-1.1,0.2-1.5,0.2c0.3-0.2,0.5-0.5,0.8-0.7
		l0.3-0.3c-0.3,0.2-0.6,0.3-1,0.5C4.5,30.8,4,31,3.5,31c-0.3,0-0.7,0.1-1.2,0c-0.2,0-0.3-0.1-0.4-0.1c0.2-0.1,0.4-0.3,0.6-0.4
		c-0.2,0-0.4,0.1-0.7,0.1c-0.3,0-0.5-0.1-0.7-0.1c-0.1,0-0.2-0.1-0.4-0.2c-0.1-0.1-0.2-0.3-0.2-0.4c0.2-0.1,0.5-0.1,0.7-0.2
		c0.2-0.1,0.4-0.1,0.7-0.2c0.2,0,0.5,0,0.7,0c0.3,0,0.6,0.1,0.9,0.1c-0.4-0.2-0.8-0.3-1.2-0.5c0.2-0.1,0.5-0.2,0.8-0.3
		c0.4-0.1,0.7,0,1.1,0c0.2,0,0.6,0.1,1,0.2c-0.2-0.1-0.5-0.3-0.7-0.4c0.3-0.1,0.7-0.3,1.2-0.3c0.7-0.1,1.3,0,1.6,0.1
		c0.1,0,0.2,0,0.3,0.1c-0.2-0.2-0.4-0.4-0.6-0.6c0.2-0.1,0.5-0.2,0.8-0.2c0.4,0,0.6,0,0.8,0.1c0.4,0.1,0.8,0.3,1,0.5
		c-0.3-0.2-0.5-0.5-0.8-0.7c0.3-0.1,0.6-0.2,0.9-0.2c0.3,0.1,0.7,0.1,1,0.2C11.1,27.7,11.4,28,11.8,28.2z"/>
</g>
<g>
	<rect x="0.2" y="32.9" class="st1" width="12" height="12"/>
	<polygon class="st2" points="2.1,38.9 6.2,33.7 10.2,38.9 6.2,44.2 	"/>
	<ellipse class="st3" cx="6.2" cy="38.9" rx="2.2" ry="1.8"/>
</g>
<g>
	<rect x="0.2" y="76.3" class="st1" width="12" height="12"/>
	<polygon class="st0" points="4.4,80 4.8,78.8 4,77.7 5.3,77.8 6,76.7 6.4,77.9 7.7,78.3 6.6,79.1 6.6,80.3 5.6,79.6 	"/>
	<polygon class="st2" points="4.6,87.3 4.9,86.7 4.6,86.1 5.3,86.2 5.8,85.8 5.9,86.4 6.5,86.8 5.9,87.1 5.8,87.7 5.3,87.2 	"/>
	<polygon class="st3" points="5.4,84.8 6,84.3 6,83.5 6.6,84 7.4,83.7 7.1,84.5 7.6,85.1 6.8,85.1 6.4,85.8 6.1,85 	"/>
	<polygon class="st0" points="7.7,87 8.4,85.7 7.8,84.4 9.2,84.7 10.3,83.6 10.5,85.1 11.8,85.8 10.4,86.4 10.2,87.9 9.2,86.8 	"/>
	<polygon class="st3" points="0.9,80.4 1.5,79.3 1,78.1 2.2,78.4 3.2,77.5 3.3,78.8 4.4,79.4 3.3,79.9 3,81.2 2.2,80.2 	"/>
	<polygon class="st2" points="3.8,81.8 4.2,81.1 3.8,80.4 4.6,80.6 5.2,80 5.3,80.8 6,81.2 5.3,81.5 5.1,82.3 4.6,81.7 	"/>
	<polygon class="st0" points="1.3,82.6 1.6,82 1.3,81.4 2,81.5 2.5,81 2.6,81.7 3.2,82 2.6,82.3 2.4,83 2,82.5 	"/>
</g>
<g>
	<rect x="88" y="55.4" class="st1" width="12" height="12"/>
	<polygon class="st2" points="98,61.4 94,56.2 90,61.4 94,66.7 	"/>
	<ellipse class="st3" cx="94" cy="61.4" rx="2.2" ry="1.8"/>
</g>
<g>
	<path class="st1" d="M88.3,71.3c0.1,0.3,0.1,0.6,0.2,1c0.1,0.1,0.1,0.2,0.2,0.3c0.1,0.2,0.4,0.4,0.7,0.6c0.4,0.2,0.7,0.3,1,0.4
		c-0.2-0.3-0.4-0.6-0.6-0.9c0.3,0.2,0.6,0.4,0.9,0.6c0.2,0.1,0.5,0.2,0.8,0.3c0.6,0.2,1.1,0.2,1.5,0.2c-0.1-0.1-0.1-0.3-0.2-0.4
		c-0.1-0.2-0.3-0.4-0.4-0.5c0.3,0.1,0.5,0.3,0.8,0.4c0.3,0.1,0.6,0.3,1.1,0.4c0.6,0.1,1.1,0.1,1.5,0.1c-0.3-0.2-0.6-0.4-0.9-0.7
		l-0.3-0.3c0.3,0.1,0.7,0.3,1,0.4c0.3,0.1,0.7,0.2,1.3,0.2c0.3,0,0.7,0,1.2-0.1c0.1,0,0.3-0.1,0.4-0.1c-0.2-0.1-0.4-0.2-0.7-0.4
		c0.2,0,0.4,0,0.7,0c0.3,0,0.5-0.1,0.7-0.2c0.1,0,0.2-0.1,0.4-0.2c0.1-0.2,0.2-0.3,0.2-0.4c-0.2,0-0.5-0.1-0.7-0.1
		c-0.2,0-0.4-0.1-0.7-0.1c-0.2,0-0.5,0-0.7,0c-0.3,0.1-0.6,0.1-0.9,0.2c0.4-0.2,0.8-0.4,1.1-0.6c-0.2-0.1-0.5-0.2-0.8-0.2
		c-0.4,0-0.7,0-1.1,0.1c-0.2,0.1-0.6,0.1-0.9,0.3c0.2-0.2,0.4-0.3,0.7-0.5c-0.3-0.1-0.7-0.2-1.2-0.2c-0.7,0-1.3,0.1-1.6,0.3
		c-0.1,0-0.2,0.1-0.3,0.1c0.2-0.2,0.4-0.4,0.6-0.6c-0.2-0.1-0.5-0.2-0.9-0.2c-0.4,0-0.6,0.1-0.8,0.2c-0.4,0.1-0.7,0.4-1,0.5
		c0.2-0.3,0.5-0.5,0.7-0.8c-0.3-0.1-0.6-0.1-0.9-0.2c-0.3,0.1-0.6,0.2-1,0.3C89,70.7,88.6,71,88.3,71.3z"/>
	<path class="st2" d="M88.4,71.2c0-0.3,0.1-0.7,0.1-1c0.1-0.1,0.1-0.2,0.2-0.3c0.1-0.2,0.3-0.4,0.6-0.7c0.4-0.3,0.7-0.4,0.9-0.5
		c-0.2,0.3-0.4,0.6-0.5,1c0.3-0.2,0.6-0.4,0.9-0.6c0.2-0.1,0.5-0.3,0.8-0.4c0.6-0.2,1.1-0.3,1.4-0.3c-0.1,0.1-0.1,0.3-0.2,0.4
		c-0.1,0.2-0.3,0.4-0.4,0.5c0.3-0.2,0.5-0.3,0.8-0.5c0.3-0.2,0.6-0.3,1-0.5c0.6-0.2,1.1-0.2,1.5-0.2c-0.3,0.2-0.5,0.5-0.8,0.7
		l-0.3,0.3c0.3-0.2,0.6-0.3,1-0.5c0.3-0.1,0.7-0.3,1.3-0.4c0.3,0,0.7-0.1,1.2,0c0.2,0,0.3,0.1,0.4,0.1c-0.2,0.1-0.4,0.3-0.6,0.4
		c0.2,0,0.4-0.1,0.7-0.1c0.3,0,0.5,0.1,0.7,0.1c0.1,0,0.2,0.1,0.4,0.2c0.1,0.1,0.2,0.3,0.2,0.4c-0.2,0.1-0.5,0.1-0.7,0.2
		c-0.2,0.1-0.4,0.1-0.7,0.2c-0.2,0-0.5,0-0.7,0c-0.3,0-0.6-0.1-0.9-0.1c0.4,0.2,0.8,0.3,1.2,0.5c-0.2,0.1-0.5,0.2-0.8,0.3
		c-0.4,0.1-0.7,0-1.1,0c-0.2,0-0.6-0.1-1-0.2c0.2,0.1,0.5,0.3,0.7,0.4c-0.3,0.1-0.7,0.3-1.2,0.3c-0.7,0.1-1.3,0-1.6-0.1
		c-0.1,0-0.2,0-0.3-0.1c0.2,0.2,0.4,0.4,0.6,0.6c-0.2,0.1-0.5,0.2-0.8,0.2c-0.4,0-0.6,0-0.8-0.1c-0.4-0.1-0.8-0.3-1-0.5
		c0.3,0.2,0.5,0.5,0.8,0.7c-0.3,0.1-0.6,0.2-0.9,0.2c-0.3-0.1-0.7-0.1-1-0.2C89.1,71.7,88.7,71.4,88.4,71.2z"/>
</g>
<g>
	<g>
		<line class="st4" x1="96.3" y1="55" x2="98.5" y2="52.3"/>
		<line class="st4" x1="98.5" y1="52.9" x2="96.1" y2="49.5"/>
		<line class="st4" x1="95.9" y1="50.1" x2="98.5" y2="46.8"/>
		<line class="st4" x1="98.5" y1="47.4" x2="96.3" y2="44.4"/>
	</g>
	<line class="st5" x1="99.3" y1="55.3" x2="99.3" y2="44.1"/>
	<g>
		<line class="st4" x1="94.5" y1="55" x2="96.6" y2="52.3"/>
		<line class="st4" x1="96.7" y1="52.9" x2="94.2" y2="49.5"/>
		<line class="st4" x1="94.1" y1="50.1" x2="96.6" y2="46.8"/>
		<line class="st4" x1="96.6" y1="47.4" x2="94.5" y2="44.4"/>
	</g>
	<g>
		<line class="st4" x1="90.9" y1="55.1" x2="93.1" y2="52.4"/>
		<line class="st4" x1="93.2" y1="53" x2="90.7" y2="49.6"/>
		<line class="st4" x1="90.6" y1="50.2" x2="93.1" y2="46.9"/>
		<line class="st4" x1="93.1" y1="47.5" x2="90.9" y2="44.5"/>
	</g>
	<line class="st5" x1="93.9" y1="55.4" x2="93.9" y2="44.2"/>
	<g>
		<line class="st4" x1="89.1" y1="55.1" x2="91.3" y2="52.4"/>
		<line class="st4" x1="91.3" y1="53" x2="88.8" y2="49.6"/>
		<line class="st4" x1="88.7" y1="50.2" x2="91.2" y2="46.9"/>
		<line class="st4" x1="91.2" y1="47.5" x2="89.1" y2="44.5"/>
	</g>
</g>
<g>
	<rect x="88" y="12.3" class="st1" width="12" height="12"/>
	<polygon class="st0" points="95.8,16 95.4,14.8 96.2,13.8 94.9,13.8 94.1,12.7 93.7,14 92.5,14.3 93.6,15.1 93.5,16.4 94.6,15.6 	
		"/>
	<polygon class="st2" points="95.6,23.4 95.2,22.7 95.5,22.1 94.8,22.3 94.3,21.8 94.3,22.5 93.7,22.8 94.3,23.1 94.4,23.8 
		94.9,23.3 	"/>
	<polygon class="st3" points="94.8,20.8 94.1,20.3 94.2,19.6 93.5,20 92.8,19.7 93,20.5 92.5,21.1 93.3,21.1 93.7,21.8 94,21 	"/>
	<polygon class="st0" points="92.5,23 91.7,21.7 92.4,20.4 90.9,20.7 89.9,19.7 89.7,21.1 88.4,21.8 89.7,22.4 90,23.9 91,22.8 	"/>
	<polygon class="st3" points="99.3,16.4 98.6,15.3 99.2,14.1 97.9,14.4 97,13.5 96.9,14.8 95.7,15.4 96.9,15.9 97.1,17.2 98,16.2 	
		"/>
	<polygon class="st2" points="96.4,17.9 96,17.2 96.3,16.5 95.5,16.6 95,16.1 94.9,16.8 94.2,17.2 94.9,17.5 95,18.3 95.6,17.7 	"/>
	<polygon class="st0" points="98.9,18.6 98.5,18 98.8,17.4 98.2,17.5 97.7,17 97.6,17.7 97,18 97.6,18.3 97.7,19 98.2,18.5 	"/>
</g>
<g>
	<path class="st1" d="M88.3,27.8c0.1-0.3,0.1-0.6,0.2-1c0.1-0.1,0.1-0.2,0.2-0.3c0.1-0.2,0.4-0.4,0.7-0.6c0.4-0.2,0.7-0.3,1-0.4
		c-0.2,0.3-0.4,0.6-0.6,0.9c0.3-0.2,0.6-0.4,0.9-0.6c0.2-0.1,0.5-0.2,0.8-0.3c0.6-0.2,1.1-0.2,1.5-0.2c-0.1,0.1-0.1,0.3-0.2,0.4
		c-0.1,0.2-0.3,0.4-0.4,0.5c0.3-0.1,0.5-0.3,0.8-0.4c0.3-0.1,0.6-0.3,1.1-0.4c0.6-0.1,1.1-0.1,1.5-0.1c-0.3,0.2-0.6,0.4-0.9,0.7
		l-0.3,0.3c0.3-0.1,0.7-0.3,1-0.4c0.3-0.1,0.7-0.2,1.3-0.2c0.3,0,0.7,0,1.2,0.1c0.1,0,0.3,0.1,0.4,0.1c-0.2,0.1-0.4,0.2-0.7,0.4
		c0.2,0,0.4,0,0.7,0c0.3,0,0.5,0.1,0.7,0.2c0.1,0,0.2,0.1,0.4,0.2c0.1,0.2,0.2,0.3,0.2,0.4c-0.2,0-0.5,0.1-0.7,0.1
		c-0.2,0-0.4,0.1-0.7,0.1c-0.2,0-0.5,0-0.7,0c-0.3-0.1-0.6-0.1-0.9-0.2c0.4,0.2,0.8,0.4,1.1,0.6c-0.2,0.1-0.5,0.2-0.8,0.2
		c-0.4,0-0.7,0-1.1-0.1c-0.2-0.1-0.6-0.1-0.9-0.3c0.2,0.2,0.4,0.3,0.7,0.5c-0.3,0.1-0.7,0.2-1.2,0.2c-0.7,0-1.3-0.1-1.6-0.3
		c-0.1,0-0.2-0.1-0.3-0.1c0.2,0.2,0.4,0.4,0.6,0.6c-0.2,0.1-0.5,0.2-0.9,0.2c-0.4,0-0.6-0.1-0.8-0.2c-0.4-0.1-0.7-0.4-1-0.5
		c0.2,0.3,0.5,0.5,0.7,0.8c-0.3,0.1-0.6,0.1-0.9,0.2c-0.3-0.1-0.6-0.2-1-0.3C89,28.3,88.6,28.1,88.3,27.8z"/>
	<path class="st2" d="M88.4,27.9c0,0.3,0.1,0.7,0.1,1c0.1,0.1,0.1,0.2,0.2,0.3c0.1,0.2,0.3,0.4,0.6,0.7c0.4,0.3,0.7,0.4,0.9,0.5
		c-0.2-0.3-0.4-0.6-0.5-1c0.3,0.2,0.6,0.4,0.9,0.6c0.2,0.1,0.5,0.3,0.8,0.4c0.6,0.2,1.1,0.3,1.4,0.3c-0.1-0.1-0.1-0.3-0.2-0.4
		c-0.1-0.2-0.3-0.4-0.4-0.5c0.3,0.2,0.5,0.3,0.8,0.5c0.3,0.2,0.6,0.3,1,0.5c0.6,0.2,1.1,0.2,1.5,0.2c-0.3-0.2-0.5-0.5-0.8-0.7
		l-0.3-0.3c0.3,0.2,0.6,0.3,1,0.5c0.3,0.1,0.7,0.3,1.3,0.4c0.3,0,0.7,0.1,1.2,0c0.2,0,0.3-0.1,0.4-0.1c-0.2-0.1-0.4-0.3-0.6-0.4
		c0.2,0,0.4,0.1,0.7,0.1c0.3,0,0.5-0.1,0.7-0.1c0.1,0,0.2-0.1,0.4-0.2c0.1-0.1,0.2-0.3,0.2-0.4c-0.2-0.1-0.5-0.1-0.7-0.2
		c-0.2-0.1-0.4-0.1-0.7-0.2c-0.2,0-0.5,0-0.7,0c-0.3,0-0.6,0.1-0.9,0.1c0.4-0.2,0.8-0.3,1.2-0.5c-0.2-0.1-0.5-0.2-0.8-0.3
		c-0.4-0.1-0.7,0-1.1,0c-0.2,0-0.6,0.1-1,0.2c0.2-0.1,0.5-0.3,0.7-0.4c-0.3-0.1-0.7-0.3-1.2-0.3c-0.7-0.1-1.3,0-1.6,0.1
		c-0.1,0-0.2,0-0.3,0.1c0.2-0.2,0.4-0.4,0.6-0.6c-0.2-0.1-0.5-0.2-0.8-0.2c-0.4,0-0.6,0-0.8,0.1c-0.4,0.1-0.8,0.3-1,0.5
		c0.3-0.2,0.5-0.5,0.8-0.7c-0.3-0.1-0.6-0.2-0.9-0.2c-0.3,0.1-0.7,0.1-1,0.2C89.1,27.4,88.7,27.6,88.4,27.9z"/>
</g>
<g>
	<rect x="88" y="32.6" class="st1" width="12" height="12"/>
	<polygon class="st2" points="98,38.6 94,33.4 90,38.6 94,43.8 	"/>
	<ellipse class="st3" cx="94" cy="38.6" rx="2.2" ry="1.8"/>
</g>
<g>
	<rect x="88" y="76" class="st1" width="12" height="12"/>
	<polygon class="st0" points="95.8,79.7 95.4,78.4 96.2,77.4 94.9,77.4 94.1,76.4 93.7,77.6 92.5,78 93.6,78.7 93.5,80 94.6,79.2 	
		"/>
	<polygon class="st2" points="95.6,87 95.2,86.4 95.5,85.8 94.8,85.9 94.3,85.4 94.3,86.1 93.7,86.4 94.3,86.7 94.4,87.4 94.9,86.9 
			"/>
	<polygon class="st3" points="94.8,84.5 94.1,84 94.2,83.2 93.5,83.6 92.8,83.4 93,84.1 92.5,84.7 93.3,84.8 93.7,85.4 94,84.7 	"/>
	<polygon class="st0" points="92.5,86.7 91.7,85.4 92.4,84 90.9,84.3 89.9,83.3 89.7,84.8 88.4,85.5 89.7,86.1 90,87.6 91,86.5 	"/>
	<polygon class="st3" points="99.3,80.1 98.6,79 99.2,77.8 97.9,78 97,77.2 96.9,78.4 95.7,79 96.9,79.6 97.1,80.8 98,79.9 	"/>
	<polygon class="st2" points="96.4,81.5 96,80.8 96.3,80.1 95.5,80.3 95,79.7 94.9,80.5 94.2,80.9 94.9,81.2 95,82 95.6,81.4 	"/>
	<polygon class="st0" points="98.9,82.3 98.5,81.6 98.8,81 98.2,81.2 97.7,80.7 97.6,81.4 97,81.7 97.6,82 97.7,82.7 98.2,82.2 	"/>
</g>
</svg>
