<?xml version="1.0" encoding="utf-8"?>
<!-- Generator: Adobe Illustrator 24.1.2, SVG Export Plug-In . SVG Version: 6.00 Build 0)  -->
<svg version="1.1" id="Laag_1" xmlns="http://www.w3.org/2000/svg" xmlns:xlink="http://www.w3.org/1999/xlink" x="0px" y="0px"
	 viewBox="0 0 349 349" style="enable-background:new 0 0 349 349;" xml:space="preserve">
<style type="text/css">
	.st0{fill:#FFFFFF;}
	.st1{fill:#033868;}
	.st2{fill:#DD0E22;}
	.st3{fill-rule:evenodd;clip-rule:evenodd;fill:#033868;}
	.st4{fill-rule:evenodd;clip-rule:evenodd;fill:#DD0E22;}
</style>
<rect y="0" class="st0" width="348.9" height="348.9"/>
<rect x="41.9" y="0" class="st1" width="41.9" height="41.9"/>
<path class="st0" d="M54.4,9.2h8.4h8.4l-8.4,12.1L54.4,9.2z"/>
<path class="st0" d="M54.4,33.5h8.4h8.4l-8.4-12.1L54.4,33.5z"/>
<path class="st0" d="M72.9,28.2v-6.9v-6.9l-10,6.9L72.9,28.2z"/>
<path class="st0" d="M52.8,14.5v6.9v6.9l10-6.9L52.8,14.5z"/>
<rect y="41.9" class="st2" width="41.9" height="41.9"/>
<path class="st0" d="M12.6,51.1h8.4h8.4l-8.4,12.1L12.6,51.1z"/>
<path class="st0" d="M12.6,75.4h8.4h8.4l-8.4-12.1L12.6,75.4z"/>
<path class="st0" d="M31,70.1v-6.9v-6.9l-10,6.9L31,70.1z"/>
<path class="st0" d="M10.9,56.3v6.9v6.9l10-6.9L10.9,56.3z"/>
<rect x="265.2" y="0" class="st2" width="41.9" height="41.9"/>
<path class="st0" d="M277.8,9.2h8.4h8.4l-8.4,12.1L277.8,9.2z"/>
<path class="st0" d="M277.8,33.5h8.4h8.4l-8.4-12.1L277.8,33.5z"/>
<path class="st0" d="M296.2,28.2v-6.9v-6.9l-10,6.9L296.2,28.2z"/>
<path class="st0" d="M276.1,14.5v6.9v6.9l10-6.9L276.1,14.5z"/>
<rect x="307.1" y="265.2" class="st2" width="41.9" height="41.9"/>
<path class="st0" d="M319.6,274.4h8.4h8.4l-8.4,12.1L319.6,274.4z"/>
<path class="st0" d="M319.6,298.7h8.4h8.4l-8.4-12.1L319.6,298.7z"/>
<path class="st0" d="M338.1,293.4v-6.9v-6.9l-10,6.9L338.1,293.4z"/>
<path class="st0" d="M318,279.7v6.9v6.9l10-6.9L318,279.7z"/>
<rect x="41.9" y="307.1" class="st2" width="41.9" height="41.9"/>
<path class="st0" d="M54.4,316.3h8.4h8.4l-8.4,12.1L54.4,316.3z"/>
<path class="st0" d="M54.4,340.6h8.4h8.4l-8.4-12.1L54.4,340.6z"/>
<path class="st0" d="M72.9,335.3v-6.9v-6.9l-10,6.9L72.9,335.3z"/>
<path class="st0" d="M52.8,321.5v6.9v6.9l10-6.9L52.8,321.5z"/>
<rect x="307.1" y="41.9" class="st1" width="41.9" height="41.9"/>
<path class="st0" d="M319.6,51.1h8.4h8.4L328,63.2L319.6,51.1z"/>
<path class="st0" d="M319.6,75.4h8.4h8.4L328,63.2L319.6,75.4z"/>
<path class="st0" d="M338.1,70.1v-6.9v-6.9l-10,6.9L338.1,70.1z"/>
<path class="st0" d="M318,56.3v6.9v6.9l10-6.9L318,56.3z"/>
<rect x="265.2" y="307.1" class="st1" width="41.9" height="41.9"/>
<path class="st0" d="M277.8,316.3h8.4h8.4l-8.4,12.1L277.8,316.3z"/>
<path class="st0" d="M277.8,340.6h8.4h8.4l-8.4-12.1L277.8,340.6z"/>
<path class="st0" d="M296.2,335.3v-6.9v-6.9l-10,6.9L296.2,335.3z"/>
<path class="st0" d="M276.1,321.5v6.9v6.9l10-6.9L276.1,321.5z"/>
<rect y="265.2" class="st1" width="41.9" height="41.9"/>
<path class="st0" d="M12.6,274.4h8.4h8.4l-8.4,12.1L12.6,274.4z"/>
<path class="st0" d="M12.6,298.7h8.4h8.4l-8.4-12.1L12.6,298.7z"/>
<path class="st0" d="M31,293.4v-6.9v-6.9l-10,6.9L31,293.4z"/>
<path class="st0" d="M10.9,279.7v6.9v6.9l10-6.9L10.9,279.7z"/>
<rect x="83.7" y="0" class="st0" width="41.9" height="41.9"/>
<path class="st3" d="M116.4,5.9v14.2h-11.7V5.9H116.4z M104.7,36V20.1H93v9.2c0,2.3,1.9,4.2,4.2,4.2h5.9
	C103.8,33.5,104.7,34.7,104.7,36z"/>
<path class="st2" d="M104.7,5.9H93v14.2h11.7V5.9z"/>
<path class="st2" d="M106.4,33.5h5c2.8,0,5-2.2,5-5v-8.4h-11.7V36C104.7,35.5,105,33.5,106.4,33.5z"/>
<rect x="307.1" y="83.7" class="st0" width="41.9" height="41.9"/>
<path class="st3" d="M339.7,89.6v14.2H328V89.6H339.7z M328,119.8v-15.9h-11.7v9.2c0,2.3,1.9,4.2,4.2,4.2h5.9
	C327.2,117.2,328,118.4,328,119.8z"/>
<path class="st2" d="M328,89.6h-11.7v14.2H328V89.6z"/>
<path class="st2" d="M329.7,117.2h5c2.8,0,5-2.2,5-5v-8.4H328v15.9C328,119.2,328.3,117.2,329.7,117.2z"/>
<rect x="223.3" y="307.1" class="st0" width="41.9" height="41.9"/>
<path class="st3" d="M256,312.9v14.2h-11.7v-14.2H256z M244.3,343.1v-15.9h-11.7v9.2c0,2.3,1.9,4.2,4.2,4.2h5.9
	C243.4,340.6,244.3,341.7,244.3,343.1z"/>
<path class="st2" d="M244.3,312.9h-11.7v14.2h11.7V312.9z"/>
<path class="st2" d="M245.9,340.6h5c2.8,0,5-2.2,5-5v-8.4h-11.7v15.9C244.3,342.5,244.6,340.6,245.9,340.6z"/>
<rect y="223.3" class="st0" width="41.9" height="41.9"/>
<path class="st3" d="M32.7,229.2v14.2H20.9v-14.2H32.7z M20.9,259.3v-15.9H9.2v9.2c0,2.3,1.9,4.2,4.2,4.2h5.9
	C20.1,256.8,20.9,258,20.9,259.3z"/>
<path class="st2" d="M20.9,229.2H9.2v14.2h11.7V229.2z"/>
<path class="st2" d="M22.6,256.8h5c2.8,0,5-2.2,5-5v-8.4H20.9v15.9C20.9,258.8,21.3,256.8,22.6,256.8z"/>
<rect x="83.7" y="307.1" class="st0" width="41.9" height="41.9"/>
<path class="st3" d="M103.4,340.7c-1.9-3.6-2.3-11.8,0.9-16.6c0-0.1,0.1-0.1,0.1-0.2c-0.4-0.6-1-1.1-1.7-1.5
	c-1.9,2.5-3.6,5.1-3.7,6.9c-0.5-0.5-1.8-1.4-2.7-1.6c-0.2,4.4,1.3,14,8.2,17.1v-10C103.9,336,102.7,338.8,103.4,340.7z M106,322.3
	c0.9-0.6,2-0.6,2.8,0.8c1.2-0.8,3.1-4.4,1.1-12.7c-0.7,0.9-2.1,3-2.3,4.3c-0.5-0.8-1.6-2-2.7,0c1.1-0.2,2.7,2,2,2.7
	c-0.7,0.7-1.7,1.8-2.6,2.9C104.9,321,105.5,321.7,106,322.3z"/>
<path class="st2" d="M98.8,310.4c-2,8.4,0.1,12.2,1.3,13c0.8-1.3,1.7-1.4,2.6-1c0.5-0.7,1.1-1.4,1.7-2.1c-0.9-1-1.8-2-2.4-2.7
	c-0.7-0.7,0.9-3,2-2.7c-1.1-2-2.3-0.8-2.7,0C101.1,313.7,99.5,311.3,98.8,310.4z"/>
<path class="st2" d="M104.5,334.8v10c6.9-3.1,8.4-12.4,8.1-16.8c-0.9,0.2-2.2,1.1-2.7,1.6c-0.1-1.8-1.9-4.6-3.9-7.2
	c-0.6,0.4-1.2,1-1.6,1.6c0.1,0.1,0.2,0.3,0.3,0.4c3.2,4.8,2.8,13,0.9,16.6C106.3,339.1,105.1,336,104.5,334.8z"/>
<rect x="307.1" y="223.3" class="st0" width="41.9" height="41.9"/>
<path class="st3" d="M326.7,256.9c-1.9-3.6-2.3-11.8,0.9-16.6c0-0.1,0.1-0.1,0.1-0.2c-0.4-0.6-1-1.1-1.7-1.5
	c-1.9,2.5-3.6,5.1-3.7,6.9c-0.5-0.5-1.8-1.4-2.7-1.6c-0.2,4.4,1.3,14,8.2,17.1v-10C327.2,252.2,326,255.1,326.7,256.9z M329.3,238.6
	c0.9-0.6,2-0.6,2.8,0.8c1.2-0.8,3.1-4.4,1.1-12.7c-0.7,0.9-2.1,3-2.3,4.3c-0.5-0.8-1.6-2-2.7,0c1.1-0.2,2.7,2,2,2.7
	c-0.7,0.7-1.7,1.8-2.6,2.9C328.3,237.2,328.8,237.9,329.3,238.6z"/>
<path class="st2" d="M322.2,226.7c-2,8.4,0.1,12.2,1.3,13c0.8-1.3,1.7-1.4,2.6-1c0.5-0.7,1.1-1.4,1.7-2.1c-0.9-1-1.8-2-2.4-2.7
	c-0.7-0.7,0.9-3,2-2.7c-1.1-2-2.3-0.8-2.7,0C324.4,229.9,322.8,227.6,322.2,226.7z"/>
<path class="st2" d="M327.8,251v10c6.9-3.1,8.4-12.4,8.1-16.8c-0.9,0.2-2.2,1.1-2.7,1.6c-0.1-1.8-1.9-4.6-3.9-7.2
	c-0.6,0.4-1.2,1-1.6,1.6c0.1,0.1,0.2,0.3,0.3,0.4c3.2,4.8,2.8,13,0.9,16.6C329.7,255.3,328.4,252.2,327.8,251z"/>
<rect x="223.3" y="0" class="st0" width="41.9" height="41.9"/>
<path class="st3" d="M243,33.6c-1.9-3.6-2.3-11.8,0.9-16.6c0-0.1,0.1-0.1,0.1-0.2c-0.4-0.6-1-1.1-1.7-1.5c-1.9,2.5-3.6,5.1-3.7,6.9
	c-0.5-0.5-1.8-1.4-2.7-1.6c-0.2,4.4,1.3,14,8.2,17.1v-10C243.5,28.9,242.2,31.8,243,33.6z M245.6,15.3c0.9-0.6,2-0.6,2.8,0.8
	c1.2-0.8,3.1-4.4,1.1-12.7c-0.7,0.9-2.1,3-2.3,4.3c-0.5-0.8-1.6-2-2.7,0c1.1-0.2,2.7,2,2,2.7c-0.7,0.7-1.7,1.8-2.6,2.9
	C244.5,13.9,245.1,14.6,245.6,15.3z"/>
<path class="st2" d="M238.4,3.3c-2,8.4,0.1,12.2,1.3,13c0.8-1.3,1.7-1.4,2.6-1c0.5-0.7,1.1-1.4,1.7-2.1c-0.9-1-1.8-2-2.4-2.7
	c-0.7-0.7,0.9-3,2-2.7c-1.1-2-2.3-0.8-2.7,0C240.7,6.6,239.1,4.3,238.4,3.3z"/>
<path class="st2" d="M244.1,27.7v10c6.9-3.1,8.4-12.4,8.1-16.8c-0.9,0.2-2.2,1.1-2.7,1.6c-0.1-1.8-1.9-4.6-3.9-7.2
	c-0.6,0.4-1.2,1-1.6,1.6c0.1,0.1,0.2,0.3,0.3,0.4c3.2,4.8,2.8,13,0.9,16.6C245.9,32,244.7,28.9,244.1,27.7z"/>
<rect y="83.7" class="st0" width="41.9" height="41.9"/>
<path class="st3" d="M19.6,117.3c-1.9-3.6-2.3-11.8,0.9-16.6c0-0.1,0.1-0.1,0.1-0.2c-0.4-0.6-1-1.1-1.7-1.5
	c-1.9,2.5-3.6,5.1-3.7,6.9c-0.5-0.5-1.8-1.4-2.7-1.6c-0.2,4.4,1.3,14,8.2,17.1v-10C20.2,112.6,18.9,115.5,19.6,117.3z M22.3,99
	c0.9-0.6,2-0.6,2.8,0.8c1.2-0.8,3.1-4.4,1.1-12.7c-0.7,0.9-2.1,3-2.3,4.3c-0.5-0.8-1.6-2-2.7,0c1.1-0.2,2.7,2,2,2.7
	c-0.7,0.7-1.7,1.8-2.6,2.9C21.2,97.7,21.7,98.3,22.3,99z"/>
<path class="st2" d="M15.1,87.1c-2,8.4,0.1,12.2,1.3,13c0.8-1.3,1.7-1.4,2.6-1c0.5-0.7,1.1-1.4,1.7-2.1c-0.9-1-1.8-2-2.4-2.7
	c-0.7-0.7,0.9-3,2-2.7c-1.1-2-2.3-0.8-2.7,0C17.4,90.4,15.8,88,15.1,87.1z"/>
<path class="st2" d="M20.8,111.4v10c6.9-3.1,8.4-12.4,8.1-16.8c-0.9,0.2-2.2,1.1-2.7,1.6c-0.1-1.8-1.9-4.6-3.9-7.2
	c-0.6,0.4-1.2,1-1.6,1.6c0.1,0.1,0.2,0.3,0.3,0.4c3.2,4.8,2.8,13,0.9,16.6C22.6,115.7,21.4,112.6,20.8,111.4z"/>
<rect y="125.6" class="st2" width="41.9" height="97.7"/>
<rect x="125.6" y="0" class="st2" width="97.7" height="41.9"/>
<path class="st1" d="M137.7,41.9L149.8,0h-24.2L137.7,41.9z"/>
<path class="st1" d="M162.1,41.9L174.2,0H150L162.1,41.9z"/>
<path class="st1" d="M186.6,41.9L198.6,0h-24.2L186.6,41.9z"/>
<path class="st1" d="M211,41.9L223.1,0h-24.2L211,41.9z"/>
<path class="st4" d="M348.9,20.9H328l-20.9,20.9H328h20.9V20.9z"/>
<path class="st0" d="M328,0h-20.9L328,20.9h20.9V0H328z"/>
<path class="st1" d="M307.1,0v41.9L328,20.9L307.1,0z"/>
<rect x="125.6" y="307.1" class="st2" width="97.7" height="41.9"/>
<path class="st1" d="M137.7,307.1l12.1,41.9h-24.2L137.7,307.1z"/>
<path class="st1" d="M162.1,307.1l12.1,41.9H150L162.1,307.1z"/>
<path class="st1" d="M186.6,307.1l12.1,41.9h-24.2L186.6,307.1z"/>
<path class="st1" d="M211,307.1l12.1,41.9h-24.2L211,307.1z"/>
<path class="st4" d="M41.9,328H20.9L0,348.9h20.9h20.9V328z"/>
<path class="st0" d="M20.9,307.1H0L20.9,328h20.9v-20.9H20.9z"/>
<path class="st1" d="M0,307.1v41.9L20.9,328L0,307.1z"/>
<path class="st4" d="M348.9,328H328l-20.9,20.9H328h20.9V328z"/>
<path class="st0" d="M328,307.1h-20.9L328,328h20.9v-20.9H328z"/>
<path class="st1" d="M307.1,307.1v41.9L328,328L307.1,307.1z"/>
<rect x="307.1" y="125.6" class="st2" width="41.9" height="97.7"/>
<path class="st1" d="M307.1,211l41.9-12.1v24.2L307.1,211z"/>
<path class="st1" d="M307.1,186.6l41.9-12.1v24.2L307.1,186.6z"/>
<path class="st1" d="M307.1,162.1l41.9-12.1v24.2L307.1,162.1z"/>
<path class="st1" d="M307.1,137.7l41.9-12.1v24.2L307.1,137.7z"/>
<path class="st4" d="M41.9,20.9l-20.9,0L0,41.9l20.9,0l20.9,0L41.9,20.9z"/>
<path class="st0" d="M20.9,0L0,0l20.9,20.9l20.9,0l0-20.9L20.9,0z"/>
<path class="st1" d="M0,0l0,41.9l20.9-20.9L0,0z"/>
<path class="st1" d="M41.9,137.7L0,149.8v-24.2L41.9,137.7z"/>
<path class="st1" d="M41.9,162.1L0,174.2V150L41.9,162.1z"/>
<path class="st1" d="M41.9,186.6L0,198.6v-24.2L41.9,186.6z"/>
<path class="st1" d="M41.9,211L0,223.1v-24.2L41.9,211z"/>
</svg>
