<svg id="Laag_1" data-name="Laag 1" xmlns="http://www.w3.org/2000/svg" viewBox="0 0 566.93 566.93"><defs><style>.cls-1{fill:#fff;}.cls-2,.cls-3{fill:#ed2121;}.cls-3{fill-rule:evenodd;}</style></defs><rect class="cls-1" width="566.93" height="566.93"/><rect class="cls-2" width="68.03" height="68.03"/><rect class="cls-1" x="27.21" width="13.61" height="68.03"/><rect class="cls-1" y="27.21" width="68.03" height="13.61"/><rect class="cls-2" x="498.9" y="498.9" width="68.03" height="68.03"/><rect class="cls-1" x="526.11" y="498.9" width="13.61" height="68.03"/><rect class="cls-1" x="498.9" y="526.11" width="68.03" height="13.61"/><rect class="cls-2" x="498.9" width="68.03" height="68.03"/><rect class="cls-1" x="526.11" width="13.61" height="68.03"/><rect class="cls-1" x="498.9" y="27.21" width="68.03" height="13.61"/><rect class="cls-2" y="498.9" width="68.03" height="68.03"/><rect class="cls-1" x="27.21" y="498.9" width="13.61" height="68.03"/><rect class="cls-1" y="526.11" width="68.03" height="13.61"/><rect class="cls-1" x="68.03" width="68.03" height="68.03"/><rect class="cls-2" x="71.43" y="2.72" width="6.8" height="6.8"/><rect class="cls-2" x="80.96" y="2.72" width="14.97" height="6.8"/><rect class="cls-2" x="80.96" y="12.25" width="14.97" height="6.8"/><rect class="cls-2" x="71.43" y="12.25" width="6.8" height="6.8"/><rect class="cls-2" x="98.65" y="2.72" width="6.8" height="6.8"/><rect class="cls-2" x="108.17" y="2.72" width="14.97" height="6.8"/><rect class="cls-2" x="108.17" y="12.25" width="14.97" height="6.8"/><rect class="cls-2" x="98.65" y="12.25" width="6.8" height="6.8"/><rect class="cls-2" x="125.86" y="2.72" width="6.8" height="6.8"/><rect class="cls-2" x="125.86" y="12.25" width="6.8" height="6.8"/><rect class="cls-2" x="70.75" y="48.98" width="6.8" height="6.8"/><rect class="cls-2" x="80.28" y="48.98" width="14.97" height="6.8"/><rect class="cls-2" x="80.28" y="58.51" width="14.97" height="6.8"/><rect class="cls-2" x="70.75" y="58.51" width="6.8" height="6.8"/><rect class="cls-2" x="97.97" y="48.98" width="6.8" height="6.8"/><rect class="cls-2" x="107.49" y="48.98" width="14.97" height="6.8"/><rect class="cls-2" x="107.49" y="58.51" width="14.97" height="6.8"/><rect class="cls-2" x="97.97" y="58.51" width="6.8" height="6.8"/><rect class="cls-2" x="125.18" y="48.98" width="6.8" height="6.8"/><rect class="cls-2" x="125.18" y="58.51" width="6.8" height="6.8"/><rect class="cls-2" x="68.03" y="25.85" width="14.97" height="6.8"/><rect class="cls-2" x="68.03" y="35.38" width="14.97" height="6.8"/><rect class="cls-2" x="85.72" y="25.85" width="6.8" height="6.8"/><rect class="cls-2" x="95.24" y="25.85" width="14.97" height="6.8"/><rect class="cls-2" x="122.46" y="25.85" width="13.61" height="6.8"/><rect class="cls-2" x="95.24" y="35.38" width="14.97" height="6.8"/><rect class="cls-2" x="122.46" y="35.38" width="13.61" height="6.8"/><rect class="cls-2" x="85.72" y="35.38" width="6.8" height="6.8"/><rect class="cls-2" x="112.93" y="25.85" width="6.8" height="6.8"/><rect class="cls-2" x="112.93" y="35.38" width="6.8" height="6.8"/><rect class="cls-1" x="498.9" y="68.03" width="68.03" height="68.03"/><rect class="cls-2" x="501.62" y="125.86" width="6.8" height="6.8"/><rect class="cls-2" x="501.62" y="108.17" width="6.8" height="14.97"/><rect class="cls-2" x="511.14" y="108.17" width="6.8" height="14.97"/><rect class="cls-2" x="511.14" y="125.86" width="6.8" height="6.8"/><rect class="cls-2" x="501.62" y="98.65" width="6.8" height="6.8"/><rect class="cls-2" x="501.62" y="80.96" width="6.8" height="14.97"/><rect class="cls-2" x="511.14" y="80.96" width="6.8" height="14.97"/><rect class="cls-2" x="511.14" y="98.65" width="6.8" height="6.8"/><rect class="cls-2" x="501.62" y="71.43" width="6.8" height="6.8"/><rect class="cls-2" x="511.14" y="71.43" width="6.8" height="6.8"/><rect class="cls-2" x="547.88" y="126.54" width="6.8" height="6.8"/><rect class="cls-2" x="547.88" y="108.85" width="6.8" height="14.97"/><rect class="cls-2" x="557.41" y="108.85" width="6.8" height="14.97"/><rect class="cls-2" x="557.41" y="126.54" width="6.8" height="6.8"/><rect class="cls-2" x="547.88" y="99.33" width="6.8" height="6.8"/><rect class="cls-2" x="547.88" y="81.64" width="6.8" height="14.97"/><rect class="cls-2" x="557.41" y="81.64" width="6.8" height="14.97"/><rect class="cls-2" x="557.41" y="99.33" width="6.8" height="6.8"/><rect class="cls-2" x="547.88" y="72.11" width="6.8" height="6.8"/><rect class="cls-2" x="557.41" y="72.11" width="6.8" height="6.8"/><rect class="cls-2" x="524.75" y="121.1" width="6.8" height="14.97"/><rect class="cls-2" x="534.27" y="121.1" width="6.8" height="14.97"/><rect class="cls-2" x="524.75" y="111.57" width="6.8" height="6.8"/><rect class="cls-2" x="524.75" y="93.88" width="6.8" height="14.97"/><rect class="cls-2" x="524.75" y="68.03" width="6.8" height="13.61"/><rect class="cls-2" x="534.27" y="93.88" width="6.8" height="14.97"/><rect class="cls-2" x="534.27" y="68.03" width="6.8" height="13.61"/><rect class="cls-2" x="534.27" y="111.57" width="6.8" height="6.8"/><rect class="cls-2" x="524.75" y="84.36" width="6.8" height="6.8"/><rect class="cls-2" x="534.27" y="84.36" width="6.8" height="6.8"/><rect class="cls-1" x="430.87" y="498.9" width="68.03" height="68.03"/><rect class="cls-2" x="434.27" y="501.62" width="6.8" height="6.8"/><rect class="cls-2" x="443.79" y="501.62" width="14.97" height="6.8"/><rect class="cls-2" x="443.79" y="511.14" width="14.97" height="6.8"/><rect class="cls-2" x="434.27" y="511.14" width="6.8" height="6.8"/><rect class="cls-2" x="461.48" y="501.62" width="6.8" height="6.8"/><rect class="cls-2" x="471" y="501.62" width="14.97" height="6.8"/><rect class="cls-2" x="471" y="511.14" width="14.97" height="6.8"/><rect class="cls-2" x="461.48" y="511.14" width="6.8" height="6.8"/><rect class="cls-2" x="488.69" y="501.62" width="6.8" height="6.8"/><rect class="cls-2" x="488.69" y="511.14" width="6.8" height="6.8"/><rect class="cls-2" x="433.59" y="547.88" width="6.8" height="6.8"/><rect class="cls-2" x="443.11" y="547.88" width="14.97" height="6.8"/><rect class="cls-2" x="443.11" y="557.41" width="14.97" height="6.8"/><rect class="cls-2" x="433.59" y="557.41" width="6.8" height="6.8"/><rect class="cls-2" x="460.8" y="547.88" width="6.8" height="6.8"/><rect class="cls-2" x="470.32" y="547.88" width="14.97" height="6.8"/><rect class="cls-2" x="470.32" y="557.41" width="14.97" height="6.8"/><rect class="cls-2" x="460.8" y="557.41" width="6.8" height="6.8"/><rect class="cls-2" x="488.01" y="547.88" width="6.8" height="6.8"/><rect class="cls-2" x="488.01" y="557.41" width="6.8" height="6.8"/><rect class="cls-2" x="430.87" y="524.75" width="14.97" height="6.8"/><rect class="cls-2" x="430.87" y="534.27" width="14.97" height="6.8"/><rect class="cls-2" x="448.55" y="524.75" width="6.8" height="6.8"/><rect class="cls-2" x="458.08" y="524.75" width="14.97" height="6.8"/><rect class="cls-2" x="485.29" y="524.75" width="13.61" height="6.8"/><rect class="cls-2" x="458.08" y="534.27" width="14.97" height="6.8"/><rect class="cls-2" x="485.29" y="534.27" width="13.61" height="6.8"/><rect class="cls-2" x="448.55" y="534.27" width="6.8" height="6.8"/><rect class="cls-2" x="475.77" y="524.75" width="6.8" height="6.8"/><rect class="cls-2" x="475.77" y="534.27" width="6.8" height="6.8"/><rect class="cls-1" y="430.87" width="68.03" height="68.03"/><rect class="cls-2" x="2.72" y="488.69" width="6.8" height="6.8"/><rect class="cls-2" x="2.72" y="471" width="6.8" height="14.97"/><rect class="cls-2" x="12.25" y="471" width="6.8" height="14.97"/><rect class="cls-2" x="12.25" y="488.69" width="6.8" height="6.8"/><rect class="cls-2" x="2.72" y="461.48" width="6.8" height="6.8"/><rect class="cls-2" x="2.72" y="443.79" width="6.8" height="14.97"/><rect class="cls-2" x="12.25" y="443.79" width="6.8" height="14.97"/><rect class="cls-2" x="12.25" y="461.48" width="6.8" height="6.8"/><rect class="cls-2" x="2.72" y="434.27" width="6.8" height="6.8"/><rect class="cls-2" x="12.25" y="434.27" width="6.8" height="6.8"/><rect class="cls-2" x="48.98" y="489.37" width="6.8" height="6.8"/><rect class="cls-2" x="48.98" y="471.69" width="6.8" height="14.97"/><rect class="cls-2" x="58.51" y="471.69" width="6.8" height="14.97"/><rect class="cls-2" x="58.51" y="489.37" width="6.8" height="6.8"/><rect class="cls-2" x="48.98" y="462.16" width="6.8" height="6.8"/><rect class="cls-2" x="48.98" y="444.47" width="6.8" height="14.97"/><rect class="cls-2" x="58.51" y="444.47" width="6.8" height="14.97"/><rect class="cls-2" x="58.51" y="462.16" width="6.8" height="6.8"/><rect class="cls-2" x="48.98" y="434.95" width="6.8" height="6.8"/><rect class="cls-2" x="58.51" y="434.95" width="6.8" height="6.8"/><rect class="cls-2" x="25.85" y="483.93" width="6.8" height="14.97"/><rect class="cls-2" x="35.38" y="483.93" width="6.8" height="14.97"/><rect class="cls-2" x="25.85" y="474.41" width="6.8" height="6.8"/><rect class="cls-2" x="25.85" y="456.72" width="6.8" height="14.97"/><rect class="cls-2" x="25.85" y="430.87" width="6.8" height="13.61"/><rect class="cls-2" x="35.38" y="456.72" width="6.8" height="14.97"/><rect class="cls-2" x="35.38" y="430.87" width="6.8" height="13.61"/><rect class="cls-2" x="35.38" y="474.41" width="6.8" height="6.8"/><rect class="cls-2" x="25.85" y="447.19" width="6.8" height="6.8"/><rect class="cls-2" x="35.38" y="447.19" width="6.8" height="6.8"/><rect class="cls-1" y="68.03" width="68.03" height="68.03"/><path class="cls-2" d="M34,74.85l23.13,13.6v27.21L34,129.27,10.9,115.66V88.45Z" transform="translate(-0.01 -0.01)"/><rect class="cls-1" x="68.03" y="498.9" width="68.03" height="68.03"/><path class="cls-2" d="M102.06,505.71l23.13,13.61v27.21l-23.13,13.61L78.93,546.53V519.32Z" transform="translate(-0.01 -0.01)"/><rect class="cls-1" x="498.9" y="430.87" width="68.03" height="68.03"/><path class="cls-2" d="M532.92,437.68l23.13,13.61V478.5l-23.13,13.61L509.79,478.5V451.29Z" transform="translate(-0.01 -0.01)"/><rect class="cls-1" x="430.87" width="68.03" height="68.03"/><path class="cls-2" d="M464.89,6.81,488,20.42V47.63L464.89,61.24,441.76,47.63V20.42Z" transform="translate(-0.01 -0.01)"/><rect class="cls-2" x="136.06" width="68.03" height="68.03"/><path class="cls-3" d="M175.63,60l-6.22,3.66V34.4L194.27,49l-6.21,3.65-12.43-7.31ZM163.19,45.37l6.22-11h12.43l12.43,7.31V34.4H181.84l12.43-7.31V19.77L169.41,34.4l6.22-11,12.43-7.31-6.22-3.66-6.21,11V8.8l-6.22-3.65V34.4L144.54,19.77v7.32L157,34.4H144.54v7.31L157,34.4h12.43L144.54,49l6.22,3.65Zm-6.21,11L163.19,60V45.37ZM163.19,8.8,157,12.46l-6.22,3.66,12.43,7.31Z" transform="translate(-0.01 -0.01)"/><path class="cls-1" d="M144.54,49,169.41,34.4H157l-12.44,7.31Z" transform="translate(-0.01 -0.01)"/><path class="cls-1" d="M150.76,52.68,157,56.34l6.21-11Z" transform="translate(-0.01 -0.01)"/><path class="cls-1" d="M169.41,63.66V34.4l-6.22,11V60Z" transform="translate(-0.01 -0.01)"/><path class="cls-1" d="M181.84,56.34l-6.21-11V60Z" transform="translate(-0.01 -0.01)"/><path class="cls-1" d="M175.63,45.37l6.21,11,6.22-3.66Z" transform="translate(-0.01 -0.01)"/><path class="cls-1" d="M169.41,34.4,194.27,49V41.71L181.84,34.4Z" transform="translate(-0.01 -0.01)"/><path class="cls-1" d="M194.27,34.4V27.09L181.84,34.4Z" transform="translate(-0.01 -0.01)"/><path class="cls-1" d="M169.41,34.4l24.86-14.63-6.21-3.65-12.43,7.31Z" transform="translate(-0.01 -0.01)"/><path class="cls-1" d="M175.63,23.43l6.21-11L175.63,8.8Z" transform="translate(-0.01 -0.01)"/><path class="cls-1" d="M169.41,34.4V5.15L163.19,8.8V23.43Z" transform="translate(-0.01 -0.01)"/><path class="cls-1" d="M144.54,19.77,169.41,34.4l-6.22-11-12.43-7.31Z" transform="translate(-0.01 -0.01)"/><path class="cls-1" d="M144.54,34.4H157l-12.44-7.31Z" transform="translate(-0.01 -0.01)"/><rect class="cls-2" x="498.9" y="136.06" width="68.03" height="68.03"/><path class="cls-3" d="M538.46,196.06l-6.22,3.66V170.46l24.87,14.63-6.22,3.66-12.43-7.32ZM526,181.43l6.21-11h12.44l12.43,7.32v-7.32H544.68l12.43-7.31v-7.31l-24.87,14.62,6.22-11,12.43-7.31-6.21-3.66-6.22,11V144.87l-6.22-3.66v29.25l-24.86-14.62v7.31l12.43,7.31H507.38v7.32l12.43-7.32h12.43l-24.86,14.63,6.21,3.66Zm-6.22,11,6.22,3.66V181.43ZM526,144.87l-6.22,3.65-6.22,3.66L526,159.49Z" transform="translate(-0.01 -0.01)"/><path class="cls-1" d="M507.38,185.09l24.86-14.63H519.81l-12.43,7.32Z" transform="translate(-0.01 -0.01)"/><path class="cls-1" d="M513.59,188.75l6.22,3.65,6.22-11Z" transform="translate(-0.01 -0.01)"/><path class="cls-1" d="M532.24,199.72V170.46l-6.21,11v14.63Z" transform="translate(-0.01 -0.01)"/><path class="cls-1" d="M544.68,192.4l-6.22-11v14.63Z" transform="translate(-0.01 -0.01)"/><path class="cls-1" d="M538.46,181.43l6.22,11,6.21-3.65Z" transform="translate(-0.01 -0.01)"/><path class="cls-1" d="M532.24,170.46l24.87,14.63v-7.31l-12.43-7.32Z" transform="translate(-0.01 -0.01)"/><path class="cls-1" d="M557.11,170.46v-7.31l-12.43,7.31Z" transform="translate(-0.01 -0.01)"/><path class="cls-1" d="M532.24,170.46l24.87-14.62-6.22-3.66-12.43,7.31Z" transform="translate(-0.01 -0.01)"/><path class="cls-1" d="M538.46,159.49l6.22-11-6.22-3.65Z" transform="translate(-0.01 -0.01)"/><path class="cls-1" d="M532.24,170.46V141.21L526,144.87v14.62Z" transform="translate(-0.01 -0.01)"/><path class="cls-1" d="M507.38,155.84l24.86,14.62-6.21-11-12.44-7.31Z" transform="translate(-0.01 -0.01)"/><path class="cls-1" d="M507.38,170.46h12.43l-12.43-7.31Z" transform="translate(-0.01 -0.01)"/><rect class="cls-2" x="362.83" y="498.9" width="68.03" height="68.03"/><path class="cls-3" d="M402.4,558.9l-6.22,3.65V533.3l24.87,14.63-6.22,3.65-12.43-7.31ZM390,544.27l6.22-11h12.43l12.44,7.31V533.3H408.61L421.05,526v-7.32L396.18,533.3l6.22-11L414.83,515l-6.22-3.66-6.21,11V507.7l-6.22-3.65V533.3l-24.87-14.63V526l12.44,7.31H371.31v7.31l12.44-7.31h12.43l-24.87,14.63,6.22,3.65Zm-6.21,11L390,558.9V544.27ZM390,507.7l-6.21,3.66L377.53,515,390,522.33Z" transform="translate(-0.01 -0.01)"/><path class="cls-1" d="M371.31,547.93l24.87-14.63H383.75l-12.44,7.31Z" transform="translate(-0.01 -0.01)"/><path class="cls-1" d="M377.53,551.58l6.22,3.66,6.21-11Z" transform="translate(-0.01 -0.01)"/><path class="cls-1" d="M396.18,562.55V533.3l-6.22,11V558.9Z" transform="translate(-0.01 -0.01)"/><path class="cls-1" d="M408.61,555.24l-6.21-11V558.9Z" transform="translate(-0.01 -0.01)"/><path class="cls-1" d="M402.4,544.27l6.21,11,6.22-3.66Z" transform="translate(-0.01 -0.01)"/><path class="cls-1" d="M396.18,533.3l24.87,14.63v-7.32l-12.44-7.31Z" transform="translate(-0.01 -0.01)"/><path class="cls-1" d="M421.05,533.3V526l-12.44,7.31Z" transform="translate(-0.01 -0.01)"/><path class="cls-1" d="M396.18,533.3l24.87-14.63L414.83,515l-12.43,7.31Z" transform="translate(-0.01 -0.01)"/><path class="cls-1" d="M402.4,522.33l6.21-11-6.21-3.66Z" transform="translate(-0.01 -0.01)"/><path class="cls-1" d="M396.18,533.3V504.05L390,507.7v14.63Z" transform="translate(-0.01 -0.01)"/><path class="cls-1" d="M371.31,518.67l24.87,14.63-6.22-11L377.53,515Z" transform="translate(-0.01 -0.01)"/><path class="cls-1" d="M371.31,533.3h12.44L371.31,526Z" transform="translate(-0.01 -0.01)"/><rect class="cls-2" y="362.83" width="68.03" height="68.03"/><path class="cls-3" d="M39.56,422.83l-6.21,3.66V397.24l24.86,14.62L52,415.52l-12.43-7.31ZM27.13,408.21l6.22-11H45.78l12.43,7.31v-7.31H45.78l12.43-7.32v-7.31L33.35,397.24l6.21-11L52,379l-6.21-3.65-6.22,11V371.64L33.35,368v29.26L8.48,382.61v7.31l12.43,7.32H8.48v7.31l12.43-7.31H33.35L8.48,411.86l6.22,3.66Zm-6.22,11,6.22,3.65V408.21Zm6.22-47.54-6.22,3.66L14.7,379l12.43,7.32Z" transform="translate(-0.01 -0.01)"/><path class="cls-1" d="M8.48,411.86l24.87-14.62H20.91L8.48,404.55Z" transform="translate(-0.01 -0.01)"/><path class="cls-1" d="M14.7,415.52l6.21,3.66,6.22-11Z" transform="translate(-0.01 -0.01)"/><path class="cls-1" d="M33.35,426.49V397.24l-6.22,11v14.62Z" transform="translate(-0.01 -0.01)"/><path class="cls-1" d="M45.78,419.18l-6.22-11v14.62Z" transform="translate(-0.01 -0.01)"/><path class="cls-1" d="M39.56,408.21l6.22,11L52,415.52Z" transform="translate(-0.01 -0.01)"/><path class="cls-1" d="M33.35,397.24l24.86,14.62v-7.31l-12.43-7.31Z" transform="translate(-0.01 -0.01)"/><path class="cls-1" d="M58.21,397.24v-7.32l-12.43,7.32Z" transform="translate(-0.01 -0.01)"/><path class="cls-1" d="M33.35,397.24l24.86-14.63L52,379l-12.43,7.32Z" transform="translate(-0.01 -0.01)"/><path class="cls-1" d="M39.56,386.27l6.22-11-6.22-3.66Z" transform="translate(-0.01 -0.01)"/><path class="cls-1" d="M33.35,397.24V368l-6.22,3.66v14.63Z" transform="translate(-0.01 -0.01)"/><path class="cls-1" d="M8.48,382.61l24.87,14.63-6.22-11L14.7,379Z" transform="translate(-0.01 -0.01)"/><path class="cls-1" d="M8.48,397.24H20.91L8.48,389.92Z" transform="translate(-0.01 -0.01)"/><rect class="cls-2" y="136.06" width="68.03" height="68.03"/><rect class="cls-1" x="17.69" y="136.06" width="13.61" height="68.03"/><rect class="cls-1" y="163.28" width="68.03" height="13.61"/><rect class="cls-2" x="362.83" width="68.03" height="68.03"/><rect class="cls-1" x="380.52" width="13.61" height="68.03"/><rect class="cls-1" x="362.83" y="27.21" width="68.03" height="13.61"/><rect class="cls-2" x="498.9" y="362.83" width="68.03" height="68.03"/><rect class="cls-1" x="516.59" y="362.83" width="13.61" height="68.03"/><rect class="cls-1" x="498.9" y="390.05" width="68.03" height="13.61"/><rect class="cls-2" x="136.06" y="498.9" width="68.03" height="68.03"/><rect class="cls-1" x="153.75" y="498.9" width="13.61" height="68.03"/><rect class="cls-1" x="136.06" y="526.11" width="68.03" height="13.61"/><rect class="cls-2" x="204.09" width="158.74" height="68.03"/><rect class="cls-2" x="204.09" y="498.9" width="158.74" height="68.03"/><rect class="cls-2" x="498.9" y="204.09" width="68.03" height="158.74"/><rect class="cls-2" y="204.09" width="68.03" height="158.74"/><rect class="cls-2" x="249.45" width="68.03" height="68.03"/><rect class="cls-1" x="276.66" width="13.61" height="68.03"/><rect class="cls-1" x="249.45" y="27.21" width="68.03" height="13.61"/><rect class="cls-2" x="249.45" width="27.21" height="27.21"/><rect class="cls-1" x="260.33" width="5.44" height="27.21"/><rect class="cls-1" x="249.45" y="10.88" width="27.21" height="5.44"/><rect class="cls-2" x="290.27" width="27.21" height="27.21"/><rect class="cls-1" x="301.15" width="5.44" height="27.21"/><rect class="cls-1" x="290.27" y="10.88" width="27.21" height="5.44"/><rect class="cls-2" x="290.27" y="40.82" width="27.21" height="27.21"/><rect class="cls-1" x="301.15" y="40.82" width="5.44" height="27.21"/><rect class="cls-1" x="290.27" y="51.7" width="27.21" height="5.44"/><rect class="cls-2" x="249.45" y="40.82" width="27.21" height="27.21"/><rect class="cls-1" x="260.33" y="40.82" width="5.44" height="27.21"/><rect class="cls-1" x="249.45" y="51.7" width="27.21" height="5.44"/><rect class="cls-2" x="498.9" y="249.45" width="68.03" height="68.03"/><rect class="cls-1" x="526.11" y="249.45" width="13.61" height="68.03"/><rect class="cls-1" x="498.9" y="276.66" width="68.03" height="13.61"/><rect class="cls-2" x="498.9" y="249.45" width="27.21" height="27.21"/><rect class="cls-1" x="509.78" y="249.45" width="5.44" height="27.21"/><rect class="cls-1" x="498.9" y="260.33" width="27.21" height="5.44"/><rect class="cls-2" x="539.72" y="249.45" width="27.21" height="27.21"/><rect class="cls-1" x="550.6" y="249.45" width="5.44" height="27.21"/><rect class="cls-1" x="539.72" y="260.33" width="27.21" height="5.44"/><rect class="cls-2" x="539.72" y="290.27" width="27.21" height="27.21"/><rect class="cls-1" x="550.6" y="290.27" width="5.44" height="27.21"/><rect class="cls-1" x="539.72" y="301.15" width="27.21" height="5.44"/><rect class="cls-2" x="498.9" y="290.27" width="27.21" height="27.21"/><rect class="cls-1" x="509.78" y="290.27" width="5.44" height="27.21"/><rect class="cls-1" x="498.9" y="301.15" width="27.21" height="5.44"/><rect class="cls-2" y="243.78" width="68.03" height="68.03"/><rect class="cls-1" x="27.21" y="243.78" width="13.61" height="68.03"/><rect class="cls-1" y="270.99" width="68.03" height="13.61"/><rect class="cls-2" y="243.78" width="27.21" height="27.21"/><rect class="cls-1" x="10.89" y="243.78" width="5.44" height="27.21"/><rect class="cls-1" y="254.66" width="27.21" height="5.44"/><rect class="cls-2" x="40.82" y="243.78" width="27.21" height="27.21"/><rect class="cls-1" x="51.7" y="243.78" width="5.44" height="27.21"/><rect class="cls-1" x="40.82" y="254.66" width="27.21" height="5.44"/><rect class="cls-2" x="40.82" y="284.6" width="27.21" height="27.21"/><rect class="cls-1" x="51.7" y="284.6" width="5.44" height="27.21"/><rect class="cls-1" x="40.82" y="295.48" width="27.21" height="5.44"/><rect class="cls-2" y="284.6" width="27.21" height="27.21"/><rect class="cls-1" x="10.89" y="284.6" width="5.44" height="27.21"/><rect class="cls-1" y="295.48" width="27.21" height="5.44"/><rect class="cls-2" x="249.45" y="498.9" width="68.03" height="68.03"/><rect class="cls-1" x="276.66" y="498.9" width="13.61" height="68.03"/><rect class="cls-1" x="249.45" y="526.11" width="68.03" height="13.61"/><rect class="cls-2" x="249.45" y="498.9" width="27.21" height="27.21"/><rect class="cls-1" x="260.33" y="498.9" width="5.44" height="27.21"/><rect class="cls-1" x="249.45" y="509.78" width="27.21" height="5.44"/><rect class="cls-2" x="290.27" y="498.9" width="27.21" height="27.21"/><rect class="cls-1" x="301.15" y="498.9" width="5.44" height="27.21"/><rect class="cls-1" x="290.27" y="509.78" width="27.21" height="5.44"/><rect class="cls-2" x="290.27" y="539.72" width="27.21" height="27.21"/><rect class="cls-1" x="301.15" y="539.72" width="5.44" height="27.21"/><rect class="cls-1" x="290.27" y="550.6" width="27.21" height="5.44"/><rect class="cls-2" x="249.45" y="539.72" width="27.21" height="27.21"/><rect class="cls-1" x="260.33" y="539.72" width="5.44" height="27.21"/><rect class="cls-1" x="249.45" y="550.6" width="27.21" height="5.44"/><rect class="cls-1" x="221.1" y="527.24" width="11.34" height="11.34"/><rect class="cls-1" x="334.49" y="527.24" width="11.34" height="11.34"/><rect class="cls-1" x="221.1" y="28.35" width="11.34" height="11.34"/><rect class="cls-1" x="527.24" y="221.1" width="11.34" height="11.34"/><rect class="cls-1" x="334.49" y="28.35" width="11.34" height="11.34"/><rect class="cls-1" x="527.24" y="334.49" width="11.34" height="11.34"/><rect class="cls-1" x="28.35" y="215.43" width="11.34" height="11.34"/><rect class="cls-1" x="28.35" y="328.82" width="11.34" height="11.34"/></svg>