<svg width="206" height="206" viewBox="0 0 206 206" fill="none" xmlns="http://www.w3.org/2000/svg">
<rect width="206" height="206" fill="white"/>
<path d="M4 4H48L4 48V4Z" fill="#86ABFF"/>
<path d="M48 4L4 48V49L49 4H48Z" fill="#FF9254"/>
<path d="M28.5142 13.7429C29.1961 13.128 30.9293 12.2533 32.5142 13.7828C31.7963 14.3973 30.0126 15.2715 28.5142 13.7429Z" fill="#FF9254"/>
<path d="M28.5543 9.7429C27.9259 10.4124 27.0169 12.1278 28.5144 13.7429C29.1431 13.0374 30.0527 11.2715 28.5543 9.7429Z" fill="#FF9254"/>
<path d="M28.5144 13.7429C27.8325 14.3578 26.0993 15.2325 24.5144 13.703C25.2323 13.0885 27.016 12.2143 28.5144 13.7429Z" fill="#FF9254"/>
<path d="M28.4743 17.7429C29.1026 17.0734 30.0117 15.358 28.5141 13.7429C27.8854 14.4484 26.9758 16.2143 28.4743 17.7429Z" fill="#FF9254"/>
<path d="M14.0573 13.2715V7.14291L7.92874 13.2715H14.0573Z" fill="white"/>
<path d="M14.0573 13.2715L14.0573 19.4001L20.1859 13.2715L14.0573 13.2715Z" fill="white"/>
<path d="M14.0573 13.2715H7.92874L14.0573 19.4001V13.2715Z" fill="#86ABFF"/>
<path d="M14.0573 13.2715H20.1859L14.0573 7.14291V13.2715Z" fill="#86ABFF"/>
<path d="M14.0571 19.7143C14.1421 17.6757 15.4502 13.5645 20.3428 13.4286C20.2013 15.5238 18.8139 19.7143 14.0571 19.7143Z" fill="#001B3A"/>
<path d="M7.77142 13.4286C7.85637 15.4672 9.16447 19.5784 14.0571 19.7143C13.9156 17.6191 12.5282 13.4286 7.77142 13.4286Z" fill="#001B3A"/>
<path d="M14.0571 7.14287C13.9722 9.18148 12.6641 13.2927 7.77141 13.4286C7.91298 11.3334 9.30037 7.14287 14.0571 7.14287Z" fill="#001B3A"/>
<path d="M20.3428 13.4286C20.2579 11.39 18.9498 7.27879 14.0571 7.14288C14.1987 9.23812 15.5861 13.4286 20.3428 13.4286Z" fill="#001B3A"/>
<path d="M28.6174 13.5318C28.6783 12.0713 29.6154 9.12593 33.1206 9.02856C33.0192 10.5296 32.0253 13.5318 28.6174 13.5318Z" fill="#001B3A"/>
<path d="M24.1143 9.02855C24.1751 10.489 25.1123 13.4344 28.6174 13.5317C28.516 12.0307 27.5221 9.02855 24.1143 9.02855Z" fill="#001B3A"/>
<path d="M28.6174 13.5318C28.5566 14.9923 27.6194 17.9376 24.1142 18.035C24.2157 16.5339 25.2096 13.5318 28.6174 13.5318Z" fill="#001B3A"/>
<path d="M33.1205 18.0349C33.0597 16.5744 32.1225 13.6291 28.6174 13.5317C28.7188 15.0328 29.7127 18.0349 33.1205 18.0349Z" fill="#001B3A"/>
<path d="M14.2857 28.1143C14.9676 27.4994 16.7008 26.6247 18.2857 28.1542C17.5678 28.7687 15.7841 29.6429 14.2857 28.1143Z" fill="#FF9254"/>
<path d="M14.3258 24.1143C13.6974 24.7838 12.7883 26.4992 14.2859 28.1143C14.9146 27.4088 15.8242 25.6429 14.3258 24.1143Z" fill="#FF9254"/>
<path d="M14.2859 28.1143C13.604 28.7292 11.8708 29.6039 10.2859 28.0744C11.0038 27.4599 12.7874 26.5857 14.2859 28.1143Z" fill="#FF9254"/>
<path d="M14.2458 32.1143C14.8742 31.4448 15.7832 29.7294 14.2857 28.1143C13.657 28.8198 12.7474 30.5857 14.2458 32.1143Z" fill="#FF9254"/>
<path d="M14.1604 27.9889C14.2213 26.5284 15.1584 23.5831 18.6636 23.4857C18.5622 24.9868 17.5682 27.9889 14.1604 27.9889Z" fill="#001B3A"/>
<path d="M9.65729 23.4857C9.71814 24.9462 10.6553 27.8915 14.1605 27.9889C14.0591 26.4878 13.0651 23.4857 9.65729 23.4857Z" fill="#001B3A"/>
<path d="M14.1604 27.9889C14.0995 29.4494 13.1624 32.3948 9.65721 32.4921C9.75863 30.9911 10.7526 27.9889 14.1604 27.9889Z" fill="#001B3A"/>
<path d="M18.6636 32.4921C18.6027 31.0316 17.6656 28.0863 14.1604 27.9889C14.2618 29.49 15.2558 32.4921 18.6636 32.4921Z" fill="#001B3A"/>
<path d="M4 202H48L4 158V202Z" fill="#86ABFF"/>
<path d="M48 202L4 158V157L49 202H48Z" fill="#FF9254"/>
<path d="M28.5142 192.257C29.1961 192.872 30.9293 193.747 32.5142 192.217C31.7963 191.603 30.0126 190.729 28.5142 192.257Z" fill="#FF9254"/>
<path d="M28.5543 196.257C27.9259 195.588 27.0169 193.872 28.5144 192.257C29.1431 192.963 30.0527 194.728 28.5543 196.257Z" fill="#FF9254"/>
<path d="M28.5144 192.257C27.8325 191.642 26.0993 190.768 24.5144 192.297C25.2323 192.912 27.016 193.786 28.5144 192.257Z" fill="#FF9254"/>
<path d="M28.4743 188.257C29.1026 188.927 30.0117 190.642 28.5141 192.257C27.8854 191.552 26.9758 189.786 28.4743 188.257Z" fill="#FF9254"/>
<path d="M14.0573 192.729V198.857L7.92874 192.729H14.0573Z" fill="white"/>
<path d="M14.0573 192.729L14.0573 186.6L20.1859 192.729H14.0573Z" fill="white"/>
<path d="M14.0573 192.729H7.92874L14.0573 186.6V192.729Z" fill="#86ABFF"/>
<path d="M14.0573 192.729H20.1859L14.0573 198.857V192.729Z" fill="#86ABFF"/>
<path d="M14.0571 186.286C14.1421 188.324 15.4502 192.436 20.3428 192.571C20.2013 190.476 18.8139 186.286 14.0571 186.286Z" fill="#001B3A"/>
<path d="M7.77142 192.571C7.85637 190.533 9.16447 186.422 14.0571 186.286C13.9156 188.381 12.5282 192.571 7.77142 192.571Z" fill="#001B3A"/>
<path d="M14.0571 198.857C13.9722 196.819 12.6641 192.707 7.77141 192.571C7.91298 194.667 9.30037 198.857 14.0571 198.857Z" fill="#001B3A"/>
<path d="M20.3428 192.571C20.2579 194.61 18.9498 198.721 14.0571 198.857C14.1987 196.762 15.5861 192.571 20.3428 192.571Z" fill="#001B3A"/>
<path d="M28.6174 192.468C28.6783 193.929 29.6154 196.874 33.1206 196.971C33.0192 195.47 32.0253 192.468 28.6174 192.468Z" fill="#001B3A"/>
<path d="M24.1143 196.971C24.1751 195.511 25.1123 192.566 28.6174 192.468C28.516 193.969 27.5221 196.971 24.1143 196.971Z" fill="#001B3A"/>
<path d="M28.6174 192.468C28.5566 191.008 27.6194 188.062 24.1142 187.965C24.2157 189.466 25.2096 192.468 28.6174 192.468Z" fill="#001B3A"/>
<path d="M33.1205 187.965C33.0597 189.426 32.1225 192.371 28.6174 192.468C28.7188 190.967 29.7127 187.965 33.1205 187.965Z" fill="#001B3A"/>
<path d="M14.2857 177.886C14.9676 178.501 16.7008 179.375 18.2857 177.846C17.5678 177.231 15.7841 176.357 14.2857 177.886Z" fill="#FF9254"/>
<path d="M14.3258 181.886C13.6974 181.216 12.7883 179.501 14.2859 177.886C14.9146 178.591 15.8242 180.357 14.3258 181.886Z" fill="#FF9254"/>
<path d="M14.2859 177.886C13.604 177.271 11.8708 176.396 10.2859 177.926C11.0038 178.54 12.7874 179.414 14.2859 177.886Z" fill="#FF9254"/>
<path d="M14.2458 173.886C14.8742 174.555 15.7832 176.271 14.2857 177.886C13.657 177.18 12.7474 175.414 14.2458 173.886Z" fill="#FF9254"/>
<path d="M14.1604 178.011C14.2213 179.472 15.1584 182.417 18.6636 182.514C18.5622 181.013 17.5682 178.011 14.1604 178.011Z" fill="#001B3A"/>
<path d="M9.65729 182.514C9.71814 181.054 10.6553 178.108 14.1605 178.011C14.0591 179.512 13.0651 182.514 9.65729 182.514Z" fill="#001B3A"/>
<path d="M14.1604 178.011C14.0995 176.551 13.1624 173.605 9.65721 173.508C9.75863 175.009 10.7526 178.011 14.1604 178.011Z" fill="#001B3A"/>
<path d="M18.6636 173.508C18.6027 174.968 17.6656 177.914 14.1604 178.011C14.2618 176.51 15.2558 173.508 18.6636 173.508Z" fill="#001B3A"/>
<path d="M202 4H158L202 48V4Z" fill="#86ABFF"/>
<path d="M158 4L202 48V49L157 4H158Z" fill="#FF9254"/>
<path d="M177.486 13.7429C176.804 13.128 175.071 12.2533 173.486 13.7828C174.204 14.3973 175.987 15.2715 177.486 13.7429Z" fill="#FF9254"/>
<path d="M177.446 9.7429C178.074 10.4124 178.983 12.1278 177.486 13.7429C176.857 13.0374 175.947 11.2715 177.446 9.7429Z" fill="#FF9254"/>
<path d="M177.486 13.7429C178.167 14.3578 179.901 15.2325 181.486 13.703C180.768 13.0885 178.984 12.2143 177.486 13.7429Z" fill="#FF9254"/>
<path d="M177.526 17.7429C176.897 17.0734 175.988 15.358 177.486 13.7429C178.115 14.4484 179.024 16.2143 177.526 17.7429Z" fill="#FF9254"/>
<path d="M191.943 13.2715V7.14291L198.071 13.2715H191.943Z" fill="white"/>
<path d="M191.943 13.2715V19.4001L185.814 13.2715L191.943 13.2715Z" fill="white"/>
<path d="M191.943 13.2715H198.071L191.943 19.4001V13.2715Z" fill="#86ABFF"/>
<path d="M191.943 13.2715H185.814L191.943 7.14291V13.2715Z" fill="#86ABFF"/>
<path d="M191.943 19.7143C191.858 17.6757 190.55 13.5645 185.657 13.4286C185.799 15.5238 187.186 19.7143 191.943 19.7143Z" fill="#001B3A"/>
<path d="M198.229 13.4286C198.144 15.4672 196.836 19.5784 191.943 19.7143C192.084 17.6191 193.472 13.4286 198.229 13.4286Z" fill="#001B3A"/>
<path d="M191.943 7.14287C192.028 9.18148 193.336 13.2927 198.229 13.4286C198.087 11.3334 196.7 7.14287 191.943 7.14287Z" fill="#001B3A"/>
<path d="M185.657 13.4286C185.742 11.39 187.05 7.27879 191.943 7.14288C191.801 9.23812 190.414 13.4286 185.657 13.4286Z" fill="#001B3A"/>
<path d="M177.383 13.5318C177.322 12.0713 176.385 9.12593 172.879 9.02856C172.981 10.5296 173.975 13.5318 177.383 13.5318Z" fill="#001B3A"/>
<path d="M181.886 9.02855C181.825 10.489 180.888 13.4344 177.383 13.5317C177.484 12.0307 178.478 9.02855 181.886 9.02855Z" fill="#001B3A"/>
<path d="M177.383 13.5318C177.443 14.9923 178.381 17.9376 181.886 18.035C181.784 16.5339 180.79 13.5318 177.383 13.5318Z" fill="#001B3A"/>
<path d="M172.879 18.0349C172.94 16.5744 173.877 13.6291 177.383 13.5317C177.281 15.0328 176.287 18.0349 172.879 18.0349Z" fill="#001B3A"/>
<path d="M191.714 28.1143C191.032 27.4994 189.299 26.6247 187.714 28.1542C188.432 28.7687 190.216 29.6429 191.714 28.1143Z" fill="#FF9254"/>
<path d="M191.674 24.1143C192.303 24.7838 193.212 26.4992 191.714 28.1143C191.085 27.4088 190.176 25.6429 191.674 24.1143Z" fill="#FF9254"/>
<path d="M191.714 28.1143C192.396 28.7292 194.129 29.6039 195.714 28.0744C194.996 27.4599 193.213 26.5857 191.714 28.1143Z" fill="#FF9254"/>
<path d="M191.754 32.1143C191.126 31.4448 190.217 29.7294 191.714 28.1143C192.343 28.8198 193.253 30.5857 191.754 32.1143Z" fill="#FF9254"/>
<path d="M191.84 27.9889C191.779 26.5284 190.842 23.5831 187.336 23.4857C187.438 24.9868 188.432 27.9889 191.84 27.9889Z" fill="#001B3A"/>
<path d="M196.343 23.4857C196.282 24.9462 195.345 27.8915 191.84 27.9889C191.941 26.4878 192.935 23.4857 196.343 23.4857Z" fill="#001B3A"/>
<path d="M191.84 27.9889C191.9 29.4494 192.838 32.3948 196.343 32.4921C196.241 30.9911 195.247 27.9889 191.84 27.9889Z" fill="#001B3A"/>
<path d="M187.336 32.4921C187.397 31.0316 188.334 28.0863 191.84 27.9889C191.738 29.49 190.744 32.4921 187.336 32.4921Z" fill="#001B3A"/>
<path d="M202 202H158L202 158V202Z" fill="#86ABFF"/>
<path d="M158 202L202 158V157L157 202H158Z" fill="#FF9254"/>
<path d="M177.486 192.257C176.804 192.872 175.071 193.747 173.486 192.217C174.204 191.603 175.987 190.729 177.486 192.257Z" fill="#FF9254"/>
<path d="M177.446 196.257C178.074 195.588 178.983 193.872 177.486 192.257C176.857 192.963 175.947 194.728 177.446 196.257Z" fill="#FF9254"/>
<path d="M177.486 192.257C178.167 191.642 179.901 190.768 181.486 192.297C180.768 192.912 178.984 193.786 177.486 192.257Z" fill="#FF9254"/>
<path d="M177.526 188.257C176.897 188.927 175.988 190.642 177.486 192.257C178.115 191.552 179.024 189.786 177.526 188.257Z" fill="#FF9254"/>
<path d="M191.943 192.729V198.857L198.071 192.729H191.943Z" fill="white"/>
<path d="M191.943 192.729V186.6L185.814 192.729H191.943Z" fill="white"/>
<path d="M191.943 192.729H198.071L191.943 186.6V192.729Z" fill="#86ABFF"/>
<path d="M191.943 192.729H185.814L191.943 198.857V192.729Z" fill="#86ABFF"/>
<path d="M191.943 186.286C191.858 188.324 190.55 192.436 185.657 192.571C185.799 190.476 187.186 186.286 191.943 186.286Z" fill="#001B3A"/>
<path d="M198.229 192.571C198.144 190.533 196.836 186.422 191.943 186.286C192.084 188.381 193.472 192.571 198.229 192.571Z" fill="#001B3A"/>
<path d="M191.943 198.857C192.028 196.819 193.336 192.707 198.229 192.571C198.087 194.667 196.7 198.857 191.943 198.857Z" fill="#001B3A"/>
<path d="M185.657 192.571C185.742 194.61 187.05 198.721 191.943 198.857C191.801 196.762 190.414 192.571 185.657 192.571Z" fill="#001B3A"/>
<path d="M177.383 192.468C177.322 193.929 176.385 196.874 172.879 196.971C172.981 195.47 173.975 192.468 177.383 192.468Z" fill="#001B3A"/>
<path d="M181.886 196.971C181.825 195.511 180.888 192.566 177.383 192.468C177.484 193.969 178.478 196.971 181.886 196.971Z" fill="#001B3A"/>
<path d="M177.383 192.468C177.443 191.008 178.381 188.062 181.886 187.965C181.784 189.466 180.79 192.468 177.383 192.468Z" fill="#001B3A"/>
<path d="M172.879 187.965C172.94 189.426 173.877 192.371 177.383 192.468C177.281 190.967 176.287 187.965 172.879 187.965Z" fill="#001B3A"/>
<path d="M191.714 177.886C191.032 178.501 189.299 179.375 187.714 177.846C188.432 177.231 190.216 176.357 191.714 177.886Z" fill="#FF9254"/>
<path d="M191.674 181.886C192.303 181.216 193.212 179.501 191.714 177.886C191.085 178.591 190.176 180.357 191.674 181.886Z" fill="#FF9254"/>
<path d="M191.714 177.886C192.396 177.271 194.129 176.396 195.714 177.926C194.996 178.54 193.213 179.414 191.714 177.886Z" fill="#FF9254"/>
<path d="M191.754 173.886C191.126 174.555 190.217 176.271 191.714 177.886C192.343 177.18 193.253 175.414 191.754 173.886Z" fill="#FF9254"/>
<path d="M191.84 178.011C191.779 179.472 190.842 182.417 187.336 182.514C187.438 181.013 188.432 178.011 191.84 178.011Z" fill="#001B3A"/>
<path d="M196.343 182.514C196.282 181.054 195.345 178.108 191.84 178.011C191.941 179.512 192.935 182.514 196.343 182.514Z" fill="#001B3A"/>
<path d="M191.84 178.011C191.9 176.551 192.838 173.605 196.343 173.508C196.241 175.009 195.247 178.011 191.84 178.011Z" fill="#001B3A"/>
<path d="M187.336 173.508C187.397 174.968 188.334 177.914 191.84 178.011C191.738 176.51 190.744 173.508 187.336 173.508Z" fill="#001B3A"/>
</svg>
