<svg width="206" height="206" viewBox="0 0 206 206" fill="none" xmlns="http://www.w3.org/2000/svg">
<rect width="206" height="206" fill="white"/>
<rect width="25" height="25" fill="#587DD1"/>
<rect x="25" width="25" height="25" fill="#FF5473"/>
<rect x="75" width="28" height="25" fill="#FF5473"/>
<path d="M25.0001 22.2164C19.6487 22.2164 15.3105 17.8783 15.3105 12.5269C15.3105 7.17554 19.6487 2.8374 25.0001 2.8374V22.2164Z" fill="#001B3A"/>
<path d="M24.9999 2.83729C30.3513 2.83729 34.6895 7.17543 34.6895 12.5268C34.6895 17.8782 30.3513 22.2163 24.9999 22.2163L24.9999 2.83729Z" fill="#86ABFF"/>
<path d="M75 1.26908e-05C81.9036 1.32943e-05 87.5 5.59645 87.5 12.5C87.5 19.4036 81.9036 25 75 25L75 1.26908e-05Z" fill="#001B3A"/>
<rect x="50" width="25" height="25" fill="#587DD1"/>
<path d="M53.5833 5.08333C53.6183 4.2455 54.1559 2.55586 56.1667 2.5C56.1085 3.36111 55.5383 5.08333 53.5833 5.08333Z" fill="white"/>
<path d="M53.5833 8.60604C53.6183 7.7682 54.1559 6.07856 56.1667 6.02271C56.1085 6.88382 55.5383 8.60604 53.5833 8.60604Z" fill="#86ABFF"/>
<path d="M53.5833 12.1287C53.6183 11.2909 54.1559 9.60127 56.1667 9.54541C56.1085 10.4065 55.5383 12.1287 53.5833 12.1287Z" fill="#001B3A"/>
<path d="M53.5833 15.6515C53.6183 14.8137 54.1559 13.124 56.1667 13.0682C56.1085 13.9293 55.5383 15.6515 53.5833 15.6515Z" fill="white"/>
<path d="M53.5833 19.0833C53.6183 18.2455 54.1559 16.5559 56.1667 16.5C56.1085 17.3611 55.5383 19.0833 53.5833 19.0833Z" fill="#86ABFF"/>
<path d="M53.5833 22.5833C53.6183 21.7455 54.1559 20.0559 56.1667 20C56.1085 20.8611 55.5383 22.5833 53.5833 22.5833Z" fill="#001B3A"/>
<path d="M58.75 5.08333C58.7849 4.2455 59.3225 2.55586 61.3333 2.5C61.2752 3.36111 60.705 5.08333 58.75 5.08333Z" fill="white"/>
<path d="M58.75 8.60604C58.7849 7.7682 59.3225 6.07856 61.3333 6.02271C61.2752 6.88382 60.705 8.60604 58.75 8.60604Z" fill="#86ABFF"/>
<path d="M58.75 12.1287C58.7849 11.2909 59.3225 9.60127 61.3333 9.54541C61.2752 10.4065 60.705 12.1287 58.75 12.1287Z" fill="#001B3A"/>
<path d="M58.75 15.6515C58.7849 14.8137 59.3225 13.124 61.3333 13.0682C61.2752 13.9293 60.705 15.6515 58.75 15.6515Z" fill="white"/>
<path d="M58.75 19.0833C58.7849 18.2455 59.3225 16.5559 61.3333 16.5C61.2752 17.3611 60.705 19.0833 58.75 19.0833Z" fill="#86ABFF"/>
<path d="M58.75 22.5833C58.7849 21.7455 59.3225 20.0559 61.3333 20C61.2752 20.8611 60.705 22.5833 58.75 22.5833Z" fill="#001B3A"/>
<path d="M63.9167 5.08333C63.9516 4.2455 64.4892 2.55586 66.5 2.5C66.4418 3.36111 65.8716 5.08333 63.9167 5.08333Z" fill="white"/>
<path d="M69.0833 5.08333C69.1183 4.2455 69.6559 2.55586 71.6667 2.5C71.6085 3.36111 71.0383 5.08333 69.0833 5.08333Z" fill="white"/>
<path d="M63.9167 8.60604C63.9516 7.7682 64.4892 6.07856 66.5 6.02271C66.4418 6.88382 65.8716 8.60604 63.9167 8.60604Z" fill="#86ABFF"/>
<path d="M69.0833 8.60604C69.1183 7.7682 69.6559 6.07856 71.6667 6.02271C71.6085 6.88382 71.0383 8.60604 69.0833 8.60604Z" fill="#86ABFF"/>
<path d="M63.9167 12.1287C63.9516 11.2909 64.4892 9.60127 66.5 9.54541C66.4418 10.4065 65.8716 12.1287 63.9167 12.1287Z" fill="#001B3A"/>
<path d="M69.0833 12.1287C69.1183 11.2909 69.6559 9.60127 71.6667 9.54541C71.6085 10.4065 71.0383 12.1287 69.0833 12.1287Z" fill="#001B3A"/>
<path d="M63.9167 15.6515C63.9516 14.8137 64.4892 13.124 66.5 13.0682C66.4418 13.9293 65.8716 15.6515 63.9167 15.6515Z" fill="white"/>
<path d="M63.9167 19.0833C63.9516 18.2455 64.4892 16.5559 66.5 16.5C66.4418 17.3611 65.8716 19.0833 63.9167 19.0833Z" fill="#86ABFF"/>
<path d="M63.9167 22.5833C63.9516 21.7455 64.4892 20.0559 66.5 20C66.4418 20.8611 65.8716 22.5833 63.9167 22.5833Z" fill="#001B3A"/>
<path d="M69.0833 15.6515C69.1183 14.8137 69.6559 13.124 71.6667 13.0682C71.6085 13.9293 71.0383 15.6515 69.0833 15.6515Z" fill="white"/>
<path d="M69.0833 19.0833C69.1183 18.2455 69.6559 16.5559 71.6667 16.5C71.6085 17.3611 71.0383 19.0833 69.0833 19.0833Z" fill="#86ABFF"/>
<path d="M69.0833 22.5833C69.1183 21.7455 69.6559 20.0559 71.6667 20C71.6085 20.8611 71.0383 22.5833 69.0833 22.5833Z" fill="#001B3A"/>
<path d="M51 2.50004C51.0349 3.33788 51.5725 5.02752 53.5833 5.08337C53.5252 4.22226 52.955 2.50004 51 2.50004Z" fill="#FF5473"/>
<path d="M51 6.02275C51.0349 6.86058 51.5725 8.55022 53.5833 8.60608C53.5252 7.74497 52.955 6.02275 51 6.02275Z" fill="#FF5473"/>
<path d="M51 9.54545C51.0349 10.3833 51.5725 12.0729 53.5833 12.1288C53.5252 11.2677 52.955 9.54545 51 9.54545Z" fill="#FF5473"/>
<path d="M51 13.0682C51.0349 13.906 51.5725 15.5956 53.5833 15.6515C53.5252 14.7904 52.955 13.0682 51 13.0682Z" fill="#FF5473"/>
<path d="M51 16.5C51.0349 17.3379 51.5725 19.0275 53.5833 19.0834C53.5252 18.2223 52.955 16.5 51 16.5Z" fill="#FF5473"/>
<path d="M51 20C51.0349 20.8379 51.5725 22.5275 53.5833 22.5834C53.5252 21.7223 52.955 20 51 20Z" fill="#FF5473"/>
<path d="M56.1667 2.50004C56.2016 3.33788 56.7392 5.02752 58.75 5.08337C58.6918 4.22226 58.1216 2.50004 56.1667 2.50004Z" fill="white"/>
<path d="M56.1667 6.02275C56.2016 6.86058 56.7392 8.55022 58.75 8.60608C58.6918 7.74497 58.1216 6.02275 56.1667 6.02275Z" fill="#86ABFF"/>
<path d="M56.1667 9.54545C56.2016 10.3833 56.7392 12.0729 58.75 12.1288C58.6918 11.2677 58.1216 9.54545 56.1667 9.54545Z" fill="#001B3A"/>
<path d="M56.1667 13.0682C56.2016 13.906 56.7392 15.5956 58.75 15.6515C58.6918 14.7904 58.1216 13.0682 56.1667 13.0682Z" fill="white"/>
<path d="M56.1667 16.5C56.2016 17.3379 56.7392 19.0275 58.75 19.0834C58.6918 18.2223 58.1216 16.5 56.1667 16.5Z" fill="#86ABFF"/>
<path d="M56.1667 20C56.2016 20.8379 56.7392 22.5275 58.75 22.5834C58.6918 21.7223 58.1216 20 56.1667 20Z" fill="#001B3A"/>
<path d="M61.3333 2.50004C61.3683 3.33788 61.9059 5.02752 63.9167 5.08337C63.8585 4.22226 63.2883 2.50004 61.3333 2.50004Z" fill="white"/>
<path d="M66.5 2.50004C66.5349 3.33788 67.0725 5.02752 69.0833 5.08337C69.0252 4.22226 68.455 2.50004 66.5 2.50004Z" fill="white"/>
<path d="M61.3333 6.02275C61.3683 6.86058 61.9059 8.55022 63.9167 8.60608C63.8585 7.74497 63.2883 6.02275 61.3333 6.02275Z" fill="#86ABFF"/>
<path d="M66.5 6.02275C66.5349 6.86058 67.0725 8.55022 69.0833 8.60608C69.0252 7.74497 68.455 6.02275 66.5 6.02275Z" fill="#86ABFF"/>
<path d="M61.3333 9.54545C61.3683 10.3833 61.9059 12.0729 63.9167 12.1288C63.8585 11.2677 63.2883 9.54545 61.3333 9.54545Z" fill="#001B3A"/>
<path d="M66.5 9.54545C66.5349 10.3833 67.0725 12.0729 69.0833 12.1288C69.0252 11.2677 68.455 9.54545 66.5 9.54545Z" fill="#001B3A"/>
<path d="M61.3333 13.0682C61.3683 13.906 61.9059 15.5956 63.9167 15.6515C63.8585 14.7904 63.2883 13.0682 61.3333 13.0682Z" fill="white"/>
<path d="M61.3333 16.5C61.3683 17.3379 61.9059 19.0275 63.9167 19.0834C63.8585 18.2223 63.2883 16.5 61.3333 16.5Z" fill="#86ABFF"/>
<path d="M61.3333 20C61.3683 20.8379 61.9059 22.5275 63.9167 22.5834C63.8585 21.7223 63.2883 20 61.3333 20Z" fill="#001B3A"/>
<path d="M66.5 13.0682C66.5349 13.906 67.0725 15.5956 69.0833 15.6515C69.0252 14.7904 68.455 13.0682 66.5 13.0682Z" fill="white"/>
<path d="M66.5 16.5C66.5349 17.3379 67.0725 19.0275 69.0833 19.0834C69.0252 18.2223 68.455 16.5 66.5 16.5Z" fill="#86ABFF"/>
<path d="M66.5 20C66.5349 20.8379 67.0725 22.5275 69.0833 22.5834C69.0252 21.7223 68.455 20 66.5 20Z" fill="#001B3A"/>
<rect y="25" width="25" height="25" fill="#001B3A"/>
<path d="M3.125 28.125V25L-2.6077e-08 28.125H3.125Z" fill="#587DD1"/>
<path d="M3.125 28.125L3.125 31.25L6.25 28.125H3.125Z" fill="#587DD1"/>
<path d="M3.125 28.125H-2.6077e-08L3.125 31.25V28.125Z" fill="#86ABFF"/>
<path d="M3.125 28.125H6.25L3.125 25V28.125Z" fill="#86ABFF"/>
<path d="M3.125 40.625V37.5L-2.6077e-08 40.625H3.125Z" fill="#587DD1"/>
<path d="M3.125 40.625L3.125 43.75L6.25 40.625H3.125Z" fill="#587DD1"/>
<path d="M3.125 40.625H-2.6077e-08L3.125 43.75V40.625Z" fill="#86ABFF"/>
<path d="M3.125 40.625H6.25L3.125 37.5V40.625Z" fill="#86ABFF"/>
<path d="M15.625 28.125V25L12.5 28.125H15.625Z" fill="#587DD1"/>
<path d="M15.625 28.125V31.25L18.75 28.125H15.625Z" fill="#587DD1"/>
<path d="M15.625 28.125H12.5L15.625 31.25V28.125Z" fill="#86ABFF"/>
<path d="M15.625 28.125H18.75L15.625 25V28.125Z" fill="#86ABFF"/>
<path d="M15.625 40.625V37.5L12.5 40.625H15.625Z" fill="#587DD1"/>
<path d="M15.625 40.625V43.75L18.75 40.625H15.625Z" fill="#587DD1"/>
<path d="M15.625 40.625H12.5L15.625 43.75V40.625Z" fill="#86ABFF"/>
<path d="M15.625 40.625H18.75L15.625 37.5V40.625Z" fill="#86ABFF"/>
<path d="M9.375 34.375V31.25L6.25 34.375H9.375Z" fill="#587DD1"/>
<path d="M9.375 34.375V37.5L12.5 34.375H9.375Z" fill="#587DD1"/>
<path d="M9.375 34.375H6.25L9.375 37.5V34.375Z" fill="#86ABFF"/>
<path d="M9.375 34.375H12.5L9.375 31.25V34.375Z" fill="#86ABFF"/>
<path d="M9.375 46.875V43.75L6.25 46.875H9.375Z" fill="#587DD1"/>
<path d="M9.375 46.875V50L12.5 46.875H9.375Z" fill="#587DD1"/>
<path d="M9.375 46.875H6.25L9.375 50V46.875Z" fill="#86ABFF"/>
<path d="M9.375 46.875H12.5L9.375 43.75V46.875Z" fill="#86ABFF"/>
<path d="M21.875 34.375V31.25L18.75 34.375H21.875Z" fill="#587DD1"/>
<path d="M21.875 34.375V37.5L25 34.375H21.875Z" fill="#587DD1"/>
<path d="M21.875 34.375H18.75L21.875 37.5V34.375Z" fill="#86ABFF"/>
<path d="M21.875 34.375H25L21.875 31.25V34.375Z" fill="#86ABFF"/>
<path d="M21.875 46.875V43.75L18.75 46.875H21.875Z" fill="#587DD1"/>
<path d="M21.875 46.875V50L25 46.875H21.875Z" fill="#587DD1"/>
<path d="M21.875 46.875H18.75L21.875 50V46.875Z" fill="#86ABFF"/>
<path d="M21.875 46.875H25L21.875 43.75V46.875Z" fill="#86ABFF"/>
<path d="M9.375 28.125V25L6.25 28.125H9.375Z" fill="#587DD1"/>
<path d="M9.375 28.125V31.25L12.5 28.125H9.375Z" fill="#587DD1"/>
<path d="M9.375 28.125H6.25L9.375 31.25V28.125Z" fill="#86ABFF"/>
<path d="M9.375 28.125H12.5L9.375 25V28.125Z" fill="#86ABFF"/>
<path d="M9.375 40.625V37.5L6.25 40.625H9.375Z" fill="#587DD1"/>
<path d="M9.375 40.625V43.75L12.5 40.625H9.375Z" fill="#587DD1"/>
<path d="M9.375 40.625H6.25L9.375 43.75V40.625Z" fill="#86ABFF"/>
<path d="M9.375 40.625H12.5L9.375 37.5V40.625Z" fill="#86ABFF"/>
<path d="M21.875 28.125V25L18.75 28.125H21.875Z" fill="#587DD1"/>
<path d="M21.875 28.125V31.25L25 28.125H21.875Z" fill="#587DD1"/>
<path d="M21.875 28.125H18.75L21.875 31.25V28.125Z" fill="#86ABFF"/>
<path d="M21.875 28.125H25L21.875 25V28.125Z" fill="#86ABFF"/>
<path d="M21.875 40.625V37.5L18.75 40.625H21.875Z" fill="#587DD1"/>
<path d="M21.875 40.625V43.75L25 40.625H21.875Z" fill="#587DD1"/>
<path d="M21.875 40.625H18.75L21.875 43.75V40.625Z" fill="#86ABFF"/>
<path d="M21.875 40.625H25L21.875 37.5V40.625Z" fill="#86ABFF"/>
<path d="M3.125 34.375V31.25L-2.6077e-08 34.375H3.125Z" fill="#587DD1"/>
<path d="M3.125 34.375L3.125 37.5L6.25 34.375H3.125Z" fill="#587DD1"/>
<path d="M3.125 34.375H-2.6077e-08L3.125 37.5V34.375Z" fill="#86ABFF"/>
<path d="M3.125 34.375H6.25L3.125 31.25V34.375Z" fill="#86ABFF"/>
<path d="M3.125 46.875V43.75L-2.6077e-08 46.875H3.125Z" fill="#587DD1"/>
<path d="M3.125 46.875L3.125 50L6.25 46.875H3.125Z" fill="#587DD1"/>
<path d="M3.125 46.875H-2.6077e-08L3.125 50V46.875Z" fill="#86ABFF"/>
<path d="M3.125 46.875H6.25L3.125 43.75V46.875Z" fill="#86ABFF"/>
<path d="M15.625 34.375V31.25L12.5 34.375H15.625Z" fill="#587DD1"/>
<path d="M15.625 34.375V37.5L18.75 34.375H15.625Z" fill="#587DD1"/>
<path d="M15.625 34.375H12.5L15.625 37.5V34.375Z" fill="#86ABFF"/>
<path d="M15.625 34.375H18.75L15.625 31.25V34.375Z" fill="#86ABFF"/>
<path d="M15.625 46.875V43.75L12.5 46.875H15.625Z" fill="#587DD1"/>
<path d="M15.625 46.875V50L18.75 46.875H15.625Z" fill="#587DD1"/>
<path d="M15.625 46.875H12.5L15.625 50V46.875Z" fill="#86ABFF"/>
<path d="M15.625 46.875H18.75L15.625 43.75V46.875Z" fill="#86ABFF"/>
<rect width="25" height="25" transform="matrix(-1 0 0 1 206 0)" fill="#587DD1"/>
<rect width="25" height="25" transform="matrix(-1 0 0 1 181 0)" fill="#FF5473"/>
<rect width="28" height="25" transform="matrix(-1 0 0 1 131 0)" fill="#FF5473"/>
<path d="M181 22.2164C186.351 22.2164 190.689 17.8783 190.689 12.5269C190.689 7.17554 186.351 2.8374 181 2.8374V22.2164Z" fill="#001B3A"/>
<path d="M181 2.83729C175.649 2.83729 171.311 7.17543 171.311 12.5268C171.311 17.8782 175.649 22.2163 181 22.2163L181 2.83729Z" fill="#86ABFF"/>
<path d="M131 1.26908e-05C124.096 1.32943e-05 118.5 5.59645 118.5 12.5C118.5 19.4036 124.096 25 131 25L131 1.26908e-05Z" fill="#001B3A"/>
<rect width="25" height="25" transform="matrix(-1 0 0 1 156 0)" fill="#587DD1"/>
<path d="M152.417 5.08333C152.382 4.2455 151.844 2.55586 149.833 2.5C149.892 3.36111 150.462 5.08333 152.417 5.08333Z" fill="white"/>
<path d="M152.417 8.60604C152.382 7.7682 151.844 6.07856 149.833 6.02271C149.892 6.88382 150.462 8.60604 152.417 8.60604Z" fill="#86ABFF"/>
<path d="M152.417 12.1287C152.382 11.2909 151.844 9.60127 149.833 9.54541C149.892 10.4065 150.462 12.1287 152.417 12.1287Z" fill="#001B3A"/>
<path d="M152.417 15.6515C152.382 14.8137 151.844 13.124 149.833 13.0682C149.892 13.9293 150.462 15.6515 152.417 15.6515Z" fill="white"/>
<path d="M152.417 19.0833C152.382 18.2455 151.844 16.5559 149.833 16.5C149.892 17.3611 150.462 19.0833 152.417 19.0833Z" fill="#86ABFF"/>
<path d="M152.417 22.5833C152.382 21.7455 151.844 20.0559 149.833 20C149.892 20.8611 150.462 22.5833 152.417 22.5833Z" fill="#001B3A"/>
<path d="M147.25 5.08333C147.215 4.2455 146.677 2.55586 144.667 2.5C144.725 3.36111 145.295 5.08333 147.25 5.08333Z" fill="white"/>
<path d="M147.25 8.60604C147.215 7.7682 146.677 6.07856 144.667 6.02271C144.725 6.88382 145.295 8.60604 147.25 8.60604Z" fill="#86ABFF"/>
<path d="M147.25 12.1287C147.215 11.2909 146.677 9.60127 144.667 9.54541C144.725 10.4065 145.295 12.1287 147.25 12.1287Z" fill="#001B3A"/>
<path d="M147.25 15.6515C147.215 14.8137 146.677 13.124 144.667 13.0682C144.725 13.9293 145.295 15.6515 147.25 15.6515Z" fill="white"/>
<path d="M147.25 19.0833C147.215 18.2455 146.677 16.5559 144.667 16.5C144.725 17.3611 145.295 19.0833 147.25 19.0833Z" fill="#86ABFF"/>
<path d="M147.25 22.5833C147.215 21.7455 146.677 20.0559 144.667 20C144.725 20.8611 145.295 22.5833 147.25 22.5833Z" fill="#001B3A"/>
<path d="M142.083 5.08333C142.048 4.2455 141.511 2.55586 139.5 2.5C139.558 3.36111 140.128 5.08333 142.083 5.08333Z" fill="white"/>
<path d="M136.917 5.08333C136.882 4.2455 136.344 2.55586 134.333 2.5C134.392 3.36111 134.962 5.08333 136.917 5.08333Z" fill="white"/>
<path d="M142.083 8.60604C142.048 7.7682 141.511 6.07856 139.5 6.02271C139.558 6.88382 140.128 8.60604 142.083 8.60604Z" fill="#86ABFF"/>
<path d="M136.917 8.60604C136.882 7.7682 136.344 6.07856 134.333 6.02271C134.392 6.88382 134.962 8.60604 136.917 8.60604Z" fill="#86ABFF"/>
<path d="M142.083 12.1287C142.048 11.2909 141.511 9.60127 139.5 9.54541C139.558 10.4065 140.128 12.1287 142.083 12.1287Z" fill="#001B3A"/>
<path d="M136.917 12.1287C136.882 11.2909 136.344 9.60127 134.333 9.54541C134.392 10.4065 134.962 12.1287 136.917 12.1287Z" fill="#001B3A"/>
<path d="M142.083 15.6515C142.048 14.8137 141.511 13.124 139.5 13.0682C139.558 13.9293 140.128 15.6515 142.083 15.6515Z" fill="white"/>
<path d="M142.083 19.0833C142.048 18.2455 141.511 16.5559 139.5 16.5C139.558 17.3611 140.128 19.0833 142.083 19.0833Z" fill="#86ABFF"/>
<path d="M142.083 22.5833C142.048 21.7455 141.511 20.0559 139.5 20C139.558 20.8611 140.128 22.5833 142.083 22.5833Z" fill="#001B3A"/>
<path d="M136.917 15.6515C136.882 14.8137 136.344 13.124 134.333 13.0682C134.392 13.9293 134.962 15.6515 136.917 15.6515Z" fill="white"/>
<path d="M136.917 19.0833C136.882 18.2455 136.344 16.5559 134.333 16.5C134.392 17.3611 134.962 19.0833 136.917 19.0833Z" fill="#86ABFF"/>
<path d="M136.917 22.5833C136.882 21.7455 136.344 20.0559 134.333 20C134.392 20.8611 134.962 22.5833 136.917 22.5833Z" fill="#001B3A"/>
<path d="M155 2.50004C154.965 3.33788 154.427 5.02752 152.417 5.08337C152.475 4.22226 153.045 2.50004 155 2.50004Z" fill="#FF5473"/>
<path d="M155 6.02275C154.965 6.86058 154.427 8.55022 152.417 8.60608C152.475 7.74497 153.045 6.02275 155 6.02275Z" fill="#FF5473"/>
<path d="M155 9.54545C154.965 10.3833 154.427 12.0729 152.417 12.1288C152.475 11.2677 153.045 9.54545 155 9.54545Z" fill="#FF5473"/>
<path d="M155 13.0682C154.965 13.906 154.427 15.5956 152.417 15.6515C152.475 14.7904 153.045 13.0682 155 13.0682Z" fill="#FF5473"/>
<path d="M155 16.5C154.965 17.3379 154.427 19.0275 152.417 19.0834C152.475 18.2223 153.045 16.5 155 16.5Z" fill="#FF5473"/>
<path d="M155 20C154.965 20.8379 154.427 22.5275 152.417 22.5834C152.475 21.7223 153.045 20 155 20Z" fill="#FF5473"/>
<path d="M149.833 2.50004C149.798 3.33788 149.261 5.02752 147.25 5.08337C147.308 4.22226 147.878 2.50004 149.833 2.50004Z" fill="white"/>
<path d="M149.833 6.02275C149.798 6.86058 149.261 8.55022 147.25 8.60608C147.308 7.74497 147.878 6.02275 149.833 6.02275Z" fill="#86ABFF"/>
<path d="M149.833 9.54545C149.798 10.3833 149.261 12.0729 147.25 12.1288C147.308 11.2677 147.878 9.54545 149.833 9.54545Z" fill="#001B3A"/>
<path d="M149.833 13.0682C149.798 13.906 149.261 15.5956 147.25 15.6515C147.308 14.7904 147.878 13.0682 149.833 13.0682Z" fill="white"/>
<path d="M149.833 16.5C149.798 17.3379 149.261 19.0275 147.25 19.0834C147.308 18.2223 147.878 16.5 149.833 16.5Z" fill="#86ABFF"/>
<path d="M149.833 20C149.798 20.8379 149.261 22.5275 147.25 22.5834C147.308 21.7223 147.878 20 149.833 20Z" fill="#001B3A"/>
<path d="M144.667 2.50004C144.632 3.33788 144.094 5.02752 142.083 5.08337C142.142 4.22226 142.712 2.50004 144.667 2.50004Z" fill="white"/>
<path d="M139.5 2.50004C139.465 3.33788 138.927 5.02752 136.917 5.08337C136.975 4.22226 137.545 2.50004 139.5 2.50004Z" fill="white"/>
<path d="M144.667 6.02275C144.632 6.86058 144.094 8.55022 142.083 8.60608C142.142 7.74497 142.712 6.02275 144.667 6.02275Z" fill="#86ABFF"/>
<path d="M139.5 6.02275C139.465 6.86058 138.927 8.55022 136.917 8.60608C136.975 7.74497 137.545 6.02275 139.5 6.02275Z" fill="#86ABFF"/>
<path d="M144.667 9.54545C144.632 10.3833 144.094 12.0729 142.083 12.1288C142.142 11.2677 142.712 9.54545 144.667 9.54545Z" fill="#001B3A"/>
<path d="M139.5 9.54545C139.465 10.3833 138.927 12.0729 136.917 12.1288C136.975 11.2677 137.545 9.54545 139.5 9.54545Z" fill="#001B3A"/>
<path d="M144.667 13.0682C144.632 13.906 144.094 15.5956 142.083 15.6515C142.142 14.7904 142.712 13.0682 144.667 13.0682Z" fill="white"/>
<path d="M144.667 16.5C144.632 17.3379 144.094 19.0275 142.083 19.0834C142.142 18.2223 142.712 16.5 144.667 16.5Z" fill="#86ABFF"/>
<path d="M144.667 20C144.632 20.8379 144.094 22.5275 142.083 22.5834C142.142 21.7223 142.712 20 144.667 20Z" fill="#001B3A"/>
<path d="M139.5 13.0682C139.465 13.906 138.927 15.5956 136.917 15.6515C136.975 14.7904 137.545 13.0682 139.5 13.0682Z" fill="white"/>
<path d="M139.5 16.5C139.465 17.3379 138.927 19.0275 136.917 19.0834C136.975 18.2223 137.545 16.5 139.5 16.5Z" fill="#86ABFF"/>
<path d="M139.5 20C139.465 20.8379 138.927 22.5275 136.917 22.5834C136.975 21.7223 137.545 20 139.5 20Z" fill="#001B3A"/>
<rect width="25" height="25" transform="matrix(-1 0 0 1 206 25)" fill="#001B3A"/>
<path d="M202.875 28.125V25L206 28.125H202.875Z" fill="#587DD1"/>
<path d="M202.875 28.125V31.25L199.75 28.125H202.875Z" fill="#587DD1"/>
<path d="M202.875 28.125H206L202.875 31.25V28.125Z" fill="#86ABFF"/>
<path d="M202.875 28.125H199.75L202.875 25V28.125Z" fill="#86ABFF"/>
<path d="M202.875 40.625V37.5L206 40.625H202.875Z" fill="#587DD1"/>
<path d="M202.875 40.625V43.75L199.75 40.625H202.875Z" fill="#587DD1"/>
<path d="M202.875 40.625H206L202.875 43.75V40.625Z" fill="#86ABFF"/>
<path d="M202.875 40.625H199.75L202.875 37.5V40.625Z" fill="#86ABFF"/>
<path d="M190.375 28.125V25L193.5 28.125H190.375Z" fill="#587DD1"/>
<path d="M190.375 28.125V31.25L187.25 28.125H190.375Z" fill="#587DD1"/>
<path d="M190.375 28.125H193.5L190.375 31.25V28.125Z" fill="#86ABFF"/>
<path d="M190.375 28.125H187.25L190.375 25V28.125Z" fill="#86ABFF"/>
<path d="M190.375 40.625V37.5L193.5 40.625H190.375Z" fill="#587DD1"/>
<path d="M190.375 40.625V43.75L187.25 40.625H190.375Z" fill="#587DD1"/>
<path d="M190.375 40.625H193.5L190.375 43.75V40.625Z" fill="#86ABFF"/>
<path d="M190.375 40.625H187.25L190.375 37.5V40.625Z" fill="#86ABFF"/>
<path d="M196.625 34.375V31.25L199.75 34.375H196.625Z" fill="#587DD1"/>
<path d="M196.625 34.375V37.5L193.5 34.375H196.625Z" fill="#587DD1"/>
<path d="M196.625 34.375H199.75L196.625 37.5V34.375Z" fill="#86ABFF"/>
<path d="M196.625 34.375H193.5L196.625 31.25V34.375Z" fill="#86ABFF"/>
<path d="M196.625 46.875V43.75L199.75 46.875H196.625Z" fill="#587DD1"/>
<path d="M196.625 46.875V50L193.5 46.875H196.625Z" fill="#587DD1"/>
<path d="M196.625 46.875H199.75L196.625 50V46.875Z" fill="#86ABFF"/>
<path d="M196.625 46.875H193.5L196.625 43.75V46.875Z" fill="#86ABFF"/>
<path d="M184.125 34.375V31.25L187.25 34.375H184.125Z" fill="#587DD1"/>
<path d="M184.125 34.375V37.5L181 34.375H184.125Z" fill="#587DD1"/>
<path d="M184.125 34.375H187.25L184.125 37.5V34.375Z" fill="#86ABFF"/>
<path d="M184.125 34.375H181L184.125 31.25V34.375Z" fill="#86ABFF"/>
<path d="M184.125 46.875V43.75L187.25 46.875H184.125Z" fill="#587DD1"/>
<path d="M184.125 46.875V50L181 46.875H184.125Z" fill="#587DD1"/>
<path d="M184.125 46.875H187.25L184.125 50V46.875Z" fill="#86ABFF"/>
<path d="M184.125 46.875H181L184.125 43.75V46.875Z" fill="#86ABFF"/>
<path d="M196.625 28.125V25L199.75 28.125H196.625Z" fill="#587DD1"/>
<path d="M196.625 28.125V31.25L193.5 28.125H196.625Z" fill="#587DD1"/>
<path d="M196.625 28.125H199.75L196.625 31.25V28.125Z" fill="#86ABFF"/>
<path d="M196.625 28.125H193.5L196.625 25V28.125Z" fill="#86ABFF"/>
<path d="M196.625 40.625V37.5L199.75 40.625H196.625Z" fill="#587DD1"/>
<path d="M196.625 40.625V43.75L193.5 40.625H196.625Z" fill="#587DD1"/>
<path d="M196.625 40.625H199.75L196.625 43.75V40.625Z" fill="#86ABFF"/>
<path d="M196.625 40.625H193.5L196.625 37.5V40.625Z" fill="#86ABFF"/>
<path d="M184.125 28.125V25L187.25 28.125H184.125Z" fill="#587DD1"/>
<path d="M184.125 28.125V31.25L181 28.125H184.125Z" fill="#587DD1"/>
<path d="M184.125 28.125H187.25L184.125 31.25V28.125Z" fill="#86ABFF"/>
<path d="M184.125 28.125H181L184.125 25V28.125Z" fill="#86ABFF"/>
<path d="M184.125 40.625V37.5L187.25 40.625H184.125Z" fill="#587DD1"/>
<path d="M184.125 40.625V43.75L181 40.625H184.125Z" fill="#587DD1"/>
<path d="M184.125 40.625H187.25L184.125 43.75V40.625Z" fill="#86ABFF"/>
<path d="M184.125 40.625H181L184.125 37.5V40.625Z" fill="#86ABFF"/>
<path d="M202.875 34.375V31.25L206 34.375H202.875Z" fill="#587DD1"/>
<path d="M202.875 34.375V37.5L199.75 34.375H202.875Z" fill="#587DD1"/>
<path d="M202.875 34.375H206L202.875 37.5V34.375Z" fill="#86ABFF"/>
<path d="M202.875 34.375H199.75L202.875 31.25V34.375Z" fill="#86ABFF"/>
<path d="M202.875 46.875V43.75L206 46.875H202.875Z" fill="#587DD1"/>
<path d="M202.875 46.875V50L199.75 46.875H202.875Z" fill="#587DD1"/>
<path d="M202.875 46.875H206L202.875 50V46.875Z" fill="#86ABFF"/>
<path d="M202.875 46.875H199.75L202.875 43.75V46.875Z" fill="#86ABFF"/>
<path d="M190.375 34.375V31.25L193.5 34.375H190.375Z" fill="#587DD1"/>
<path d="M190.375 34.375V37.5L187.25 34.375H190.375Z" fill="#587DD1"/>
<path d="M190.375 34.375H193.5L190.375 37.5V34.375Z" fill="#86ABFF"/>
<path d="M190.375 34.375H187.25L190.375 31.25V34.375Z" fill="#86ABFF"/>
<path d="M190.375 46.875V43.75L193.5 46.875H190.375Z" fill="#587DD1"/>
<path d="M190.375 46.875V50L187.25 46.875H190.375Z" fill="#587DD1"/>
<path d="M190.375 46.875H193.5L190.375 50V46.875Z" fill="#86ABFF"/>
<path d="M190.375 46.875H187.25L190.375 43.75V46.875Z" fill="#86ABFF"/>
<path d="M102.75 25L102.75 -2.08616e-07L89 25L102.75 25Z" fill="#001B3A"/>
<path d="M102.75 25L102.75 50L116.5 25L102.75 25Z" fill="#001B3A"/>
<path d="M102.75 25L89 25L102.75 50L102.75 25Z" fill="#587DD1"/>
<path d="M102.75 25L116.5 25L102.75 -2.08616e-07L102.75 25Z" fill="#587DD1"/>
<path d="M102.75 24.9999C102.858 22.4053 104.523 17.1729 110.75 16.9999C110.57 19.6665 108.804 24.9999 102.75 24.9999Z" fill="#86ABFF"/>
<path d="M94.75 16.9999C94.8581 19.5945 96.523 24.827 102.75 24.9999C102.57 22.3333 100.804 16.9999 94.75 16.9999Z" fill="#86ABFF"/>
<path d="M102.75 24.9999C102.642 27.5945 100.977 32.8269 94.75 32.9999C94.9302 30.3332 96.6959 24.9999 102.75 24.9999Z" fill="#86ABFF"/>
<path d="M110.75 32.9999C110.642 30.4053 108.977 25.1729 102.75 24.9999C102.93 27.6666 104.696 32.9999 110.75 32.9999Z" fill="#86ABFF"/>
<rect width="25" height="25" transform="matrix(1 0 0 -1 0 206)" fill="#587DD1"/>
<rect width="25" height="25" transform="matrix(1 0 0 -1 25 206)" fill="#FF5473"/>
<rect width="28" height="25" transform="matrix(1 0 0 -1 75 206)" fill="#FF5473"/>
<path d="M25.0001 183.784C19.6487 183.784 15.3105 188.122 15.3105 193.473C15.3105 198.824 19.6487 203.163 25.0001 203.163V183.784Z" fill="#001B3A"/>
<path d="M24.9999 203.163C30.3513 203.163 34.6895 198.825 34.6895 193.473C34.6895 188.122 30.3513 183.784 24.9999 183.784L24.9999 203.163Z" fill="#86ABFF"/>
<path d="M75 206C81.9036 206 87.5 200.404 87.5 193.5C87.5 186.596 81.9036 181 75 181L75 206Z" fill="#001B3A"/>
<rect width="25" height="25" transform="matrix(1 0 0 -1 50 206)" fill="#587DD1"/>
<path d="M53.5833 200.917C53.6183 201.755 54.1559 203.444 56.1667 203.5C56.1085 202.639 55.5383 200.917 53.5833 200.917Z" fill="white"/>
<path d="M53.5833 197.394C53.6183 198.232 54.1559 199.921 56.1667 199.977C56.1085 199.116 55.5383 197.394 53.5833 197.394Z" fill="#86ABFF"/>
<path d="M53.5833 193.871C53.6183 194.709 54.1559 196.399 56.1667 196.455C56.1085 195.593 55.5383 193.871 53.5833 193.871Z" fill="#001B3A"/>
<path d="M53.5833 190.348C53.6183 191.186 54.1559 192.876 56.1667 192.932C56.1085 192.071 55.5383 190.348 53.5833 190.348Z" fill="white"/>
<path d="M53.5833 186.917C53.6183 187.755 54.1559 189.444 56.1667 189.5C56.1085 188.639 55.5383 186.917 53.5833 186.917Z" fill="#86ABFF"/>
<path d="M53.5833 183.417C53.6183 184.255 54.1559 185.944 56.1667 186C56.1085 185.139 55.5383 183.417 53.5833 183.417Z" fill="#001B3A"/>
<path d="M58.75 200.917C58.7849 201.755 59.3225 203.444 61.3333 203.5C61.2752 202.639 60.705 200.917 58.75 200.917Z" fill="white"/>
<path d="M58.75 197.394C58.7849 198.232 59.3225 199.921 61.3333 199.977C61.2752 199.116 60.705 197.394 58.75 197.394Z" fill="#86ABFF"/>
<path d="M58.75 193.871C58.7849 194.709 59.3225 196.399 61.3333 196.455C61.2752 195.593 60.705 193.871 58.75 193.871Z" fill="#001B3A"/>
<path d="M58.75 190.348C58.7849 191.186 59.3225 192.876 61.3333 192.932C61.2752 192.071 60.705 190.348 58.75 190.348Z" fill="white"/>
<path d="M58.75 186.917C58.7849 187.755 59.3225 189.444 61.3333 189.5C61.2752 188.639 60.705 186.917 58.75 186.917Z" fill="#86ABFF"/>
<path d="M58.75 183.417C58.7849 184.255 59.3225 185.944 61.3333 186C61.2752 185.139 60.705 183.417 58.75 183.417Z" fill="#001B3A"/>
<path d="M63.9167 200.917C63.9516 201.755 64.4892 203.444 66.5 203.5C66.4418 202.639 65.8716 200.917 63.9167 200.917Z" fill="white"/>
<path d="M69.0833 200.917C69.1183 201.755 69.6559 203.444 71.6667 203.5C71.6085 202.639 71.0383 200.917 69.0833 200.917Z" fill="white"/>
<path d="M63.9167 197.394C63.9516 198.232 64.4892 199.921 66.5 199.977C66.4418 199.116 65.8716 197.394 63.9167 197.394Z" fill="#86ABFF"/>
<path d="M69.0833 197.394C69.1183 198.232 69.6559 199.921 71.6667 199.977C71.6085 199.116 71.0383 197.394 69.0833 197.394Z" fill="#86ABFF"/>
<path d="M63.9167 193.871C63.9516 194.709 64.4892 196.399 66.5 196.455C66.4418 195.593 65.8716 193.871 63.9167 193.871Z" fill="#001B3A"/>
<path d="M69.0833 193.871C69.1183 194.709 69.6559 196.399 71.6667 196.455C71.6085 195.593 71.0383 193.871 69.0833 193.871Z" fill="#001B3A"/>
<path d="M63.9167 190.348C63.9516 191.186 64.4892 192.876 66.5 192.932C66.4418 192.071 65.8716 190.348 63.9167 190.348Z" fill="white"/>
<path d="M63.9167 186.917C63.9516 187.755 64.4892 189.444 66.5 189.5C66.4418 188.639 65.8716 186.917 63.9167 186.917Z" fill="#86ABFF"/>
<path d="M63.9167 183.417C63.9516 184.255 64.4892 185.944 66.5 186C66.4418 185.139 65.8716 183.417 63.9167 183.417Z" fill="#001B3A"/>
<path d="M69.0833 190.348C69.1183 191.186 69.6559 192.876 71.6667 192.932C71.6085 192.071 71.0383 190.348 69.0833 190.348Z" fill="white"/>
<path d="M69.0833 186.917C69.1183 187.755 69.6559 189.444 71.6667 189.5C71.6085 188.639 71.0383 186.917 69.0833 186.917Z" fill="#86ABFF"/>
<path d="M69.0833 183.417C69.1183 184.255 69.6559 185.944 71.6667 186C71.6085 185.139 71.0383 183.417 69.0833 183.417Z" fill="#001B3A"/>
<path d="M51 203.5C51.0349 202.662 51.5725 200.972 53.5833 200.917C53.5252 201.778 52.955 203.5 51 203.5Z" fill="#FF5473"/>
<path d="M51 199.977C51.0349 199.139 51.5725 197.45 53.5833 197.394C53.5252 198.255 52.955 199.977 51 199.977Z" fill="#FF5473"/>
<path d="M51 196.455C51.0349 195.617 51.5725 193.927 53.5833 193.871C53.5252 194.732 52.955 196.455 51 196.455Z" fill="#FF5473"/>
<path d="M51 192.932C51.0349 192.094 51.5725 190.404 53.5833 190.349C53.5252 191.21 52.955 192.932 51 192.932Z" fill="#FF5473"/>
<path d="M51 189.5C51.0349 188.662 51.5725 186.972 53.5833 186.917C53.5252 187.778 52.955 189.5 51 189.5Z" fill="#FF5473"/>
<path d="M51 186C51.0349 185.162 51.5725 183.472 53.5833 183.417C53.5252 184.278 52.955 186 51 186Z" fill="#FF5473"/>
<path d="M56.1667 203.5C56.2016 202.662 56.7392 200.972 58.75 200.917C58.6918 201.778 58.1216 203.5 56.1667 203.5Z" fill="white"/>
<path d="M56.1667 199.977C56.2016 199.139 56.7392 197.45 58.75 197.394C58.6918 198.255 58.1216 199.977 56.1667 199.977Z" fill="#86ABFF"/>
<path d="M56.1667 196.455C56.2016 195.617 56.7392 193.927 58.75 193.871C58.6918 194.732 58.1216 196.455 56.1667 196.455Z" fill="#001B3A"/>
<path d="M56.1667 192.932C56.2016 192.094 56.7392 190.404 58.75 190.349C58.6918 191.21 58.1216 192.932 56.1667 192.932Z" fill="white"/>
<path d="M56.1667 189.5C56.2016 188.662 56.7392 186.972 58.75 186.917C58.6918 187.778 58.1216 189.5 56.1667 189.5Z" fill="#86ABFF"/>
<path d="M56.1667 186C56.2016 185.162 56.7392 183.472 58.75 183.417C58.6918 184.278 58.1216 186 56.1667 186Z" fill="#001B3A"/>
<path d="M61.3333 203.5C61.3683 202.662 61.9059 200.972 63.9167 200.917C63.8585 201.778 63.2883 203.5 61.3333 203.5Z" fill="white"/>
<path d="M66.5 203.5C66.5349 202.662 67.0725 200.972 69.0833 200.917C69.0252 201.778 68.455 203.5 66.5 203.5Z" fill="white"/>
<path d="M61.3333 199.977C61.3683 199.139 61.9059 197.45 63.9167 197.394C63.8585 198.255 63.2883 199.977 61.3333 199.977Z" fill="#86ABFF"/>
<path d="M66.5 199.977C66.5349 199.139 67.0725 197.45 69.0833 197.394C69.0252 198.255 68.455 199.977 66.5 199.977Z" fill="#86ABFF"/>
<path d="M61.3333 196.455C61.3683 195.617 61.9059 193.927 63.9167 193.871C63.8585 194.732 63.2883 196.455 61.3333 196.455Z" fill="#001B3A"/>
<path d="M66.5 196.455C66.5349 195.617 67.0725 193.927 69.0833 193.871C69.0252 194.732 68.455 196.455 66.5 196.455Z" fill="#001B3A"/>
<path d="M61.3333 192.932C61.3683 192.094 61.9059 190.404 63.9167 190.349C63.8585 191.21 63.2883 192.932 61.3333 192.932Z" fill="white"/>
<path d="M61.3333 189.5C61.3683 188.662 61.9059 186.972 63.9167 186.917C63.8585 187.778 63.2883 189.5 61.3333 189.5Z" fill="#86ABFF"/>
<path d="M61.3333 186C61.3683 185.162 61.9059 183.472 63.9167 183.417C63.8585 184.278 63.2883 186 61.3333 186Z" fill="#001B3A"/>
<path d="M66.5 192.932C66.5349 192.094 67.0725 190.404 69.0833 190.349C69.0252 191.21 68.455 192.932 66.5 192.932Z" fill="white"/>
<path d="M66.5 189.5C66.5349 188.662 67.0725 186.972 69.0833 186.917C69.0252 187.778 68.455 189.5 66.5 189.5Z" fill="#86ABFF"/>
<path d="M66.5 186C66.5349 185.162 67.0725 183.472 69.0833 183.417C69.0252 184.278 68.455 186 66.5 186Z" fill="#001B3A"/>
<rect width="25" height="25" transform="matrix(1 0 0 -1 0 181)" fill="#001B3A"/>
<path d="M3.125 177.875V181L-2.6077e-08 177.875H3.125Z" fill="#587DD1"/>
<path d="M3.125 177.875L3.125 174.75L6.25 177.875H3.125Z" fill="#587DD1"/>
<path d="M3.125 177.875H-2.6077e-08L3.125 174.75V177.875Z" fill="#86ABFF"/>
<path d="M3.125 177.875H6.25L3.125 181V177.875Z" fill="#86ABFF"/>
<path d="M3.125 165.375V168.5L-2.6077e-08 165.375H3.125Z" fill="#587DD1"/>
<path d="M3.125 165.375L3.125 162.25L6.25 165.375H3.125Z" fill="#587DD1"/>
<path d="M3.125 165.375H-2.6077e-08L3.125 162.25V165.375Z" fill="#86ABFF"/>
<path d="M3.125 165.375H6.25L3.125 168.5V165.375Z" fill="#86ABFF"/>
<path d="M15.625 177.875V181L12.5 177.875H15.625Z" fill="#587DD1"/>
<path d="M15.625 177.875V174.75L18.75 177.875H15.625Z" fill="#587DD1"/>
<path d="M15.625 177.875H12.5L15.625 174.75V177.875Z" fill="#86ABFF"/>
<path d="M15.625 177.875H18.75L15.625 181V177.875Z" fill="#86ABFF"/>
<path d="M15.625 165.375V168.5L12.5 165.375H15.625Z" fill="#587DD1"/>
<path d="M15.625 165.375V162.25L18.75 165.375H15.625Z" fill="#587DD1"/>
<path d="M15.625 165.375H12.5L15.625 162.25V165.375Z" fill="#86ABFF"/>
<path d="M15.625 165.375H18.75L15.625 168.5V165.375Z" fill="#86ABFF"/>
<path d="M9.375 171.625V174.75L6.25 171.625H9.375Z" fill="#587DD1"/>
<path d="M9.375 171.625V168.5L12.5 171.625H9.375Z" fill="#587DD1"/>
<path d="M9.375 171.625H6.25L9.375 168.5V171.625Z" fill="#86ABFF"/>
<path d="M9.375 171.625H12.5L9.375 174.75V171.625Z" fill="#86ABFF"/>
<path d="M9.375 159.125V162.25L6.25 159.125H9.375Z" fill="#587DD1"/>
<path d="M9.375 159.125V156L12.5 159.125H9.375Z" fill="#587DD1"/>
<path d="M9.375 159.125H6.25L9.375 156V159.125Z" fill="#86ABFF"/>
<path d="M9.375 159.125H12.5L9.375 162.25V159.125Z" fill="#86ABFF"/>
<path d="M21.875 171.625V174.75L18.75 171.625H21.875Z" fill="#587DD1"/>
<path d="M21.875 171.625V168.5L25 171.625H21.875Z" fill="#587DD1"/>
<path d="M21.875 171.625H18.75L21.875 168.5V171.625Z" fill="#86ABFF"/>
<path d="M21.875 171.625H25L21.875 174.75V171.625Z" fill="#86ABFF"/>
<path d="M21.875 159.125V162.25L18.75 159.125H21.875Z" fill="#587DD1"/>
<path d="M21.875 159.125V156L25 159.125H21.875Z" fill="#587DD1"/>
<path d="M21.875 159.125H18.75L21.875 156V159.125Z" fill="#86ABFF"/>
<path d="M21.875 159.125H25L21.875 162.25V159.125Z" fill="#86ABFF"/>
<path d="M9.375 177.875V181L6.25 177.875H9.375Z" fill="#587DD1"/>
<path d="M9.375 177.875V174.75L12.5 177.875H9.375Z" fill="#587DD1"/>
<path d="M9.375 177.875H6.25L9.375 174.75V177.875Z" fill="#86ABFF"/>
<path d="M9.375 177.875H12.5L9.375 181V177.875Z" fill="#86ABFF"/>
<path d="M9.375 165.375V168.5L6.25 165.375H9.375Z" fill="#587DD1"/>
<path d="M9.375 165.375V162.25L12.5 165.375H9.375Z" fill="#587DD1"/>
<path d="M9.375 165.375H6.25L9.375 162.25V165.375Z" fill="#86ABFF"/>
<path d="M9.375 165.375H12.5L9.375 168.5V165.375Z" fill="#86ABFF"/>
<path d="M21.875 177.875V181L18.75 177.875H21.875Z" fill="#587DD1"/>
<path d="M21.875 177.875V174.75L25 177.875H21.875Z" fill="#587DD1"/>
<path d="M21.875 177.875H18.75L21.875 174.75V177.875Z" fill="#86ABFF"/>
<path d="M21.875 177.875H25L21.875 181V177.875Z" fill="#86ABFF"/>
<path d="M21.875 165.375V168.5L18.75 165.375H21.875Z" fill="#587DD1"/>
<path d="M21.875 165.375V162.25L25 165.375H21.875Z" fill="#587DD1"/>
<path d="M21.875 165.375H18.75L21.875 162.25V165.375Z" fill="#86ABFF"/>
<path d="M21.875 165.375H25L21.875 168.5V165.375Z" fill="#86ABFF"/>
<path d="M3.125 171.625V174.75L-2.6077e-08 171.625H3.125Z" fill="#587DD1"/>
<path d="M3.125 171.625L3.125 168.5L6.25 171.625H3.125Z" fill="#587DD1"/>
<path d="M3.125 171.625H-2.6077e-08L3.125 168.5V171.625Z" fill="#86ABFF"/>
<path d="M3.125 171.625H6.25L3.125 174.75V171.625Z" fill="#86ABFF"/>
<path d="M3.125 159.125V162.25L-2.6077e-08 159.125H3.125Z" fill="#587DD1"/>
<path d="M3.125 159.125L3.125 156L6.25 159.125H3.125Z" fill="#587DD1"/>
<path d="M3.125 159.125H-2.6077e-08L3.125 156V159.125Z" fill="#86ABFF"/>
<path d="M3.125 159.125H6.25L3.125 162.25V159.125Z" fill="#86ABFF"/>
<path d="M15.625 171.625V174.75L12.5 171.625H15.625Z" fill="#587DD1"/>
<path d="M15.625 171.625V168.5L18.75 171.625H15.625Z" fill="#587DD1"/>
<path d="M15.625 171.625H12.5L15.625 168.5V171.625Z" fill="#86ABFF"/>
<path d="M15.625 171.625H18.75L15.625 174.75V171.625Z" fill="#86ABFF"/>
<path d="M15.625 159.125V162.25L12.5 159.125H15.625Z" fill="#587DD1"/>
<path d="M15.625 159.125V156L18.75 159.125H15.625Z" fill="#587DD1"/>
<path d="M15.625 159.125H12.5L15.625 156V159.125Z" fill="#86ABFF"/>
<path d="M15.625 159.125H18.75L15.625 162.25V159.125Z" fill="#86ABFF"/>
<rect x="206" y="206" width="25" height="25" transform="rotate(-180 206 206)" fill="#587DD1"/>
<rect x="181" y="206" width="25" height="25" transform="rotate(-180 181 206)" fill="#FF5473"/>
<rect x="131" y="206" width="28" height="25" transform="rotate(-180 131 206)" fill="#FF5473"/>
<path d="M181 183.784C186.351 183.784 190.689 188.122 190.689 193.473C190.689 198.824 186.351 203.163 181 203.163V183.784Z" fill="#001B3A"/>
<path d="M181 203.163C175.649 203.163 171.311 198.825 171.311 193.473C171.311 188.122 175.649 183.784 181 183.784L181 203.163Z" fill="#86ABFF"/>
<path d="M131 206C124.096 206 118.5 200.404 118.5 193.5C118.5 186.596 124.096 181 131 181L131 206Z" fill="#001B3A"/>
<rect x="156" y="206" width="25" height="25" transform="rotate(-180 156 206)" fill="#587DD1"/>
<path d="M152.417 200.917C152.382 201.755 151.844 203.444 149.833 203.5C149.892 202.639 150.462 200.917 152.417 200.917Z" fill="white"/>
<path d="M152.417 197.394C152.382 198.232 151.844 199.921 149.833 199.977C149.892 199.116 150.462 197.394 152.417 197.394Z" fill="#86ABFF"/>
<path d="M152.417 193.871C152.382 194.709 151.844 196.399 149.833 196.455C149.892 195.593 150.462 193.871 152.417 193.871Z" fill="#001B3A"/>
<path d="M152.417 190.348C152.382 191.186 151.844 192.876 149.833 192.932C149.892 192.071 150.462 190.348 152.417 190.348Z" fill="white"/>
<path d="M152.417 186.917C152.382 187.755 151.844 189.444 149.833 189.5C149.892 188.639 150.462 186.917 152.417 186.917Z" fill="#86ABFF"/>
<path d="M152.417 183.417C152.382 184.255 151.844 185.944 149.833 186C149.892 185.139 150.462 183.417 152.417 183.417Z" fill="#001B3A"/>
<path d="M147.25 200.917C147.215 201.755 146.677 203.444 144.667 203.5C144.725 202.639 145.295 200.917 147.25 200.917Z" fill="white"/>
<path d="M147.25 197.394C147.215 198.232 146.677 199.921 144.667 199.977C144.725 199.116 145.295 197.394 147.25 197.394Z" fill="#86ABFF"/>
<path d="M147.25 193.871C147.215 194.709 146.677 196.399 144.667 196.455C144.725 195.593 145.295 193.871 147.25 193.871Z" fill="#001B3A"/>
<path d="M147.25 190.348C147.215 191.186 146.677 192.876 144.667 192.932C144.725 192.071 145.295 190.348 147.25 190.348Z" fill="white"/>
<path d="M147.25 186.917C147.215 187.755 146.677 189.444 144.667 189.5C144.725 188.639 145.295 186.917 147.25 186.917Z" fill="#86ABFF"/>
<path d="M147.25 183.417C147.215 184.255 146.677 185.944 144.667 186C144.725 185.139 145.295 183.417 147.25 183.417Z" fill="#001B3A"/>
<path d="M142.083 200.917C142.048 201.755 141.511 203.444 139.5 203.5C139.558 202.639 140.128 200.917 142.083 200.917Z" fill="white"/>
<path d="M136.917 200.917C136.882 201.755 136.344 203.444 134.333 203.5C134.392 202.639 134.962 200.917 136.917 200.917Z" fill="white"/>
<path d="M142.083 197.394C142.048 198.232 141.511 199.921 139.5 199.977C139.558 199.116 140.128 197.394 142.083 197.394Z" fill="#86ABFF"/>
<path d="M136.917 197.394C136.882 198.232 136.344 199.921 134.333 199.977C134.392 199.116 134.962 197.394 136.917 197.394Z" fill="#86ABFF"/>
<path d="M142.083 193.871C142.048 194.709 141.511 196.399 139.5 196.455C139.558 195.593 140.128 193.871 142.083 193.871Z" fill="#001B3A"/>
<path d="M136.917 193.871C136.882 194.709 136.344 196.399 134.333 196.455C134.392 195.593 134.962 193.871 136.917 193.871Z" fill="#001B3A"/>
<path d="M142.083 190.348C142.048 191.186 141.511 192.876 139.5 192.932C139.558 192.071 140.128 190.348 142.083 190.348Z" fill="white"/>
<path d="M142.083 186.917C142.048 187.755 141.511 189.444 139.5 189.5C139.558 188.639 140.128 186.917 142.083 186.917Z" fill="#86ABFF"/>
<path d="M142.083 183.417C142.048 184.255 141.511 185.944 139.5 186C139.558 185.139 140.128 183.417 142.083 183.417Z" fill="#001B3A"/>
<path d="M136.917 190.348C136.882 191.186 136.344 192.876 134.333 192.932C134.392 192.071 134.962 190.348 136.917 190.348Z" fill="white"/>
<path d="M136.917 186.917C136.882 187.755 136.344 189.444 134.333 189.5C134.392 188.639 134.962 186.917 136.917 186.917Z" fill="#86ABFF"/>
<path d="M136.917 183.417C136.882 184.255 136.344 185.944 134.333 186C134.392 185.139 134.962 183.417 136.917 183.417Z" fill="#001B3A"/>
<path d="M155 203.5C154.965 202.662 154.427 200.972 152.417 200.917C152.475 201.778 153.045 203.5 155 203.5Z" fill="#FF5473"/>
<path d="M155 199.977C154.965 199.139 154.427 197.45 152.417 197.394C152.475 198.255 153.045 199.977 155 199.977Z" fill="#FF5473"/>
<path d="M155 196.455C154.965 195.617 154.427 193.927 152.417 193.871C152.475 194.732 153.045 196.455 155 196.455Z" fill="#FF5473"/>
<path d="M155 192.932C154.965 192.094 154.427 190.404 152.417 190.349C152.475 191.21 153.045 192.932 155 192.932Z" fill="#FF5473"/>
<path d="M155 189.5C154.965 188.662 154.427 186.972 152.417 186.917C152.475 187.778 153.045 189.5 155 189.5Z" fill="#FF5473"/>
<path d="M155 186C154.965 185.162 154.427 183.472 152.417 183.417C152.475 184.278 153.045 186 155 186Z" fill="#FF5473"/>
<path d="M149.833 203.5C149.798 202.662 149.261 200.972 147.25 200.917C147.308 201.778 147.878 203.5 149.833 203.5Z" fill="white"/>
<path d="M149.833 199.977C149.798 199.139 149.261 197.45 147.25 197.394C147.308 198.255 147.878 199.977 149.833 199.977Z" fill="#86ABFF"/>
<path d="M149.833 196.455C149.798 195.617 149.261 193.927 147.25 193.871C147.308 194.732 147.878 196.455 149.833 196.455Z" fill="#001B3A"/>
<path d="M149.833 192.932C149.798 192.094 149.261 190.404 147.25 190.349C147.308 191.21 147.878 192.932 149.833 192.932Z" fill="white"/>
<path d="M149.833 189.5C149.798 188.662 149.261 186.972 147.25 186.917C147.308 187.778 147.878 189.5 149.833 189.5Z" fill="#86ABFF"/>
<path d="M149.833 186C149.798 185.162 149.261 183.472 147.25 183.417C147.308 184.278 147.878 186 149.833 186Z" fill="#001B3A"/>
<path d="M144.667 203.5C144.632 202.662 144.094 200.972 142.083 200.917C142.142 201.778 142.712 203.5 144.667 203.5Z" fill="white"/>
<path d="M139.5 203.5C139.465 202.662 138.927 200.972 136.917 200.917C136.975 201.778 137.545 203.5 139.5 203.5Z" fill="white"/>
<path d="M144.667 199.977C144.632 199.139 144.094 197.45 142.083 197.394C142.142 198.255 142.712 199.977 144.667 199.977Z" fill="#86ABFF"/>
<path d="M139.5 199.977C139.465 199.139 138.927 197.45 136.917 197.394C136.975 198.255 137.545 199.977 139.5 199.977Z" fill="#86ABFF"/>
<path d="M144.667 196.455C144.632 195.617 144.094 193.927 142.083 193.871C142.142 194.732 142.712 196.455 144.667 196.455Z" fill="#001B3A"/>
<path d="M139.5 196.455C139.465 195.617 138.927 193.927 136.917 193.871C136.975 194.732 137.545 196.455 139.5 196.455Z" fill="#001B3A"/>
<path d="M144.667 192.932C144.632 192.094 144.094 190.404 142.083 190.349C142.142 191.21 142.712 192.932 144.667 192.932Z" fill="white"/>
<path d="M144.667 189.5C144.632 188.662 144.094 186.972 142.083 186.917C142.142 187.778 142.712 189.5 144.667 189.5Z" fill="#86ABFF"/>
<path d="M144.667 186C144.632 185.162 144.094 183.472 142.083 183.417C142.142 184.278 142.712 186 144.667 186Z" fill="#001B3A"/>
<path d="M139.5 192.932C139.465 192.094 138.927 190.404 136.917 190.349C136.975 191.21 137.545 192.932 139.5 192.932Z" fill="white"/>
<path d="M139.5 189.5C139.465 188.662 138.927 186.972 136.917 186.917C136.975 187.778 137.545 189.5 139.5 189.5Z" fill="#86ABFF"/>
<path d="M139.5 186C139.465 185.162 138.927 183.472 136.917 183.417C136.975 184.278 137.545 186 139.5 186Z" fill="#001B3A"/>
<rect x="206" y="181" width="25" height="25" transform="rotate(-180 206 181)" fill="#001B3A"/>
<path d="M202.875 177.875V181L206 177.875H202.875Z" fill="#587DD1"/>
<path d="M202.875 177.875V174.75L199.75 177.875H202.875Z" fill="#587DD1"/>
<path d="M202.875 177.875H206L202.875 174.75V177.875Z" fill="#86ABFF"/>
<path d="M202.875 177.875H199.75L202.875 181V177.875Z" fill="#86ABFF"/>
<path d="M202.875 165.375V168.5L206 165.375H202.875Z" fill="#587DD1"/>
<path d="M202.875 165.375V162.25L199.75 165.375H202.875Z" fill="#587DD1"/>
<path d="M202.875 165.375H206L202.875 162.25V165.375Z" fill="#86ABFF"/>
<path d="M202.875 165.375H199.75L202.875 168.5V165.375Z" fill="#86ABFF"/>
<path d="M190.375 177.875V181L193.5 177.875H190.375Z" fill="#587DD1"/>
<path d="M190.375 177.875V174.75L187.25 177.875H190.375Z" fill="#587DD1"/>
<path d="M190.375 177.875H193.5L190.375 174.75V177.875Z" fill="#86ABFF"/>
<path d="M190.375 177.875H187.25L190.375 181V177.875Z" fill="#86ABFF"/>
<path d="M190.375 165.375V168.5L193.5 165.375H190.375Z" fill="#587DD1"/>
<path d="M190.375 165.375V162.25L187.25 165.375H190.375Z" fill="#587DD1"/>
<path d="M190.375 165.375H193.5L190.375 162.25V165.375Z" fill="#86ABFF"/>
<path d="M190.375 165.375H187.25L190.375 168.5V165.375Z" fill="#86ABFF"/>
<path d="M196.625 171.625V174.75L199.75 171.625H196.625Z" fill="#587DD1"/>
<path d="M196.625 171.625V168.5L193.5 171.625H196.625Z" fill="#587DD1"/>
<path d="M196.625 171.625H199.75L196.625 168.5V171.625Z" fill="#86ABFF"/>
<path d="M196.625 171.625H193.5L196.625 174.75V171.625Z" fill="#86ABFF"/>
<path d="M196.625 159.125V162.25L199.75 159.125H196.625Z" fill="#587DD1"/>
<path d="M196.625 159.125V156L193.5 159.125H196.625Z" fill="#587DD1"/>
<path d="M196.625 159.125H199.75L196.625 156V159.125Z" fill="#86ABFF"/>
<path d="M196.625 159.125H193.5L196.625 162.25V159.125Z" fill="#86ABFF"/>
<path d="M184.125 171.625V174.75L187.25 171.625H184.125Z" fill="#587DD1"/>
<path d="M184.125 171.625V168.5L181 171.625H184.125Z" fill="#587DD1"/>
<path d="M184.125 171.625H187.25L184.125 168.5V171.625Z" fill="#86ABFF"/>
<path d="M184.125 171.625H181L184.125 174.75V171.625Z" fill="#86ABFF"/>
<path d="M184.125 159.125V162.25L187.25 159.125H184.125Z" fill="#587DD1"/>
<path d="M184.125 159.125V156L181 159.125H184.125Z" fill="#587DD1"/>
<path d="M184.125 159.125H187.25L184.125 156V159.125Z" fill="#86ABFF"/>
<path d="M184.125 159.125H181L184.125 162.25V159.125Z" fill="#86ABFF"/>
<path d="M196.625 177.875V181L199.75 177.875H196.625Z" fill="#587DD1"/>
<path d="M196.625 177.875V174.75L193.5 177.875H196.625Z" fill="#587DD1"/>
<path d="M196.625 177.875H199.75L196.625 174.75V177.875Z" fill="#86ABFF"/>
<path d="M196.625 177.875H193.5L196.625 181V177.875Z" fill="#86ABFF"/>
<path d="M196.625 165.375V168.5L199.75 165.375H196.625Z" fill="#587DD1"/>
<path d="M196.625 165.375V162.25L193.5 165.375H196.625Z" fill="#587DD1"/>
<path d="M196.625 165.375H199.75L196.625 162.25V165.375Z" fill="#86ABFF"/>
<path d="M196.625 165.375H193.5L196.625 168.5V165.375Z" fill="#86ABFF"/>
<path d="M184.125 177.875V181L187.25 177.875H184.125Z" fill="#587DD1"/>
<path d="M184.125 177.875V174.75L181 177.875H184.125Z" fill="#587DD1"/>
<path d="M184.125 177.875H187.25L184.125 174.75V177.875Z" fill="#86ABFF"/>
<path d="M184.125 177.875H181L184.125 181V177.875Z" fill="#86ABFF"/>
<path d="M184.125 165.375V168.5L187.25 165.375H184.125Z" fill="#587DD1"/>
<path d="M184.125 165.375V162.25L181 165.375H184.125Z" fill="#587DD1"/>
<path d="M184.125 165.375H187.25L184.125 162.25V165.375Z" fill="#86ABFF"/>
<path d="M184.125 165.375H181L184.125 168.5V165.375Z" fill="#86ABFF"/>
<path d="M202.875 171.625V174.75L206 171.625H202.875Z" fill="#587DD1"/>
<path d="M202.875 171.625V168.5L199.75 171.625H202.875Z" fill="#587DD1"/>
<path d="M202.875 171.625H206L202.875 168.5V171.625Z" fill="#86ABFF"/>
<path d="M202.875 171.625H199.75L202.875 174.75V171.625Z" fill="#86ABFF"/>
<path d="M202.875 159.125V162.25L206 159.125H202.875Z" fill="#587DD1"/>
<path d="M202.875 159.125V156L199.75 159.125H202.875Z" fill="#587DD1"/>
<path d="M202.875 159.125H206L202.875 156V159.125Z" fill="#86ABFF"/>
<path d="M202.875 159.125H199.75L202.875 162.25V159.125Z" fill="#86ABFF"/>
<path d="M190.375 171.625V174.75L193.5 171.625H190.375Z" fill="#587DD1"/>
<path d="M190.375 171.625V168.5L187.25 171.625H190.375Z" fill="#587DD1"/>
<path d="M190.375 171.625H193.5L190.375 168.5V171.625Z" fill="#86ABFF"/>
<path d="M190.375 171.625H187.25L190.375 174.75V171.625Z" fill="#86ABFF"/>
<path d="M190.375 159.125V162.25L193.5 159.125H190.375Z" fill="#587DD1"/>
<path d="M190.375 159.125V156L187.25 159.125H190.375Z" fill="#587DD1"/>
<path d="M190.375 159.125H193.5L190.375 156V159.125Z" fill="#86ABFF"/>
<path d="M190.375 159.125H187.25L190.375 162.25V159.125Z" fill="#86ABFF"/>
<path d="M102.75 181L102.75 206L89 181H102.75Z" fill="#001B3A"/>
<path d="M102.75 181L102.75 156L116.5 181H102.75Z" fill="#001B3A"/>
<path d="M102.75 181H89L102.75 156L102.75 181Z" fill="#587DD1"/>
<path d="M102.75 181H116.5L102.75 206L102.75 181Z" fill="#587DD1"/>
<path d="M102.75 181C102.858 183.595 104.523 188.827 110.75 189C110.57 186.333 108.804 181 102.75 181Z" fill="#86ABFF"/>
<path d="M94.75 189C94.8581 186.405 96.523 181.173 102.75 181C102.57 183.667 100.804 189 94.75 189Z" fill="#86ABFF"/>
<path d="M102.75 181C102.642 178.406 100.977 173.173 94.75 173C94.9302 175.667 96.6959 181 102.75 181Z" fill="#86ABFF"/>
<path d="M110.75 173C110.642 175.595 108.977 180.827 102.75 181C102.93 178.333 104.696 173 110.75 173Z" fill="#86ABFF"/>
<rect y="50" width="25" height="25" fill="#587DD1"/>
<path d="M12.5 66.5C12.6149 63.7432 14.3838 58.1838 21 58C20.8086 60.8333 18.9324 66.5 12.5 66.5Z" fill="white"/>
<path d="M4 58C4.11486 60.7568 5.88378 66.3162 12.5 66.5C12.3086 63.6667 10.4324 58 4 58Z" fill="white"/>
<rect y="75" width="25" height="56" fill="#001B3A"/>
<rect x="181" y="75" width="25" height="56" fill="#001B3A"/>
<rect x="181" y="50" width="25" height="25" fill="#587DD1"/>
<path d="M193.5 66.5C193.615 63.7432 195.384 58.1838 202 58C201.809 60.8333 199.932 66.5 193.5 66.5Z" fill="white"/>
<path d="M185 58C185.115 60.7568 186.884 66.3162 193.5 66.5C193.309 63.6667 191.432 58 185 58Z" fill="white"/>
<rect y="131" width="25" height="25" fill="#587DD1"/>
<path d="M12.5 147.5C12.6149 144.743 14.3838 139.184 21 139C20.8086 141.833 18.9324 147.5 12.5 147.5Z" fill="white"/>
<path d="M4 139C4.11486 141.757 5.88378 147.316 12.5 147.5C12.3086 144.667 10.4324 139 4 139Z" fill="white"/>
<rect x="181" y="131" width="25" height="25" fill="#587DD1"/>
<path d="M193.5 147.5C193.615 144.743 195.384 139.184 202 139C201.809 141.833 199.932 147.5 193.5 147.5Z" fill="white"/>
<path d="M185 139C185.115 141.757 186.884 147.316 193.5 147.5C193.309 144.667 191.432 139 185 139Z" fill="white"/>
<path d="M12.0555 101.5L12.0555 87L3.99999 101.5H12.0555Z" fill="white"/>
<path d="M12.0555 101.5L12.0555 116L20.1111 101.5H12.0555Z" fill="white"/>
<path d="M12.0555 101.5H3.99999L12.0555 116L12.0555 101.5Z" fill="#86ABFF"/>
<path d="M12.0555 101.5H20.1111L12.0555 87L12.0555 101.5Z" fill="#86ABFF"/>
<path d="M12.0555 94.25L12.0555 87L8.02776 94.25H12.0555Z" fill="#FF5473"/>
<path d="M12.0555 94.25L12.0555 101.5L16.0833 94.25H12.0555Z" fill="#FF5473"/>
<path d="M12.0555 94.25H8.02776L12.0555 101.5L12.0555 94.25Z" fill="#587DD1"/>
<path d="M12.0555 94.25H16.0833L12.0555 87L12.0555 94.25Z" fill="#587DD1"/>
<path d="M12.0555 108.75L12.0555 101.5L8.02776 108.75H12.0555Z" fill="#FF5473"/>
<path d="M12.0555 108.75L12.0555 116L16.0833 108.75H12.0555Z" fill="#FF5473"/>
<path d="M12.0555 108.75H8.02776L12.0555 116L12.0555 108.75Z" fill="#587DD1"/>
<path d="M12.0555 108.75H16.0833L12.0555 101.5L12.0555 108.75Z" fill="#587DD1"/>
<path d="M194.056 101.5V87L186 101.5H194.056Z" fill="white"/>
<path d="M194.056 101.5V116L202.111 101.5H194.056Z" fill="white"/>
<path d="M194.056 101.5H186L194.056 116V101.5Z" fill="#86ABFF"/>
<path d="M194.056 101.5H202.111L194.056 87V101.5Z" fill="#86ABFF"/>
<path d="M194.056 94.25V87L190.028 94.25H194.056Z" fill="#FF5473"/>
<path d="M194.056 94.25V101.5L198.083 94.25H194.056Z" fill="#FF5473"/>
<path d="M194.056 94.25H190.028L194.056 101.5V94.25Z" fill="#587DD1"/>
<path d="M194.056 94.25H198.083L194.056 87V94.25Z" fill="#587DD1"/>
<path d="M194.056 108.75V101.5L190.028 108.75H194.056Z" fill="#FF5473"/>
<path d="M194.056 108.75V116L198.083 108.75H194.056Z" fill="#FF5473"/>
<path d="M194.056 108.75H190.028L194.056 116V108.75Z" fill="#587DD1"/>
<path d="M194.056 108.75H198.083L194.056 101.5V108.75Z" fill="#587DD1"/>
</svg>
