<?xml version="1.0" encoding="utf-8"?>
<!-- Generator: Adobe Illustrator 25.2.3, SVG Export Plug-In . SVG Version: 6.00 Build 0)  -->
<svg version="1.1" id="Laag_1" xmlns="http://www.w3.org/2000/svg" xmlns:xlink="http://www.w3.org/1999/xlink" x="0px" y="0px"
	 viewBox="0 0 100 100" style="enable-background:new 0 0 100 100;" xml:space="preserve">
<style type="text/css">
	.st0{fill:#009B3A;}
	.st1{fill:#003366;}
	.st2{fill:#FFFFFF;}
	.st3{fill:#CC0033;}
	.st4{fill:#FFFFFF;stroke:#FFFFFF;stroke-width:0.25;stroke-linejoin:round;stroke-miterlimit:10;}
	.st5{fill:none;stroke:#FFFFFF;stroke-width:0.35;stroke-miterlimit:10;}
	.st6{fill:none;stroke:#FFFFFF;stroke-width:0.5;stroke-linecap:round;stroke-miterlimit:10;}
	.st7{fill:none;stroke:#FFFFFF;stroke-linecap:round;stroke-miterlimit:10;}
	.st8{fill:none;stroke:#FFFFFF;stroke-width:0.75;stroke-linecap:round;stroke-miterlimit:10;}
	.st9{fill:none;stroke:#FFFFFF;stroke-width:0.5;stroke-linecap:round;stroke-linejoin:bevel;stroke-miterlimit:10;}
	.st10{fill:none;stroke:#FFFFFF;stroke-width:0.25;stroke-linecap:round;stroke-miterlimit:10;}
	.st11{fill:none;stroke:#CC0033;stroke-width:2;stroke-miterlimit:10;}
	.st12{fill:none;stroke:#CC0033;stroke-width:0.25;stroke-miterlimit:10;}
</style>
<g>
	<path class="st0" d="M87.4,0.1"/>
	<path class="st1" d="M83.3,0.9"/>
</g>
<rect class="st2" width="99.9" height="99.9"/>
<g>
	<rect x="0.2" y="0.3" class="st3" width="12" height="12"/>
	<path class="st4" d="M1.8,3.3C3,3.4,4.3,3.4,5.7,3.4c1.4,0,2.8,0,4.1-0.1c-0.2,0.8-0.4,1.5-0.6,2c-0.4,0.9-0.8,1.5-1.1,2
		C7.8,7.9,7.5,8.2,7.3,8.5c0.1,0.4,0.2,0.8,0.3,1.1C7.2,9.7,6.6,9.8,6,9.8C5.2,9.8,4.6,9.7,4,9.6C4.1,9.3,4.2,9,4.3,8.7
		c-0.2-0.2-0.4-0.6-0.7-1C2.4,5.8,2.2,5.3,2.1,5.1C1.9,4.7,1.8,4.1,1.8,3.3z"/>
	<path class="st5" d="M8.3,7.4c1.1-0.4,1.8-1,2.2-1.3c0.1-0.1,0.4-0.4,0.7-0.8c0.1-0.3,0.7-1.1,0.3-1.5c-0.2-0.2-0.6-0.2-0.7-0.2
		c-0.2,0.2-0.5,0.3-0.7,0.5C9.9,4.4,9.7,4.6,9.4,4.8C9,5.7,8.6,6.6,8.3,7.4z"/>
</g>
<g>
	<rect x="88" y="0.3" class="st3" width="12" height="12"/>
	<path class="st4" d="M89.6,3.3c1.2,0.1,2.6,0.1,3.9,0.1c1.4,0,2.8,0,4.1-0.1c-0.2,0.8-0.4,1.5-0.6,2c-0.4,0.9-0.8,1.5-1.1,2
		c-0.3,0.5-0.6,0.8-0.8,1.1c0.1,0.4,0.2,0.8,0.3,1.1c-0.5,0.1-1,0.1-1.7,0.1c-0.7,0-1.4-0.1-1.9-0.2C91.9,9.3,92,9,92.1,8.7
		c-0.2-0.2-0.4-0.6-0.7-1c-1.2-1.8-1.4-2.3-1.5-2.6C89.7,4.7,89.6,4.1,89.6,3.3z"/>
	<path class="st5" d="M96,7.4c1.1-0.4,1.8-1,2.2-1.3c0.1-0.1,0.4-0.4,0.7-0.8c0.1-0.3,0.7-1.1,0.3-1.5c-0.2-0.2-0.6-0.2-0.7-0.2
		c-0.2,0.2-0.5,0.3-0.7,0.5c-0.2,0.2-0.5,0.5-0.7,0.7C96.8,5.7,96.4,6.6,96,7.4z"/>
</g>
<g>
	<g>
		<rect x="12.9" y="0.3" class="st2" width="12" height="12"/>
		<path class="st3" d="M16.6,9.2c-0.7,1-1.5,2-2.2,3c-0.7-1-1.3-2-2-3c0.7-0.9,1.4-1.9,2.1-2.8C15.3,7.3,15.9,8.2,16.6,9.2z"/>
		<path class="st3" d="M16.8,3.3c-0.7,1-1.5,2-2.2,3c-0.7-1-1.3-2-2-3c0.7-0.9,1.4-1.9,2.1-2.8C15.4,1.4,16.1,2.4,16.8,3.3z"/>
		<path class="st3" d="M20.8,9.3c-0.7,1-1.5,2-2.2,3c-0.7-1-1.3-2-2-3c0.7-0.9,1.4-1.9,2.1-2.8C19.4,7.4,20.1,8.4,20.8,9.3z"/>
		<path class="st3" d="M20.9,3.4c-0.7,1-1.5,2-2.2,3c-0.7-1-1.3-2-2-3c0.7-0.9,1.4-1.9,2.1-2.8C19.6,1.5,20.3,2.5,20.9,3.4z"/>
		<path class="st3" d="M25,9.4c-0.7,1-1.5,2-2.2,3c-0.7-1-1.3-2-2-3c0.7-0.9,1.4-1.9,2.1-2.8C23.6,7.4,24.3,8.4,25,9.4z"/>
	</g>
	<path class="st3" d="M25.1,3.6c-0.7,1-1.5,2-2.2,3c-0.7-1-1.3-2-2-3c0.7-0.9,1.4-1.9,2.1-2.8C23.7,1.6,24.4,2.6,25.1,3.6z"/>
</g>
<g>
	<g>
		<g>
			<rect x="44.1" y="0.3" class="st3" width="12" height="12"/>
			<line class="st6" x1="44.1" y1="0.6" x2="56.1" y2="12.3"/>
			<line class="st7" x1="44.5" y1="11.9" x2="55.8" y2="0.7"/>
			<line class="st8" x1="44" y1="10.3" x2="54" y2="0.4"/>
			<line class="st6" x1="45.6" y1="0.3" x2="56.1" y2="10.7"/>
			<line class="st9" x1="44" y1="7.7" x2="48.5" y2="12.3"/>
			<line class="st6" x1="44" y1="6.1" x2="50.1" y2="12.4"/>
		</g>
		<line class="st6" x1="52.7" y1="0.4" x2="56.1" y2="4"/>
	</g>
	<line class="st10" x1="44.3" y1="3.5" x2="47.9" y2="0.3"/>
</g>
<g>
	<rect x="32.1" y="0.3" class="st2" width="12" height="12"/>
	<line class="st11" x1="38.1" y1="0.3" x2="38.1" y2="12.3"/>
	<line class="st11" x1="32.1" y1="6.5" x2="44.1" y2="6.5"/>
</g>
<g>
	<g>
		<path class="st3" d="M30.8,12.4c0-3.2,0-6.4,0-9.6c0,0,0-0.1-0.1-0.2c-0.1-0.1-0.2-0.1-0.2-0.1c0-0.1-0.1-0.2-0.1-0.4
			c0-0.1,0.1-0.2,0.1-0.3c0.2,0,0.3-0.1,0.5-0.1c0-0.1,0-0.1,0-0.2c0-0.1,0-0.2,0-0.2c-0.2-0.2-0.4-0.4-0.7-0.5
			c-0.1-0.1-0.3-0.2-0.6-0.3c-0.5-0.2-0.9-0.2-1.1-0.2c-0.3,0-0.7,0-1.1,0.2c-0.4,0.1-0.7,0.3-0.9,0.4c-0.1,0.1-0.3,0.3-0.4,0.4
			c0,0,0,0.1,0,0.2c0,0.1,0,0.2,0.1,0.2c0.1,0,0.2,0,0.3,0.1c0,0.1,0,0.2,0,0.3c0,0.1,0,0.3,0,0.4c0,0-0.1,0-0.2,0.1
			c-0.1,0.1-0.1,0.2-0.1,0.2c0,3.2,0,6.4,0,9.6c0.7,0.1,1.4,0.1,2.1,0.1C29.3,12.5,30.1,12.4,30.8,12.4z"/>
		<rect x="27.3" y="3.3" class="st2" width="2.6" height="1.8"/>
		<rect x="27.3" y="9.6" class="st2" width="2.6" height="1.8"/>
		<rect x="27.3" y="7.5" class="st2" width="2.6" height="1.8"/>
		<rect x="27.3" y="5.4" class="st2" width="2.6" height="1.8"/>
	</g>
	<line class="st12" x1="28.6" y1="3.3" x2="28.6" y2="11.4"/>
</g>
<g>
	<g>
		<rect x="75.7" y="0.3" class="st2" width="12" height="12"/>
		<path class="st3" d="M79.5,9.2c-0.7,1-1.5,2-2.2,3c-0.7-1-1.3-2-2-3c0.7-0.9,1.4-1.9,2.1-2.8C78.1,7.3,78.8,8.2,79.5,9.2z"/>
		<path class="st3" d="M79.6,3.3c-0.7,1-1.5,2-2.2,3c-0.7-1-1.3-2-2-3c0.7-0.9,1.4-1.9,2.1-2.8C78.3,1.4,78.9,2.4,79.6,3.3z"/>
		<path class="st3" d="M83.7,9.3c-0.7,1-1.5,2-2.2,3c-0.7-1-1.3-2-2-3c0.7-0.9,1.4-1.9,2.1-2.8C82.3,7.4,83,8.4,83.7,9.3z"/>
		<path class="st3" d="M83.8,3.4c-0.7,1-1.5,2-2.2,3c-0.7-1-1.3-2-2-3c0.7-0.9,1.4-1.9,2.1-2.8C82.4,1.5,83.1,2.5,83.8,3.4z"/>
		<path class="st3" d="M87.9,9.4c-0.7,1-1.5,2-2.2,3c-0.7-1-1.3-2-2-3c0.7-0.9,1.4-1.9,2.1-2.8C86.5,7.4,87.2,8.4,87.9,9.4z"/>
	</g>
	<path class="st3" d="M88,3.6c-0.7,1-1.5,2-2.2,3c-0.7-1-1.3-2-2-3c0.7-0.9,1.4-1.9,2.1-2.8C86.6,1.6,87.3,2.6,88,3.6z"/>
</g>
<g>
	<g>
		<path class="st3" d="M73.9,12.4c0-3.2,0-6.4,0-9.6c0,0,0-0.1-0.1-0.2c-0.1-0.1-0.2-0.1-0.2-0.1c0-0.1-0.1-0.2-0.1-0.4
			c0-0.1,0.1-0.2,0.1-0.3c0.2,0,0.3-0.1,0.5-0.1c0-0.1,0-0.1,0-0.2c0-0.1,0-0.2,0-0.2c-0.2-0.2-0.4-0.4-0.7-0.5
			c-0.1-0.1-0.3-0.2-0.6-0.3c-0.5-0.2-0.9-0.2-1.1-0.2c-0.3,0-0.7,0-1.1,0.2c-0.4,0.1-0.7,0.3-0.9,0.4c-0.1,0.1-0.3,0.3-0.4,0.4
			c0,0,0,0.1,0,0.2c0,0.1,0,0.2,0.1,0.2c0.1,0,0.2,0,0.3,0.1c0,0.1,0,0.2,0,0.3c0,0.1,0,0.3,0,0.4c0,0-0.1,0-0.2,0.1
			c-0.1,0.1-0.1,0.2-0.1,0.2c0,3.2,0,6.4,0,9.6c0.7,0.1,1.4,0.1,2.1,0.1C72.4,12.5,73.2,12.4,73.9,12.4z"/>
		<rect x="70.4" y="3.3" class="st2" width="2.6" height="1.8"/>
		<rect x="70.4" y="9.6" class="st2" width="2.6" height="1.8"/>
		<rect x="70.4" y="7.5" class="st2" width="2.6" height="1.8"/>
		<rect x="70.4" y="5.4" class="st2" width="2.6" height="1.8"/>
	</g>
	<line class="st12" x1="71.7" y1="3.3" x2="71.7" y2="11.4"/>
</g>
<g>
	<rect x="56.1" y="0.3" class="st2" width="12" height="12"/>
	<line class="st11" x1="62.1" y1="0.3" x2="62.1" y2="12.3"/>
	<line class="st11" x1="56.1" y1="6.5" x2="68.1" y2="6.5"/>
</g>
<g>
	<rect x="0.1" y="87.9" class="st3" width="12" height="12"/>
	<path class="st4" d="M1.7,96.9c1.2-0.1,2.6-0.1,3.9-0.1c1.4,0,2.8,0,4.1,0.1c-0.2-0.8-0.4-1.5-0.6-2c-0.4-0.9-0.8-1.5-1.1-2
		c-0.3-0.5-0.6-0.8-0.8-1.1c0.1-0.4,0.2-0.8,0.3-1.1c-0.5-0.1-1-0.1-1.7-0.1c-0.7,0-1.4,0.1-1.9,0.2c0.1,0.3,0.2,0.6,0.3,0.9
		c-0.2,0.2-0.4,0.6-0.7,1C2.2,94.4,2,94.9,2,95.1C1.8,95.5,1.7,96.1,1.7,96.9z"/>
	<path class="st5" d="M8.1,92.8c1.1,0.4,1.8,1,2.2,1.3c0.1,0.1,0.4,0.4,0.7,0.8c0.1,0.3,0.7,1.1,0.3,1.5c-0.2,0.2-0.6,0.2-0.7,0.2
		c-0.2-0.2-0.5-0.3-0.7-0.5c-0.2-0.2-0.5-0.5-0.7-0.7C8.9,94.5,8.5,93.6,8.1,92.8z"/>
</g>
<g>
	<rect x="87.9" y="87.9" class="st3" width="12" height="12"/>
	<path class="st4" d="M89.5,96.9c1.2-0.1,2.6-0.1,3.9-0.1c1.4,0,2.8,0,4.1,0.1c-0.2-0.8-0.4-1.5-0.6-2c-0.4-0.9-0.8-1.5-1.1-2
		c-0.3-0.5-0.6-0.8-0.8-1.1c0.1-0.4,0.2-0.8,0.3-1.1c-0.5-0.1-1-0.1-1.7-0.1c-0.7,0-1.4,0.1-1.9,0.2c0.1,0.3,0.2,0.6,0.3,0.9
		c-0.2,0.2-0.4,0.6-0.7,1c-1.2,1.8-1.4,2.3-1.5,2.6C89.6,95.5,89.5,96.1,89.5,96.9z"/>
	<path class="st5" d="M95.9,92.8c1.1,0.4,1.8,1,2.2,1.3c0.1,0.1,0.4,0.4,0.7,0.8c0.1,0.3,0.7,1.1,0.3,1.5c-0.2,0.2-0.6,0.2-0.7,0.2
		c-0.2-0.2-0.5-0.3-0.7-0.5c-0.2-0.2-0.5-0.5-0.7-0.7C96.7,94.5,96.3,93.6,95.9,92.8z"/>
</g>
<g>
	<g>
		<rect x="12.7" y="87.9" class="st2" width="12" height="12"/>
		<path class="st3" d="M16.5,91c-0.7-1-1.5-2-2.2-3c-0.7,1-1.3,2-2,3c0.7,0.9,1.4,1.9,2.1,2.8C15.2,92.9,15.8,91.9,16.5,91z"/>
		<path class="st3" d="M16.7,96.9c-0.7-1-1.5-2-2.2-3c-0.7,1-1.3,2-2,3c0.7,0.9,1.4,1.9,2.1,2.8C15.3,98.8,16,97.8,16.7,96.9z"/>
		<path class="st3" d="M20.7,90.9c-0.7-1-1.5-2-2.2-3c-0.7,1-1.3,2-2,3c0.7,0.9,1.4,1.9,2.1,2.8C19.3,92.8,20,91.8,20.7,90.9z"/>
		<path class="st3" d="M20.8,96.8c-0.7-1-1.5-2-2.2-3c-0.7,1-1.3,2-2,3c0.7,0.9,1.4,1.9,2.1,2.8C19.5,98.7,20.1,97.7,20.8,96.8z"/>
		<path class="st3" d="M24.9,90.8c-0.7-1-1.5-2-2.2-3c-0.7,1-1.3,2-2,3c0.7,0.9,1.4,1.9,2.1,2.8C23.5,92.7,24.2,91.8,24.9,90.8z"/>
	</g>
	<path class="st3" d="M25,96.6c-0.7-1-1.5-2-2.2-3c-0.7,1-1.3,2-2,3c0.7,0.9,1.4,1.9,2.1,2.8C23.6,98.6,24.3,97.6,25,96.6z"/>
</g>
<g>
	<g>
		<g>
			<rect x="44" y="87.9" class="st3" width="12" height="12"/>
			<line class="st6" x1="44" y1="99.6" x2="56" y2="87.9"/>
			<line class="st7" x1="44.4" y1="88.2" x2="55.7" y2="99.4"/>
			<line class="st8" x1="43.9" y1="89.9" x2="53.9" y2="99.8"/>
			<line class="st6" x1="45.5" y1="99.9" x2="56" y2="89.5"/>
			<line class="st9" x1="43.9" y1="92.5" x2="48.4" y2="87.9"/>
			<line class="st6" x1="43.9" y1="94.1" x2="50" y2="87.8"/>
		</g>
		<line class="st6" x1="52.6" y1="99.8" x2="56" y2="96.2"/>
	</g>
	<line class="st10" x1="44.2" y1="96.7" x2="47.8" y2="99.9"/>
</g>
<g>
	<rect x="32" y="87.9" class="st2" width="12" height="12"/>
	<line class="st11" x1="38" y1="99.9" x2="38" y2="87.9"/>
	<line class="st11" x1="32" y1="93.7" x2="44" y2="93.7"/>
</g>
<g>
	<g>
		<path class="st3" d="M30.7,87.8c0,3.2,0,6.4,0,9.6c0,0,0,0.1-0.1,0.2c-0.1,0.1-0.2,0.1-0.2,0.1c0,0.1-0.1,0.2-0.1,0.4
			c0,0.1,0.1,0.2,0.1,0.3c0.2,0,0.3,0.1,0.5,0.1c0,0.1,0,0.1,0,0.2c0,0.1,0,0.2,0,0.2c-0.2,0.2-0.4,0.4-0.7,0.5
			c-0.1,0.1-0.3,0.2-0.6,0.3c-0.5,0.2-0.9,0.2-1.1,0.2c-0.3,0-0.7,0-1.1-0.2c-0.4-0.1-0.7-0.3-0.9-0.4c-0.1-0.1-0.3-0.3-0.4-0.4
			c0,0,0-0.1,0-0.2c0-0.1,0-0.2,0.1-0.2c0.1,0,0.2,0,0.3-0.1c0-0.1,0-0.2,0-0.3c0-0.1,0-0.3,0-0.4c0,0-0.1,0-0.2-0.1
			c-0.1-0.1-0.1-0.2-0.1-0.2c0-3.2,0-6.4,0-9.6c0.7-0.1,1.4-0.1,2.1-0.1C29.2,87.7,30,87.8,30.7,87.8z"/>
		<rect x="27.2" y="95.1" class="st2" width="2.6" height="1.8"/>
		<rect x="27.2" y="88.8" class="st2" width="2.6" height="1.8"/>
		<rect x="27.2" y="90.9" class="st2" width="2.6" height="1.8"/>
		<rect x="27.2" y="93" class="st2" width="2.6" height="1.8"/>
	</g>
	<line class="st12" x1="28.5" y1="96.9" x2="28.5" y2="88.8"/>
</g>
<g>
	<g>
		<rect x="75.6" y="87.9" class="st2" width="12" height="12"/>
		<path class="st3" d="M79.4,91c-0.7-1-1.5-2-2.2-3c-0.7,1-1.3,2-2,3c0.7,0.9,1.4,1.9,2.1,2.8C78,92.9,78.7,91.9,79.4,91z"/>
		<path class="st3" d="M79.5,96.9c-0.7-1-1.5-2-2.2-3c-0.7,1-1.3,2-2,3c0.7,0.9,1.4,1.9,2.1,2.8C78.1,98.8,78.8,97.8,79.5,96.9z"/>
		<path class="st3" d="M83.6,90.9c-0.7-1-1.5-2-2.2-3c-0.7,1-1.3,2-2,3c0.7,0.9,1.4,1.9,2.1,2.8C82.2,92.8,82.9,91.8,83.6,90.9z"/>
		<path class="st3" d="M83.7,96.8c-0.7-1-1.5-2-2.2-3c-0.7,1-1.3,2-2,3c0.7,0.9,1.4,1.9,2.1,2.8C82.3,98.7,83,97.7,83.7,96.8z"/>
		<path class="st3" d="M87.8,90.8c-0.7-1-1.5-2-2.2-3c-0.7,1-1.3,2-2,3c0.7,0.9,1.4,1.9,2.1,2.8C86.4,92.7,87.1,91.8,87.8,90.8z"/>
	</g>
	<path class="st3" d="M87.9,96.6c-0.7-1-1.5-2-2.2-3c-0.7,1-1.3,2-2,3c0.7,0.9,1.4,1.9,2.1,2.8C86.5,98.6,87.2,97.6,87.9,96.6z"/>
</g>
<g>
	<g>
		<path class="st3" d="M73.8,87.8c0,3.2,0,6.4,0,9.6c0,0,0,0.1-0.1,0.2c-0.1,0.1-0.2,0.1-0.2,0.1c0,0.1-0.1,0.2-0.1,0.4
			c0,0.1,0.1,0.2,0.1,0.3c0.2,0,0.3,0.1,0.5,0.1c0,0.1,0,0.1,0,0.2c0,0.1,0,0.2,0,0.2c-0.2,0.2-0.4,0.4-0.7,0.5
			c-0.1,0.1-0.3,0.2-0.6,0.3c-0.5,0.2-0.9,0.2-1.1,0.2c-0.3,0-0.7,0-1.1-0.2c-0.4-0.1-0.7-0.3-0.9-0.4c-0.1-0.1-0.3-0.3-0.4-0.4
			c0,0,0-0.1,0-0.2c0-0.1,0-0.2,0.1-0.2c0.1,0,0.2,0,0.3-0.1c0-0.1,0-0.2,0-0.3c0-0.1,0-0.3,0-0.4c0,0-0.1,0-0.2-0.1
			c-0.1-0.1-0.1-0.2-0.1-0.2c0-3.2,0-6.4,0-9.6c0.7-0.1,1.4-0.1,2.1-0.1C72.3,87.7,73.1,87.8,73.8,87.8z"/>
		<rect x="70.3" y="95.1" class="st2" width="2.6" height="1.8"/>
		<rect x="70.3" y="88.8" class="st2" width="2.6" height="1.8"/>
		<rect x="70.3" y="90.9" class="st2" width="2.6" height="1.8"/>
		<rect x="70.3" y="93" class="st2" width="2.6" height="1.8"/>
	</g>
	<line class="st12" x1="71.6" y1="96.9" x2="71.6" y2="88.8"/>
</g>
<g>
	<rect x="56" y="87.9" class="st2" width="12" height="12"/>
	<line class="st11" x1="62" y1="99.9" x2="62" y2="87.9"/>
	<line class="st11" x1="56" y1="93.7" x2="68" y2="93.7"/>
</g>
<g>
	<g>
		<rect x="0.2" y="75.4" class="st2" width="12" height="12"/>
		<path class="st3" d="M9.1,83.6c1,0.7,2,1.5,3,2.2c-1,0.7-2,1.3-3,2c-0.9-0.7-1.9-1.4-2.8-2.1C7.2,85,8.1,84.3,9.1,83.6z"/>
		<path class="st3" d="M3.2,83.5c1,0.7,2,1.5,3,2.2c-1,0.7-2,1.3-3,2c-0.9-0.7-1.9-1.4-2.8-2.1C1.3,84.8,2.2,84.2,3.2,83.5z"/>
		<path class="st3" d="M9.2,79.4c1,0.7,2,1.5,3,2.2c-1,0.7-2,1.3-3,2c-0.9-0.7-1.9-1.4-2.8-2.1C7.3,80.8,8.2,80.1,9.2,79.4z"/>
		<path class="st3" d="M3.3,79.3c1,0.7,2,1.5,3,2.2c-1,0.7-2,1.3-3,2c-0.9-0.7-1.9-1.4-2.8-2.1C1.4,80.7,2.3,80,3.3,79.3z"/>
		<path class="st3" d="M9.3,75.2c1,0.7,2,1.5,3,2.2c-1,0.7-2,1.3-3,2c-0.9-0.7-1.9-1.4-2.8-2.1C7.3,76.6,8.3,75.9,9.3,75.2z"/>
	</g>
	<path class="st3" d="M3.4,75.1c1,0.7,2,1.5,3,2.2c-1,0.7-2,1.3-3,2c-0.9-0.7-1.9-1.4-2.8-2.1C1.5,76.5,2.5,75.8,3.4,75.1z"/>
</g>
<g>
	<g>
		<g>
			<rect x="0.2" y="44.1" class="st3" width="12" height="12"/>
			<line class="st6" x1="0.4" y1="56.1" x2="12.2" y2="44.1"/>
			<line class="st7" x1="11.8" y1="55.8" x2="0.6" y2="44.4"/>
			<line class="st8" x1="10.2" y1="56.2" x2="0.3" y2="46.2"/>
			<line class="st6" x1="0.2" y1="54.6" x2="10.6" y2="44.1"/>
			<line class="st9" x1="7.6" y1="56.2" x2="12.2" y2="51.8"/>
			<line class="st6" x1="6" y1="56.2" x2="12.3" y2="50.2"/>
		</g>
		<line class="st6" x1="0.3" y1="47.5" x2="3.9" y2="44.1"/>
	</g>
	<line class="st10" x1="3.4" y1="56" x2="0.2" y2="52.3"/>
</g>
<g>
	<rect x="0.2" y="56.1" class="st2" width="12" height="12"/>
	<line class="st11" x1="0.2" y1="62.1" x2="12.2" y2="62.1"/>
	<line class="st11" x1="6.4" y1="68.1" x2="6.4" y2="56.1"/>
</g>
<g>
	<g>
		<path class="st3" d="M12.2,69.4c-3.2,0-6.4,0-9.6,0c0,0-0.1,0-0.2,0.1c-0.1,0.1-0.1,0.2-0.1,0.2c-0.1,0-0.2,0.1-0.4,0.1
			c-0.1,0-0.2-0.1-0.3-0.1c0-0.2-0.1-0.3-0.1-0.5c-0.1,0-0.1,0-0.2,0c-0.1,0-0.2,0-0.2,0c-0.2,0.2-0.4,0.4-0.5,0.7
			c-0.1,0.1-0.2,0.3-0.3,0.6c-0.2,0.5-0.2,0.9-0.2,1.1c0,0.3,0,0.7,0.2,1.1c0.1,0.4,0.3,0.7,0.4,0.9C0.9,73.8,1,73.9,1.2,74
			c0,0,0.1,0,0.2,0c0.1,0,0.2,0,0.2-0.1c0-0.1,0-0.2,0.1-0.3c0.1,0,0.2,0,0.3,0c0.1,0,0.3,0,0.4,0c0,0,0,0.1,0.1,0.2
			c0.1,0.1,0.2,0.1,0.2,0.1c3.2,0,6.4,0,9.6,0c0.1-0.7,0.1-1.4,0.1-2.1C12.4,70.9,12.3,70.1,12.2,69.4z"/>
		
			<rect x="2.8" y="70.7" transform="matrix(6.123234e-17 -1 1 6.123234e-17 -67.519 75.7258)" class="st2" width="2.6" height="1.8"/>
		
			<rect x="9.1" y="70.7" transform="matrix(6.123234e-17 -1 1 6.123234e-17 -61.2226 82.0222)" class="st2" width="2.6" height="1.8"/>
		
			<rect x="7" y="70.7" transform="matrix(6.123234e-17 -1 1 6.123234e-17 -63.3435 79.9013)" class="st2" width="2.6" height="1.8"/>
		
			<rect x="4.9" y="70.7" transform="matrix(6.123234e-17 -1 1 6.123234e-17 -65.4645 77.7803)" class="st2" width="2.6" height="1.8"/>
	</g>
	<line class="st12" x1="3.2" y1="71.6" x2="11.3" y2="71.6"/>
</g>
<g>
	<g>
		<rect x="0.2" y="12.5" class="st2" width="12" height="12"/>
		<path class="st3" d="M9.1,20.7c1,0.7,2,1.5,3,2.2c-1,0.7-2,1.3-3,2c-0.9-0.7-1.9-1.4-2.8-2.1C7.2,22.1,8.1,21.4,9.1,20.7z"/>
		<path class="st3" d="M3.2,20.6c1,0.7,2,1.5,3,2.2c-1,0.7-2,1.3-3,2c-0.9-0.7-1.9-1.4-2.8-2.1C1.3,22,2.2,21.3,3.2,20.6z"/>
		<path class="st3" d="M9.2,16.5c1,0.7,2,1.5,3,2.2c-1,0.7-2,1.3-3,2c-0.9-0.7-1.9-1.4-2.8-2.1C7.3,17.9,8.2,17.2,9.2,16.5z"/>
		<path class="st3" d="M3.3,16.4c1,0.7,2,1.5,3,2.2c-1,0.7-2,1.3-3,2c-0.9-0.7-1.9-1.4-2.8-2.1C1.4,17.8,2.3,17.1,3.3,16.4z"/>
		<path class="st3" d="M9.3,12.3c1,0.7,2,1.5,3,2.2c-1,0.7-2,1.3-3,2c-0.9-0.7-1.9-1.4-2.8-2.1C7.3,13.7,8.3,13,9.3,12.3z"/>
	</g>
	<path class="st3" d="M3.4,12.2c1,0.7,2,1.5,3,2.2c-1,0.7-2,1.3-3,2c-0.9-0.7-1.9-1.4-2.8-2.1C1.5,13.6,2.5,12.9,3.4,12.2z"/>
</g>
<g>
	<g>
		<path class="st3" d="M12.2,26.3c-3.2,0-6.4,0-9.6,0c0,0-0.1,0-0.2,0.1c-0.1,0.1-0.1,0.2-0.1,0.2c-0.1,0-0.2,0.1-0.4,0.1
			c-0.1,0-0.2-0.1-0.3-0.1c0-0.2-0.1-0.3-0.1-0.5c-0.1,0-0.1,0-0.2,0c-0.1,0-0.2,0-0.2,0c-0.2,0.2-0.4,0.4-0.5,0.7
			c-0.1,0.1-0.2,0.3-0.3,0.6c-0.2,0.5-0.2,0.9-0.2,1.1c0,0.3,0,0.7,0.2,1.1c0.1,0.4,0.3,0.7,0.4,0.9c0.1,0.1,0.3,0.3,0.4,0.4
			c0,0,0.1,0,0.2,0c0.1,0,0.2,0,0.2-0.1c0-0.1,0-0.2,0.1-0.3c0.1,0,0.2,0,0.3,0c0.1,0,0.3,0,0.4,0c0,0,0,0.1,0.1,0.2
			c0.1,0.1,0.2,0.1,0.2,0.1c3.2,0,6.4,0,9.6,0c0.1-0.7,0.1-1.4,0.1-2.1C12.4,27.8,12.3,27,12.2,26.3z"/>
		
			<rect x="2.8" y="27.6" transform="matrix(6.123234e-17 -1 1 6.123234e-17 -24.4163 32.6231)" class="st2" width="2.6" height="1.8"/>
		
			<rect x="9.1" y="27.6" transform="matrix(6.123234e-17 -1 1 6.123234e-17 -18.1199 38.9195)" class="st2" width="2.6" height="1.8"/>
		
			<rect x="7" y="27.6" transform="matrix(6.123234e-17 -1 1 6.123234e-17 -20.2409 36.7986)" class="st2" width="2.6" height="1.8"/>
		
			<rect x="4.9" y="27.6" transform="matrix(6.123234e-17 -1 1 6.123234e-17 -22.3618 34.6777)" class="st2" width="2.6" height="1.8"/>
	</g>
	<line class="st12" x1="3.2" y1="28.5" x2="11.3" y2="28.5"/>
</g>
<g>
	<rect x="0.2" y="32.1" class="st2" width="12" height="12"/>
	<line class="st11" x1="0.2" y1="38.1" x2="12.2" y2="38.1"/>
	<line class="st11" x1="6.4" y1="44.1" x2="6.4" y2="32.1"/>
</g>
<g>
	<g>
		<rect x="87.6" y="75.7" class="st2" width="12" height="12"/>
		<path class="st3" d="M90.7,83.9c-1,0.7-2,1.5-3,2.2c1,0.7,2,1.3,3,2c0.9-0.7,1.9-1.4,2.8-2.1C92.6,85.3,91.7,84.6,90.7,83.9z"/>
		<path class="st3" d="M96.6,83.8c-1,0.7-2,1.5-3,2.2c1,0.7,2,1.3,3,2c0.9-0.7,1.9-1.4,2.8-2.1C98.5,85.2,97.6,84.5,96.6,83.8z"/>
		<path class="st3" d="M90.6,79.8c-1,0.7-2,1.5-3,2.2c1,0.7,2,1.3,3,2c0.9-0.7,1.9-1.4,2.8-2.1C92.5,81.1,91.6,80.4,90.6,79.8z"/>
		<path class="st3" d="M96.5,79.6c-1,0.7-2,1.5-3,2.2c1,0.7,2,1.3,3,2c0.9-0.7,1.9-1.4,2.8-2.1C98.4,81,97.5,80.3,96.5,79.6z"/>
		<path class="st3" d="M90.5,75.6c-1,0.7-2,1.5-3,2.2c1,0.7,2,1.3,3,2c0.9-0.7,1.9-1.4,2.8-2.1C92.5,76.9,91.5,76.3,90.5,75.6z"/>
	</g>
	<path class="st3" d="M96.4,75.4c-1,0.7-2,1.5-3,2.2c1,0.7,2,1.3,3,2c0.9-0.7,1.9-1.4,2.8-2.1C98.3,76.8,97.3,76.1,96.4,75.4z"/>
</g>
<g>
	<g>
		<g>
			<rect x="87.6" y="44.4" class="st3" width="12" height="12"/>
			<line class="st6" x1="99.4" y1="56.4" x2="87.6" y2="44.4"/>
			<line class="st7" x1="88" y1="56.1" x2="99.2" y2="44.8"/>
			<line class="st8" x1="89.6" y1="56.5" x2="99.5" y2="46.5"/>
			<line class="st6" x1="99.6" y1="55" x2="89.2" y2="44.4"/>
			<line class="st9" x1="92.2" y1="56.5" x2="87.6" y2="52.1"/>
			<line class="st6" x1="93.8" y1="56.5" x2="87.5" y2="50.5"/>
		</g>
		<line class="st6" x1="99.5" y1="47.9" x2="95.9" y2="44.4"/>
	</g>
	<line class="st10" x1="96.4" y1="56.3" x2="99.6" y2="52.7"/>
</g>
<g>
	<rect x="87.6" y="56.4" class="st2" width="12" height="12"/>
	<line class="st11" x1="99.6" y1="62.4" x2="87.6" y2="62.4"/>
	<line class="st11" x1="93.4" y1="68.4" x2="93.4" y2="56.4"/>
</g>
<g>
	<g>
		<path class="st3" d="M87.6,69.8c3.2,0,6.4,0,9.6,0c0,0,0.1,0,0.2,0.1c0.1,0.1,0.1,0.2,0.1,0.2c0.1,0,0.2,0.1,0.4,0.1
			c0.1,0,0.2-0.1,0.3-0.1c0-0.2,0.1-0.3,0.1-0.5c0.1,0,0.1,0,0.2,0c0.1,0,0.2,0,0.2,0c0.2,0.2,0.4,0.4,0.5,0.7
			c0.1,0.1,0.2,0.3,0.3,0.6c0.2,0.5,0.2,0.9,0.2,1.1c0,0.3,0,0.7-0.2,1.1c-0.1,0.4-0.3,0.7-0.4,0.9c-0.1,0.1-0.3,0.3-0.4,0.4
			c0,0-0.1,0-0.2,0c-0.1,0-0.2,0-0.2-0.1c0-0.1,0-0.2-0.1-0.3c-0.1,0-0.2,0-0.3,0c-0.1,0-0.3,0-0.4,0c0,0,0,0.1-0.1,0.2
			c-0.1,0.1-0.2,0.1-0.2,0.1c-3.2,0-6.4,0-9.6,0c-0.1-0.7-0.1-1.4-0.1-2.1C87.4,71.3,87.5,70.5,87.6,69.8z"/>
		
			<rect x="94.4" y="71.1" transform="matrix(6.123234e-17 -1 1 6.123234e-17 23.7289 167.6618)" class="st2" width="2.6" height="1.8"/>
		
			<rect x="88.1" y="71.1" transform="matrix(6.123234e-17 -1 1 6.123234e-17 17.4325 161.3654)" class="st2" width="2.6" height="1.8"/>
		
			<rect x="90.2" y="71.1" transform="matrix(6.123234e-17 -1 1 6.123234e-17 19.5534 163.4863)" class="st2" width="2.6" height="1.8"/>
		
			<rect x="92.3" y="71.1" transform="matrix(6.123234e-17 -1 1 6.123234e-17 21.6743 165.6072)" class="st2" width="2.6" height="1.8"/>
	</g>
	<line class="st12" x1="96.6" y1="72" x2="88.5" y2="72"/>
</g>
<g>
	<g>
		<rect x="87.6" y="12.8" class="st2" width="12" height="12"/>
		<path class="st3" d="M90.7,21.1c-1,0.7-2,1.5-3,2.2c1,0.7,2,1.3,3,2c0.9-0.7,1.9-1.4,2.8-2.1C92.6,22.4,91.7,21.7,90.7,21.1z"/>
		<path class="st3" d="M96.6,20.9c-1,0.7-2,1.5-3,2.2c1,0.7,2,1.3,3,2c0.9-0.7,1.9-1.4,2.8-2.1C98.5,22.3,97.6,21.6,96.6,20.9z"/>
		<path class="st3" d="M90.6,16.9c-1,0.7-2,1.5-3,2.2c1,0.7,2,1.3,3,2c0.9-0.7,1.9-1.4,2.8-2.1C92.5,18.3,91.6,17.6,90.6,16.9z"/>
		<path class="st3" d="M96.5,16.8c-1,0.7-2,1.5-3,2.2c1,0.7,2,1.3,3,2c0.9-0.7,1.9-1.4,2.8-2.1C98.4,18.1,97.5,17.4,96.5,16.8z"/>
		<path class="st3" d="M90.5,12.7c-1,0.7-2,1.5-3,2.2c1,0.7,2,1.3,3,2c0.9-0.7,1.9-1.4,2.8-2.1C92.5,14.1,91.5,13.4,90.5,12.7z"/>
	</g>
	<path class="st3" d="M96.4,12.6c-1,0.7-2,1.5-3,2.2c1,0.7,2,1.3,3,2c0.9-0.7,1.9-1.4,2.8-2.1C98.3,13.9,97.3,13.3,96.4,12.6z"/>
</g>
<g>
	<g>
		<path class="st3" d="M87.6,26.7c3.2,0,6.4,0,9.6,0c0,0,0.1,0,0.2,0.1c0.1,0.1,0.1,0.2,0.1,0.2c0.1,0,0.2,0.1,0.4,0.1
			c0.1,0,0.2-0.1,0.3-0.1c0-0.2,0.1-0.3,0.1-0.5c0.1,0,0.1,0,0.2,0c0.1,0,0.2,0,0.2,0c0.2,0.2,0.4,0.4,0.5,0.7
			c0.1,0.1,0.2,0.3,0.3,0.6c0.2,0.5,0.2,0.9,0.2,1.1c0,0.3,0,0.7-0.2,1.1c-0.1,0.4-0.3,0.7-0.4,0.9c-0.1,0.1-0.3,0.3-0.4,0.4
			c0,0-0.1,0-0.2,0c-0.1,0-0.2,0-0.2-0.1c0-0.1,0-0.2-0.1-0.3c-0.1,0-0.2,0-0.3,0c-0.1,0-0.3,0-0.4,0c0,0,0,0.1-0.1,0.2
			c-0.1,0.1-0.2,0.1-0.2,0.1c-3.2,0-6.4,0-9.6,0c-0.1-0.7-0.1-1.4-0.1-2.1C87.4,28.2,87.5,27.4,87.6,26.7z"/>
		
			<rect x="94.4" y="27.9" transform="matrix(6.123234e-17 -1 1 6.123234e-17 66.8316 124.5591)" class="st2" width="2.6" height="1.8"/>
		
			<rect x="88.1" y="27.9" transform="matrix(6.123234e-17 -1 1 6.123234e-17 60.5352 118.2627)" class="st2" width="2.6" height="1.8"/>
		
			<rect x="90.2" y="27.9" transform="matrix(6.123234e-17 -1 1 6.123234e-17 62.6561 120.3836)" class="st2" width="2.6" height="1.8"/>
		
			<rect x="92.3" y="27.9" transform="matrix(6.123234e-17 -1 1 6.123234e-17 64.777 122.5046)" class="st2" width="2.6" height="1.8"/>
	</g>
	<line class="st12" x1="96.6" y1="28.9" x2="88.5" y2="28.9"/>
</g>
<g>
	<rect x="87.6" y="32.4" class="st2" width="12" height="12"/>
	<line class="st11" x1="99.6" y1="38.4" x2="87.6" y2="38.4"/>
	<line class="st11" x1="93.4" y1="44.4" x2="93.4" y2="32.4"/>
</g>
</svg>
