<svg xmlns="http://www.w3.org/2000/svg" viewBox="0 0 100 100"><defs><style>.cls-1{fill:#fff;}.cls-2{fill:#ededed;}.cls-3{fill:#0e4379;}.cls-4{fill:none;stroke:#0e4379;stroke-miterlimit:10;stroke-width:0.34px;}</style></defs><g id="Onder"><rect class="cls-1" y="0.11" width="100" height="12"/><rect class="cls-1" x="44" y="44.15" width="100" height="12" transform="translate(144.15 -43.84) rotate(90)"/><rect class="cls-1" y="88.11" width="100" height="12" transform="translate(100 188.23) rotate(-180)"/><rect class="cls-1" x="-43.99" y="44.08" width="100" height="12" transform="translate(-44.07 56.08) rotate(-90)"/></g><g id="Laag_1" data-name="Laag 1"><rect class="cls-2" y="0.01" width="12" height="12"/><rect class="cls-3" x="3.29" y="0.01" width="2.31" height="12"/><rect class="cls-3" x="4.85" y="-0.05" width="2.31" height="12" transform="translate(11.95 -0.06) rotate(90)"/><rect class="cls-2" x="88.01" width="12" height="12"/><rect class="cls-3" x="91.29" width="2.31" height="12"/><rect class="cls-3" x="92.85" y="-0.07" width="2.31" height="12" transform="translate(99.94 -88.07) rotate(90)"/><rect class="cls-2" x="0.03" y="87.99" width="12" height="12"/><rect class="cls-3" x="3.31" y="87.99" width="2.31" height="12"/><rect class="cls-3" x="4.87" y="87.92" width="2.31" height="12" transform="translate(99.95 87.9) rotate(90)"/><rect class="cls-2" x="88.01" y="87.96" width="12" height="12"/><rect class="cls-3" x="91.29" y="87.96" width="2.31" height="12"/><rect class="cls-3" x="92.85" y="87.89" width="2.31" height="12" transform="translate(187.9 -0.12) rotate(90)"/></g><g id="Laag_2" data-name="Laag 2"><line class="cls-4" x1="39.99" y1="2.63" x2="39.99" y2="11.09"/><path class="cls-3" d="M37.83,5.15a2.63,2.63,0,0,0,.21.51,2.19,2.19,0,0,0,.85.88A1.94,1.94,0,0,0,40,6.75a.89.89,0,0,0,0-.4,1.19,1.19,0,0,0-.31-.53,2.13,2.13,0,0,0-.82-.55A2.2,2.2,0,0,0,37.83,5.15Z"/><path class="cls-3" d="M37.83,6.89A2.63,2.63,0,0,0,38,7.4a2.19,2.19,0,0,0,.85.88A1.94,1.94,0,0,0,40,8.49a.89.89,0,0,0,0-.4,1.19,1.19,0,0,0-.31-.53A2.12,2.12,0,0,0,38.83,7,2.31,2.31,0,0,0,37.83,6.89Z"/><path class="cls-3" d="M37.83,8.63a2.63,2.63,0,0,0,.21.51,2.19,2.19,0,0,0,.85.88,2,2,0,0,0,1.07.21.89.89,0,0,0,0-.4,1.19,1.19,0,0,0-.31-.53,2.12,2.12,0,0,0-.82-.56A2,2,0,0,0,37.83,8.63Z"/><path class="cls-3" d="M42.14,5.15a2.12,2.12,0,0,1-.21.51,2.19,2.19,0,0,1-.85.88A1.94,1.94,0,0,1,40,6.75a.89.89,0,0,1,0-.4,1.19,1.19,0,0,1,.31-.53,2.13,2.13,0,0,1,.82-.55A2.2,2.2,0,0,1,42.14,5.15Z"/><path class="cls-3" d="M42.14,6.89a2.12,2.12,0,0,1-.21.51,2.19,2.19,0,0,1-.85.88A1.94,1.94,0,0,1,40,8.49a.89.89,0,0,1,0-.4,1.19,1.19,0,0,1,.31-.53A2.12,2.12,0,0,1,41.14,7,2.31,2.31,0,0,1,42.14,6.89Z"/><path class="cls-3" d="M42.14,8.63a2.12,2.12,0,0,1-.21.51,2.19,2.19,0,0,1-.85.88,2,2,0,0,1-1.07.21.89.89,0,0,1,0-.4,1.19,1.19,0,0,1,.31-.53,2.12,2.12,0,0,1,.82-.56A2,2,0,0,1,42.14,8.63Z"/><path class="cls-2" d="M40,4.13a4.73,4.73,0,0,0-.49-1.07,2.36,2.36,0,0,0-1.18-.82,2.16,2.16,0,0,0-.59-.09c0,.14,0,.34,0,.58a3.67,3.67,0,0,0,.07.77,2.08,2.08,0,0,0,.45.88,2.24,2.24,0,0,0,1.33.74l.43,0C40,4.73,40,4.57,40,4.13Z"/><path class="cls-2" d="M40,4.13a4.36,4.36,0,0,1,.48-1.07,2.36,2.36,0,0,1,1.18-.82,2.16,2.16,0,0,1,.59-.09c0,.14,0,.34,0,.58a3.11,3.11,0,0,1-.07.77,2.08,2.08,0,0,1-.45.88,2.24,2.24,0,0,1-1.33.74l-.42,0C40,4.73,40,4.57,40,4.13Z"/><circle class="cls-2" cx="40" cy="2.1" r="0.56"/><rect class="cls-2" x="44.17" y="0.03" width="12" height="12"/><circle class="cls-3" cx="47.85" cy="3.75" r="2.45"/><circle class="cls-3" cx="52.49" cy="3.75" r="2.45"/><circle class="cls-3" cx="47.85" cy="8.3" r="2.45"/><circle class="cls-3" cx="52.49" cy="8.3" r="2.45"/><circle class="cls-3" cx="50.3" cy="6.2" r="3.46"/><circle class="cls-2" cx="50.2" cy="6.2" r="2.79"/><path class="cls-3" d="M49.58,4.79V7.61a.63.63,0,0,0,.62.62.64.64,0,0,0,.62-.62V4.79a.63.63,0,0,0-.62-.62.62.62,0,0,0-.62.62Z"/><path class="cls-3" d="M51.61,5.58H48.79a.62.62,0,0,0,0,1.24h2.82a.62.62,0,1,0,0-1.24Z"/><rect class="cls-2" x="87.98" y="44.2" width="12" height="12"/><circle class="cls-3" cx="91.66" cy="47.92" r="2.45"/><circle class="cls-3" cx="96.3" cy="47.92" r="2.45"/><circle class="cls-3" cx="91.66" cy="52.47" r="2.45"/><circle class="cls-3" cx="96.3" cy="52.47" r="2.45"/><circle class="cls-3" cx="94.11" cy="50.37" r="3.46"/><circle class="cls-2" cx="94.01" cy="50.37" r="2.79"/><path class="cls-3" d="M93.38,49v2.82a.63.63,0,0,0,1.25,0V49a.63.63,0,0,0-1.25,0Z"/><path class="cls-3" d="M95.41,49.75H92.6a.62.62,0,0,0-.62.62.62.62,0,0,0,.62.62h2.81a.62.62,0,1,0,0-1.24Z"/><rect class="cls-2" x="43.85" y="87.99" width="12" height="12"/><circle class="cls-3" cx="47.53" cy="91.71" r="2.45"/><circle class="cls-3" cx="52.17" cy="91.71" r="2.45"/><circle class="cls-3" cx="47.53" cy="96.26" r="2.45"/><circle class="cls-3" cx="52.17" cy="96.26" r="2.45"/><circle class="cls-3" cx="49.97" cy="94.16" r="3.46"/><circle class="cls-2" cx="49.87" cy="94.16" r="2.79"/><path class="cls-3" d="M49.25,92.75v2.82a.62.62,0,0,0,1.24,0V92.75a.62.62,0,0,0-.62-.62.63.63,0,0,0-.62.62Z"/><path class="cls-3" d="M51.28,93.54H48.47a.63.63,0,0,0-.63.62.64.64,0,0,0,.63.62h2.81a.63.63,0,0,0,.62-.62.62.62,0,0,0-.62-.62Z"/><rect class="cls-3" x="24.01" width="3.97" height="3.97"/><rect class="cls-2" x="24.01" y="1.98" width="1.98" height="1.98"/><rect class="cls-2" x="25.99" width="1.98" height="1.98"/><rect class="cls-3" x="27.97" width="3.97" height="3.97"/><rect class="cls-2" x="27.97" y="1.98" width="1.98" height="1.98"/><rect class="cls-2" x="29.95" width="1.98" height="1.98"/><rect class="cls-3" x="31.94" width="3.97" height="3.97"/><rect class="cls-2" x="31.94" y="1.98" width="1.98" height="1.98"/><rect class="cls-2" x="33.92" width="1.98" height="1.98"/><rect class="cls-3" x="24.01" y="3.97" width="3.97" height="3.97"/><rect class="cls-2" x="24.01" y="5.95" width="1.98" height="1.98"/><rect class="cls-2" x="25.99" y="3.97" width="1.98" height="1.98"/><rect class="cls-3" x="27.97" y="3.97" width="3.97" height="3.97"/><rect class="cls-2" x="27.97" y="5.95" width="1.98" height="1.98"/><rect class="cls-2" x="29.95" y="3.97" width="1.98" height="1.98"/><rect class="cls-3" x="31.94" y="3.97" width="3.97" height="3.97"/><rect class="cls-2" x="31.94" y="5.95" width="1.98" height="1.98"/><rect class="cls-2" x="33.92" y="3.97" width="1.98" height="1.98"/><rect class="cls-3" x="24.01" y="7.93" width="3.97" height="3.97"/><rect class="cls-2" x="24.01" y="9.91" width="1.98" height="1.98"/><rect class="cls-2" x="25.99" y="7.93" width="1.98" height="1.98"/><rect class="cls-3" x="27.97" y="7.93" width="3.97" height="3.97"/><rect class="cls-2" x="27.97" y="9.91" width="1.98" height="1.98"/><rect class="cls-2" x="29.95" y="7.93" width="1.98" height="1.98"/><rect class="cls-3" x="31.94" y="7.93" width="3.97" height="3.97"/><rect class="cls-2" x="31.94" y="9.91" width="1.98" height="1.98"/><rect class="cls-2" x="33.92" y="7.93" width="1.98" height="1.98"/><rect class="cls-3" x="64.1" y="0.01" width="3.97" height="3.97"/><rect class="cls-2" x="64.1" y="1.99" width="1.98" height="1.98"/><rect class="cls-2" x="66.08" y="0.01" width="1.98" height="1.98"/><rect class="cls-3" x="68.06" y="0.01" width="3.97" height="3.97"/><rect class="cls-2" x="68.06" y="1.99" width="1.98" height="1.98"/><rect class="cls-2" x="70.04" y="0.01" width="1.98" height="1.98"/><rect class="cls-3" x="72.03" y="0.01" width="3.97" height="3.97"/><rect class="cls-2" x="72.03" y="1.99" width="1.98" height="1.98"/><rect class="cls-2" x="74.01" y="0.01" width="1.98" height="1.98"/><rect class="cls-3" x="64.1" y="3.98" width="3.97" height="3.97"/><rect class="cls-2" x="64.1" y="5.96" width="1.98" height="1.98"/><rect class="cls-2" x="66.08" y="3.98" width="1.98" height="1.98"/><rect class="cls-3" x="68.06" y="3.98" width="3.97" height="3.97"/><rect class="cls-2" x="68.06" y="5.96" width="1.98" height="1.98"/><rect class="cls-2" x="70.04" y="3.98" width="1.98" height="1.98"/><rect class="cls-3" x="72.03" y="3.98" width="3.97" height="3.97"/><rect class="cls-2" x="72.03" y="5.96" width="1.98" height="1.98"/><rect class="cls-2" x="74.01" y="3.98" width="1.98" height="1.98"/><rect class="cls-3" x="64.1" y="7.94" width="3.97" height="3.97"/><rect class="cls-2" x="64.1" y="9.92" width="1.98" height="1.98"/><rect class="cls-2" x="66.08" y="7.94" width="1.98" height="1.98"/><rect class="cls-3" x="68.06" y="7.94" width="3.97" height="3.97"/><rect class="cls-2" x="68.06" y="9.92" width="1.98" height="1.98"/><rect class="cls-2" x="70.04" y="7.94" width="1.98" height="1.98"/><rect class="cls-3" x="72.03" y="7.94" width="3.97" height="3.97"/><rect class="cls-2" x="72.03" y="9.92" width="1.98" height="1.98"/><rect class="cls-2" x="74.01" y="7.94" width="1.98" height="1.98"/><line class="cls-4" x1="60.36" y1="2.6" x2="60.36" y2="11.07"/><path class="cls-3" d="M58.2,5.13a3.07,3.07,0,0,0,.22.5,2.14,2.14,0,0,0,.85.89,2,2,0,0,0,1.07.21.93.93,0,0,0,0-.41A1.19,1.19,0,0,0,60,5.8a2.21,2.21,0,0,0-.82-.56A2.06,2.06,0,0,0,58.2,5.13Z"/><path class="cls-3" d="M58.2,6.87a3.07,3.07,0,0,0,.22.5,2.07,2.07,0,0,0,.85.88,1.85,1.85,0,0,0,1.07.21.88.88,0,0,0,0-.4A1.14,1.14,0,0,0,60,7.54,2.21,2.21,0,0,0,59.21,7,2.06,2.06,0,0,0,58.2,6.87Z"/><path class="cls-3" d="M58.2,8.61a3.07,3.07,0,0,0,.22.5,2.12,2.12,0,0,0,.85.88,1.85,1.85,0,0,0,1.07.21.88.88,0,0,0,0-.4A1.14,1.14,0,0,0,60,9.28a2.21,2.21,0,0,0-.82-.56A2.06,2.06,0,0,0,58.2,8.61Z"/><path class="cls-3" d="M62.52,5.13a2.38,2.38,0,0,1-.22.5,2.1,2.1,0,0,1-.84.89,2.07,2.07,0,0,1-1.08.21,1.11,1.11,0,0,1,0-.41,1.15,1.15,0,0,1,.32-.52,2.06,2.06,0,0,1,1.82-.67Z"/><path class="cls-3" d="M62.52,6.87a2.38,2.38,0,0,1-.22.5,2,2,0,0,1-.84.88,1.88,1.88,0,0,1-1.08.21,1.05,1.05,0,0,1,0-.4,1.1,1.1,0,0,1,.32-.52,2.06,2.06,0,0,1,1.82-.67Z"/><path class="cls-3" d="M62.52,8.61a2.38,2.38,0,0,1-.22.5,2.09,2.09,0,0,1-.84.88,1.88,1.88,0,0,1-1.08.21,1.05,1.05,0,0,1,0-.4,1.1,1.1,0,0,1,.32-.52,2.06,2.06,0,0,1,1.82-.67Z"/><path class="cls-2" d="M60.37,4.11A4.36,4.36,0,0,0,59.89,3a2.27,2.27,0,0,0-1.19-.82,2.6,2.6,0,0,0-.58-.1,4.72,4.72,0,0,0,0,.58,3.8,3.8,0,0,0,.06.78,2.26,2.26,0,0,0,.46.88A2.3,2.3,0,0,0,60,5.1l.42.05C60.39,4.71,60.36,4.55,60.37,4.11Z"/><path class="cls-2" d="M60.35,4.11A4.73,4.73,0,0,1,60.84,3,2.26,2.26,0,0,1,62,2.22a2.67,2.67,0,0,1,.59-.1c0,.14,0,.34,0,.58a3.77,3.77,0,0,1-.07.78,2.14,2.14,0,0,1-.45.88,2.36,2.36,0,0,1-1.33.74l-.43.05C60.34,4.71,60.36,4.55,60.35,4.11Z"/><circle class="cls-2" cx="60.38" cy="2.08" r="0.56"/><rect class="cls-1" x="12" y="0.03" width="12" height="12"/><path class="cls-3" d="M18,6.28a2.39,2.39,0,0,1-.21.72,5.92,5.92,0,0,1-.36.63,5.36,5.36,0,0,0-.35.64,3.22,3.22,0,0,0-.19.75,2.18,2.18,0,0,0,0,.76,1.6,1.6,0,0,0,.44.8.81.81,0,0,0,1.31,0A1.31,1.31,0,0,0,19,9.81a2,2,0,0,0,0-.74,3.38,3.38,0,0,0-.21-.82c-.11-.28-.13-.26-.29-.65-.1-.23-.11-.3-.24-.65C18.18,6.78,18.1,6.55,18,6.28Z"/><path class="cls-3" d="M18,5.78a3.12,3.12,0,0,1,.21-.73c.07-.15.11-.18.36-.62a5.11,5.11,0,0,0,.36-.65A2.91,2.91,0,0,0,19.08,3a2,2,0,0,0,0-.77,1.62,1.62,0,0,0-.45-.79A.93.93,0,0,0,18,1.15a.91.91,0,0,0-.71.33,1.4,1.4,0,0,0-.36.77A2.53,2.53,0,0,0,17,3a3.54,3.54,0,0,0,.22.83c.1.28.13.26.29.64s.11.31.24.65C17.77,5.27,17.86,5.5,18,5.78Z"/><path class="cls-3" d="M17.43,5.87A3.51,3.51,0,0,0,17.14,5a6.6,6.6,0,0,0-.89-1.17,3.13,3.13,0,0,0-.58-.58A1.83,1.83,0,0,0,15.09,3a1.5,1.5,0,0,0-1.44.27,1.45,1.45,0,0,0,0,1.74,2.89,2.89,0,0,0,.3.29,1.89,1.89,0,0,0,.57.31,4.29,4.29,0,0,0,1.18.28Z"/><path class="cls-3" d="M17.44,6.29a3,3,0,0,1-.29.86,6.57,6.57,0,0,1-.88,1.16,2.85,2.85,0,0,1-.59.58,2,2,0,0,1-.58.29,1.53,1.53,0,0,1-1.44-.27,1.43,1.43,0,0,1,0-1.74,1.35,1.35,0,0,1,.3-.3,2.16,2.16,0,0,1,.56-.31,4.58,4.58,0,0,1,1.19-.27Z"/><path class="cls-3" d="M18.59,5.87A2.82,2.82,0,0,1,18.88,5a6.91,6.91,0,0,1,.88-1.17,2.86,2.86,0,0,1,.59-.58A1.83,1.83,0,0,1,20.93,3a1.5,1.5,0,0,1,1.44.27,1.43,1.43,0,0,1,0,1.74,1.66,1.66,0,0,1-.3.29,1.81,1.81,0,0,1-.56.31,4.35,4.35,0,0,1-1.19.28Z"/><path class="cls-3" d="M18.6,6.29a3.84,3.84,0,0,0,.29.86,6.29,6.29,0,0,0,.89,1.16,2.85,2.85,0,0,0,.58.58,2,2,0,0,0,.58.29,1.53,1.53,0,0,0,1.44-.27,1.45,1.45,0,0,0,0-1.74,2,2,0,0,0-.3-.3,2.48,2.48,0,0,0-.57-.31,4.58,4.58,0,0,0-1.19-.27Z"/><rect class="cls-1" x="75.99" width="12" height="12"/><path class="cls-3" d="M82,6.25a2.55,2.55,0,0,1-.2.72,7.11,7.11,0,0,1-.37.63,6.31,6.31,0,0,0-.35.64,2.9,2.9,0,0,0-.18.75,2,2,0,0,0,0,.76,1.6,1.6,0,0,0,.44.8,1,1,0,0,0,.6.33,1,1,0,0,0,.71-.33A1.4,1.4,0,0,0,83,9.78a2.53,2.53,0,0,0,0-.73,3.27,3.27,0,0,0-.22-.83c-.11-.28-.13-.26-.29-.64s-.11-.31-.24-.65C82.18,6.76,82.09,6.53,82,6.25Z"/><path class="cls-3" d="M82,5.75a2.55,2.55,0,0,1,.2-.72c.08-.16.11-.19.37-.63a6.31,6.31,0,0,0,.35-.64A2.9,2.9,0,0,0,83.07,3a2,2,0,0,0,0-.76,1.6,1.6,0,0,0-.44-.8,1,1,0,0,0-.6-.33,1,1,0,0,0-.71.33,1.4,1.4,0,0,0-.36.77A2.53,2.53,0,0,0,81,3a3.27,3.27,0,0,0,.22.83c.11.28.13.26.29.64s.11.31.24.65C81.76,5.24,81.85,5.47,82,5.75Z"/><path class="cls-3" d="M81.42,5.84A3.84,3.84,0,0,0,81.13,5a6.6,6.6,0,0,0-.89-1.17,2.76,2.76,0,0,0-.58-.57A2,2,0,0,0,79.08,3a1.53,1.53,0,0,0-1.44.27,1.45,1.45,0,0,0,0,1.74,1.78,1.78,0,0,0,.31.3,2.16,2.16,0,0,0,.56.31,4.58,4.58,0,0,0,1.19.27Z"/><path class="cls-3" d="M81.43,6.26a3,3,0,0,1-.29.86,6.91,6.91,0,0,1-.88,1.17,2.78,2.78,0,0,1-.59.57,2,2,0,0,1-.58.29,1.53,1.53,0,0,1-1.44-.27,1.43,1.43,0,0,1,0-1.74,1.35,1.35,0,0,1,.3-.3,2.08,2.08,0,0,1,.56-.3,4.43,4.43,0,0,1,1.19-.28Z"/><path class="cls-3" d="M82.58,5.84A3.84,3.84,0,0,1,82.87,5a6.6,6.6,0,0,1,.89-1.17,2.76,2.76,0,0,1,.58-.57A2,2,0,0,1,84.92,3a1.53,1.53,0,0,1,1.44.27,1.45,1.45,0,0,1,0,1.74,1.78,1.78,0,0,1-.31.3,2.16,2.16,0,0,1-.56.31,4.58,4.58,0,0,1-1.19.27Z"/><path class="cls-3" d="M82.6,6.26a3.44,3.44,0,0,0,.28.86,6.6,6.6,0,0,0,.89,1.17,3,3,0,0,0,.58.57,2,2,0,0,0,.58.29,1.53,1.53,0,0,0,1.44-.27,1.45,1.45,0,0,0,0-1.74,1.63,1.63,0,0,0-.3-.3,2.18,2.18,0,0,0-.57-.3,4.29,4.29,0,0,0-1.18-.28Z"/><line class="cls-4" x1="97.38" y1="40.01" x2="88.92" y2="40.01"/><path class="cls-3" d="M94.86,37.85a2.78,2.78,0,0,0-.51.22,2.06,2.06,0,0,0-.88.85A1.93,1.93,0,0,0,93.26,40a.88.88,0,0,0,.4,0,1.1,1.1,0,0,0,.52-.32,2,2,0,0,0,.56-.82A2.18,2.18,0,0,0,94.86,37.85Z"/><path class="cls-3" d="M93.12,37.85a2.78,2.78,0,0,0-.51.22,2.06,2.06,0,0,0-.88.85A1.93,1.93,0,0,0,91.52,40a.89.89,0,0,0,.4,0,1.16,1.16,0,0,0,.53-.32,2.05,2.05,0,0,0,.55-.82A2.18,2.18,0,0,0,93.12,37.85Z"/><path class="cls-3" d="M91.38,37.85a2.78,2.78,0,0,0-.51.22,2.06,2.06,0,0,0-.88.85A1.93,1.93,0,0,0,89.78,40a.89.89,0,0,0,.4,0,1.16,1.16,0,0,0,.53-.32,2,2,0,0,0,.56-.82A2.28,2.28,0,0,0,91.38,37.85Z"/><path class="cls-3" d="M94.86,42.17a2.78,2.78,0,0,1-.51-.22,2.06,2.06,0,0,1-.88-.85A1.93,1.93,0,0,1,93.26,40a.88.88,0,0,1,.4,0,1.1,1.1,0,0,1,.52.32,2,2,0,0,1,.56.82A2.18,2.18,0,0,1,94.86,42.17Z"/><path class="cls-3" d="M93.12,42.17a2.78,2.78,0,0,1-.51-.22,2.06,2.06,0,0,1-.88-.85A1.93,1.93,0,0,1,91.52,40a.89.89,0,0,1,.4,0,1.16,1.16,0,0,1,.53.32,2.05,2.05,0,0,1,.55.82A2.18,2.18,0,0,1,93.12,42.17Z"/><path class="cls-3" d="M91.38,42.17a2.78,2.78,0,0,1-.51-.22A2.06,2.06,0,0,1,90,41.1,1.93,1.93,0,0,1,89.78,40a.89.89,0,0,1,.4,0,1.16,1.16,0,0,1,.53.32,2,2,0,0,1,.56.82A2.28,2.28,0,0,1,91.38,42.17Z"/><path class="cls-2" d="M95.88,40A5.27,5.27,0,0,0,97,39.54a2.34,2.34,0,0,0,.81-1.19,1.85,1.85,0,0,0,.1-.59,5.08,5.08,0,0,0-.58,0,3.25,3.25,0,0,0-.78.06,2.21,2.21,0,0,0-.87.45,2.24,2.24,0,0,0-.74,1.33c0,.11,0,.37-.06.43C95.28,40,95.44,40,95.88,40Z"/><path class="cls-2" d="M95.88,40a4.77,4.77,0,0,1,1.07.48,2.3,2.3,0,0,1,.81,1.19,1.8,1.8,0,0,1,.1.58,3.31,3.31,0,0,1-.58,0,3.25,3.25,0,0,1-.78-.06,2.08,2.08,0,0,1-.87-.46,2.2,2.2,0,0,1-.74-1.32c0-.11,0-.37-.06-.43Z"/><circle class="cls-2" cx="97.91" cy="40.02" r="0.56"/><rect class="cls-3" x="96.04" y="24.03" width="3.97" height="3.97" transform="translate(124.04 -72.01) rotate(90)"/><rect class="cls-2" x="96.04" y="24.03" width="1.98" height="1.98" transform="translate(122.05 -72.01) rotate(90)"/><rect class="cls-2" x="98.03" y="26.01" width="1.98" height="1.98" transform="translate(126.02 -72.01) rotate(90)"/><rect class="cls-3" x="96.04" y="27.99" width="3.97" height="3.97" transform="translate(128 -68.05) rotate(90)"/><rect class="cls-2" x="96.04" y="27.99" width="1.98" height="1.98" transform="translate(126.02 -68.05) rotate(90)"/><rect class="cls-2" x="98.03" y="29.98" width="1.98" height="1.98" transform="translate(129.99 -68.05) rotate(90)"/><rect class="cls-3" x="96.04" y="31.96" width="3.97" height="3.97" transform="translate(131.97 -64.08) rotate(90)"/><rect class="cls-2" x="96.04" y="31.96" width="1.98" height="1.98" transform="translate(129.99 -64.08) rotate(90)"/><rect class="cls-2" x="98.03" y="33.94" width="1.98" height="1.98" transform="translate(133.95 -64.08) rotate(90)"/><rect class="cls-3" x="92.08" y="24.03" width="3.97" height="3.97" transform="translate(120.07 -68.05) rotate(90)"/><rect class="cls-2" x="92.08" y="24.03" width="1.98" height="1.98" transform="translate(118.09 -68.05) rotate(90)"/><rect class="cls-2" x="94.06" y="26.01" width="1.98" height="1.98" transform="translate(122.05 -68.05) rotate(90)"/><rect class="cls-3" x="92.08" y="27.99" width="3.97" height="3.97" transform="translate(124.04 -64.08) rotate(90)"/><rect class="cls-2" x="92.08" y="27.99" width="1.98" height="1.98" transform="translate(122.05 -64.08) rotate(90)"/><rect class="cls-2" x="94.06" y="29.98" width="1.98" height="1.98" transform="translate(126.02 -64.08) rotate(90)"/><rect class="cls-3" x="92.08" y="31.96" width="3.97" height="3.97" transform="translate(128 -60.12) rotate(90)"/><rect class="cls-2" x="92.08" y="31.96" width="1.98" height="1.98" transform="translate(126.02 -60.12) rotate(90)"/><rect class="cls-2" x="94.06" y="33.94" width="1.98" height="1.98" transform="translate(129.99 -60.12) rotate(90)"/><rect class="cls-3" x="88.11" y="24.03" width="3.97" height="3.97" transform="translate(116.11 -64.08) rotate(90)"/><rect class="cls-2" x="88.11" y="24.03" width="1.98" height="1.98" transform="translate(114.12 -64.08) rotate(90)"/><rect class="cls-2" x="90.1" y="26.01" width="1.98" height="1.98" transform="translate(118.09 -64.08) rotate(90)"/><rect class="cls-3" x="88.11" y="27.99" width="3.97" height="3.97" transform="translate(120.07 -60.12) rotate(90)"/><rect class="cls-2" x="88.11" y="27.99" width="1.98" height="1.98" transform="translate(118.09 -60.12) rotate(90)"/><rect class="cls-2" x="90.1" y="29.98" width="1.98" height="1.98" transform="translate(122.05 -60.12) rotate(90)"/><rect class="cls-3" x="88.11" y="31.96" width="3.97" height="3.97" transform="translate(124.04 -56.15) rotate(90)"/><rect class="cls-2" x="88.11" y="31.96" width="1.98" height="1.98" transform="translate(122.05 -56.15) rotate(90)"/><rect class="cls-2" x="90.1" y="33.94" width="1.98" height="1.98" transform="translate(126.02 -56.15) rotate(90)"/><rect class="cls-3" x="96.03" y="64.12" width="3.97" height="3.97" transform="translate(164.12 -31.91) rotate(90)"/><rect class="cls-2" x="96.03" y="64.12" width="1.98" height="1.98" transform="translate(162.13 -31.91) rotate(90)"/><rect class="cls-2" x="98.01" y="66.1" width="1.98" height="1.98" transform="translate(166.1 -31.91) rotate(90)"/><rect class="cls-3" x="96.03" y="68.09" width="3.97" height="3.97" transform="translate(168.08 -27.95) rotate(90)"/><rect class="cls-2" x="96.03" y="68.09" width="1.98" height="1.98" transform="translate(166.1 -27.95) rotate(90)"/><rect class="cls-2" x="98.01" y="70.07" width="1.98" height="1.98" transform="translate(170.06 -27.95) rotate(90)"/><rect class="cls-3" x="96.03" y="72.05" width="3.97" height="3.97" transform="translate(172.05 -23.98) rotate(90)"/><rect class="cls-2" x="96.03" y="72.05" width="1.98" height="1.98" transform="translate(170.06 -23.98) rotate(90)"/><rect class="cls-2" x="98.01" y="74.03" width="1.98" height="1.98" transform="translate(174.03 -23.98) rotate(90)"/><rect class="cls-3" x="92.07" y="64.12" width="3.97" height="3.97" transform="translate(160.15 -27.95) rotate(90)"/><rect class="cls-2" x="92.07" y="64.12" width="1.98" height="1.98" transform="translate(158.17 -27.95) rotate(90)"/><rect class="cls-2" x="94.05" y="66.1" width="1.98" height="1.98" transform="translate(162.13 -27.95) rotate(90)"/><rect class="cls-3" x="92.07" y="68.09" width="3.97" height="3.97" transform="translate(164.12 -23.98) rotate(90)"/><rect class="cls-2" x="92.07" y="68.09" width="1.98" height="1.98" transform="translate(162.13 -23.98) rotate(90)"/><rect class="cls-2" x="94.05" y="70.07" width="1.98" height="1.98" transform="translate(166.1 -23.98) rotate(90)"/><rect class="cls-3" x="92.07" y="72.05" width="3.97" height="3.97" transform="translate(168.08 -20.02) rotate(90)"/><rect class="cls-2" x="92.07" y="72.05" width="1.98" height="1.98" transform="translate(166.1 -20.02) rotate(90)"/><rect class="cls-2" x="94.05" y="74.03" width="1.98" height="1.98" transform="translate(170.06 -20.02) rotate(90)"/><rect class="cls-3" x="88.1" y="64.12" width="3.97" height="3.97" transform="translate(156.19 -23.98) rotate(90)"/><rect class="cls-2" x="88.1" y="64.12" width="1.98" height="1.98" transform="translate(154.2 -23.98) rotate(90)"/><rect class="cls-2" x="90.08" y="66.1" width="1.98" height="1.98" transform="translate(158.17 -23.98) rotate(90)"/><rect class="cls-3" x="88.1" y="68.09" width="3.97" height="3.97" transform="translate(160.15 -20.02) rotate(90)"/><rect class="cls-2" x="88.1" y="68.09" width="1.98" height="1.98" transform="translate(158.17 -20.02) rotate(90)"/><rect class="cls-2" x="90.08" y="70.07" width="1.98" height="1.98" transform="translate(162.13 -20.02) rotate(90)"/><rect class="cls-3" x="88.1" y="72.05" width="3.97" height="3.97" transform="translate(164.12 -16.05) rotate(90)"/><rect class="cls-2" x="88.1" y="72.05" width="1.98" height="1.98" transform="translate(162.13 -16.05) rotate(90)"/><rect class="cls-2" x="90.08" y="74.03" width="1.98" height="1.98" transform="translate(166.1 -16.05) rotate(90)"/><line class="cls-4" x1="97.41" y1="60.39" x2="88.94" y2="60.39"/><path class="cls-3" d="M94.88,58.23a2.22,2.22,0,0,0-.51.22,2.09,2.09,0,0,0-.88.84,1.94,1.94,0,0,0-.21,1.07.89.89,0,0,0,.4,0,1.09,1.09,0,0,0,.53-.31,2.12,2.12,0,0,0,.56-.82A2.16,2.16,0,0,0,94.88,58.23Z"/><path class="cls-3" d="M93.14,58.23a2.18,2.18,0,0,0-.5.22,2.1,2.1,0,0,0-.89.84,2,2,0,0,0-.21,1.07.93.93,0,0,0,.41,0,1.08,1.08,0,0,0,.52-.31,2.12,2.12,0,0,0,.56-.82A2,2,0,0,0,93.14,58.23Z"/><path class="cls-3" d="M91.4,58.23a2.38,2.38,0,0,0-.5.22,2,2,0,0,0-.88.84,1.85,1.85,0,0,0-.21,1.07.88.88,0,0,0,.4,0,1,1,0,0,0,.52-.31,2.12,2.12,0,0,0,.56-.82A2,2,0,0,0,91.4,58.23Z"/><path class="cls-3" d="M94.88,62.54a2.37,2.37,0,0,1-1.39-1.06,1.94,1.94,0,0,1-.21-1.07.89.89,0,0,1,.4,0,1.19,1.19,0,0,1,.53.31,2.12,2.12,0,0,1,.56.82A2.16,2.16,0,0,1,94.88,62.54Z"/><path class="cls-3" d="M93.14,62.54a2.07,2.07,0,0,1-.5-.21,2.14,2.14,0,0,1-.89-.85,2,2,0,0,1-.21-1.07.93.93,0,0,1,.41,0,1.19,1.19,0,0,1,.52.31,2.12,2.12,0,0,1,.56.82A2,2,0,0,1,93.14,62.54Z"/><path class="cls-3" d="M91.4,62.54a2.25,2.25,0,0,1-.5-.21,2.07,2.07,0,0,1-.88-.85,1.85,1.85,0,0,1-.21-1.07.88.88,0,0,1,.4,0,1.14,1.14,0,0,1,.52.31,2.12,2.12,0,0,1,.56.82A2,2,0,0,1,91.4,62.54Z"/><path class="cls-2" d="M95.9,60.4A4.73,4.73,0,0,0,97,59.91a2.36,2.36,0,0,0,.82-1.18,2.16,2.16,0,0,0,.09-.59l-.57,0a3.77,3.77,0,0,0-.78.07,2.14,2.14,0,0,0-.88.45A2.24,2.24,0,0,0,94.91,60a4.08,4.08,0,0,0,0,.43C95.3,60.41,95.46,60.38,95.9,60.4Z"/><path class="cls-2" d="M95.9,60.38a4.36,4.36,0,0,1,1.07.48A2.36,2.36,0,0,1,97.79,62a2.16,2.16,0,0,1,.09.59l-.57,0a3.19,3.19,0,0,1-.78-.07,2.14,2.14,0,0,1-.88-.45,2.22,2.22,0,0,1-.74-1.33c0-.11,0-.36,0-.42C95.3,60.36,95.46,60.39,95.9,60.38Z"/><circle class="cls-2" cx="97.93" cy="60.4" r="0.56"/><rect class="cls-1" x="87.98" y="12.02" width="12" height="12"/><path class="cls-3" d="M93.73,18A2.88,2.88,0,0,1,93,17.8c-.16-.07-.19-.11-.63-.36a7.28,7.28,0,0,0-.64-.36A2.9,2.9,0,0,0,91,16.9a2.17,2.17,0,0,0-.76,0,1.64,1.64,0,0,0-.8.45.93.93,0,0,0-.33.59,1,1,0,0,0,.33.72,1.44,1.44,0,0,0,.77.35,2.22,2.22,0,0,0,.73,0,3.27,3.27,0,0,0,.83-.22c.28-.1.26-.13.64-.29l.65-.24Z"/><path class="cls-3" d="M94.23,18a2.38,2.38,0,0,1,.73.21c.15.07.18.1.62.36a6.31,6.31,0,0,0,.64.35,3.22,3.22,0,0,0,.75.19,2.17,2.17,0,0,0,.76,0,1.6,1.6,0,0,0,.8-.44,1,1,0,0,0,.33-.6,1,1,0,0,0-.33-.71,1.31,1.31,0,0,0-.77-.35A2,2,0,0,0,97,17a3.49,3.49,0,0,0-.83.21c-.28.11-.26.14-.64.29s-.31.11-.65.24Z"/><path class="cls-3" d="M94.14,17.45a3,3,0,0,0,.86-.29,6.91,6.91,0,0,0,1.17-.88,2.78,2.78,0,0,0,.57-.59,2,2,0,0,0,.29-.58,1.53,1.53,0,0,0-.27-1.44,1.43,1.43,0,0,0-1.74,0,1.35,1.35,0,0,0-.3.3,2.08,2.08,0,0,0-.3.56,4.43,4.43,0,0,0-.28,1.19Z"/><path class="cls-3" d="M93.72,17.46a3.44,3.44,0,0,1-.86-.28,7.16,7.16,0,0,1-1.17-.89,2.78,2.78,0,0,1-.57-.59,2.09,2.09,0,0,1-.29-.57,1.54,1.54,0,0,1,.27-1.45,1.45,1.45,0,0,1,1.74,0,1.63,1.63,0,0,1,.3.3,2.26,2.26,0,0,1,.3.56,4.43,4.43,0,0,1,.28,1.19Z"/><path class="cls-3" d="M94.14,18.62a3.44,3.44,0,0,1,.86.28,6.6,6.6,0,0,1,1.17.89,3,3,0,0,1,.57.58A2,2,0,0,1,97,21a1.53,1.53,0,0,1-.27,1.44,1.45,1.45,0,0,1-1.74,0,1.63,1.63,0,0,1-.3-.3,2.18,2.18,0,0,1-.3-.57,4.29,4.29,0,0,1-.28-1.18Z"/><path class="cls-3" d="M93.72,18.63a3.44,3.44,0,0,0-.86.28,7.16,7.16,0,0,0-1.17.89,2.78,2.78,0,0,0-.57.59,2.09,2.09,0,0,0-.29.57,1.54,1.54,0,0,0,.27,1.45,1.45,1.45,0,0,0,1.74,0,1.63,1.63,0,0,0,.3-.3,2.26,2.26,0,0,0,.3-.56,4.43,4.43,0,0,0,.28-1.19Z"/><rect class="cls-1" x="88.01" y="76.02" width="12" height="12"/><path class="cls-3" d="M93.76,82a2.7,2.7,0,0,1-.73-.21c-.15-.07-.18-.1-.62-.36s-.52-.3-.65-.36a2.91,2.91,0,0,0-.74-.18,2,2,0,0,0-.77,0,1.58,1.58,0,0,0-.79.44.81.81,0,0,0,0,1.31,1.44,1.44,0,0,0,.77.35A2,2,0,0,0,91,83a3.4,3.4,0,0,0,.83-.22c.28-.1.26-.13.64-.29l.65-.24Z"/><path class="cls-3" d="M94.26,82a2.51,2.51,0,0,1,.72.21,5.92,5.92,0,0,1,.63.36,6.31,6.31,0,0,0,.64.35,2.76,2.76,0,0,0,.75.19,2,2,0,0,0,.76,0,1.6,1.6,0,0,0,.8-.44,1,1,0,0,0,.33-.59,1,1,0,0,0-.33-.72,1.44,1.44,0,0,0-.77-.35,2,2,0,0,0-.73,0,3.36,3.36,0,0,0-.83.21c-.28.11-.26.14-.64.29s-.31.12-.66.24Z"/><path class="cls-3" d="M94.17,81.44a3.44,3.44,0,0,0,.86-.28,7.23,7.23,0,0,0,1.16-.89,2.62,2.62,0,0,0,.58-.59,2,2,0,0,0,.29-.58,1.53,1.53,0,0,0-.27-1.44,1.45,1.45,0,0,0-1.74,0,1.63,1.63,0,0,0-.3.3,2.59,2.59,0,0,0-.31.56,4.77,4.77,0,0,0-.27,1.19Z"/><path class="cls-3" d="M93.75,81.45a3.18,3.18,0,0,1-.86-.28,6.6,6.6,0,0,1-1.17-.89,3.13,3.13,0,0,1-.58-.58,2,2,0,0,1-.28-.58,1.5,1.5,0,0,1,.27-1.44,1.44,1.44,0,0,1,1.74,0,2.11,2.11,0,0,1,.29.3,1.94,1.94,0,0,1,.31.56,4.43,4.43,0,0,1,.28,1.19Z"/><path class="cls-3" d="M94.17,82.61a3.44,3.44,0,0,1,.86.28,6.65,6.65,0,0,1,1.16.89,2.62,2.62,0,0,1,.58.59,2,2,0,0,1,.29.57,1.54,1.54,0,0,1-.27,1.45,1.45,1.45,0,0,1-1.74,0,1.63,1.63,0,0,1-.3-.3,2.59,2.59,0,0,1-.31-.56,4.77,4.77,0,0,1-.27-1.19Z"/><path class="cls-3" d="M93.75,82.62a3.18,3.18,0,0,0-.86.28,7.82,7.82,0,0,0-1.17.89,2.86,2.86,0,0,0-.58.59,1.83,1.83,0,0,0-.28.58,1.5,1.5,0,0,0,.27,1.44,1.45,1.45,0,0,0,1.74,0,2.11,2.11,0,0,0,.29-.3,1.94,1.94,0,0,0,.31-.56,4.43,4.43,0,0,0,.28-1.19Z"/><line class="cls-4" x1="60.04" y1="97.36" x2="60.04" y2="88.9"/><path class="cls-3" d="M62.19,94.83a2.25,2.25,0,0,0-.21-.5,2.12,2.12,0,0,0-.85-.88,1.94,1.94,0,0,0-1.07-.21.88.88,0,0,0,0,.4,1.14,1.14,0,0,0,.31.52,2.12,2.12,0,0,0,.82.56A2,2,0,0,0,62.19,94.83Z"/><path class="cls-3" d="M62.19,93.1a2.37,2.37,0,0,0-1.06-1.39,1.94,1.94,0,0,0-1.07-.21.88.88,0,0,0,0,.4,1.14,1.14,0,0,0,.31.52,2.12,2.12,0,0,0,.82.56A2.2,2.2,0,0,0,62.19,93.1Z"/><path class="cls-3" d="M62.19,91.36A2.37,2.37,0,0,0,61.13,90a1.94,1.94,0,0,0-1.07-.21.89.89,0,0,0,0,.4,1.19,1.19,0,0,0,.31.53,2,2,0,0,0,.82.55A2.2,2.2,0,0,0,62.19,91.36Z"/><path class="cls-3" d="M57.88,94.83a2.38,2.38,0,0,1,.22-.5,2.09,2.09,0,0,1,.84-.88A1.94,1.94,0,0,1,60,93.24a.88.88,0,0,1,0,.4,1.14,1.14,0,0,1-.31.52,2.12,2.12,0,0,1-.82.56A2,2,0,0,1,57.88,94.83Z"/><path class="cls-3" d="M57.88,93.1a2.22,2.22,0,0,1,.22-.51,2.09,2.09,0,0,1,.84-.88A1.94,1.94,0,0,1,60,91.5a.88.88,0,0,1,0,.4,1.14,1.14,0,0,1-.31.52,2.12,2.12,0,0,1-.82.56A2.2,2.2,0,0,1,57.88,93.1Z"/><path class="cls-3" d="M57.88,91.36a2.22,2.22,0,0,1,.22-.51,2.09,2.09,0,0,1,.84-.88A1.94,1.94,0,0,1,60,89.76a.89.89,0,0,1,0,.4,1.19,1.19,0,0,1-.31.53,2,2,0,0,1-.82.55A2.2,2.2,0,0,1,57.88,91.36Z"/><path class="cls-2" d="M60,95.86a4.36,4.36,0,0,0,.48,1.07,2.32,2.32,0,0,0,1.18.81,2.77,2.77,0,0,0,.59.1c0-.14,0-.34,0-.58a3.19,3.19,0,0,0-.07-.78,2.09,2.09,0,0,0-.45-.87,2.24,2.24,0,0,0-1.33-.74L60,94.81C60,95.26,60,95.42,60,95.86Z"/><path class="cls-2" d="M60.05,95.86a4.73,4.73,0,0,1-.49,1.07,2.32,2.32,0,0,1-1.18.81,2.77,2.77,0,0,1-.59.1c0-.14,0-.34,0-.58a3.77,3.77,0,0,1,.07-.78,2.09,2.09,0,0,1,.45-.87,2.24,2.24,0,0,1,1.33-.74l.43-.06C60.06,95.26,60,95.42,60.05,95.86Z"/><circle class="cls-2" cx="60.02" cy="97.89" r="0.56"/><rect class="cls-3" x="72.05" y="96.02" width="3.97" height="3.97" transform="translate(148.07 196.01) rotate(-180)"/><rect class="cls-2" x="74.03" y="96.02" width="1.98" height="1.98" transform="translate(150.05 194.03) rotate(-180)"/><rect class="cls-2" x="72.05" y="98.01" width="1.98" height="1.98" transform="translate(146.09 197.99) rotate(-180)"/><rect class="cls-3" x="68.09" y="96.02" width="3.97" height="3.97" transform="translate(140.14 196.01) rotate(-180)"/><rect class="cls-2" x="70.07" y="96.02" width="1.98" height="1.98" transform="translate(142.12 194.03) rotate(-180)"/><rect class="cls-2" x="68.09" y="98.01" width="1.98" height="1.98" transform="translate(138.15 197.99) rotate(-180)"/><rect class="cls-3" x="64.12" y="96.02" width="3.97" height="3.97" transform="translate(132.21 196.01) rotate(-180)"/><rect class="cls-2" x="66.1" y="96.02" width="1.98" height="1.98" transform="translate(134.19 194.03) rotate(-180)"/><rect class="cls-2" x="64.12" y="98.01" width="1.98" height="1.98" transform="translate(130.22 197.99) rotate(-180)"/><rect class="cls-3" x="72.05" y="92.06" width="3.97" height="3.97" transform="translate(148.07 188.08) rotate(-180)"/><rect class="cls-2" x="74.03" y="92.06" width="1.98" height="1.98" transform="translate(150.05 186.1) rotate(-180)"/><rect class="cls-2" x="72.05" y="94.04" width="1.98" height="1.98" transform="translate(146.09 190.06) rotate(-180)"/><rect class="cls-3" x="68.09" y="92.06" width="3.97" height="3.97" transform="translate(140.14 188.08) rotate(-180)"/><rect class="cls-2" x="70.07" y="92.06" width="1.98" height="1.98" transform="translate(142.12 186.1) rotate(-180)"/><rect class="cls-2" x="68.09" y="94.04" width="1.98" height="1.98" transform="translate(138.15 190.06) rotate(-180)"/><rect class="cls-3" x="64.12" y="92.06" width="3.97" height="3.97" transform="translate(132.21 188.08) rotate(-180)"/><rect class="cls-2" x="66.1" y="92.06" width="1.98" height="1.98" transform="translate(134.19 186.1) rotate(-180)"/><rect class="cls-2" x="64.12" y="94.04" width="1.98" height="1.98" transform="translate(130.22 190.06) rotate(-180)"/><rect class="cls-3" x="72.05" y="88.09" width="3.97" height="3.97" transform="translate(148.07 180.15) rotate(-180)"/><rect class="cls-2" x="74.03" y="88.09" width="1.98" height="1.98" transform="translate(150.05 178.17) rotate(-180)"/><rect class="cls-2" x="72.05" y="90.07" width="1.98" height="1.98" transform="translate(146.09 182.13) rotate(-180)"/><rect class="cls-3" x="68.09" y="88.09" width="3.97" height="3.97" transform="translate(140.14 180.15) rotate(-180)"/><rect class="cls-2" x="70.07" y="88.09" width="1.98" height="1.98" transform="translate(142.12 178.17) rotate(-180)"/><rect class="cls-2" x="68.09" y="90.07" width="1.98" height="1.98" transform="translate(138.15 182.13) rotate(-180)"/><rect class="cls-3" x="64.12" y="88.09" width="3.97" height="3.97" transform="translate(132.21 180.15) rotate(-180)"/><rect class="cls-2" x="66.1" y="88.09" width="1.98" height="1.98" transform="translate(134.19 178.17) rotate(-180)"/><rect class="cls-2" x="64.12" y="90.07" width="1.98" height="1.98" transform="translate(130.22 182.13) rotate(-180)"/><rect class="cls-3" x="31.96" y="96.01" width="3.97" height="3.97" transform="translate(67.89 195.99) rotate(-180)"/><rect class="cls-2" x="33.94" y="96.01" width="1.98" height="1.98" transform="translate(69.87 194) rotate(-180)"/><rect class="cls-2" x="31.96" y="97.99" width="1.98" height="1.98" transform="translate(65.9 197.97) rotate(-180)"/><rect class="cls-3" x="28" y="96.01" width="3.97" height="3.97" transform="translate(59.96 195.99) rotate(-180)"/><rect class="cls-2" x="29.98" y="96.01" width="1.98" height="1.98" transform="translate(61.94 194) rotate(-180)"/><rect class="cls-2" x="28" y="97.99" width="1.98" height="1.98" transform="translate(57.97 197.97) rotate(-180)"/><rect class="cls-3" x="24.03" y="96.01" width="3.97" height="3.97" transform="translate(52.03 195.99) rotate(-180)"/><rect class="cls-2" x="26.01" y="96.01" width="1.98" height="1.98" transform="translate(54.01 194) rotate(-180)"/><rect class="cls-2" x="24.03" y="97.99" width="1.98" height="1.98" transform="translate(50.04 197.97) rotate(-180)"/><rect class="cls-3" x="31.96" y="92.05" width="3.97" height="3.97" transform="translate(67.89 188.06) rotate(-180)"/><rect class="cls-2" x="33.94" y="92.05" width="1.98" height="1.98" transform="translate(69.87 186.07) rotate(-180)"/><rect class="cls-2" x="31.96" y="94.03" width="1.98" height="1.98" transform="translate(65.9 190.04) rotate(-180)"/><rect class="cls-3" x="28" y="92.05" width="3.97" height="3.97" transform="translate(59.96 188.06) rotate(-180)"/><rect class="cls-2" x="29.98" y="92.05" width="1.98" height="1.98" transform="translate(61.94 186.07) rotate(-180)"/><rect class="cls-2" x="28" y="94.03" width="1.98" height="1.98" transform="translate(57.97 190.04) rotate(-180)"/><rect class="cls-3" x="24.03" y="92.05" width="3.97" height="3.97" transform="translate(52.03 188.06) rotate(-180)"/><rect class="cls-2" x="26.01" y="92.05" width="1.98" height="1.98" transform="translate(54.01 186.07) rotate(-180)"/><rect class="cls-2" x="24.03" y="94.03" width="1.98" height="1.98" transform="translate(50.04 190.04) rotate(-180)"/><rect class="cls-3" x="31.96" y="88.08" width="3.97" height="3.97" transform="translate(67.89 180.13) rotate(-180)"/><rect class="cls-2" x="33.94" y="88.08" width="1.98" height="1.98" transform="translate(69.87 178.14) rotate(-180)"/><rect class="cls-2" x="31.96" y="90.06" width="1.98" height="1.98" transform="translate(65.9 182.11) rotate(-180)"/><rect class="cls-3" x="28" y="88.08" width="3.97" height="3.97" transform="translate(59.96 180.13) rotate(-180)"/><rect class="cls-2" x="29.98" y="88.08" width="1.98" height="1.98" transform="translate(61.94 178.14) rotate(-180)"/><rect class="cls-2" x="28" y="90.06" width="1.98" height="1.98" transform="translate(57.97 182.11) rotate(-180)"/><rect class="cls-3" x="24.03" y="88.08" width="3.97" height="3.97" transform="translate(52.03 180.13) rotate(-180)"/><rect class="cls-2" x="26.01" y="88.08" width="1.98" height="1.98" transform="translate(54.01 178.14) rotate(-180)"/><rect class="cls-2" x="24.03" y="90.06" width="1.98" height="1.98" transform="translate(50.04 182.11) rotate(-180)"/><line class="cls-4" x1="39.66" y1="97.39" x2="39.66" y2="88.92"/><path class="cls-3" d="M41.82,94.86a2.78,2.78,0,0,0-.22-.51,2.06,2.06,0,0,0-.85-.88,1.93,1.93,0,0,0-1.07-.21.89.89,0,0,0,0,.4,1.16,1.16,0,0,0,.32.53,2,2,0,0,0,.82.56A2.14,2.14,0,0,0,41.82,94.86Z"/><path class="cls-3" d="M41.82,93.12a2.78,2.78,0,0,0-.22-.51,2.12,2.12,0,0,0-.85-.88,2,2,0,0,0-1.07-.21.93.93,0,0,0,0,.41,1.21,1.21,0,0,0,.32.52,2,2,0,0,0,.82.56A2,2,0,0,0,41.82,93.12Z"/><path class="cls-3" d="M41.82,91.38a3.07,3.07,0,0,0-.22-.5,2.07,2.07,0,0,0-.85-.89,1.9,1.9,0,0,0-1.07-.2.88.88,0,0,0,0,.4,1.15,1.15,0,0,0,.32.52,2,2,0,0,0,.82.56A2,2,0,0,0,41.82,91.38Z"/><path class="cls-3" d="M37.5,94.86a2.78,2.78,0,0,1,.22-.51,2.06,2.06,0,0,1,.85-.88,1.93,1.93,0,0,1,1.07-.21,1.06,1.06,0,0,1,0,.4,1.16,1.16,0,0,1-.32.53,2,2,0,0,1-.82.56A2.15,2.15,0,0,1,37.5,94.86Z"/><path class="cls-3" d="M37.5,93.12a2.78,2.78,0,0,1,.22-.51,2.12,2.12,0,0,1,.85-.88,2,2,0,0,1,1.07-.21,1.11,1.11,0,0,1,0,.41,1.21,1.21,0,0,1-.32.52,2.06,2.06,0,0,1-1.82.67Z"/><path class="cls-3" d="M37.5,91.38a3.07,3.07,0,0,1,.22-.5,2.07,2.07,0,0,1,.85-.89,1.9,1.9,0,0,1,1.07-.2,1.05,1.05,0,0,1,0,.4,1.15,1.15,0,0,1-.32.52,2.06,2.06,0,0,1-1.82.67Z"/><path class="cls-2" d="M39.65,95.88A4.77,4.77,0,0,0,40.13,97a2.34,2.34,0,0,0,1.19.82,2.05,2.05,0,0,0,.58.09,3.15,3.15,0,0,0,0-.57,3.21,3.21,0,0,0-.06-.78,2.07,2.07,0,0,0-.46-.88,2.2,2.2,0,0,0-1.32-.74l-.43,0C39.64,95.28,39.66,95.44,39.65,95.88Z"/><path class="cls-2" d="M39.67,95.88A4.73,4.73,0,0,1,39.18,97a2.32,2.32,0,0,1-1.18.82,2.11,2.11,0,0,1-.59.09,4.84,4.84,0,0,1,0-.57,3.21,3.21,0,0,1,.06-.78,2.2,2.2,0,0,1,.45-.88,2.24,2.24,0,0,1,1.33-.74l.43,0C39.68,95.28,39.66,95.44,39.67,95.88Z"/><circle class="cls-2" cx="39.65" cy="97.91" r="0.56"/><rect class="cls-1" x="76.02" y="87.96" width="12" height="12"/><path class="cls-3" d="M82,93.71a2.22,2.22,0,0,1,.21-.72,5.92,5.92,0,0,1,.36-.63,6.31,6.31,0,0,0,.35-.64,2.76,2.76,0,0,0,.19-.75,2.18,2.18,0,0,0,0-.76,1.6,1.6,0,0,0-.44-.8,1,1,0,0,0-.59-.33,1,1,0,0,0-.72.33,1.37,1.37,0,0,0-.35.77,2,2,0,0,0,0,.73,3.36,3.36,0,0,0,.21.83c.11.28.14.26.29.64s.12.31.24.65Z"/><path class="cls-3" d="M82.05,94.21a2.88,2.88,0,0,1-.21.72,5.92,5.92,0,0,1-.36.63c-.2.34-.3.52-.36.64a2.9,2.9,0,0,0-.18.75,2,2,0,0,0,0,.76,1.6,1.6,0,0,0,.44.8.93.93,0,0,0,.59.33,1,1,0,0,0,.72-.33,1.44,1.44,0,0,0,.35-.77,2.22,2.22,0,0,0,0-.73,3.27,3.27,0,0,0-.22-.83c-.1-.28-.13-.26-.29-.64s-.11-.31-.24-.65C82.25,94.72,82.16,94.49,82.05,94.21Z"/><path class="cls-3" d="M82.6,94.12a3.44,3.44,0,0,0,.28.86,6.6,6.6,0,0,0,.89,1.17,3,3,0,0,0,.58.57,2.19,2.19,0,0,0,.58.29,1.53,1.53,0,0,0,1.44-.27,1.43,1.43,0,0,0,0-1.74,1.63,1.63,0,0,0-.3-.3,2.59,2.59,0,0,0-.56-.31,4.77,4.77,0,0,0-1.19-.27Z"/><path class="cls-3" d="M82.58,93.7a3.67,3.67,0,0,1,.29-.86,6.6,6.6,0,0,1,.89-1.17,3,3,0,0,1,.58-.57,2,2,0,0,1,.58-.29,1.53,1.53,0,0,1,1.44.27,1.45,1.45,0,0,1,0,1.74,2,2,0,0,1-.3.3,2.18,2.18,0,0,1-.57.3,4.27,4.27,0,0,1-1.19.28Z"/><path class="cls-3" d="M81.43,94.12a3.44,3.44,0,0,1-.28.86,7.82,7.82,0,0,1-.89,1.17,2.78,2.78,0,0,1-.59.57,2,2,0,0,1-.58.29,1.53,1.53,0,0,1-1.44-.27,1.45,1.45,0,0,1,0-1.74,1.63,1.63,0,0,1,.3-.3,2.59,2.59,0,0,1,.56-.31,4.77,4.77,0,0,1,1.19-.27Z"/><path class="cls-3" d="M81.42,93.7a2.93,2.93,0,0,0-.29-.86,6.91,6.91,0,0,0-.88-1.17,3,3,0,0,0-.59-.57,2,2,0,0,0-.58-.29,1.53,1.53,0,0,0-1.44.27,1.43,1.43,0,0,0,0,1.74,1.35,1.35,0,0,0,.3.3,2.08,2.08,0,0,0,.56.3,4.27,4.27,0,0,0,1.19.28Z"/><rect class="cls-1" x="12.03" y="87.99" width="12" height="12"/><path class="cls-3" d="M18.05,93.74a2.38,2.38,0,0,1,.21-.73c.07-.15.1-.18.36-.62a6.07,6.07,0,0,0,.35-.65,3.24,3.24,0,0,0,.19-.74,2.24,2.24,0,0,0,0-.77,1.58,1.58,0,0,0-.44-.79,1,1,0,0,0-.6-.33.91.91,0,0,0-.71.33,1.31,1.31,0,0,0-.35.77,2,2,0,0,0,0,.73,3.62,3.62,0,0,0,.21.83c.11.28.13.26.29.64s.11.31.24.65C17.85,93.23,17.93,93.46,18.05,93.74Z"/><path class="cls-3" d="M18.06,94.24a3.17,3.17,0,0,1-.21.72c-.07.16-.11.19-.36.63a4.58,4.58,0,0,0-.36.64A2.9,2.9,0,0,0,17,97a2,2,0,0,0,0,.76,1.64,1.64,0,0,0,.45.8.93.93,0,0,0,.59.33,1,1,0,0,0,.71-.33,1.4,1.4,0,0,0,.36-.77,2.61,2.61,0,0,0,0-.74,3.3,3.3,0,0,0-.22-.82c-.1-.28-.13-.26-.29-.65-.1-.23-.11-.3-.24-.65C18.26,94.74,18.17,94.51,18.06,94.24Z"/><path class="cls-3" d="M18.6,94.15a3.84,3.84,0,0,0,.29.86,7.06,7.06,0,0,0,.89,1.16,2.85,2.85,0,0,0,.58.58,2,2,0,0,0,.58.29,1.53,1.53,0,0,0,1.44-.27,1.46,1.46,0,0,0,0-1.75,2.89,2.89,0,0,0-.3-.29,2.14,2.14,0,0,0-.57-.31,4.61,4.61,0,0,0-1.18-.27Z"/><path class="cls-3" d="M18.59,93.73a2.82,2.82,0,0,1,.29-.86,6.91,6.91,0,0,1,.88-1.17,2.85,2.85,0,0,1,.59-.58,1.83,1.83,0,0,1,.58-.28,1.5,1.5,0,0,1,1.44.27,1.43,1.43,0,0,1,0,1.74,1.66,1.66,0,0,1-.3.29,1.9,1.9,0,0,1-.56.31,4.27,4.27,0,0,1-1.19.28Z"/><path class="cls-3" d="M17.44,94.15a3,3,0,0,1-.29.86,7.42,7.42,0,0,1-.88,1.16,2.62,2.62,0,0,1-.59.58,2,2,0,0,1-.58.29,1.53,1.53,0,0,1-1.44-.27,1.45,1.45,0,0,1,0-1.75,1.66,1.66,0,0,1,.3-.29,2,2,0,0,1,.56-.31,4.67,4.67,0,0,1,1.19-.27Z"/><path class="cls-3" d="M17.43,93.73a3.51,3.51,0,0,0-.29-.86,6.6,6.6,0,0,0-.89-1.17,2.85,2.85,0,0,0-.58-.58,1.83,1.83,0,0,0-.58-.28,1.5,1.5,0,0,0-1.44.27,1.45,1.45,0,0,0,0,1.74,2.89,2.89,0,0,0,.3.29,2.14,2.14,0,0,0,.57.31,4.27,4.27,0,0,0,1.19.28Z"/><line class="cls-4" x1="2.63" y1="60.01" x2="11.09" y2="60.01"/><path class="cls-3" d="M5.15,62.16A2.12,2.12,0,0,0,5.66,62a2.12,2.12,0,0,0,.88-.85A1.94,1.94,0,0,0,6.75,60a.89.89,0,0,0-.4,0,1.19,1.19,0,0,0-.53.31,2.13,2.13,0,0,0-.55.82A2.2,2.2,0,0,0,5.15,62.16Z"/><path class="cls-3" d="M6.89,62.16A2.12,2.12,0,0,0,7.4,62a2.12,2.12,0,0,0,.88-.85A1.94,1.94,0,0,0,8.49,60a.89.89,0,0,0-.4,0,1.19,1.19,0,0,0-.53.31,2.12,2.12,0,0,0-.56.82A2.31,2.31,0,0,0,6.89,62.16Z"/><path class="cls-3" d="M8.63,62.16A2.37,2.37,0,0,0,10,61.1,2,2,0,0,0,10.23,60a.89.89,0,0,0-.4,0,1.19,1.19,0,0,0-.53.31,2.12,2.12,0,0,0-.56.82A2,2,0,0,0,8.63,62.16Z"/><path class="cls-3" d="M5.15,57.85a2.22,2.22,0,0,1,.51.22,2.09,2.09,0,0,1,.88.84A1.94,1.94,0,0,1,6.75,60a.89.89,0,0,1-.4,0,1.09,1.09,0,0,1-.53-.31,2.13,2.13,0,0,1-.55-.82A2.2,2.2,0,0,1,5.15,57.85Z"/><path class="cls-3" d="M6.89,57.85a2.22,2.22,0,0,1,.51.22,2.09,2.09,0,0,1,.88.84A1.94,1.94,0,0,1,8.49,60a.89.89,0,0,1-.4,0,1.09,1.09,0,0,1-.53-.31A2.12,2.12,0,0,1,7,58.85,2.31,2.31,0,0,1,6.89,57.85Z"/><path class="cls-3" d="M8.63,57.85a2.22,2.22,0,0,1,.51.22,2.09,2.09,0,0,1,.88.84A2,2,0,0,1,10.23,60a.89.89,0,0,1-.4,0,1.09,1.09,0,0,1-.53-.31,2.12,2.12,0,0,1-.56-.82A2,2,0,0,1,8.63,57.85Z"/><path class="cls-2" d="M4.13,60a4.36,4.36,0,0,0-1.07.48,2.36,2.36,0,0,0-.82,1.18,2.16,2.16,0,0,0-.09.59l.58,0a3.11,3.11,0,0,0,.77-.07,2.08,2.08,0,0,0,.88-.45,2.22,2.22,0,0,0,.74-1.33c0-.11,0-.36,0-.42C4.73,60,4.57,60,4.13,60Z"/><path class="cls-2" d="M4.13,60a4.73,4.73,0,0,1-1.07-.49,2.36,2.36,0,0,1-.82-1.18,2.16,2.16,0,0,1-.09-.59l.58,0a3.67,3.67,0,0,1,.77.07,2.08,2.08,0,0,1,.88.45,2.24,2.24,0,0,1,.74,1.33,4.08,4.08,0,0,1,0,.43C4.73,60,4.57,60,4.13,60Z"/><circle class="cls-2" cx="2.1" cy="59.99" r="0.56"/><rect class="cls-3" y="72.02" width="3.97" height="3.97" transform="translate(-72.02 75.99) rotate(-90)"/><rect class="cls-2" x="1.98" y="74" width="1.98" height="1.98" transform="translate(-72.02 77.97) rotate(-90)"/><rect class="cls-2" y="72.02" width="1.98" height="1.98" transform="translate(-72.02 74) rotate(-90)"/><rect class="cls-3" y="68.06" width="3.97" height="3.97" transform="translate(-68.06 72.02) rotate(-90)"/><rect class="cls-2" x="1.98" y="70.04" width="1.98" height="1.98" transform="translate(-68.06 74) rotate(-90)"/><rect class="cls-2" y="68.06" width="1.98" height="1.98" transform="translate(-68.06 70.04) rotate(-90)"/><rect class="cls-3" y="64.09" width="3.97" height="3.97" transform="translate(-64.09 68.06) rotate(-90)"/><rect class="cls-2" x="1.98" y="66.07" width="1.98" height="1.98" transform="translate(-64.09 70.04) rotate(-90)"/><rect class="cls-2" y="64.09" width="1.98" height="1.98" transform="translate(-64.09 66.07) rotate(-90)"/><rect class="cls-3" x="3.97" y="72.02" width="3.97" height="3.97" transform="translate(-68.06 79.95) rotate(-90)"/><rect class="cls-2" x="5.95" y="74" width="1.98" height="1.98" transform="translate(-68.06 81.93) rotate(-90)"/><rect class="cls-2" x="3.97" y="72.02" width="1.98" height="1.98" transform="translate(-68.06 77.97) rotate(-90)"/><rect class="cls-3" x="3.97" y="68.06" width="3.97" height="3.97" transform="translate(-64.09 75.99) rotate(-90)"/><rect class="cls-2" x="5.95" y="70.04" width="1.98" height="1.98" transform="translate(-64.09 77.97) rotate(-90)"/><rect class="cls-2" x="3.97" y="68.06" width="1.98" height="1.98" transform="translate(-64.09 74) rotate(-90)"/><rect class="cls-3" x="3.97" y="64.09" width="3.97" height="3.97" transform="translate(-60.13 72.02) rotate(-90)"/><rect class="cls-2" x="5.95" y="66.07" width="1.98" height="1.98" transform="translate(-60.13 74) rotate(-90)"/><rect class="cls-2" x="3.97" y="64.09" width="1.98" height="1.98" transform="translate(-60.13 70.04) rotate(-90)"/><rect class="cls-3" x="7.93" y="72.02" width="3.97" height="3.97" transform="translate(-64.09 83.92) rotate(-90)"/><rect class="cls-2" x="9.91" y="74" width="1.98" height="1.98" transform="translate(-64.09 85.9) rotate(-90)"/><rect class="cls-2" x="7.93" y="72.02" width="1.98" height="1.98" transform="translate(-64.09 81.93) rotate(-90)"/><rect class="cls-3" x="7.93" y="68.06" width="3.97" height="3.97" transform="translate(-60.13 79.95) rotate(-90)"/><rect class="cls-2" x="9.91" y="70.04" width="1.98" height="1.98" transform="translate(-60.13 81.93) rotate(-90)"/><rect class="cls-2" x="7.93" y="68.06" width="1.98" height="1.98" transform="translate(-60.13 77.97) rotate(-90)"/><rect class="cls-3" x="7.93" y="64.09" width="3.97" height="3.97" transform="translate(-56.16 75.99) rotate(-90)"/><rect class="cls-2" x="9.91" y="66.07" width="1.98" height="1.98" transform="translate(-56.16 77.97) rotate(-90)"/><rect class="cls-2" x="7.93" y="64.09" width="1.98" height="1.98" transform="translate(-56.16 74) rotate(-90)"/><rect class="cls-3" x="0.01" y="31.93" width="3.97" height="3.97" transform="translate(-31.92 35.91) rotate(-90)"/><rect class="cls-2" x="1.99" y="33.91" width="1.98" height="1.98" transform="translate(-31.92 37.89) rotate(-90)"/><rect class="cls-2" x="0.01" y="31.93" width="1.98" height="1.98" transform="translate(-31.92 33.92) rotate(-90)"/><rect class="cls-3" x="0.01" y="27.97" width="3.97" height="3.97" transform="translate(-27.95 31.94) rotate(-90)"/><rect class="cls-2" x="1.99" y="29.95" width="1.98" height="1.98" transform="translate(-27.95 33.92) rotate(-90)"/><rect class="cls-2" x="0.01" y="27.97" width="1.98" height="1.98" transform="translate(-27.95 29.96) rotate(-90)"/><rect class="cls-3" x="0.01" y="24" width="3.97" height="3.97" transform="translate(-23.99 27.98) rotate(-90)"/><rect class="cls-2" x="1.99" y="25.98" width="1.98" height="1.98" transform="translate(-23.99 29.96) rotate(-90)"/><rect class="cls-2" x="0.01" y="24" width="1.98" height="1.98" transform="translate(-23.99 25.99) rotate(-90)"/><rect class="cls-3" x="3.98" y="31.93" width="3.97" height="3.97" transform="translate(-27.95 39.87) rotate(-90)"/><rect class="cls-2" x="5.96" y="33.91" width="1.98" height="1.98" transform="translate(-27.95 41.86) rotate(-90)"/><rect class="cls-2" x="3.98" y="31.93" width="1.98" height="1.98" transform="translate(-27.95 37.89) rotate(-90)"/><rect class="cls-3" x="3.98" y="27.97" width="3.97" height="3.97" transform="translate(-23.99 35.91) rotate(-90)"/><rect class="cls-2" x="5.96" y="29.95" width="1.98" height="1.98" transform="translate(-23.99 37.89) rotate(-90)"/><rect class="cls-2" x="3.98" y="27.97" width="1.98" height="1.98" transform="translate(-23.99 33.92) rotate(-90)"/><rect class="cls-3" x="3.98" y="24" width="3.97" height="3.97" transform="translate(-20.02 31.94) rotate(-90)"/><rect class="cls-2" x="5.96" y="25.98" width="1.98" height="1.98" transform="translate(-20.02 33.92) rotate(-90)"/><rect class="cls-2" x="3.98" y="24" width="1.98" height="1.98" transform="translate(-20.02 29.96) rotate(-90)"/><rect class="cls-3" x="7.94" y="31.93" width="3.97" height="3.97" transform="translate(-23.99 43.84) rotate(-90)"/><rect class="cls-2" x="9.92" y="33.91" width="1.98" height="1.98" transform="translate(-23.99 45.82) rotate(-90)"/><rect class="cls-2" x="7.94" y="31.93" width="1.98" height="1.98" transform="translate(-23.99 41.86) rotate(-90)"/><rect class="cls-3" x="7.94" y="27.97" width="3.97" height="3.97" transform="translate(-20.02 39.87) rotate(-90)"/><rect class="cls-2" x="9.92" y="29.95" width="1.98" height="1.98" transform="translate(-20.02 41.86) rotate(-90)"/><rect class="cls-2" x="7.94" y="27.97" width="1.98" height="1.98" transform="translate(-20.02 37.89) rotate(-90)"/><rect class="cls-3" x="7.94" y="24" width="3.97" height="3.97" transform="translate(-16.06 35.91) rotate(-90)"/><rect class="cls-2" x="9.92" y="25.98" width="1.98" height="1.98" transform="translate(-16.06 37.89) rotate(-90)"/><rect class="cls-2" x="7.94" y="24" width="1.98" height="1.98" transform="translate(-16.06 33.92) rotate(-90)"/><line class="cls-4" x1="2.6" y1="39.63" x2="11.07" y2="39.63"/><path class="cls-3" d="M5.13,41.79a3.07,3.07,0,0,0,.5-.22,2.07,2.07,0,0,0,.89-.85,2,2,0,0,0,.21-1.07.93.93,0,0,0-.41,0A1.15,1.15,0,0,0,5.8,40a2,2,0,0,0-.56.82A2,2,0,0,0,5.13,41.79Z"/><path class="cls-3" d="M6.87,41.79a3.07,3.07,0,0,0,.5-.22,2,2,0,0,0,.88-.85,1.84,1.84,0,0,0,.21-1.07.88.88,0,0,0-.4,0,1.1,1.1,0,0,0-.52.32,2,2,0,0,0-.56.82A2,2,0,0,0,6.87,41.79Z"/><path class="cls-3" d="M8.61,41.79a3.07,3.07,0,0,0,.5-.22,2.06,2.06,0,0,0,.88-.85,1.84,1.84,0,0,0,.21-1.07.88.88,0,0,0-.4,0,1.1,1.1,0,0,0-.52.32,2,2,0,0,0-.56.82A2,2,0,0,0,8.61,41.79Z"/><path class="cls-3" d="M5.13,37.47a3.07,3.07,0,0,1,.5.22,2.07,2.07,0,0,1,.89.85,2,2,0,0,1,.21,1.07.93.93,0,0,1-.41,0,1.15,1.15,0,0,1-.52-.32,2.06,2.06,0,0,1-.67-1.82Z"/><path class="cls-3" d="M6.87,37.47a3.07,3.07,0,0,1,.5.22,2,2,0,0,1,.88.85,1.84,1.84,0,0,1,.21,1.07.88.88,0,0,1-.4,0,1.1,1.1,0,0,1-.52-.32,2.06,2.06,0,0,1-.67-1.82Z"/><path class="cls-3" d="M8.61,37.47a3.07,3.07,0,0,1,.5.22,2.06,2.06,0,0,1,.88.85,1.84,1.84,0,0,1,.21,1.07.88.88,0,0,1-.4,0,1.1,1.1,0,0,1-.52-.32,2.06,2.06,0,0,1-.67-1.82Z"/><path class="cls-2" d="M4.11,39.62A4.77,4.77,0,0,0,3,40.1a2.27,2.27,0,0,0-.82,1.19,2.6,2.6,0,0,0-.1.58,3.31,3.31,0,0,0,.58,0,3.21,3.21,0,0,0,.78-.06,2.13,2.13,0,0,0,.88-.46,2.31,2.31,0,0,0,.74-1.32c0-.11.05-.37.05-.43C4.71,39.61,4.55,39.63,4.11,39.62Z"/><path class="cls-2" d="M4.11,39.64A5.27,5.27,0,0,1,3,39.16,2.31,2.31,0,0,1,2.22,38a2.67,2.67,0,0,1-.1-.59,5.08,5.08,0,0,1,.58,0,3.21,3.21,0,0,1,.78.06,2.27,2.27,0,0,1,.88.45,2.36,2.36,0,0,1,.74,1.33c0,.11.05.37.05.43Z"/><circle class="cls-2" cx="2.08" cy="39.62" r="0.56"/><rect class="cls-1" x="0.03" y="75.99" width="12" height="12"/><path class="cls-3" d="M6.28,82a2.73,2.73,0,0,1,.72.21,5.92,5.92,0,0,1,.63.36,5.36,5.36,0,0,0,.64.35,2.76,2.76,0,0,0,.75.19,2,2,0,0,0,.76,0,1.6,1.6,0,0,0,.8-.44,1,1,0,0,0,.33-.59,1,1,0,0,0-.33-.72A1.37,1.37,0,0,0,9.81,81a2,2,0,0,0-.74,0,3.38,3.38,0,0,0-.82.21c-.28.11-.26.14-.65.29a6.91,6.91,0,0,1-.65.24Z"/><path class="cls-3" d="M5.78,82a3.12,3.12,0,0,1-.73-.21c-.15-.07-.18-.1-.62-.36s-.52-.3-.65-.36A2.91,2.91,0,0,0,3,80.91a2,2,0,0,0-.77,0,1.58,1.58,0,0,0-.79.44.81.81,0,0,0,0,1.31,1.44,1.44,0,0,0,.77.35A2.22,2.22,0,0,0,3,83a3.54,3.54,0,0,0,.83-.22c.28-.1.26-.13.64-.29l.65-.24Z"/><path class="cls-3" d="M5.87,82.57a3.18,3.18,0,0,0-.86.28,6.6,6.6,0,0,0-1.17.89,3.13,3.13,0,0,0-.58.58A2.23,2.23,0,0,0,3,84.9a1.5,1.5,0,0,0,.27,1.44,1.44,1.44,0,0,0,1.74,0,2.11,2.11,0,0,0,.29-.3,1.94,1.94,0,0,0,.31-.56,4.43,4.43,0,0,0,.28-1.19Z"/><path class="cls-3" d="M6.29,82.55a3.84,3.84,0,0,1,.86.29,6.29,6.29,0,0,1,1.16.89,2.85,2.85,0,0,1,.58.58,2,2,0,0,1,.29.58,1.53,1.53,0,0,1-.27,1.44,1.45,1.45,0,0,1-1.74,0,2,2,0,0,1-.3-.3,2.48,2.48,0,0,1-.31-.57,4.58,4.58,0,0,1-.27-1.19Z"/><path class="cls-3" d="M5.87,81.4A3.18,3.18,0,0,1,5,81.12a7.82,7.82,0,0,1-1.17-.89,2.86,2.86,0,0,1-.58-.59A1.83,1.83,0,0,1,3,79.06a1.5,1.5,0,0,1,.27-1.44,1.45,1.45,0,0,1,1.74,0,2.11,2.11,0,0,1,.29.3,1.94,1.94,0,0,1,.31.56,4.43,4.43,0,0,1,.28,1.19Z"/><path class="cls-3" d="M6.29,81.39a3,3,0,0,0,.86-.29,6.57,6.57,0,0,0,1.16-.88,2.85,2.85,0,0,0,.58-.59,2,2,0,0,0,.29-.58,1.53,1.53,0,0,0-.27-1.44,1.43,1.43,0,0,0-1.74,0,1.35,1.35,0,0,0-.3.3,2.36,2.36,0,0,0-.31.56,4.58,4.58,0,0,0-.27,1.19Z"/><rect class="cls-1" y="12" width="12" height="12"/><path class="cls-3" d="M6.25,18a2.22,2.22,0,0,1,.72.21,5.92,5.92,0,0,1,.63.36,6.31,6.31,0,0,0,.64.35,3.22,3.22,0,0,0,.75.19,2.18,2.18,0,0,0,.76,0,1.6,1.6,0,0,0,.8-.44,1,1,0,0,0,.33-.6,1,1,0,0,0-.33-.71A1.31,1.31,0,0,0,9.78,17a2,2,0,0,0-.73,0,3.36,3.36,0,0,0-.83.21c-.28.11-.26.13-.64.29s-.31.11-.65.24Z"/><path class="cls-3" d="M5.75,18A2.88,2.88,0,0,1,5,17.82c-.16-.07-.19-.11-.63-.36a5.26,5.26,0,0,0-.64-.36A2.9,2.9,0,0,0,3,16.92a2,2,0,0,0-.76,0,1.64,1.64,0,0,0-.8.45.93.93,0,0,0-.33.59,1,1,0,0,0,.33.71,1.4,1.4,0,0,0,.77.36A2.53,2.53,0,0,0,3,19a3.27,3.27,0,0,0,.83-.22c.28-.1.26-.13.64-.29s.31-.11.65-.24Z"/><path class="cls-3" d="M5.84,18.57a3.84,3.84,0,0,0-.86.29,6.6,6.6,0,0,0-1.17.89,3,3,0,0,0-.57.58,2,2,0,0,0-.29.58,1.53,1.53,0,0,0,.27,1.44,1.45,1.45,0,0,0,1.74,0,2,2,0,0,0,.3-.3,2.48,2.48,0,0,0,.31-.57,4.61,4.61,0,0,0,.27-1.18Z"/><path class="cls-3" d="M6.26,18.56a3,3,0,0,1,.86.29,6.91,6.91,0,0,1,1.17.88,3,3,0,0,1,.57.59,2,2,0,0,1,.29.58,1.53,1.53,0,0,1-.27,1.44,1.43,1.43,0,0,1-1.74,0,1.35,1.35,0,0,1-.3-.3,1.93,1.93,0,0,1-.3-.56,4.27,4.27,0,0,1-.28-1.19Z"/><path class="cls-3" d="M5.84,17.41A3,3,0,0,1,5,17.12a6.91,6.91,0,0,1-1.17-.88,2.78,2.78,0,0,1-.57-.59A2,2,0,0,1,3,15.07a1.53,1.53,0,0,1,.27-1.44,1.43,1.43,0,0,1,1.74,0,1.35,1.35,0,0,1,.3.3,2.36,2.36,0,0,1,.31.56,4.67,4.67,0,0,1,.27,1.19Z"/><path class="cls-3" d="M6.26,17.4a3.84,3.84,0,0,0,.86-.29,6.6,6.6,0,0,0,1.17-.89,3,3,0,0,0,.57-.58,2,2,0,0,0,.29-.58,1.53,1.53,0,0,0-.27-1.44,1.45,1.45,0,0,0-1.74,0,2,2,0,0,0-.3.3,2.18,2.18,0,0,0-.3.57,4.27,4.27,0,0,0-.28,1.19Z"/><rect class="cls-2" x="-0.03" y="43.82" width="12" height="12"/><circle class="cls-3" cx="3.65" cy="47.54" r="2.45"/><circle class="cls-3" cx="8.29" cy="47.54" r="2.45"/><circle class="cls-3" cx="3.65" cy="52.09" r="2.45"/><circle class="cls-3" cx="8.29" cy="52.09" r="2.45"/><circle class="cls-3" cx="6.1" cy="49.99" r="3.46"/><circle class="cls-2" cx="6" cy="49.99" r="2.79"/><path class="cls-3" d="M5.37,48.58V51.4a.63.63,0,0,0,1.25,0V48.58a.63.63,0,0,0-1.25,0Z"/><path class="cls-3" d="M7.4,49.37H4.59A.62.62,0,0,0,4,50a.62.62,0,0,0,.62.62H7.4a.62.62,0,1,0,0-1.24Z"/></g></svg>