<svg xmlns="http://www.w3.org/2000/svg" viewBox="0 0 100 100"><defs><style>.cls-1{fill:#fff;}.cls-2{fill:#c71620;}.cls-3,.cls-6{fill:#23398c;}.cls-4,.cls-5{fill:#b52620;}.cls-4{stroke:#be1622;stroke-width:0.24px;}.cls-4,.cls-6{stroke-miterlimit:10;}.cls-6{stroke:#23398c;stroke-width:0.38px;}</style></defs><g id="Onder"><rect class="cls-1" y="0.04" width="100" height="12"/><rect class="cls-1" x="44" y="44.07" width="100" height="12" transform="translate(144.07 -43.92) rotate(90)"/><rect class="cls-1" y="88.04" width="100" height="12" transform="translate(100 188.07) rotate(-180)"/><rect class="cls-1" x="-43.99" y="44" width="100" height="12" transform="translate(-43.99 56) rotate(-90)"/></g><g id="Laag_1" data-name="Laag 1"><rect class="cls-2" x="0.12" width="11.92" height="11.8"/><rect class="cls-1" x="4.01" width="3.97" height="11.8"/><rect class="cls-3" x="0.04" width="3.97" height="11.8"/><rect class="cls-2" x="0.08" y="88.25" width="11.92" height="11.8"/><rect class="cls-1" x="3.97" y="88.25" width="3.97" height="11.8"/><rect class="cls-3" y="88.25" width="3.97" height="11.8"/><rect class="cls-2" x="88.09" y="0.04" width="11.92" height="11.8"/><rect class="cls-1" x="91.99" y="0.04" width="3.97" height="11.8"/><rect class="cls-3" x="88.02" y="0.04" width="3.97" height="11.8"/><rect class="cls-2" x="88.05" y="88.06" width="11.92" height="11.93"/><rect class="cls-1" x="91.95" y="88.06" width="3.97" height="11.93"/><rect class="cls-3" x="87.98" y="88.06" width="3.97" height="11.93"/><rect class="cls-3" x="0.02" y="44.45" width="12" height="12"/><path class="cls-4" d="M.55,50.27a11,11,0,0,1,3.76-.88,8.67,8.67,0,0,1,1.14,0A3.28,3.28,0,0,1,4,48.16a2.14,2.14,0,0,1-.42-1.67,2,2,0,0,1,1.15-1.25,3.26,3.26,0,0,1,3,.47,1.79,1.79,0,0,0-1.61-.05,1.6,1.6,0,0,0-.76.83c-.4,1.11.82,2.23.89,2.3a3,3,0,0,0,1.48.7.61.61,0,0,1,.5-.68.6.6,0,0,1,.44.73,2.32,2.32,0,0,0,.63,0,1.57,1.57,0,0,0,1-.52,1.21,1.21,0,0,0,.21-.68.9.9,0,0,1,.23.62c0,.51-.63.8-.54,1s.3,0,.7.08a2.1,2.1,0,0,1,.78.28"/><path class="cls-4" d="M.55,50.25a11,11,0,0,0,3.76.89,10.83,10.83,0,0,0,1.14,0A3.24,3.24,0,0,0,4,52.36,2.14,2.14,0,0,0,3.6,54a2,2,0,0,0,1.15,1.25,3.26,3.26,0,0,0,3-.47,1.82,1.82,0,0,1-1.61.06A1.64,1.64,0,0,1,5.4,54c-.4-1.1.82-2.23.89-2.29A3,3,0,0,1,7.77,51a.6.6,0,0,0,.5.68A.6.6,0,0,0,8.71,51a2.4,2.4,0,0,1,.63,0,1.49,1.49,0,0,1,1,.52,1.15,1.15,0,0,1,.21.68.92.92,0,0,0,.23-.63c0-.5-.63-.79-.54-1s.3,0,.7-.08a2.09,2.09,0,0,0,.78-.29"/><polygon class="cls-5" points="0.62 50.41 0.28 50.27 0.62 50.11 0.62 50.41"/><path class="cls-1" d="M8.21,51.56a2.18,2.18,0,0,1,0-2.53A5,5,0,0,0,8.21,51.56Z"/><path class="cls-1" d="M11.17,50.31c-.4,0-.79.07-1.19.09a2.63,2.63,0,0,1-1.18-.08v0A2.62,2.62,0,0,1,10,50.21c.39,0,.79,0,1.19.07Z"/><path class="cls-1" d="M4.67,55A1.46,1.46,0,0,1,4,53.55a3.26,3.26,0,0,1,.81-1.45,4.79,4.79,0,0,1,2.9-1.54v0a8.69,8.69,0,0,0-2.76,1.66,3,3,0,0,0-.83,1.34A1.36,1.36,0,0,0,4.69,55Z"/><path class="cls-1" d="M4.69,45.55a1.36,1.36,0,0,0-.61,1.38,3,3,0,0,0,.83,1.34,8.69,8.69,0,0,0,2.76,1.66v0a4.84,4.84,0,0,1-2.9-1.54A3.24,3.24,0,0,1,4,47a1.45,1.45,0,0,1,.71-1.42Z"/><path class="cls-1" d="M.71,50.25l3.48-.1a23.8,23.8,0,0,1,3.48.08v0a23.8,23.8,0,0,1-3.48.09L.71,50.27Z"/><rect class="cls-3" x="44.15" width="12" height="12"/><path class="cls-4" d="M50.33.53a10.78,10.78,0,0,1,.89,4.9A3.25,3.25,0,0,1,52.44,4a2.16,2.16,0,0,1,1.67-.41,2,2,0,0,1,1.25,1.14,3.29,3.29,0,0,1-.47,3A1.81,1.81,0,0,0,55,6.13a1.64,1.64,0,0,0-.84-.76c-1.1-.4-2.23.82-2.29.89a3,3,0,0,0-.71,1.49.59.59,0,0,1,.68.49.6.6,0,0,1-.73.45,2.33,2.33,0,0,0,0,.62,1.47,1.47,0,0,0,.52,1,1.08,1.08,0,0,0,.68.21.93.93,0,0,1-.63.24c-.5,0-.79-.64-1-.55s0,.31-.08.7a2,2,0,0,1-.29.79"/><path class="cls-4" d="M50.35.53a11.18,11.18,0,0,0-.88,3.75,11,11,0,0,0,0,1.15A3.22,3.22,0,0,0,48.24,4a2.14,2.14,0,0,0-1.67-.41,2,2,0,0,0-1.25,1.14,3.32,3.32,0,0,0,.47,3,1.85,1.85,0,0,1,0-1.62,1.6,1.6,0,0,1,.83-.76c1.11-.4,2.24.82,2.3.89a3,3,0,0,1,.7,1.49.6.6,0,0,0-.68.49.61.61,0,0,0,.73.45,2.25,2.25,0,0,1,0,.62,1.55,1.55,0,0,1-.52,1,1.14,1.14,0,0,1-.68.21.9.9,0,0,0,.62.24c.51,0,.8-.64,1-.55s0,.31.08.7a2.16,2.16,0,0,0,.28.79"/><polygon class="cls-5" points="50.19 0.59 50.33 0.26 50.49 0.59 50.19 0.59"/><path class="cls-1" d="M49.05,8.18a2.19,2.19,0,0,1,2.53,0A5.16,5.16,0,0,0,49.05,8.18Z"/><path class="cls-1" d="M50.3,11.14c0-.4-.07-.79-.1-1.18a3,3,0,0,1,.08-1.19h0A2.79,2.79,0,0,1,50.4,10c0,.4,0,.79-.08,1.19Z"/><path class="cls-1" d="M45.63,4.65a1.43,1.43,0,0,1,1.42-.72,3.14,3.14,0,0,1,1.45.82,4.75,4.75,0,0,1,1.55,2.89h0a8.48,8.48,0,0,0-1.66-2.76A3.11,3.11,0,0,0,47,4.05a1.39,1.39,0,0,0-1.38.61Z"/><path class="cls-1" d="M55.06,4.66a1.4,1.4,0,0,0-1.38-.61,3.09,3.09,0,0,0-1.35.84,8.28,8.28,0,0,0-1.65,2.76h0A4.8,4.8,0,0,1,52.2,4.75a3.14,3.14,0,0,1,1.45-.82,1.46,1.46,0,0,1,1.43.72Z"/><path class="cls-1" d="M50.36.68l.09,3.48a22.48,22.48,0,0,1-.08,3.48h0a22.48,22.48,0,0,1-.09-3.48L50.33.68Z"/><rect class="cls-3" x="88.07" y="43.86" width="12" height="12"/><path class="cls-4" d="M99.54,50a11,11,0,0,1-3.76.89,10.83,10.83,0,0,1-1.14,0,3.24,3.24,0,0,1,1.43,1.22,2.14,2.14,0,0,1,.42,1.67,2.07,2.07,0,0,1-1.15,1.25,3.26,3.26,0,0,1-3-.47,1.81,1.81,0,0,0,1.61.06,1.64,1.64,0,0,0,.76-.84c.4-1.1-.82-2.23-.89-2.29a3,3,0,0,0-1.49-.71.59.59,0,0,1-.49.68.6.6,0,0,1-.44-.73,2.39,2.39,0,0,0-.63,0,1.49,1.49,0,0,0-1,.52,1.15,1.15,0,0,0-.21.68,1,1,0,0,1-.24-.63c0-.5.64-.79.55-1s-.3,0-.7-.08a2.09,2.09,0,0,1-.78-.29"/><path class="cls-4" d="M99.54,50.06a11,11,0,0,0-3.76-.88,8.66,8.66,0,0,0-1.14,0A3.28,3.28,0,0,0,96.07,48a2.14,2.14,0,0,0,.42-1.67A2.07,2.07,0,0,0,95.34,45a3.3,3.3,0,0,0-3,.47,1.82,1.82,0,0,1,1.62,0,1.6,1.6,0,0,1,.76.83c.4,1.11-.82,2.23-.89,2.3a3,3,0,0,1-1.49.7.51.51,0,1,0-.93,0,2.31,2.31,0,0,1-.63,0,1.57,1.57,0,0,1-1-.52,1.21,1.21,0,0,1-.21-.68,1,1,0,0,0-.24.62c0,.51.64.8.55,1s-.3,0-.7.08a2.1,2.1,0,0,0-.78.28"/><polygon class="cls-5" points="99.47 49.9 99.81 50.04 99.47 50.2 99.47 49.9"/><path class="cls-1" d="M91.88,48.76a2.19,2.19,0,0,1,0,2.53A5,5,0,0,0,91.88,48.76Z"/><path class="cls-1" d="M88.92,50l1.19-.1a2.78,2.78,0,0,1,1.18.08v0a2.79,2.79,0,0,1-1.18.09L88.92,50Z"/><path class="cls-1" d="M95.41,45.34a1.43,1.43,0,0,1,.72,1.42,3.21,3.21,0,0,1-.81,1.45,4.8,4.8,0,0,1-2.9,1.55v0a8.34,8.34,0,0,0,2.75-1.65A3,3,0,0,0,96,46.74a1.39,1.39,0,0,0-.61-1.38Z"/><path class="cls-1" d="M95.4,54.76A1.39,1.39,0,0,0,96,53.38,3,3,0,0,0,95.17,52a8.34,8.34,0,0,0-2.75-1.65v0a4.8,4.8,0,0,1,2.9,1.55,3.21,3.21,0,0,1,.81,1.45,1.43,1.43,0,0,1-.72,1.42Z"/><path class="cls-1" d="M99.38,50.07l-3.48.09a22.48,22.48,0,0,1-3.48-.08v0A22.48,22.48,0,0,1,95.9,50l3.48.07Z"/><rect class="cls-3" x="44.23" y="88.06" width="12" height="12"/><path class="cls-4" d="M50.05,99.53a11,11,0,0,1-.88-3.76,8.67,8.67,0,0,1,0-1.14,3.28,3.28,0,0,1-1.23,1.43,2.14,2.14,0,0,1-1.67.42A2,2,0,0,1,45,95.33a3.26,3.26,0,0,1,.47-3,1.79,1.79,0,0,0-.05,1.61,1.6,1.6,0,0,0,.83.76c1.11.4,2.23-.82,2.3-.89a3,3,0,0,0,.7-1.48.61.61,0,0,1-.68-.5.6.6,0,0,1,.73-.44,2.31,2.31,0,0,0,0-.63,1.55,1.55,0,0,0-.53-1,1.14,1.14,0,0,0-.67-.21.9.9,0,0,1,.62-.23c.51,0,.8.63,1,.54s0-.3.08-.7a2.1,2.1,0,0,1,.28-.78"/><path class="cls-4" d="M50,99.53a11,11,0,0,0,.89-3.76,10.83,10.83,0,0,0,0-1.14,3.24,3.24,0,0,0,1.22,1.43,2.14,2.14,0,0,0,1.67.42,2,2,0,0,0,1.25-1.15,3.26,3.26,0,0,0-.47-3,1.79,1.79,0,0,1,0,1.61,1.56,1.56,0,0,1-.83.76c-1.11.4-2.23-.82-2.29-.89a3,3,0,0,1-.71-1.48.61.61,0,0,0,.68-.5.6.6,0,0,0-.73-.44,2.39,2.39,0,0,1,0-.63,1.49,1.49,0,0,1,.52-1,1.15,1.15,0,0,1,.68-.21.94.94,0,0,0-.63-.23c-.5,0-.79.63-1,.54s0-.3-.08-.7a2.09,2.09,0,0,0-.29-.78"/><polygon class="cls-5" points="50.19 99.46 50.05 99.8 49.89 99.46 50.19 99.46"/><path class="cls-1" d="M51.34,91.87a2.19,2.19,0,0,1-2.53,0A5,5,0,0,0,51.34,91.87Z"/><path class="cls-1" d="M50.09,88.91c0,.4.07.79.09,1.19a2.63,2.63,0,0,1-.08,1.18h0A2.79,2.79,0,0,1,50,90.1c0-.4.05-.79.08-1.19Z"/><path class="cls-1" d="M54.76,95.4a1.45,1.45,0,0,1-1.43.72,3.26,3.26,0,0,1-1.45-.81,4.86,4.86,0,0,1-1.55-2.9h0A8.66,8.66,0,0,0,52,95.17a3,3,0,0,0,1.35.83,1.36,1.36,0,0,0,1.38-.61Z"/><path class="cls-1" d="M45.33,95.39a1.36,1.36,0,0,0,1.38.61,3,3,0,0,0,1.34-.83,8.69,8.69,0,0,0,1.66-2.76h0a4.84,4.84,0,0,1-1.54,2.9,3.24,3.24,0,0,1-1.46.81,1.44,1.44,0,0,1-1.42-.72Z"/><path class="cls-1" d="M50,99.37l-.1-3.48A23.8,23.8,0,0,1,50,92.41h0a23.8,23.8,0,0,1,.09,3.48l-.08,3.48Z"/><polyline class="cls-5" points="64.01 0 66.01 0 66.01 2"/><polyline class="cls-5" points="68.01 0 68.01 2 66.01 2"/><polyline class="cls-5" points="68.01 0 70.01 0 70.01 2"/><polyline class="cls-5" points="72.01 0 72.01 2 70.01 2"/><polyline class="cls-5" points="76.02 0 76.02 2 74.02 2"/><polyline class="cls-5" points="72.01 0 74.02 0 74.02 2"/><line class="cls-5" x1="64.01" y1="2.01" x2="66.01" y2="2.01"/><line class="cls-5" x1="66.01" y1="2.02" x2="68.01" y2="2.02"/><line class="cls-5" x1="68.01" y1="2.01" x2="70.01" y2="2.01"/><line class="cls-5" x1="70.01" y1="2.02" x2="72.01" y2="2.02"/><line class="cls-5" x1="72.01" y1="2.02" x2="74.02" y2="2.02"/><line class="cls-5" x1="74.02" y1="2.03" x2="76.02" y2="2.03"/><polyline class="cls-5" points="64 2 66 2 66 4.01"/><polyline class="cls-5" points="68 2 68 4.01 66 4.01"/><polyline class="cls-5" points="68 2 70.01 2 70.01 4.01"/><polyline class="cls-5" points="72.01 2 72.01 4.01 70.01 4.01"/><polyline class="cls-5" points="76.01 2 76.01 4.01 74.01 4.01"/><polyline class="cls-5" points="72.01 2 74.01 2 74.01 4.01"/><polyline class="cls-5" points="64 4.01 66 4.01 66 6.01"/><polyline class="cls-5" points="68 4.01 68 6.01 66 6.01"/><polyline class="cls-5" points="68 4.01 70.01 4.01 70.01 6.01"/><polyline class="cls-5" points="72.01 4.01 72.01 6.01 70.01 6.01"/><polyline class="cls-5" points="76.01 4.01 76.01 6.01 74.01 6.01"/><polyline class="cls-5" points="72.01 4.01 74.01 4.01 74.01 6.01"/><polyline class="cls-5" points="64 6.01 66 6.01 66 8.01"/><polyline class="cls-5" points="68 6.01 68 8.01 66 8.01"/><polyline class="cls-5" points="68 6.01 70.01 6.01 70.01 8.01"/><polyline class="cls-5" points="72.01 6.01 72.01 8.01 70.01 8.01"/><polyline class="cls-5" points="76.01 6.01 76.01 8.01 74.01 8.01"/><polyline class="cls-5" points="72.01 6.01 74.01 6.01 74.01 8.01"/><polyline class="cls-5" points="64 8.01 66 8.01 66 10.01"/><polyline class="cls-5" points="68 8.01 68 10.01 66 10.01"/><polyline class="cls-5" points="68 8.01 70.01 8.01 70.01 10.01"/><polyline class="cls-5" points="72.01 8.01 72.01 10.01 70.01 10.01"/><polyline class="cls-5" points="76.01 8.01 76.01 10.01 74.01 10.01"/><polyline class="cls-5" points="72.01 8.01 74.01 8.01 74.01 10.01"/><polyline class="cls-5" points="64 9.98 66 9.98 66 11.99"/><polyline class="cls-5" points="68 9.98 68 11.99 66 11.99"/><polyline class="cls-5" points="68 9.98 70.01 9.98 70.01 11.99"/><polyline class="cls-5" points="72.01 9.98 72.01 11.99 70.01 11.99"/><polyline class="cls-5" points="76.01 9.98 76.01 11.99 74.01 11.99"/><polyline class="cls-5" points="72.01 9.98 74.01 9.98 74.01 11.99"/><polyline class="cls-5" points="36.04 0 34.04 0 34.04 2"/><polyline class="cls-5" points="32.03 0 32.03 2 34.04 2"/><polyline class="cls-5" points="32.03 0 30.03 0 30.03 2"/><polyline class="cls-5" points="28.03 0 28.03 2 30.03 2"/><polyline class="cls-5" points="24.03 0 24.03 2 26.03 2"/><polyline class="cls-5" points="28.03 0 26.03 0 26.03 2"/><line class="cls-5" x1="36.04" y1="2.01" x2="34.04" y2="2.01"/><line class="cls-5" x1="34.04" y1="2.02" x2="32.03" y2="2.02"/><line class="cls-5" x1="32.03" y1="2.01" x2="30.03" y2="2.01"/><line class="cls-5" x1="30.03" y1="2.02" x2="28.03" y2="2.02"/><line class="cls-5" x1="28.03" y1="2.02" x2="26.03" y2="2.02"/><line class="cls-5" x1="26.03" y1="2.03" x2="24.03" y2="2.03"/><polyline class="cls-5" points="36.04 2 34.04 2 34.04 4.01"/><polyline class="cls-5" points="32.04 2 32.04 4.01 34.04 4.01"/><polyline class="cls-5" points="32.04 2 30.04 2 30.04 4.01"/><polyline class="cls-5" points="28.04 2 28.04 4.01 30.04 4.01"/><polyline class="cls-5" points="24.03 2 24.03 4.01 26.03 4.01"/><polyline class="cls-5" points="28.04 2 26.03 2 26.03 4.01"/><polyline class="cls-5" points="36.04 4.01 34.04 4.01 34.04 6.01"/><polyline class="cls-5" points="32.04 4.01 32.04 6.01 34.04 6.01"/><polyline class="cls-5" points="32.04 4.01 30.04 4.01 30.04 6.01"/><polyline class="cls-5" points="28.04 4.01 28.04 6.01 30.04 6.01"/><polyline class="cls-5" points="24.03 4.01 24.03 6.01 26.03 6.01"/><polyline class="cls-5" points="28.04 4.01 26.03 4.01 26.03 6.01"/><polyline class="cls-5" points="36.04 6.01 34.04 6.01 34.04 8.01"/><polyline class="cls-5" points="32.04 6.01 32.04 8.01 34.04 8.01"/><polyline class="cls-5" points="32.04 6.01 30.04 6.01 30.04 8.01"/><polyline class="cls-5" points="28.04 6.01 28.04 8.01 30.04 8.01"/><polyline class="cls-5" points="24.03 6.01 24.03 8.01 26.03 8.01"/><polyline class="cls-5" points="28.04 6.01 26.03 6.01 26.03 8.01"/><polyline class="cls-5" points="36.04 8.01 34.04 8.01 34.04 10.01"/><polyline class="cls-5" points="32.04 8.01 32.04 10.01 34.04 10.01"/><polyline class="cls-5" points="32.04 8.01 30.04 8.01 30.04 10.01"/><polyline class="cls-5" points="28.04 8.01 28.04 10.01 30.04 10.01"/><polyline class="cls-5" points="24.03 8.01 24.03 10.01 26.03 10.01"/><polyline class="cls-5" points="28.04 8.01 26.03 8.01 26.03 10.01"/><polyline class="cls-5" points="36.04 9.98 34.04 9.98 34.04 11.99"/><polyline class="cls-5" points="32.04 9.98 32.04 11.99 34.04 11.99"/><polyline class="cls-5" points="32.04 9.98 30.04 9.98 30.04 11.99"/><polyline class="cls-5" points="28.04 9.98 28.04 11.99 30.04 11.99"/><polyline class="cls-5" points="24.03 9.98 24.03 11.99 26.03 11.99"/><polyline class="cls-5" points="28.04 9.98 26.03 9.98 26.03 11.99"/><polyline class="cls-5" points="36.02 99.99 34.02 99.99 34.02 97.99"/><polyline class="cls-5" points="32.02 99.99 32.02 97.99 34.02 97.99"/><polyline class="cls-5" points="32.02 99.99 30.02 99.99 30.02 97.99"/><polyline class="cls-5" points="28.01 99.99 28.01 97.99 30.02 97.99"/><polyline class="cls-5" points="24.01 99.99 24.01 97.99 26.01 97.99"/><polyline class="cls-5" points="28.01 99.99 26.01 99.99 26.01 97.99"/><line class="cls-5" x1="36.02" y1="97.99" x2="34.02" y2="97.99"/><line class="cls-5" x1="34.02" y1="97.98" x2="32.02" y2="97.98"/><line class="cls-5" x1="32.02" y1="97.98" x2="30.02" y2="97.98"/><line class="cls-5" x1="30.02" y1="97.97" x2="28.01" y2="97.97"/><line class="cls-5" x1="28.01" y1="97.98" x2="26.01" y2="97.98"/><line class="cls-5" x1="26.01" y1="97.97" x2="24.01" y2="97.97"/><polyline class="cls-5" points="36.03 97.99 34.02 97.99 34.02 95.99"/><polyline class="cls-5" points="32.02 97.99 32.02 95.99 34.02 95.99"/><polyline class="cls-5" points="32.02 97.99 30.02 97.99 30.02 95.99"/><polyline class="cls-5" points="28.02 97.99 28.02 95.99 30.02 95.99"/><polyline class="cls-5" points="24.02 97.99 24.02 95.99 26.02 95.99"/><polyline class="cls-5" points="28.02 97.99 26.02 97.99 26.02 95.99"/><polyline class="cls-5" points="36.03 95.99 34.02 95.99 34.02 93.99"/><polyline class="cls-5" points="32.02 95.99 32.02 93.99 34.02 93.99"/><polyline class="cls-5" points="32.02 95.99 30.02 95.99 30.02 93.99"/><polyline class="cls-5" points="28.02 95.99 28.02 93.99 30.02 93.99"/><polyline class="cls-5" points="24.02 95.99 24.02 93.99 26.02 93.99"/><polyline class="cls-5" points="28.02 95.99 26.02 95.99 26.02 93.99"/><polyline class="cls-5" points="36.03 93.99 34.02 93.99 34.02 91.98"/><polyline class="cls-5" points="32.02 93.99 32.02 91.98 34.02 91.98"/><polyline class="cls-5" points="32.02 93.99 30.02 93.99 30.02 91.98"/><polyline class="cls-5" points="28.02 93.99 28.02 91.98 30.02 91.98"/><polyline class="cls-5" points="24.02 93.99 24.02 91.98 26.02 91.98"/><polyline class="cls-5" points="28.02 93.99 26.02 93.99 26.02 91.98"/><polyline class="cls-5" points="36.03 91.98 34.02 91.98 34.02 89.98"/><polyline class="cls-5" points="32.02 91.98 32.02 89.98 34.02 89.98"/><polyline class="cls-5" points="32.02 91.98 30.02 91.98 30.02 89.98"/><polyline class="cls-5" points="28.02 91.98 28.02 89.98 30.02 89.98"/><polyline class="cls-5" points="24.02 91.98 24.02 89.98 26.02 89.98"/><polyline class="cls-5" points="28.02 91.98 26.02 91.98 26.02 89.98"/><polyline class="cls-5" points="36.03 90.01 34.02 90.01 34.02 88.01"/><polyline class="cls-5" points="32.02 90.01 32.02 88.01 34.02 88.01"/><polyline class="cls-5" points="32.02 90.01 30.02 90.01 30.02 88.01"/><polyline class="cls-5" points="28.02 90.01 28.02 88.01 30.02 88.01"/><polyline class="cls-5" points="24.02 90.01 24.02 88.01 26.02 88.01"/><polyline class="cls-5" points="28.02 90.01 26.02 90.01 26.02 88.01"/><polyline class="cls-5" points="63.99 99.99 65.99 99.99 65.99 97.99"/><polyline class="cls-5" points="67.99 99.99 67.99 97.99 65.99 97.99"/><polyline class="cls-5" points="67.99 99.99 70 99.99 70 97.99"/><polyline class="cls-5" points="72 99.99 72 97.99 70 97.99"/><polyline class="cls-5" points="76 99.99 76 97.99 74 97.99"/><polyline class="cls-5" points="72 99.99 74 99.99 74 97.99"/><line class="cls-5" x1="63.99" y1="97.99" x2="65.99" y2="97.99"/><line class="cls-5" x1="65.99" y1="97.98" x2="67.99" y2="97.98"/><line class="cls-5" x1="67.99" y1="97.98" x2="70" y2="97.98"/><line class="cls-5" x1="70" y1="97.97" x2="72" y2="97.97"/><line class="cls-5" x1="72" y1="97.98" x2="74" y2="97.98"/><line class="cls-5" x1="74" y1="97.97" x2="76" y2="97.97"/><polyline class="cls-5" points="63.98 97.99 65.99 97.99 65.99 95.99"/><polyline class="cls-5" points="67.99 97.99 67.99 95.99 65.99 95.99"/><polyline class="cls-5" points="67.99 97.99 69.99 97.99 69.99 95.99"/><polyline class="cls-5" points="71.99 97.99 71.99 95.99 69.99 95.99"/><polyline class="cls-5" points="76 97.99 76 95.99 73.99 95.99"/><polyline class="cls-5" points="71.99 97.99 73.99 97.99 73.99 95.99"/><polyline class="cls-5" points="63.98 95.99 65.99 95.99 65.99 93.99"/><polyline class="cls-5" points="67.99 95.99 67.99 93.99 65.99 93.99"/><polyline class="cls-5" points="67.99 95.99 69.99 95.99 69.99 93.99"/><polyline class="cls-5" points="71.99 95.99 71.99 93.99 69.99 93.99"/><polyline class="cls-5" points="76 95.99 76 93.99 73.99 93.99"/><polyline class="cls-5" points="71.99 95.99 73.99 95.99 73.99 93.99"/><polyline class="cls-5" points="63.98 93.99 65.99 93.99 65.99 91.98"/><polyline class="cls-5" points="67.99 93.99 67.99 91.98 65.99 91.98"/><polyline class="cls-5" points="67.99 93.99 69.99 93.99 69.99 91.98"/><polyline class="cls-5" points="71.99 93.99 71.99 91.98 69.99 91.98"/><polyline class="cls-5" points="76 93.99 76 91.98 73.99 91.98"/><polyline class="cls-5" points="71.99 93.99 73.99 93.99 73.99 91.98"/><polyline class="cls-5" points="63.98 91.98 65.99 91.98 65.99 89.98"/><polyline class="cls-5" points="67.99 91.98 67.99 89.98 65.99 89.98"/><polyline class="cls-5" points="67.99 91.98 69.99 91.98 69.99 89.98"/><polyline class="cls-5" points="71.99 91.98 71.99 89.98 69.99 89.98"/><polyline class="cls-5" points="76 91.98 76 89.98 73.99 89.98"/><polyline class="cls-5" points="71.99 91.98 73.99 91.98 73.99 89.98"/><polyline class="cls-5" points="63.98 90.01 65.99 90.01 65.99 88.01"/><polyline class="cls-5" points="67.99 90.01 67.99 88.01 65.99 88.01"/><polyline class="cls-5" points="67.99 90.01 69.99 90.01 69.99 88.01"/><polyline class="cls-5" points="71.99 90.01 71.99 88.01 69.99 88.01"/><polyline class="cls-5" points="76 90.01 76 88.01 73.99 88.01"/><polyline class="cls-5" points="71.99 90.01 73.99 90.01 73.99 88.01"/><polyline class="cls-5" points="-0.04 36.08 -0.04 34.08 1.96 34.08"/><polyline class="cls-5" points="-0.04 32.08 1.96 32.08 1.96 34.08"/><polyline class="cls-5" points="-0.04 32.08 -0.04 30.07 1.96 30.07"/><polyline class="cls-5" points="-0.04 28.07 1.96 28.07 1.96 30.07"/><polyline class="cls-5" points="-0.04 24.07 1.96 24.07 1.96 26.07"/><polyline class="cls-5" points="-0.04 28.07 -0.04 26.07 1.96 26.07"/><line class="cls-5" x1="1.96" y1="36.08" x2="1.96" y2="34.08"/><line class="cls-5" x1="1.97" y1="34.08" x2="1.97" y2="32.08"/><line class="cls-5" x1="1.97" y1="32.07" x2="1.97" y2="30.07"/><line class="cls-5" x1="1.98" y1="30.07" x2="1.98" y2="28.07"/><line class="cls-5" x1="1.97" y1="28.07" x2="1.97" y2="26.07"/><line class="cls-5" x1="1.98" y1="26.07" x2="1.98" y2="24.07"/><polyline class="cls-5" points="1.96 36.08 1.96 34.08 3.96 34.08"/><polyline class="cls-5" points="1.96 32.08 3.96 32.08 3.96 34.08"/><polyline class="cls-5" points="1.96 32.08 1.96 30.08 3.96 30.08"/><polyline class="cls-5" points="1.96 28.08 3.96 28.08 3.96 30.08"/><polyline class="cls-5" points="1.96 24.07 3.96 24.07 3.96 26.07"/><polyline class="cls-5" points="1.96 28.08 1.96 26.07 3.96 26.07"/><polyline class="cls-5" points="3.96 36.08 3.96 34.08 5.97 34.08"/><polyline class="cls-5" points="3.96 32.08 5.97 32.08 5.97 34.08"/><polyline class="cls-5" points="3.96 32.08 3.96 30.08 5.97 30.08"/><polyline class="cls-5" points="3.96 28.08 5.97 28.08 5.97 30.08"/><polyline class="cls-5" points="3.96 24.07 5.97 24.07 5.97 26.07"/><polyline class="cls-5" points="3.96 28.08 3.96 26.07 5.97 26.07"/><polyline class="cls-5" points="5.97 36.08 5.97 34.08 7.97 34.08"/><polyline class="cls-5" points="5.97 32.08 7.97 32.08 7.97 34.08"/><polyline class="cls-5" points="5.97 32.08 5.97 30.08 7.97 30.08"/><polyline class="cls-5" points="5.97 28.08 7.97 28.08 7.97 30.08"/><polyline class="cls-5" points="5.97 24.07 7.97 24.07 7.97 26.07"/><polyline class="cls-5" points="5.97 28.08 5.97 26.07 7.97 26.07"/><polyline class="cls-5" points="7.97 36.08 7.97 34.08 9.97 34.08"/><polyline class="cls-5" points="7.97 32.08 9.97 32.08 9.97 34.08"/><polyline class="cls-5" points="7.97 32.08 7.97 30.08 9.97 30.08"/><polyline class="cls-5" points="7.97 28.08 9.97 28.08 9.97 30.08"/><polyline class="cls-5" points="7.97 24.07 9.97 24.07 9.97 26.07"/><polyline class="cls-5" points="7.97 28.08 7.97 26.07 9.97 26.07"/><polyline class="cls-5" points="9.94 36.08 9.94 34.08 11.94 34.08"/><polyline class="cls-5" points="9.94 32.08 11.94 32.08 11.94 34.08"/><polyline class="cls-5" points="9.94 32.08 9.94 30.08 11.94 30.08"/><polyline class="cls-5" points="9.94 28.08 11.94 28.08 11.94 30.08"/><polyline class="cls-5" points="9.94 24.07 11.94 24.07 11.94 26.07"/><polyline class="cls-5" points="9.94 28.08 9.94 26.07 11.94 26.07"/><polyline class="cls-5" points="-0.04 64.05 -0.04 66.05 1.96 66.05"/><polyline class="cls-5" points="-0.04 68.05 1.96 68.05 1.96 66.05"/><polyline class="cls-5" points="-0.04 68.05 -0.04 70.05 1.96 70.05"/><polyline class="cls-5" points="-0.04 72.06 1.96 72.06 1.96 70.05"/><polyline class="cls-5" points="-0.04 76.06 1.96 76.06 1.96 74.06"/><polyline class="cls-5" points="-0.04 72.06 -0.04 74.06 1.96 74.06"/><line class="cls-5" x1="1.96" y1="64.05" x2="1.96" y2="66.05"/><line class="cls-5" x1="1.97" y1="66.05" x2="1.97" y2="68.05"/><line class="cls-5" x1="1.97" y1="68.05" x2="1.97" y2="70.05"/><line class="cls-5" x1="1.98" y1="70.05" x2="1.98" y2="72.05"/><line class="cls-5" x1="1.97" y1="72.05" x2="1.97" y2="74.06"/><line class="cls-5" x1="1.98" y1="74.06" x2="1.98" y2="76.06"/><polyline class="cls-5" points="1.96 64.04 1.96 66.04 3.96 66.04"/><polyline class="cls-5" points="1.96 68.05 3.96 68.05 3.96 66.04"/><polyline class="cls-5" points="1.96 68.05 1.96 70.05 3.96 70.05"/><polyline class="cls-5" points="1.96 72.05 3.96 72.05 3.96 70.05"/><polyline class="cls-5" points="1.96 76.05 3.96 76.05 3.96 74.05"/><polyline class="cls-5" points="1.96 72.05 1.96 74.05 3.96 74.05"/><polyline class="cls-5" points="3.96 64.04 3.96 66.04 5.97 66.04"/><polyline class="cls-5" points="3.96 68.05 5.97 68.05 5.97 66.04"/><polyline class="cls-5" points="3.96 68.05 3.96 70.05 5.97 70.05"/><polyline class="cls-5" points="3.96 72.05 5.97 72.05 5.97 70.05"/><polyline class="cls-5" points="3.96 76.05 5.97 76.05 5.97 74.05"/><polyline class="cls-5" points="3.96 72.05 3.96 74.05 5.97 74.05"/><polyline class="cls-5" points="5.97 64.04 5.97 66.04 7.97 66.04"/><polyline class="cls-5" points="5.97 68.05 7.97 68.05 7.97 66.04"/><polyline class="cls-5" points="5.97 68.05 5.97 70.05 7.97 70.05"/><polyline class="cls-5" points="5.97 72.05 7.97 72.05 7.97 70.05"/><polyline class="cls-5" points="5.97 76.05 7.97 76.05 7.97 74.05"/><polyline class="cls-5" points="5.97 72.05 5.97 74.05 7.97 74.05"/><polyline class="cls-5" points="7.97 64.04 7.97 66.04 9.97 66.04"/><polyline class="cls-5" points="7.97 68.05 9.97 68.05 9.97 66.04"/><polyline class="cls-5" points="7.97 68.05 7.97 70.05 9.97 70.05"/><polyline class="cls-5" points="7.97 72.05 9.97 72.05 9.97 70.05"/><polyline class="cls-5" points="7.97 76.05 9.97 76.05 9.97 74.05"/><polyline class="cls-5" points="7.97 72.05 7.97 74.05 9.97 74.05"/><polyline class="cls-5" points="9.94 64.04 9.94 66.04 11.94 66.04"/><polyline class="cls-5" points="9.94 68.05 11.94 68.05 11.94 66.04"/><polyline class="cls-5" points="9.94 68.05 9.94 70.05 11.94 70.05"/><polyline class="cls-5" points="9.94 72.05 11.94 72.05 11.94 70.05"/><polyline class="cls-5" points="9.94 76.05 11.94 76.05 11.94 74.05"/><polyline class="cls-5" points="9.94 72.05 9.94 74.05 11.94 74.05"/><polyline class="cls-5" points="100 64.03 100 66.04 97.99 66.04"/><polyline class="cls-5" points="100 68.04 97.99 68.04 97.99 66.04"/><polyline class="cls-5" points="100 68.04 100 70.04 97.99 70.04"/><polyline class="cls-5" points="100 72.04 97.99 72.04 97.99 70.04"/><polyline class="cls-5" points="100 76.05 97.99 76.05 97.99 74.04"/><polyline class="cls-5" points="100 72.04 100 74.04 97.99 74.04"/><line class="cls-5" x1="97.99" y1="64.03" x2="97.99" y2="66.04"/><line class="cls-5" x1="97.98" y1="66.04" x2="97.98" y2="68.04"/><line class="cls-5" x1="97.99" y1="68.04" x2="97.99" y2="70.04"/><line class="cls-5" x1="97.98" y1="70.04" x2="97.98" y2="72.04"/><line class="cls-5" x1="97.98" y1="72.04" x2="97.98" y2="74.04"/><line class="cls-5" x1="97.97" y1="74.04" x2="97.97" y2="76.05"/><polyline class="cls-5" points="97.99 64.03 97.99 66.03 95.99 66.03"/><polyline class="cls-5" points="97.99 68.03 95.99 68.03 95.99 66.03"/><polyline class="cls-5" points="97.99 68.03 97.99 70.03 95.99 70.03"/><polyline class="cls-5" points="97.99 72.04 95.99 72.04 95.99 70.03"/><polyline class="cls-5" points="97.99 76.04 95.99 76.04 95.99 74.04"/><polyline class="cls-5" points="97.99 72.04 97.99 74.04 95.99 74.04"/><polyline class="cls-5" points="95.99 64.03 95.99 66.03 93.99 66.03"/><polyline class="cls-5" points="95.99 68.03 93.99 68.03 93.99 66.03"/><polyline class="cls-5" points="95.99 68.03 95.99 70.03 93.99 70.03"/><polyline class="cls-5" points="95.99 72.04 93.99 72.04 93.99 70.03"/><polyline class="cls-5" points="95.99 76.04 93.99 76.04 93.99 74.04"/><polyline class="cls-5" points="95.99 72.04 95.99 74.04 93.99 74.04"/><polyline class="cls-5" points="93.99 64.03 93.99 66.03 91.99 66.03"/><polyline class="cls-5" points="93.99 68.03 91.99 68.03 91.99 66.03"/><polyline class="cls-5" points="93.99 68.03 93.99 70.03 91.99 70.03"/><polyline class="cls-5" points="93.99 72.04 91.99 72.04 91.99 70.03"/><polyline class="cls-5" points="93.99 76.04 91.99 76.04 91.99 74.04"/><polyline class="cls-5" points="93.99 72.04 93.99 74.04 91.99 74.04"/><polyline class="cls-5" points="91.99 64.03 91.99 66.03 89.99 66.03"/><polyline class="cls-5" points="91.99 68.03 89.99 68.03 89.99 66.03"/><polyline class="cls-5" points="91.99 68.03 91.99 70.03 89.99 70.03"/><polyline class="cls-5" points="91.99 72.04 89.99 72.04 89.99 70.03"/><polyline class="cls-5" points="91.99 76.04 89.99 76.04 89.99 74.04"/><polyline class="cls-5" points="91.99 72.04 91.99 74.04 89.99 74.04"/><polyline class="cls-5" points="90.01 64.03 90.01 66.03 88.01 66.03"/><polyline class="cls-5" points="90.01 68.03 88.01 68.03 88.01 66.03"/><polyline class="cls-5" points="90.01 68.03 90.01 70.03 88.01 70.03"/><polyline class="cls-5" points="90.01 72.04 88.01 72.04 88.01 70.03"/><polyline class="cls-5" points="90.01 76.04 88.01 76.04 88.01 74.04"/><polyline class="cls-5" points="90.01 72.04 90.01 74.04 88.01 74.04"/><polyline class="cls-5" points="100 36.07 100 34.06 97.99 34.06"/><polyline class="cls-5" points="100 32.06 97.99 32.06 97.99 34.06"/><polyline class="cls-5" points="100 32.06 100 30.06 97.99 30.06"/><polyline class="cls-5" points="100 28.06 97.99 28.06 97.99 30.06"/><polyline class="cls-5" points="100 24.05 97.99 24.05 97.99 26.06"/><polyline class="cls-5" points="100 28.06 100 26.06 97.99 26.06"/><line class="cls-5" x1="97.99" y1="36.07" x2="97.99" y2="34.06"/><line class="cls-5" x1="97.98" y1="34.06" x2="97.98" y2="32.06"/><line class="cls-5" x1="97.99" y1="32.06" x2="97.99" y2="30.06"/><line class="cls-5" x1="97.98" y1="30.06" x2="97.98" y2="28.06"/><line class="cls-5" x1="97.98" y1="28.06" x2="97.98" y2="26.06"/><line class="cls-5" x1="97.97" y1="26.06" x2="97.97" y2="24.05"/><polyline class="cls-5" points="97.99 36.07 97.99 34.07 95.99 34.07"/><polyline class="cls-5" points="97.99 32.07 95.99 32.07 95.99 34.07"/><polyline class="cls-5" points="97.99 32.07 97.99 30.07 95.99 30.07"/><polyline class="cls-5" points="97.99 28.06 95.99 28.06 95.99 30.07"/><polyline class="cls-5" points="97.99 24.06 95.99 24.06 95.99 26.06"/><polyline class="cls-5" points="97.99 28.06 97.99 26.06 95.99 26.06"/><polyline class="cls-5" points="95.99 36.07 95.99 34.07 93.99 34.07"/><polyline class="cls-5" points="95.99 32.07 93.99 32.07 93.99 34.07"/><polyline class="cls-5" points="95.99 32.07 95.99 30.07 93.99 30.07"/><polyline class="cls-5" points="95.99 28.06 93.99 28.06 93.99 30.07"/><polyline class="cls-5" points="95.99 24.06 93.99 24.06 93.99 26.06"/><polyline class="cls-5" points="95.99 28.06 95.99 26.06 93.99 26.06"/><polyline class="cls-5" points="93.99 36.07 93.99 34.07 91.99 34.07"/><polyline class="cls-5" points="93.99 32.07 91.99 32.07 91.99 34.07"/><polyline class="cls-5" points="93.99 32.07 93.99 30.07 91.99 30.07"/><polyline class="cls-5" points="93.99 28.06 91.99 28.06 91.99 30.07"/><polyline class="cls-5" points="93.99 24.06 91.99 24.06 91.99 26.06"/><polyline class="cls-5" points="93.99 28.06 93.99 26.06 91.99 26.06"/><polyline class="cls-5" points="91.99 36.07 91.99 34.07 89.99 34.07"/><polyline class="cls-5" points="91.99 32.07 89.99 32.07 89.99 34.07"/><polyline class="cls-5" points="91.99 32.07 91.99 30.07 89.99 30.07"/><polyline class="cls-5" points="91.99 28.06 89.99 28.06 89.99 30.07"/><polyline class="cls-5" points="91.99 24.06 89.99 24.06 89.99 26.06"/><polyline class="cls-5" points="91.99 28.06 91.99 26.06 89.99 26.06"/><polyline class="cls-5" points="90.01 36.07 90.01 34.07 88.01 34.07"/><polyline class="cls-5" points="90.01 32.07 88.01 32.07 88.01 34.07"/><polyline class="cls-5" points="90.01 32.07 90.01 30.07 88.01 30.07"/><polyline class="cls-5" points="90.01 28.06 88.01 28.06 88.01 30.07"/><polyline class="cls-5" points="90.01 24.06 88.01 24.06 88.01 26.06"/><polyline class="cls-5" points="90.01 28.06 90.01 26.06 88.01 26.06"/></g><g id="Laag_2" data-name="Laag 2"><rect class="cls-1" x="12.03" width="12" height="12"/><path class="cls-3" d="M19.3,4a2,2,0,0,0,.17-.23,1.15,1.15,0,0,0,.11-.47c0-.58,0-.6,0-.8A.8.8,0,0,1,20.15,2c.2,0,.25.07.62.05a.58.58,0,0,0,.37-.1c.11-.08.11-.16.2-.18a.33.33,0,0,1,.31.23c0,.11,0,.18,0,.38a1.58,1.58,0,0,0,0,.43,1.43,1.43,0,0,1-.25.74,1.69,1.69,0,0,1-1.53.69.23.23,0,0,0-.18,0c-.06,0-.06.06-.11.07a.21.21,0,0,1-.24-.13A.21.21,0,0,1,19.3,4Z"/><path class="cls-3" d="M20.1,5.39a1.43,1.43,0,0,0,.28,0,1,1,0,0,0,.45-.19c.48-.31.45-.4.65-.46a.79.79,0,0,1,.74.14c.14.14.09.24.33.53s.25.22.3.23.19,0,.26,0a.31.31,0,0,1,0,.39c-.06.09-.15.09-.33.18a2.29,2.29,0,0,0-.35.25,1.44,1.44,0,0,1-.74.25,1.69,1.69,0,0,1-1.47-.81.22.22,0,0,0-.1-.16c-.05,0-.07,0-.12,0a.24.24,0,0,1,0-.28A.19.19,0,0,1,20.1,5.39Z"/><path class="cls-3" d="M19.54,7.45a.81.81,0,0,0,.21.19,1.07,1.07,0,0,0,.45.18c.57.11.6,0,.79.12a.81.81,0,0,1,.44.61c0,.19-.1.23-.13.6a.63.63,0,0,0,.05.38c.07.12.15.13.16.22s-.12.25-.26.28-.18,0-.37-.1a1.91,1.91,0,0,0-.43-.06,1.54,1.54,0,0,1-.7-.33,1.67,1.67,0,0,1-.5-1.61.26.26,0,0,0,0-.18c0-.06-.05-.06-.06-.11a.21.21,0,0,1,.16-.22A.2.2,0,0,1,19.54,7.45Z"/><path class="cls-3" d="M18.16,8.43a1,1,0,0,0,0,.28,1.26,1.26,0,0,0,.23.43c.36.46.44.41.52.61a.8.8,0,0,1-.07.75c-.12.15-.24.11-.49.37s-.21.27-.22.32,0,.2,0,.26a.3.3,0,0,1-.38,0c-.11-.06-.11-.14-.22-.31a2,2,0,0,0-.28-.33,1.38,1.38,0,0,1-.31-.71,1.69,1.69,0,0,1,.68-1.54.25.25,0,0,0,.15-.11c0-.05,0-.08,0-.12a.21.21,0,0,1,.27-.06A.26.26,0,0,1,18.16,8.43Z"/><path class="cls-3" d="M16.44,7.54a1.63,1.63,0,0,0-.16.24,1.17,1.17,0,0,0-.09.48c0,.57.08.59,0,.8a.82.82,0,0,1-.53.53c-.19,0-.25-.06-.62,0a.59.59,0,0,0-.36.12c-.11.08-.11.17-.19.19a.32.32,0,0,1-.32-.22c0-.11,0-.17,0-.38a2.76,2.76,0,0,0,0-.42,1.37,1.37,0,0,1,.21-.76,1.68,1.68,0,0,1,1.5-.76.25.25,0,0,0,.18,0s0-.06.1-.08a.23.23,0,0,1,.25.13A.22.22,0,0,1,16.44,7.54Z"/><path class="cls-3" d="M16,6.24a.71.71,0,0,0-.28,0,1.2,1.2,0,0,0-.44.21c-.46.35-.42.43-.62.51a.81.81,0,0,1-.74-.09c-.16-.13-.11-.24-.36-.51a.62.62,0,0,0-.32-.22c-.13,0-.19,0-.26,0a.32.32,0,0,1,0-.39c.06-.1.15-.1.32-.2a1.61,1.61,0,0,0,.33-.28A1.47,1.47,0,0,1,14.31,5a1.7,1.7,0,0,1,1.52.72.23.23,0,0,0,.1.15c.05,0,.08,0,.12,0a.21.21,0,0,1,.05.27A.22.22,0,0,1,16,6.24Z"/><path class="cls-3" d="M16,4.33a.81.81,0,0,0-.21-.19A1.21,1.21,0,0,0,15.3,4c-.57-.09-.61,0-.8-.09a.82.82,0,0,1-.45-.6c0-.2.1-.25.11-.61a.68.68,0,0,0-.06-.38c-.07-.12-.15-.13-.16-.21s.11-.26.25-.29.18,0,.38.09a1.68,1.68,0,0,0,.42,0,1.41,1.41,0,0,1,.72.32,1.7,1.7,0,0,1,.54,1.59.22.22,0,0,0,0,.18c0,.06.05.06.06.11a.23.23,0,0,1-.16.23A.26.26,0,0,1,16,4.33Z"/><path class="cls-3" d="M17.59,3.47a1.51,1.51,0,0,0,0-.29,1.2,1.2,0,0,0-.21-.44c-.33-.47-.42-.43-.49-.64A.82.82,0,0,1,17,1.36c.13-.15.24-.1.51-.34s.22-.26.23-.31,0-.2,0-.26a.33.33,0,0,1,.39,0c.1.06.09.15.19.33a2.69,2.69,0,0,0,.27.34,1.41,1.41,0,0,1,.27.73,1.7,1.7,0,0,1-.76,1.5.22.22,0,0,0-.16.1s0,.08,0,.12a.21.21,0,0,1-.27,0A.17.17,0,0,1,17.59,3.47Z"/><path class="cls-3" d="M17.75,5.43a.7.7,0,0,1,.53,0,.76.76,0,0,1,.42.4.65.65,0,0,1,0,.57.69.69,0,0,1-.4.3.72.72,0,0,1-.65,0,.57.57,0,0,1-.22-.26.78.78,0,0,1,0-.39.73.73,0,0,1,.08-.4A.6.6,0,0,1,17.75,5.43Z"/><rect class="cls-1" y="12" width="12" height="12"/><path class="cls-3" d="M7.27,16a1.24,1.24,0,0,0,.17-.23,1.26,1.26,0,0,0,.12-.48c0-.57-.06-.59,0-.8a.81.81,0,0,1,.56-.5c.19,0,.25.07.61.05a.55.55,0,0,0,.37-.1c.11-.08.11-.16.2-.18a.32.32,0,0,1,.31.23c0,.11,0,.17,0,.37a2.14,2.14,0,0,0,0,.43,1.37,1.37,0,0,1-.24.74,1.7,1.7,0,0,1-1.54.7.23.23,0,0,0-.18,0s0,.06-.1.07a.2.2,0,0,1-.24-.14A.16.16,0,0,1,7.27,16Z"/><path class="cls-3" d="M8.07,17.38a.87.87,0,0,0,.28,0,1,1,0,0,0,.45-.19c.49-.31.45-.4.65-.46a.79.79,0,0,1,.74.14c.15.13.09.24.33.52s.25.23.3.24.2,0,.26.05a.33.33,0,0,1,0,.39c-.07.09-.16.09-.34.18a2.14,2.14,0,0,0-.34.25,1.47,1.47,0,0,1-.75.25,1.7,1.7,0,0,1-1.47-.82s0-.11-.09-.15-.08,0-.12,0a.22.22,0,0,1,0-.28A.24.24,0,0,1,8.07,17.38Z"/><path class="cls-3" d="M7.51,19.45a1.41,1.41,0,0,0,.21.19,1.05,1.05,0,0,0,.46.18c.56.11.6,0,.79.11a.79.79,0,0,1,.43.61c0,.2-.1.24-.13.61a.6.6,0,0,0,.06.38c.06.12.14.13.15.21a.33.33,0,0,1-.26.29c-.12,0-.17,0-.37-.1a1.83,1.83,0,0,0-.42-.06,1.42,1.42,0,0,1-.71-.34,1.68,1.68,0,0,1-.5-1.6.26.26,0,0,0,0-.18c0-.06,0-.06-.06-.11a.22.22,0,0,1,.17-.22A.14.14,0,0,1,7.51,19.45Z"/><path class="cls-3" d="M6.13,20.43a1.06,1.06,0,0,0,0,.28,1.05,1.05,0,0,0,.23.43c.35.46.44.41.52.61a.84.84,0,0,1-.08.75c-.12.15-.23.11-.49.37a.57.57,0,0,0-.21.32c0,.13,0,.19,0,.26a.31.31,0,0,1-.38,0c-.1-.06-.11-.14-.21-.31a2,2,0,0,0-.29-.33,1.52,1.52,0,0,1-.31-.71,1.73,1.73,0,0,1,.68-1.55.23.23,0,0,0,.15-.1s0-.08,0-.12A.2.2,0,0,1,6,20.31.22.22,0,0,1,6.13,20.43Z"/><path class="cls-3" d="M4.42,19.54a.91.91,0,0,0-.16.23,1.22,1.22,0,0,0-.1.48c0,.58.09.6,0,.8a.8.8,0,0,1-.53.54c-.19,0-.25-.07-.62,0a.66.66,0,0,0-.36.11c-.11.09-.1.17-.19.2a.33.33,0,0,1-.32-.22c0-.11,0-.18,0-.38a2,2,0,0,0,0-.43,1.42,1.42,0,0,1,.21-.75,1.68,1.68,0,0,1,1.5-.76.25.25,0,0,0,.18,0c.06,0,.06-.06.1-.08a.21.21,0,0,1,.25.13A.24.24,0,0,1,4.42,19.54Z"/><path class="cls-3" d="M4,18.23a1.63,1.63,0,0,0-.28,0,1.21,1.21,0,0,0-.44.22c-.46.34-.42.43-.62.51a.79.79,0,0,1-.74-.1c-.15-.12-.11-.24-.36-.5a.65.65,0,0,0-.31-.22c-.14,0-.2,0-.27,0a.34.34,0,0,1,0-.39c.06-.1.15-.1.32-.2a2.63,2.63,0,0,0,.33-.28A1.5,1.5,0,0,1,2.28,17a1.7,1.7,0,0,1,1.52.72.27.27,0,0,0,.1.15c.05,0,.08,0,.12,0a.21.21,0,0,1,.06.27A.17.17,0,0,1,4,18.23Z"/><path class="cls-3" d="M3.94,16.33a.66.66,0,0,0-.21-.19A1,1,0,0,0,3.27,16c-.57-.1-.6,0-.79-.1A.79.79,0,0,1,2,15.29c0-.2.1-.25.11-.61a.6.6,0,0,0-.06-.38c-.07-.12-.15-.13-.16-.21a.33.33,0,0,1,.26-.29c.11,0,.17,0,.37.08a2.47,2.47,0,0,0,.43,0,1.52,1.52,0,0,1,.71.31,1.71,1.71,0,0,1,.55,1.6.22.22,0,0,0,0,.18c0,.05,0,.06.06.11a.2.2,0,0,1-.16.22A.21.21,0,0,1,3.94,16.33Z"/><path class="cls-3" d="M5.56,15.46a.92.92,0,0,0,0-.28,1.06,1.06,0,0,0-.21-.44c-.33-.48-.41-.44-.48-.64A.79.79,0,0,1,5,13.36c.13-.15.24-.1.52-.34a.76.76,0,0,0,.23-.31c0-.13,0-.2,0-.26a.33.33,0,0,1,.39,0c.1.06.1.15.2.33a1.58,1.58,0,0,0,.26.33,1.43,1.43,0,0,1,.27.74,1.71,1.71,0,0,1-.76,1.5.22.22,0,0,0-.16.1c0,.05,0,.07,0,.12a.23.23,0,0,1-.28,0A.21.21,0,0,1,5.56,15.46Z"/><path class="cls-3" d="M5.72,17.43a.68.68,0,0,1,.54,0,.67.67,0,0,1,.41.4.65.65,0,0,1,0,.57.67.67,0,0,1-.4.3.72.72,0,0,1-.65,0,.57.57,0,0,1-.22-.26.82.82,0,0,1,0-.4.69.69,0,0,1,.08-.39A.6.6,0,0,1,5.72,17.43Z"/><rect class="cls-1" x="76.02" width="12" height="12"/><path class="cls-3" d="M83.29,4a1.24,1.24,0,0,0,.17-.23,1.15,1.15,0,0,0,.11-.47c0-.58,0-.6,0-.8A.8.8,0,0,1,84.14,2c.2,0,.25.07.62.05a.58.58,0,0,0,.37-.1c.11-.08.11-.16.2-.18a.33.33,0,0,1,.31.23c0,.11,0,.18,0,.38a1.58,1.58,0,0,0,0,.43,1.43,1.43,0,0,1-.25.74,1.69,1.69,0,0,1-1.53.69.23.23,0,0,0-.18,0c-.06,0-.06.06-.11.07a.21.21,0,0,1-.24-.13A.21.21,0,0,1,83.29,4Z"/><path class="cls-3" d="M84.09,5.39a1.41,1.41,0,0,0,.28,0,1,1,0,0,0,.45-.19c.49-.31.45-.4.65-.46a.79.79,0,0,1,.74.14c.14.14.09.24.33.53s.25.22.3.23.19,0,.26,0a.31.31,0,0,1,0,.39c-.06.09-.15.09-.33.18a2.93,2.93,0,0,0-.35.25,1.44,1.44,0,0,1-.74.25,1.69,1.69,0,0,1-1.47-.81.22.22,0,0,0-.1-.16s-.07,0-.12,0a.24.24,0,0,1,0-.28A.21.21,0,0,1,84.09,5.39Z"/><path class="cls-3" d="M83.53,7.45a.81.81,0,0,0,.21.19,1.07,1.07,0,0,0,.45.18c.57.11.6,0,.79.12a.81.81,0,0,1,.44.61c0,.19-.1.23-.13.6a.73.73,0,0,0,0,.38c.07.12.15.13.16.22s-.12.25-.26.28-.18,0-.37-.1a1.84,1.84,0,0,0-.43-.06,1.54,1.54,0,0,1-.7-.33,1.69,1.69,0,0,1-.5-1.61.26.26,0,0,0,0-.18c0-.06,0-.06-.06-.11a.22.22,0,0,1,.16-.22A.2.2,0,0,1,83.53,7.45Z"/><path class="cls-3" d="M82.15,8.43a1.52,1.52,0,0,0,0,.28,1.26,1.26,0,0,0,.23.43c.36.46.44.41.52.61a.8.8,0,0,1-.07.75c-.12.15-.23.11-.49.37s-.21.27-.22.32,0,.2,0,.26a.3.3,0,0,1-.38,0c-.11-.06-.11-.14-.22-.31a1.61,1.61,0,0,0-.28-.33,1.38,1.38,0,0,1-.31-.71,1.69,1.69,0,0,1,.68-1.54.25.25,0,0,0,.15-.11c0-.05,0-.08,0-.12a.21.21,0,0,1,.27-.06A.26.26,0,0,1,82.15,8.43Z"/><path class="cls-3" d="M80.43,7.54a1.12,1.12,0,0,0-.15.24,1,1,0,0,0-.1.48c0,.57.08.59,0,.8a.82.82,0,0,1-.53.53c-.19,0-.25-.06-.62,0a.59.59,0,0,0-.36.12c-.11.08-.11.17-.19.19a.32.32,0,0,1-.32-.22c-.05-.11,0-.17,0-.38a2.76,2.76,0,0,0,0-.42,1.37,1.37,0,0,1,.21-.76,1.68,1.68,0,0,1,1.5-.76.25.25,0,0,0,.18,0c.06,0,0-.06.1-.08a.23.23,0,0,1,.25.13A.22.22,0,0,1,80.43,7.54Z"/><path class="cls-3" d="M80,6.24a.71.71,0,0,0-.28,0,1.2,1.2,0,0,0-.44.21c-.46.35-.42.43-.62.51a.81.81,0,0,1-.74-.09c-.16-.13-.11-.24-.36-.51a.62.62,0,0,0-.32-.22c-.13,0-.19,0-.26,0a.32.32,0,0,1,0-.39c.06-.1.15-.1.32-.2a1.61,1.61,0,0,0,.33-.28A1.47,1.47,0,0,1,78.3,5a1.7,1.7,0,0,1,1.52.72.23.23,0,0,0,.1.15s.08,0,.12,0a.21.21,0,0,1,0,.27A.22.22,0,0,1,80,6.24Z"/><path class="cls-3" d="M80,4.33a.81.81,0,0,0-.21-.19A1.21,1.21,0,0,0,79.29,4c-.57-.09-.6,0-.8-.09a.82.82,0,0,1-.45-.6c0-.2.1-.25.11-.61a.6.6,0,0,0-.06-.38c-.07-.12-.15-.13-.16-.21s.11-.26.25-.29.18,0,.38.09a1.68,1.68,0,0,0,.42,0,1.41,1.41,0,0,1,.72.32,1.68,1.68,0,0,1,.54,1.59.22.22,0,0,0,0,.18c0,.06.05.06.06.11a.23.23,0,0,1-.16.23A.26.26,0,0,1,80,4.33Z"/><path class="cls-3" d="M81.58,3.47a1.51,1.51,0,0,0,0-.29,1.2,1.2,0,0,0-.21-.44c-.33-.47-.42-.43-.49-.64A.82.82,0,0,1,81,1.36c.13-.15.24-.1.51-.34s.22-.26.23-.31,0-.2,0-.26a.33.33,0,0,1,.39,0c.1.06.09.15.19.33a2.69,2.69,0,0,0,.27.34,1.41,1.41,0,0,1,.27.73,1.7,1.7,0,0,1-.76,1.5.22.22,0,0,0-.16.1s0,.08,0,.12a.21.21,0,0,1-.27,0A.17.17,0,0,1,81.58,3.47Z"/><path class="cls-3" d="M81.74,5.43a.7.7,0,0,1,.53,0,.76.76,0,0,1,.42.4.65.65,0,0,1,0,.57.69.69,0,0,1-.4.3.72.72,0,0,1-.65,0,.57.57,0,0,1-.22-.26.78.78,0,0,1,0-.39.73.73,0,0,1,.08-.4A.6.6,0,0,1,81.74,5.43Z"/><rect class="cls-1" x="88" y="12.02" width="12" height="12"/><path class="cls-3" d="M95.27,16a1.24,1.24,0,0,0,.17-.23,1.26,1.26,0,0,0,.12-.48c0-.57-.06-.59,0-.79a.8.8,0,0,1,.56-.51c.19,0,.25.07.61.05a.55.55,0,0,0,.37-.1c.11-.08.11-.16.2-.18a.32.32,0,0,1,.31.23c0,.11,0,.17-.05.38a2,2,0,0,0,0,.42,1.37,1.37,0,0,1-.24.74,1.7,1.7,0,0,1-1.54.7.23.23,0,0,0-.18,0s0,.06-.1.07a.21.21,0,0,1-.24-.13A.17.17,0,0,1,95.27,16Z"/><path class="cls-3" d="M96.07,17.4a.87.87,0,0,0,.28,0,1,1,0,0,0,.45-.19c.49-.31.45-.4.65-.46a.79.79,0,0,1,.74.14c.15.13.09.24.33.52s.25.23.3.24.2,0,.26.05a.33.33,0,0,1,0,.39c-.07.09-.16.09-.34.18a2.14,2.14,0,0,0-.34.25,1.47,1.47,0,0,1-.75.25A1.7,1.7,0,0,1,96.19,18s0-.11-.09-.15-.08,0-.12,0a.22.22,0,0,1,0-.28A.24.24,0,0,1,96.07,17.4Z"/><path class="cls-3" d="M95.51,19.47a1.41,1.41,0,0,0,.21.19,1.05,1.05,0,0,0,.46.18c.56.11.6,0,.79.11a.79.79,0,0,1,.43.61c0,.2-.1.24-.13.61a.6.6,0,0,0,.06.38c.06.12.14.13.15.21a.33.33,0,0,1-.26.29c-.12,0-.17,0-.37-.1a1.83,1.83,0,0,0-.42-.06,1.42,1.42,0,0,1-.71-.34,1.68,1.68,0,0,1-.5-1.6.26.26,0,0,0,0-.18c0-.06-.05-.06-.06-.11a.22.22,0,0,1,.17-.22A.17.17,0,0,1,95.51,19.47Z"/><path class="cls-3" d="M94.13,20.45a1,1,0,0,0,0,.28,1.05,1.05,0,0,0,.23.43c.35.46.44.41.52.61a.84.84,0,0,1-.08.75c-.12.15-.23.11-.49.37a.57.57,0,0,0-.21.32c0,.13,0,.19,0,.26a.31.31,0,0,1-.38,0c-.1-.06-.11-.14-.21-.31a2,2,0,0,0-.29-.33,1.48,1.48,0,0,1-.31-.71,1.69,1.69,0,0,1,.68-1.54.31.31,0,0,0,.15-.11c0-.05,0-.08,0-.12a.2.2,0,0,1,.27-.06A.22.22,0,0,1,94.13,20.45Z"/><path class="cls-3" d="M92.42,19.56a.91.91,0,0,0-.16.23,1.22,1.22,0,0,0-.1.48c0,.58.09.6,0,.8a.8.8,0,0,1-.53.54c-.19,0-.25-.07-.62,0a.63.63,0,0,0-.36.12c-.11.08-.1.16-.19.19a.32.32,0,0,1-.32-.22c0-.11,0-.17,0-.38a2,2,0,0,0,0-.43,1.45,1.45,0,0,1,.21-.75,1.68,1.68,0,0,1,1.5-.76.25.25,0,0,0,.18,0c.06,0,.06-.06.1-.08a.23.23,0,0,1,.25.13A.24.24,0,0,1,92.42,19.56Z"/><path class="cls-3" d="M92,18.26a.92.92,0,0,0-.28,0,1.21,1.21,0,0,0-.44.22c-.46.34-.42.43-.62.51a.79.79,0,0,1-.74-.1c-.15-.12-.11-.23-.36-.5a.65.65,0,0,0-.31-.22c-.14,0-.2,0-.27,0a.34.34,0,0,1,0-.39c.06-.1.15-.1.32-.2a2.63,2.63,0,0,0,.33-.28,1.5,1.5,0,0,1,.73-.29,1.7,1.7,0,0,1,1.52.72.27.27,0,0,0,.1.15s.08,0,.12,0a.22.22,0,0,1,.06.27A.24.24,0,0,1,92,18.26Z"/><path class="cls-3" d="M91.94,16.35a.81.81,0,0,0-.21-.19,1,1,0,0,0-.46-.16c-.57-.1-.6,0-.79-.1a.79.79,0,0,1-.46-.59c0-.2.1-.25.11-.61a.6.6,0,0,0-.06-.38c-.07-.12-.15-.13-.16-.21a.33.33,0,0,1,.26-.29c.11,0,.17,0,.37.08A2.47,2.47,0,0,0,91,14a1.52,1.52,0,0,1,.71.31,1.71,1.71,0,0,1,.55,1.6.22.22,0,0,0,0,.18c0,.05,0,.06.06.11a.2.2,0,0,1-.16.22A.21.21,0,0,1,91.94,16.35Z"/><path class="cls-3" d="M93.56,15.49a1,1,0,0,0,0-.29,1.2,1.2,0,0,0-.21-.44c-.33-.47-.42-.43-.48-.64a.79.79,0,0,1,.11-.74c.13-.15.24-.1.52-.34a.76.76,0,0,0,.23-.31c0-.13,0-.2,0-.26a.33.33,0,0,1,.39,0c.1.06.1.15.2.33a1.58,1.58,0,0,0,.26.33,1.43,1.43,0,0,1,.27.74,1.71,1.71,0,0,1-.76,1.5.22.22,0,0,0-.16.1c0,.05,0,.07,0,.12a.2.2,0,0,1-.36-.08Z"/><path class="cls-3" d="M93.72,17.45a.68.68,0,0,1,.54,0,.69.69,0,0,1,.41.4.65.65,0,0,1,0,.57.67.67,0,0,1-.4.3.72.72,0,0,1-.65,0,.57.57,0,0,1-.22-.26.82.82,0,0,1,0-.4.69.69,0,0,1,.08-.39A.6.6,0,0,1,93.72,17.45Z"/><rect class="cls-1" x="88" y="76.05" width="12" height="12"/><path class="cls-3" d="M95.27,80.06a.76.76,0,0,0,.17-.23,1,1,0,0,0,.12-.47c0-.58-.06-.6,0-.8a.81.81,0,0,1,.55-.51c.2,0,.25.08.62.06a.7.7,0,0,0,.37-.1c.1-.08.11-.17.19-.18a.3.3,0,0,1,.31.22c0,.12,0,.18-.05.38a2,2,0,0,0,0,.43,1.49,1.49,0,0,1-.25.74,1.68,1.68,0,0,1-1.53.69s-.11-.05-.19,0,0,0-.1.07a.21.21,0,0,1-.24-.14A.22.22,0,0,1,95.27,80.06Z"/><path class="cls-3" d="M96.07,81.43a.92.92,0,0,0,.29,0,1.3,1.3,0,0,0,.45-.19c.48-.31.44-.4.65-.47a.83.83,0,0,1,.73.14c.15.14.1.25.33.53a.74.74,0,0,0,.3.24c.13,0,.2,0,.26,0a.33.33,0,0,1,0,.39c-.07.1-.15.09-.33.18a1.51,1.51,0,0,0-.35.26,1.43,1.43,0,0,1-.74.24A1.7,1.7,0,0,1,96.19,82a.24.24,0,0,0-.09-.16s-.08,0-.12,0a.2.2,0,0,1,0-.27A.17.17,0,0,1,96.07,81.43Z"/><path class="cls-3" d="M95.52,83.49a.94.94,0,0,0,.2.2,1.17,1.17,0,0,0,.46.17c.56.11.6,0,.79.12a.79.79,0,0,1,.43.61c0,.2-.1.24-.12.6s0,.34,0,.38.15.13.16.22-.13.25-.27.28-.17,0-.37-.1a2.63,2.63,0,0,0-.42-.06,1.35,1.35,0,0,1-.71-.33,1.72,1.72,0,0,1-.5-1.61.25.25,0,0,0,0-.18c0-.05-.05-.06-.05-.11a.2.2,0,0,1,.16-.22A.26.26,0,0,1,95.52,83.49Z"/><path class="cls-3" d="M94.13,84.47a1,1,0,0,0,0,.28,1.09,1.09,0,0,0,.23.44c.35.45.44.41.52.6a.8.8,0,0,1-.07.75c-.13.16-.24.11-.5.37a.73.73,0,0,0-.21.32c0,.13,0,.2,0,.27a.34.34,0,0,1-.39,0c-.1-.06-.1-.15-.21-.32a1.92,1.92,0,0,0-.28-.32,1.35,1.35,0,0,1-.31-.72,1.65,1.65,0,0,1,.68-1.54s.11,0,.14-.11,0-.08,0-.12a.23.23,0,0,1,.27-.06A.17.17,0,0,1,94.13,84.47Z"/><path class="cls-3" d="M92.42,83.58a.83.83,0,0,0-.16.24,1,1,0,0,0-.09.48c0,.58.08.6,0,.8a.82.82,0,0,1-.53.53c-.2,0-.26-.06-.62,0a.63.63,0,0,0-.37.11c-.1.09-.1.17-.19.19a.32.32,0,0,1-.32-.21c0-.11,0-.18,0-.38a1.87,1.87,0,0,0,0-.43,1.48,1.48,0,0,1,.21-.75,1.72,1.72,0,0,1,1.5-.77.23.23,0,0,0,.19,0s0,0,.1-.07a.2.2,0,0,1,.24.12A.18.18,0,0,1,92.42,83.58Z"/><path class="cls-3" d="M92,82.28a.77.77,0,0,0-.29,0,1,1,0,0,0-.43.22c-.47.34-.42.43-.62.5a.83.83,0,0,1-.75-.09c-.15-.13-.1-.24-.36-.51a.65.65,0,0,0-.31-.22c-.13,0-.2,0-.27,0a.33.33,0,0,1,0-.38c.07-.1.15-.1.33-.21a2,2,0,0,0,.33-.27,1.35,1.35,0,0,1,.72-.29,1.66,1.66,0,0,1,1.52.72.25.25,0,0,0,.11.15s.08,0,.12,0a.21.21,0,0,1,0,.27A.26.26,0,0,1,92,82.28Z"/><path class="cls-3" d="M92,80.37a2.2,2.2,0,0,0-.21-.19,1.25,1.25,0,0,0-.47-.16c-.57-.09-.6,0-.79-.09a.78.78,0,0,1-.45-.6c0-.2.09-.24.11-.61a.68.68,0,0,0-.06-.38c-.07-.11-.16-.12-.17-.21a.34.34,0,0,1,.26-.29c.12,0,.17,0,.37.09A1.76,1.76,0,0,0,91,78a1.41,1.41,0,0,1,.71.32,1.69,1.69,0,0,1,.55,1.59.26.26,0,0,0,0,.18c0,.06,0,.06.06.11a.21.21,0,0,1-.16.23A.17.17,0,0,1,92,80.37Z"/><path class="cls-3" d="M93.56,79.51a.91.91,0,0,0,0-.28,1.09,1.09,0,0,0-.2-.45c-.33-.47-.42-.43-.49-.63a.78.78,0,0,1,.11-.74c.14-.15.25-.1.52-.35a.62.62,0,0,0,.23-.31c0-.13,0-.19,0-.26a.33.33,0,0,1,.38,0c.1.07.1.15.2.33a2.94,2.94,0,0,0,.26.34,1.45,1.45,0,0,1,.28.73,1.69,1.69,0,0,1-.77,1.5.27.27,0,0,0-.15.1s0,.08,0,.12a.2.2,0,0,1-.27,0A.22.22,0,0,1,93.56,79.51Z"/><path class="cls-3" d="M93.72,81.47a.69.69,0,0,1,1,.36.72.72,0,0,1,0,.58.63.63,0,0,1-.39.29.71.71,0,0,1-.66,0,.62.62,0,0,1-.22-.25,1,1,0,0,1,0-.4.86.86,0,0,1,.08-.4A.6.6,0,0,1,93.72,81.47Z"/><rect class="cls-1" x="76" y="88.03" width="12" height="12"/><path class="cls-3" d="M83.27,92a.84.84,0,0,0,.17-.22,1.1,1.1,0,0,0,.12-.48c0-.57-.06-.6,0-.8a.77.77,0,0,1,.55-.5c.2,0,.25.07.62,0a.7.7,0,0,0,.37-.1c.1-.08.11-.16.19-.18s.27.09.31.23,0,.17-.05.37a2,2,0,0,0,0,.43,1.44,1.44,0,0,1-.25.74,1.72,1.72,0,0,1-1.53.7.27.27,0,0,0-.19,0s0,0-.1.07a.21.21,0,0,1-.24-.14A.23.23,0,0,1,83.27,92Z"/><path class="cls-3" d="M84.07,93.41a.92.92,0,0,0,.29,0,1.14,1.14,0,0,0,.45-.19c.48-.31.44-.4.65-.46a.77.77,0,0,1,.73.14c.15.13.1.24.33.52a.65.65,0,0,0,.3.24c.13,0,.2,0,.26,0a.31.31,0,0,1,0,.38c-.07.1-.15.09-.33.19a1.51,1.51,0,0,0-.35.25,1.33,1.33,0,0,1-.74.24A1.68,1.68,0,0,1,84.19,94a.24.24,0,0,0-.09-.16s-.08,0-.12,0a.2.2,0,0,1,0-.27A.22.22,0,0,1,84.07,93.41Z"/><path class="cls-3" d="M83.52,95.47a.94.94,0,0,0,.2.2,1,1,0,0,0,.46.17c.56.11.6,0,.79.12a.79.79,0,0,1,.43.61c0,.2-.1.24-.12.61a.57.57,0,0,0,0,.38c.07.11.15.13.16.21s-.13.26-.27.28-.17,0-.37-.09a1.83,1.83,0,0,0-.42-.06,1.42,1.42,0,0,1-.71-.34,1.71,1.71,0,0,1-.5-1.6.26.26,0,0,0,0-.18c0-.06-.05-.06-.05-.11a.21.21,0,0,1,.16-.23A.26.26,0,0,1,83.52,95.47Z"/><path class="cls-3" d="M82.13,96.46a1.1,1.1,0,0,0,0,.28,1.05,1.05,0,0,0,.23.43c.35.45.44.41.52.61a.78.78,0,0,1-.07.74c-.13.16-.24.12-.5.38a.64.64,0,0,0-.21.32c0,.13,0,.19,0,.26a.34.34,0,0,1-.39,0c-.1-.06-.1-.14-.21-.32a3.35,3.35,0,0,0-.28-.32,1.35,1.35,0,0,1-.31-.72,1.66,1.66,0,0,1,.68-1.54.19.19,0,0,0,.14-.1c0-.06,0-.08,0-.13a.21.21,0,0,1,.27,0A.14.14,0,0,1,82.13,96.46Z"/><path class="cls-3" d="M80.42,95.57a.91.91,0,0,0-.16.23,1,1,0,0,0-.09.48c0,.58.08.6,0,.8a.8.8,0,0,1-.53.53c-.2,0-.26-.06-.62,0a.63.63,0,0,0-.37.11c-.1.09-.1.17-.19.19a.32.32,0,0,1-.32-.21c0-.11,0-.18,0-.38a1.87,1.87,0,0,0,0-.43,1.52,1.52,0,0,1,.21-.75,1.68,1.68,0,0,1,1.5-.76.36.36,0,0,0,.19,0s0-.06.1-.08a.2.2,0,0,1,.24.13A.19.19,0,0,1,80.42,95.57Z"/><path class="cls-3" d="M80,94.26a1.68,1.68,0,0,0-.29,0,1.17,1.17,0,0,0-.43.22c-.47.34-.42.43-.62.5a.78.78,0,0,1-.75-.09c-.15-.13-.1-.24-.36-.5a.65.65,0,0,0-.31-.22c-.13,0-.2,0-.27,0a.34.34,0,0,1,0-.39c.07-.1.15-.1.33-.21a2,2,0,0,0,.33-.27,1.35,1.35,0,0,1,.72-.29,1.7,1.7,0,0,1,1.52.72.25.25,0,0,0,.11.15s.08,0,.12,0a.22.22,0,0,1,0,.28A.17.17,0,0,1,80,94.26Z"/><path class="cls-3" d="M80,92.36a1,1,0,0,0-.21-.19,1,1,0,0,0-.47-.16c-.57-.1-.6,0-.79-.1a.78.78,0,0,1-.45-.6c0-.19.09-.24.11-.61a.64.64,0,0,0-.06-.37c-.07-.12-.16-.13-.17-.22s.12-.25.26-.29.17,0,.37.09A2.58,2.58,0,0,0,79,90a1.52,1.52,0,0,1,.71.31,1.71,1.71,0,0,1,.55,1.6.23.23,0,0,0,0,.17c0,.06,0,.07.06.12a.2.2,0,0,1-.16.22A.18.18,0,0,1,80,92.36Z"/><path class="cls-3" d="M81.56,91.49a.92.92,0,0,0,0-.28,1,1,0,0,0-.2-.44c-.33-.48-.42-.44-.49-.64a.79.79,0,0,1,.11-.74c.14-.15.25-.1.52-.34a.72.72,0,0,0,.23-.31c0-.13,0-.2,0-.27a.31.31,0,0,1,.38,0c.1.06.1.15.2.32a2.27,2.27,0,0,0,.26.34,1.45,1.45,0,0,1,.28.73,1.69,1.69,0,0,1-.77,1.5.27.27,0,0,0-.15.1s0,.08,0,.12a.21.21,0,0,1-.27.05A.27.27,0,0,1,81.56,91.49Z"/><path class="cls-3" d="M81.72,93.46a.68.68,0,0,1,.54,0,.75.75,0,0,1,.42.39.73.73,0,0,1,0,.58.68.68,0,0,1-.39.3.78.78,0,0,1-.66,0,.62.62,0,0,1-.22-.26,1,1,0,0,1,0-.4.86.86,0,0,1,.08-.4A.64.64,0,0,1,81.72,93.46Z"/><rect class="cls-1" x="11.99" y="88" width="12" height="12"/><path class="cls-3" d="M19.25,92a.91.91,0,0,0,.17-.23,1.1,1.1,0,0,0,.12-.48c0-.57-.05-.59,0-.8a.79.79,0,0,1,.55-.5c.2,0,.25.07.62,0a.58.58,0,0,0,.37-.1c.11-.08.11-.16.19-.18a.33.33,0,0,1,.32.23c0,.11,0,.17-.06.37a2,2,0,0,0,0,.43,1.44,1.44,0,0,1-.25.74,1.68,1.68,0,0,1-1.53.7.24.24,0,0,0-.18,0c-.06,0-.06.06-.11.07a.21.21,0,0,1-.24-.14A.28.28,0,0,1,19.25,92Z"/><path class="cls-3" d="M20.06,93.38a.85.85,0,0,0,.28,0,1.14,1.14,0,0,0,.45-.19c.48-.31.45-.4.65-.46a.79.79,0,0,1,.74.14c.14.13.09.24.32.52a.65.65,0,0,0,.3.24c.13,0,.2,0,.27.05a.35.35,0,0,1,0,.39c-.07.09-.15.09-.33.18a2.29,2.29,0,0,0-.35.25,1.47,1.47,0,0,1-.74.25,1.67,1.67,0,0,1-1.47-.82.27.27,0,0,0-.1-.15s-.08,0-.12,0a.22.22,0,0,1,0-.28A.21.21,0,0,1,20.06,93.38Z"/><path class="cls-3" d="M19.5,95.45a1.25,1.25,0,0,0,.2.19,1.1,1.1,0,0,0,.46.18c.57.11.6,0,.79.11a.82.82,0,0,1,.44.61c0,.2-.11.24-.13.61a.63.63,0,0,0,0,.38c.07.12.15.13.16.21a.33.33,0,0,1-.27.29c-.11,0-.17,0-.36-.1a1.91,1.91,0,0,0-.43-.06,1.43,1.43,0,0,1-.7-.34,1.69,1.69,0,0,1-.51-1.6.22.22,0,0,0,.05-.18c0-.06-.05-.06-.06-.11a.2.2,0,0,1,.16-.22A.16.16,0,0,1,19.5,95.45Z"/><path class="cls-3" d="M18.12,96.43a.72.72,0,0,0,0,.28,1.18,1.18,0,0,0,.23.43c.36.46.44.41.52.61a.8.8,0,0,1-.07.75c-.12.15-.24.11-.5.37a.64.64,0,0,0-.21.32c0,.13,0,.19,0,.26a.32.32,0,0,1-.39,0c-.1-.06-.1-.14-.21-.31a2.63,2.63,0,0,0-.28-.33,1.41,1.41,0,0,1-.31-.71,1.73,1.73,0,0,1,.68-1.55.23.23,0,0,0,.15-.1s0-.08,0-.12a.2.2,0,0,1,.27-.06A.22.22,0,0,1,18.12,96.43Z"/><path class="cls-3" d="M16.4,95.54a1.27,1.27,0,0,0-.16.23,1,1,0,0,0-.09.48c0,.58.08.6,0,.8a.82.82,0,0,1-.53.54c-.19,0-.25-.07-.62,0a.72.72,0,0,0-.37.11c-.1.09-.1.17-.18.2a.35.35,0,0,1-.33-.22c0-.11,0-.18,0-.38a1.94,1.94,0,0,0,0-.43,1.4,1.4,0,0,1,.22-.75,1.67,1.67,0,0,1,1.5-.76.25.25,0,0,0,.18,0c.05,0,.05-.06.1-.08a.21.21,0,0,1,.25.13A.22.22,0,0,1,16.4,95.54Z"/><path class="cls-3" d="M15.94,94.23a1.52,1.52,0,0,0-.28,0,1.21,1.21,0,0,0-.44.22c-.46.34-.42.43-.62.51a.81.81,0,0,1-.75-.1c-.15-.12-.1-.24-.36-.5s-.26-.21-.31-.22-.2,0-.26,0a.31.31,0,0,1,0-.39c.06-.1.14-.1.32-.2a2.63,2.63,0,0,0,.33-.28,1.44,1.44,0,0,1,.72-.29,1.71,1.71,0,0,1,1.53.72.19.19,0,0,0,.1.15s.08,0,.12,0a.21.21,0,0,1,0,.27A.17.17,0,0,1,15.94,94.23Z"/><path class="cls-3" d="M15.93,92.33a.8.8,0,0,0-.21-.19,1.1,1.1,0,0,0-.46-.16c-.57-.1-.61,0-.8-.1a.8.8,0,0,1-.45-.59c0-.2.1-.25.11-.61a.68.68,0,0,0-.06-.38c-.07-.12-.15-.13-.16-.21s.11-.26.25-.29.18,0,.37.08a2.58,2.58,0,0,0,.43.05,1.58,1.58,0,0,1,.72.31,1.72,1.72,0,0,1,.54,1.6.26.26,0,0,0,0,.18s0,.06.07.11a.22.22,0,0,1-.16.22A.21.21,0,0,1,15.93,92.33Z"/><path class="cls-3" d="M17.55,91.46a1,1,0,0,0,0-.28,1,1,0,0,0-.2-.44c-.33-.48-.42-.44-.49-.64a.82.82,0,0,1,.12-.74c.13-.15.24-.1.51-.34s.22-.26.23-.31,0-.2,0-.26a.33.33,0,0,1,.39,0c.1.06.09.15.19.33a2,2,0,0,0,.27.33,1.54,1.54,0,0,1,.27.74,1.7,1.7,0,0,1-.77,1.5.19.19,0,0,0-.15.1s0,.07,0,.12a.22.22,0,0,1-.27,0A.17.17,0,0,1,17.55,91.46Z"/><path class="cls-3" d="M17.7,93.43a.68.68,0,0,1,.54,0,.73.73,0,0,1,.42.4.65.65,0,0,1,0,.57.69.69,0,0,1-.4.3.73.73,0,0,1-.65,0,.46.46,0,0,1-.22-.26.72.72,0,0,1,0-.4.69.69,0,0,1,.08-.39A.59.59,0,0,1,17.7,93.43Z"/><rect class="cls-1" x="0.02" y="76.06" width="12" height="12"/><path class="cls-3" d="M7.29,80.07a.88.88,0,0,0,.17-.22,1.1,1.1,0,0,0,.12-.48c0-.57-.06-.6,0-.8a.77.77,0,0,1,.55-.5c.19,0,.25.07.62.05a.7.7,0,0,0,.37-.1c.1-.08.11-.16.19-.18s.27.09.31.23,0,.17-.05.37a3.28,3.28,0,0,0,0,.43,1.37,1.37,0,0,1-.24.74,1.72,1.72,0,0,1-1.54.7.23.23,0,0,0-.18,0s0,0-.1.07a.21.21,0,0,1-.24-.14A.23.23,0,0,1,7.29,80.07Z"/><path class="cls-3" d="M8.09,81.44a.87.87,0,0,0,.28,0,1,1,0,0,0,.45-.19c.49-.31.45-.4.66-.46a.78.78,0,0,1,.73.14c.15.13.09.24.33.52s.25.23.3.24.2,0,.26,0a.31.31,0,0,1,0,.38c-.07.1-.16.09-.34.19a1.66,1.66,0,0,0-.34.25,1.33,1.33,0,0,1-.74.24A1.68,1.68,0,0,1,8.21,82a.2.2,0,0,0-.09-.15s-.08,0-.12,0a.21.21,0,0,1,0-.27A.24.24,0,0,1,8.09,81.44Z"/><path class="cls-3" d="M7.53,83.5a1,1,0,0,0,.21.2,1,1,0,0,0,.46.17c.56.12.6,0,.79.12a.79.79,0,0,1,.43.61c0,.2-.1.24-.12.61a.57.57,0,0,0,0,.38c.06.11.15.13.15.21a.31.31,0,0,1-.26.28c-.12,0-.17,0-.37-.09a1.83,1.83,0,0,0-.42-.06,1.42,1.42,0,0,1-.71-.34,1.71,1.71,0,0,1-.5-1.6.26.26,0,0,0,0-.18c0-.06,0-.06-.06-.11a.22.22,0,0,1,.17-.23A.2.2,0,0,1,7.53,83.5Z"/><path class="cls-3" d="M6.15,84.49a1.1,1.1,0,0,0,0,.28,1.05,1.05,0,0,0,.23.43c.35.45.44.41.52.61a.78.78,0,0,1-.08.74c-.12.16-.23.12-.49.38a.57.57,0,0,0-.21.32c0,.13,0,.19,0,.26a.32.32,0,0,1-.38,0c-.1-.06-.1-.14-.21-.32a2.37,2.37,0,0,0-.29-.32,1.54,1.54,0,0,1-.31-.72,1.71,1.71,0,0,1,.68-1.54.23.23,0,0,0,.15-.1c0-.06,0-.08,0-.13a.21.21,0,0,1,.27,0A.16.16,0,0,1,6.15,84.49Z"/><path class="cls-3" d="M4.44,83.6a.91.91,0,0,0-.16.23,1.22,1.22,0,0,0-.1.48c0,.58.09.6,0,.8a.77.77,0,0,1-.52.53c-.2,0-.26-.06-.62,0a.63.63,0,0,0-.37.11c-.1.09-.1.17-.19.19a.31.31,0,0,1-.32-.21c0-.11,0-.18,0-.38a2,2,0,0,0,0-.43,1.52,1.52,0,0,1,.21-.75,1.68,1.68,0,0,1,1.5-.76.35.35,0,0,0,.19,0c.05,0,.05-.06.1-.08a.2.2,0,0,1,.24.13A.19.19,0,0,1,4.44,83.6Z"/><path class="cls-3" d="M4,82.29a1.68,1.68,0,0,0-.29,0,1.09,1.09,0,0,0-.43.22c-.47.34-.43.43-.63.5a.76.76,0,0,1-.74-.09c-.15-.13-.11-.24-.36-.5a.65.65,0,0,0-.31-.22c-.14,0-.2,0-.27,0a.34.34,0,0,1,0-.39c.06-.1.15-.1.32-.21a2.69,2.69,0,0,0,.34-.27A1.35,1.35,0,0,1,2.3,81a1.7,1.7,0,0,1,1.52.72.27.27,0,0,0,.1.15c.06,0,.08,0,.13,0a.22.22,0,0,1,0,.28A.17.17,0,0,1,4,82.29Z"/><path class="cls-3" d="M4,80.39a.66.66,0,0,0-.21-.19A.91.91,0,0,0,3.29,80c-.57-.1-.6,0-.79-.1a.81.81,0,0,1-.46-.6c0-.19.1-.24.12-.61a.55.55,0,0,0-.07-.37c-.07-.12-.15-.13-.16-.22s.12-.25.26-.29.17,0,.37.09A2.47,2.47,0,0,0,3,78a1.52,1.52,0,0,1,.71.31,1.71,1.71,0,0,1,.55,1.6.25.25,0,0,0,0,.18s0,.06.06.11a.2.2,0,0,1-.16.22A.21.21,0,0,1,4,80.39Z"/><path class="cls-3" d="M5.58,79.52a.92.92,0,0,0,0-.28,1,1,0,0,0-.21-.44c-.32-.48-.41-.44-.48-.64A.79.79,0,0,1,5,77.42c.13-.15.24-.1.52-.34a.72.72,0,0,0,.23-.31c0-.13,0-.2,0-.27a.31.31,0,0,1,.38,0c.1.06.1.15.2.32a1.75,1.75,0,0,0,.26.34,1.41,1.41,0,0,1,.27.73,1.69,1.69,0,0,1-.76,1.5.27.27,0,0,0-.15.1s0,.08,0,.12a.22.22,0,0,1-.28.05A.21.21,0,0,1,5.58,79.52Z"/><path class="cls-3" d="M5.74,81.49a.68.68,0,0,1,1,.35.68.68,0,0,1,0,.58.72.72,0,0,1-.39.3.78.78,0,0,1-.66,0,.62.62,0,0,1-.22-.26.82.82,0,0,1,0-.4.78.78,0,0,1,.08-.39A.6.6,0,0,1,5.74,81.49Z"/><path class="cls-6" d="M39.76.59a.23.23,0,0,0-.12,0,.24.24,0,0,0-.1.16,1.42,1.42,0,0,0,0,.15.08.08,0,0,1,0,.06.12.12,0,0,1-.09,0l.06.06s0,.06,0,.08a0,0,0,0,1,0,0V2.47l0,.7,0,.72-.05.88,0,.78-.07.81-.1.76h-.12v.11h0a.23.23,0,0,1,.06.07.39.39,0,0,1,0,.09.16.16,0,0,1,0,.1L39,7.87l-.09.39-.18.61-.12.37h-.25l0,0v.59l-.25.52-.37.71-.32.51h.81l.15-.44a1.07,1.07,0,0,1,.14-.29.91.91,0,0,1,.21-.26,1.75,1.75,0,0,1,.38-.26,1.44,1.44,0,0,1,.6-.13v-1h-.51l.27-1.38h.24Z"/><path class="cls-6" d="M39.74.59a.23.23,0,0,1,.12,0,.24.24,0,0,1,.1.16,1.42,1.42,0,0,1,0,.15S40,1,40,1a.12.12,0,0,0,.09,0,.34.34,0,0,0-.06.06L40,1.16V2.47l0,.7,0,.72.05.88,0,.78.07.81.1.76h.12v.11h0a.14.14,0,0,0-.06.07.13.13,0,0,0,0,.09.16.16,0,0,0,0,.1l.08.38.1.39.17.61.12.37h.26l0,0v.59l.26.52.36.71.32.51h-.81l-.14-.44a1.49,1.49,0,0,0-.14-.29,1,1,0,0,0-.22-.26,1.56,1.56,0,0,0-.37-.26,1.47,1.47,0,0,0-.6-.13v-1h.51L40,7.86h-.24Z"/><path class="cls-6" d="M60.57.61a.23.23,0,0,0-.12,0,.21.21,0,0,0-.1.16,1.42,1.42,0,0,0,0,.15.64.64,0,0,1,0,.07.11.11,0,0,1-.09,0l.06.06a.25.25,0,0,1,0,.08,0,0,0,0,1,0,0v.62l0,.66,0,.7,0,.72,0,.88,0,.78-.07.81-.1.76h-.12v.11h-.05a.15.15,0,0,1,.07.07.39.39,0,0,1,0,.09.15.15,0,0,1,0,.1l-.09.39-.09.38-.18.61-.12.37H59.2l0,.05v.58l-.25.52-.37.71-.32.51h.81l.15-.44a.84.84,0,0,1,.14-.29.91.91,0,0,1,.21-.26,1.53,1.53,0,0,1,.38-.26,1.44,1.44,0,0,1,.6-.13v-1h-.51l.27-1.38h.24Z"/><path class="cls-6" d="M60.55.61a.23.23,0,0,1,.12,0,.24.24,0,0,1,.1.16,1.42,1.42,0,0,1,0,.15.08.08,0,0,0,0,.07.11.11,0,0,0,.09,0,.33.33,0,0,0-.06.06.59.59,0,0,0,0,.08v.65l0,.66,0,.7,0,.72,0,.88.05.78.07.81.1.76h.12v.11h0a.14.14,0,0,0-.06.07.13.13,0,0,0,0,.09.32.32,0,0,0,0,.1l.09.39.1.38.17.61.12.37h.26l0,.05v.58l.26.52.36.71.32.51H62l-.14-.44a1.49,1.49,0,0,0-.14-.29,1,1,0,0,0-.22-.26,1.8,1.8,0,0,0-.37-.26,1.47,1.47,0,0,0-.6-.13v-1h.51l-.27-1.38h-.24Z"/><path class="cls-6" d="M99.18,39.47a.2.2,0,0,0,0-.12.21.21,0,0,0-.16-.1h-.15l-.07,0a.11.11,0,0,1,0-.09.17.17,0,0,0-.06.06l-.08,0H98l-.67,0-.69,0-.72,0-.88,0-.78,0L93.42,39l-.76-.1v-.12h-.11v-.05a.23.23,0,0,1-.07.07l-.1,0a.13.13,0,0,1-.09,0l-.39-.09-.39-.09-.61-.18-.37-.12V38.1l-.05,0h-.58l-.52-.25-.71-.37-.51-.32V38l.44.15a.93.93,0,0,1,.29.14,1.08,1.08,0,0,1,.26.21,1.53,1.53,0,0,1,.26.38,1.44,1.44,0,0,1,.13.6h1V39l1.38.27v.24Z"/><path class="cls-6" d="M99.18,39.45a.2.2,0,0,1,0,.12.24.24,0,0,1-.16.1h-.15a.08.08,0,0,0-.07,0,.11.11,0,0,0,0,.09l-.06-.06-.08,0H98l-.67,0-.69,0-.72,0-.88,0-.78.05-.81.07-.76.1v.12h-.11v0a.22.22,0,0,0-.07-.06.13.13,0,0,0-.1,0h-.09l-.39.09-.39.1-.61.17-.37.12v.26l-.05,0h-.58l-.52.26-.71.36-.51.32v-.81l.44-.14a1.83,1.83,0,0,0,.29-.14,1.27,1.27,0,0,0,.26-.22,1.8,1.8,0,0,0,.26-.37,1.47,1.47,0,0,0,.13-.6h1V40l1.38-.27v-.24Z"/><path class="cls-6" d="M99.16,60.28a.3.3,0,0,0,0-.12.27.27,0,0,0-.16-.11h-.15s0,0-.07,0a.07.07,0,0,1,0-.08l-.06.05-.08,0h-.66l-.66,0-.69,0-.72,0-.88,0-.78,0-.81-.07-.76-.1v-.12h-.11v-.05a.23.23,0,0,1-.07.07.34.34,0,0,1-.1,0h-.1l-.38-.09-.39-.1-.61-.17-.37-.12V58.9l0,0h-.59l-.52-.26-.7-.36L88.15,58v.81l.44.15a1.14,1.14,0,0,1,.29.13,1.55,1.55,0,0,1,.52.59,1.51,1.51,0,0,1,.13.61h1v-.51L91.9,60v.24Z"/><path class="cls-6" d="M99.16,60.26a.26.26,0,0,1,0,.11.23.23,0,0,1-.16.11h-.15a.08.08,0,0,0-.07,0,.08.08,0,0,0,0,.09l-.06-.06-.08,0h-.66l-.66,0-.69,0-.72,0-.88,0-.78,0-.81.07-.76.1V61h-.11v0a.22.22,0,0,0-.07-.06.13.13,0,0,0-.1,0h-.1l-.38.09-.39.1-.61.17-.37.12v.26l0,0h-.59l-.52.26-.7.36-.51.32v-.81l.44-.14a1.83,1.83,0,0,0,.29-.14,1.55,1.55,0,0,0,.52-.59,1.47,1.47,0,0,0,.13-.6h1v.52l1.38-.27v-.24Z"/><path class="cls-6" d="M60.62,99.26a.19.19,0,0,0,.12,0,.23.23,0,0,0,.11-.16,1.36,1.36,0,0,1,0-.15s0,0,0-.06.07,0,.08,0l-.05-.06s0-.06,0-.08V98l0-.66,0-.7,0-.72,0-.88,0-.77.07-.82.11-.76h.11v-.1h0l-.07-.07a1,1,0,0,1,0-.1.28.28,0,0,1,0-.1l.09-.38.1-.39.17-.61.12-.37H62l0,0V90l.26-.52.36-.71.32-.51H62.1l-.15.44a1.17,1.17,0,0,1-.13.3,2,2,0,0,1-.22.25,1.21,1.21,0,0,1-.37.26,1.33,1.33,0,0,1-.61.13v1h.52L60.87,92h-.24Z"/><path class="cls-6" d="M60.65,99.26a.19.19,0,0,1-.12,0,.23.23,0,0,1-.11-.16,1.36,1.36,0,0,0,0-.15s0,0,0-.06-.07,0-.08,0l0-.06s0-.06,0-.08V98l0-.66,0-.7,0-.72,0-.88,0-.77-.07-.82-.11-.76H60v-.1h0l.07-.07a1,1,0,0,0,0-.1.28.28,0,0,0,0-.1L59.92,92l-.1-.39L59.65,91l-.12-.37h-.26l0,0V90L59,89.46l-.36-.71-.32-.51h.81l.15.44a1.17,1.17,0,0,0,.13.3,2,2,0,0,0,.22.25,1.21,1.21,0,0,0,.37.26,1.33,1.33,0,0,0,.61.13v1h-.52L60.4,92h.25Z"/><path class="cls-6" d="M39.81,99.24a.19.19,0,0,0,.12,0,.23.23,0,0,0,.11-.16,1.42,1.42,0,0,0,0-.15s0-.05,0-.06.07,0,.09,0a.17.17,0,0,1-.06-.06s-.05-.06-.05-.08V98l0-.66,0-.7,0-.72,0-.88,0-.78.07-.81.1-.76h.12V92.6h0a.28.28,0,0,1-.06-.08.19.19,0,0,1-.05-.09s0-.08,0-.1l.09-.38.1-.39.17-.61.12-.37h.26l0,0V90l.26-.52.36-.71.32-.51h-.81l-.14.44A1.49,1.49,0,0,1,41,89a1.36,1.36,0,0,1-.22.26,1.44,1.44,0,0,1-.37.26,1.48,1.48,0,0,1-.61.13v1h.52L40.06,92h-.24Z"/><path class="cls-6" d="M39.84,99.24a.21.21,0,0,1-.12,0,.23.23,0,0,1-.11-.16V98.9s0-.05,0-.06-.07,0-.08,0l0-.06s.05-.06.05-.08V98l0-.66,0-.7,0-.72-.05-.88,0-.78-.07-.81-.1-.76h-.12V92.6h0l.07-.08a.39.39,0,0,0,0-.09.28.28,0,0,0,0-.1L39.11,92l-.1-.39L38.84,91l-.12-.37h-.26l0,0V90l-.26-.52-.36-.71-.32-.51h.81l.15.44a1,1,0,0,0,.13.29,1.36,1.36,0,0,0,.22.26,1.44,1.44,0,0,0,.37.26,1.51,1.51,0,0,0,.61.13v1h-.51L39.59,92h.25Z"/><path class="cls-6" d="M.8,60.09a.23.23,0,0,0,0,.12.26.26,0,0,0,.15.11h.16l.06,0a.13.13,0,0,1,0,.09l.06-.06.08,0H2l.66,0,.69,0,.73,0,.88.05.77,0,.82.07.75.1v.12h.1v0l.07-.07.1,0a.16.16,0,0,1,.1,0l.38.09.39.09.61.18.37.12v.25l0,0h.59l.52.25.71.37.51.32v-.81l-.44-.15a1,1,0,0,1-.3-.14,1.34,1.34,0,0,1-.26-.21,1.17,1.17,0,0,1-.25-.38,1.3,1.3,0,0,1-.13-.6h-1v.51l-1.38-.27v-.24Z"/><path class="cls-6" d="M.8,60.11A.21.21,0,0,1,1,59.89h.16a.07.07,0,0,0,.06,0,.12.12,0,0,0,0-.09l.06.06a.19.19,0,0,0,.08.05H2l.66,0,.69,0,.73,0,.88,0,.77,0,.82-.07.75-.1v-.12h.1v0l.07.06a.13.13,0,0,0,.1,0,.33.33,0,0,0,.1,0l.38-.09.39-.1.61-.17L9.45,59v-.26l0,0h.59l.52-.26.71-.36.51-.32v.81l-.44.14a1.87,1.87,0,0,0-.3.14,1.65,1.65,0,0,0-.26.22,1.3,1.3,0,0,0-.25.37,1.32,1.32,0,0,0-.13.6h-1V59.6l-1.38.27v.24Z"/><path class="cls-6" d="M.82,39.28a.21.21,0,0,0,0,.12.27.27,0,0,0,.16.11h.15s.05,0,.06,0,0,.07,0,.08l.06,0s.06,0,.08,0H2l.66,0,.7,0,.72,0,.88,0,.78,0,.81.07.76.1V40h.1V40A.46.46,0,0,1,7.52,40l.1,0h.1L8.1,40l.39.1.61.17.37.12v.26l0,0h.59l.52.26.71.36.51.32v-.81l-.44-.15a1,1,0,0,1-.29-.13,1.36,1.36,0,0,1-.26-.22,1.21,1.21,0,0,1-.26-.37,1.36,1.36,0,0,1-.13-.61h-1v.51l-1.38-.27v-.24Z"/><path class="cls-6" d="M.82,39.3a.18.18,0,0,1,0-.11A.23.23,0,0,1,1,39.08h.15s.05,0,.06,0a.12.12,0,0,0,0-.09l.06.06a.19.19,0,0,0,.08,0H2l.66,0,.7,0,.72,0L5,39l.78-.05.81-.07.76-.1v-.12h.1v0l.07.06a.18.18,0,0,0,.1,0h.1l.38-.09.39-.1.61-.17.37-.12v-.26l0,0h.59l.52-.26.71-.36.51-.32v.81L11.4,38a1.49,1.49,0,0,0-.29.14,1.36,1.36,0,0,0-.26.22,1.21,1.21,0,0,0-.26.37,1.32,1.32,0,0,0-.13.6h-1v-.52l-1.38.27v.24Z"/></g></svg>