<svg id="Laag_1" data-name="Laag 1" xmlns="http://www.w3.org/2000/svg" viewBox="0 0 566.93 566.93"><defs><style>.cls-1{fill:#fff;}.cls-2{fill:#f8c520;}.cls-3,.cls-4{fill:#da1515;}.cls-4{fill-rule:evenodd;}</style></defs><rect class="cls-1" width="566.93" height="566.93"/><rect y="362.83" width="67.96" height="68.03"/><path class="cls-2" d="M34,362.84a34,34,0,0,0,34,34v-34Z" transform="translate(0 0)"/><path class="cls-3" d="M34,396.85a34,34,0,0,0,34,34v-34Z" transform="translate(0 0)"/><path class="cls-3" d="M0,362.84a34,34,0,0,0,34,34v-34Z" transform="translate(0 0)"/><path class="cls-2" d="M0,396.85a34,34,0,0,0,34,34v-34Z" transform="translate(0 0)"/><rect x="135.92" y="498.9" width="67.96" height="68.03"/><path class="cls-2" d="M169.9,498.9a34,34,0,0,0,34,34v-34Z" transform="translate(0 0)"/><path class="cls-3" d="M169.9,532.91a34,34,0,0,0,34,34v-34Z" transform="translate(0 0)"/><path class="cls-3" d="M135.92,498.9a34,34,0,0,0,34,34v-34Z" transform="translate(0 0)"/><path class="cls-2" d="M135.92,532.91a34,34,0,0,0,34,34v-34Z" transform="translate(0 0)"/><rect width="67.96" height="68.03"/><rect class="cls-2" width="27.18" height="26.68"/><rect class="cls-2" x="27.18" y="53.36" width="40.78" height="14.67"/><rect class="cls-3" x="27.18" y="26.68" width="27.18" height="26.68"/><rect x="27.18" width="14.95" height="26.68"/><rect class="cls-3" x="78.58" y="29.89" width="12.14" height="13.11"/><rect class="cls-2" x="42.14" width="12.23" height="26.68"/><rect x="498.37" y="498.9" width="67.96" height="68.03"/><rect class="cls-2" x="498.37" y="498.9" width="27.18" height="26.68"/><rect class="cls-2" x="525.56" y="552.26" width="40.78" height="14.67"/><rect class="cls-3" x="525.56" y="525.58" width="27.18" height="26.68"/><rect x="525.56" y="498.9" width="14.95" height="26.68"/><rect class="cls-3" x="552.74" y="498.9" width="13.59" height="14.67"/><rect class="cls-2" x="540.51" y="498.9" width="12.23" height="26.68"/><rect class="cls-3" y="136.06" width="67.96" height="68.03"/><path d="M0,159.2V136.07H68V159.2Z" transform="translate(0 0)"/><rect class="cls-2" y="181.42" width="67.96" height="22.68"/><rect class="cls-3" x="362.45" y="498.9" width="67.96" height="68.03"/><path d="M362.45,522V498.9h68V522Z" transform="translate(0 0)"/><rect class="cls-2" x="362.45" y="544.25" width="67.96" height="22.68"/><rect x="271.84" y="498.9" width="90.61" height="68.03"/><path class="cls-4" d="M313.52,522.61a26.11,26.11,0,0,0-4.71-6.43c-10.21-10.21,19.43-9.84,9.23.37A26.36,26.36,0,0,0,313.52,522.61Zm-.2,24.48a26.15,26.15,0,0,1-4.51,6.07c-10.21,10.21,19.43,10.58,9.23.37A26.46,26.46,0,0,1,313.32,547.09Z" transform="translate(0 0)"/><path class="cls-4" d="M325.65,534.76a26.56,26.56,0,0,1,6.43,4.71c10.2,10.22,9.83-19.45-.37-9.24A26.19,26.19,0,0,1,325.65,534.76Zm-24.46.19a26.6,26.6,0,0,0-6.05,4.52c-10.2,10.22-10.57-19.45-.37-9.24A25.85,25.85,0,0,0,301.19,535Z" transform="translate(0 0)"/><path class="cls-3" d="M304.71,543.44a26.16,26.16,0,0,1,17.43-17.17A26.2,26.2,0,0,1,304.71,543.44Z" transform="translate(0 0)"/><path class="cls-3" d="M304.71,526.27a26.16,26.16,0,0,0,17.43,17.17A26.2,26.2,0,0,0,304.71,526.27Z" transform="translate(0 0)"/><rect x="203.88" width="90.61" height="68.03"/><path class="cls-4" d="M251.22,23.72a26.16,26.16,0,0,0-4.71-6.44c-10.2-10.21,19.43-9.84,9.23.37A26.49,26.49,0,0,0,251.22,23.72ZM251,48.2a26.15,26.15,0,0,1-4.52,6.06c-10.2,10.21,19.43,10.58,9.23.37A26.11,26.11,0,0,1,251,48.2Z" transform="translate(0 0)"/><path class="cls-4" d="M263.36,35.86a26.11,26.11,0,0,1,6.42,4.72c10.2,10.21,9.83-19.46-.37-9.24A26.6,26.6,0,0,1,263.36,35.86Zm-24.46.2a25.87,25.87,0,0,0-6.06,4.52c-10.2,10.21-10.57-19.46-.37-9.24A26.22,26.22,0,0,0,238.9,36.06Z" transform="translate(0 0)"/><path class="cls-3" d="M242.41,44.54a26.18,26.18,0,0,1,17.43-17.17A26.18,26.18,0,0,1,242.41,44.54Z" transform="translate(0 0)"/><path class="cls-3" d="M242.41,27.37a26.18,26.18,0,0,0,17.43,17.17A26.18,26.18,0,0,0,242.41,27.37Z" transform="translate(0 0)"/><rect x="498.37" y="272.13" width="67.96" height="90.71"/><path class="cls-4" d="M519.23,325a26.36,26.36,0,0,0-6.42,4.72c-10.2,10.21-9.83-19.45.37-9.24A25.82,25.82,0,0,0,519.23,325Zm24.46.2a26.36,26.36,0,0,1,6.06,4.52c10.2,10.21,10.56-19.45.36-9.24A26.36,26.36,0,0,1,543.69,325.19Z" transform="translate(0 0)"/><path class="cls-4" d="M531.36,312.85a26,26,0,0,1,4.72-6.43c10.2-10.21-19.44-9.84-9.24.37A25.87,25.87,0,0,1,531.36,312.85Zm.2,24.48a25.66,25.66,0,0,0,4.52,6.06c10.2,10.22-19.44,10.59-9.24.37A26,26,0,0,0,531.56,337.33Z" transform="translate(0 0)"/><path class="cls-3" d="M540,333.82a26.21,26.21,0,0,1-17.16-17.46A26.23,26.23,0,0,1,540,333.82Z" transform="translate(0 0)"/><path class="cls-3" d="M522.88,333.82A26.21,26.21,0,0,0,540,316.36,26.23,26.23,0,0,0,522.88,333.82Z" transform="translate(0 0)"/><rect y="204.09" width="67.96" height="90.71"/><path class="cls-4" d="M23.69,247.41a26.36,26.36,0,0,0-6.42,4.72c-10.2,10.21-9.84-19.45.36-9.24A26.08,26.08,0,0,0,23.69,247.41Zm24.46.2a26.1,26.1,0,0,1,6.05,4.52c10.2,10.21,10.57-19.45.37-9.24A26.11,26.11,0,0,1,48.15,247.61Z" transform="translate(0 0)"/><path class="cls-4" d="M35.82,235.27a26,26,0,0,1,4.72-6.43c10.2-10.21-19.44-9.84-9.24.37A25.87,25.87,0,0,1,35.82,235.27Zm.2,24.48a25.92,25.92,0,0,0,4.52,6.07c10.2,10.21-19.44,10.58-9.24.37A26.2,26.2,0,0,0,36,259.75Z" transform="translate(0 0)"/><path class="cls-3" d="M44.5,256.24a26.2,26.2,0,0,1-17.16-17.45A26.2,26.2,0,0,1,44.5,256.24Z" transform="translate(0 0)"/><path class="cls-3" d="M27.34,256.24A26.22,26.22,0,0,0,44.5,238.79,26.18,26.18,0,0,0,27.34,256.24Z" transform="translate(0 0)"/><rect y="294.8" width="67.96" height="68.03"/><path class="cls-2" d="M13.59,306.37,6.8,294.81,0,306.37l6.8,11.57Z" transform="translate(0 0)"/><path class="cls-2" d="M27.19,306.37l-6.8-11.56-6.8,11.56,6.8,11.57Z" transform="translate(0 0)"/><path class="cls-2" d="M40.78,306.37,34,294.81l-6.79,11.56L34,317.94Z" transform="translate(0 0)"/><path class="cls-2" d="M54.37,306.37l-6.8-11.56-6.79,11.56,6.79,11.57Z" transform="translate(0 0)"/><path class="cls-2" d="M68,306.37l-6.79-11.56-6.8,11.56,6.8,11.57Z" transform="translate(0 0)"/><path class="cls-2" d="M13.59,328.82,6.8,317.94,0,328.82l6.8,10.89Z" transform="translate(0 0)"/><path class="cls-2" d="M27.19,328.82l-6.8-10.88-6.8,10.88,6.8,10.89Z" transform="translate(0 0)"/><path class="cls-2" d="M40.78,328.82,34,317.94l-6.79,10.88L34,339.71Z" transform="translate(0 0)"/><path class="cls-2" d="M54.37,328.82l-6.8-10.88-6.79,10.88,6.79,10.89Z" transform="translate(0 0)"/><path class="cls-2" d="M68,328.82l-6.79-10.88-6.8,10.88,6.8,10.89Z" transform="translate(0 0)"/><path class="cls-2" d="M13.59,351.27,6.8,339.71,0,351.27l6.8,11.57Z" transform="translate(0 0)"/><path class="cls-2" d="M27.19,351.27l-6.8-11.56-6.8,11.56,6.8,11.57Z" transform="translate(0 0)"/><path class="cls-2" d="M40.78,351.27,34,339.71l-6.79,11.56L34,362.84Z" transform="translate(0 0)"/><path class="cls-2" d="M54.37,351.27l-6.8-11.56-6.79,11.56,6.79,11.57Z" transform="translate(0 0)"/><path class="cls-2" d="M68,351.27l-6.79-11.56-6.8,11.56,6.8,11.57Z" transform="translate(0 0)"/><rect x="203.88" y="498.9" width="67.96" height="68.03"/><path class="cls-2" d="M217.47,510.46l-6.79-11.56-6.8,11.56,6.8,11.57Z" transform="translate(0 0)"/><path class="cls-2" d="M231.07,510.46l-6.8-11.56-6.8,11.56,6.8,11.57Z" transform="translate(0 0)"/><path class="cls-2" d="M244.66,510.46l-6.8-11.56-6.79,11.56L237.86,522Z" transform="translate(0 0)"/><path class="cls-2" d="M258.25,510.46l-6.8-11.56-6.79,11.56L251.45,522Z" transform="translate(0 0)"/><path class="cls-2" d="M271.84,510.46l-6.79-11.56-6.8,11.56,6.8,11.57Z" transform="translate(0 0)"/><path class="cls-2" d="M217.47,532.91,210.68,522l-6.8,10.88,6.8,10.89Z" transform="translate(0 0)"/><path class="cls-2" d="M231.07,532.91,224.27,522l-6.8,10.88,6.8,10.89Z" transform="translate(0 0)"/><path class="cls-2" d="M244.66,532.91,237.86,522l-6.79,10.88,6.79,10.89Z" transform="translate(0 0)"/><path class="cls-2" d="M258.25,532.91,251.45,522l-6.79,10.88,6.79,10.89Z" transform="translate(0 0)"/><path class="cls-2" d="M271.84,532.91,265.05,522l-6.8,10.88,6.8,10.89Z" transform="translate(0 0)"/><path class="cls-2" d="M217.47,555.37l-6.79-11.57-6.8,11.57,6.8,11.56Z" transform="translate(0 0)"/><path class="cls-2" d="M231.07,555.37l-6.8-11.57-6.8,11.57,6.8,11.56Z" transform="translate(0 0)"/><path class="cls-2" d="M244.66,555.37l-6.8-11.57-6.79,11.57,6.79,11.56Z" transform="translate(0 0)"/><path class="cls-2" d="M258.25,555.37l-6.8-11.57-6.79,11.57,6.79,11.56Z" transform="translate(0 0)"/><path class="cls-2" d="M271.84,555.37l-6.79-11.57-6.8,11.57,6.8,11.56Z" transform="translate(0 0)"/><rect x="362.45" width="67.96" height="68.03"/><path class="cls-2" d="M396.43,0A34,34,0,0,0,399,13a34,34,0,0,0,7.37,11,34.07,34.07,0,0,0,11,7.37,33.92,33.92,0,0,0,13,2.59V0Z" transform="translate(0 0)"/><path class="cls-3" d="M396.43,34a34,34,0,0,0,34,34V34Z" transform="translate(0 0)"/><path class="cls-3" d="M362.45,0A34,34,0,0,0,365,13a34,34,0,0,0,7.37,11,34.07,34.07,0,0,0,11,7.37,33.92,33.92,0,0,0,13,2.59V0Z" transform="translate(0 0)"/><path class="cls-2" d="M362.45,34a34,34,0,0,0,34,34V34Z" transform="translate(0 0)"/><rect x="498.37" y="136.06" width="67.96" height="68.03"/><path class="cls-2" d="M532.35,136.07a34,34,0,0,0,34,34v-34Z" transform="translate(0 0)"/><path class="cls-3" d="M532.35,170.08a34,34,0,0,0,34,34v-34Z" transform="translate(0 0)"/><path class="cls-3" d="M498.37,136.07a34,34,0,0,0,34,34v-34Z" transform="translate(0 0)"/><path class="cls-2" d="M498.37,170.08a34,34,0,0,0,34,34v-34Z" transform="translate(0 0)"/><rect class="cls-3" x="135.92" width="67.96" height="68.03"/><path d="M135.92,23.13V0h68V23.13Z" transform="translate(0 0)"/><rect class="cls-2" x="135.92" y="45.35" width="67.96" height="22.68"/><rect class="cls-3" x="498.37" y="362.83" width="67.96" height="68.03"/><path d="M498.37,386V362.84h68V386Z" transform="translate(0 0)"/><rect class="cls-2" x="498.37" y="408.19" width="67.96" height="22.68"/><rect x="294.49" width="67.96" height="68.03"/><path class="cls-2" d="M308.09,11.57,301.29,0,294.5,11.57l6.79,11.56Z" transform="translate(0 0)"/><path class="cls-2" d="M321.68,11.57,314.88,0l-6.79,11.57,6.79,11.56Z" transform="translate(0 0)"/><path class="cls-2" d="M335.27,11.57,328.47,0l-6.79,11.57,6.79,11.56Z" transform="translate(0 0)"/><path class="cls-2" d="M348.86,11.57,342.07,0l-6.8,11.57,6.8,11.56Z" transform="translate(0 0)"/><path class="cls-2" d="M362.45,11.57,355.66,0l-6.8,11.57,6.8,11.56Z" transform="translate(0 0)"/><path class="cls-2" d="M308.09,34l-6.8-10.89L294.5,34l6.79,10.88Z" transform="translate(0 0)"/><path class="cls-2" d="M321.68,34l-6.8-10.89L308.09,34l6.79,10.88Z" transform="translate(0 0)"/><path class="cls-2" d="M335.27,34l-6.8-10.89L321.68,34l6.79,10.88Z" transform="translate(0 0)"/><path class="cls-2" d="M348.86,34l-6.79-10.89L335.27,34l6.8,10.88Z" transform="translate(0 0)"/><path class="cls-2" d="M362.45,34l-6.79-10.89L348.86,34l6.8,10.88Z" transform="translate(0 0)"/><path class="cls-2" d="M308.09,56.47l-6.8-11.57L294.5,56.47,301.29,68Z" transform="translate(0 0)"/><path class="cls-2" d="M321.68,56.47l-6.8-11.57-6.79,11.57L314.88,68Z" transform="translate(0 0)"/><path class="cls-2" d="M335.27,56.47l-6.8-11.57-6.79,11.57L328.47,68Z" transform="translate(0 0)"/><path class="cls-2" d="M348.86,56.47,342.07,44.9l-6.8,11.57L342.07,68Z" transform="translate(0 0)"/><path class="cls-2" d="M362.45,56.47,355.66,44.9l-6.8,11.57L355.66,68Z" transform="translate(0 0)"/><rect x="498.37" y="204.09" width="67.96" height="68.03"/><path class="cls-2" d="M512,215.66l-6.8-11.56-6.8,11.56,6.8,11.57Z" transform="translate(0 0)"/><path class="cls-2" d="M525.56,215.66l-6.8-11.56L512,215.66l6.79,11.57Z" transform="translate(0 0)"/><path class="cls-2" d="M539.15,215.66l-6.8-11.56-6.79,11.56,6.79,11.57Z" transform="translate(0 0)"/><path class="cls-2" d="M552.74,215.66,546,204.1l-6.8,11.56,6.8,11.57Z" transform="translate(0 0)"/><path class="cls-2" d="M566.33,215.66l-6.79-11.56-6.8,11.56,6.8,11.57Z" transform="translate(0 0)"/><path class="cls-2" d="M512,238.11l-6.8-10.88-6.8,10.88,6.8,10.89Z" transform="translate(0 0)"/><path class="cls-2" d="M525.56,238.11l-6.8-10.88L512,238.11,518.76,249Z" transform="translate(0 0)"/><path class="cls-2" d="M539.15,238.11l-6.8-10.88-6.79,10.88L532.35,249Z" transform="translate(0 0)"/><path class="cls-2" d="M552.74,238.11,546,227.23l-6.8,10.88L546,249Z" transform="translate(0 0)"/><path class="cls-2" d="M566.33,238.11l-6.79-10.88-6.8,10.88,6.8,10.89Z" transform="translate(0 0)"/><path class="cls-2" d="M512,260.56,505.17,249l-6.8,11.56,6.8,11.57Z" transform="translate(0 0)"/><path class="cls-2" d="M525.56,260.56,518.76,249,512,260.56l6.79,11.57Z" transform="translate(0 0)"/><path class="cls-2" d="M539.15,260.56,532.35,249l-6.79,11.56,6.79,11.57Z" transform="translate(0 0)"/><path class="cls-2" d="M552.74,260.56,546,249l-6.8,11.56,6.8,11.57Z" transform="translate(0 0)"/><path class="cls-2" d="M566.33,260.56,559.54,249l-6.8,11.56,6.8,11.57Z" transform="translate(0 0)"/><rect x="67.96" width="67.96" height="68.03"/><path class="cls-3" d="M101.94,0a34,34,0,0,0,2.59,13,34.13,34.13,0,0,0,7.36,11,34.22,34.22,0,0,0,11,7.37,33.92,33.92,0,0,0,13,2.59V0Z" transform="translate(0 0)"/><path class="cls-3" d="M101.94,68A34,34,0,0,0,68,34V68Z" transform="translate(0 0)"/><rect x="498.37" y="430.87" width="67.96" height="68.03"/><path class="cls-3" d="M532.35,430.87a34,34,0,0,0,34,34v-34Z" transform="translate(0 0)"/><path class="cls-3" d="M532.35,498.9a34,34,0,0,0-34-34v34Z" transform="translate(0 0)"/><rect y="68.03" width="67.96" height="68.03"/><path class="cls-3" d="M34,68a34,34,0,0,0,34,34V68Z" transform="translate(0 0)"/><path class="cls-3" d="M34,136.07a34.2,34.2,0,0,0-2.58-13A34,34,0,0,0,24,112a34,34,0,0,0-11-7.37,34,34,0,0,0-13-2.59v34Z" transform="translate(0 0)"/><rect x="430.41" y="498.9" width="67.96" height="68.03"/><path class="cls-3" d="M464.39,498.9a34,34,0,0,0,34,34v-34Z" transform="translate(0 0)"/><path class="cls-3" d="M464.39,566.93a34,34,0,0,0-34-34v34Z" transform="translate(0 0)"/><rect x="498.37" y="68.03" width="67.96" height="68.03"/><path class="cls-3" d="M505.05,77.4c0-15,12.85,6.8,27.87,6.8s26.5-21.83,26.5-6.8Z" transform="translate(0 0)"/><path class="cls-3" d="M505.11,89.64c0-15,12.85,6.8,27.87,6.8s26.5-21.83,26.5-6.8Z" transform="translate(0 0)"/><path class="cls-3" d="M505.17,101.89c0-15,12.85,6.8,27.87,6.8s26.5-21.83,26.5-6.8Z" transform="translate(0 0)"/><path class="cls-3" d="M505.23,114.13c0-15,12.85,6.81,27.87,6.81s26.5-21.84,26.5-6.81Z" transform="translate(0 0)"/><path class="cls-3" d="M505.29,126.38c0-15,12.85,6.8,27.87,6.8s26.5-21.83,26.5-6.8Z" transform="translate(0 0)"/><rect x="430.44" y="0.03" width="67.96" height="68.03"/><path class="cls-3" d="M437.12,9.39c0-15,12.85,6.81,27.86,6.81s26.51-21.84,26.51-6.81Z" transform="translate(0 0)"/><path class="cls-3" d="M437.18,21.64c0-15,12.85,6.8,27.87,6.8s26.5-21.83,26.5-6.8Z" transform="translate(0 0)"/><path class="cls-3" d="M437.24,33.88c0-15,12.85,6.81,27.87,6.81s26.5-21.84,26.5-6.81Z" transform="translate(0 0)"/><path class="cls-3" d="M437.3,46.13c0-15,12.85,6.8,27.86,6.8s26.51-21.83,26.51-6.8Z" transform="translate(0 0)"/><path class="cls-3" d="M437.36,58.37c0-15,12.85,6.81,27.87,6.81s26.5-21.83,26.5-6.81Z" transform="translate(0 0)"/><rect y="430.87" width="67.96" height="68.03"/><path class="cls-3" d="M6.68,440.23c0-15,12.85,6.8,27.86,6.8s26.51-21.83,26.51-6.8Z" transform="translate(0 0)"/><path class="cls-3" d="M6.74,452.48c0-15,12.85,6.8,27.86,6.8s26.51-21.83,26.51-6.8Z" transform="translate(0 0)"/><path class="cls-3" d="M6.8,464.72c0-15,12.85,6.8,27.86,6.8s26.51-21.83,26.51-6.8Z" transform="translate(0 0)"/><path class="cls-3" d="M6.86,477c0-15,12.85,6.8,27.87,6.8s26.5-21.83,26.5-6.8Z" transform="translate(0 0)"/><path class="cls-3" d="M6.92,489.21c0-15,12.85,6.81,27.87,6.81s26.5-21.84,26.5-6.81Z" transform="translate(0 0)"/><rect x="67.96" y="498.9" width="67.96" height="68.03"/><path class="cls-3" d="M74.64,508.26c0-15,12.85,6.8,27.86,6.8S129,493.23,129,508.26Z" transform="translate(0 0)"/><path class="cls-3" d="M74.7,520.51c0-15,12.85,6.8,27.86,6.8s26.51-21.83,26.51-6.8Z" transform="translate(0 0)"/><path class="cls-3" d="M74.76,532.75c0-15,12.85,6.8,27.86,6.8s26.51-21.83,26.51-6.8Z" transform="translate(0 0)"/><path class="cls-3" d="M74.82,545c0-15,12.85,6.8,27.87,6.8s26.5-21.83,26.5-6.8Z" transform="translate(0 0)"/><path class="cls-3" d="M74.88,557.24c0-15,12.85,6.8,27.87,6.8s26.5-21.83,26.5-6.8Z" transform="translate(0 0)"/><rect class="cls-2" y="498.9" width="67.96" height="68.03"/><rect class="cls-2" x="498.37" width="67.96" height="68.03"/></svg>