<svg xmlns="http://www.w3.org/2000/svg" viewBox="0 0 100 100"><defs><style>.cls-1{fill:#fff;}.cls-2{fill:#c71620;}.cls-3{fill:#ffde00;}.cls-4{fill:#007847;}.cls-5{fill:#1d1d1b;}.cls-6{fill:#0e4379;}.cls-7{fill:#ededed;}</style></defs><g id="Onder"><rect class="cls-1" width="100" height="12"/><rect class="cls-1" x="43.99" y="44.04" width="100" height="12" transform="translate(144.03 -43.95) rotate(90)"/><rect class="cls-1" y="88" width="100" height="12" transform="translate(99.99 188) rotate(-180)"/><rect class="cls-1" x="-44" y="43.96" width="100" height="12" transform="translate(-43.96 55.96) rotate(-90)"/></g><g id="Laag_2" data-name="Laag 2"><rect class="cls-2" x="88.14" y="-0.04" width="11.8" height="11.92"/><rect class="cls-3" x="88.14" y="4.01" width="11.8" height="3.97"/><rect class="cls-4" x="88.14" y="7.99" width="11.8" height="3.97"/><polygon class="cls-5" points="94.13 4.03 94.77 5.33 96.21 5.54 95.17 6.55 95.41 7.98 94.13 7.31 92.84 7.98 93.09 6.55 92.05 5.54 93.48 5.33 94.13 4.03"/><rect class="cls-2" x="-0.05" y="43.79" width="12" height="12"/><polyline class="cls-3" points="8.21 55.63 6.76 54.18 8.22 52.71"/><polyline class="cls-3" points="8.22 52.71 6.77 51.26 8.24 49.8"/><polyline class="cls-3" points="8.24 49.8 6.79 48.35 8.26 46.88"/><polyline class="cls-3" points="8.26 46.88 6.81 45.43 8.27 43.97"/><polyline class="cls-5" points="9.7 55.62 8.25 54.17 9.71 52.71"/><polyline class="cls-5" points="9.71 52.71 8.26 51.26 9.73 49.79"/><polyline class="cls-5" points="9.73 49.79 8.28 48.34 9.74 46.88"/><polyline class="cls-5" points="9.74 46.88 8.29 45.43 9.76 43.97"/><polyline class="cls-4" points="11.16 55.62 9.71 54.17 11.17 52.7"/><polyline class="cls-4" points="11.17 52.7 9.72 51.26 11.19 49.79"/><polyline class="cls-4" points="11.19 49.79 9.74 48.34 11.2 46.88"/><polyline class="cls-4" points="11.2 46.88 9.76 45.43 11.22 43.96"/><polyline class="cls-3" points="3.49 43.96 4.94 45.41 3.47 46.88"/><polyline class="cls-3" points="3.47 46.88 4.92 48.33 3.46 49.79"/><polyline class="cls-3" points="3.46 49.79 4.91 51.24 3.44 52.71"/><polyline class="cls-3" points="3.44 52.71 4.89 54.16 3.42 55.63"/><polyline class="cls-5" points="2 43.97 3.45 45.42 1.99 46.88"/><polyline class="cls-5" points="1.99 46.88 3.44 48.33 1.97 49.8"/><polyline class="cls-5" points="1.97 49.8 3.42 51.25 1.95 52.71"/><polyline class="cls-5" points="1.95 52.71 3.4 54.16 1.94 55.63"/><polyline class="cls-4" points="0.54 43.97 1.99 45.42 0.52 46.88"/><polyline class="cls-4" points="0.52 46.88 1.97 48.34 0.51 49.8"/><polyline class="cls-4" points="0.51 49.8 1.96 51.25 0.49 52.72"/><polyline class="cls-4" points="0.49 52.72 1.94 54.17 0.47 55.63"/><rect class="cls-2" x="44" width="12" height="12"/><polyline class="cls-3" points="44.17 8.27 45.62 6.82 47.08 8.28"/><polyline class="cls-3" points="47.08 8.28 48.53 6.83 50 8.3"/><polyline class="cls-3" points="50 8.3 51.45 6.85 52.91 8.31"/><polyline class="cls-3" points="52.91 8.31 54.36 6.86 55.83 8.33"/><polyline class="cls-5" points="44.17 9.75 45.62 8.3 47.09 9.77"/><polyline class="cls-5" points="47.09 9.77 48.54 8.32 50 9.78"/><polyline class="cls-5" points="50 9.78 51.45 8.34 52.92 9.8"/><polyline class="cls-5" points="52.92 9.8 54.37 8.35 55.83 9.82"/><polyline class="cls-4" points="44.18 11.21 45.63 9.77 47.09 11.23"/><polyline class="cls-4" points="47.09 11.23 48.54 9.78 50.01 11.25"/><polyline class="cls-4" points="50.01 11.25 51.45 9.8 52.92 11.26"/><polyline class="cls-4" points="52.92 11.26 54.37 9.81 55.84 11.28"/><polyline class="cls-3" points="55.83 3.55 54.38 5 52.92 3.53"/><polyline class="cls-3" points="52.92 3.53 51.47 4.98 50 3.52"/><polyline class="cls-3" points="50 3.52 48.55 4.96 47.09 3.5"/><polyline class="cls-3" points="47.09 3.5 45.64 4.95 44.17 3.48"/><polyline class="cls-5" points="55.83 2.06 54.38 3.51 52.91 2.04"/><polyline class="cls-5" points="52.91 2.04 51.46 3.49 50 2.03"/><polyline class="cls-5" points="50 2.03 48.55 3.48 47.08 2.01"/><polyline class="cls-5" points="47.08 2.01 45.63 3.46 44.17 1.99"/><polyline class="cls-4" points="55.83 0.6 54.38 2.05 52.91 0.58"/><polyline class="cls-4" points="52.91 0.58 51.46 2.03 49.99 0.56"/><polyline class="cls-4" points="49.99 0.56 48.55 2.02 47.08 0.55"/><polyline class="cls-4" points="47.08 0.55 45.63 2 44.16 0.53"/><rect class="cls-2" x="43.87" y="87.96" width="12" height="12"/><polyline class="cls-3" points="44.04 96.22 45.49 94.77 46.95 96.24"/><polyline class="cls-3" points="46.95 96.24 48.4 94.79 49.87 96.25"/><polyline class="cls-3" points="49.87 96.25 51.32 94.8 52.78 96.27"/><polyline class="cls-3" points="52.78 96.27 54.23 94.82 55.7 96.28"/><polyline class="cls-5" points="44.04 97.71 45.49 96.26 46.96 97.72"/><polyline class="cls-5" points="46.96 97.72 48.41 96.27 49.87 97.74"/><polyline class="cls-5" points="49.87 97.74 51.32 96.29 52.78 97.75"/><polyline class="cls-5" points="52.78 97.75 54.23 96.31 55.7 97.77"/><polyline class="cls-4" points="44.05 99.17 45.49 97.72 46.96 99.19"/><polyline class="cls-4" points="46.96 99.19 48.41 97.74 49.87 99.2"/><polyline class="cls-4" points="49.87 99.2 51.32 97.75 52.79 99.22"/><polyline class="cls-4" points="52.79 99.22 54.24 97.77 55.7 99.23"/><polyline class="cls-3" points="55.7 91.5 54.25 92.95 52.79 91.49"/><polyline class="cls-3" points="52.79 91.49 51.34 92.94 49.87 91.47"/><polyline class="cls-3" points="49.87 91.47 48.42 92.92 46.95 91.45"/><polyline class="cls-3" points="46.95 91.45 45.5 92.9 44.04 91.44"/><polyline class="cls-5" points="55.7 90.02 54.25 91.46 52.78 90"/><polyline class="cls-5" points="52.78 90 51.33 91.45 49.87 89.98"/><polyline class="cls-5" points="49.87 89.98 48.42 91.43 46.95 89.97"/><polyline class="cls-5" points="46.95 89.97 45.5 91.42 44.03 89.95"/><polyline class="cls-4" points="55.7 88.55 54.24 90 52.78 88.54"/><polyline class="cls-4" points="52.78 88.54 51.33 89.99 49.86 88.52"/><polyline class="cls-4" points="49.86 88.52 48.41 89.97 46.95 88.5"/><polyline class="cls-4" points="46.95 88.5 45.5 89.95 44.03 88.49"/><rect class="cls-4" x="64.12" width="3.97" height="3.97"/><rect class="cls-3" x="64.12" y="1.99" width="1.98" height="1.98"/><rect class="cls-2" x="66.1" width="1.98" height="1.98"/><rect class="cls-6" x="68.08" width="3.97" height="3.97"/><rect class="cls-7" x="70.06" width="1.98" height="1.98"/><rect class="cls-6" x="72.05" width="3.97" height="3.97"/><rect class="cls-7" x="72.05" y="1.99" width="1.98" height="1.98"/><rect class="cls-2" x="64.12" y="3.97" width="3.97" height="3.97"/><rect class="cls-4" x="64.12" y="5.95" width="1.98" height="1.98"/><rect class="cls-3" x="66.1" y="3.97" width="1.98" height="1.98"/><rect class="cls-4" x="68.08" y="3.97" width="3.97" height="3.97"/><rect class="cls-3" x="68.08" y="5.95" width="1.98" height="1.98"/><rect class="cls-7" x="70.06" y="3.97" width="1.98" height="1.98"/><rect class="cls-6" x="72.05" y="3.97" width="3.97" height="3.97"/><rect class="cls-7" x="74.03" y="3.97" width="1.98" height="1.98"/><rect class="cls-4" x="64.12" y="7.93" width="3.97" height="3.97"/><rect class="cls-3" x="64.12" y="9.92" width="1.98" height="1.98"/><rect class="cls-2" x="68.08" y="7.93" width="3.97" height="3.97"/><rect class="cls-4" x="68.08" y="9.92" width="1.98" height="1.98"/><rect class="cls-3" x="70.06" y="7.93" width="1.98" height="1.98"/><rect class="cls-4" x="72.05" y="7.93" width="3.97" height="3.97"/><rect class="cls-3" x="72.05" y="9.92" width="1.98" height="1.98"/><rect class="cls-2" x="74.03" y="7.93" width="1.98" height="1.98"/><rect class="cls-4" x="66.1" y="7.93" width="1.98" height="1.98"/><rect class="cls-7" x="72.05" y="5.95" width="1.98" height="1.98"/><rect class="cls-7" x="68.08" y="1.99" width="1.98" height="1.98"/><rect class="cls-7" x="74.03" width="1.98" height="1.98"/><rect class="cls-3" x="72.05" y="3.97" width="3.97" height="3.97" transform="translate(148.06 11.9) rotate(180)"/><rect class="cls-4" x="74.03" y="3.97" width="1.98" height="1.98" transform="translate(150.04 9.92) rotate(180)"/><rect class="cls-2" x="72.05" y="5.95" width="1.98" height="1.98" transform="translate(146.07 13.89) rotate(180)"/><rect class="cls-2" x="70.06" y="3.97" width="1.98" height="1.98" transform="translate(142.11 9.92) rotate(180)"/><rect class="cls-4" x="72.05" width="3.97" height="3.97" transform="translate(148.06 3.97) rotate(180)"/><rect class="cls-2" x="74.03" width="1.98" height="1.98" transform="translate(150.04 1.99) rotate(180)"/><rect class="cls-3" x="68.08" width="3.97" height="3.97" transform="translate(140.13 3.97) rotate(180)"/><rect class="cls-4" x="70.06" width="1.98" height="1.98" transform="translate(142.11 1.99) rotate(180)"/><rect class="cls-2" x="68.08" y="1.99" width="1.98" height="1.98" transform="translate(138.14 5.96) rotate(180)"/><rect class="cls-4" x="72.05" y="1.99" width="1.98" height="1.98" transform="translate(146.07 5.96) rotate(180)"/><rect class="cls-4" x="31.93" width="3.97" height="3.97" transform="translate(67.82 3.97) rotate(-180)"/><rect class="cls-3" x="33.91" y="1.98" width="1.98" height="1.98" transform="translate(69.8 5.95) rotate(-180)"/><rect class="cls-2" x="31.93" width="1.98" height="1.98" transform="translate(65.84 1.98) rotate(-180)"/><rect class="cls-6" x="27.96" width="3.97" height="3.97" transform="translate(59.89 3.97) rotate(-180)"/><rect class="cls-7" x="27.96" width="1.98" height="1.98" transform="translate(57.91 1.98) rotate(-180)"/><rect class="cls-6" x="24" width="3.97" height="3.97" transform="translate(51.96 3.97) rotate(-180)"/><rect class="cls-7" x="25.98" y="1.98" width="1.98" height="1.98" transform="translate(53.94 5.95) rotate(-180)"/><rect class="cls-2" x="31.93" y="3.97" width="3.97" height="3.97" transform="translate(67.82 11.9) rotate(-180)"/><rect class="cls-4" x="33.91" y="5.95" width="1.98" height="1.98" transform="translate(69.8 13.88) rotate(-180)"/><rect class="cls-3" x="31.93" y="3.97" width="1.98" height="1.98" transform="translate(65.84 9.91) rotate(-180)"/><rect class="cls-4" x="27.96" y="3.97" width="3.97" height="3.97" transform="translate(59.89 11.9) rotate(-180)"/><rect class="cls-3" x="29.94" y="5.95" width="1.98" height="1.98" transform="translate(61.87 13.88) rotate(-180)"/><rect class="cls-7" x="27.96" y="3.97" width="1.98" height="1.98" transform="translate(57.91 9.91) rotate(-180)"/><rect class="cls-6" x="24" y="3.97" width="3.97" height="3.97" transform="translate(51.96 11.9) rotate(-180)"/><rect class="cls-7" x="24" y="3.97" width="1.98" height="1.98" transform="translate(49.98 9.91) rotate(-180)"/><rect class="cls-4" x="31.93" y="7.93" width="3.97" height="3.97" transform="translate(67.82 19.83) rotate(-180)"/><rect class="cls-3" x="33.91" y="9.91" width="1.98" height="1.98" transform="translate(69.8 21.81) rotate(-180)"/><rect class="cls-2" x="27.96" y="7.93" width="3.97" height="3.97" transform="translate(59.89 19.83) rotate(-180)"/><rect class="cls-4" x="29.94" y="9.91" width="1.98" height="1.98" transform="translate(61.87 21.81) rotate(-180)"/><rect class="cls-3" x="27.96" y="7.93" width="1.98" height="1.98" transform="translate(57.91 17.84) rotate(-180)"/><rect class="cls-4" x="24" y="7.93" width="3.97" height="3.97" transform="translate(51.96 19.83) rotate(-180)"/><rect class="cls-3" x="25.98" y="9.91" width="1.98" height="1.98" transform="translate(53.94 21.81) rotate(-180)"/><rect class="cls-2" x="24" y="7.93" width="1.98" height="1.98" transform="translate(49.98 17.84) rotate(-180)"/><rect class="cls-4" x="31.93" y="7.93" width="1.98" height="1.98" transform="translate(65.84 17.84) rotate(-180)"/><rect class="cls-7" x="25.98" y="5.95" width="1.98" height="1.98" transform="translate(53.94 13.88) rotate(-180)"/><rect class="cls-7" x="29.94" y="1.98" width="1.98" height="1.98" transform="translate(61.87 5.95) rotate(-180)"/><rect class="cls-7" x="24" width="1.98" height="1.98" transform="translate(49.98 1.98) rotate(-180)"/><rect class="cls-3" x="24" y="3.97" width="3.97" height="3.97"/><rect class="cls-4" x="24" y="3.97" width="1.98" height="1.98"/><rect class="cls-2" x="25.98" y="5.95" width="1.98" height="1.98"/><rect class="cls-2" x="27.96" y="3.97" width="1.98" height="1.98"/><rect class="cls-4" x="24" width="3.97" height="3.97"/><rect class="cls-2" x="24" width="1.98" height="1.98"/><rect class="cls-3" x="27.96" width="3.97" height="3.97"/><rect class="cls-4" x="27.96" width="1.98" height="1.98"/><rect class="cls-2" x="29.94" y="1.98" width="1.98" height="1.98"/><rect class="cls-4" x="25.98" y="1.98" width="1.98" height="1.98"/><rect class="cls-4" x="31.91" y="96.02" width="3.97" height="3.97" transform="translate(67.78 196) rotate(180)"/><rect class="cls-3" x="33.89" y="96.02" width="1.98" height="1.98" transform="translate(69.76 194.02) rotate(180)"/><rect class="cls-2" x="31.91" y="98" width="1.98" height="1.98" transform="translate(65.8 197.98) rotate(180)"/><rect class="cls-6" x="27.94" y="96.02" width="3.97" height="3.97" transform="translate(59.85 196) rotate(180)"/><rect class="cls-7" x="27.94" y="98" width="1.98" height="1.98" transform="translate(57.87 197.98) rotate(180)"/><rect class="cls-6" x="23.98" y="96.02" width="3.97" height="3.97" transform="translate(51.92 196) rotate(180)"/><rect class="cls-7" x="25.96" y="96.02" width="1.98" height="1.98" transform="translate(53.9 194.02) rotate(180)"/><rect class="cls-2" x="31.91" y="92.05" width="3.97" height="3.97" transform="translate(67.78 188.07) rotate(180)"/><rect class="cls-4" x="33.89" y="92.05" width="1.98" height="1.98" transform="translate(69.76 186.09) rotate(180)"/><rect class="cls-3" x="31.91" y="94.04" width="1.98" height="1.98" transform="translate(65.8 190.05) rotate(180)"/><rect class="cls-4" x="27.94" y="92.05" width="3.97" height="3.97" transform="translate(59.85 188.07) rotate(180)"/><rect class="cls-3" x="29.93" y="92.05" width="1.98" height="1.98" transform="translate(61.83 186.09) rotate(180)"/><rect class="cls-7" x="27.94" y="94.04" width="1.98" height="1.98" transform="translate(57.87 190.05) rotate(180)"/><rect class="cls-6" x="23.98" y="92.05" width="3.97" height="3.97" transform="translate(51.92 188.07) rotate(180)"/><rect class="cls-7" x="23.98" y="94.04" width="1.98" height="1.98" transform="translate(49.94 190.05) rotate(180)"/><rect class="cls-4" x="31.91" y="88.09" width="3.97" height="3.97" transform="translate(67.78 180.14) rotate(180)"/><rect class="cls-3" x="33.89" y="88.09" width="1.98" height="1.98" transform="translate(69.76 178.16) rotate(180)"/><rect class="cls-2" x="27.94" y="88.09" width="3.97" height="3.97" transform="translate(59.85 180.14) rotate(180)"/><rect class="cls-4" x="29.93" y="88.09" width="1.98" height="1.98" transform="translate(61.83 178.16) rotate(180)"/><rect class="cls-3" x="27.94" y="90.07" width="1.98" height="1.98" transform="translate(57.87 182.12) rotate(180)"/><rect class="cls-4" x="23.98" y="88.09" width="3.97" height="3.97" transform="translate(51.92 180.14) rotate(180)"/><rect class="cls-3" x="25.96" y="88.09" width="1.98" height="1.98" transform="translate(53.9 178.16) rotate(180)"/><rect class="cls-2" x="23.98" y="90.07" width="1.98" height="1.98" transform="translate(49.94 182.12) rotate(180)"/><rect class="cls-4" x="31.91" y="90.07" width="1.98" height="1.98" transform="translate(65.8 182.12) rotate(180)"/><rect class="cls-7" x="25.96" y="92.05" width="1.98" height="1.98" transform="translate(53.9 186.09) rotate(180)"/><rect class="cls-7" x="29.93" y="96.02" width="1.98" height="1.98" transform="translate(61.83 194.02) rotate(180)"/><rect class="cls-7" x="23.98" y="98" width="1.98" height="1.98" transform="translate(49.94 197.98) rotate(180)"/><rect class="cls-3" x="23.98" y="92.05" width="3.97" height="3.97"/><rect class="cls-4" x="23.98" y="94.04" width="1.98" height="1.98"/><rect class="cls-2" x="25.96" y="92.05" width="1.98" height="1.98"/><rect class="cls-2" x="27.94" y="94.04" width="1.98" height="1.98"/><rect class="cls-4" x="23.98" y="96.02" width="3.97" height="3.97"/><rect class="cls-2" x="23.98" y="98" width="1.98" height="1.98"/><rect class="cls-3" x="27.94" y="96.02" width="3.97" height="3.97"/><rect class="cls-4" x="27.94" y="98" width="1.98" height="1.98"/><rect class="cls-2" x="29.93" y="96.02" width="1.98" height="1.98"/><rect class="cls-4" x="25.96" y="96.02" width="1.98" height="1.98"/><rect class="cls-4" x="64.1" y="96.02" width="3.97" height="3.97"/><rect class="cls-3" x="64.1" y="96.02" width="1.98" height="1.98"/><rect class="cls-2" x="66.08" y="98" width="1.98" height="1.98"/><rect class="cls-6" x="68.06" y="96.02" width="3.97" height="3.97"/><rect class="cls-7" x="70.04" y="98" width="1.98" height="1.98"/><rect class="cls-6" x="72.03" y="96.02" width="3.97" height="3.97"/><rect class="cls-7" x="72.03" y="96.02" width="1.98" height="1.98"/><rect class="cls-2" x="64.1" y="92.06" width="3.97" height="3.97"/><rect class="cls-4" x="64.1" y="92.06" width="1.98" height="1.98"/><rect class="cls-3" x="66.08" y="94.04" width="1.98" height="1.98"/><rect class="cls-4" x="68.06" y="92.06" width="3.97" height="3.97"/><rect class="cls-3" x="68.06" y="92.06" width="1.98" height="1.98"/><rect class="cls-7" x="70.04" y="94.04" width="1.98" height="1.98"/><rect class="cls-6" x="72.03" y="92.06" width="3.97" height="3.97"/><rect class="cls-7" x="74.01" y="94.04" width="1.98" height="1.98"/><rect class="cls-4" x="64.1" y="88.09" width="3.97" height="3.97"/><rect class="cls-3" x="64.1" y="88.09" width="1.98" height="1.98"/><rect class="cls-2" x="68.06" y="88.09" width="3.97" height="3.97"/><rect class="cls-4" x="68.06" y="88.09" width="1.98" height="1.98"/><rect class="cls-3" x="70.04" y="90.07" width="1.98" height="1.98"/><rect class="cls-4" x="72.03" y="88.09" width="3.97" height="3.97"/><rect class="cls-3" x="72.03" y="88.09" width="1.98" height="1.98"/><rect class="cls-2" x="74.01" y="90.07" width="1.98" height="1.98"/><rect class="cls-4" x="66.08" y="90.07" width="1.98" height="1.98"/><rect class="cls-7" x="72.03" y="92.06" width="1.98" height="1.98"/><rect class="cls-7" x="68.06" y="96.02" width="1.98" height="1.98"/><rect class="cls-7" x="74.01" y="98" width="1.98" height="1.98"/><rect class="cls-3" x="72.03" y="92.06" width="3.97" height="3.97" transform="translate(148.02 188.08) rotate(-180)"/><rect class="cls-4" x="74.01" y="94.04" width="1.98" height="1.98" transform="translate(150 190.06) rotate(-180)"/><rect class="cls-2" x="72.03" y="92.06" width="1.98" height="1.98" transform="translate(146.04 186.09) rotate(-180)"/><rect class="cls-2" x="70.04" y="94.04" width="1.98" height="1.98" transform="translate(142.07 190.06) rotate(-180)"/><rect class="cls-4" x="72.03" y="96.02" width="3.97" height="3.97" transform="translate(148.02 196.01) rotate(-180)"/><rect class="cls-2" x="74.01" y="98" width="1.98" height="1.98" transform="translate(150 197.99) rotate(-180)"/><rect class="cls-3" x="68.06" y="96.02" width="3.97" height="3.97" transform="translate(140.09 196.01) rotate(-180)"/><rect class="cls-4" x="70.04" y="98" width="1.98" height="1.98" transform="translate(142.07 197.99) rotate(-180)"/><rect class="cls-2" x="68.06" y="96.02" width="1.98" height="1.98" transform="translate(138.11 194.03) rotate(-180)"/><rect class="cls-4" x="72.03" y="96.02" width="1.98" height="1.98" transform="translate(146.04 194.03) rotate(-180)"/><rect class="cls-4" y="31.91" width="3.97" height="3.97" transform="translate(-31.91 35.87) rotate(-90)"/><rect class="cls-3" x="1.98" y="33.89" width="1.98" height="1.98" transform="translate(-31.91 37.86) rotate(-90)"/><rect class="cls-2" y="31.91" width="1.98" height="1.98" transform="translate(-31.91 33.89) rotate(-90)"/><rect class="cls-6" y="27.94" width="3.97" height="3.97" transform="translate(-27.94 31.91) rotate(-90)"/><rect class="cls-7" y="27.94" width="1.98" height="1.98" transform="translate(-27.94 29.93) rotate(-90)"/><rect class="cls-6" y="23.98" width="3.97" height="3.97" transform="translate(-23.98 27.94) rotate(-90)"/><rect class="cls-7" x="1.98" y="25.96" width="1.98" height="1.98" transform="translate(-23.98 29.92) rotate(-90)"/><rect class="cls-2" x="3.96" y="31.91" width="3.97" height="3.97" transform="translate(-27.94 39.84) rotate(-90)"/><rect class="cls-4" x="5.95" y="33.89" width="1.98" height="1.98" transform="translate(-27.94 41.82) rotate(-90)"/><rect class="cls-3" x="3.96" y="31.91" width="1.98" height="1.98" transform="translate(-27.94 37.86) rotate(-90)"/><rect class="cls-4" x="3.96" y="27.94" width="3.97" height="3.97" transform="translate(-23.98 35.87) rotate(-90)"/><rect class="cls-3" x="5.95" y="29.93" width="1.98" height="1.98" transform="translate(-23.98 37.86) rotate(-90)"/><rect class="cls-7" x="3.96" y="27.94" width="1.98" height="1.98" transform="translate(-23.98 33.89) rotate(-90)"/><rect class="cls-6" x="3.96" y="23.98" width="3.97" height="3.97" transform="translate(-20.01 31.91) rotate(-90)"/><rect class="cls-7" x="3.96" y="23.98" width="1.98" height="1.98" transform="translate(-20.01 29.92) rotate(-90)"/><rect class="cls-4" x="7.93" y="31.91" width="3.97" height="3.97" transform="translate(-23.98 43.8) rotate(-90)"/><rect class="cls-3" x="9.91" y="33.89" width="1.98" height="1.98" transform="translate(-23.98 45.79) rotate(-90)"/><rect class="cls-2" x="7.93" y="27.94" width="3.97" height="3.97" transform="translate(-20.01 39.84) rotate(-90)"/><rect class="cls-4" x="9.91" y="29.93" width="1.98" height="1.98" transform="translate(-20.01 41.82) rotate(-90)"/><rect class="cls-3" x="7.93" y="27.94" width="1.98" height="1.98" transform="translate(-20.01 37.86) rotate(-90)"/><rect class="cls-4" x="7.93" y="23.98" width="3.97" height="3.97" transform="translate(-16.05 35.87) rotate(-90)"/><rect class="cls-3" x="9.91" y="25.96" width="1.98" height="1.98" transform="translate(-16.05 37.86) rotate(-90)"/><rect class="cls-2" x="7.93" y="23.98" width="1.98" height="1.98" transform="translate(-16.05 33.89) rotate(-90)"/><rect class="cls-4" x="7.93" y="31.91" width="1.98" height="1.98" transform="translate(-23.98 41.82) rotate(-90)"/><rect class="cls-7" x="5.95" y="25.96" width="1.98" height="1.98" transform="translate(-20.01 33.89) rotate(-90)"/><rect class="cls-7" x="1.98" y="29.93" width="1.98" height="1.98" transform="translate(-27.94 33.89) rotate(-90)"/><rect class="cls-7" y="23.98" width="1.98" height="1.98" transform="translate(-23.98 25.96) rotate(-90)"/><rect class="cls-3" x="3.96" y="23.98" width="3.97" height="3.97" transform="translate(31.91 20.01) rotate(90)"/><rect class="cls-4" x="3.96" y="23.98" width="1.98" height="1.98" transform="translate(29.92 20.01) rotate(90)"/><rect class="cls-2" x="5.95" y="25.96" width="1.98" height="1.98" transform="translate(33.89 20.01) rotate(90)"/><rect class="cls-2" x="3.96" y="27.94" width="1.98" height="1.98" transform="translate(33.89 23.98) rotate(90)"/><rect class="cls-4" y="23.98" width="3.97" height="3.97" transform="translate(27.94 23.98) rotate(90)"/><rect class="cls-2" y="23.98" width="1.98" height="1.98" transform="translate(25.96 23.98) rotate(90)"/><rect class="cls-3" y="27.94" width="3.97" height="3.97" transform="translate(31.91 27.94) rotate(90)"/><rect class="cls-4" y="27.94" width="1.98" height="1.98" transform="translate(29.92 27.94) rotate(90)"/><rect class="cls-2" x="1.98" y="29.93" width="1.98" height="1.98" transform="translate(33.89 27.94) rotate(90)"/><rect class="cls-4" x="1.98" y="25.96" width="1.98" height="1.98" transform="translate(29.92 23.98) rotate(90)"/><rect class="cls-4" y="64.1" width="3.97" height="3.97" transform="translate(68.06 64.1) rotate(90)"/><rect class="cls-3" x="1.98" y="64.1" width="1.98" height="1.98" transform="translate(68.06 62.12) rotate(90)"/><rect class="cls-2" y="66.08" width="1.98" height="1.98" transform="translate(68.06 66.08) rotate(90)"/><rect class="cls-6" y="68.06" width="3.97" height="3.97" transform="translate(72.02 68.07) rotate(90)"/><rect class="cls-7" y="70.04" width="1.98" height="1.98" transform="translate(72.02 70.05) rotate(90)"/><rect class="cls-6" y="72.03" width="3.97" height="3.97" transform="translate(75.99 72.03) rotate(90)"/><rect class="cls-7" x="1.98" y="72.03" width="1.98" height="1.98" transform="translate(75.99 70.05) rotate(90)"/><rect class="cls-2" x="3.96" y="64.1" width="3.97" height="3.97" transform="translate(72.02 60.14) rotate(90)"/><rect class="cls-4" x="5.94" y="64.1" width="1.98" height="1.98" transform="translate(72.02 58.15) rotate(90)"/><rect class="cls-3" x="3.96" y="66.08" width="1.98" height="1.98" transform="translate(72.02 62.12) rotate(90)"/><rect class="cls-4" x="3.96" y="68.06" width="3.97" height="3.97" transform="translate(75.99 64.1) rotate(90)"/><rect class="cls-3" x="5.94" y="68.06" width="1.98" height="1.98" transform="translate(75.99 62.12) rotate(90)"/><rect class="cls-7" x="3.96" y="70.04" width="1.98" height="1.98" transform="translate(75.99 66.08) rotate(90)"/><rect class="cls-6" x="3.96" y="72.03" width="3.97" height="3.97" transform="translate(79.95 68.07) rotate(90)"/><rect class="cls-7" x="3.96" y="74.01" width="1.98" height="1.98" transform="translate(79.95 70.05) rotate(90)"/><rect class="cls-4" x="7.93" y="64.1" width="3.97" height="3.97" transform="translate(75.99 56.17) rotate(90)"/><rect class="cls-3" x="9.91" y="64.1" width="1.98" height="1.98" transform="translate(75.99 54.19) rotate(90)"/><rect class="cls-2" x="7.93" y="68.06" width="3.97" height="3.97" transform="translate(79.95 60.14) rotate(90)"/><rect class="cls-4" x="9.91" y="68.06" width="1.98" height="1.98" transform="translate(79.95 58.15) rotate(90)"/><rect class="cls-3" x="7.93" y="70.04" width="1.98" height="1.98" transform="translate(79.95 62.12) rotate(90)"/><rect class="cls-4" x="7.93" y="72.03" width="3.97" height="3.97" transform="translate(83.92 64.1) rotate(90)"/><rect class="cls-3" x="9.91" y="72.03" width="1.98" height="1.98" transform="translate(83.92 62.12) rotate(90)"/><rect class="cls-2" x="7.93" y="74.01" width="1.98" height="1.98" transform="translate(83.92 66.08) rotate(90)"/><rect class="cls-4" x="7.93" y="66.08" width="1.98" height="1.98" transform="translate(75.99 58.15) rotate(90)"/><rect class="cls-7" x="5.94" y="72.03" width="1.98" height="1.98" transform="translate(79.95 66.08) rotate(90)"/><rect class="cls-7" x="1.98" y="68.06" width="1.98" height="1.98" transform="translate(72.02 66.08) rotate(90)"/><rect class="cls-7" y="74.01" width="1.98" height="1.98" transform="translate(75.99 74.01) rotate(90)"/><rect class="cls-3" x="3.96" y="72.03" width="3.97" height="3.97" transform="translate(-68.07 79.95) rotate(-90)"/><rect class="cls-4" x="3.96" y="74.01" width="1.98" height="1.98" transform="translate(-70.05 79.95) rotate(-90)"/><rect class="cls-2" x="5.94" y="72.03" width="1.98" height="1.98" transform="translate(-66.08 79.95) rotate(-90)"/><rect class="cls-2" x="3.96" y="70.04" width="1.98" height="1.98" transform="translate(-66.08 75.99) rotate(-90)"/><rect class="cls-4" y="72.03" width="3.97" height="3.97" transform="translate(-72.03 75.99) rotate(-90)"/><rect class="cls-2" y="74.01" width="1.98" height="1.98" transform="translate(-74.01 75.99) rotate(-90)"/><rect class="cls-3" y="68.06" width="3.97" height="3.97" transform="translate(-68.07 72.02) rotate(-90)"/><rect class="cls-4" y="70.04" width="1.98" height="1.98" transform="translate(-70.05 72.02) rotate(-90)"/><rect class="cls-2" x="1.98" y="68.06" width="1.98" height="1.98" transform="translate(-66.08 72.02) rotate(-90)"/><rect class="cls-4" x="1.98" y="72.03" width="1.98" height="1.98" transform="translate(-70.05 75.99) rotate(-90)"/><rect class="cls-4" x="96.03" y="64.12" width="3.97" height="3.97" transform="translate(164.12 -31.92) rotate(90)"/><rect class="cls-3" x="96.03" y="64.12" width="1.98" height="1.98" transform="translate(162.13 -31.92) rotate(90)"/><rect class="cls-2" x="98.02" y="66.1" width="1.98" height="1.98" transform="translate(166.1 -31.92) rotate(90)"/><rect class="cls-6" x="96.03" y="68.08" width="3.97" height="3.97" transform="translate(168.08 -27.95) rotate(90)"/><rect class="cls-7" x="98.02" y="70.06" width="1.98" height="1.98" transform="translate(170.06 -27.95) rotate(90)"/><rect class="cls-6" x="96.03" y="72.05" width="3.97" height="3.97" transform="translate(172.05 -23.99) rotate(90)"/><rect class="cls-7" x="96.03" y="72.05" width="1.98" height="1.98" transform="translate(170.06 -23.99) rotate(90)"/><rect class="cls-2" x="92.07" y="64.12" width="3.97" height="3.97" transform="translate(160.15 -27.95) rotate(90)"/><rect class="cls-4" x="92.07" y="64.12" width="1.98" height="1.98" transform="translate(158.17 -27.95) rotate(90)"/><rect class="cls-3" x="94.05" y="66.1" width="1.98" height="1.98" transform="translate(162.13 -27.95) rotate(90)"/><rect class="cls-4" x="92.07" y="68.08" width="3.97" height="3.97" transform="translate(164.12 -23.99) rotate(90)"/><rect class="cls-3" x="92.07" y="68.08" width="1.98" height="1.98" transform="translate(162.13 -23.99) rotate(90)"/><rect class="cls-7" x="94.05" y="70.06" width="1.98" height="1.98" transform="translate(166.1 -23.99) rotate(90)"/><rect class="cls-6" x="92.07" y="72.05" width="3.97" height="3.97" transform="translate(168.08 -20.02) rotate(90)"/><rect class="cls-7" x="94.05" y="74.03" width="1.98" height="1.98" transform="translate(170.06 -20.02) rotate(90)"/><rect class="cls-4" x="88.1" y="64.12" width="3.97" height="3.97" transform="translate(156.19 -23.99) rotate(90)"/><rect class="cls-3" x="88.1" y="64.12" width="1.98" height="1.98" transform="translate(154.2 -23.99) rotate(90)"/><rect class="cls-2" x="88.1" y="68.08" width="3.97" height="3.97" transform="translate(160.15 -20.02) rotate(90)"/><rect class="cls-4" x="88.1" y="68.08" width="1.98" height="1.98" transform="translate(158.17 -20.02) rotate(90)"/><rect class="cls-3" x="90.09" y="70.06" width="1.98" height="1.98" transform="translate(162.13 -20.02) rotate(90)"/><rect class="cls-4" x="88.1" y="72.05" width="3.97" height="3.97" transform="translate(164.12 -16.06) rotate(90)"/><rect class="cls-3" x="88.1" y="72.05" width="1.98" height="1.98" transform="translate(162.13 -16.06) rotate(90)"/><rect class="cls-2" x="90.09" y="74.03" width="1.98" height="1.98" transform="translate(166.1 -16.06) rotate(90)"/><rect class="cls-4" x="90.09" y="66.1" width="1.98" height="1.98" transform="translate(158.17 -23.99) rotate(90)"/><rect class="cls-7" x="92.07" y="72.05" width="1.98" height="1.98" transform="translate(166.1 -20.02) rotate(90)"/><rect class="cls-7" x="96.03" y="68.08" width="1.98" height="1.98" transform="translate(166.1 -27.95) rotate(90)"/><rect class="cls-7" x="98.02" y="74.03" width="1.98" height="1.98" transform="translate(174.03 -23.99) rotate(90)"/><rect class="cls-3" x="92.07" y="72.05" width="3.97" height="3.97" transform="translate(20.02 168.08) rotate(-90)"/><rect class="cls-4" x="94.05" y="74.03" width="1.98" height="1.98" transform="translate(20.02 170.06) rotate(-90)"/><rect class="cls-2" x="92.07" y="72.05" width="1.98" height="1.98" transform="translate(20.02 166.1) rotate(-90)"/><rect class="cls-2" x="94.05" y="70.06" width="1.98" height="1.98" transform="translate(23.99 166.1) rotate(-90)"/><rect class="cls-4" x="96.03" y="72.05" width="3.97" height="3.97" transform="translate(23.99 172.05) rotate(-90)"/><rect class="cls-2" x="98.02" y="74.03" width="1.98" height="1.98" transform="translate(23.99 174.03) rotate(-90)"/><rect class="cls-3" x="96.03" y="68.08" width="3.97" height="3.97" transform="translate(27.95 168.08) rotate(-90)"/><rect class="cls-4" x="98.02" y="70.06" width="1.98" height="1.98" transform="translate(27.95 170.06) rotate(-90)"/><rect class="cls-2" x="96.03" y="68.08" width="1.98" height="1.98" transform="translate(27.95 166.1) rotate(-90)"/><rect class="cls-4" x="96.03" y="72.05" width="1.98" height="1.98" transform="translate(23.99 170.06) rotate(-90)"/><rect class="cls-4" x="96.04" y="31.93" width="3.97" height="3.97" transform="translate(64.11 131.93) rotate(-90)"/><rect class="cls-3" x="96.04" y="33.91" width="1.98" height="1.98" transform="translate(62.13 131.93) rotate(-90)"/><rect class="cls-2" x="98.02" y="31.93" width="1.98" height="1.98" transform="translate(66.09 131.93) rotate(-90)"/><rect class="cls-6" x="96.04" y="27.96" width="3.97" height="3.97" transform="translate(68.08 127.97) rotate(-90)"/><rect class="cls-7" x="98.02" y="27.96" width="1.98" height="1.98" transform="translate(70.06 127.97) rotate(-90)"/><rect class="cls-6" x="96.04" y="24" width="3.97" height="3.97" transform="translate(72.04 124) rotate(-90)"/><rect class="cls-7" x="96.04" y="25.98" width="1.98" height="1.98" transform="translate(70.06 124) rotate(-90)"/><rect class="cls-2" x="92.07" y="31.93" width="3.97" height="3.97" transform="translate(60.15 127.97) rotate(-90)"/><rect class="cls-4" x="92.07" y="33.91" width="1.98" height="1.98" transform="translate(58.16 127.97) rotate(-90)"/><rect class="cls-3" x="94.06" y="31.93" width="1.98" height="1.98" transform="translate(62.13 127.97) rotate(-90)"/><rect class="cls-4" x="92.07" y="27.96" width="3.97" height="3.97" transform="translate(64.11 124) rotate(-90)"/><rect class="cls-3" x="92.07" y="29.94" width="1.98" height="1.98" transform="translate(62.13 124) rotate(-90)"/><rect class="cls-7" x="94.06" y="27.96" width="1.98" height="1.98" transform="translate(66.09 124) rotate(-90)"/><rect class="cls-6" x="92.07" y="24" width="3.97" height="3.97" transform="translate(68.08 120.03) rotate(-90)"/><rect class="cls-7" x="94.06" y="24" width="1.98" height="1.98" transform="translate(70.06 120.03) rotate(-90)"/><rect class="cls-4" x="88.11" y="31.93" width="3.97" height="3.97" transform="translate(56.18 124) rotate(-90)"/><rect class="cls-3" x="88.11" y="33.91" width="1.98" height="1.98" transform="translate(54.2 124) rotate(-90)"/><rect class="cls-2" x="88.11" y="27.96" width="3.97" height="3.97" transform="translate(60.15 120.03) rotate(-90)"/><rect class="cls-4" x="88.11" y="29.94" width="1.98" height="1.98" transform="translate(58.16 120.03) rotate(-90)"/><rect class="cls-3" x="90.09" y="27.96" width="1.98" height="1.98" transform="translate(62.13 120.03) rotate(-90)"/><rect class="cls-4" x="88.11" y="24" width="3.97" height="3.97" transform="translate(64.11 116.07) rotate(-90)"/><rect class="cls-3" x="88.11" y="25.98" width="1.98" height="1.98" transform="translate(62.13 116.07) rotate(-90)"/><rect class="cls-2" x="90.09" y="24" width="1.98" height="1.98" transform="translate(66.09 116.07) rotate(-90)"/><rect class="cls-4" x="90.09" y="31.93" width="1.98" height="1.98" transform="translate(58.16 124) rotate(-90)"/><rect class="cls-7" x="92.07" y="25.98" width="1.98" height="1.98" transform="translate(66.09 120.03) rotate(-90)"/><rect class="cls-7" x="96.04" y="29.94" width="1.98" height="1.98" transform="translate(66.09 127.97) rotate(-90)"/><rect class="cls-7" x="98.02" y="24" width="1.98" height="1.98" transform="translate(74.02 124) rotate(-90)"/><rect class="cls-3" x="92.07" y="24" width="3.97" height="3.97" transform="translate(120.04 -68.08) rotate(90)"/><rect class="cls-4" x="94.06" y="24" width="1.98" height="1.98" transform="translate(120.04 -70.06) rotate(90)"/><rect class="cls-2" x="92.07" y="25.98" width="1.98" height="1.98" transform="translate(120.04 -66.09) rotate(90)"/><rect class="cls-2" x="94.06" y="27.96" width="1.98" height="1.98" transform="translate(124 -66.09) rotate(90)"/><rect class="cls-4" x="96.04" y="24" width="3.97" height="3.97" transform="translate(124 -72.04) rotate(90)"/><rect class="cls-2" x="98.02" y="24" width="1.98" height="1.98" transform="translate(124 -74.02) rotate(90)"/><rect class="cls-3" x="96.04" y="27.96" width="3.97" height="3.97" transform="translate(127.97 -68.08) rotate(90)"/><rect class="cls-4" x="98.02" y="27.96" width="1.98" height="1.98" transform="translate(127.97 -70.06) rotate(90)"/><rect class="cls-2" x="96.04" y="29.94" width="1.98" height="1.98" transform="translate(127.97 -66.09) rotate(90)"/><rect class="cls-4" x="96.04" y="25.98" width="1.98" height="1.98" transform="translate(124 -70.06) rotate(90)"/><rect class="cls-2" x="-0.06" y="88" width="11.8" height="11.92"/><rect class="cls-3" x="-0.06" y="92.05" width="11.8" height="3.97"/><rect class="cls-4" x="-0.06" y="96.03" width="11.8" height="3.97"/><polygon class="cls-5" points="5.93 92.07 6.57 93.37 8.01 93.58 6.97 94.59 7.21 96.02 5.93 95.35 4.64 96.02 4.89 94.59 3.85 93.58 5.29 93.37 5.93 92.07"/><rect class="cls-2" x="88.13" y="87.96" width="11.8" height="11.92"/><rect class="cls-3" x="88.13" y="92.01" width="11.8" height="3.97"/><rect class="cls-4" x="88.13" y="95.99" width="11.8" height="3.97"/><polygon class="cls-5" points="94.12 92.03 94.76 93.33 96.2 93.54 95.16 94.55 95.4 95.98 94.12 95.31 92.83 95.98 93.08 94.55 92.04 93.54 93.47 93.33 94.12 92.03"/><rect class="cls-2" x="0.02" y="0.02" width="11.8" height="11.92"/><rect class="cls-3" x="0.02" y="4.07" width="11.8" height="3.97"/><rect class="cls-4" x="0.02" y="8.05" width="11.8" height="3.97"/><polygon class="cls-5" points="6.01 4.09 6.65 5.39 8.09 5.6 7.05 6.61 7.3 8.04 6.01 7.37 4.72 8.04 4.97 6.61 3.93 5.6 5.37 5.39 6.01 4.09"/><path class="cls-2" d="M39.05,3.16a3.26,3.26,0,0,1-.28-.92,3.44,3.44,0,0,1,0-.77H37.59V2.71a2.63,2.63,0,0,0,.59.83,1.66,1.66,0,0,0,.87.46v.42H37.88v.63h1.18v.63H37.88V6.1H40V3.16Z"/><path class="cls-2" d="M40.94,3.16a3,3,0,0,0,.28-.92,4.32,4.32,0,0,0,0-.77h1.16V2.71a2.86,2.86,0,0,1-.6.83,1.66,1.66,0,0,1-.87.46v.42h1.17v.63H40.94v.63h1.17V6.1H40V3.16Z"/><path class="cls-2" d="M40.94,9a3,3,0,0,1,.28.92,4.32,4.32,0,0,1,0,.77h1.16V9.49a3,3,0,0,0-.6-.84,1.7,1.7,0,0,0-.87-.45V7.78h1.17V7.15H40.94V6.52h1.17V6.1H40V9Z"/><path class="cls-2" d="M39.05,9a3.26,3.26,0,0,0-.28.92,3.44,3.44,0,0,0,0,.77H37.59V9.49a2.76,2.76,0,0,1,.59-.84,1.7,1.7,0,0,1,.87-.45V7.78H37.88V7.15h1.18V6.52H37.88V6.1H40V9Z"/><rect class="cls-1" x="12" width="12" height="12"/><path class="cls-3" d="M21.2,5.64c-.59.23-2.1.61-2.31.08s1.2-1.36,1.79-1.59,1.29-.22,1.5.31S21.8,5.41,21.2,5.64Z"/><path class="cls-3" d="M18.39,9.3c-.23-.6-.6-2.11-.08-2.31s1.36,1.19,1.59,1.79.22,1.29-.31,1.49S18.62,9.89,18.39,9.3Z"/><path class="cls-3" d="M14.75,6.45c.59-.23,2.1-.6,2.31-.08S15.86,7.73,15.27,8s-1.29.22-1.5-.31S14.15,6.68,14.75,6.45Z"/><path class="cls-3" d="M17.56,2.79c.23.6.6,2.11.08,2.31s-1.36-1.19-1.59-1.79-.22-1.29.31-1.49S17.33,2.2,17.56,2.79Z"/><path class="cls-2" d="M20,3.44c-.25.58-1.05,1.92-1.57,1.7s-.12-1.81.14-2.39.75-1.07,1.27-.85S20.24,2.86,20,3.44Z"/><path class="cls-2" d="M20.59,8C20,7.76,18.67,7,18.9,6.44s1.8-.12,2.39.14,1.07.75.84,1.27S21.18,8.27,20.59,8Z"/><path class="cls-2" d="M16,8.59c.25-.58,1-1.92,1.57-1.7s.12,1.81-.14,2.39-.75,1.07-1.27.85S15.75,9.17,16,8.59Z"/><path class="cls-2" d="M15.39,4c.59.25,1.92,1.05,1.7,1.57s-1.8.12-2.39-.14-1.07-.75-.84-1.27S14.81,3.76,15.39,4Z"/><path class="cls-4" d="M19,4.92a1,1,0,0,0,.15-.25,1.54,1.54,0,0,0,.1-.51,6.26,6.26,0,0,1,0-.86.79.79,0,0,1,.48-.55c.17,0,.22.08.54.06a.5.5,0,0,0,.32-.11c.09-.08.09-.17.17-.19s.23.09.27.24,0,.19-.05.41a3.5,3.5,0,0,0,0,.46,1.75,1.75,0,0,1-.22.8,1.33,1.33,0,0,1-1.33.75.17.17,0,0,0-.15,0c-.05,0-.05.06-.09.08A.19.19,0,0,1,19,5.08.25.25,0,0,1,19,4.92Z"/><path class="cls-4" d="M19.43,5.85a.71.71,0,0,0,.27,0,1.18,1.18,0,0,0,.45-.22c.5-.33.47-.4.67-.48a.78.78,0,0,1,.69,0c.12.11.06.21.26.44a.44.44,0,0,0,.26.18c.12,0,.19,0,.24,0s.06.23,0,.34-.15.1-.33.2a2.4,2.4,0,0,0-.36.27,1.72,1.72,0,0,1-.74.29,1.24,1.24,0,0,1-1.32-.56.16.16,0,0,0-.07-.13s-.07,0-.11,0a.17.17,0,0,1,0-.24A.27.27,0,0,1,19.43,5.85Z"/><path class="cls-4" d="M19,6.82a1.12,1.12,0,0,0,.22.17,1,1,0,0,0,.45.12c.56,0,.58,0,.77,0a.78.78,0,0,1,.48.56c0,.19-.07.25-.06.61A.66.66,0,0,0,21,8.7c.07.1.15.11.17.19a.32.32,0,0,1-.22.31c-.11,0-.17,0-.37,0a2,2,0,0,0-.41,0,1.32,1.32,0,0,1-.7-.26,1.74,1.74,0,0,1-.65-1.54.24.24,0,0,0,0-.18c0-.06-.05-.06-.06-.11a.21.21,0,0,1,.13-.24A.17.17,0,0,1,19,6.82Z"/><path class="cls-4" d="M18.14,7.33a1.16,1.16,0,0,0,0,.3,1.32,1.32,0,0,0,.25.47c.38.49.47.44.56.65a.87.87,0,0,1-.07.8c-.13.16-.25.11-.52.39a.63.63,0,0,0-.22.34c0,.14,0,.21,0,.28a.32.32,0,0,1-.4,0c-.11-.06-.11-.15-.23-.34a3,3,0,0,0-.3-.35,1.5,1.5,0,0,1-.34-.76,1.76,1.76,0,0,1,.7-1.64.29.29,0,0,0,.16-.11c0-.06,0-.09,0-.14a.23.23,0,0,1,.29-.06A.21.21,0,0,1,18.14,7.33Z"/><path class="cls-4" d="M17.11,7a1.07,1.07,0,0,0-.17.24,1,1,0,0,0-.1.47c0,.57.08.59,0,.8a.83.83,0,0,1-.57.52c-.2.05-.27,0-.66,0a.75.75,0,0,0-.39.12c-.11.08-.11.17-.2.19a.36.36,0,0,1-.34-.21c0-.11,0-.18,0-.38a2.76,2.76,0,0,0,0-.42A1.32,1.32,0,0,1,15,7.54a1.84,1.84,0,0,1,1.6-.76.39.39,0,0,0,.2,0c.05,0,.05-.06.1-.08a.24.24,0,0,1,.27.12A.22.22,0,0,1,17.11,7Z"/><path class="cls-4" d="M16.76,6.22a1,1,0,0,0-.28,0,1.21,1.21,0,0,0-.44.22c-.47.35-.43.44-.63.51a.76.76,0,0,1-.73-.07c-.15-.12-.1-.23-.35-.49A.59.59,0,0,0,14,6.21c-.12,0-.19,0-.26,0a.33.33,0,0,1,0-.38c.07-.1.15-.1.33-.21a1.61,1.61,0,0,0,.33-.28,1.45,1.45,0,0,1,.73-.3,1.58,1.58,0,0,1,1.49.67.27.27,0,0,0,.1.15c.05,0,.08,0,.12,0a.19.19,0,0,1,0,.26A.22.22,0,0,1,16.76,6.22Z"/><path class="cls-4" d="M16.81,5.2a1.72,1.72,0,0,0-.23-.2,1.34,1.34,0,0,0-.51-.17c-.63-.11-.67,0-.88-.11a.88.88,0,0,1-.51-.63c0-.21.11-.25.12-.64a.65.65,0,0,0-.07-.4c-.07-.12-.16-.13-.18-.22s.13-.27.29-.3.19,0,.41.09a1.67,1.67,0,0,0,.47,0,1.73,1.73,0,0,1,.79.34,1.75,1.75,0,0,1,.61,1.68.23.23,0,0,0,0,.19c0,.06.06.06.07.11a.22.22,0,0,1-.18.24A.23.23,0,0,1,16.81,5.2Z"/><path class="cls-4" d="M17.76,4.68a.91.91,0,0,0,0-.3,1.29,1.29,0,0,0-.24-.5c-.38-.54-.48-.5-.56-.72a.84.84,0,0,1,.07-.8c.12-.15.24-.09.51-.34s.22-.27.22-.32,0-.21,0-.28.27-.09.4,0,.11.17.23.37a2.3,2.3,0,0,0,.31.39A1.67,1.67,0,0,1,19,3a1.58,1.58,0,0,1-.7,1.58.23.23,0,0,0-.15.1s0,.08,0,.13a.21.21,0,0,1-.29,0A.21.21,0,0,1,17.76,4.68Z"/><path class="cls-5" d="M17.76,5.57a.61.61,0,0,1,.45,0,.58.58,0,0,1,.35.33.53.53,0,0,1,0,.48.62.62,0,0,1-.34.26.64.64,0,0,1-.55,0,.5.5,0,0,1-.18-.22.68.68,0,0,1,0-.33.65.65,0,0,1,.06-.34A.64.64,0,0,1,17.76,5.57Z"/><rect class="cls-1" x="75.97" y="0.04" width="12" height="12"/><path class="cls-3" d="M85.76,5.66c-.71.28-2.51.72-2.75.1s1.42-1.62,2.13-1.89,1.53-.26,1.78.36S86.47,5.39,85.76,5.66Z"/><path class="cls-3" d="M82.41,10c-.28-.71-.72-2.51-.1-2.75s1.62,1.42,1.9,2.13.25,1.53-.37,1.77S82.69,10.72,82.41,10Z"/><path class="cls-3" d="M78.07,6.63c.71-.28,2.51-.72,2.76-.1S79.4,8.15,78.7,8.42s-1.54.26-1.78-.36S77.37,6.91,78.07,6.63Z"/><path class="cls-3" d="M81.42,2.27c.28.71.72,2.51.1,2.75S79.9,3.6,79.63,2.89s-.26-1.53.36-1.77S81.14,1.57,81.42,2.27Z"/><path class="cls-2" d="M84.31,3c-.3.7-1.26,2.29-1.87,2s-.15-2.15.16-2.84.9-1.27,1.51-1S84.61,2.35,84.31,3Z"/><path class="cls-2" d="M85,8.49c-.69-.3-2.28-1.26-2-1.87s2.15-.15,2.85.16,1.27.9,1,1.51S85.73,8.79,85,8.49Z"/><path class="cls-2" d="M79.57,9.17c.31-.69,1.26-2.28,1.88-2s.14,2.15-.16,2.85-.9,1.27-1.52,1S79.27,9.87,79.57,9.17Z"/><path class="cls-2" d="M78.85,3.73c.69.3,2.28,1.26,2,1.87s-2.14.14-2.84-.16-1.27-.9-1-1.51S78.15,3.43,78.85,3.73Z"/><path class="cls-4" d="M83.14,4.8a1.16,1.16,0,0,0,.17-.29,1.66,1.66,0,0,0,.12-.61,7.72,7.72,0,0,1,0-1A.92.92,0,0,1,84,2.23c.2,0,.26.09.64.06A.65.65,0,0,0,85,2.17c.11-.11.11-.21.2-.24s.28.12.32.3,0,.22,0,.48a3.48,3.48,0,0,0,0,.55,2.13,2.13,0,0,1-.25,1,1.63,1.63,0,0,1-1.58.9.19.19,0,0,0-.19,0c-.06,0-.06.07-.11.09A.22.22,0,0,1,83.12,5,.37.37,0,0,1,83.14,4.8Z"/><path class="cls-4" d="M83.65,5.92a1.6,1.6,0,0,0,.32,0,1.54,1.54,0,0,0,.53-.26c.59-.39.56-.48.8-.57a.84.84,0,0,1,.82,0c.15.12.08.24.31.51s.26.21.31.21.22,0,.29,0,.06.27,0,.41-.18.12-.4.24a2.69,2.69,0,0,0-.42.31,2.14,2.14,0,0,1-.88.36,1.5,1.5,0,0,1-1.57-.67.18.18,0,0,0-.09-.16c-.05,0-.08,0-.13,0s-.08-.18,0-.28A.29.29,0,0,1,83.65,5.92Z"/><path class="cls-4" d="M83.14,7.06a1.1,1.1,0,0,0,.8.36c.66.06.68-.06.91,0a1,1,0,0,1,.57.67c0,.24-.09.3-.07.74a.82.82,0,0,0,.1.44c.1.13.19.13.21.24a.39.39,0,0,1-.27.36c-.13,0-.2,0-.43-.07a2,2,0,0,0-.49,0,1.59,1.59,0,0,1-.84-.31,2.08,2.08,0,0,1-.77-1.84.27.27,0,0,0,0-.22c0-.06-.06-.06-.08-.12A.24.24,0,0,1,83,7.05.22.22,0,0,1,83.14,7.06Z"/><path class="cls-4" d="M82.12,7.68a1.25,1.25,0,0,0,0,.36,1.39,1.39,0,0,0,.3.55c.45.58.56.52.66.78a1,1,0,0,1-.08.94c-.15.2-.3.14-.62.47a.78.78,0,0,0-.26.4c0,.17,0,.25,0,.34a.41.41,0,0,1-.49.05c-.13-.08-.13-.19-.27-.41a3.16,3.16,0,0,0-.36-.41,1.9,1.9,0,0,1-.4-.91,2.1,2.1,0,0,1,.84-1.95.27.27,0,0,0,.18-.14c0-.06,0-.1,0-.15A.27.27,0,0,1,82,7.52.3.3,0,0,1,82.12,7.68Z"/><path class="cls-4" d="M80.89,7.26a1,1,0,0,0-.2.28,1.21,1.21,0,0,0-.13.57c0,.68.11.7,0,.94a1,1,0,0,1-.68.63c-.24.05-.32-.07-.78,0a.76.76,0,0,0-.46.14c-.14.1-.13.2-.24.23A.42.42,0,0,1,78,9.77c0-.13,0-.21,0-.45a2,2,0,0,0,0-.51,1.62,1.62,0,0,1,.27-.89A2.25,2.25,0,0,1,80.22,7a.32.32,0,0,0,.23,0c.07,0,.07-.07.13-.09a.26.26,0,0,1,.31.14A.21.21,0,0,1,80.89,7.26Z"/><path class="cls-4" d="M80.47,6.35a1.43,1.43,0,0,0-.33,0,1.65,1.65,0,0,0-.53.27c-.55.42-.51.52-.74.61A.92.92,0,0,1,78,7.17c-.18-.14-.12-.27-.41-.58a.78.78,0,0,0-.36-.25c-.16,0-.24,0-.32,0a.4.4,0,0,1,0-.46c.08-.12.18-.12.39-.25a2.3,2.3,0,0,0,.39-.33,1.89,1.89,0,0,1,.87-.36,1.92,1.92,0,0,1,1.78.8.26.26,0,0,0,.11.18c.06,0,.1,0,.15,0a.25.25,0,0,1,.05.32A.23.23,0,0,1,80.47,6.35Z"/><path class="cls-4" d="M80.53,5.14a1.18,1.18,0,0,0-.28-.24,1.42,1.42,0,0,0-.61-.2c-.74-.13-.79,0-1-.13a1,1,0,0,1-.6-.75c0-.25.13-.3.14-.76a.84.84,0,0,0-.08-.48c-.09-.14-.2-.15-.22-.26S78,2,78.18,2s.23,0,.49.11a3.15,3.15,0,0,0,.56.06,1.93,1.93,0,0,1,.94.4,2.07,2.07,0,0,1,.73,2,.26.26,0,0,0-.05.22c0,.07.07.08.08.14a.26.26,0,0,1-.21.28A.29.29,0,0,1,80.53,5.14Z"/><path class="cls-4" d="M81.66,4.52a1.34,1.34,0,0,0,0-.36,1.57,1.57,0,0,0-.3-.59c-.45-.64-.56-.6-.66-.86a1,1,0,0,1,.08-.95c.15-.19.29-.11.62-.41A.73.73,0,0,0,81.62,1c0-.16,0-.25,0-.33a.39.39,0,0,1,.49,0c.13.09.13.2.27.43a3.36,3.36,0,0,0,.36.46,2,2,0,0,1,.4,1,1.89,1.89,0,0,1-.83,1.88s-.14,0-.18.11,0,.11,0,.16a.25.25,0,0,1-.34,0A.24.24,0,0,1,81.66,4.52Z"/><path class="cls-5" d="M81.66,5.58a.73.73,0,0,1,.54,0,.69.69,0,0,1,.41.4.65.65,0,0,1,0,.57.67.67,0,0,1-.39.3.75.75,0,0,1-.66,0,.57.57,0,0,1-.22-.26.92.92,0,0,1,0-.39.83.83,0,0,1,.08-.4A.6.6,0,0,1,81.66,5.58Z"/><rect class="cls-1" x="88" y="12" width="12" height="12"/><path class="cls-3" d="M97.79,17.62c-.71.28-2.51.72-2.75.1s1.42-1.61,2.13-1.89,1.53-.26,1.78.36S98.5,17.35,97.79,17.62Z"/><path class="cls-3" d="M94.44,22c-.27-.71-.72-2.51-.1-2.75s1.62,1.42,1.9,2.13.26,1.53-.37,1.77S94.72,22.68,94.44,22Z"/><path class="cls-3" d="M90.11,18.59c.7-.28,2.5-.72,2.75-.1s-1.43,1.62-2.13,1.9S89.19,20.64,89,20,89.4,18.87,90.11,18.59Z"/><path class="cls-3" d="M93.45,14.23c.28.71.72,2.51.1,2.75s-1.62-1.42-1.89-2.12-.26-1.54.36-1.78S93.18,13.53,93.45,14.23Z"/><path class="cls-2" d="M96.34,15c-.3.7-1.26,2.29-1.87,2s-.14-2.14.16-2.84.9-1.27,1.51-1S96.64,14.31,96.34,15Z"/><path class="cls-2" d="M97.06,20.45c-.69-.3-2.28-1.26-2-1.87s2.14-.14,2.84.16,1.27.9,1,1.51S97.76,20.75,97.06,20.45Z"/><path class="cls-2" d="M91.61,21.13c.3-.69,1.25-2.28,1.87-2s.14,2.14-.16,2.84-.9,1.27-1.52,1S91.3,21.83,91.61,21.13Z"/><path class="cls-2" d="M90.88,15.69c.69.3,2.28,1.26,2,1.87s-2.15.14-2.85-.16-1.27-.9-1-1.51S90.18,15.39,90.88,15.69Z"/><path class="cls-4" d="M95.17,16.77a1.51,1.51,0,0,0,.17-.3,1.66,1.66,0,0,0,.12-.61,7.72,7.72,0,0,1,0-1,.92.92,0,0,1,.57-.65c.2,0,.26.09.64.06a.58.58,0,0,0,.38-.12c.11-.11.11-.21.2-.24s.28.12.32.3,0,.22,0,.48a5.34,5.34,0,0,0,0,.55,2.13,2.13,0,0,1-.25,1,1.63,1.63,0,0,1-1.58.9.19.19,0,0,0-.19,0c-.06,0-.06.07-.11.09a.22.22,0,0,1-.25-.17A.31.31,0,0,1,95.17,16.77Z"/><path class="cls-4" d="M95.68,17.88a1.6,1.6,0,0,0,.32,0,1.54,1.54,0,0,0,.53-.26c.6-.39.57-.48.81-.57a.83.83,0,0,1,.81,0c.15.12.08.24.31.51a.57.57,0,0,0,.31.22c.14,0,.22,0,.29,0s.07.27,0,.41-.19.12-.41.24a3.54,3.54,0,0,0-.42.31,2.14,2.14,0,0,1-.88.36,1.5,1.5,0,0,1-1.57-.67.19.19,0,0,0-.08-.16c-.06,0-.09,0-.13,0a.21.21,0,0,1,0-.29A.33.33,0,0,1,95.68,17.88Z"/><path class="cls-4" d="M95.17,19a1.23,1.23,0,0,0,.26.21,1.26,1.26,0,0,0,.54.15c.66.06.69-.06.91,0a.91.91,0,0,1,.57.66c0,.24-.09.3-.07.74,0,.29.07.4.11.44s.18.14.2.24-.11.31-.27.36-.2,0-.43-.06a1.67,1.67,0,0,0-.49,0,1.59,1.59,0,0,1-.84-.31,2,2,0,0,1-.76-1.84.31.31,0,0,0,0-.21c0-.07-.06-.07-.08-.13A.25.25,0,0,1,95,19,.22.22,0,0,1,95.17,19Z"/><path class="cls-4" d="M94.15,19.64a1.23,1.23,0,0,0,0,.36,1.39,1.39,0,0,0,.3.55c.45.58.56.52.66.78a1,1,0,0,1-.08.94c-.15.2-.3.14-.62.47a.78.78,0,0,0-.26.4c0,.17,0,.25,0,.34a.41.41,0,0,1-.49.05c-.13-.08-.13-.19-.27-.41a2.56,2.56,0,0,0-.36-.41,1.86,1.86,0,0,1-.4-.91,2.1,2.1,0,0,1,.84-1.95.3.3,0,0,0,.19-.14c0-.06,0-.1,0-.15a.26.26,0,0,1,.34-.07A.25.25,0,0,1,94.15,19.64Z"/><path class="cls-4" d="M92.92,19.22a1,1,0,0,0-.2.28,1.2,1.2,0,0,0-.12.57c0,.68.1.7,0,.94a1,1,0,0,1-.67.63c-.25.05-.33-.07-.79,0a1,1,0,0,0-.46.14c-.13.1-.13.2-.24.23a.42.42,0,0,1-.41-.25c0-.13,0-.21,0-.45a2,2,0,0,0,0-.51,1.7,1.7,0,0,1,.27-.89,2.22,2.22,0,0,1,1.9-.9.44.44,0,0,0,.24,0c.06,0,.06-.07.12-.09a.28.28,0,0,1,.32.14A.25.25,0,0,1,92.92,19.22Z"/><path class="cls-4" d="M92.5,18.31a1.43,1.43,0,0,0-.33,0,1.5,1.5,0,0,0-.52.27c-.56.42-.52.52-.75.61a.94.94,0,0,1-.88-.08c-.18-.15-.12-.28-.41-.59a.89.89,0,0,0-.36-.25c-.16,0-.24,0-.32,0a.4.4,0,0,1,0-.46c.08-.12.18-.12.39-.24a3.91,3.91,0,0,0,.4-.33,1.77,1.77,0,0,1,.86-.37,1.92,1.92,0,0,1,1.78.8.26.26,0,0,0,.11.18c.06,0,.1,0,.15,0a.25.25,0,0,1,.05.32A.23.23,0,0,1,92.5,18.31Z"/><path class="cls-4" d="M92.56,17.1a1.18,1.18,0,0,0-.28-.24,1.42,1.42,0,0,0-.61-.2c-.74-.13-.79,0-1-.13a1,1,0,0,1-.6-.75c0-.25.13-.3.14-.76a.75.75,0,0,0-.08-.48c-.09-.14-.2-.15-.21-.26s.15-.32.33-.36.23,0,.49.11a3.15,3.15,0,0,0,.56.06,1.93,1.93,0,0,1,.94.4,2.07,2.07,0,0,1,.73,2,.26.26,0,0,0-.05.22c0,.07.07.08.08.14a.26.26,0,0,1-.21.29A.38.38,0,0,1,92.56,17.1Z"/><path class="cls-4" d="M93.69,16.48a1.34,1.34,0,0,0,0-.36,1.65,1.65,0,0,0-.3-.59c-.45-.64-.56-.6-.66-.86a1,1,0,0,1,.08-.95c.15-.18.3-.11.62-.41s.25-.32.26-.38,0-.25,0-.33.32-.11.48,0,.13.2.27.43a3.36,3.36,0,0,0,.36.46,2.25,2.25,0,0,1,.41,1,1.91,1.91,0,0,1-.84,1.88.26.26,0,0,0-.18.12c0,.06,0,.1,0,.15a.25.25,0,0,1-.34,0A.28.28,0,0,1,93.69,16.48Z"/><path class="cls-5" d="M93.69,17.54a.73.73,0,0,1,.54,0,.76.76,0,0,1,.42.4.73.73,0,0,1,0,.57.69.69,0,0,1-.4.3.74.74,0,0,1-.66,0,.57.57,0,0,1-.22-.26.92.92,0,0,1,0-.39.83.83,0,0,1,.08-.4A.6.6,0,0,1,93.69,17.54Z"/><rect class="cls-1" x="88" y="76" width="12" height="12"/><path class="cls-3" d="M97.79,81.62c-.7.28-2.5.72-2.75.1s1.43-1.62,2.13-1.89,1.54-.26,1.78.36S98.5,81.35,97.79,81.62Z"/><path class="cls-3" d="M94.45,86c-.28-.71-.72-2.51-.1-2.75s1.61,1.42,1.89,2.13.26,1.53-.36,1.77S94.72,86.68,94.45,86Z"/><path class="cls-3" d="M90.11,82.59c.71-.28,2.51-.72,2.75-.1s-1.42,1.62-2.13,1.89S89.2,84.64,89,84,89.4,82.87,90.11,82.59Z"/><path class="cls-3" d="M93.46,78.23c.27.71.72,2.51.09,2.75s-1.61-1.42-1.89-2.13-.26-1.53.36-1.77S93.18,77.53,93.46,78.23Z"/><path class="cls-2" d="M96.34,79c-.3.7-1.26,2.29-1.87,2s-.14-2.15.16-2.84.9-1.27,1.51-1S96.65,78.31,96.34,79Z"/><path class="cls-2" d="M97.07,84.45c-.7-.3-2.29-1.26-2-1.87s2.15-.15,2.84.16,1.27.9,1,1.51S97.76,84.75,97.07,84.45Z"/><path class="cls-2" d="M91.61,85.13c.3-.69,1.26-2.28,1.87-2s.14,2.14-.16,2.84-.9,1.27-1.51,1S91.31,85.83,91.61,85.13Z"/><path class="cls-2" d="M90.88,79.69c.7.3,2.29,1.26,2,1.87s-2.15.14-2.85-.16-1.27-.9-1-1.51S90.18,79.39,90.88,79.69Z"/><path class="cls-4" d="M95.17,80.77a1.46,1.46,0,0,0,.18-.3,1.89,1.89,0,0,0,.12-.61c0-.73-.06-.77,0-1a.88.88,0,0,1,.57-.65c.2,0,.25.09.63.06a.58.58,0,0,0,.38-.12c.12-.11.12-.21.21-.24s.27.12.32.3,0,.22-.06.48a3.34,3.34,0,0,0,0,.55,2.24,2.24,0,0,1-.26,1,1.62,1.62,0,0,1-1.58.9.19.19,0,0,0-.19,0c-.05,0-.05.07-.1.09a.21.21,0,0,1-.25-.17A.27.27,0,0,1,95.17,80.77Z"/><path class="cls-4" d="M95.68,81.88a1.45,1.45,0,0,0,.32,0,1.69,1.69,0,0,0,.54-.26c.59-.39.56-.48.8-.57a.84.84,0,0,1,.82,0c.15.12.07.24.3.51a.57.57,0,0,0,.31.22c.14,0,.23,0,.29,0s.07.27,0,.41-.19.12-.4.24a3.76,3.76,0,0,0-.43.31,2.17,2.17,0,0,1-.87.36,1.48,1.48,0,0,1-1.57-.67s0-.12-.09-.16-.09,0-.13,0a.19.19,0,0,1,0-.28A.27.27,0,0,1,95.68,81.88Z"/><path class="cls-4" d="M95.18,83a1.14,1.14,0,0,0,.25.21,1.26,1.26,0,0,0,.54.15c.66.06.69-.06.92,0a1,1,0,0,1,.57.67c0,.24-.09.3-.08.74a.84.84,0,0,0,.11.44c.09.13.18.13.2.24a.36.36,0,0,1-.26.36c-.13,0-.2,0-.43-.07a2.05,2.05,0,0,0-.49,0,1.55,1.55,0,0,1-.84-.31,2.05,2.05,0,0,1-.77-1.84.32.32,0,0,0,0-.22c0-.06-.07-.06-.08-.12A.24.24,0,0,1,95,83,.23.23,0,0,1,95.18,83Z"/><path class="cls-4" d="M94.15,83.64a1.34,1.34,0,0,0,0,.36,1.52,1.52,0,0,0,.29.55c.45.58.56.52.67.78a1,1,0,0,1-.09.94c-.15.2-.29.14-.62.47a.78.78,0,0,0-.26.4c0,.17,0,.25,0,.34a.4.4,0,0,1-.48,0c-.13-.08-.13-.19-.27-.41a3.16,3.16,0,0,0-.36-.41,2,2,0,0,1-.41-.91,2.1,2.1,0,0,1,.84-2,.3.3,0,0,0,.19-.14c0-.06,0-.1,0-.15a.26.26,0,0,1,.34-.08A.32.32,0,0,1,94.15,83.64Z"/><path class="cls-4" d="M92.92,83.22a1.13,1.13,0,0,0-.32.85c0,.68.1.7,0,.94a1,1,0,0,1-.67.63c-.25,0-.32-.07-.79,0a1,1,0,0,0-.46.14c-.13.1-.13.2-.24.23a.4.4,0,0,1-.4-.25c-.06-.13,0-.21,0-.45a2,2,0,0,0,0-.51,1.81,1.81,0,0,1,.27-.89A2.27,2.27,0,0,1,92.26,83a.32.32,0,0,0,.23,0c.07,0,.07-.07.13-.09a.26.26,0,0,1,.31.14A.25.25,0,0,1,92.92,83.22Z"/><path class="cls-4" d="M92.51,82.31a1.55,1.55,0,0,0-.34,0,1.6,1.6,0,0,0-.52.27c-.56.42-.51.52-.75.61a.92.92,0,0,1-.88-.09c-.17-.14-.11-.27-.41-.58a.83.83,0,0,0-.36-.25c-.15,0-.23,0-.31,0a.37.37,0,0,1,0-.46c.07-.12.17-.12.38-.25a2,2,0,0,0,.4-.33,1.87,1.87,0,0,1,.86-.36,1.9,1.9,0,0,1,1.78.8.28.28,0,0,0,.12.18c.06,0,.09,0,.14,0a.25.25,0,0,1,.05.32A.21.21,0,0,1,92.51,82.31Z"/><path class="cls-4" d="M92.56,81.1a.94.94,0,0,0-.27-.24,1.46,1.46,0,0,0-.61-.2c-.75-.13-.79,0-1.05-.13a1,1,0,0,1-.59-.75c0-.25.12-.3.14-.76a.73.73,0,0,0-.09-.48c-.09-.14-.2-.15-.21-.26s.15-.32.34-.36.22,0,.48.11a3.25,3.25,0,0,0,.56.06,2,2,0,0,1,.95.4,2.08,2.08,0,0,1,.72,2,.3.3,0,0,0-.05.22c0,.07.07.08.09.14a.26.26,0,0,1-.21.28A.35.35,0,0,1,92.56,81.1Z"/><path class="cls-4" d="M93.69,80.48a1.34,1.34,0,0,0,0-.36,1.63,1.63,0,0,0-.29-.59c-.46-.64-.56-.6-.67-.86a1.05,1.05,0,0,1,.08-1c.16-.19.3-.11.62-.41s.25-.32.26-.38,0-.25,0-.33.32-.11.48,0,.14.2.28.43a2.73,2.73,0,0,0,.36.46,2.15,2.15,0,0,1,.4,1,1.91,1.91,0,0,1-.83,1.88.26.26,0,0,0-.19.12c0,.06,0,.1,0,.15a.25.25,0,0,1-.34,0A.31.31,0,0,1,93.69,80.48Z"/><path class="cls-5" d="M93.7,81.54a.7.7,0,0,1,.53,0,.76.76,0,0,1,.42.4.65.65,0,0,1,0,.57.69.69,0,0,1-.4.3.72.72,0,0,1-.65,0,.57.57,0,0,1-.22-.26.78.78,0,0,1,0-.39.73.73,0,0,1,.08-.4A.6.6,0,0,1,93.7,81.54Z"/><rect class="cls-1" x="76" y="88" width="12" height="12"/><path class="cls-3" d="M85.79,93.62c-.7.28-2.5.72-2.75.1s1.43-1.62,2.13-1.89,1.54-.26,1.78.36S86.5,93.35,85.79,93.62Z"/><path class="cls-3" d="M82.45,98c-.28-.71-.72-2.51-.1-2.75s1.61,1.42,1.89,2.13.26,1.53-.36,1.77S82.72,98.68,82.45,98Z"/><path class="cls-3" d="M78.11,94.59c.71-.28,2.51-.72,2.75-.1s-1.42,1.62-2.13,1.89S77.2,96.64,77,96,77.4,94.87,78.11,94.59Z"/><path class="cls-3" d="M81.46,90.23c.27.71.72,2.51.09,2.75s-1.61-1.42-1.89-2.13-.26-1.53.36-1.77S81.18,89.53,81.46,90.23Z"/><path class="cls-2" d="M84.34,91c-.3.7-1.26,2.29-1.87,2s-.14-2.15.16-2.84.9-1.27,1.51-1S84.65,90.31,84.34,91Z"/><path class="cls-2" d="M85.07,96.45c-.7-.3-2.29-1.26-2-1.87s2.15-.15,2.84.16,1.27.9,1,1.51S85.76,96.75,85.07,96.45Z"/><path class="cls-2" d="M79.61,97.13c.3-.69,1.26-2.28,1.87-2s.14,2.14-.16,2.84-.9,1.27-1.51,1S79.31,97.83,79.61,97.13Z"/><path class="cls-2" d="M78.88,91.69c.7.3,2.29,1.26,2,1.87s-2.15.14-2.85-.16-1.27-.9-1-1.51S78.18,91.39,78.88,91.69Z"/><path class="cls-4" d="M83.17,92.77a1.46,1.46,0,0,0,.18-.3,1.89,1.89,0,0,0,.12-.61c0-.73-.06-.77,0-1a.88.88,0,0,1,.57-.65c.2,0,.25.09.63.06a.58.58,0,0,0,.38-.12c.12-.11.12-.21.21-.24s.27.12.32.3,0,.22-.06.48a3.34,3.34,0,0,0,0,.55,2.24,2.24,0,0,1-.26,1,1.62,1.62,0,0,1-1.58.9.19.19,0,0,0-.19,0c-.05,0-.05.07-.1.09a.21.21,0,0,1-.25-.17A.27.27,0,0,1,83.17,92.77Z"/><path class="cls-4" d="M83.68,93.88a1.45,1.45,0,0,0,.32,0,1.69,1.69,0,0,0,.54-.26c.59-.39.56-.48.8-.57a.84.84,0,0,1,.82,0c.15.12.07.24.3.51a.57.57,0,0,0,.31.22c.14,0,.23,0,.29,0s.07.27,0,.41-.19.12-.4.24a3.76,3.76,0,0,0-.43.31,2.17,2.17,0,0,1-.87.36,1.48,1.48,0,0,1-1.57-.67s0-.12-.09-.16-.09,0-.13,0a.19.19,0,0,1,0-.28A.27.27,0,0,1,83.68,93.88Z"/><path class="cls-4" d="M83.18,95a1.14,1.14,0,0,0,.25.21,1.26,1.26,0,0,0,.54.15c.66.06.69-.06.92,0a1,1,0,0,1,.57.67c0,.24-.09.3-.08.74a.84.84,0,0,0,.11.44c.09.13.18.13.2.24a.36.36,0,0,1-.26.36c-.13,0-.2,0-.43-.07a2.05,2.05,0,0,0-.49,0,1.55,1.55,0,0,1-.84-.31,2.05,2.05,0,0,1-.77-1.84.32.32,0,0,0,0-.22c0-.06-.07-.06-.08-.12A.24.24,0,0,1,83,95,.23.23,0,0,1,83.18,95Z"/><path class="cls-4" d="M82.15,95.64a1.34,1.34,0,0,0,0,.36,1.52,1.52,0,0,0,.29.55c.45.58.56.52.67.78a1,1,0,0,1-.09.94c-.15.2-.29.14-.62.47a.78.78,0,0,0-.26.4c0,.17,0,.25,0,.34a.4.4,0,0,1-.48,0c-.13-.08-.13-.19-.27-.41a3.16,3.16,0,0,0-.36-.41,2,2,0,0,1-.41-.91,2.1,2.1,0,0,1,.84-2,.3.3,0,0,0,.19-.14c0-.06,0-.1,0-.15a.26.26,0,0,1,.34-.08A.32.32,0,0,1,82.15,95.64Z"/><path class="cls-4" d="M80.92,95.22a1.13,1.13,0,0,0-.32.85c0,.68.1.7,0,.94a1,1,0,0,1-.67.63c-.25,0-.32-.07-.79,0a1,1,0,0,0-.46.14c-.13.1-.13.2-.24.23a.4.4,0,0,1-.4-.25c-.06-.13,0-.21,0-.45a2,2,0,0,0,0-.51,1.81,1.81,0,0,1,.27-.89A2.27,2.27,0,0,1,80.26,95a.32.32,0,0,0,.23,0c.07,0,.07-.07.13-.09a.26.26,0,0,1,.31.14A.25.25,0,0,1,80.92,95.22Z"/><path class="cls-4" d="M80.51,94.31a1.55,1.55,0,0,0-.34,0,1.6,1.6,0,0,0-.52.27c-.56.42-.51.52-.75.61a.92.92,0,0,1-.88-.09c-.17-.14-.11-.27-.41-.58a.83.83,0,0,0-.36-.25c-.15,0-.23,0-.31,0a.37.37,0,0,1,0-.46c.07-.12.17-.12.38-.25a2,2,0,0,0,.4-.33,1.87,1.87,0,0,1,.86-.36,1.9,1.9,0,0,1,1.78.8.28.28,0,0,0,.12.18c.06,0,.09,0,.14,0a.25.25,0,0,1,.05.32A.21.21,0,0,1,80.51,94.31Z"/><path class="cls-4" d="M80.56,93.1a.94.94,0,0,0-.27-.24,1.46,1.46,0,0,0-.61-.2c-.75-.13-.79,0-1.05-.13a1,1,0,0,1-.59-.75c0-.25.12-.3.14-.76a.73.73,0,0,0-.09-.48c-.09-.14-.2-.15-.21-.26s.15-.32.34-.36.22,0,.48.11a3.25,3.25,0,0,0,.56.06,2,2,0,0,1,.95.4,2.08,2.08,0,0,1,.72,2,.3.3,0,0,0-.05.22c0,.07.07.08.09.14a.26.26,0,0,1-.21.28A.35.35,0,0,1,80.56,93.1Z"/><path class="cls-4" d="M81.69,92.48a1.34,1.34,0,0,0,0-.36,1.63,1.63,0,0,0-.29-.59c-.46-.64-.56-.6-.67-.86a1.05,1.05,0,0,1,.08-1c.16-.19.3-.11.62-.41s.25-.32.26-.38,0-.25,0-.33.32-.11.48,0,.14.2.28.43a2.73,2.73,0,0,0,.36.46,2.15,2.15,0,0,1,.4,1,1.91,1.91,0,0,1-.83,1.88.26.26,0,0,0-.19.12c0,.06,0,.1,0,.15a.25.25,0,0,1-.34,0A.31.31,0,0,1,81.69,92.48Z"/><path class="cls-5" d="M81.7,93.54a.7.7,0,0,1,.53,0,.76.76,0,0,1,.42.4.65.65,0,0,1,0,.57.69.69,0,0,1-.4.3.72.72,0,0,1-.65,0,.57.57,0,0,1-.22-.26.78.78,0,0,1,0-.39.73.73,0,0,1,.08-.4A.6.6,0,0,1,81.7,93.54Z"/><rect class="cls-1" x="12" y="88" width="12" height="12"/><path class="cls-3" d="M21.79,93.62c-.7.28-2.5.72-2.75.1s1.43-1.62,2.13-1.89,1.54-.26,1.78.36S22.5,93.35,21.79,93.62Z"/><path class="cls-3" d="M18.45,98c-.28-.71-.72-2.51-.1-2.75s1.61,1.42,1.89,2.13.26,1.53-.36,1.77S18.72,98.68,18.45,98Z"/><path class="cls-3" d="M14.11,94.59c.71-.28,2.51-.72,2.75-.1s-1.42,1.62-2.13,1.89S13.2,96.64,13,96,13.4,94.87,14.11,94.59Z"/><path class="cls-3" d="M17.46,90.23c.27.71.72,2.51.09,2.75s-1.61-1.42-1.89-2.13-.26-1.53.36-1.77S17.18,89.53,17.46,90.23Z"/><path class="cls-2" d="M20.34,91c-.3.7-1.26,2.29-1.87,2s-.14-2.15.16-2.84.9-1.27,1.51-1S20.65,90.31,20.34,91Z"/><path class="cls-2" d="M21.07,96.45c-.7-.3-2.29-1.26-2-1.87s2.15-.15,2.84.16,1.27.9,1,1.51S21.76,96.75,21.07,96.45Z"/><path class="cls-2" d="M15.61,97.13c.3-.69,1.26-2.28,1.87-2s.14,2.14-.16,2.84-.9,1.27-1.51,1S15.31,97.83,15.61,97.13Z"/><path class="cls-2" d="M14.88,91.69c.7.3,2.29,1.26,2,1.87s-2.15.14-2.85-.16-1.27-.9-1-1.51S14.18,91.39,14.88,91.69Z"/><path class="cls-4" d="M19.17,92.77a1.46,1.46,0,0,0,.18-.3,1.89,1.89,0,0,0,.12-.61c0-.73-.06-.77,0-1a.88.88,0,0,1,.57-.65c.2,0,.25.09.63.06a.58.58,0,0,0,.38-.12c.12-.11.12-.21.21-.24s.27.12.32.3,0,.22-.06.48a3.34,3.34,0,0,0,0,.55,2.24,2.24,0,0,1-.26,1,1.62,1.62,0,0,1-1.58.9.19.19,0,0,0-.19,0c-.05,0-.05.07-.1.09a.21.21,0,0,1-.25-.17A.27.27,0,0,1,19.17,92.77Z"/><path class="cls-4" d="M19.68,93.88a1.45,1.45,0,0,0,.32,0,1.69,1.69,0,0,0,.54-.26c.59-.39.56-.48.8-.57a.84.84,0,0,1,.82,0c.15.12.07.24.3.51a.57.57,0,0,0,.31.22c.14,0,.23,0,.29,0s.07.27,0,.41-.19.12-.4.24a3.76,3.76,0,0,0-.43.31,2.17,2.17,0,0,1-.87.36,1.48,1.48,0,0,1-1.57-.67s0-.12-.09-.16-.09,0-.13,0a.19.19,0,0,1,0-.28A.27.27,0,0,1,19.68,93.88Z"/><path class="cls-4" d="M19.18,95a1.14,1.14,0,0,0,.25.21,1.26,1.26,0,0,0,.54.15c.66.06.69-.06.92,0a1,1,0,0,1,.57.67c0,.24-.09.3-.08.74a.84.84,0,0,0,.11.44c.09.13.18.13.2.24a.36.36,0,0,1-.26.36c-.13,0-.2,0-.43-.07a2.05,2.05,0,0,0-.49,0,1.55,1.55,0,0,1-.84-.31,2.05,2.05,0,0,1-.77-1.84.32.32,0,0,0,0-.22c0-.06-.07-.06-.08-.12A.24.24,0,0,1,19,95,.23.23,0,0,1,19.18,95Z"/><path class="cls-4" d="M18.15,95.64a1.34,1.34,0,0,0,0,.36,1.52,1.52,0,0,0,.29.55c.45.58.56.52.67.78a1,1,0,0,1-.09.94c-.15.2-.29.14-.62.47a.78.78,0,0,0-.26.4c0,.17,0,.25,0,.34a.4.4,0,0,1-.48,0c-.13-.08-.13-.19-.27-.41a3.16,3.16,0,0,0-.36-.41,2,2,0,0,1-.41-.91,2.1,2.1,0,0,1,.84-2,.3.3,0,0,0,.19-.14c0-.06,0-.1,0-.15a.26.26,0,0,1,.34-.08A.32.32,0,0,1,18.15,95.64Z"/><path class="cls-4" d="M16.92,95.22a1.13,1.13,0,0,0-.32.85c0,.68.1.7,0,.94a1,1,0,0,1-.67.63c-.25,0-.32-.07-.79,0a1,1,0,0,0-.46.14c-.13.1-.13.2-.24.23a.4.4,0,0,1-.4-.25c-.06-.13,0-.21,0-.45a2,2,0,0,0,0-.51,1.81,1.81,0,0,1,.27-.89A2.27,2.27,0,0,1,16.26,95a.32.32,0,0,0,.23,0c.07,0,.07-.07.13-.09a.26.26,0,0,1,.31.14A.25.25,0,0,1,16.92,95.22Z"/><path class="cls-4" d="M16.51,94.31a1.55,1.55,0,0,0-.34,0,1.6,1.6,0,0,0-.52.27c-.56.42-.51.52-.75.61a.92.92,0,0,1-.88-.09c-.17-.14-.11-.27-.41-.58a.83.83,0,0,0-.36-.25c-.15,0-.23,0-.31,0a.37.37,0,0,1,0-.46c.07-.12.17-.12.38-.25a2,2,0,0,0,.4-.33,1.87,1.87,0,0,1,.86-.36,1.9,1.9,0,0,1,1.78.8.28.28,0,0,0,.12.18c.06,0,.09,0,.14,0a.25.25,0,0,1,0,.32A.21.21,0,0,1,16.51,94.31Z"/><path class="cls-4" d="M16.56,93.1a.94.94,0,0,0-.27-.24,1.46,1.46,0,0,0-.61-.2c-.75-.13-.79,0-1-.13a1,1,0,0,1-.59-.75c0-.25.12-.3.14-.76a.73.73,0,0,0-.09-.48c-.09-.14-.2-.15-.21-.26s.15-.32.34-.36.22,0,.48.11a3.25,3.25,0,0,0,.56.06,2,2,0,0,1,1,.4,2.08,2.08,0,0,1,.72,2,.3.3,0,0,0-.05.22c0,.07.07.08.09.14a.26.26,0,0,1-.21.28A.35.35,0,0,1,16.56,93.1Z"/><path class="cls-4" d="M17.69,92.48a1.34,1.34,0,0,0,0-.36,1.63,1.63,0,0,0-.29-.59c-.46-.64-.56-.6-.67-.86a1.05,1.05,0,0,1,.08-1c.16-.19.3-.11.62-.41s.25-.32.26-.38,0-.25,0-.33.32-.11.48,0,.14.2.28.43a2.73,2.73,0,0,0,.36.46,2.15,2.15,0,0,1,.4,1,1.91,1.91,0,0,1-.83,1.88.26.26,0,0,0-.19.12c0,.06,0,.1,0,.15a.25.25,0,0,1-.34,0A.31.31,0,0,1,17.69,92.48Z"/><path class="cls-5" d="M17.7,93.54a.7.7,0,0,1,.53,0,.76.76,0,0,1,.42.4.65.65,0,0,1,0,.57.69.69,0,0,1-.4.3.72.72,0,0,1-.65,0,.57.57,0,0,1-.22-.26.78.78,0,0,1,0-.39.73.73,0,0,1,.08-.4A.6.6,0,0,1,17.7,93.54Z"/><rect class="cls-1" y="76" width="12" height="12"/><path class="cls-3" d="M9.79,81.62c-.71.28-2.51.72-2.75.1s1.42-1.61,2.13-1.89,1.53-.26,1.78.36S10.5,81.35,9.79,81.62Z"/><path class="cls-3" d="M6.44,86c-.27-.71-.72-2.51-.1-2.75S8,84.65,8.24,85.36s.26,1.53-.37,1.77S6.72,86.68,6.44,86Z"/><path class="cls-3" d="M2.11,82.59c.7-.28,2.5-.72,2.75-.1s-1.43,1.62-2.13,1.9S1.19,84.64,1,84,1.4,82.87,2.11,82.59Z"/><path class="cls-3" d="M5.45,78.23c.28.71.72,2.51.1,2.76s-1.62-1.43-1.89-2.13S3.4,77.32,4,77.08,5.18,77.53,5.45,78.23Z"/><path class="cls-2" d="M8.34,79c-.3.7-1.26,2.29-1.87,2s-.14-2.14.16-2.84.9-1.27,1.51-1S8.64,78.31,8.34,79Z"/><path class="cls-2" d="M9.06,84.45c-.69-.3-2.28-1.26-2-1.87s2.14-.14,2.84.16,1.27.9,1,1.51S9.76,84.75,9.06,84.45Z"/><path class="cls-2" d="M3.61,85.13c.3-.69,1.25-2.28,1.87-2s.14,2.14-.16,2.84-.9,1.27-1.52,1S3.3,85.83,3.61,85.13Z"/><path class="cls-2" d="M2.88,79.69c.69.3,2.28,1.26,2,1.87s-2.15.14-2.85-.16-1.27-.9-1-1.51S2.18,79.39,2.88,79.69Z"/><path class="cls-4" d="M7.17,80.77a1.51,1.51,0,0,0,.17-.3,1.66,1.66,0,0,0,.12-.61,7.72,7.72,0,0,1,0-1,.94.94,0,0,1,.57-.65c.2,0,.26.09.64.06a.58.58,0,0,0,.38-.12c.11-.11.11-.21.2-.24s.28.12.32.3,0,.22-.05.48a5.34,5.34,0,0,0,0,.55,2.09,2.09,0,0,1-.25,1,1.63,1.63,0,0,1-1.58.9s-.11-.07-.19,0-.06.07-.11.09A.22.22,0,0,1,7.15,81,.31.31,0,0,1,7.17,80.77Z"/><path class="cls-4" d="M7.68,81.88a1.09,1.09,0,0,0,.32,0,1.54,1.54,0,0,0,.53-.26c.6-.39.57-.48.81-.57a.83.83,0,0,1,.81,0c.15.12.08.24.31.51a.57.57,0,0,0,.31.22c.14,0,.22,0,.29,0s.07.27,0,.41-.19.12-.41.24a3.54,3.54,0,0,0-.42.31,2.14,2.14,0,0,1-.88.36,1.5,1.5,0,0,1-1.57-.67.19.19,0,0,0-.08-.16c-.06,0-.09,0-.13,0a.21.21,0,0,1,0-.29A.33.33,0,0,1,7.68,81.88Z"/><path class="cls-4" d="M7.17,83a1.23,1.23,0,0,0,.26.21,1.26,1.26,0,0,0,.54.15c.66.06.69-.06.91,0a.93.93,0,0,1,.57.66c0,.24-.09.3-.07.74s.07.4.11.44.18.14.2.24-.11.31-.27.36-.2,0-.43-.06a1.67,1.67,0,0,0-.49,0,1.59,1.59,0,0,1-.84-.31,2,2,0,0,1-.76-1.84.31.31,0,0,0,0-.21c0-.07-.06-.07-.08-.13A.26.26,0,0,1,7,83,.22.22,0,0,1,7.17,83Z"/><path class="cls-4" d="M6.15,83.64a1.23,1.23,0,0,0,0,.36,1.39,1.39,0,0,0,.3.55c.45.58.56.52.66.78a1,1,0,0,1-.08.94c-.15.2-.3.14-.62.47a.75.75,0,0,0-.26.41c0,.16,0,.24,0,.33a.41.41,0,0,1-.49,0c-.13-.08-.13-.19-.27-.41A2.56,2.56,0,0,0,5,86.71a1.86,1.86,0,0,1-.4-.91,2.11,2.11,0,0,1,.84-2,.3.3,0,0,0,.19-.14c0-.06,0-.1,0-.15A.26.26,0,0,1,6,83.49.25.25,0,0,1,6.15,83.64Z"/><path class="cls-4" d="M4.92,83.22a1,1,0,0,0-.2.28,1.2,1.2,0,0,0-.12.57c0,.68.1.7,0,.94a1,1,0,0,1-.67.63c-.25,0-.33-.07-.79,0a1,1,0,0,0-.46.14c-.13.1-.13.2-.24.23a.42.42,0,0,1-.41-.25c0-.13,0-.21.05-.45a2,2,0,0,0,0-.51,1.7,1.7,0,0,1,.27-.89,2.22,2.22,0,0,1,1.9-.9.44.44,0,0,0,.24,0c.06,0,.06-.07.12-.09a.28.28,0,0,1,.32.14A.25.25,0,0,1,4.92,83.22Z"/><path class="cls-4" d="M4.5,82.32a.81.81,0,0,0-.33,0,1.34,1.34,0,0,0-.52.26c-.56.42-.52.52-.75.61A.94.94,0,0,1,2,83.14c-.18-.15-.12-.28-.41-.59a.72.72,0,0,0-.36-.24c-.16,0-.24,0-.32,0a.39.39,0,0,1,0-.45c.08-.13.18-.13.39-.25a3.91,3.91,0,0,0,.4-.33,1.77,1.77,0,0,1,.86-.37,1.92,1.92,0,0,1,1.78.8.26.26,0,0,0,.11.18c.06,0,.1,0,.15,0a.25.25,0,0,1,.05.32A.31.31,0,0,1,4.5,82.32Z"/><path class="cls-4" d="M4.56,81.1a1.18,1.18,0,0,0-.28-.24,1.42,1.42,0,0,0-.61-.2c-.74-.13-.79,0-1-.13a1,1,0,0,1-.6-.75c0-.25.13-.3.14-.76a.75.75,0,0,0-.08-.48c-.09-.14-.2-.15-.21-.26s.15-.32.33-.36.23,0,.49.11a2.43,2.43,0,0,0,.56.06,1.93,1.93,0,0,1,.94.4,2.07,2.07,0,0,1,.73,2,.27.27,0,0,0,0,.22c0,.08.07.08.08.14a.26.26,0,0,1-.21.29A.3.3,0,0,1,4.56,81.1Z"/><path class="cls-4" d="M5.69,80.49a1.37,1.37,0,0,0,0-.37,1.65,1.65,0,0,0-.3-.59c-.45-.64-.56-.6-.66-.86a1,1,0,0,1,.08-1c.15-.18.3-.11.62-.41a.66.66,0,0,0,.26-.37c0-.17,0-.26,0-.34s.32-.11.48,0,.13.2.27.43a2.84,2.84,0,0,0,.36.46,2.25,2.25,0,0,1,.41,1,1.91,1.91,0,0,1-.84,1.88.3.3,0,0,0-.18.12c0,.06,0,.1,0,.15a.25.25,0,0,1-.34,0A.3.3,0,0,1,5.69,80.49Z"/><path class="cls-5" d="M5.69,81.54a.73.73,0,0,1,.54,0,.76.76,0,0,1,.42.4.73.73,0,0,1,0,.57.69.69,0,0,1-.4.3.74.74,0,0,1-.66,0,.57.57,0,0,1-.22-.26.9.9,0,0,1,0-.39.86.86,0,0,1,.08-.4A.6.6,0,0,1,5.69,81.54Z"/><rect class="cls-1" x="0.06" y="12" width="12" height="12"/><path class="cls-3" d="M9.85,17.62c-.7.28-2.5.72-2.75.1s1.43-1.62,2.13-1.89,1.54-.26,1.78.36S10.56,17.35,9.85,17.62Z"/><path class="cls-3" d="M6.51,22c-.28-.71-.72-2.51-.1-2.75S8,20.65,8.3,21.36s.26,1.53-.36,1.77S6.78,22.68,6.51,22Z"/><path class="cls-3" d="M2.17,18.59c.71-.28,2.51-.72,2.75-.1S3.5,20.11,2.79,20.38,1.26,20.64,1,20,1.46,18.87,2.17,18.59Z"/><path class="cls-3" d="M5.52,14.23c.27.71.72,2.51.09,2.75S4,15.56,3.72,14.85s-.26-1.53.37-1.77S5.24,13.53,5.52,14.23Z"/><path class="cls-2" d="M8.4,15c-.3.7-1.25,2.29-1.87,2s-.14-2.15.16-2.84.9-1.27,1.51-1S8.71,14.31,8.4,15Z"/><path class="cls-2" d="M9.13,20.45c-.7-.3-2.29-1.26-2-1.87s2.15-.15,2.84.16,1.27.9,1,1.51S9.82,20.75,9.13,20.45Z"/><path class="cls-2" d="M3.67,21.13c.3-.69,1.26-2.28,1.87-2s.14,2.14-.16,2.84-.9,1.27-1.51,1S3.37,21.83,3.67,21.13Z"/><path class="cls-2" d="M2.94,15.69c.7.3,2.29,1.26,2,1.87s-2.15.14-2.84-.16-1.28-.9-1-1.51S2.24,15.39,2.94,15.69Z"/><path class="cls-4" d="M7.23,16.77a1.46,1.46,0,0,0,.18-.3,1.89,1.89,0,0,0,.12-.61c0-.73-.06-.77,0-1a.88.88,0,0,1,.57-.65c.2,0,.25.09.63.06a.58.58,0,0,0,.38-.12c.12-.11.12-.21.21-.24s.27.12.32.3,0,.22-.06.48a3.34,3.34,0,0,0,0,.55,2.24,2.24,0,0,1-.26,1,1.62,1.62,0,0,1-1.58.9.19.19,0,0,0-.19,0c-.05,0-.05.07-.1.09A.21.21,0,0,1,7.22,17,.27.27,0,0,1,7.23,16.77Z"/><path class="cls-4" d="M7.74,17.88a1.45,1.45,0,0,0,.32,0,1.69,1.69,0,0,0,.54-.26c.59-.39.56-.48.8-.57a.84.84,0,0,1,.82,0c.15.12.07.24.3.51a.57.57,0,0,0,.31.22c.14,0,.23,0,.29,0s.07.27,0,.41-.19.12-.4.24a3.76,3.76,0,0,0-.43.31,2.17,2.17,0,0,1-.87.36,1.48,1.48,0,0,1-1.57-.67s0-.12-.09-.16-.09,0-.13,0a.19.19,0,0,1,0-.28A.27.27,0,0,1,7.74,17.88Z"/><path class="cls-4" d="M7.24,19a1.14,1.14,0,0,0,.25.21,1.26,1.26,0,0,0,.54.15c.66.06.69-.06.92,0a1,1,0,0,1,.57.67c0,.24-.09.3-.08.74a.84.84,0,0,0,.11.44c.09.13.18.13.2.24a.36.36,0,0,1-.26.36c-.13.05-.2,0-.43-.07a2.05,2.05,0,0,0-.49,0,1.55,1.55,0,0,1-.84-.31A2.05,2.05,0,0,1,7,19.63a.32.32,0,0,0,0-.22c0-.06-.07-.06-.08-.12A.24.24,0,0,1,7.07,19,.23.23,0,0,1,7.24,19Z"/><path class="cls-4" d="M6.21,19.64a1.34,1.34,0,0,0,0,.36,1.52,1.52,0,0,0,.29.55c.46.58.56.52.67.78a1,1,0,0,1-.09.94c-.15.2-.29.14-.62.47a.78.78,0,0,0-.26.4c0,.17,0,.25,0,.34a.4.4,0,0,1-.48.05c-.13-.08-.13-.19-.27-.41a3.16,3.16,0,0,0-.36-.41,2,2,0,0,1-.41-.91,2.12,2.12,0,0,1,.84-1.95.3.3,0,0,0,.19-.14c0-.06,0-.1,0-.15a.26.26,0,0,1,.34-.08A.32.32,0,0,1,6.21,19.64Z"/><path class="cls-4" d="M5,19.22a1.13,1.13,0,0,0-.32.85c0,.68.1.7,0,.94a1,1,0,0,1-.67.63c-.25.05-.32-.07-.79,0a1,1,0,0,0-.46.14c-.13.1-.13.2-.24.23a.4.4,0,0,1-.4-.25c-.06-.13,0-.21,0-.45a2,2,0,0,0,0-.51,1.69,1.69,0,0,1,.28-.89A2.24,2.24,0,0,1,4.32,19a.32.32,0,0,0,.23,0c.07,0,.07-.07.13-.09A.26.26,0,0,1,5,19,.25.25,0,0,1,5,19.22Z"/><path class="cls-4" d="M4.57,18.31a1.55,1.55,0,0,0-.34,0,1.6,1.6,0,0,0-.52.27c-.56.42-.51.52-.75.61a.92.92,0,0,1-.88-.09c-.17-.14-.11-.27-.41-.58a.83.83,0,0,0-.36-.25c-.15,0-.23,0-.31,0a.37.37,0,0,1,0-.46c.07-.12.17-.12.38-.25a2,2,0,0,0,.4-.33,1.87,1.87,0,0,1,.86-.36,1.9,1.9,0,0,1,1.78.8.28.28,0,0,0,.12.18c.06,0,.09,0,.14,0a.25.25,0,0,1,0,.32A.21.21,0,0,1,4.57,18.31Z"/><path class="cls-4" d="M4.62,17.1a.94.94,0,0,0-.27-.24,1.46,1.46,0,0,0-.61-.2c-.75-.13-.79,0-1.05-.13a1,1,0,0,1-.59-.75c0-.25.12-.3.14-.76a.73.73,0,0,0-.09-.48c-.09-.14-.2-.15-.21-.26s.15-.32.34-.36.22,0,.48.11a3.25,3.25,0,0,0,.56.06,2,2,0,0,1,.95.4,2.08,2.08,0,0,1,.72,2,.26.26,0,0,0,0,.22c0,.07.06.08.08.14a.26.26,0,0,1-.21.28A.35.35,0,0,1,4.62,17.1Z"/><path class="cls-4" d="M5.75,16.48a1.34,1.34,0,0,0,0-.36,1.63,1.63,0,0,0-.29-.59c-.46-.64-.56-.6-.67-.86a1.05,1.05,0,0,1,.08-.95c.16-.19.3-.11.62-.41s.25-.32.26-.38,0-.25,0-.33.32-.11.48,0,.14.2.28.43a2.73,2.73,0,0,0,.36.46,2.15,2.15,0,0,1,.4,1,1.91,1.91,0,0,1-.83,1.88.26.26,0,0,0-.19.12c0,.06,0,.1,0,.15a.25.25,0,0,1-.34,0A.31.31,0,0,1,5.75,16.48Z"/><path class="cls-5" d="M5.76,17.54a.7.7,0,0,1,.53,0,.76.76,0,0,1,.42.4.65.65,0,0,1,0,.57.69.69,0,0,1-.4.3.72.72,0,0,1-.65,0,.57.57,0,0,1-.22-.26.78.78,0,0,1,0-.39.73.73,0,0,1,.08-.4A.6.6,0,0,1,5.76,17.54Z"/><path class="cls-2" d="M59.06,3.38a3.2,3.2,0,0,1-.27-.92,3,3,0,0,1,0-.77H57.6V2.93a2.8,2.8,0,0,0,.59.83,1.69,1.69,0,0,0,.87.46v.42H57.89v.63h1.18V5.9H57.9v.42H60V3.38Z"/><path class="cls-2" d="M61,3.38a3.15,3.15,0,0,0,.28-.92,3.54,3.54,0,0,0,0-.77h1.16V2.93a2.68,2.68,0,0,1-.6.83,1.66,1.66,0,0,1-.87.46v.42h1.17v.63H61V5.9h1.17v.42H60V3.38Z"/><path class="cls-2" d="M61,9.26a3,3,0,0,1,.28.91,3.65,3.65,0,0,1,0,.78h1.16V9.71a2.71,2.71,0,0,0-.6-.84A1.82,1.82,0,0,0,61,8.41V8h1.17V7.37H61V6.74h1.17V6.32H60V9.26Z"/><path class="cls-2" d="M59.06,9.26a3,3,0,0,0-.27.91,3.09,3.09,0,0,0,0,.78H57.6V9.71a2.82,2.82,0,0,1,.59-.84,1.87,1.87,0,0,1,.87-.46V8H57.89V7.37h1.18V6.74H57.9V6.32H60V9.26Z"/><path class="cls-2" d="M97,39.05a3,3,0,0,1,.91-.27,3.09,3.09,0,0,1,.78,0V37.59H97.42a2.82,2.82,0,0,0-.84.59,1.87,1.87,0,0,0-.46.87h-.41V37.88h-.63v1.18h-.63V37.89H94V40H97Z"/><path class="cls-2" d="M97,40.94a3,3,0,0,0,.91.28,3.65,3.65,0,0,0,.78,0v1.16H97.42a2.71,2.71,0,0,1-.84-.6,1.82,1.82,0,0,1-.46-.87h-.41v1.17h-.63V40.94h-.63v1.17H94V40H97Z"/><path class="cls-2" d="M91.09,40.94a3.15,3.15,0,0,1-.92.28,3.54,3.54,0,0,1-.77,0v1.16h1.24a2.68,2.68,0,0,0,.83-.6,1.74,1.74,0,0,0,.46-.87h.42v1.17H93V40.94h.63v1.17H94V40H91.09Z"/><path class="cls-2" d="M91.09,39.05a3.2,3.2,0,0,0-.92-.27,3,3,0,0,0-.77,0V37.59h1.24a2.8,2.8,0,0,1,.83.59,1.77,1.77,0,0,1,.46.87h.42V37.88H93v1.18h.63V37.89H94V40H91.09Z"/><path class="cls-2" d="M96.75,59.06a3.32,3.32,0,0,1,.92-.27,3.54,3.54,0,0,1,.77,0V57.6H97.2a3,3,0,0,0-.84.59,1.73,1.73,0,0,0-.45.87h-.42V57.9h-.63v1.17h-.63V57.9h-.42V60h2.94Z"/><path class="cls-2" d="M96.75,61a3.32,3.32,0,0,0,.92.27,3.54,3.54,0,0,0,.77,0v1.16H97.2a3,3,0,0,1-.84-.59,1.73,1.73,0,0,1-.45-.87h-.42v1.16h-.63V61h-.63v1.17h-.42V60h2.94Z"/><path class="cls-2" d="M90.87,61a3.32,3.32,0,0,1-.92.27,3.54,3.54,0,0,1-.77,0v1.16h1.24a2.8,2.8,0,0,0,.83-.59,1.69,1.69,0,0,0,.46-.87h.42v1.16h.63V61h.63v1.17h.42V60H90.87Z"/><path class="cls-2" d="M90.87,59.06a3.32,3.32,0,0,0-.92-.27,3.54,3.54,0,0,0-.77,0V57.6h1.24a2.8,2.8,0,0,1,.83.59,1.69,1.69,0,0,1,.46.87h.42V57.9h.63v1.17h.63V57.9h.42V60H90.87Z"/><path class="cls-2" d="M38.8,90.74a3.46,3.46,0,0,1-.3-1.68H37.34V90.3a2.8,2.8,0,0,0,.59.83,1.77,1.77,0,0,0,.87.46V92H37.64v.63h1.17v.63H37.64v.42h2.11V90.75Z"/><path class="cls-2" d="M40.7,90.74a3.34,3.34,0,0,0,.27-.91,3.54,3.54,0,0,0,0-.77h1.16V90.3a2.8,2.8,0,0,1-.59.83,1.77,1.77,0,0,1-.87.46V92h1.16v.63H40.69v.63h1.17v.42H39.75V90.75Z"/><path class="cls-2" d="M40.7,96.63a3.34,3.34,0,0,1,.27.91,3.61,3.61,0,0,1,0,.78h1.16V97.07a2.8,2.8,0,0,0-.59-.83,1.87,1.87,0,0,0-.87-.46v-.41h1.16v-.63H40.69V94.1h1.17v-.41H39.75v2.94Z"/><path class="cls-2" d="M38.8,96.63a3,3,0,0,0-.27.91,3.07,3.07,0,0,0,0,.78H37.34V97.07a2.8,2.8,0,0,1,.59-.83,1.87,1.87,0,0,1,.87-.46v-.41H37.64v-.63h1.17V94.1H37.64v-.41h2.11v2.94Z"/><path class="cls-2" d="M59,90.74a3.34,3.34,0,0,1-.27-.91,3.54,3.54,0,0,1,0-.77H57.58V90.3a2.8,2.8,0,0,0,.59.83,1.77,1.77,0,0,0,.87.46V92H57.88v.63h1.17v.63H57.88v.42H60V90.75Z"/><path class="cls-2" d="M60.94,90.74a3.46,3.46,0,0,0,.3-1.68H62.4V90.3a2.8,2.8,0,0,1-.59.83,1.77,1.77,0,0,1-.87.46V92H62.1v.63H60.93v.63H62.1v.42H60V90.75Z"/><path class="cls-2" d="M60.94,96.63a3,3,0,0,1,.27.91,3.07,3.07,0,0,1,0,.78H62.4V97.07a2.8,2.8,0,0,0-.59-.83,1.87,1.87,0,0,0-.87-.46v-.41H62.1v-.63H60.93V94.1H62.1v-.41H60v2.94Z"/><path class="cls-2" d="M59,96.63a3.34,3.34,0,0,0-.27.91,3.61,3.61,0,0,0,0,.78H57.58V97.07a2.8,2.8,0,0,1,.59-.83,1.87,1.87,0,0,1,.87-.46v-.41H57.88v-.63h1.17V94.1H57.88v-.41H60v2.94Z"/><path class="cls-2" d="M9,38.84a3,3,0,0,1,.91-.27,3.08,3.08,0,0,1,.78,0V37.38H9.44a2.8,2.8,0,0,0-.83.59,1.87,1.87,0,0,0-.46.87H7.74V37.67H7.11v1.18H6.48V37.68H6.06v2.11H9Z"/><path class="cls-2" d="M9,40.73a3,3,0,0,0,.91.28,3.63,3.63,0,0,0,.78,0V42.2H9.44a2.68,2.68,0,0,1-.83-.6,1.78,1.78,0,0,1-.46-.87H7.74V41.9H7.11V40.73H6.48V41.9H6.06V39.79H9Z"/><path class="cls-2" d="M3.11,40.73A3,3,0,0,1,2.2,41a3.54,3.54,0,0,1-.77,0V42.2H2.67a2.68,2.68,0,0,0,.83-.6A1.7,1.7,0,0,0,4,40.73h.42V41.9H5V40.73h.63V41.9h.42V39.79H3.12Z"/><path class="cls-2" d="M3.11,38.84a3,3,0,0,0-.91-.27,3,3,0,0,0-.77,0V37.38H2.67A2.8,2.8,0,0,1,3.5,38a1.77,1.77,0,0,1,.46.87h.42V37.67H5v1.18h.63V37.68h.42v2.11H3.12Z"/><path class="cls-2" d="M8.78,58.85a3.32,3.32,0,0,1,.92-.27,3.54,3.54,0,0,1,.77,0V57.39H9.23a2.82,2.82,0,0,0-.84.59,1.73,1.73,0,0,0-.45.87H7.52V57.69H6.89v1.17H6.26V57.69H5.84V59.8H8.78Z"/><path class="cls-2" d="M8.78,60.75A3.32,3.32,0,0,0,9.7,61a3.54,3.54,0,0,0,.77,0v1.16H9.23a2.82,2.82,0,0,1-.84-.59,1.73,1.73,0,0,1-.45-.87H7.52v1.16H6.89V60.74H6.26v1.17H5.84V59.8H8.78Z"/><path class="cls-2" d="M2.9,60.75A3.32,3.32,0,0,1,2,61a3.54,3.54,0,0,1-.77,0v1.16H2.45a2.8,2.8,0,0,0,.83-.59,1.69,1.69,0,0,0,.46-.87h.42v1.16h.63V60.74h.63v1.17h.42V59.8H2.9Z"/><path class="cls-2" d="M2.9,58.85A3.32,3.32,0,0,0,2,58.58a3.54,3.54,0,0,0-.77,0V57.39H2.45a2.8,2.8,0,0,1,.83.59,1.69,1.69,0,0,1,.46.87h.42V57.69h.63v1.17h.63V57.69h.42V59.8H2.9Z"/><rect class="cls-2" x="88" y="44.04" width="12" height="12"/><polyline class="cls-3" points="96.26 55.87 94.81 54.42 96.28 52.96"/><polyline class="cls-3" points="96.28 52.96 94.83 51.51 96.3 50.04"/><polyline class="cls-3" points="96.3 50.04 94.85 48.59 96.31 47.13"/><polyline class="cls-3" points="96.31 47.13 94.86 45.68 96.33 44.21"/><polyline class="cls-5" points="97.75 55.87 96.3 54.42 97.77 52.95"/><polyline class="cls-5" points="97.77 52.95 96.32 51.5 97.78 50.04"/><polyline class="cls-5" points="97.78 50.04 96.33 48.59 97.8 47.12"/><polyline class="cls-5" points="97.8 47.12 96.35 45.67 97.81 44.21"/><polyline class="cls-4" points="99.21 55.86 97.76 54.41 99.23 52.95"/><polyline class="cls-4" points="99.23 52.95 97.78 51.5 99.25 50.03"/><polyline class="cls-4" points="99.25 50.03 97.8 48.59 99.26 47.12"/><polyline class="cls-4" points="99.26 47.12 97.81 45.67 99.28 44.2"/><polyline class="cls-3" points="91.55 44.21 93 45.66 91.53 47.12"/><polyline class="cls-3" points="91.53 47.12 92.98 48.57 91.51 50.04"/><polyline class="cls-3" points="91.51 50.04 92.96 51.49 91.5 52.95"/><polyline class="cls-3" points="91.5 52.95 92.95 54.4 91.48 55.87"/><polyline class="cls-5" points="90.06 44.21 91.51 45.66 90.04 47.13"/><polyline class="cls-5" points="90.04 47.13 91.49 48.58 90.03 50.04"/><polyline class="cls-5" points="90.03 50.04 91.47 51.49 90.01 52.96"/><polyline class="cls-5" points="90.01 52.96 91.46 54.41 89.99 55.87"/><polyline class="cls-4" points="88.6 44.21 90.05 45.66 88.58 47.13"/><polyline class="cls-4" points="88.58 47.13 90.03 48.58 88.56 50.05"/><polyline class="cls-4" points="88.56 50.05 90.01 51.49 88.55 52.96"/><polyline class="cls-4" points="88.55 52.96 90 54.41 88.53 55.88"/></g></svg>