<?xml version="1.0" encoding="utf-8"?>
<!-- Generator: Adobe Illustrator 25.2.3, SVG Export Plug-In . SVG Version: 6.00 Build 0)  -->
<svg version="1.1" id="Laag_1" xmlns="http://www.w3.org/2000/svg" xmlns:xlink="http://www.w3.org/1999/xlink" x="0px" y="0px"
	 viewBox="0 0 100 100" style="enable-background:new 0 0 100 100;" xml:space="preserve">
<style type="text/css">
	.st0{fill:#FFFFFF;}
	.st1{fill:#00ACF0;}
	.st2{fill:#158C26;}
	.st3{fill:#FFCE00;}
	.st4{fill:#FFFFFF;stroke:#2F863F;}
	.st5{clip-path:url(#SVGID_2_);}
	.st6{clip-path:url(#SVGID_4_);}
</style>
<rect y="0" class="st0" width="100" height="100"/>
<rect y="44" class="st1" width="12" height="12"/>
<rect x="4.1" y="44" class="st0" width="4" height="12"/>
<rect x="88" y="44" class="st1" width="12" height="12"/>
<rect x="92.1" y="44" class="st0" width="4" height="12"/>
<rect y="64" class="st1" width="12" height="12"/>
<path class="st0" d="M9.6,72.2L6,74.8l-3.6-2.6V70L6,72.6L9.6,70V72.2z"/>
<path class="st0" d="M2.4,72.2V70H1v2.2H2.4z"/>
<path class="st0" d="M9.6,70v2.2H11V70H9.6z"/>
<path class="st0" d="M9.6,67.6L6,70.2l-3.6-2.6v-2.2L6,68l3.6-2.6V67.6z"/>
<path class="st0" d="M2.4,67.6v-2.2H1v2.2H2.4z"/>
<path class="st0" d="M9.6,65.4v2.2H11v-2.2H9.6z"/>
<rect x="88" y="24" class="st1" width="12" height="12"/>
<path class="st0" d="M97.6,32.2L94,34.8l-3.6-2.6V30l3.6,2.6l3.6-2.6V32.2z"/>
<path class="st0" d="M90.4,32.2V30H89v2.2H90.4z"/>
<path class="st0" d="M97.6,30v2.2H99V30H97.6z"/>
<path class="st0" d="M97.6,27.6L94,30.2l-3.6-2.6v-2.2L94,28l3.6-2.6V27.6z"/>
<path class="st0" d="M90.4,27.6v-2.2H89v2.2H90.4z"/>
<path class="st0" d="M97.6,25.4v2.2H99v-2.2H97.6z"/>
<rect y="24" class="st1" width="12" height="12"/>
<path class="st0" d="M2.4,28.1L6,25.4l3.6,2.6v2.2L6,27.6l-3.6,2.6V28.1z"/>
<path class="st0" d="M9.6,28.1v2.2H11v-2.2H9.6z"/>
<path class="st0" d="M2.4,30.2v-2.2H1v2.2H2.4z"/>
<path class="st2" d="M2.4,30.2L6,27.6l3.6,2.6v2.2L6,29.8l-3.6,2.6V30.2z"/>
<path class="st2" d="M9.6,30.2v2.2H11v-2.2H9.6z"/>
<path class="st2" d="M2.4,32.4v-2.2H1v2.2H2.4z"/>
<path class="st3" d="M2.4,32.4L6,29.8l3.6,2.6v2.2L6,32l-3.6,2.6V32.4z"/>
<path class="st3" d="M9.6,32.4v2.2H11v-2.2H9.6z"/>
<path class="st3" d="M2.4,34.6v-2.2H1v2.2L2.4,34.6z"/>
<rect x="88" y="64" class="st1" width="12" height="12"/>
<path class="st0" d="M90.4,68.1l3.6-2.6l3.6,2.6v2.2L94,67.6l-3.6,2.6V68.1z"/>
<path class="st0" d="M97.6,68.1v2.2H99v-2.2H97.6z"/>
<path class="st0" d="M90.4,70.2v-2.2H89v2.2H90.4z"/>
<path class="st2" d="M90.4,70.2l3.6-2.6l3.6,2.6v2.2L94,69.8l-3.6,2.6V70.2z"/>
<path class="st2" d="M97.6,70.2v2.2H99v-2.2H97.6z"/>
<path class="st2" d="M90.4,72.4v-2.2H89v2.2H90.4z"/>
<path class="st3" d="M90.4,72.4l3.6-2.6l3.6,2.6v2.2L94,72l-3.6,2.6V72.4z"/>
<path class="st3" d="M97.6,72.4v2.2H99v-2.2H97.6z"/>
<path class="st3" d="M90.4,74.6v-2.2H89v2.2H90.4z"/>
<rect x="12.5" y="0.5" class="st4" width="11" height="11"/>
<path class="st2" d="M16.9,10.3L14.2,6l2.7-4.3h2.2L16.4,6l2.7,4.3H16.9z"/>
<path class="st2" d="M16.9,1.7h2.2V0h-2.2V1.7z"/>
<path class="st2" d="M19.1,10.3h-2.2V12h2.2L19.1,10.3z"/>
<path class="st2" d="M19.1,1.7L21.8,6l-2.7,4.3h-2.2L19.6,6l-2.7-4.3H19.1z"/>
<path class="st2" d="M19.1,10.3h-2.2V12h2.2L19.1,10.3z"/>
<path class="st2" d="M16.9,1.7h2.2V0h-2.2V1.7z"/>
<rect x="12.5" y="88.5" class="st4" width="11" height="11"/>
<path class="st2" d="M16.9,98.3L14.2,94l2.7-4.3h2.2L16.4,94l2.7,4.3H16.9z"/>
<path class="st2" d="M16.9,89.7h2.2V88h-2.2V89.7z"/>
<path class="st2" d="M19.1,98.3h-2.2v1.7h2.2L19.1,98.3z"/>
<path class="st2" d="M19.1,89.7l2.7,4.3l-2.7,4.3h-2.2l2.7-4.3l-2.7-4.3H19.1z"/>
<path class="st2" d="M19.1,98.3h-2.2v1.7h2.2L19.1,98.3z"/>
<path class="st2" d="M16.9,89.7h2.2V88h-2.2V89.7z"/>
<rect x="76.5" y="0.5" class="st4" width="11" height="11"/>
<path class="st2" d="M80.9,10.3L78.2,6l2.7-4.3h2.2L80.4,6l2.7,4.3H80.9z"/>
<path class="st2" d="M80.9,1.7h2.2V0h-2.2V1.7z"/>
<path class="st2" d="M83.1,10.3h-2.2V12h2.2V10.3z"/>
<path class="st2" d="M83.1,1.7L85.8,6l-2.7,4.3h-2.2L83.6,6l-2.7-4.3H83.1z"/>
<path class="st2" d="M83.1,10.3h-2.2V12h2.2V10.3z"/>
<path class="st2" d="M80.9,1.7h2.2V0h-2.2V1.7z"/>
<rect x="76.5" y="88.5" class="st4" width="11" height="11"/>
<path class="st2" d="M80.9,98.3L78.2,94l2.7-4.3h2.2L80.4,94l2.7,4.3H80.9z"/>
<path class="st2" d="M80.9,89.7h2.2V88h-2.2V89.7z"/>
<path class="st2" d="M83.1,98.3h-2.2v1.7h2.2V98.3z"/>
<path class="st2" d="M83.1,89.7l2.7,4.3l-2.7,4.3h-2.2l2.7-4.3l-2.7-4.3H83.1z"/>
<path class="st2" d="M83.1,98.3h-2.2v1.7h2.2V98.3z"/>
<path class="st2" d="M80.9,89.7h2.2V88h-2.2V89.7z"/>
<rect x="32" y="0" class="st0" width="12" height="12"/>
<rect x="32" y="0" class="st1" width="12" height="1.2"/>
<rect x="32" y="1.9" class="st0" width="12" height="1.2"/>
<rect x="32" y="4.6" class="st1" width="12" height="1.2"/>
<rect x="32" y="6.5" class="st3" width="12" height="1.2"/>
<rect x="32" y="8.2" class="st1" width="12" height="1.2"/>
<rect x="32" y="10.1" class="st2" width="12" height="1.2"/>
<rect x="32" y="1.2" class="st2" width="12" height="0.7"/>
<rect x="32" y="9.4" class="st0" width="12" height="0.7"/>
<rect x="32" y="11.3" class="st3" width="12" height="0.7"/>
<rect x="32" y="3.1" class="st3" width="12" height="0.7"/>
<rect x="32" y="3.8" class="st2" width="12" height="0.7"/>
<rect x="32" y="5.8" class="st0" width="12" height="0.7"/>
<rect x="32" y="7.7" class="st2" width="12" height="0.5"/>
<rect x="32" y="88" class="st0" width="12" height="12"/>
<rect x="32" y="88" class="st1" width="12" height="1.2"/>
<rect x="32" y="89.9" class="st0" width="12" height="1.2"/>
<rect x="32" y="92.6" class="st1" width="12" height="1.2"/>
<rect x="32" y="94.5" class="st3" width="12" height="1.2"/>
<rect x="32" y="96.2" class="st1" width="12" height="1.2"/>
<rect x="32" y="98.1" class="st2" width="12" height="1.2"/>
<rect x="32" y="89.2" class="st2" width="12" height="0.7"/>
<rect x="32" y="97.4" class="st0" width="12" height="0.7"/>
<rect x="32" y="99.3" class="st3" width="12" height="0.7"/>
<rect x="32" y="91.1" class="st3" width="12" height="0.7"/>
<rect x="32" y="91.8" class="st2" width="12" height="0.7"/>
<rect x="32" y="93.8" class="st0" width="12" height="0.7"/>
<rect x="32" y="95.7" class="st2" width="12" height="0.5"/>
<rect x="56" y="0" class="st0" width="12" height="12"/>
<rect x="56" y="0" class="st1" width="12" height="1.2"/>
<rect x="56" y="1.9" class="st0" width="12" height="1.2"/>
<rect x="56" y="4.6" class="st1" width="12" height="1.2"/>
<rect x="56" y="6.5" class="st3" width="12" height="1.2"/>
<rect x="56" y="8.2" class="st1" width="12" height="1.2"/>
<rect x="56" y="10.1" class="st2" width="12" height="1.2"/>
<rect x="56" y="1.2" class="st2" width="12" height="0.7"/>
<rect x="56" y="9.4" class="st0" width="12" height="0.7"/>
<rect x="56" y="11.3" class="st3" width="12" height="0.7"/>
<rect x="56" y="3.1" class="st3" width="12" height="0.7"/>
<rect x="56" y="3.8" class="st2" width="12" height="0.7"/>
<rect x="56" y="5.8" class="st0" width="12" height="0.7"/>
<rect x="56" y="7.7" class="st2" width="12" height="0.5"/>
<rect x="56" y="88" class="st0" width="12" height="12"/>
<rect x="56" y="88" class="st1" width="12" height="1.2"/>
<rect x="56" y="89.9" class="st0" width="12" height="1.2"/>
<rect x="56" y="92.6" class="st1" width="12" height="1.2"/>
<rect x="56" y="94.5" class="st3" width="12" height="1.2"/>
<rect x="56" y="96.2" class="st1" width="12" height="1.2"/>
<rect x="56" y="98.1" class="st2" width="12" height="1.2"/>
<rect x="56" y="89.2" class="st2" width="12" height="0.7"/>
<rect x="56" y="97.4" class="st0" width="12" height="0.7"/>
<rect x="56" y="99.3" class="st3" width="12" height="0.7"/>
<rect x="56" y="91.1" class="st3" width="12" height="0.7"/>
<rect x="56" y="91.8" class="st2" width="12" height="0.7"/>
<rect x="56" y="93.8" class="st0" width="12" height="0.7"/>
<rect x="56" y="95.7" class="st2" width="12" height="0.5"/>
<rect x="99.3" y="12" class="st3" width="0.7" height="12"/>
<rect x="88" y="12" class="st0" width="12" height="12"/>
<rect x="88" y="12" class="st1" width="1.2" height="12"/>
<rect x="89.9" y="12" class="st0" width="1.2" height="12"/>
<rect x="92.6" y="12" class="st1" width="1.2" height="12"/>
<rect x="94.5" y="12" class="st3" width="1.2" height="12"/>
<rect x="96.2" y="12" class="st1" width="1.2" height="12"/>
<rect x="98.1" y="12" class="st2" width="1.2" height="12"/>
<rect x="89.2" y="12" class="st2" width="0.7" height="12"/>
<rect x="97.4" y="12" class="st0" width="0.7" height="12"/>
<rect x="91.1" y="12" class="st3" width="0.7" height="12"/>
<rect x="91.8" y="12" class="st2" width="0.7" height="12"/>
<rect x="93.8" y="12" class="st0" width="0.7" height="12"/>
<rect x="95.7" y="12" class="st2" width="0.5" height="12"/>
<path class="st0" d="M88.4,12.2L88.4,12.2c0.1,0,0.1,0.1,0.1,0.1c0,0,0,0,0,0v2.2c0,0.1-0.1,0.1-0.1,0.1l0,0l0,0
	c-0.1,0-0.1-0.1-0.1-0.1c0,0,0,0,0,0v-2.2C88.2,12.3,88.3,12.2,88.4,12.2L88.4,12.2z"/>
<path class="st1" d="M90.5,13.4L90.5,13.4c0.1,0,0.1,0.1,0.1,0.1c0,0,0,0,0,0v2.2c0,0.1-0.1,0.1-0.1,0.1l0,0l0,0
	c-0.1,0-0.1-0.1-0.1-0.1c0,0,0,0,0,0v-2.2C90.4,13.5,90.5,13.4,90.5,13.4L90.5,13.4z"/>
<path class="st0" d="M92.2,16.8L92.2,16.8c0.1,0,0.1,0.1,0.1,0.1c0,0,0,0,0,0v2.2c0,0.1-0.1,0.1-0.1,0.1l0,0l0,0
	c-0.1,0-0.1-0.1-0.1-0.1c0,0,0,0,0,0v-2.2C92.1,16.9,92.1,16.8,92.2,16.8L92.2,16.8z"/>
<path class="st1" d="M95.1,13L95.1,13c0.1,0,0.1,0.1,0.1,0.1c0,0,0,0,0,0v2.2c0,0.1-0.1,0.1-0.1,0.1l0,0l0,0c-0.1,0-0.1-0.1-0.1-0.1
	c0,0,0,0,0,0v-2.2C95,13,95,13,95.1,13z"/>
<path class="st0" d="M96.8,19.4L96.8,19.4c0.1,0,0.1,0.1,0.1,0.1c0,0,0,0,0,0v2.2c0,0.1-0.1,0.1-0.1,0.1l0,0l0,0
	c-0.1,0-0.1-0.1-0.1-0.1c0,0,0,0,0,0v-2.2C96.6,19.5,96.7,19.4,96.8,19.4L96.8,19.4z"/>
<path class="st1" d="M98.7,14.6L98.7,14.6c0.1,0,0.1,0.1,0.1,0.1c0,0,0,0,0,0v2.2c0,0.1-0.1,0.1-0.1,0.1l0,0l0,0
	c-0.1,0-0.1-0.1-0.1-0.1c0,0,0,0,0,0v-2.2C98.6,14.7,98.6,14.6,98.7,14.6L98.7,14.6z"/>
<path class="st3" d="M90.3,19.7L90.3,19.7c0.1,0,0.1,0.1,0.1,0.1c0,0,0,0,0,0V22c0,0.1-0.1,0.1-0.1,0.1l0,0l0,0
	c-0.1,0-0.1-0.1-0.1-0.1c0,0,0,0,0,0v-2.2C90.2,19.7,90.2,19.7,90.3,19.7L90.3,19.7z"/>
<path class="st3" d="M88.8,16.3L88.8,16.3c0.1,0,0.1,0.1,0.1,0.1c0,0,0,0,0,0v2.2c0,0.1-0.1,0.1-0.1,0.1l0,0l0,0
	c-0.1,0-0.1-0.1-0.1-0.1c0,0,0,0,0,0v-2.2C88.7,16.4,88.8,16.3,88.8,16.3L88.8,16.3z"/>
<path class="st2" d="M88.6,20.6L88.6,20.6c0.1,0,0.1,0.1,0.1,0.1c0,0,0,0,0,0v2.2c0,0.1-0.1,0.1-0.1,0.1l0,0l0,0
	c-0.1,0-0.1-0.1-0.1-0.1c0,0,0,0,0,0v-2.2C88.5,20.7,88.5,20.6,88.6,20.6L88.6,20.6z"/>
<rect y="76" class="st3" width="0.7" height="12"/>
<rect y="76" class="st0" width="12" height="12"/>
<rect x="10.8" y="76" class="st1" width="1.2" height="12"/>
<rect x="8.9" y="76" class="st0" width="1.2" height="12"/>
<rect x="6.2" y="76" class="st1" width="1.2" height="12"/>
<rect x="4.3" y="76" class="st3" width="1.2" height="12"/>
<rect x="2.6" y="76" class="st1" width="1.2" height="12"/>
<rect x="0.7" y="76" class="st2" width="1.2" height="12"/>
<rect x="10.1" y="76" class="st2" width="0.7" height="12"/>
<rect x="1.9" y="76" class="st0" width="0.7" height="12"/>
<rect x="8.2" y="76" class="st3" width="0.7" height="12"/>
<rect x="7.4" y="76" class="st2" width="0.7" height="12"/>
<rect x="5.5" y="76" class="st0" width="0.7" height="12"/>
<rect x="3.8" y="76" class="st2" width="0.5" height="12"/>
<path class="st0" d="M11.6,87.8L11.6,87.8c-0.1,0-0.1-0.1-0.1-0.1l0,0v-2.2c0-0.1,0.1-0.1,0.1-0.1c0,0,0,0,0,0l0,0
	c0.1,0,0.1,0.1,0.1,0.1l0,0v2.2C11.8,87.7,11.7,87.8,11.6,87.8z"/>
<path class="st1" d="M9.5,86.6L9.5,86.6c-0.1,0-0.1-0.1-0.1-0.1l0,0v-2.2c0-0.1,0.1-0.1,0.1-0.1c0,0,0,0,0,0l0,0
	c0.1,0,0.1,0.1,0.1,0.1l0,0v2.2C9.6,86.5,9.5,86.6,9.5,86.6z"/>
<path class="st0" d="M7.8,83.2L7.8,83.2c-0.1,0-0.1-0.1-0.1-0.1l0,0v-2.2c0-0.1,0.1-0.1,0.1-0.1c0,0,0,0,0,0l0,0
	c0.1,0,0.1,0.1,0.1,0.1l0,0v2.2C7.9,83.1,7.9,83.2,7.8,83.2z"/>
<path class="st1" d="M4.9,87L4.9,87c-0.1,0-0.1-0.1-0.1-0.1l0,0v-2.1c0-0.1,0.1-0.1,0.1-0.1c0,0,0,0,0,0l0,0C5,84.6,5,84.7,5,84.8
	l0,0v2.2C5,87,5,87,4.9,87z"/>
<path class="st0" d="M3.2,78.2L3.2,78.2c0.1,0,0.1,0.1,0.1,0.1v2.2c0,0.1-0.1,0.1-0.1,0.1l0,0c-0.1,0-0.1-0.1-0.1-0.1v-2.2
	C3.1,78.2,3.2,78.2,3.2,78.2z"/>
<path class="st1" d="M1.3,85.4L1.3,85.4c-0.1,0-0.1-0.1-0.1-0.1l0,0v-2.2C1.2,83,1.3,83,1.3,83l0,0c0.1,0,0.1,0.1,0.1,0.1l0,0v2.2
	C1.4,85.3,1.4,85.4,1.3,85.4z"/>
<path class="st3" d="M9.7,80.3L9.7,80.3c-0.1,0-0.1-0.1-0.1-0.1l0,0V78c0-0.1,0.1-0.1,0.1-0.1c0,0,0,0,0,0l0,0
	c0.1,0,0.1,0.1,0.1,0.1l0,0v2.2C9.8,80.3,9.8,80.3,9.7,80.3C9.7,80.3,9.7,80.3,9.7,80.3z"/>
<path class="st3" d="M11.2,83.7L11.2,83.7c-0.1,0-0.1-0.1-0.1-0.1l0,0v-2.2c0-0.1,0.1-0.1,0.1-0.1c0,0,0,0,0,0l0,0
	c0.1,0,0.1,0.1,0.1,0.1l0,0v2.2C11.3,83.6,11.2,83.7,11.2,83.7z"/>
<path class="st2" d="M11.4,79.4L11.4,79.4c-0.1,0-0.1-0.1-0.1-0.1l0,0v-2.2c0-0.1,0.1-0.1,0.1-0.1l0,0c0.1,0,0.1,0.1,0.1,0.1l0,0
	v2.2C11.5,79.3,11.5,79.4,11.4,79.4z"/>
<rect x="44" y="0" class="st1" width="12" height="12"/>
<rect x="44" y="0" class="st1" width="12" height="1.2"/>
<rect x="44" y="1.9" class="st1" width="12" height="1.2"/>
<rect x="44" y="4.6" class="st1" width="12" height="1.2"/>
<rect x="44" y="6.5" class="st3" width="12" height="1.2"/>
<rect x="44" y="8.2" class="st1" width="12" height="1.2"/>
<rect x="44" y="10.1" class="st2" width="12" height="1.2"/>
<rect x="44" y="1.2" class="st2" width="12" height="0.7"/>
<rect x="44" y="9.4" class="st1" width="12" height="0.7"/>
<rect x="44" y="11.3" class="st3" width="12" height="0.7"/>
<rect x="44" y="3.1" class="st3" width="12" height="0.7"/>
<rect x="44" y="3.8" class="st2" width="12" height="0.7"/>
<rect x="44" y="5.8" class="st1" width="12" height="0.7"/>
<rect x="44" y="7.7" class="st2" width="12" height="0.5"/>
<path class="st0" d="M45.7,4.8L50,2.2l4.3,2.6V7L50,4.3L45.7,7V4.8z"/>
<path class="st0" d="M54.3,4.8V7H56V4.8H54.3z"/>
<path class="st0" d="M45.7,7V4.8H44V7H45.7z"/>
<path class="st0" d="M54.3,7L50,9.6L45.7,7V4.8L50,7.4l4.3-2.6V7z"/>
<path class="st0" d="M45.7,7V4.8H44V7H45.7z"/>
<path class="st0" d="M54.3,4.8V7H56V4.8H54.3z"/>
<path class="st0" d="M44,7V4.8H32V7H44z"/>
<path class="st0" d="M56,4.8V7h12V4.8H56z"/>
<rect x="44" y="88" class="st1" width="12" height="12"/>
<rect x="44" y="88" class="st1" width="12" height="1.2"/>
<rect x="44" y="89.9" class="st1" width="12" height="1.2"/>
<rect x="44" y="92.6" class="st1" width="12" height="1.2"/>
<rect x="44" y="94.5" class="st3" width="12" height="1.2"/>
<rect x="44" y="96.2" class="st1" width="12" height="1.2"/>
<rect x="44" y="98.1" class="st2" width="12" height="1.2"/>
<rect x="44" y="89.2" class="st2" width="12" height="0.7"/>
<rect x="44" y="97.4" class="st1" width="12" height="0.7"/>
<rect x="44" y="99.3" class="st3" width="12" height="0.7"/>
<rect x="44" y="91.1" class="st3" width="12" height="0.7"/>
<rect x="44" y="91.8" class="st2" width="12" height="0.7"/>
<rect x="44" y="93.8" class="st1" width="12" height="0.7"/>
<rect x="44" y="95.7" class="st2" width="12" height="0.5"/>
<path class="st0" d="M45.7,92.8l4.3-2.6l4.3,2.6V95L50,92.3L45.7,95V92.8z"/>
<path class="st0" d="M54.3,92.8V95H56v-2.2H54.3z"/>
<path class="st0" d="M45.7,95v-2.2H44V95H45.7z"/>
<path class="st0" d="M54.3,95L50,97.6L45.7,95v-2.2l4.3,2.6l4.3-2.6V95z"/>
<path class="st0" d="M45.7,95v-2.2H44V95H45.7z"/>
<path class="st0" d="M54.3,92.8V95H56v-2.2H54.3z"/>
<path class="st0" d="M44,95v-2.2H32V95H44z"/>
<path class="st0" d="M56,92.8V95h12v-2.2H56z"/>
<g>
	<defs>
		<rect id="SVGID_1_" y="12" width="12" height="12"/>
	</defs>
	<clipPath id="SVGID_2_">
		<use xlink:href="#SVGID_1_"  style="overflow:visible;"/>
	</clipPath>
	<g class="st5">
		<rect y="12" class="st2" width="12" height="12"/>
		<path class="st1" d="M12.6,22.3L9.8,18l2.7-4.3h2.2L12.1,18l2.7,4.3H12.6z"/>
		<path class="st1" d="M12.6,13.7h2.2V12h-2.2V13.7z"/>
		<path class="st1" d="M14.8,22.3h-2.2V24h2.2L14.8,22.3z"/>
		<path class="st1" d="M14.8,13.7l2.7,4.3l-2.7,4.3h-2.2l2.7-4.3l-2.7-4.3H14.8z"/>
		<path class="st1" d="M14.8,22.3h-2.2V24h2.2L14.8,22.3z"/>
		<path class="st1" d="M12.6,13.7h2.2V12h-2.2V13.7z"/>
		<path class="st1" d="M-2.8,22.3L-5.5,18l2.7-4.3h2.2L-3.3,18l2.7,4.3H-2.8z"/>
		<path class="st1" d="M-2.8,13.7h2.2V12h-2.2V13.7z"/>
		<path class="st1" d="M-0.6,22.3h-2.2V24h2.2V22.3z"/>
		<path class="st1" d="M-0.6,13.7L2.2,18l-2.7,4.3h-2.2l2.7-4.3l-2.7-4.3H-0.6z"/>
		<path class="st1" d="M-0.6,22.3h-2.2V24h2.2V22.3z"/>
		<path class="st1" d="M-2.8,13.7h2.2V12h-2.2V13.7z"/>
		<rect x="4.1" y="15.1" class="st0" width="3.8" height="5.5"/>
		<path class="st1" d="M4.9,22.3L2.2,18l2.7-4.3h2.2L4.4,18l2.7,4.3H4.9z"/>
		<path class="st1" d="M4.9,13.7h2.2V12H4.9V13.7z"/>
		<path class="st1" d="M7.1,22.3H4.9V24h2.2V22.3z"/>
		<path class="st1" d="M7.1,13.7L9.8,18l-2.7,4.3H4.9L7.6,18l-2.7-4.3H7.1z"/>
		<path class="st1" d="M7.1,22.3H4.9V24h2.2V22.3z"/>
		<path class="st1" d="M4.9,13.7h2.2V12H4.9V13.7z"/>
	</g>
</g>
<g>
	<defs>
		<rect id="SVGID_3_" x="88" y="76" width="12" height="12"/>
	</defs>
	<clipPath id="SVGID_4_">
		<use xlink:href="#SVGID_3_"  style="overflow:visible;"/>
	</clipPath>
	<g class="st6">
		<rect x="88" y="76" class="st2" width="12" height="12"/>
		<path class="st1" d="M100.6,86.3L97.8,82l2.7-4.3h2.2l-2.7,4.3l2.7,4.3H100.6z"/>
		<path class="st1" d="M100.6,77.7h2.2V76h-2.2V77.7z"/>
		<path class="st1" d="M102.8,86.3h-2.2V88h2.2V86.3z"/>
		<path class="st1" d="M102.8,77.7l2.7,4.3l-2.7,4.3h-2.2l2.7-4.3l-2.7-4.3H102.8z"/>
		<path class="st1" d="M102.8,86.3h-2.2V88h2.2V86.3z"/>
		<path class="st1" d="M100.6,77.7h2.2V76h-2.2V77.7z"/>
		<path class="st1" d="M85.2,86.3L82.5,82l2.7-4.3h2.2L84.7,82l2.7,4.3H85.2z"/>
		<path class="st1" d="M85.2,77.7h2.2V76h-2.2V77.7z"/>
		<path class="st1" d="M87.4,86.3h-2.2V88h2.2V86.3z"/>
		<path class="st1" d="M87.4,77.7l2.7,4.3l-2.7,4.3h-2.2l2.7-4.3l-2.7-4.3H87.4z"/>
		<path class="st1" d="M87.4,86.3h-2.2V88h2.2V86.3z"/>
		<path class="st1" d="M85.2,77.7h2.2V76h-2.2V77.7z"/>
		<rect x="92.1" y="79.1" class="st0" width="3.8" height="5.5"/>
		<path class="st1" d="M92.9,86.3L90.2,82l2.7-4.3h2.2L92.4,82l2.7,4.3H92.9z"/>
		<path class="st1" d="M92.9,77.7h2.2V76h-2.2V77.7z"/>
		<path class="st1" d="M95.1,86.3h-2.2V88h2.2V86.3z"/>
		<path class="st1" d="M95.1,77.7l2.7,4.3l-2.7,4.3h-2.2l2.7-4.3l-2.7-4.3H95.1z"/>
		<path class="st1" d="M95.1,86.3h-2.2V88h2.2V86.3z"/>
		<path class="st1" d="M92.9,77.7h2.2V76h-2.2V77.7z"/>
	</g>
</g>
<rect y="0" class="st1" width="12" height="12"/>
<rect x="4.1" y="0" class="st0" width="4" height="12"/>
<ellipse class="st3" cx="6.1" cy="5.6" rx="1.3" ry="1.2"/>
<path class="st2" d="M4.6,5.3c0,0.3,0,0.6,0.1,0.9c0,0.2,0.1,0.4,0.2,0.5C5.1,7.1,5.6,7.3,6,7.1C6,7,6,7,6.1,7
	c0.3-0.3,0.3-0.8,0-1.1c0,0-0.1-0.1-0.1-0.1C5.8,5.7,5.6,5.6,5.4,5.5C5.2,5.4,4.9,5.3,4.6,5.3z"/>
<path class="st2" d="M7.5,5.3c0,0.3,0,0.6-0.1,0.9c0,0.2-0.1,0.4-0.2,0.5C7,7.1,6.5,7.3,6.2,7.1c0,0-0.1,0-0.1-0.1
	c-0.3-0.3-0.3-0.8,0-1.1c0,0,0.1-0.1,0.1-0.1c0.1-0.1,0.3-0.2,0.5-0.3C7,5.4,7.2,5.4,7.5,5.3z"/>
<rect y="88" class="st1" width="12" height="12"/>
<rect x="4.1" y="88" class="st0" width="4" height="12"/>
<ellipse class="st3" cx="6.1" cy="93.6" rx="1.3" ry="1.2"/>
<path class="st2" d="M4.6,93.3c0,0.3,0,0.6,0.1,0.9c0,0.2,0.1,0.4,0.2,0.5c0.2,0.4,0.7,0.5,1.1,0.3C6,95,6,95,6.1,95
	c0.3-0.3,0.3-0.8,0-1.1c0,0-0.1-0.1-0.1-0.1c-0.1-0.1-0.3-0.2-0.5-0.3C5.2,93.4,4.9,93.3,4.6,93.3z"/>
<path class="st2" d="M7.5,93.3c0,0.3,0,0.6-0.1,0.9c0,0.2-0.1,0.4-0.2,0.5c-0.2,0.4-0.7,0.5-1.1,0.3c0,0-0.1,0-0.1-0.1
	c-0.3-0.3-0.3-0.8,0-1.1c0,0,0.1-0.1,0.1-0.1c0.1-0.1,0.3-0.2,0.5-0.3C7,93.4,7.2,93.4,7.5,93.3z"/>
<rect x="88" y="0" class="st1" width="12" height="12"/>
<rect x="92.1" y="0" class="st0" width="4" height="12"/>
<ellipse class="st3" cx="94.1" cy="5.6" rx="1.3" ry="1.2"/>
<path class="st2" d="M92.6,5.3c0,0.3,0,0.6,0.1,0.9c0,0.2,0.1,0.4,0.2,0.5c0.2,0.4,0.7,0.5,1.1,0.3C94,7,94,7,94.1,7
	c0.3-0.3,0.3-0.8,0-1.1c0,0-0.1-0.1-0.1-0.1c-0.1-0.1-0.3-0.2-0.5-0.3C93.2,5.4,92.9,5.3,92.6,5.3z"/>
<path class="st2" d="M95.5,5.3c0,0.3,0,0.6-0.1,0.9c0,0.2-0.1,0.4-0.2,0.5c-0.2,0.4-0.7,0.5-1.1,0.3c0,0-0.1,0-0.1-0.1
	c-0.3-0.3-0.3-0.8,0-1.1c0,0,0.1-0.1,0.1-0.1c0.1-0.1,0.3-0.2,0.5-0.3C95,5.4,95.2,5.4,95.5,5.3z"/>
<rect x="88" y="88" class="st1" width="12" height="12"/>
<rect x="92.1" y="88" class="st0" width="4" height="12"/>
<ellipse class="st3" cx="94.1" cy="93.6" rx="1.3" ry="1.2"/>
<path class="st2" d="M92.6,93.3c0,0.3,0,0.6,0.1,0.9c0,0.2,0.1,0.4,0.2,0.5c0.2,0.4,0.7,0.6,1.1,0.4c0,0,0.1,0,0.1-0.1
	c0.3-0.3,0.3-0.8,0-1.1c0,0-0.1-0.1-0.1-0.1c-0.1-0.1-0.3-0.2-0.5-0.3C93.2,93.4,92.9,93.4,92.6,93.3z"/>
<path class="st2" d="M95.5,93.3c0,0.3,0,0.6-0.1,0.9c0,0.2-0.1,0.4-0.2,0.5c-0.2,0.4-0.7,0.6-1.1,0.4c0,0-0.1,0-0.1-0.1
	c-0.3-0.3-0.3-0.8,0-1.1c0,0,0.1-0.1,0.1-0.1c0.1-0.1,0.3-0.2,0.5-0.3C95,93.5,95.2,93.4,95.5,93.3z"/>
<rect x="24" y="0" class="st3" width="8" height="12"/>
<rect x="68" y="0" class="st3" width="8" height="12"/>
<rect x="24" y="88" class="st3" width="8" height="12"/>
<rect x="68" y="88" class="st3" width="8" height="12"/>
<rect y="36" class="st3" width="12" height="8"/>
<rect x="88" y="36" class="st3" width="12" height="8"/>
<rect y="56" class="st3" width="12" height="8"/>
<rect x="88" y="56" class="st3" width="12" height="8"/>
</svg>
