<svg id="Laag_1" data-name="Laag 1" xmlns="http://www.w3.org/2000/svg" viewBox="0 0 566.93 566.93"><defs><style>.cls-1{fill:#fff;}.cls-2,.cls-6{fill:#f71123;}.cls-3{fill:#f87311;}.cls-4,.cls-5{fill:#1a67a3;}.cls-5,.cls-6{fill-rule:evenodd;}</style></defs><path class="cls-1" d="M0,0H566.93V566.93H0Z" transform="translate(0 0)"/><rect class="cls-1" y="68.03" width="68.03" height="68.03"/><path class="cls-2" d="M38,100.69c0-8.27-1.83-15-4.08-15s-4.08,6.7-4.08,15,1.83,15,4.08,15S38,109,38,100.69Z" transform="translate(0 0)"/><path class="cls-2" d="M46.29,107.65c5.85-5.84,9.29-11.87,7.7-13.46S46.36,96,40.52,101.88s-9.29,11.88-7.7,13.47S40.45,113.5,46.29,107.65Z" transform="translate(0 0)"/><path class="cls-2" d="M27.24,101.88c5.85,5.85,9.29,11.88,7.7,13.47s-7.63-1.85-13.47-7.7-9.29-11.87-7.7-13.46S21.4,96,27.24,101.88Z" transform="translate(0 0)"/><rect class="cls-1" x="498.9" y="430.87" width="68.03" height="68.03"/><path class="cls-2" d="M536.86,463.52c0-8.27-1.83-15-4.08-15s-4.08,6.7-4.08,15,1.82,15,4.08,15S536.86,471.79,536.86,463.52Z" transform="translate(0 0)"/><path class="cls-2" d="M545.19,470.49c5.84-5.85,9.29-11.88,7.69-13.47s-7.62,1.85-13.46,7.7-9.3,11.87-7.7,13.47S539.34,476.33,545.19,470.49Z" transform="translate(0 0)"/><path class="cls-2" d="M526.14,464.72c5.84,5.84,9.29,11.87,7.7,13.47s-7.63-1.86-13.47-7.7-9.29-11.88-7.7-13.47S520.29,458.87,526.14,464.72Z" transform="translate(0 0)"/><rect class="cls-3" x="204.09" width="68.03" height="68.03"/><path class="cls-1" d="M242.06,32.66c0-8.27-1.83-15-4.09-15s-4.08,6.7-4.08,15,1.83,15,4.08,15S242.06,40.92,242.06,32.66Z" transform="translate(0 0)"/><path class="cls-4" d="M250.39,39.62c5.84-5.84,9.29-11.87,7.69-13.47s-7.62,1.86-13.47,7.7-9.29,11.88-7.69,13.47S244.54,45.47,250.39,39.62Z" transform="translate(0 0)"/><path class="cls-2" d="M231.34,33.85c5.84,5.85,9.29,11.88,7.69,13.47s-7.62-1.85-13.47-7.7-9.29-11.87-7.69-13.47S225.49,28,231.34,33.85Z" transform="translate(0 0)"/><rect class="cls-3" x="294.8" y="498.9" width="68.03" height="68.03"/><path class="cls-1" d="M332.76,531.55c0-8.26-1.82-15-4.08-15s-4.08,6.7-4.08,15,1.83,15,4.08,15S332.76,539.82,332.76,531.55Z" transform="translate(0 0)"/><path class="cls-4" d="M341.09,538.52c5.85-5.84,9.29-11.87,7.7-13.47s-7.62,1.85-13.47,7.7-9.29,11.87-7.7,13.47S335.25,544.37,341.09,538.52Z" transform="translate(0 0)"/><path class="cls-2" d="M322,532.75c5.85,5.84,9.3,11.87,7.7,13.47s-7.62-1.85-13.47-7.7-9.29-11.87-7.69-13.47S316.2,526.9,322,532.75Z" transform="translate(0 0)"/><rect class="cls-1" x="68.03" width="68.03" height="68.03"/><path class="cls-4" d="M123.61,58.55c-3-2.91-4.75-5.92-4-6.73s3.85.88,6.83,3.79,4.74,5.92,4,6.73S126.58,61.45,123.61,58.55Z" transform="translate(0 0)"/><path class="cls-4" d="M123.19,64c-4.16,0-7.54-.83-7.55-2s3.34-2.09,7.5-2.14,7.54.83,7.55,2S127.35,64,123.19,64Z" transform="translate(0 0)"/><path class="cls-4" d="M127.81,55.11c0,4.16,1,7.52,2.14,7.5s2-3.39,2-7.55-1-7.52-2.14-7.51S127.75,51,127.81,55.11Z" transform="translate(0 0)"/><circle class="cls-1" cx="129.26" cy="61.23" r="2.72"/><path class="cls-4" d="M80.49,58.55c3-2.91,4.75-5.92,4-6.73s-3.84.88-6.82,3.79-4.75,5.92-4,6.73S77.51,61.45,80.49,58.55Z" transform="translate(0 0)"/><path class="cls-4" d="M80.91,64c4.16,0,7.54-.83,7.55-2s-3.34-2.09-7.5-2.14-7.54.83-7.56,2S76.75,64,80.91,64Z" transform="translate(0 0)"/><path class="cls-4" d="M76.29,55.11c-.05,4.16-1,7.52-2.14,7.5s-2-3.39-2-7.55,1-7.52,2.15-7.51S76.34,51,76.29,55.11Z" transform="translate(0 0)"/><circle class="cls-1" cx="74.83" cy="61.23" r="2.72"/><path class="cls-4" d="M80.49,10.26c3,2.9,4.75,5.91,4,6.73s-3.84-.89-6.82-3.79-4.75-5.92-4-6.73S77.51,7.35,80.49,10.26Z" transform="translate(0 0)"/><path class="cls-4" d="M80.91,4.81c4.16,0,7.54.83,7.55,2S85.12,8.87,81,8.92s-7.54-.83-7.56-2S76.75,4.86,80.91,4.81Z" transform="translate(0 0)"/><path class="cls-4" d="M76.29,13.7c-.05-4.16-1-7.52-2.14-7.51s-2,3.4-2,7.56,1,7.51,2.15,7.5S76.34,17.85,76.29,13.7Z" transform="translate(0 0)"/><circle class="cls-1" cx="74.83" cy="7.58" r="2.72"/><path class="cls-4" d="M123.61,10.26c-3,2.9-4.75,5.91-4,6.73s3.85-.89,6.83-3.79,4.74-5.92,4-6.73S126.58,7.35,123.61,10.26Z" transform="translate(0 0)"/><path class="cls-4" d="M123.19,4.81c-4.16,0-7.54.83-7.55,2s3.34,2.1,7.5,2.15,7.54-.83,7.55-2S127.35,4.86,123.19,4.81Z" transform="translate(0 0)"/><path class="cls-4" d="M127.81,13.7c0-4.16,1-7.52,2.14-7.51s2,3.4,2,7.56-1,7.51-2.14,7.5S127.75,17.85,127.81,13.7Z" transform="translate(0 0)"/><circle class="cls-1" cx="129.26" cy="7.58" r="2.72"/><path class="cls-4" d="M104.55,33.15c0-5.53-1.22-10-2.73-10s-2.74,4.49-2.74,10,1.23,10,2.74,10S104.55,38.68,104.55,33.15Z" transform="translate(0 0)"/><path class="cls-4" d="M110.13,37.82c3.91-3.92,6.22-7.95,5.15-9s-5.11,1.24-9,5.15-6.22,7.95-5.15,9S106.21,41.73,110.13,37.82Z" transform="translate(0 0)"/><path class="cls-4" d="M97.37,34c3.92,3.91,6.22,7.95,5.16,9s-5.11-1.24-9-5.15-6.22-7.95-5.15-9S93.46,30,97.37,34Z" transform="translate(0 0)"/><rect class="cls-2" x="498.9" y="136.06" width="68.03" height="68.03"/><path class="cls-1" d="M554.47,194.61c-3-2.9-4.74-5.92-4-6.73s3.85.89,6.82,3.79,4.75,5.92,4,6.73S557.45,197.52,554.47,194.61Z" transform="translate(0 0)"/><path class="cls-1" d="M554.06,200.06c-4.16.05-7.55-.83-7.56-2S549.85,196,554,196s7.54.83,7.55,2S558.21,200,554.06,200.06Z" transform="translate(0 0)"/><path class="cls-1" d="M558.67,191.17c.05,4.16,1,7.52,2.15,7.51s2-3.4,2-7.56-1-7.52-2.15-7.5S558.62,187,558.67,191.17Z" transform="translate(0 0)"/><path class="cls-1" d="M511.35,194.61c3-2.9,4.75-5.92,4-6.73s-3.85.89-6.82,3.79-4.75,5.92-4,6.73S508.38,197.52,511.35,194.61Z" transform="translate(0 0)"/><path class="cls-1" d="M511.77,200.06c4.16.05,7.54-.83,7.56-2S516,196,511.82,196s-7.54.83-7.55,2S507.61,200,511.77,200.06Z" transform="translate(0 0)"/><path class="cls-1" d="M507.16,191.17c-.05,4.16-1,7.52-2.15,7.51s-2-3.4-2-7.56,1-7.52,2.14-7.5S507.21,187,507.16,191.17Z" transform="translate(0 0)"/><path class="cls-1" d="M511.35,146.32c3,2.9,4.75,5.92,4,6.73s-3.85-.89-6.82-3.79-4.75-5.92-4-6.73S508.38,143.41,511.35,146.32Z" transform="translate(0 0)"/><path class="cls-1" d="M511.77,140.87c4.16-.05,7.54.83,7.56,2s-3.35,2.1-7.51,2.15-7.54-.83-7.55-2S507.61,140.92,511.77,140.87Z" transform="translate(0 0)"/><path class="cls-1" d="M507.16,149.76c-.05-4.16-1-7.52-2.15-7.51s-2,3.4-2,7.56,1,7.52,2.14,7.5S507.21,153.92,507.16,149.76Z" transform="translate(0 0)"/><path class="cls-1" d="M554.47,146.32c-3,2.9-4.74,5.92-4,6.73s3.85-.89,6.82-3.79,4.75-5.92,4-6.73S557.45,143.41,554.47,146.32Z" transform="translate(0 0)"/><path class="cls-1" d="M554.06,140.87c-4.16-.05-7.55.83-7.56,2s3.35,2.1,7.51,2.15,7.54-.83,7.55-2S558.21,140.92,554.06,140.87Z" transform="translate(0 0)"/><path class="cls-1" d="M558.67,149.76c.05-4.16,1-7.52,2.15-7.51s2,3.4,2,7.56-1,7.52-2.15,7.5S558.62,153.92,558.67,149.76Z" transform="translate(0 0)"/><path class="cls-1" d="M535.42,169.21c0-5.53-1.23-10-2.74-10s-2.73,4.49-2.73,10,1.22,10,2.73,10S535.42,174.75,535.42,169.21Z" transform="translate(0 0)"/><path class="cls-1" d="M541,173.88c3.92-3.91,6.22-7.95,5.16-9s-5.11,1.24-9,5.15-6.22,8-5.16,9S537.08,177.79,541,173.88Z" transform="translate(0 0)"/><path class="cls-1" d="M528.24,170c3.91,3.92,6.22,8,5.15,9s-5.1-1.24-9-5.15-6.23-7.95-5.16-9S524.33,166.1,528.24,170Z" transform="translate(0 0)"/><rect class="cls-2" y="362.83" width="68.03" height="68.03"/><path class="cls-1" d="M55.58,421.38c-3-2.9-4.75-5.91-4-6.73s3.85.89,6.82,3.79,4.75,5.92,4,6.73S58.55,424.29,55.58,421.38Z" transform="translate(0 0)"/><path class="cls-1" d="M55.16,426.83c-4.16.05-7.54-.83-7.56-2s3.35-2.1,7.51-2.15,7.54.83,7.55,2S59.32,426.78,55.16,426.83Z" transform="translate(0 0)"/><path class="cls-1" d="M59.77,417.94c0,4.16,1,7.52,2.15,7.51s2-3.4,2-7.56-1-7.52-2.14-7.5S59.72,413.79,59.77,417.94Z" transform="translate(0 0)"/><path class="cls-1" d="M12.46,421.38c3-2.9,4.74-5.91,3.95-6.73s-3.85.89-6.82,3.79-4.75,5.92-4,6.73S9.48,424.29,12.46,421.38Z" transform="translate(0 0)"/><path class="cls-1" d="M12.87,426.83c4.16.05,7.55-.83,7.56-2s-3.35-2.1-7.51-2.15-7.54.83-7.55,2S8.72,426.78,12.87,426.83Z" transform="translate(0 0)"/><path class="cls-1" d="M8.26,417.94c0,4.16-1,7.52-2.15,7.51s-2-3.4-2-7.56,1-7.52,2.15-7.5S8.31,413.79,8.26,417.94Z" transform="translate(0 0)"/><path class="cls-1" d="M12.46,373.09c3,2.91,4.74,5.92,3.95,6.73s-3.85-.88-6.82-3.79-4.75-5.92-4-6.73S9.48,370.19,12.46,373.09Z" transform="translate(0 0)"/><path class="cls-1" d="M12.87,367.64c4.16-.05,7.55.83,7.56,2s-3.35,2.09-7.51,2.14-7.54-.83-7.55-2S8.72,367.69,12.87,367.64Z" transform="translate(0 0)"/><path class="cls-1" d="M8.26,376.53c0-4.16-1-7.52-2.15-7.5s-2,3.39-2,7.55,1,7.52,2.15,7.51S8.31,380.69,8.26,376.53Z" transform="translate(0 0)"/><path class="cls-1" d="M55.58,373.09c-3,2.91-4.75,5.92-4,6.73s3.85-.88,6.82-3.79,4.75-5.92,4-6.73S58.55,370.19,55.58,373.09Z" transform="translate(0 0)"/><path class="cls-1" d="M55.16,367.64c-4.16-.05-7.54.83-7.56,2s3.35,2.09,7.51,2.14,7.54-.83,7.55-2S59.32,367.69,55.16,367.64Z" transform="translate(0 0)"/><path class="cls-1" d="M59.77,376.53c0-4.16,1-7.52,2.15-7.5s2,3.39,2,7.55-1,7.52-2.14,7.51S59.72,380.69,59.77,376.53Z" transform="translate(0 0)"/><path class="cls-1" d="M36.52,396c0-5.54-1.22-10-2.73-10s-2.74,4.48-2.74,10,1.23,10,2.74,10S36.52,401.52,36.52,396Z" transform="translate(0 0)"/><path class="cls-1" d="M42.09,400.65c3.92-3.91,6.22-7.95,5.16-9s-5.11,1.24-9,5.16-6.22,7.95-5.15,9S38.18,404.56,42.09,400.65Z" transform="translate(0 0)"/><path class="cls-1" d="M29.34,396.79c3.91,3.91,6.22,7.95,5.15,9s-5.1-1.24-9-5.15-6.22-7.95-5.16-9S25.43,392.87,29.34,396.79Z" transform="translate(0 0)"/><rect class="cls-1" x="430.87" y="498.9" width="68.03" height="68.03"/><path class="cls-4" d="M486.44,557.45c-3-2.91-4.74-5.92-3.95-6.73s3.84.88,6.82,3.79,4.75,5.91,4,6.73S489.42,560.35,486.44,557.45Z" transform="translate(0 0)"/><path class="cls-4" d="M486,562.89c-4.15.05-7.54-.82-7.55-2s3.35-2.09,7.5-2.14,7.55.83,7.56,2S490.18,562.84,486,562.89Z" transform="translate(0 0)"/><path class="cls-4" d="M490.64,554c.05,4.16,1,7.52,2.15,7.5s2-3.39,2-7.55-1-7.52-2.15-7.51S490.59,549.85,490.64,554Z" transform="translate(0 0)"/><circle class="cls-1" cx="492.09" cy="560.13" r="2.72"/><path class="cls-4" d="M443.32,557.45c3-2.91,4.75-5.92,4-6.73s-3.85.88-6.83,3.79-4.74,5.91-3.95,6.73S440.35,560.35,443.32,557.45Z" transform="translate(0 0)"/><path class="cls-4" d="M443.74,562.89c4.16.05,7.54-.82,7.56-2s-3.35-2.09-7.51-2.14-7.54.83-7.55,2S439.58,562.84,443.74,562.89Z" transform="translate(0 0)"/><path class="cls-4" d="M439.13,554c-.06,4.16-1,7.52-2.15,7.5s-2-3.39-2-7.55,1-7.52,2.14-7.51S439.18,549.85,439.13,554Z" transform="translate(0 0)"/><circle class="cls-1" cx="437.67" cy="560.13" r="2.72"/><path class="cls-4" d="M443.32,509.15c3,2.91,4.75,5.92,4,6.73s-3.85-.88-6.83-3.79-4.74-5.91-3.95-6.73S440.35,506.25,443.32,509.15Z" transform="translate(0 0)"/><path class="cls-4" d="M443.74,503.71c4.16,0,7.54.82,7.56,2s-3.35,2.09-7.51,2.14-7.54-.82-7.55-2S439.58,503.76,443.74,503.71Z" transform="translate(0 0)"/><path class="cls-4" d="M439.13,512.59c-.06-4.15-1-7.51-2.15-7.5s-2,3.39-2,7.55,1,7.52,2.14,7.51S439.18,516.75,439.13,512.59Z" transform="translate(0 0)"/><circle class="cls-1" cx="437.67" cy="506.47" r="2.72"/><path class="cls-4" d="M486.44,509.15c-3,2.91-4.74,5.92-3.95,6.73s3.85-.88,6.82-3.79,4.75-5.91,4-6.73S489.42,506.25,486.44,509.15Z" transform="translate(0 0)"/><path class="cls-4" d="M486,503.71c-4.15,0-7.54.82-7.55,2s3.35,2.09,7.5,2.14,7.55-.82,7.56-2S490.18,503.76,486,503.71Z" transform="translate(0 0)"/><path class="cls-4" d="M490.64,512.59c.05-4.15,1-7.51,2.15-7.5s2,3.39,2,7.55-1,7.52-2.15,7.51S490.59,516.75,490.64,512.59Z" transform="translate(0 0)"/><circle class="cls-1" cx="492.09" cy="506.47" r="2.72"/><path class="cls-4" d="M467.38,532.05c0-5.54-1.22-10-2.73-10s-2.73,4.48-2.73,10,1.22,10,2.73,10S467.38,537.58,467.38,532.05Z" transform="translate(0 0)"/><path class="cls-4" d="M473,536.71c3.91-3.91,6.22-8,5.15-9s-5.1,1.24-9,5.15-6.22,7.95-5.16,9S469.05,540.63,473,536.71Z" transform="translate(0 0)"/><path class="cls-4" d="M460.21,532.85c3.91,3.91,6.22,7.95,5.15,9s-5.1-1.24-9-5.16-6.22-8-5.15-9S456.29,528.94,460.21,532.85Z" transform="translate(0 0)"/><rect class="cls-3" x="498.9" y="204.09" width="68.03" height="68.03"/><rect class="cls-4" x="515.23" y="220.42" width="34.02" height="34.02"/><rect class="cls-2" x="515.23" y="220.42" width="34.02" height="11.57"/><rect class="cls-1" x="515.23" y="231.99" width="34.02" height="11.34"/><rect class="cls-3" y="294.8" width="68.03" height="68.03"/><rect class="cls-4" x="16.33" y="311.13" width="34.02" height="34.02"/><rect class="cls-2" x="16.33" y="311.13" width="34.02" height="11.57"/><rect class="cls-1" x="16.33" y="322.7" width="34.02" height="11.34"/><rect class="cls-3" x="362.83" y="498.9" width="68.03" height="68.03"/><rect class="cls-4" x="362.83" y="498.9" width="34.02" height="34.02"/><rect class="cls-2" x="362.83" y="498.9" width="34.02" height="11.57"/><rect class="cls-1" x="362.83" y="510.46" width="34.02" height="11.34"/><rect class="cls-4" x="396.85" y="498.9" width="34.02" height="34.02"/><rect class="cls-2" x="396.85" y="498.9" width="34.02" height="11.57"/><rect class="cls-1" x="396.85" y="510.46" width="34.02" height="11.34"/><rect class="cls-4" x="396.85" y="532.91" width="34.02" height="34.02"/><rect class="cls-2" x="396.85" y="532.91" width="34.02" height="11.57"/><rect class="cls-1" x="396.85" y="544.48" width="34.02" height="11.34"/><rect class="cls-4" x="362.83" y="532.91" width="34.02" height="34.02"/><rect class="cls-2" x="362.83" y="532.91" width="34.02" height="11.57"/><rect class="cls-1" x="362.83" y="544.48" width="34.02" height="11.34"/><rect class="cls-3" x="136.06" width="68.03" height="68.03"/><rect class="cls-4" x="136.06" width="34.02" height="34.02"/><rect class="cls-2" x="136.06" width="34.02" height="11.57"/><rect class="cls-1" x="136.06" y="11.57" width="34.02" height="11.34"/><rect class="cls-4" x="170.08" width="34.02" height="34.02"/><rect class="cls-2" x="170.08" width="34.02" height="11.57"/><rect class="cls-1" x="170.08" y="11.57" width="34.02" height="11.34"/><rect class="cls-4" x="170.08" y="34.02" width="34.02" height="34.02"/><rect class="cls-2" x="170.08" y="34.02" width="34.02" height="11.57"/><rect class="cls-1" x="170.08" y="45.58" width="34.02" height="11.34"/><rect class="cls-4" x="136.06" y="34.02" width="34.02" height="34.02"/><rect class="cls-2" x="136.06" y="34.02" width="34.02" height="11.57"/><rect class="cls-1" x="136.06" y="45.58" width="34.02" height="11.34"/><rect class="cls-1" y="226.77" width="68.03" height="68.03"/><path class="cls-4" d="M34,249.9l16.49,38.78h-33Z" transform="translate(0 0)"/><circle class="cls-4" cx="34.02" cy="256.71" r="13.61"/><rect class="cls-2" x="4.06" y="253.91" width="59.77" height="5.44" rx="2.72" transform="translate(-171.52 99.17) rotate(-45)"/><path class="cls-2" d="M55.07,277.76h0a2.71,2.71,0,0,0,0-3.85L16.66,235.5a2.73,2.73,0,0,0-3.85,0h0a2.73,2.73,0,0,0,0,3.85l38.41,38.41A2.73,2.73,0,0,0,55.07,277.76Z" transform="translate(0 0)"/><rect class="cls-1" x="498.9" y="272.13" width="68.03" height="68.03"/><path class="cls-4" d="M532.91,295.26,549.41,334h-33Z" transform="translate(0 0)"/><circle class="cls-4" cx="532.91" cy="302.06" r="13.61"/><path class="cls-2" d="M554,280.85h0a2.73,2.73,0,0,1,0,3.85l-38.41,38.42a2.73,2.73,0,0,1-3.85,0h0a2.71,2.71,0,0,1,0-3.85l38.41-38.42A2.73,2.73,0,0,1,554,280.85Z" transform="translate(0 0)"/><path class="cls-2" d="M554,323.12h0a2.73,2.73,0,0,0,0-3.85l-38.41-38.42a2.73,2.73,0,0,0-3.85,0h0a2.71,2.71,0,0,0,0,3.85l38.41,38.42A2.73,2.73,0,0,0,554,323.12Z" transform="translate(0 0)"/><rect class="cls-3" x="430.87" width="68.03" height="68.03"/><path class="cls-4" d="M464.88,23.13l16.5,38.78h-33Z" transform="translate(0 0)"/><circle class="cls-4" cx="464.88" cy="29.93" r="13.61"/><rect class="cls-1" x="434.92" y="27.14" width="59.77" height="5.44" transform="translate(115.02 337.41) rotate(-45)"/><rect class="cls-1" x="462.09" y="-0.03" width="5.44" height="59.77" transform="translate(115.02 337.41) rotate(-45)"/><path class="cls-3" d="M460.8,55.11A4.09,4.09,0,0,1,464.88,51h0A4.08,4.08,0,0,1,469,55.11v6.8H460.8Z" transform="translate(0 0)"/><rect class="cls-3" x="68.03" y="498.9" width="68.03" height="68.03"/><path class="cls-4" d="M102.05,522l16.49,38.78h-33Z" transform="translate(0 0)"/><circle class="cls-4" cx="102.05" cy="528.83" r="13.61"/><rect class="cls-1" x="72.09" y="526.04" width="59.77" height="5.44" transform="translate(-344.02 226.97) rotate(-45)"/><rect class="cls-1" x="99.25" y="498.87" width="5.44" height="59.77" transform="translate(-344.02 226.98) rotate(-45)"/><path class="cls-3" d="M98,554a4.08,4.08,0,0,1,4.08-4.08h0a4.08,4.08,0,0,1,4.08,4.08v6.81H98Z" transform="translate(0 0)"/><rect class="cls-1" x="498.9" y="68.03" width="68.03" height="68.03"/><path class="cls-2" d="M546.43,89.27H533.1v5.19l7.4,7.4h19.63Z" transform="translate(0 0)"/><path class="cls-2" d="M519.4,114.45h13.7v-5.18l-7.41-7.41h-20Z" transform="translate(0 0)"/><path class="cls-4" d="M545.69,115.19V101.86H540.5l-7.4,7.41v20Z" transform="translate(0 0)"/><path class="cls-4" d="M520.51,88.9v13h5.18l7.41-7.4V74.83Z" transform="translate(0 0)"/><path class="cls-5" d="M533.1,101.86v-7.4l7.4,7.4Zm0,7.41v-7.41h-7.41Z" transform="translate(0 0)"/><path class="cls-1" d="M529.4,98.16l-3.71,3.7h7.41v-7.4Z" transform="translate(0 0)"/><path class="cls-1" d="M536.8,105.56l3.7-3.7h-7.4v7.41Z" transform="translate(0 0)"/><rect class="cls-1" y="430.87" width="68.03" height="68.03"/><path class="cls-2" d="M47.53,452.11H34.2v5.18l7.41,7.41H61.23Z" transform="translate(0 0)"/><path class="cls-2" d="M20.5,477.28H34.2V472.1l-7.4-7.4H6.8Z" transform="translate(0 0)"/><path class="cls-4" d="M46.79,478V464.7H41.61l-7.41,7.4v20Z" transform="translate(0 0)"/><path class="cls-4" d="M21.61,451.74v13H26.8l7.4-7.41V437.67Z" transform="translate(0 0)"/><path class="cls-5" d="M34.2,464.7v-7.41l7.41,7.41Zm0,7.4v-7.4H26.8Z" transform="translate(0 0)"/><path class="cls-1" d="M30.5,461l-3.7,3.71h7.4v-7.41Z" transform="translate(0 0)"/><path class="cls-1" d="M37.9,468.4l3.71-3.7H34.2v7.4Z" transform="translate(0 0)"/><rect class="cls-3" width="68.03" height="68.03"/><path class="cls-1" d="M34,54.43A20.42,20.42,0,0,0,52.73,25.85H15.31A20.42,20.42,0,0,0,34,54.43Z" transform="translate(0 0)"/><path class="cls-2" d="M34,13.61A20.39,20.39,0,0,0,15.31,25.85a20,20,0,0,0-1,2.72H53.69a21.39,21.39,0,0,0-1-2.72A20.4,20.4,0,0,0,34,13.61Z" transform="translate(0 0)"/><path class="cls-4" d="M34,54.43A20.41,20.41,0,0,0,52.73,42.18a21.39,21.39,0,0,0,1-2.72H14.34a20,20,0,0,0,1,2.72A20.4,20.4,0,0,0,34,54.43Z" transform="translate(0 0)"/><rect class="cls-3" x="498.9" y="498.9" width="68.03" height="68.03"/><path class="cls-1" d="M532.91,553.32a20.43,20.43,0,0,0,18.72-28.57H514.2a20.41,20.41,0,0,0,18.71,28.57Z" transform="translate(0 0)"/><path class="cls-2" d="M532.91,512.5a20.42,20.42,0,0,0-18.71,12.25,21.39,21.39,0,0,0-1,2.72h39.35a21.39,21.39,0,0,0-1-2.72A20.43,20.43,0,0,0,532.91,512.5Z" transform="translate(0 0)"/><path class="cls-4" d="M532.91,553.32a20.42,20.42,0,0,0,18.72-12.24,21.39,21.39,0,0,0,1-2.72H513.24a21.39,21.39,0,0,0,1,2.72A20.42,20.42,0,0,0,532.91,553.32Z" transform="translate(0 0)"/><rect class="cls-4" x="498.9" width="68.03" height="68.03"/><rect class="cls-2" x="498.9" width="68.03" height="23.13"/><rect class="cls-1" x="498.9" y="23.13" width="68.03" height="22.68"/><path class="cls-3" d="M535.06,33.81c0-4.4-1-8-2.17-8s-2.17,3.56-2.17,8,1,8,2.17,8S535.06,38.2,535.06,33.81Z" transform="translate(0 0)"/><path class="cls-3" d="M539.49,37.51c3.11-3.1,4.94-6.31,4.09-7.16s-4.05,1-7.16,4.1-4.94,6.31-4.09,7.16S536.38,40.62,539.49,37.51Z" transform="translate(0 0)"/><path class="cls-3" d="M529.36,34.45c3.11,3.1,4.94,6.31,4.1,7.16s-4.06-1-7.16-4.1-4.94-6.31-4.1-7.16S526.26,31.34,529.36,34.45Z" transform="translate(0 0)"/><rect class="cls-4" y="498.9" width="68.03" height="68.03"/><rect class="cls-2" y="498.9" width="68.03" height="23.13"/><rect class="cls-1" y="522.03" width="68.03" height="22.68"/><path class="cls-3" d="M36.17,532.71c0-4.4-1-8-2.17-8s-2.17,3.56-2.17,8,1,7.95,2.17,7.95S36.17,537.1,36.17,532.71Z" transform="translate(0 0)"/><path class="cls-3" d="M40.6,536.41c3.1-3.11,4.94-6.31,4.09-7.16s-4.06,1-7.16,4.09-4.94,6.32-4.1,7.16S37.49,539.52,40.6,536.41Z" transform="translate(0 0)"/><path class="cls-3" d="M30.47,533.34c3.1,3.11,4.94,6.32,4.09,7.16s-4.05-1-7.16-4.09-4.94-6.31-4.09-7.16S27.36,530.24,30.47,533.34Z" transform="translate(0 0)"/><rect class="cls-4" y="136.06" width="68.03" height="90.71"/><rect class="cls-4" x="272.13" width="158.74" height="68.03"/><rect class="cls-4" x="136.06" y="498.9" width="158.74" height="68.03"/><rect class="cls-4" x="498.9" y="340.16" width="68.03" height="90.71"/><rect class="cls-1" x="317.48" width="68.03" height="68.03"/><path class="cls-2" d="M373.06,58.55c-3-2.91-4.75-5.92-4-6.73s3.85.88,6.83,3.79,4.74,5.92,3.95,6.73S376,61.45,373.06,58.55Z" transform="translate(0 0)"/><path class="cls-2" d="M372.64,64c-4.16,0-7.54-.83-7.56-2s3.35-2.09,7.51-2.14,7.54.83,7.55,2S376.8,64,372.64,64Z" transform="translate(0 0)"/><path class="cls-2" d="M377.25,55.11c.05,4.16,1,7.52,2.15,7.5s2-3.39,2-7.55-1-7.52-2.14-7.51S377.2,51,377.25,55.11Z" transform="translate(0 0)"/><circle class="cls-1" cx="378.71" cy="61.23" r="2.72"/><path class="cls-2" d="M329.94,58.55c3-2.91,4.74-5.92,3.95-6.73s-3.85.88-6.82,3.79-4.75,5.92-4,6.73S327,61.45,329.94,58.55Z" transform="translate(0 0)"/><path class="cls-2" d="M330.35,64c4.16,0,7.55-.83,7.56-2s-3.35-2.09-7.51-2.14-7.54.83-7.55,2S326.2,64,330.35,64Z" transform="translate(0 0)"/><path class="cls-2" d="M325.74,55.11c-.05,4.16-1,7.52-2.15,7.5s-2-3.39-2-7.55,1-7.52,2.15-7.51S325.79,51,325.74,55.11Z" transform="translate(0 0)"/><circle class="cls-1" cx="324.28" cy="61.23" r="2.72"/><path class="cls-2" d="M329.94,10.26c3,2.9,4.74,5.91,3.95,6.73s-3.85-.89-6.82-3.79-4.75-5.92-4-6.73S327,7.35,329.94,10.26Z" transform="translate(0 0)"/><path class="cls-2" d="M330.35,4.81c4.16,0,7.55.83,7.56,2s-3.35,2.1-7.51,2.15-7.54-.83-7.55-2S326.2,4.86,330.35,4.81Z" transform="translate(0 0)"/><path class="cls-2" d="M325.74,13.7c-.05-4.16-1-7.52-2.15-7.51s-2,3.4-2,7.56,1,7.51,2.15,7.5S325.79,17.85,325.74,13.7Z" transform="translate(0 0)"/><circle class="cls-1" cx="324.28" cy="7.58" r="2.72"/><path class="cls-2" d="M373.06,10.26c-3,2.9-4.75,5.91-4,6.73s3.85-.89,6.83-3.79,4.74-5.92,3.95-6.73S376,7.35,373.06,10.26Z" transform="translate(0 0)"/><path class="cls-2" d="M372.64,4.81c-4.16,0-7.54.83-7.56,2s3.35,2.1,7.51,2.15,7.54-.83,7.55-2S376.8,4.86,372.64,4.81Z" transform="translate(0 0)"/><path class="cls-2" d="M377.25,13.7c.06-4.16,1-7.52,2.15-7.51s2,3.4,2,7.56-1,7.51-2.14,7.5S377.2,17.85,377.25,13.7Z" transform="translate(0 0)"/><circle class="cls-1" cx="378.71" cy="7.58" r="2.72"/><path class="cls-3" d="M354,33.15c0-5.53-1.22-10-2.73-10s-2.74,4.49-2.74,10,1.23,10,2.74,10S354,38.68,354,33.15Z" transform="translate(0 0)"/><path class="cls-3" d="M359.58,37.82c3.91-3.92,6.21-7.95,5.15-9s-5.11,1.24-9,5.15-6.22,7.95-5.15,9S355.66,41.73,359.58,37.82Z" transform="translate(0 0)"/><path class="cls-3" d="M346.82,34c3.91,3.91,6.22,7.95,5.15,9s-5.1-1.24-9-5.15-6.22-7.95-5.16-9S342.91,30,346.82,34Z" transform="translate(0 0)"/><rect class="cls-1" x="181.42" y="498.9" width="68.03" height="68.03"/><path class="cls-2" d="M237,557.45c-3-2.91-4.74-5.92-4-6.73s3.85.88,6.82,3.79,4.75,5.91,4,6.73S240,560.35,237,557.45Z" transform="translate(0 0)"/><path class="cls-2" d="M236.58,562.89c-4.16.05-7.55-.82-7.56-2s3.35-2.09,7.51-2.14,7.54.82,7.55,2S240.73,562.84,236.58,562.89Z" transform="translate(0 0)"/><path class="cls-2" d="M241.19,554c.05,4.15,1,7.52,2.15,7.5s2-3.39,2-7.55-1-7.52-2.15-7.51S241.14,549.85,241.19,554Z" transform="translate(0 0)"/><circle class="cls-1" cx="242.65" cy="560.13" r="2.72"/><path class="cls-2" d="M193.87,557.45c3-2.91,4.75-5.92,4-6.73s-3.85.88-6.83,3.79-4.74,5.91-3.95,6.73S190.9,560.35,193.87,557.45Z" transform="translate(0 0)"/><path class="cls-2" d="M194.29,562.89c4.16.05,7.54-.82,7.56-2s-3.35-2.09-7.51-2.14-7.54.82-7.55,2S190.13,562.84,194.29,562.89Z" transform="translate(0 0)"/><path class="cls-2" d="M189.68,554c-.05,4.15-1,7.52-2.15,7.5s-2-3.39-2-7.55,1-7.52,2.14-7.51S189.73,549.85,189.68,554Z" transform="translate(0 0)"/><circle class="cls-1" cx="188.22" cy="560.13" r="2.72"/><path class="cls-2" d="M193.87,509.15c3,2.91,4.75,5.92,4,6.73S194,515,191,512.09s-4.74-5.91-3.95-6.73S190.9,506.25,193.87,509.15Z" transform="translate(0 0)"/><path class="cls-2" d="M194.29,503.71c4.16,0,7.54.82,7.56,2s-3.35,2.09-7.51,2.14-7.54-.82-7.55-2S190.13,503.76,194.29,503.71Z" transform="translate(0 0)"/><path class="cls-2" d="M189.68,512.59c-.05-4.15-1-7.51-2.15-7.5s-2,3.39-2,7.55,1,7.52,2.14,7.51S189.73,516.75,189.68,512.59Z" transform="translate(0 0)"/><circle class="cls-1" cx="188.22" cy="506.47" r="2.72"/><path class="cls-2" d="M237,509.15c-3,2.91-4.74,5.92-4,6.73s3.85-.88,6.82-3.79,4.75-5.91,4-6.73S240,506.25,237,509.15Z" transform="translate(0 0)"/><path class="cls-2" d="M236.58,503.71c-4.16,0-7.55.82-7.56,2s3.35,2.09,7.51,2.14,7.54-.82,7.55-2S240.73,503.76,236.58,503.71Z" transform="translate(0 0)"/><path class="cls-2" d="M241.19,512.59c.05-4.15,1-7.52,2.15-7.5s2,3.39,2,7.55-1,7.52-2.15,7.51S241.14,516.75,241.19,512.59Z" transform="translate(0 0)"/><circle class="cls-1" cx="242.65" cy="506.47" r="2.72"/><path class="cls-3" d="M217.94,532.05c0-5.54-1.23-10-2.74-10s-2.73,4.48-2.73,10,1.22,10,2.73,10S217.94,537.58,217.94,532.05Z" transform="translate(0 0)"/><path class="cls-3" d="M223.51,536.71c3.92-3.91,6.22-8,5.15-9s-5.1,1.24-9,5.15-6.22,7.95-5.16,9S219.6,540.63,223.51,536.71Z" transform="translate(0 0)"/><path class="cls-3" d="M210.76,532.85c3.91,3.91,6.22,7.95,5.15,9s-5.1-1.24-9-5.16-6.22-8-5.15-9S206.85,528.94,210.76,532.85Z" transform="translate(0 0)"/><path class="cls-6" d="M532.91,385.51V357.17l28.35,28.34Zm0,28.35V385.51H504.57Z" transform="translate(0 0)"/><path class="cls-1" d="M518.74,371.34l-14.17,14.17h28.34V357.17Z" transform="translate(0 0)"/><path class="cls-1" d="M547.09,399.68l14.17-14.17H532.91v28.35Z" transform="translate(0 0)"/><path class="cls-6" d="M34,181.42V153.07l28.34,28.35Zm0,28.34V181.42H5.67Z" transform="translate(0 0)"/><path class="cls-1" d="M19.84,167.24,5.67,181.42H34V153.07Z" transform="translate(0 0)"/><path class="cls-1" d="M48.19,195.59l14.17-14.17H34v28.34Z" transform="translate(0 0)"/></svg>