<?xml version="1.0" encoding="utf-8"?>
<!-- Generator: Adobe Illustrator 25.2.3, SVG Export Plug-In . SVG Version: 6.00 Build 0)  -->
<svg version="1.1" xmlns="http://www.w3.org/2000/svg" xmlns:xlink="http://www.w3.org/1999/xlink" x="0px" y="0px"
	 viewBox="0 0 100 100" style="enable-background:new 0 0 100 100;" xml:space="preserve">
<style type="text/css">
	.st0{fill:#FFFFFF;}
	.st1{fill:#0272BA;}
	.st2{fill:#FFFFFF;stroke:#FFFFFF;stroke-width:0.5;stroke-linecap:round;stroke-miterlimit:10;}
	.st3{fill:none;stroke:#0272BA;stroke-width:0.25;stroke-linecap:round;stroke-miterlimit:10;}
	.st4{fill:none;stroke:#0272BA;stroke-width:0.3;stroke-linecap:round;stroke-miterlimit:10;}
	.st5{fill:#0072BB;}
	.st6{fill:none;stroke:#FFFFFF;stroke-width:0.75;stroke-linecap:round;stroke-miterlimit:10;}
	.st7{fill:none;stroke:#0072BB;stroke-width:0.75;stroke-linecap:round;stroke-miterlimit:10;}
</style>
<g id="Layer_2">
	<rect class="st0" width="100" height="100"/>
</g>
<g id="Laag_1">
	<g>
		<rect y="88" class="st1" width="12" height="12"/>
		<g>
			<line class="st2" x1="6.2" y1="89.6" x2="10.3" y2="96.3"/>
			<line class="st2" x1="1.8" y1="96.3" x2="6.1" y2="89.5"/>
			<line class="st2" x1="1.8" y1="96.3" x2="10.3" y2="96.3"/>
			<line class="st2" x1="6" y1="98.4" x2="10" y2="91.8"/>
			<line class="st2" x1="1.7" y1="91.8" x2="6" y2="98.5"/>
			<line class="st2" x1="1.7" y1="91.8" x2="10" y2="91.8"/>
		</g>
	</g>
	<g>
		<rect x="88" class="st1" width="12" height="12"/>
		<g>
			<line class="st2" x1="94.2" y1="1.6" x2="98.3" y2="8.3"/>
			<line class="st2" x1="89.8" y1="8.3" x2="94.1" y2="1.5"/>
			<line class="st2" x1="89.8" y1="8.3" x2="98.3" y2="8.3"/>
			<line class="st2" x1="94" y1="10.4" x2="98" y2="3.8"/>
			<line class="st2" x1="89.7" y1="3.8" x2="94" y2="10.5"/>
			<line class="st2" x1="89.7" y1="3.8" x2="98" y2="3.8"/>
		</g>
	</g>
	<g>
		<rect class="st1" width="12" height="12"/>
		<g>
			<line class="st2" x1="6.2" y1="1.6" x2="10.3" y2="8.3"/>
			<line class="st2" x1="1.8" y1="8.3" x2="6.1" y2="1.5"/>
			<line class="st2" x1="1.8" y1="8.3" x2="10.3" y2="8.3"/>
			<line class="st2" x1="6" y1="10.4" x2="10" y2="3.8"/>
			<line class="st2" x1="1.7" y1="3.8" x2="6" y2="10.5"/>
			<line class="st2" x1="1.7" y1="3.8" x2="10" y2="3.8"/>
		</g>
	</g>
	<g>
		<rect x="88" y="88" class="st1" width="12" height="12"/>
		<g>
			<line class="st2" x1="94.2" y1="89.6" x2="98.3" y2="96.3"/>
			<line class="st2" x1="89.8" y1="96.3" x2="94.1" y2="89.5"/>
			<line class="st2" x1="89.8" y1="96.3" x2="98.3" y2="96.3"/>
			<line class="st2" x1="94" y1="98.4" x2="98" y2="91.8"/>
			<line class="st2" x1="89.7" y1="91.8" x2="94" y2="98.5"/>
			<line class="st2" x1="89.7" y1="91.8" x2="98" y2="91.8"/>
		</g>
	</g>
	<g>
		<rect x="88" y="76" class="st0" width="12" height="12"/>
		<rect x="88" y="84.9" class="st1" width="12" height="2"/>
		<rect x="88" y="77.2" class="st1" width="12" height="2"/>
		<g>
			<line class="st3" x1="94.1" y1="79.8" x2="96.2" y2="83.2"/>
			<line class="st3" x1="92" y1="83.2" x2="94.1" y2="79.8"/>
			<line class="st3" x1="92" y1="83.2" x2="96.2" y2="83.2"/>
			<line class="st3" x1="94" y1="84.2" x2="96" y2="81"/>
			<line class="st3" x1="91.9" y1="80.9" x2="94" y2="84.3"/>
			<line class="st3" x1="91.9" y1="80.9" x2="96" y2="81"/>
		</g>
	</g>
	<g>
		<rect x="76" y="88" class="st0" width="12" height="12"/>
		<rect x="76" y="96.9" class="st1" width="12" height="2"/>
		<rect x="76" y="89.2" class="st1" width="12" height="2"/>
		<g>
			<line class="st3" x1="82.1" y1="91.8" x2="84.1" y2="95.2"/>
			<line class="st3" x1="79.9" y1="95.2" x2="82.1" y2="91.8"/>
			<line class="st3" x1="79.9" y1="95.2" x2="84.1" y2="95.2"/>
			<line class="st3" x1="82" y1="96.2" x2="84" y2="93"/>
			<line class="st3" x1="79.9" y1="92.9" x2="82" y2="96.3"/>
			<line class="st3" x1="79.9" y1="92.9" x2="84" y2="93"/>
		</g>
	</g>
	<g>
		<rect x="12" y="88" class="st0" width="12" height="12"/>
		<rect x="12" y="96.9" class="st1" width="12" height="2"/>
		<rect x="12" y="89.2" class="st1" width="12" height="2"/>
		<g>
			<line class="st3" x1="18.1" y1="91.8" x2="20.1" y2="95.2"/>
			<line class="st3" x1="15.9" y1="95.2" x2="18.1" y2="91.8"/>
			<line class="st3" x1="15.9" y1="95.2" x2="20.1" y2="95.2"/>
			<line class="st3" x1="18" y1="96.2" x2="20" y2="93"/>
			<line class="st3" x1="15.9" y1="92.9" x2="18" y2="96.3"/>
			<line class="st3" x1="15.9" y1="92.9" x2="20" y2="93"/>
		</g>
	</g>
	<g>
		<rect y="76" class="st0" width="12" height="12"/>
		<rect y="84.9" class="st1" width="12" height="2"/>
		<rect y="77.2" class="st1" width="12" height="2"/>
		<g>
			<line class="st3" x1="6.1" y1="79.8" x2="8.1" y2="83.2"/>
			<line class="st3" x1="3.9" y1="83.2" x2="6.1" y2="79.8"/>
			<line class="st3" x1="3.9" y1="83.2" x2="8.1" y2="83.2"/>
			<line class="st3" x1="6" y1="84.2" x2="8" y2="81"/>
			<line class="st3" x1="3.9" y1="80.9" x2="6" y2="84.3"/>
			<line class="st3" x1="3.9" y1="80.9" x2="8" y2="81"/>
		</g>
	</g>
	<g>
		<rect x="0.1" y="12" class="st0" width="12" height="12"/>
		<rect x="0.1" y="20.9" class="st1" width="12" height="2"/>
		<rect x="0.1" y="13.2" class="st1" width="12" height="2"/>
		<g>
			<line class="st3" x1="6.1" y1="15.8" x2="8.2" y2="19.2"/>
			<line class="st3" x1="4" y1="19.2" x2="6.1" y2="15.8"/>
			<line class="st3" x1="4" y1="19.2" x2="8.2" y2="19.2"/>
			<line class="st3" x1="6.1" y1="20.2" x2="8.1" y2="17"/>
			<line class="st3" x1="3.9" y1="16.9" x2="6" y2="20.3"/>
			<line class="st3" x1="3.9" y1="16.9" x2="8.1" y2="17"/>
		</g>
	</g>
	<g>
		<rect x="88" y="12" class="st0" width="12" height="12"/>
		<rect x="88" y="20.9" class="st1" width="12" height="2"/>
		<rect x="88" y="13.2" class="st1" width="12" height="2"/>
		<g>
			<line class="st3" x1="94.1" y1="15.8" x2="96.1" y2="19.2"/>
			<line class="st3" x1="91.9" y1="19.2" x2="94.1" y2="15.8"/>
			<line class="st3" x1="91.9" y1="19.2" x2="96.1" y2="19.2"/>
			<line class="st3" x1="94" y1="20.2" x2="96" y2="17"/>
			<line class="st3" x1="91.9" y1="16.9" x2="94" y2="20.3"/>
			<line class="st3" x1="91.9" y1="16.9" x2="96" y2="17"/>
		</g>
	</g>
	<g>
		<rect x="12" y="0.6" class="st0" width="12" height="12"/>
		<rect x="12" y="9.5" class="st1" width="12" height="2"/>
		<rect x="12" y="1.7" class="st1" width="12" height="2"/>
		<g>
			<line class="st3" x1="18.1" y1="4.4" x2="20.1" y2="7.8"/>
			<line class="st3" x1="15.9" y1="7.8" x2="18.1" y2="4.4"/>
			<line class="st3" x1="15.9" y1="7.8" x2="20.1" y2="7.8"/>
			<line class="st3" x1="18" y1="8.8" x2="20" y2="5.5"/>
			<line class="st3" x1="15.9" y1="5.5" x2="18" y2="8.8"/>
			<line class="st3" x1="15.9" y1="5.5" x2="20" y2="5.5"/>
		</g>
	</g>
	<g>
		<rect x="75.9" y="0.6" class="st0" width="12" height="12"/>
		<rect x="75.9" y="9.5" class="st1" width="12" height="2"/>
		<rect x="75.9" y="1.7" class="st1" width="12" height="2"/>
		<g>
			<line class="st3" x1="82" y1="4.4" x2="84.1" y2="7.8"/>
			<line class="st3" x1="79.9" y1="7.8" x2="82" y2="4.4"/>
			<line class="st3" x1="79.9" y1="7.8" x2="84.1" y2="7.8"/>
			<line class="st3" x1="81.9" y1="8.8" x2="83.9" y2="5.5"/>
			<line class="st3" x1="79.8" y1="5.5" x2="81.9" y2="8.8"/>
			<line class="st3" x1="79.8" y1="5.5" x2="83.9" y2="5.5"/>
		</g>
	</g>
	<g>
		<line class="st4" x1="12.1" y1="27.1" x2="2.9" y2="27.1"/>
		<path class="st4" d="M6,27c-0.1-0.2-0.2-0.5-0.5-0.8C5.2,26,5,25.9,4.8,25.8c-0.4-0.1-1-0.3-1.1-0.1c-0.1,0.2,0.4,0.6,0.5,0.7
			C4.6,26.7,5,26.9,5.2,27"/>
		<path class="st4" d="M8.3,27c-0.1-0.2-0.2-0.5-0.5-0.8c-0.3-0.2-0.5-0.3-0.7-0.4c-0.4-0.1-1-0.3-1.1-0.1c-0.1,0.2,0.4,0.6,0.5,0.7
			C7,26.7,7.3,26.9,7.6,27"/>
		<path class="st4" d="M10.5,27c-0.1-0.2-0.2-0.5-0.5-0.8c-0.3-0.2-0.5-0.3-0.7-0.4c-0.4-0.1-1-0.3-1.1-0.1
			c-0.1,0.2,0.4,0.6,0.5,0.7c0.3,0.3,0.7,0.4,0.9,0.5"/>
		<path class="st4" d="M4,27c-0.1-0.2-0.2-0.5-0.5-0.8C3.2,26,3,25.9,2.8,25.8c-0.4-0.1-1-0.3-1.1-0.1c-0.1,0.2,0.4,0.6,0.5,0.7
			C2.6,26.7,3,26.9,3.2,27"/>
		<path class="st4" d="M10.5,27.2c-0.1,0.2-0.2,0.5-0.5,0.8c-0.3,0.2-0.5,0.3-0.7,0.4c-0.4,0.1-1,0.3-1.1,0.1
			c-0.1-0.2,0.4-0.6,0.5-0.7c0.3-0.3,0.7-0.4,0.9-0.5"/>
		<path class="st4" d="M8.3,27.2c-0.1,0.2-0.2,0.5-0.5,0.8c-0.3,0.2-0.5,0.3-0.7,0.4c-0.4,0.1-1,0.3-1.1,0.1
			c-0.1-0.2,0.4-0.6,0.5-0.7c0.3-0.3,0.7-0.4,0.9-0.5"/>
		<path class="st4" d="M6,27.2c-0.1,0.2-0.2,0.5-0.5,0.8c-0.3,0.2-0.5,0.3-0.7,0.4c-0.4,0.1-1,0.3-1.1,0.1c-0.1-0.2,0.4-0.6,0.5-0.7
			c0.3-0.3,0.7-0.4,0.9-0.5"/>
		<path class="st4" d="M3.9,27.2c-0.1,0.2-0.2,0.5-0.5,0.8c-0.3,0.2-0.5,0.3-0.7,0.4c-0.4,0.1-1,0.3-1.1,0.1
			c-0.1-0.2,0.4-0.6,0.5-0.7c0.3-0.3,0.7-0.4,0.9-0.5"/>
		<path class="st4" d="M2.8,27.1c-0.2-0.1-0.5-0.3-0.9-0.3c-0.3,0-0.6,0.1-0.8,0.1c-0.4,0.1-0.9,0.4-0.9,0.6c0,0.2,0.7,0.2,0.9,0.2
			c0.5,0,0.8-0.1,1.1-0.2"/>
	</g>
	<g>
		<line class="st4" x1="27.4" y1="12.3" x2="27.4" y2="3.1"/>
		<path class="st4" d="M27.3,6.2c-0.2-0.1-0.5-0.2-0.8-0.5c-0.2-0.3-0.3-0.5-0.4-0.7c-0.1-0.4-0.3-1-0.1-1.1
			c0.2-0.1,0.6,0.4,0.7,0.5c0.3,0.3,0.4,0.7,0.5,0.9"/>
		<path class="st4" d="M27.3,8.5c-0.2-0.1-0.5-0.2-0.8-0.5c-0.2-0.3-0.3-0.5-0.4-0.7c-0.1-0.4-0.3-1-0.1-1.1
			c0.2-0.1,0.6,0.4,0.7,0.5c0.3,0.3,0.4,0.7,0.5,0.9"/>
		<path class="st4" d="M27.3,10.7c-0.2-0.1-0.5-0.2-0.8-0.5c-0.2-0.3-0.3-0.5-0.4-0.7c-0.1-0.4-0.3-1-0.1-1.1
			c0.2-0.1,0.6,0.4,0.7,0.5c0.3,0.3,0.4,0.7,0.5,0.9"/>
		<path class="st4" d="M27.3,4.2c-0.2-0.1-0.5-0.2-0.8-0.5c-0.2-0.3-0.3-0.5-0.4-0.7C26,2.7,25.9,2,26.1,2c0.2-0.1,0.6,0.4,0.7,0.5
			c0.3,0.3,0.4,0.7,0.5,0.9"/>
		<path class="st4" d="M27.5,10.7c0.2-0.1,0.5-0.2,0.8-0.5c0.2-0.3,0.3-0.5,0.4-0.7c0.1-0.4,0.3-1,0.1-1.1c-0.2-0.1-0.6,0.4-0.7,0.5
			c-0.3,0.3-0.4,0.7-0.5,0.9"/>
		<path class="st4" d="M27.5,8.5C27.7,8.4,28,8.3,28.3,8c0.2-0.3,0.3-0.5,0.4-0.7c0.1-0.4,0.3-1,0.1-1.1c-0.2-0.1-0.6,0.4-0.7,0.5
			c-0.3,0.3-0.4,0.7-0.5,0.9"/>
		<path class="st4" d="M27.5,6.2C27.7,6.1,28,6,28.3,5.7c0.2-0.3,0.3-0.5,0.4-0.7c0.1-0.4,0.3-1,0.1-1.1c-0.2-0.1-0.6,0.4-0.7,0.5
			c-0.3,0.3-0.4,0.7-0.5,0.9"/>
		<path class="st4" d="M27.5,4.1c0.2-0.1,0.5-0.2,0.8-0.5c0.2-0.3,0.3-0.5,0.4-0.7c0.1-0.4,0.3-1,0.1-1.1c-0.2-0.1-0.6,0.4-0.7,0.5
			c-0.3,0.3-0.4,0.7-0.5,0.9"/>
		<path class="st4" d="M27.4,3c-0.1-0.2-0.3-0.5-0.3-0.9c0-0.3,0.1-0.6,0.1-0.8c0.1-0.4,0.4-0.9,0.6-0.9c0.2,0,0.2,0.7,0.2,0.9
			c0,0.5-0.1,0.8-0.2,1.1"/>
	</g>
	<g>
		<line class="st4" x1="27.8" y1="87.7" x2="27.8" y2="97"/>
		<path class="st4" d="M27.7,93.8c-0.2,0.1-0.5,0.2-0.8,0.5c-0.2,0.3-0.3,0.5-0.4,0.7c-0.1,0.4-0.3,1-0.1,1.1
			c0.2,0.1,0.6-0.4,0.7-0.5c0.3-0.3,0.4-0.7,0.5-0.9"/>
		<path class="st4" d="M27.7,91.5c-0.2,0.1-0.5,0.2-0.8,0.5c-0.2,0.3-0.3,0.5-0.4,0.7c-0.1,0.4-0.3,1-0.1,1.1
			c0.2,0.1,0.6-0.4,0.7-0.5c0.3-0.3,0.4-0.7,0.5-0.9"/>
		<path class="st4" d="M27.7,89.3c-0.2,0.1-0.5,0.2-0.8,0.5c-0.2,0.3-0.3,0.5-0.4,0.7c-0.1,0.4-0.3,1-0.1,1.1
			c0.2,0.1,0.6-0.4,0.7-0.5c0.3-0.3,0.4-0.7,0.5-0.9"/>
		<path class="st4" d="M27.7,95.8c-0.2,0.1-0.5,0.2-0.8,0.5c-0.2,0.3-0.3,0.5-0.4,0.7c-0.1,0.4-0.3,1-0.1,1.1
			c0.2,0.1,0.6-0.4,0.7-0.5c0.3-0.3,0.4-0.7,0.5-0.9"/>
		<path class="st4" d="M27.9,89.4c0.2,0.1,0.5,0.2,0.8,0.5c0.2,0.3,0.3,0.5,0.4,0.7c0.1,0.4,0.3,1,0.1,1.1c-0.2,0.1-0.6-0.4-0.7-0.5
			c-0.3-0.3-0.4-0.7-0.5-0.9"/>
		<path class="st4" d="M27.9,91.6c0.2,0.1,0.5,0.2,0.8,0.5c0.2,0.3,0.3,0.5,0.4,0.7c0.1,0.4,0.3,1,0.1,1.1c-0.2,0.1-0.6-0.4-0.7-0.5
			c-0.3-0.3-0.4-0.7-0.5-0.9"/>
		<path class="st4" d="M27.9,93.8c0.2,0.1,0.5,0.2,0.8,0.5c0.2,0.3,0.3,0.5,0.4,0.7c0.1,0.4,0.3,1,0.1,1.1c-0.2,0.1-0.6-0.4-0.7-0.5
			c-0.3-0.3-0.4-0.7-0.5-0.9"/>
		<path class="st4" d="M27.9,95.9c0.2,0.1,0.5,0.2,0.8,0.5c0.2,0.3,0.3,0.5,0.4,0.7c0.1,0.4,0.3,1,0.1,1.1c-0.2,0.1-0.6-0.4-0.7-0.5
			c-0.3-0.3-0.4-0.7-0.5-0.9"/>
		<path class="st4" d="M27.9,97c-0.1,0.2-0.3,0.5-0.3,0.9c0,0.3,0.1,0.6,0.1,0.8c0.1,0.4,0.4,0.9,0.6,0.9c0.2,0,0.2-0.7,0.2-0.9
			c0-0.5-0.1-0.8-0.2-1.1"/>
	</g>
	<g>
		<line class="st4" x1="72" y1="87.6" x2="72" y2="96.8"/>
		<path class="st4" d="M71.9,93.7c-0.2,0.1-0.5,0.2-0.8,0.5c-0.2,0.3-0.3,0.5-0.4,0.7c-0.1,0.4-0.3,1-0.1,1.1
			c0.2,0.1,0.6-0.4,0.7-0.5c0.3-0.3,0.4-0.7,0.5-0.9"/>
		<path class="st4" d="M71.9,91.4c-0.2,0.1-0.5,0.2-0.8,0.5c-0.2,0.3-0.3,0.5-0.4,0.7c-0.1,0.4-0.3,1-0.1,1.1
			c0.2,0.1,0.6-0.4,0.7-0.5c0.3-0.3,0.4-0.7,0.5-0.9"/>
		<path class="st4" d="M71.9,89.2c-0.2,0.1-0.5,0.2-0.8,0.5c-0.2,0.3-0.3,0.5-0.4,0.7c-0.1,0.4-0.3,1-0.1,1.1
			c0.2,0.1,0.6-0.4,0.7-0.5c0.3-0.3,0.4-0.7,0.5-0.9"/>
		<path class="st4" d="M71.9,95.7c-0.2,0.1-0.5,0.2-0.8,0.5c-0.2,0.3-0.3,0.5-0.4,0.7c-0.1,0.4-0.3,1-0.1,1.1
			c0.2,0.1,0.6-0.4,0.7-0.5c0.3-0.3,0.4-0.7,0.5-0.9"/>
		<path class="st4" d="M72,89.3c0.2,0.1,0.5,0.2,0.8,0.5c0.2,0.3,0.3,0.5,0.4,0.7c0.1,0.4,0.3,1,0.1,1.1c-0.2,0.1-0.6-0.4-0.7-0.5
			c-0.3-0.3-0.4-0.7-0.5-0.9"/>
		<path class="st4" d="M72,91.5c0.2,0.1,0.5,0.2,0.8,0.5c0.2,0.3,0.3,0.5,0.4,0.7c0.1,0.4,0.3,1,0.1,1.1c-0.2,0.1-0.6-0.4-0.7-0.5
			c-0.3-0.3-0.4-0.7-0.5-0.9"/>
		<path class="st4" d="M72,93.7c0.2,0.1,0.5,0.2,0.8,0.5c0.2,0.3,0.3,0.5,0.4,0.7c0.1,0.4,0.3,1,0.1,1.1c-0.2,0.1-0.6-0.4-0.7-0.5
			c-0.3-0.3-0.4-0.7-0.5-0.9"/>
		<path class="st4" d="M72,95.8c0.2,0.1,0.5,0.2,0.8,0.5c0.2,0.3,0.3,0.5,0.4,0.7c0.1,0.4,0.3,1,0.1,1.1c-0.2,0.1-0.6-0.4-0.7-0.5
			c-0.3-0.3-0.4-0.7-0.5-0.9"/>
		<path class="st4" d="M72,96.9c-0.1,0.2-0.3,0.5-0.3,0.9c0,0.3,0.1,0.6,0.1,0.8c0.1,0.4,0.4,0.9,0.6,0.9c0.2,0,0.2-0.7,0.2-0.9
			c0-0.5-0.1-0.8-0.2-1.1"/>
	</g>
	<g>
		<line class="st4" x1="72" y1="12.5" x2="72" y2="3.3"/>
		<path class="st4" d="M71.9,6.4c-0.2-0.1-0.5-0.2-0.8-0.5c-0.2-0.3-0.3-0.5-0.4-0.7c-0.1-0.4-0.3-1-0.1-1.1
			c0.2-0.1,0.6,0.4,0.7,0.5c0.3,0.3,0.4,0.7,0.5,0.9"/>
		<path class="st4" d="M71.9,8.7c-0.2-0.1-0.5-0.2-0.8-0.5c-0.2-0.3-0.3-0.5-0.4-0.7c-0.1-0.4-0.3-1-0.1-1.1
			c0.2-0.1,0.6,0.4,0.7,0.5c0.3,0.3,0.4,0.7,0.5,0.9"/>
		<path class="st4" d="M71.9,10.9c-0.2-0.1-0.5-0.2-0.8-0.5c-0.2-0.3-0.3-0.5-0.4-0.7c-0.1-0.4-0.3-1-0.1-1.1
			c0.2-0.1,0.6,0.4,0.7,0.5c0.3,0.3,0.4,0.7,0.5,0.9"/>
		<path class="st4" d="M71.9,4.4c-0.2-0.1-0.5-0.2-0.8-0.5c-0.2-0.3-0.3-0.5-0.4-0.7c-0.1-0.4-0.3-1-0.1-1.1
			c0.2-0.1,0.6,0.4,0.7,0.5c0.3,0.3,0.4,0.7,0.5,0.9"/>
		<path class="st4" d="M72.1,10.9c0.2-0.1,0.5-0.2,0.8-0.5c0.2-0.3,0.3-0.5,0.4-0.7c0.1-0.4,0.3-1,0.1-1.1c-0.2-0.1-0.6,0.4-0.7,0.5
			c-0.3,0.3-0.4,0.7-0.5,0.9"/>
		<path class="st4" d="M72.1,8.6c0.2-0.1,0.5-0.2,0.8-0.5c0.2-0.3,0.3-0.5,0.4-0.7c0.1-0.4,0.3-1,0.1-1.1c-0.2-0.1-0.6,0.4-0.7,0.5
			c-0.3,0.3-0.4,0.7-0.5,0.9"/>
		<path class="st4" d="M72.1,6.4c0.2-0.1,0.5-0.2,0.8-0.5c0.2-0.3,0.3-0.5,0.4-0.7c0.1-0.4,0.3-1,0.1-1.1c-0.2-0.1-0.6,0.4-0.7,0.5
			c-0.3,0.3-0.4,0.7-0.5,0.9"/>
		<path class="st4" d="M72.1,4.3c0.2-0.1,0.5-0.2,0.8-0.5c0.2-0.3,0.3-0.5,0.4-0.7c0.1-0.4,0.3-1,0.1-1.1c-0.2-0.1-0.6,0.4-0.7,0.5
			c-0.3,0.3-0.4,0.7-0.5,0.9"/>
		<path class="st4" d="M72,3.2c-0.1-0.2-0.3-0.5-0.3-0.9c0-0.3,0.1-0.6,0.1-0.8c0.1-0.4,0.4-0.9,0.6-0.9c0.2,0,0.2,0.7,0.2,0.9
			c0,0.5-0.1,0.8-0.2,1.1"/>
	</g>
	<g>
		<line class="st4" x1="12.1" y1="72.9" x2="2.8" y2="72.9"/>
		<path class="st4" d="M5.9,72.8c-0.1-0.2-0.2-0.5-0.5-0.8c-0.3-0.2-0.5-0.3-0.7-0.4c-0.4-0.1-1-0.3-1.1-0.1
			c-0.1,0.2,0.4,0.6,0.5,0.7c0.3,0.3,0.7,0.4,0.9,0.5"/>
		<path class="st4" d="M8.3,72.8c-0.1-0.2-0.2-0.5-0.5-0.8c-0.3-0.2-0.5-0.3-0.7-0.4c-0.4-0.1-1-0.3-1.1-0.1
			c-0.1,0.2,0.4,0.6,0.5,0.7c0.3,0.3,0.7,0.4,0.9,0.5"/>
		<path class="st4" d="M10.5,72.8c-0.1-0.2-0.2-0.5-0.5-0.8c-0.3-0.2-0.5-0.3-0.7-0.4c-0.4-0.1-1-0.3-1.1-0.1
			c-0.1,0.2,0.4,0.6,0.5,0.7c0.3,0.3,0.7,0.4,0.9,0.5"/>
		<path class="st4" d="M4,72.8c-0.1-0.2-0.2-0.5-0.5-0.8c-0.3-0.2-0.5-0.3-0.7-0.4c-0.4-0.1-1-0.3-1.1-0.1c-0.1,0.2,0.4,0.6,0.5,0.7
			c0.3,0.3,0.7,0.4,0.9,0.5"/>
		<path class="st4" d="M10.4,73c-0.1,0.2-0.2,0.5-0.5,0.8c-0.3,0.2-0.5,0.3-0.7,0.4c-0.4,0.1-1,0.3-1.1,0.1
			c-0.1-0.2,0.4-0.6,0.5-0.7c0.3-0.3,0.7-0.4,0.9-0.5"/>
		<path class="st4" d="M8.2,73c-0.1,0.2-0.2,0.5-0.5,0.8C7.4,74,7.2,74.1,7,74.1c-0.4,0.1-1,0.3-1.1,0.1c-0.1-0.2,0.4-0.6,0.5-0.7
			c0.3-0.3,0.7-0.4,0.9-0.5"/>
		<path class="st4" d="M5.9,73c-0.1,0.2-0.2,0.5-0.5,0.8c-0.3,0.2-0.5,0.3-0.7,0.4c-0.4,0.1-1,0.3-1.1,0.1c-0.1-0.2,0.4-0.6,0.5-0.7
			c0.3-0.3,0.7-0.4,0.9-0.5"/>
		<path class="st4" d="M3.9,73c-0.1,0.2-0.2,0.5-0.5,0.8c-0.3,0.2-0.5,0.3-0.7,0.4c-0.4,0.1-1,0.3-1.1,0.1c-0.1-0.2,0.4-0.6,0.5-0.7
			c0.3-0.3,0.7-0.4,0.9-0.5"/>
		<path class="st4" d="M2.7,72.9c-0.2-0.1-0.5-0.3-0.9-0.3c-0.3,0-0.6,0.1-0.8,0.1c-0.4,0.1-0.9,0.4-0.9,0.6c0,0.2,0.7,0.2,0.9,0.2
			c0.5,0,0.8-0.1,1.1-0.2"/>
	</g>
	<g>
		<line class="st4" x1="87.9" y1="26.8" x2="97.2" y2="26.8"/>
		<path class="st4" d="M94,26.7c0.1-0.2,0.2-0.5,0.5-0.8c0.3-0.2,0.5-0.3,0.7-0.4c0.4-0.1,1-0.3,1.1-0.1c0.1,0.2-0.4,0.6-0.5,0.7
			c-0.3,0.3-0.7,0.4-0.9,0.5"/>
		<path class="st4" d="M91.7,26.7c0.1-0.2,0.2-0.5,0.5-0.8c0.3-0.2,0.5-0.3,0.7-0.4c0.4-0.1,1-0.3,1.1-0.1c0.1,0.2-0.4,0.6-0.5,0.7
			c-0.3,0.3-0.7,0.4-0.9,0.5"/>
		<path class="st4" d="M89.5,26.7c0.1-0.2,0.2-0.5,0.5-0.8c0.3-0.2,0.5-0.3,0.7-0.4c0.4-0.1,1-0.3,1.1-0.1c0.1,0.2-0.4,0.6-0.5,0.7
			c-0.3,0.3-0.7,0.4-0.9,0.5"/>
		<path class="st4" d="M96,26.7c0.1-0.2,0.2-0.5,0.5-0.8c0.3-0.2,0.5-0.3,0.7-0.4c0.4-0.1,1-0.3,1.1-0.1c0.1,0.2-0.4,0.6-0.5,0.7
			c-0.3,0.3-0.7,0.4-0.9,0.5"/>
		<path class="st4" d="M89.6,26.9c0.1,0.2,0.2,0.5,0.5,0.8c0.3,0.2,0.5,0.3,0.7,0.4c0.4,0.1,1,0.3,1.1,0.1c0.1-0.2-0.4-0.6-0.5-0.7
			c-0.3-0.3-0.7-0.4-0.9-0.5"/>
		<path class="st4" d="M91.8,26.9c0.1,0.2,0.2,0.5,0.5,0.8c0.3,0.2,0.5,0.3,0.7,0.4c0.4,0.1,1,0.3,1.1,0.1c0.1-0.2-0.4-0.6-0.5-0.7
			c-0.3-0.3-0.7-0.4-0.9-0.5"/>
		<path class="st4" d="M94,26.9c0.1,0.2,0.2,0.5,0.5,0.8c0.3,0.2,0.5,0.3,0.7,0.4c0.4,0.1,1,0.3,1.1,0.1c0.1-0.2-0.4-0.6-0.5-0.7
			c-0.3-0.3-0.7-0.4-0.9-0.5"/>
		<path class="st4" d="M96.1,26.9c0.1,0.2,0.2,0.5,0.5,0.8c0.3,0.2,0.5,0.3,0.7,0.4c0.4,0.1,1,0.3,1.1,0.1c0.1-0.2-0.4-0.6-0.5-0.7
			c-0.3-0.3-0.7-0.4-0.9-0.5"/>
		<path class="st4" d="M97.2,26.8c0.2-0.1,0.5-0.3,0.9-0.3c0.3,0,0.6,0.1,0.8,0.1c0.4,0.1,0.9,0.4,0.9,0.6c0,0.2-0.7,0.2-0.9,0.2
			c-0.5,0-0.8-0.1-1.1-0.2"/>
	</g>
	<g>
		<line class="st4" x1="88.1" y1="72.9" x2="97.4" y2="72.9"/>
		<path class="st4" d="M94.3,72.8c0.1-0.2,0.2-0.5,0.5-0.8c0.3-0.2,0.5-0.3,0.7-0.4c0.4-0.1,1-0.3,1.1-0.1c0.1,0.2-0.4,0.6-0.5,0.7
			c-0.3,0.3-0.7,0.4-0.9,0.5"/>
		<path class="st4" d="M91.9,72.8c0.1-0.2,0.2-0.5,0.5-0.8c0.3-0.2,0.5-0.3,0.7-0.4c0.4-0.1,1-0.3,1.1-0.1c0.1,0.2-0.4,0.6-0.5,0.7
			c-0.3,0.3-0.7,0.4-0.9,0.5"/>
		<path class="st4" d="M89.8,72.8c0.1-0.2,0.2-0.5,0.5-0.8c0.3-0.2,0.5-0.3,0.7-0.4c0.4-0.1,1-0.3,1.1-0.1c0.1,0.2-0.4,0.6-0.5,0.7
			c-0.3,0.3-0.7,0.4-0.9,0.5"/>
		<path class="st4" d="M96.3,72.8c0.1-0.2,0.2-0.5,0.5-0.8c0.3-0.2,0.5-0.3,0.7-0.4c0.4-0.1,1-0.3,1.1-0.1c0.1,0.2-0.4,0.6-0.5,0.7
			c-0.3,0.3-0.7,0.4-0.9,0.5"/>
		<path class="st4" d="M89.8,73c0.1,0.2,0.2,0.5,0.5,0.8c0.3,0.2,0.5,0.3,0.7,0.4c0.4,0.1,1,0.3,1.1,0.1c0.1-0.2-0.4-0.6-0.5-0.7
			c-0.3-0.3-0.7-0.4-0.9-0.5"/>
		<path class="st4" d="M92,73c0.1,0.2,0.2,0.5,0.5,0.8c0.3,0.2,0.5,0.3,0.7,0.4c0.4,0.1,1,0.3,1.1,0.1c0.1-0.2-0.4-0.6-0.5-0.7
			c-0.3-0.3-0.7-0.4-0.9-0.5"/>
		<path class="st4" d="M94.3,73c0.1,0.2,0.2,0.5,0.5,0.8c0.3,0.2,0.5,0.3,0.7,0.4c0.4,0.1,1,0.3,1.1,0.1c0.1-0.2-0.4-0.6-0.5-0.7
			c-0.3-0.3-0.7-0.4-0.9-0.5"/>
		<path class="st4" d="M96.3,73c0.1,0.2,0.2,0.5,0.5,0.8c0.3,0.2,0.5,0.3,0.7,0.4c0.4,0.1,1,0.3,1.1,0.1c0.1-0.2-0.4-0.6-0.5-0.7
			c-0.3-0.3-0.7-0.4-0.9-0.5"/>
		<path class="st4" d="M97.5,72.9c0.2-0.1,0.5-0.3,0.9-0.3c0.3,0,0.6,0.1,0.8,0.1c0.4,0.1,0.9,0.4,0.9,0.6c0,0.2-0.7,0.2-0.9,0.2
			c-0.5,0-0.8-0.1-1.1-0.2"/>
	</g>
	<g>
		<rect x="32" y="0.3" class="st5" width="12" height="12"/>
		<path class="st6" d="M35.6,8.5c0-0.1-0.2-0.4-0.1-0.6c0.1-0.3,0.6-0.3,0.8-0.3c0,0,0.5,0.2,0.6,0.6c0.1,0.5-0.3,1-0.6,1.3
			C35.8,10,35,9.7,34.6,9.4c-0.8-0.6-1-1.7-1-2c-0.1-1.1,0.2-1.9,0.3-2.1c0.6-1.5,2-1.9,2.6-2.2c0.4-0.1,1.9-0.7,3.6,0.3
			c0.5,0.3,1.8,1,2.2,2.5c0.1,0.3,0.5,1.6-0.1,2.7c0,0.1-0.6,1.2-1.7,1.2c-0.2,0-0.9,0-1.3-0.7C39,8.8,38.8,8.2,39,7.8
			c0.2-0.3,0.7-0.3,0.9-0.2c0.1,0,0.4,0.2,0.4,0.5c0,0.2-0.1,0.4-0.2,0.4"/>
	</g>
	<g>
		<rect x="56" class="st5" width="12" height="12"/>
		<path class="st6" d="M59.6,8.2c0-0.1-0.2-0.4-0.1-0.6c0.1-0.3,0.6-0.3,0.8-0.3c0,0,0.5,0.2,0.6,0.6c0.1,0.5-0.3,1-0.6,1.3
			c-0.6,0.5-1.4,0.3-1.9-0.1c-0.8-0.6-1-1.7-1-2C57.4,6,57.7,5.2,57.8,5c0.6-1.5,2-1.9,2.6-2.2C60.8,2.6,62.4,2.1,64,3
			c0.5,0.3,1.8,1,2.2,2.5c0.1,0.3,0.5,1.6-0.1,2.7c0,0.1-0.6,1.2-1.7,1.2c-0.2,0-0.9,0-1.3-0.7C63,8.5,62.8,7.9,63,7.5
			c0.2-0.3,0.7-0.3,0.9-0.2c0.1,0,0.4,0.2,0.4,0.5c0,0.2-0.1,0.4-0.2,0.4"/>
	</g>
	<g>
		<rect x="44" y="0.5" class="st0" width="12" height="12"/>
		<g>
			<g>
				<path class="st7" d="M51.4,9.3c0.3-0.1,0.5,0,0.7,0.2c0.2,0.2,0.2,0.6,0.1,0.8c-0.2,0.4-0.7,0.4-1.1,0.2
					c-0.7-0.3-0.7-1.2-0.7-1.3c0-0.7,0.4-1.1,0.5-1.3c0.6-0.6,1.3-0.7,1.6-0.8c1.2-0.2,2.2,0.4,2.3,0.6c0.4,0.3,0.6,0.5,0.8,0.7"/>
				<path class="st7" d="M48.5,9.5c-0.3-0.1-0.5,0-0.7,0.2c-0.2,0.2-0.2,0.6-0.1,0.8c0.2,0.4,0.7,0.4,1.1,0.2
					c0.7-0.3,0.7-1.2,0.7-1.3c0-0.7-0.4-1.1-0.5-1.3c-0.6-0.6-1.3-0.7-1.6-0.8C46.1,7.3,45.2,7.9,45,8c-0.4,0.3-0.6,0.5-0.8,0.7"/>
				<path class="st7" d="M51.4,3.4c0.3,0.1,0.5,0,0.7-0.2c0.2-0.2,0.2-0.6,0.1-0.8c-0.2-0.4-0.7-0.4-1.1-0.2
					c-0.7,0.3-0.7,1.2-0.7,1.3c0,0.7,0.4,1.1,0.5,1.3c0.6,0.6,1.3,0.7,1.6,0.8c1.2,0.2,2.2-0.4,2.3-0.6c0.4-0.3,0.6-0.5,0.8-0.7"/>
				<path class="st7" d="M48.5,3.4c-0.3,0.1-0.5,0-0.7-0.2c-0.2-0.2-0.2-0.6-0.1-0.8c0.2-0.4,0.7-0.4,1.1-0.2
					c0.7,0.3,0.7,1.2,0.7,1.3c0,0.7-0.4,1.1-0.5,1.3c-0.6,0.6-1.3,0.7-1.6,0.8c-1.2,0.2-2.2-0.4-2.3-0.6c-0.4-0.3-0.6-0.5-0.8-0.7"
					/>
			</g>
		</g>
	</g>
	<g>
		<rect x="44" y="87.7" class="st0" width="12" height="12"/>
		<g>
			<g>
				<path class="st7" d="M51.4,96.5c0.3-0.1,0.5,0,0.7,0.2c0.2,0.2,0.2,0.6,0.1,0.8c-0.2,0.4-0.7,0.4-1.1,0.2
					c-0.7-0.3-0.7-1.2-0.7-1.3c0-0.7,0.4-1.1,0.5-1.3c0.6-0.6,1.3-0.7,1.6-0.8c1.2-0.2,2.2,0.4,2.3,0.6c0.4,0.3,0.6,0.5,0.8,0.7"/>
				<path class="st7" d="M48.5,96.7c-0.3-0.1-0.5,0-0.7,0.2c-0.2,0.2-0.2,0.6-0.1,0.8c0.2,0.4,0.7,0.4,1.1,0.2
					c0.7-0.3,0.7-1.2,0.7-1.3c0-0.7-0.4-1.1-0.5-1.3c-0.6-0.6-1.3-0.7-1.6-0.8c-1.2-0.2-2.2,0.4-2.3,0.6c-0.4,0.3-0.6,0.5-0.8,0.7"
					/>
				<path class="st7" d="M51.4,90.7c0.3,0.1,0.5,0,0.7-0.2c0.2-0.2,0.2-0.6,0.1-0.8c-0.2-0.4-0.7-0.4-1.1-0.2
					c-0.7,0.3-0.7,1.2-0.7,1.3c0,0.7,0.4,1.1,0.5,1.3c0.6,0.6,1.3,0.7,1.6,0.8c1.2,0.2,2.2-0.4,2.3-0.6c0.4-0.3,0.6-0.5,0.8-0.7"/>
				<path class="st7" d="M48.5,90.7c-0.3,0.1-0.5,0-0.7-0.2c-0.2-0.2-0.2-0.6-0.1-0.8c0.2-0.4,0.7-0.4,1.1-0.2
					c0.7,0.3,0.7,1.2,0.7,1.3c0,0.7-0.4,1.1-0.5,1.3c-0.6,0.6-1.3,0.7-1.6,0.8c-1.2,0.2-2.2-0.4-2.3-0.6c-0.4-0.3-0.6-0.5-0.8-0.7"
					/>
			</g>
		</g>
	</g>
	<g>
		<rect x="0.1" y="44.5" class="st0" width="12" height="12"/>
		<g>
			<g>
				<path class="st7" d="M8.9,49c-0.1-0.3,0-0.5,0.2-0.7c0.2-0.2,0.6-0.2,0.8-0.1c0.4,0.2,0.4,0.7,0.2,1.1C9.9,50,8.9,50,8.9,50
					c-0.7,0-1.1-0.4-1.3-0.5c-0.6-0.6-0.7-1.3-0.8-1.6c-0.2-1.2,0.4-2.2,0.6-2.3c0.3-0.4,0.5-0.6,0.7-0.8"/>
				<path class="st7" d="M9.1,52c-0.1,0.3,0,0.5,0.2,0.7c0.2,0.2,0.6,0.2,0.8,0.1c0.4-0.2,0.4-0.7,0.2-1.1C10.1,51,9.2,51,9.1,51
					c-0.7,0-1.1,0.4-1.3,0.5c-0.6,0.6-0.7,1.3-0.8,1.6c-0.2,1.2,0.4,2.2,0.6,2.3c0.3,0.4,0.5,0.6,0.7,0.8"/>
				<path class="st7" d="M3.1,49c0.1-0.3,0-0.5-0.2-0.7c-0.2-0.2-0.6-0.2-0.8-0.1c-0.4,0.2-0.4,0.7-0.2,1.1C2.1,50,3.1,50,3.1,50
					c0.7,0,1.1-0.4,1.3-0.5c0.6-0.6,0.7-1.3,0.8-1.6c0.2-1.2-0.4-2.2-0.6-2.3c-0.3-0.4-0.5-0.6-0.7-0.8"/>
				<path class="st7" d="M3.1,52c0.1,0.3,0,0.5-0.2,0.7c-0.2,0.2-0.6,0.2-0.8,0.1c-0.4-0.2-0.4-0.7-0.2-1.1C2.1,51,3.1,51,3.1,51
					c0.7,0,1.1,0.4,1.3,0.5c0.6,0.6,0.7,1.3,0.8,1.6c0.2,1.2-0.4,2.2-0.6,2.3c-0.3,0.4-0.5,0.6-0.7,0.8"/>
			</g>
		</g>
	</g>
	<g>
		<rect x="87.1" y="44" class="st0" width="12" height="12"/>
		<g>
			<g>
				<path class="st7" d="M96,48.5c-0.1-0.3,0-0.5,0.2-0.7c0.2-0.2,0.6-0.2,0.8-0.1c0.4,0.2,0.4,0.7,0.2,1.1
					c-0.3,0.7-1.2,0.7-1.3,0.7c-0.7,0-1.1-0.4-1.3-0.5c-0.6-0.6-0.7-1.3-0.8-1.6c-0.2-1.2,0.4-2.2,0.6-2.3c0.3-0.4,0.5-0.6,0.7-0.8"
					/>
				<path class="st7" d="M96.2,51.5c-0.1,0.3,0,0.5,0.2,0.7c0.2,0.2,0.6,0.2,0.8,0.1c0.4-0.2,0.4-0.7,0.2-1.1
					c-0.3-0.7-1.2-0.7-1.3-0.7c-0.7,0-1.1,0.4-1.3,0.5c-0.6,0.6-0.7,1.3-0.8,1.6c-0.2,1.2,0.4,2.2,0.6,2.3c0.3,0.4,0.5,0.6,0.7,0.8"
					/>
				<path class="st7" d="M90.1,48.5c0.1-0.3,0-0.5-0.2-0.7c-0.2-0.2-0.6-0.2-0.8-0.1c-0.4,0.2-0.4,0.7-0.2,1.1
					c0.3,0.7,1.2,0.7,1.3,0.7c0.7,0,1.1-0.4,1.3-0.5c0.6-0.6,0.7-1.3,0.8-1.6c0.2-1.2-0.4-2.2-0.6-2.3c-0.3-0.4-0.5-0.6-0.7-0.8"/>
				<path class="st7" d="M90.1,51.5c0.1,0.3,0,0.5-0.2,0.7c-0.2,0.2-0.6,0.2-0.8,0.1c-0.4-0.2-0.4-0.7-0.2-1.1
					c0.3-0.7,1.2-0.7,1.3-0.7c0.7,0,1.1,0.4,1.3,0.5c0.6,0.6,0.7,1.3,0.8,1.6c0.2,1.2-0.4,2.2-0.6,2.3c-0.3,0.4-0.5,0.6-0.7,0.8"/>
			</g>
		</g>
	</g>
	<g>
		<rect x="32" y="88.4" class="st5" width="12" height="12"/>
		<path class="st6" d="M35.6,92.2c0,0.1-0.2,0.4-0.1,0.6c0.1,0.3,0.6,0.3,0.8,0.3c0,0,0.5-0.2,0.6-0.6c0.1-0.5-0.3-1-0.6-1.3
			c-0.6-0.5-1.4-0.3-1.9,0.1c-0.8,0.6-1,1.7-1,2c-0.1,1.1,0.2,1.9,0.3,2.1c0.6,1.5,2,1.9,2.6,2.2c0.4,0.1,1.9,0.7,3.6-0.3
			c0.5-0.3,1.8-1,2.2-2.5c0.1-0.3,0.5-1.6-0.1-2.7c0-0.1-0.6-1.2-1.7-1.2c-0.2,0-0.9,0-1.3,0.7c-0.2,0.3-0.3,0.9-0.1,1.3
			c0.2,0.3,0.7,0.3,0.9,0.2c0.1,0,0.4-0.2,0.4-0.5c0-0.2-0.1-0.4-0.2-0.4"/>
	</g>
	<g>
		<rect x="56.3" y="88.2" class="st5" width="12" height="12"/>
		<path class="st6" d="M59.9,92c0,0.1-0.2,0.4-0.1,0.6c0.1,0.3,0.6,0.3,0.8,0.3c0,0,0.5-0.2,0.6-0.6c0.1-0.5-0.3-1-0.6-1.3
			c-0.6-0.5-1.4-0.3-1.9,0.1c-0.8,0.6-1,1.7-1,2c-0.1,1.1,0.2,1.9,0.3,2.1c0.6,1.5,2,1.9,2.6,2.2c0.4,0.1,1.9,0.7,3.6-0.3
			c0.5-0.3,1.8-1,2.2-2.5c0.1-0.3,0.5-1.6-0.1-2.7c0-0.1-0.6-1.2-1.7-1.2c-0.2,0-0.9,0-1.3,0.7c-0.2,0.3-0.3,0.9-0.1,1.3
			c0.2,0.3,0.7,0.3,0.9,0.2c0.1,0,0.4-0.2,0.4-0.5c0-0.2-0.1-0.4-0.2-0.4"/>
	</g>
	<g>
		<rect x="-0.1" y="32.5" class="st5" width="12" height="12"/>
		<path class="st6" d="M8.1,40.8c-0.1,0-0.4,0.2-0.6,0.1c-0.3-0.1-0.3-0.6-0.3-0.8c0,0,0.2-0.5,0.6-0.6c0.5-0.1,1,0.3,1.3,0.6
			c0.5,0.6,0.3,1.4-0.1,1.9c-0.6,0.8-1.7,1-2,1c-1.1,0.1-1.9-0.2-2.1-0.3c-1.5-0.6-1.9-2-2.2-2.6c-0.1-0.4-0.7-1.9,0.3-3.6
			c0.3-0.5,1-1.8,2.5-2.2c0.3-0.1,1.6-0.5,2.7,0.1c0.1,0,1.2,0.6,1.2,1.7c0,0.2,0,0.9-0.7,1.3c-0.3,0.2-0.9,0.3-1.3,0.1
			c-0.3-0.2-0.3-0.7-0.2-0.9c0-0.1,0.2-0.4,0.5-0.4c0.2,0,0.4,0.1,0.4,0.2"/>
	</g>
	<g>
		<rect x="0.1" y="56.5" class="st5" width="12" height="12"/>
		<path class="st6" d="M8.3,64.8c-0.1,0-0.4,0.2-0.6,0.1c-0.3-0.1-0.3-0.6-0.3-0.8c0,0,0.2-0.5,0.6-0.6c0.5-0.1,1,0.3,1.3,0.6
			c0.5,0.6,0.3,1.4-0.1,1.9c-0.6,0.8-1.7,1-2,1c-1.1,0.1-1.9-0.2-2.1-0.3c-1.5-0.6-1.9-2-2.2-2.6c-0.1-0.4-0.7-1.9,0.3-3.6
			c0.3-0.5,1-1.8,2.5-2.2c0.3-0.1,1.6-0.5,2.7,0.1c0.1,0,1.2,0.6,1.2,1.7c0,0.2,0,0.9-0.7,1.3c-0.3,0.2-0.9,0.3-1.3,0.1
			c-0.3-0.2-0.3-0.7-0.2-0.9c0-0.1,0.2-0.4,0.5-0.4c0.2,0,0.4,0.1,0.4,0.2"/>
	</g>
	<g>
		<rect x="88" y="32" class="st5" width="12" height="12"/>
		<path class="st6" d="M91.8,40.3c0.1,0,0.4,0.2,0.6,0.1c0.3-0.1,0.3-0.6,0.3-0.8c0,0-0.2-0.5-0.6-0.6c-0.5-0.1-1,0.3-1.3,0.6
			c-0.5,0.6-0.3,1.4,0.1,1.9c0.6,0.8,1.7,1,2,1c1.1,0.1,1.9-0.2,2.1-0.3c1.5-0.6,1.9-2,2.2-2.6c0.1-0.4,0.7-1.9-0.3-3.6
			c-0.3-0.5-1-1.8-2.5-2.2c-0.3-0.1-1.6-0.5-2.7,0.1c-0.1,0-1.2,0.6-1.2,1.7c0,0.2,0,0.9,0.7,1.3c0.3,0.2,0.9,0.3,1.3,0.1
			c0.3-0.2,0.3-0.7,0.2-0.9c0-0.1-0.2-0.4-0.5-0.4c-0.2,0-0.4,0.1-0.4,0.2"/>
	</g>
	<g>
		<rect x="87.6" y="55.6" class="st5" width="12" height="12"/>
		<path class="st6" d="M91.4,63.9c0.1,0,0.4,0.2,0.6,0.1c0.3-0.1,0.3-0.6,0.3-0.8c0,0-0.2-0.5-0.6-0.6c-0.5-0.1-1,0.3-1.3,0.6
			c-0.5,0.6-0.3,1.4,0.1,1.9c0.6,0.8,1.7,1,2,1c1.1,0.1,1.9-0.2,2.1-0.3c1.5-0.6,1.9-2,2.2-2.6c0.1-0.4,0.7-1.9-0.3-3.6
			c-0.3-0.5-1-1.8-2.5-2.2c-0.3-0.1-1.6-0.5-2.7,0.1c-0.1,0-1.2,0.6-1.2,1.7c0,0.2,0,0.9,0.7,1.3c0.3,0.2,0.9,0.3,1.3,0.1
			c0.3-0.2,0.3-0.7,0.2-0.9c0-0.1-0.2-0.4-0.5-0.4c-0.2,0-0.4,0.1-0.4,0.2"/>
	</g>
</g>
</svg>
