<svg id="Laag_1" data-name="Laag 1" xmlns="http://www.w3.org/2000/svg" viewBox="0 0 566.93 566.93"><defs><style>.cls-1,.cls-5{fill:#fff;}.cls-2,.cls-4{fill:#168f62;}.cls-3,.cls-6,.cls-7{fill:#d61536;}.cls-4{stroke:#d61536;stroke-width:2px;}.cls-5,.cls-7{fill-rule:evenodd;}.cls-6{stroke:#178e6a;}</style></defs><rect class="cls-1" width="566.93" height="566.93"/><path class="cls-2" d="M68.09,0H.06V68Z" transform="translate(-0.06 -0.01)"/><path class="cls-3" d="M.06,68h68V0Z" transform="translate(-0.06 -0.01)"/><circle class="cls-1" cx="34.02" cy="34.02" r="19.05"/><path class="cls-2" d="M34.27,34.37A11.15,11.15,0,0,1,37.48,28c1.69-1.69,4-3,6.21-2.84,0,1-.31,3.29-3,6A11,11,0,0,1,34.27,34.37Z" transform="translate(-0.06 -0.01)"/><path class="cls-2" d="M43.5,43.78a11.12,11.12,0,0,1-6.38-3.21c-1.69-1.69-3-4-2.85-6.2,1,0,3.29.3,6,3A11,11,0,0,1,43.5,43.78Z" transform="translate(-0.06 -0.01)"/><path class="cls-2" d="M25,25a11.09,11.09,0,0,1,6.38,3.21c1.69,1.69,3,4,2.85,6.21-1,0-3.29-.31-6-3A11,11,0,0,1,25,25Z" transform="translate(-0.06 -0.01)"/><path class="cls-2" d="M34.27,34.37a11.12,11.12,0,0,1-3.21,6.38c-1.69,1.69-4,3-6.2,2.85,0-1,.3-3.29,3-6A11,11,0,0,1,34.27,34.37Z" transform="translate(-0.06 -0.01)"/><path class="cls-3" d="M34.27,34.22a8.14,8.14,0,0,1-1.63-4.95,6.22,6.22,0,0,1,1.73-4.67c.51.5,1.54,1.85,1.54,4.67A8,8,0,0,1,34.27,34.22Z" transform="translate(-0.06 -0.01)"/><path class="cls-3" d="M43.89,34.31a8.07,8.07,0,0,1-5,1.64,6.23,6.23,0,0,1-4.67-1.73c.51-.51,1.86-1.54,4.67-1.54A8.06,8.06,0,0,1,43.89,34.31Z" transform="translate(-0.06 -0.01)"/><path class="cls-3" d="M24.65,34.12a8.14,8.14,0,0,1,5-1.63,6.22,6.22,0,0,1,4.67,1.73c-.51.51-1.86,1.54-4.67,1.54A8,8,0,0,1,24.65,34.12Z" transform="translate(-0.06 -0.01)"/><path class="cls-3" d="M34.27,34.22a8.13,8.13,0,0,1,1.64,5,6.23,6.23,0,0,1-1.73,4.67c-.52-.51-1.54-1.86-1.54-4.67A8.06,8.06,0,0,1,34.27,34.22Z" transform="translate(-0.06 -0.01)"/><path class="cls-2" d="M68.09,498.91H.06v68Z" transform="translate(-0.06 -0.01)"/><path class="cls-3" d="M.06,566.94h68v-68Z" transform="translate(-0.06 -0.01)"/><circle class="cls-1" cx="34.02" cy="532.91" r="19.05"/><path class="cls-2" d="M34.27,533.26a11.12,11.12,0,0,1,3.21-6.38c1.69-1.69,4-3,6.21-2.85,0,1-.31,3.3-3,6A11,11,0,0,1,34.27,533.26Z" transform="translate(-0.06 -0.01)"/><path class="cls-2" d="M43.5,542.68a11.12,11.12,0,0,1-6.38-3.21c-1.69-1.69-3-4-2.85-6.21,1,0,3.29.31,6,3A11,11,0,0,1,43.5,542.68Z" transform="translate(-0.06 -0.01)"/><path class="cls-2" d="M25,523.85a11.09,11.09,0,0,1,6.38,3.21c1.69,1.69,3,4,2.85,6.2-1,0-3.29-.3-6-3A11,11,0,0,1,25,523.85Z" transform="translate(-0.06 -0.01)"/><path class="cls-2" d="M34.27,533.26a11.15,11.15,0,0,1-3.21,6.39c-1.69,1.69-4,3-6.2,2.84,0-1,.3-3.29,3-6A11.07,11.07,0,0,1,34.27,533.26Z" transform="translate(-0.06 -0.01)"/><path class="cls-3" d="M34.27,533.12a8.17,8.17,0,0,1-1.63-5,6.25,6.25,0,0,1,1.73-4.67c.51.51,1.54,1.86,1.54,4.67A8,8,0,0,1,34.27,533.12Z" transform="translate(-0.06 -0.01)"/><path class="cls-3" d="M43.89,533.21a8.07,8.07,0,0,1-5,1.64,6.23,6.23,0,0,1-4.67-1.73c.51-.52,1.86-1.54,4.67-1.54A8.06,8.06,0,0,1,43.89,533.21Z" transform="translate(-0.06 -0.01)"/><path class="cls-3" d="M24.65,533a8.15,8.15,0,0,1,5-1.64,6.19,6.19,0,0,1,4.67,1.74c-.51.51-1.86,1.54-4.67,1.54A8.08,8.08,0,0,1,24.65,533Z" transform="translate(-0.06 -0.01)"/><path class="cls-3" d="M34.27,533.12a8.13,8.13,0,0,1,1.64,5,6.23,6.23,0,0,1-1.73,4.67c-.52-.51-1.54-1.86-1.54-4.67A8,8,0,0,1,34.27,533.12Z" transform="translate(-0.06 -0.01)"/><path class="cls-2" d="M567,0H499V68Z" transform="translate(-0.06 -0.01)"/><path class="cls-3" d="M499,68h68V0Z" transform="translate(-0.06 -0.01)"/><circle class="cls-1" cx="532.91" cy="34.02" r="19.05"/><path class="cls-2" d="M533.17,34.37A11.15,11.15,0,0,1,536.38,28c1.69-1.69,4-3,6.2-2.84,0,1-.3,3.29-3,6A11,11,0,0,1,533.17,34.37Z" transform="translate(-0.06 -0.01)"/><path class="cls-2" d="M542.4,43.78A11.09,11.09,0,0,1,536,40.57c-1.69-1.69-3-4-2.85-6.2,1,0,3.29.3,6,3A11,11,0,0,1,542.4,43.78Z" transform="translate(-0.06 -0.01)"/><path class="cls-2" d="M523.94,25a11.09,11.09,0,0,1,6.38,3.21c1.69,1.69,3,4,2.85,6.21-1,0-3.29-.31-6-3A11,11,0,0,1,523.94,25Z" transform="translate(-0.06 -0.01)"/><path class="cls-2" d="M533.17,34.37A11.12,11.12,0,0,1,530,40.75c-1.69,1.69-4,3-6.21,2.85,0-1,.31-3.29,3-6A11,11,0,0,1,533.17,34.37Z" transform="translate(-0.06 -0.01)"/><path class="cls-3" d="M533.17,34.22a8.15,8.15,0,0,1-1.64-4.95,6.19,6.19,0,0,1,1.74-4.67c.51.5,1.53,1.85,1.53,4.67A8.09,8.09,0,0,1,533.17,34.22Z" transform="translate(-0.06 -0.01)"/><path class="cls-3" d="M542.79,34.31A8.09,8.09,0,0,1,537.84,36a6.22,6.22,0,0,1-4.67-1.73c.5-.51,1.86-1.54,4.67-1.54A8.09,8.09,0,0,1,542.79,34.31Z" transform="translate(-0.06 -0.01)"/><path class="cls-3" d="M523.55,34.12a8.12,8.12,0,0,1,5-1.63,6.23,6.23,0,0,1,4.67,1.73c-.51.51-1.86,1.54-4.67,1.54A8,8,0,0,1,523.55,34.12Z" transform="translate(-0.06 -0.01)"/><path class="cls-3" d="M533.17,34.22a8.12,8.12,0,0,1,1.63,5,6.23,6.23,0,0,1-1.73,4.67c-.51-.51-1.54-1.86-1.54-4.67A8,8,0,0,1,533.17,34.22Z" transform="translate(-0.06 -0.01)"/><path class="cls-2" d="M567,498.91H499v68Z" transform="translate(-0.06 -0.01)"/><path class="cls-3" d="M499,566.94h68v-68Z" transform="translate(-0.06 -0.01)"/><circle class="cls-1" cx="532.91" cy="532.91" r="19.05"/><path class="cls-2" d="M533.17,533.26a11.12,11.12,0,0,1,3.21-6.38c1.69-1.69,4-3,6.2-2.85,0,1-.3,3.3-3,6A11,11,0,0,1,533.17,533.26Z" transform="translate(-0.06 -0.01)"/><path class="cls-2" d="M542.4,542.68a11.09,11.09,0,0,1-6.38-3.21c-1.69-1.69-3-4-2.85-6.21,1,0,3.29.31,6,3A11,11,0,0,1,542.4,542.68Z" transform="translate(-0.06 -0.01)"/><path class="cls-2" d="M523.94,523.85a11.09,11.09,0,0,1,6.38,3.21c1.69,1.69,3,4,2.85,6.2-1,0-3.29-.3-6-3A11,11,0,0,1,523.94,523.85Z" transform="translate(-0.06 -0.01)"/><path class="cls-2" d="M533.17,533.26a11.15,11.15,0,0,1-3.21,6.39c-1.69,1.69-4,3-6.21,2.84,0-1,.31-3.29,3-6A11,11,0,0,1,533.17,533.26Z" transform="translate(-0.06 -0.01)"/><path class="cls-3" d="M533.17,533.12a8.18,8.18,0,0,1-1.64-5,6.22,6.22,0,0,1,1.74-4.67c.51.51,1.53,1.86,1.53,4.67A8.1,8.1,0,0,1,533.17,533.12Z" transform="translate(-0.06 -0.01)"/><path class="cls-3" d="M542.79,533.21a8.09,8.09,0,0,1-4.95,1.64,6.22,6.22,0,0,1-4.67-1.73c.5-.52,1.86-1.54,4.67-1.54A8.09,8.09,0,0,1,542.79,533.21Z" transform="translate(-0.06 -0.01)"/><path class="cls-3" d="M523.55,533a8.13,8.13,0,0,1,5-1.64,6.2,6.2,0,0,1,4.67,1.74c-.51.51-1.86,1.54-4.67,1.54A8.05,8.05,0,0,1,523.55,533Z" transform="translate(-0.06 -0.01)"/><path class="cls-3" d="M533.17,533.12a8.12,8.12,0,0,1,1.63,5,6.23,6.23,0,0,1-1.73,4.67c-.51-.51-1.54-1.86-1.54-4.67A8,8,0,0,1,533.17,533.12Z" transform="translate(-0.06 -0.01)"/><rect class="cls-1" y="68.03" width="68.03" height="68.03"/><path class="cls-3" d="M45,68H68.09v68H45Z" transform="translate(-0.06 -0.01)"/><rect class="cls-2" y="68.03" width="22.68" height="68.03"/><rect class="cls-1" x="498.9" y="68.03" width="68.03" height="68.03"/><path class="cls-3" d="M543.86,68H567v68H543.86Z" transform="translate(-0.06 -0.01)"/><rect class="cls-2" x="498.9" y="68.03" width="22.68" height="68.03"/><rect class="cls-1" x="68.03" width="68.03" height="68.03"/><path class="cls-3" d="M113,0h23.14V68H113Z" transform="translate(-0.06 -0.01)"/><rect class="cls-2" x="68.03" width="22.68" height="68.03"/><rect class="cls-1" x="68.03" y="498.9" width="68.03" height="68.03"/><path class="cls-3" d="M113,498.91h23.14v68H113Z" transform="translate(-0.06 -0.01)"/><rect class="cls-2" x="68.03" y="498.9" width="22.68" height="68.03"/><rect class="cls-1" y="430.87" width="68.03" height="68.03"/><path class="cls-3" d="M45,430.88H68.09v68H45Z" transform="translate(-0.06 -0.01)"/><rect class="cls-2" y="430.87" width="22.68" height="68.03"/><rect class="cls-1" x="430.87" y="498.9" width="68.03" height="68.03"/><path class="cls-3" d="M475.83,498.91H499v68H475.83Z" transform="translate(-0.06 -0.01)"/><rect class="cls-2" x="430.87" y="498.9" width="22.68" height="68.03"/><rect class="cls-1" x="498.9" y="430.87" width="68.03" height="68.03"/><path class="cls-3" d="M543.86,430.88H567v68H543.86Z" transform="translate(-0.06 -0.01)"/><rect class="cls-2" x="498.9" y="430.87" width="22.68" height="68.03"/><rect class="cls-1" x="430.87" width="68.03" height="68.03"/><path class="cls-3" d="M475.83,0H499V68H475.83Z" transform="translate(-0.06 -0.01)"/><rect class="cls-2" x="430.87" width="22.68" height="68.03"/><rect class="cls-3" y="136.06" width="68.03" height="294.8"/><rect class="cls-3" x="498.9" y="136.06" width="68.03" height="294.8"/><rect class="cls-3" x="136.06" width="294.8" height="68.03"/><rect class="cls-3" x="136.06" y="498.9" width="294.8" height="68.03"/><rect class="cls-1" x="136.06" width="68.03" height="68.03"/><path class="cls-4" d="M181.55,6.81H158.73l-15.8,15.8V45.44l15.8,15.8h22.82l15.8-15.8V22.61Z" transform="translate(-0.06 -0.01)"/><path class="cls-5" d="M157,41.15c2.41-3.28,8-7.75,11.43-.11a2.9,2.9,0,0,0-1.2,2.35,2.87,2.87,0,0,0,2.85,2.88V40.51l0-21.45c-1.85,2.11-5.44,7.54-5.06,12.32C161.41,31.54,154.64,33.72,157,41.15Z" transform="translate(-0.06 -0.01)"/><path class="cls-1" d="M170.12,46.27A2.86,2.86,0,0,0,173,43.39a2.89,2.89,0,0,0-1.16-2.32c-.08.19-.16.37-.23.56h-1.45Z" transform="translate(-0.06 -0.01)"/><path class="cls-1" d="M171.57,41.63c.07-.19.15-.37.23-.56a2.8,2.8,0,0,0-1.68-.56v1.12Z" transform="translate(-0.06 -0.01)"/><path class="cls-1" d="M183.41,41.15c.9-3.1.54-9.38-8-9.77a23.72,23.72,0,0,0-5.21-12.32l0,21.45a2.8,2.8,0,0,1,1.68.56C173.43,37.46,177.65,33.12,183.41,41.15Z" transform="translate(-0.06 -0.01)"/><rect class="cls-1" x="498.9" y="136.06" width="68.03" height="68.03"/><path class="cls-4" d="M544.39,142.88H521.56l-15.8,15.8V181.5l15.8,15.8h22.83l15.8-15.8V158.68Z" transform="translate(-0.06 -0.01)"/><path class="cls-5" d="M519.87,177.21c2.42-3.28,8-7.75,11.44-.11a2.89,2.89,0,0,0,1.64,5.23v-5.76l0-21.45c-1.84,2.12-5.43,7.54-5.05,12.33C524.24,167.61,517.47,169.78,519.87,177.21Z" transform="translate(-0.06 -0.01)"/><path class="cls-1" d="M533,182.33a2.86,2.86,0,0,0,2.84-2.88,2.9,2.9,0,0,0-1.15-2.32c-.09.19-.17.38-.24.56H533Z" transform="translate(-0.06 -0.01)"/><path class="cls-1" d="M534.4,177.69c.07-.18.15-.37.24-.56a2.86,2.86,0,0,0-1.69-.56v1.12Z" transform="translate(-0.06 -0.01)"/><path class="cls-1" d="M546.25,177.21c.89-3.09.53-9.38-8.06-9.76A23.74,23.74,0,0,0,533,155.12l0,21.45a2.86,2.86,0,0,1,1.69.56C536.26,173.52,540.48,169.18,546.25,177.21Z" transform="translate(-0.06 -0.01)"/><rect class="cls-1" x="362.83" y="498.9" width="68.03" height="68.03"/><path class="cls-4" d="M408.32,505.71H385.5l-15.8,15.8v22.82l15.8,15.81h22.82l15.81-15.81V521.51Z" transform="translate(-0.06 -0.01)"/><path class="cls-5" d="M383.81,540.05c2.41-3.28,8-7.75,11.44-.11a2.89,2.89,0,0,0,1.64,5.23v-5.76l0-21.45c-1.84,2.11-5.43,7.54-5.06,12.32C388.18,530.44,381.41,532.62,383.81,540.05Z" transform="translate(-0.06 -0.01)"/><path class="cls-1" d="M396.89,545.17a2.89,2.89,0,0,0,1.68-5.2c-.08.19-.16.37-.23.56h-1.45Z" transform="translate(-0.06 -0.01)"/><path class="cls-1" d="M398.34,540.53c.07-.19.15-.37.23-.56a2.74,2.74,0,0,0-1.68-.56v1.12Z" transform="translate(-0.06 -0.01)"/><path class="cls-1" d="M410.18,540.05c.9-3.1.54-9.38-8.05-9.77A23.72,23.72,0,0,0,396.92,518l0,21.45a2.74,2.74,0,0,1,1.68.56C400.2,536.36,404.42,532,410.18,540.05Z" transform="translate(-0.06 -0.01)"/><rect class="cls-1" y="362.83" width="68.03" height="68.03"/><path class="cls-4" d="M45.49,369.65H22.67l-15.8,15.8v22.82l15.8,15.8H45.49l15.8-15.8V385.45Z" transform="translate(-0.06 -0.01)"/><path class="cls-5" d="M21,404c2.42-3.28,8-7.75,11.44-.11a2.89,2.89,0,0,0,1.64,5.24v-5.77l0-21.45c-1.84,2.12-5.43,7.54-5,12.33C25.34,394.38,18.57,396.56,21,404Z" transform="translate(-0.06 -0.01)"/><path class="cls-1" d="M34.05,409.11a2.88,2.88,0,0,0,2.85-2.89,2.91,2.91,0,0,0-1.16-2.32c-.09.19-.16.38-.24.56H34.05Z" transform="translate(-0.06 -0.01)"/><path class="cls-1" d="M35.5,404.46c.08-.18.15-.37.24-.56a2.83,2.83,0,0,0-1.69-.56v1.12Z" transform="translate(-0.06 -0.01)"/><path class="cls-1" d="M47.35,404c.89-3.09.54-9.38-8.05-9.76a23.78,23.78,0,0,0-5.22-12.33l0,21.45a2.83,2.83,0,0,1,1.69.56C37.36,400.29,41.59,396,47.35,404Z" transform="translate(-0.06 -0.01)"/><rect class="cls-2" y="136.06" width="68.03" height="68.03"/><circle class="cls-1" cx="34.02" cy="170.08" r="32.66"/><circle class="cls-6" cx="34.02" cy="170.08" r="17.57"/><path class="cls-3" d="M1.42,148.32V137.43H12.31Z" transform="translate(-0.06 -0.01)"/><path class="cls-3" d="M66.73,148.32V137.43H55.85Z" transform="translate(-0.06 -0.01)"/><path class="cls-3" d="M1.42,191.86v10.88H12.31Z" transform="translate(-0.06 -0.01)"/><path class="cls-3" d="M66.73,191.86v10.88H55.85Z" transform="translate(-0.06 -0.01)"/><rect class="cls-2" x="362.83" width="68.03" height="68.03"/><circle class="cls-1" cx="396.85" cy="34.02" r="32.66"/><circle class="cls-6" cx="396.85" cy="34.02" r="17.57"/><path class="cls-3" d="M364.26,12.25V1.37h10.88Z" transform="translate(-0.06 -0.01)"/><path class="cls-3" d="M429.57,12.25V1.37H418.68Z" transform="translate(-0.06 -0.01)"/><path class="cls-3" d="M364.26,55.8V66.68h10.88Z" transform="translate(-0.06 -0.01)"/><path class="cls-3" d="M429.57,55.8V66.68H418.68Z" transform="translate(-0.06 -0.01)"/><rect class="cls-2" x="498.9" y="362.83" width="68.03" height="68.03"/><circle class="cls-1" cx="532.91" cy="396.85" r="32.66"/><circle class="cls-6" cx="532.91" cy="396.85" r="17.57"/><path class="cls-3" d="M500.32,375.09V364.2h10.89Z" transform="translate(-0.06 -0.01)"/><path class="cls-3" d="M565.63,375.09V364.2H554.75Z" transform="translate(-0.06 -0.01)"/><path class="cls-3" d="M500.32,418.63v10.88h10.89Z" transform="translate(-0.06 -0.01)"/><path class="cls-3" d="M565.63,418.63v10.88H554.75Z" transform="translate(-0.06 -0.01)"/><rect class="cls-2" x="136.06" y="498.9" width="68.03" height="68.03"/><circle class="cls-1" cx="170.08" cy="532.91" r="32.66"/><circle class="cls-6" cx="170.08" cy="532.91" r="17.57"/><path class="cls-3" d="M137.49,511.15V500.27h10.88Z" transform="translate(-0.06 -0.01)"/><path class="cls-3" d="M202.8,511.15V500.27H191.91Z" transform="translate(-0.06 -0.01)"/><path class="cls-3" d="M137.49,554.69v10.89h10.88Z" transform="translate(-0.06 -0.01)"/><path class="cls-3" d="M202.8,554.69v10.89H191.91Z" transform="translate(-0.06 -0.01)"/><rect class="cls-1" x="498.9" y="294.8" width="68.03" height="68.03"/><path class="cls-7" d="M513.32,338.83c3.62-4.92,12-11.62,17.15-.16a4.34,4.34,0,0,0-1.79,3.52,4.29,4.29,0,0,0,4.26,4.33v-8.65l0-32.17c-2.76,3.17-8.15,11.31-7.58,18.49C519.87,324.43,509.72,327.69,513.32,338.83Z" transform="translate(-0.06 -0.01)"/><path class="cls-2" d="M532.94,346.52a4.3,4.3,0,0,0,4.26-4.33,4.35,4.35,0,0,0-1.73-3.48c-.13.29-.25.57-.35.84h-2.18Z" transform="translate(-0.06 -0.01)"/><path class="cls-2" d="M535.12,339.55c.1-.27.22-.55.35-.84a4.2,4.2,0,0,0-2.53-.84v1.68Z" transform="translate(-0.06 -0.01)"/><path class="cls-2" d="M552.88,338.83c1.35-4.64.81-14.07-12.08-14.64A35.55,35.55,0,0,0,533,305.7l0,32.17a4.2,4.2,0,0,1,2.53.84C537.91,333.3,544.24,326.79,552.88,338.83Z" transform="translate(-0.06 -0.01)"/><rect class="cls-1" x="204.09" y="498.9" width="68.03" height="68.03"/><path class="cls-7" d="M218.52,542.93c3.62-4.92,12-11.63,17.15-.17a4.34,4.34,0,0,0-1.8,3.53,4.29,4.29,0,0,0,4.27,4.32V542l0-32.18c-2.76,3.17-8.15,11.31-7.58,18.49C225.07,528.52,214.92,531.79,218.52,542.93Z" transform="translate(-0.06 -0.01)"/><path class="cls-2" d="M238.14,550.61a4.33,4.33,0,0,0,2.52-7.8c-.12.28-.24.56-.35.84h-2.17Z" transform="translate(-0.06 -0.01)"/><path class="cls-2" d="M240.31,543.65c.11-.28.23-.56.35-.84a4.17,4.17,0,0,0-2.52-.84v1.68Z" transform="translate(-0.06 -0.01)"/><path class="cls-2" d="M258.08,542.93c1.34-4.64.81-14.07-12.08-14.65a35.61,35.61,0,0,0-7.82-18.49l0,32.18a4.17,4.17,0,0,1,2.52.84C243.1,537.39,249.44,530.88,258.08,542.93Z" transform="translate(-0.06 -0.01)"/><rect class="cls-1" y="204.09" width="68.03" height="68.03"/><path class="cls-7" d="M14.42,248.12c3.62-4.92,12-11.62,17.16-.16A4.33,4.33,0,0,0,34,255.81v-8.65L34.09,215c-2.77,3.17-8.15,11.31-7.58,18.49C21,233.72,10.82,237,14.42,248.12Z" transform="translate(-0.06 -0.01)"/><path class="cls-2" d="M34,255.81a4.3,4.3,0,0,0,4.27-4.32A4.37,4.37,0,0,0,36.57,248c-.13.29-.25.57-.35.84H34Z" transform="translate(-0.06 -0.01)"/><path class="cls-2" d="M36.22,248.84c.1-.27.22-.55.35-.84a4.27,4.27,0,0,0-2.53-.84v1.68Z" transform="translate(-0.06 -0.01)"/><path class="cls-2" d="M54,248.12c1.34-4.64.8-14.07-12.09-14.64A35.54,35.54,0,0,0,34.09,215L34,247.16a4.27,4.27,0,0,1,2.53.84C39,242.59,45.34,236.08,54,248.12Z" transform="translate(-0.06 -0.01)"/><rect class="cls-1" x="294.8" width="68.03" height="68.03"/><path class="cls-7" d="M309.23,44c3.62-4.92,12-11.62,17.15-.17a4.36,4.36,0,0,0-1.8,3.53,4.29,4.29,0,0,0,4.27,4.32V43.07l0-32.18c-2.76,3.18-8.15,11.31-7.58,18.49C315.78,29.62,305.63,32.89,309.23,44Z" transform="translate(-0.06 -0.01)"/><path class="cls-2" d="M328.85,51.71a4.33,4.33,0,0,0,2.52-7.8c-.13.28-.24.56-.35.84h-2.17Z" transform="translate(-0.06 -0.01)"/><path class="cls-2" d="M331,44.75c.11-.28.22-.56.35-.84a4.17,4.17,0,0,0-2.52-.84v1.68Z" transform="translate(-0.06 -0.01)"/><path class="cls-2" d="M348.79,44c1.34-4.64.8-14.07-12.08-14.65a35.7,35.7,0,0,0-7.82-18.49l0,32.18a4.17,4.17,0,0,1,2.52.84C333.81,38.49,340.14,32,348.79,44Z" transform="translate(-0.06 -0.01)"/><path class="cls-1" d="M249.51,34a14.32,14.32,0,0,1-2.89-8.75c0-3.08.88-6.34,3.06-8.25.91.89,2.72,3.28,2.72,8.25A14.2,14.2,0,0,1,249.51,34Z" transform="translate(-0.06 -0.01)"/><path class="cls-1" d="M266.52,34.2a14.43,14.43,0,0,1-8.75,2.89c-3.09,0-6.35-.89-8.26-3.07.9-.9,3.28-2.72,8.26-2.72A14.18,14.18,0,0,1,266.52,34.2Z" transform="translate(-0.06 -0.01)"/><path class="cls-1" d="M232.5,33.85A14.44,14.44,0,0,1,241.26,31c3.08,0,6.34.89,8.25,3.06-.89.91-3.28,2.73-8.25,2.73A14.19,14.19,0,0,1,232.5,33.85Z" transform="translate(-0.06 -0.01)"/><path class="cls-1" d="M249.51,34a14.37,14.37,0,0,1,2.89,8.76c0,3.08-.88,6.34-3.06,8.25-.91-.89-2.72-3.28-2.72-8.25A14.26,14.26,0,0,1,249.51,34Z" transform="translate(-0.06 -0.01)"/><path class="cls-1" d="M34.08,317.49a14.36,14.36,0,0,1-2.89-8.75c0-3.09.88-6.35,3.06-8.26.91.9,2.72,3.28,2.72,8.26A14.23,14.23,0,0,1,34.08,317.49Z" transform="translate(-0.06 -0.01)"/><path class="cls-1" d="M51.09,317.66a14.37,14.37,0,0,1-8.76,2.89c-3.08,0-6.34-.88-8.25-3.06.89-.91,3.28-2.72,8.25-2.72A14.26,14.26,0,0,1,51.09,317.66Z" transform="translate(-0.06 -0.01)"/><path class="cls-1" d="M17.07,317.32a14.36,14.36,0,0,1,8.75-2.89c3.09,0,6.35.88,8.26,3.06-.9.91-3.28,2.72-8.26,2.72A14.23,14.23,0,0,1,17.07,317.32Z" transform="translate(-0.06 -0.01)"/><path class="cls-1" d="M34.08,317.49A14.36,14.36,0,0,1,37,326.24c0,3.09-.89,6.35-3.06,8.26-.91-.9-2.72-3.28-2.72-8.26A14.16,14.16,0,0,1,34.08,317.49Z" transform="translate(-0.06 -0.01)"/><path class="cls-1" d="M317.54,538.59a14.34,14.34,0,0,1-2.89-8.75c0-3.08.89-6.35,3.06-8.26.91.9,2.72,3.29,2.72,8.26A14.14,14.14,0,0,1,317.54,538.59Z" transform="translate(-0.06 -0.01)"/><path class="cls-1" d="M334.55,538.76a14.36,14.36,0,0,1-8.75,2.89c-3.09,0-6.35-.88-8.26-3.06.9-.91,3.28-2.72,8.26-2.72A14.23,14.23,0,0,1,334.55,538.76Z" transform="translate(-0.06 -0.01)"/><path class="cls-1" d="M300.53,538.42a14.37,14.37,0,0,1,8.76-2.89c3.08,0,6.34.88,8.25,3.06-.89.91-3.28,2.72-8.25,2.72A14.2,14.2,0,0,1,300.53,538.42Z" transform="translate(-0.06 -0.01)"/><path class="cls-1" d="M317.54,538.59a14.36,14.36,0,0,1,2.89,8.75c0,3.09-.88,6.35-3.06,8.26-.9-.9-2.72-3.28-2.72-8.26A14.25,14.25,0,0,1,317.54,538.59Z" transform="translate(-0.06 -0.01)"/><path class="cls-1" d="M533,249.46a14.38,14.38,0,0,1-2.9-8.75c0-3.09.89-6.35,3.07-8.26.9.9,2.72,3.28,2.72,8.26A14.25,14.25,0,0,1,533,249.46Z" transform="translate(-0.06 -0.01)"/><path class="cls-1" d="M550,249.63a14.32,14.32,0,0,1-8.75,2.89c-3.08,0-6.35-.88-8.25-3.06.89-.91,3.28-2.72,8.25-2.72A14.14,14.14,0,0,1,550,249.63Z" transform="translate(-0.06 -0.01)"/><path class="cls-1" d="M516,249.29a14.32,14.32,0,0,1,8.75-2.89c3.08,0,6.35.88,8.26,3.06-.9.91-3.29,2.72-8.26,2.72A14.2,14.2,0,0,1,516,249.29Z" transform="translate(-0.06 -0.01)"/><path class="cls-1" d="M533,249.46a14.41,14.41,0,0,1,2.89,8.75c0,3.08-.89,6.35-3.06,8.26-.91-.9-2.73-3.29-2.73-8.26A14.13,14.13,0,0,1,533,249.46Z" transform="translate(-0.06 -0.01)"/></svg>