<?xml version="1.0" encoding="utf-8"?>
<!-- Generator: Adobe Illustrator 24.1.2, SVG Export Plug-In . SVG Version: 6.00 Build 0)  -->
<svg version="1.1" id="Laag_1" xmlns="http://www.w3.org/2000/svg" xmlns:xlink="http://www.w3.org/1999/xlink" x="0px" y="0px"
	 viewBox="0 0 100 100" style="enable-background:new 0 0 100 100;" xml:space="preserve">
<style type="text/css">
	.st0{fill:#FFFFFF;}
	.st1{fill:#BB0831;}
	.st2{clip-path:url(#SVGID_2_);}
	.st3{fill-rule:evenodd;clip-rule:evenodd;fill:#BB0831;}
	.st4{fill:none;stroke:#FFFFFF;stroke-width:0.24;}
	.st5{fill:#BB0831;stroke:#FFFFFF;stroke-width:0.24;}
	.st6{clip-path:url(#SVGID_4_);}
	.st7{clip-path:url(#SVGID_6_);}
	.st8{clip-path:url(#SVGID_8_);}
	.st9{fill:none;stroke:#BB0831;stroke-width:0.1226;stroke-linecap:round;stroke-linejoin:round;}
	.st10{clip-path:url(#SVGID_10_);}
	.st11{fill:none;stroke:#FFFFFF;stroke-width:0.2496;}
	.st12{clip-path:url(#SVGID_12_);}
	.st13{clip-path:url(#SVGID_14_);}
	.st14{clip-path:url(#SVGID_16_);}
	.st15{fill:#FFFFFF;stroke:#BB0831;stroke-width:0.24;}
</style>
<rect y="0" class="st0" width="100" height="100"/>
<rect y="0" class="st0" width="12" height="12"/>
<circle class="st1" cx="6" cy="6" r="2.4"/>
<rect x="88" y="0" class="st0" width="12" height="12"/>
<circle class="st1" cx="94" cy="6" r="2.4"/>
<rect y="88" class="st0" width="12" height="12"/>
<circle class="st1" cx="6" cy="94" r="2.4"/>
<rect x="88" y="88" class="st0" width="12" height="12"/>
<circle class="st1" cx="94" cy="94" r="2.4"/>
<rect x="36" y="0" class="st1" width="16" height="12"/>
<circle class="st0" cx="44" cy="6" r="3"/>
<rect x="48" y="88" class="st1" width="16" height="12"/>
<circle class="st0" cx="56" cy="94" r="3"/>
<rect x="88" y="36" class="st1" width="12" height="16"/>
<circle class="st0" cx="94" cy="44" r="3"/>
<rect y="48" class="st1" width="12" height="16"/>
<circle class="st0" cx="6" cy="56" r="3"/>
<g>
	<defs>
		<rect id="SVGID_1_" x="52" y="0" width="12" height="12"/>
	</defs>
	<clipPath id="SVGID_2_">
		<use xlink:href="#SVGID_1_"  style="overflow:visible;"/>
	</clipPath>
	<g class="st2">
		<rect x="52" y="0" class="st1" width="12" height="12"/>
		<path class="st3" d="M69.8,3.7c0-3.3-2.7-6-6-6c-3.3,0-6,2.7-6,6H69.8z"/>
		<path class="st4" d="M69.8,3.7c0-3.3-2.7-6.1-6-6.1c-3.3,0-6,2.8-6,6.1"/>
		<path class="st4" d="M68.6,3.7c0-2.7-2.1-4.8-4.8-4.8c-2.7,0-4.8,2.1-4.8,4.8"/>
		<path class="st4" d="M67.4,3.7c0-2-1.6-3.6-3.6-3.6c-2,0-3.6,1.6-3.6,3.6"/>
		<path class="st4" d="M66.2,3.7c0-1.3-1.1-2.4-2.4-2.4c-1.3,0-2.4,1.1-2.4,2.4"/>
		<path class="st4" d="M65.2,3.7c0-0.8-0.6-1.4-1.4-1.4s-1.4,0.6-1.4,1.4"/>
		<path class="st3" d="M57.8,3.7c0-3.3-2.7-6-6-6c-3.3,0-6,2.7-6,6H57.8z"/>
		<path class="st4" d="M57.8,3.7c0-3.3-2.7-6.1-6-6.1c-3.3,0-6,2.8-6,6.1"/>
		<path class="st4" d="M56.6,3.7c0-2.7-2.1-4.8-4.8-4.8c-2.7,0-4.8,2.1-4.8,4.8"/>
		<path class="st4" d="M55.4,3.7c0-2-1.6-3.6-3.6-3.6c-2,0-3.6,1.6-3.6,3.6"/>
		<path class="st4" d="M54.2,3.7c0-1.3-1.1-2.4-2.4-2.4c-1.3,0-2.4,1.1-2.4,2.4"/>
		<path class="st4" d="M53.2,3.7c0-0.8-0.6-1.4-1.4-1.4c-0.8,0-1.4,0.6-1.4,1.4"/>
		<path class="st3" d="M64,6.2c0-3.3-2.7-6-6-6s-6,2.7-6,6H64z"/>
		<path class="st4" d="M64,6.2c0-3.3-2.7-6.1-6-6.1s-6,2.8-6,6.1"/>
		<path class="st4" d="M62.8,6.2c0-2.7-2.1-4.8-4.8-4.8s-4.8,2.1-4.8,4.8"/>
		<path class="st4" d="M61.6,6.2c0-2-1.6-3.6-3.6-3.6c-2,0-3.6,1.6-3.6,3.6"/>
		<path class="st4" d="M60.4,6.2c0-1.3-1.1-2.4-2.4-2.4c-1.3,0-2.4,1.1-2.4,2.4"/>
		<path class="st4" d="M59.4,6.2c0-0.8-0.6-1.4-1.4-1.4s-1.4,0.6-1.4,1.4"/>
		<path class="st3" d="M68.8,9.8c0-3.3-2.7-6-6-6c-3.3,0-6,2.7-6,6H68.8z"/>
		<path class="st4" d="M68.8,9.8c0-3.3-2.7-6-6-6c-3.3,0-6,2.7-6,6"/>
		<path class="st4" d="M67.6,9.8c0-2.7-2.1-4.8-4.8-4.8C60.1,5,58,7.2,58,9.8"/>
		<path class="st4" d="M66.4,9.8c0-2-1.6-3.6-3.6-3.6s-3.6,1.6-3.6,3.6"/>
		<path class="st4" d="M65.2,9.8c0-1.3-1.1-2.4-2.4-2.4c-1.3,0-2.4,1.1-2.4,2.4"/>
		<path class="st4" d="M64.2,9.8c0-0.8-0.6-1.4-1.4-1.4S61.4,9,61.4,9.8"/>
		<path class="st3" d="M59.2,9.8c0-3.3-2.7-6-6-6c-3.3,0-6,2.7-6,6H59.2z"/>
		<path class="st4" d="M59.2,9.8c0-3.3-2.7-6-6-6c-3.3,0-6,2.7-6,6"/>
		<path class="st4" d="M58,9.8C58,7.2,55.9,5,53.2,5c-2.7,0-4.8,2.1-4.8,4.8"/>
		<path class="st4" d="M56.8,9.8c0-2-1.6-3.6-3.6-3.6c-2,0-3.6,1.6-3.6,3.6"/>
		<path class="st4" d="M55.6,9.8c0-1.3-1.1-2.4-2.4-2.4s-2.4,1.1-2.4,2.4"/>
		<path class="st4" d="M54.6,9.8c0-0.8-0.6-1.4-1.4-1.4S51.8,9,51.8,9.8"/>
		<path class="st5" d="M58,6.4c3.2,0,5.8,2.6,5.9,5.8H52.1C52.2,8.9,54.8,6.4,58,6.4z"/>
		<path class="st5" d="M58,7.6c2.5,0,4.6,2,4.7,4.6h-9.4C53.4,9.6,55.5,7.6,58,7.6z"/>
		<path class="st5" d="M58,8.8c1.9,0,3.4,1.5,3.5,3.4h-7C54.6,10.3,56.1,8.8,58,8.8z"/>
		<path class="st5" d="M58,10c1.2,0,2.2,1,2.3,2.2h-4.6C55.8,10.9,56.8,10,58,10z"/>
		<path class="st5" d="M58,10.9c0.7,0,1.3,0.5,1.3,1.2H58h-1.3C56.7,11.4,57.3,10.9,58,10.9z"/>
	</g>
</g>
<g>
	<defs>
		<rect id="SVGID_3_" x="36" y="88" width="12" height="12"/>
	</defs>
	<clipPath id="SVGID_4_">
		<use xlink:href="#SVGID_3_"  style="overflow:visible;"/>
	</clipPath>
	<g class="st6">
		<rect x="36" y="88" class="st1" width="12" height="12"/>
		<path class="st3" d="M53.8,91.7c0-3.3-2.7-6-6-6c-3.3,0-6,2.7-6,6H53.8z"/>
		<path class="st4" d="M53.8,91.7c0-3.3-2.7-6.1-6-6.1c-3.3,0-6,2.8-6,6.1"/>
		<path class="st4" d="M52.6,91.7c0-2.7-2.1-4.8-4.8-4.8c-2.7,0-4.8,2.1-4.8,4.8"/>
		<path class="st4" d="M51.4,91.7c0-2-1.6-3.6-3.6-3.6c-2,0-3.6,1.6-3.6,3.6"/>
		<path class="st4" d="M50.2,91.7c0-1.3-1.1-2.4-2.4-2.4c-1.3,0-2.4,1.1-2.4,2.4"/>
		<path class="st4" d="M49.2,91.7c0-0.8-0.6-1.4-1.4-1.4c-0.8,0-1.4,0.6-1.4,1.4"/>
		<path class="st3" d="M41.8,91.7c0-3.3-2.7-6-6-6c-3.3,0-6,2.7-6,6H41.8z"/>
		<path class="st4" d="M41.8,91.7c0-3.3-2.7-6.1-6-6.1c-3.3,0-6,2.8-6,6.1"/>
		<path class="st4" d="M40.6,91.7c0-2.7-2.1-4.8-4.8-4.8c-2.7,0-4.8,2.1-4.8,4.8"/>
		<path class="st4" d="M39.4,91.7c0-2-1.6-3.6-3.6-3.6c-2,0-3.6,1.6-3.6,3.6"/>
		<path class="st4" d="M38.2,91.7c0-1.3-1.1-2.4-2.4-2.4c-1.3,0-2.4,1.1-2.4,2.4"/>
		<path class="st4" d="M37.2,91.7c0-0.8-0.6-1.4-1.4-1.4c-0.8,0-1.4,0.6-1.4,1.4"/>
		<path class="st3" d="M48,94.2c0-3.3-2.7-6-6-6s-6,2.7-6,6H48z"/>
		<path class="st4" d="M48,94.2c0-3.3-2.7-6.1-6-6.1s-6,2.8-6,6.1"/>
		<path class="st4" d="M46.8,94.2c0-2.7-2.1-4.8-4.8-4.8s-4.8,2.1-4.8,4.8"/>
		<path class="st4" d="M45.6,94.2c0-2-1.6-3.6-3.6-3.6c-2,0-3.6,1.6-3.6,3.6"/>
		<path class="st4" d="M44.4,94.2c0-1.3-1.1-2.4-2.4-2.4c-1.3,0-2.4,1.1-2.4,2.4"/>
		<path class="st4" d="M43.4,94.2c0-0.8-0.6-1.4-1.4-1.4s-1.4,0.6-1.4,1.4"/>
		<path class="st3" d="M52.8,97.8c0-3.3-2.7-6-6-6c-3.3,0-6,2.7-6,6H52.8z"/>
		<path class="st4" d="M52.8,97.8c0-3.3-2.7-6-6-6c-3.3,0-6,2.7-6,6"/>
		<path class="st4" d="M51.6,97.8c0-2.7-2.1-4.8-4.8-4.8S42,95.2,42,97.8"/>
		<path class="st4" d="M50.4,97.8c0-2-1.6-3.6-3.6-3.6s-3.6,1.6-3.6,3.6"/>
		<path class="st4" d="M49.2,97.8c0-1.3-1.1-2.4-2.4-2.4c-1.3,0-2.4,1.1-2.4,2.4"/>
		<path class="st4" d="M48.2,97.8c0-0.8-0.6-1.4-1.4-1.4s-1.4,0.6-1.4,1.4"/>
		<path class="st3" d="M43.2,97.8c0-3.3-2.7-6-6-6c-3.3,0-6,2.7-6,6H43.2z"/>
		<path class="st4" d="M43.2,97.8c0-3.3-2.7-6-6-6c-3.3,0-6,2.7-6,6"/>
		<path class="st4" d="M42,97.8c0-2.7-2.1-4.8-4.8-4.8c-2.7,0-4.8,2.1-4.8,4.8"/>
		<path class="st4" d="M40.8,97.8c0-2-1.6-3.6-3.6-3.6c-2,0-3.6,1.6-3.6,3.6"/>
		<path class="st4" d="M39.6,97.8c0-1.3-1.1-2.4-2.4-2.4s-2.4,1.1-2.4,2.4"/>
		<path class="st4" d="M38.6,97.8c0-0.8-0.6-1.4-1.4-1.4s-1.4,0.6-1.4,1.4"/>
		<path class="st5" d="M42,94.4c3.2,0,5.8,2.6,5.9,5.8H36.1C36.2,96.9,38.8,94.4,42,94.4z"/>
		<path class="st5" d="M42,95.6c2.5,0,4.6,2,4.7,4.6h-9.4C37.4,97.6,39.5,95.6,42,95.6z"/>
		<path class="st5" d="M42,96.8c1.9,0,3.4,1.5,3.5,3.4h-7C38.6,98.3,40.1,96.8,42,96.8z"/>
		<path class="st5" d="M42,98c1.2,0,2.2,1,2.3,2.2h-4.6C39.8,98.9,40.8,98,42,98z"/>
		<path class="st5" d="M42,98.9c0.7,0,1.3,0.5,1.3,1.2H42h-1.3C40.7,99.4,41.3,98.9,42,98.9z"/>
	</g>
</g>
<g>
	<defs>
		<rect id="SVGID_5_" y="36" width="12" height="12"/>
	</defs>
	<clipPath id="SVGID_6_">
		<use xlink:href="#SVGID_5_"  style="overflow:visible;"/>
	</clipPath>
	<g class="st7">
		<rect y="36" class="st1" width="12" height="12"/>
		<path class="st3" d="M17.8,39.7c0-3.3-2.7-6-6-6s-6,2.7-6,6H17.8z"/>
		<path class="st4" d="M17.8,39.7c0-3.3-2.7-6.1-6-6.1s-6,2.8-6,6.1"/>
		<path class="st4" d="M16.6,39.7c0-2.7-2.1-4.8-4.8-4.8c-2.7,0-4.8,2.1-4.8,4.8"/>
		<path class="st4" d="M15.4,39.7c0-2-1.6-3.6-3.6-3.6c-2,0-3.6,1.6-3.6,3.6"/>
		<path class="st4" d="M14.2,39.7c0-1.3-1.1-2.4-2.4-2.4s-2.4,1.1-2.4,2.4"/>
		<path class="st4" d="M13.2,39.7c0-0.8-0.6-1.4-1.4-1.4c-0.8,0-1.4,0.6-1.4,1.4"/>
		<path class="st3" d="M5.8,39.7c0-3.3-2.7-6-6-6s-6,2.7-6,6H5.8z"/>
		<path class="st4" d="M5.8,39.7c0-3.3-2.7-6.1-6-6.1s-6,2.8-6,6.1"/>
		<path class="st4" d="M4.6,39.7c0-2.7-2.1-4.8-4.8-4.8S-5,37.1-5,39.7"/>
		<path class="st4" d="M3.4,39.7c0-2-1.6-3.6-3.6-3.6s-3.6,1.6-3.6,3.6"/>
		<path class="st4" d="M2.2,39.7c0-1.3-1.1-2.4-2.4-2.4s-2.4,1.1-2.4,2.4"/>
		<path class="st4" d="M1.2,39.7c0-0.8-0.6-1.4-1.4-1.4c-0.8,0-1.4,0.6-1.4,1.4"/>
		<path class="st3" d="M12,42.2c0-3.3-2.7-6-6-6s-6,2.7-6,6H12z"/>
		<path class="st4" d="M12,42.2c0-3.3-2.7-6.1-6-6.1s-6,2.8-6,6.1"/>
		<path class="st4" d="M10.8,42.2c0-2.7-2.1-4.8-4.8-4.8c-2.7,0-4.8,2.1-4.8,4.8"/>
		<path class="st4" d="M9.6,42.2c0-2-1.6-3.6-3.6-3.6c-2,0-3.6,1.6-3.6,3.6"/>
		<path class="st4" d="M8.4,42.2c0-1.3-1.1-2.4-2.4-2.4c-1.3,0-2.4,1.1-2.4,2.4"/>
		<path class="st4" d="M7.4,42.2c0-0.8-0.6-1.4-1.4-1.4s-1.4,0.6-1.4,1.4"/>
		<path class="st3" d="M16.8,45.8c0-3.3-2.7-6-6-6c-3.3,0-6,2.7-6,6H16.8z"/>
		<path class="st4" d="M16.8,45.8c0-3.3-2.7-6-6-6c-3.3,0-6,2.7-6,6"/>
		<path class="st4" d="M15.6,45.8c0-2.7-2.1-4.8-4.8-4.8C8.1,41,6,43.2,6,45.8"/>
		<path class="st4" d="M14.4,45.8c0-2-1.6-3.6-3.6-3.6c-2,0-3.6,1.6-3.6,3.6"/>
		<path class="st4" d="M13.2,45.8c0-1.3-1.1-2.4-2.4-2.4c-1.3,0-2.4,1.1-2.4,2.4"/>
		<path class="st4" d="M12.2,45.8c0-0.8-0.6-1.4-1.4-1.4c-0.8,0-1.4,0.6-1.4,1.4"/>
		<path class="st3" d="M7.2,45.8c0-3.3-2.7-6-6-6s-6,2.7-6,6H7.2z"/>
		<path class="st4" d="M7.2,45.8c0-3.3-2.7-6-6-6s-6,2.7-6,6"/>
		<path class="st4" d="M6,45.8C6,43.2,3.9,41,1.2,41c-2.7,0-4.8,2.1-4.8,4.8"/>
		<path class="st4" d="M4.8,45.8c0-2-1.6-3.6-3.6-3.6c-2,0-3.6,1.6-3.6,3.6"/>
		<path class="st4" d="M3.6,45.8c0-1.3-1.1-2.4-2.4-2.4c-1.3,0-2.4,1.1-2.4,2.4"/>
		<path class="st4" d="M2.6,45.8c0-0.8-0.6-1.4-1.4-1.4s-1.4,0.6-1.4,1.4"/>
		<path class="st5" d="M6,42.4c3.2,0,5.8,2.6,5.9,5.8H0.1C0.2,44.9,2.8,42.4,6,42.4z"/>
		<path class="st5" d="M6,43.6c2.5,0,4.6,2,4.7,4.6H1.3C1.4,45.6,3.5,43.6,6,43.6z"/>
		<path class="st5" d="M6,44.8c1.9,0,3.4,1.5,3.5,3.4h-7C2.6,46.3,4.1,44.8,6,44.8z"/>
		<path class="st5" d="M6,46c1.2,0,2.2,1,2.3,2.2H3.7C3.8,46.9,4.8,46,6,46z"/>
		<path class="st5" d="M6,46.9c0.7,0,1.3,0.5,1.3,1.2H6H4.7C4.7,47.4,5.3,46.9,6,46.9z"/>
	</g>
</g>
<g>
	<defs>
		<rect id="SVGID_7_" x="88" y="52" width="12" height="12"/>
	</defs>
	<clipPath id="SVGID_8_">
		<use xlink:href="#SVGID_7_"  style="overflow:visible;"/>
	</clipPath>
	<g class="st8">
		<rect x="88" y="52" class="st1" width="12" height="12"/>
		<path class="st3" d="M105.8,55.7c0-3.3-2.7-6-6-6c-3.3,0-6,2.7-6,6H105.8z"/>
		<path class="st4" d="M105.8,55.7c0-3.3-2.7-6.1-6-6.1c-3.3,0-6,2.8-6,6.1"/>
		<path class="st4" d="M104.6,55.7c0-2.7-2.1-4.8-4.8-4.8S95,53.1,95,55.7"/>
		<path class="st4" d="M103.4,55.7c0-2-1.6-3.6-3.6-3.6c-2,0-3.6,1.6-3.6,3.6"/>
		<path class="st4" d="M102.2,55.7c0-1.3-1.1-2.4-2.4-2.4c-1.3,0-2.4,1.1-2.4,2.4"/>
		<path class="st4" d="M101.2,55.7c0-0.8-0.6-1.4-1.4-1.4c-0.8,0-1.4,0.6-1.4,1.4"/>
		<path class="st3" d="M93.8,55.7c0-3.3-2.7-6-6-6c-3.3,0-6,2.7-6,6H93.8z"/>
		<path class="st4" d="M93.8,55.7c0-3.3-2.7-6.1-6-6.1c-3.3,0-6,2.8-6,6.1"/>
		<path class="st4" d="M92.6,55.7c0-2.7-2.1-4.8-4.8-4.8c-2.7,0-4.8,2.1-4.8,4.8"/>
		<path class="st4" d="M91.4,55.7c0-2-1.6-3.6-3.6-3.6c-2,0-3.6,1.6-3.6,3.6"/>
		<path class="st4" d="M90.2,55.7c0-1.3-1.1-2.4-2.4-2.4s-2.4,1.1-2.4,2.4"/>
		<path class="st4" d="M89.2,55.7c0-0.8-0.6-1.4-1.4-1.4c-0.8,0-1.4,0.6-1.4,1.4"/>
		<path class="st3" d="M100,58.2c0-3.3-2.7-6-6-6s-6,2.7-6,6H100z"/>
		<path class="st4" d="M100,58.2c0-3.3-2.7-6.1-6-6.1s-6,2.8-6,6.1"/>
		<path class="st4" d="M98.8,58.2c0-2.7-2.1-4.8-4.8-4.8s-4.8,2.1-4.8,4.8"/>
		<path class="st4" d="M97.6,58.2c0-2-1.6-3.6-3.6-3.6c-2,0-3.6,1.6-3.6,3.6"/>
		<path class="st4" d="M96.4,58.2c0-1.3-1.1-2.4-2.4-2.4c-1.3,0-2.4,1.1-2.4,2.4"/>
		<path class="st4" d="M95.4,58.2c0-0.8-0.6-1.4-1.4-1.4s-1.4,0.6-1.4,1.4"/>
		<path class="st3" d="M104.8,61.8c0-3.3-2.7-6-6-6c-3.3,0-6,2.7-6,6H104.8z"/>
		<path class="st4" d="M104.8,61.8c0-3.3-2.7-6-6-6c-3.3,0-6,2.7-6,6"/>
		<path class="st4" d="M103.6,61.8c0-2.7-2.1-4.8-4.8-4.8c-2.7,0-4.8,2.1-4.8,4.8"/>
		<path class="st4" d="M102.4,61.8c0-2-1.6-3.6-3.6-3.6c-2,0-3.6,1.6-3.6,3.6"/>
		<path class="st4" d="M101.2,61.8c0-1.3-1.1-2.4-2.4-2.4c-1.3,0-2.4,1.1-2.4,2.4"/>
		<path class="st4" d="M100.2,61.8c0-0.8-0.6-1.4-1.4-1.4c-0.8,0-1.4,0.6-1.4,1.4"/>
		<path class="st3" d="M95.2,61.8c0-3.3-2.7-6-6-6c-3.3,0-6,2.7-6,6H95.2z"/>
		<path class="st4" d="M95.2,61.8c0-3.3-2.7-6-6-6c-3.3,0-6,2.7-6,6"/>
		<path class="st4" d="M94,61.8c0-2.7-2.1-4.8-4.8-4.8c-2.7,0-4.8,2.1-4.8,4.8"/>
		<path class="st4" d="M92.8,61.8c0-2-1.6-3.6-3.6-3.6c-2,0-3.6,1.6-3.6,3.6"/>
		<path class="st4" d="M91.6,61.8c0-1.3-1.1-2.4-2.4-2.4s-2.4,1.1-2.4,2.4"/>
		<path class="st4" d="M90.6,61.8c0-0.8-0.6-1.4-1.4-1.4c-0.8,0-1.4,0.6-1.4,1.4"/>
		<path class="st5" d="M94,58.4c3.2,0,5.8,2.6,5.9,5.8H88.1C88.2,60.9,90.8,58.4,94,58.4z"/>
		<path class="st5" d="M94,59.6c2.5,0,4.6,2,4.7,4.6h-9.4C89.4,61.6,91.5,59.6,94,59.6z"/>
		<path class="st5" d="M94,60.8c1.9,0,3.4,1.5,3.5,3.4h-7C90.6,62.3,92.1,60.8,94,60.8z"/>
		<path class="st5" d="M94,62c1.2,0,2.2,1,2.3,2.2h-4.6C91.8,62.9,92.8,62,94,62z"/>
		<path class="st5" d="M94,62.9c0.7,0,1.3,0.5,1.3,1.2H94h-1.3C92.7,63.4,93.3,62.9,94,62.9z"/>
	</g>
</g>
<rect y="24" class="st0" width="12" height="12"/>
<path class="st1" d="M3.1,31.5v-5.1c0,0,0.1-0.1,0.1,0l4.9,6.8c0,0,0,0,0,0.1l-0.5,0.4c0,0,0,0,0,0H4.5c0,0,0,0,0,0L3.1,31.5
	C3.1,31.5,3.1,31.5,3.1,31.5z"/>
<path class="st1" d="M2.7,33.5l-0.5-2.3c0-0.1,0.1-0.1,0.1,0L4,33.7c0,0,0,0.1,0,0.1L2.7,33.5C2.7,33.5,2.7,33.5,2.7,33.5z"/>
<path class="st1" d="M7,31.1l-1.8-2.5c0,0,0,0,0,0l0.9-3c0,0,0.1,0,0.1,0l1.4,4.1c0,0,0,0,0,0L7,31.1C7.1,31.1,7,31.2,7,31.1z"/>
<path class="st1" d="M7.4,31.7l0.9-2.8c0,0,0,0,0,0H9c0,0,0.1,0,0,0.1l-0.7,3.9c0,0-0.1,0.1-0.1,0L7.4,31.7
	C7.4,31.7,7.4,31.7,7.4,31.7z"/>
<path class="st1" d="M9.7,28.4H8.5c0,0-0.1-0.1,0-0.1l0.5-0.5c0,0,0,0,0.1,0L9.7,28.4C9.7,28.3,9.7,28.4,9.7,28.4z"/>
<rect x="64" y="0" class="st0" width="12" height="12"/>
<path class="st1" d="M67.1,7.5V2.4c0,0,0.1-0.1,0.1,0l4.9,6.8c0,0,0,0,0,0.1l-0.5,0.4c0,0,0,0,0,0h-3.1c0,0,0,0,0,0L67.1,7.5
	C67.1,7.5,67.1,7.5,67.1,7.5z"/>
<path class="st1" d="M66.7,9.5l-0.5-2.3c0-0.1,0.1-0.1,0.1,0L68,9.7c0,0,0,0.1,0,0.1L66.7,9.5C66.7,9.5,66.7,9.5,66.7,9.5z"/>
<path class="st1" d="M71,7.1l-1.8-2.5c0,0,0,0,0,0l0.9-3c0,0,0.1,0,0.1,0l1.4,4.1c0,0,0,0,0,0L71,7.1C71.1,7.1,71,7.2,71,7.1z"/>
<path class="st1" d="M71.4,7.7l0.9-2.8c0,0,0,0,0,0H73c0,0,0.1,0,0,0.1l-0.7,3.9c0,0-0.1,0.1-0.1,0L71.4,7.7
	C71.4,7.7,71.4,7.7,71.4,7.7z"/>
<path class="st1" d="M73.7,4.4h-1.2c0,0-0.1-0.1,0-0.1l0.5-0.5c0,0,0,0,0.1,0L73.7,4.4C73.7,4.3,73.7,4.4,73.7,4.4z"/>
<rect x="88" y="64" class="st0" width="12" height="12"/>
<path class="st1" d="M91.1,71.5v-5.1c0,0,0.1-0.1,0.1,0l4.9,6.8c0,0,0,0,0,0.1l-0.5,0.4c0,0,0,0,0,0h-3.1c0,0,0,0,0,0L91.1,71.5
	C91.1,71.5,91.1,71.5,91.1,71.5z"/>
<path class="st1" d="M90.7,73.5l-0.5-2.3c0-0.1,0.1-0.1,0.1,0l1.7,2.5c0,0,0,0.1,0,0.1L90.7,73.5C90.7,73.5,90.7,73.5,90.7,73.5z"/>
<path class="st1" d="M95,71.1l-1.8-2.5c0,0,0,0,0,0l0.9-3c0,0,0.1,0,0.1,0l1.4,4.1c0,0,0,0,0,0L95,71.1C95.1,71.1,95,71.2,95,71.1z"
	/>
<path class="st1" d="M95.4,71.7l0.9-2.8c0,0,0,0,0,0H97c0,0,0.1,0,0,0.1l-0.7,3.9c0,0-0.1,0.1-0.1,0L95.4,71.7
	C95.4,71.7,95.4,71.7,95.4,71.7z"/>
<path class="st1" d="M97.7,68.4h-1.2c0,0-0.1-0.1,0-0.1l0.5-0.5c0,0,0,0,0.1,0L97.7,68.4C97.7,68.3,97.7,68.4,97.7,68.4z"/>
<rect x="24" y="88" class="st0" width="12" height="12"/>
<path class="st1" d="M27.1,95.5v-5.1c0,0,0.1-0.1,0.1,0l4.9,6.8c0,0,0,0,0,0.1l-0.5,0.4c0,0,0,0,0,0h-3.1c0,0,0,0,0,0L27.1,95.5
	C27.1,95.5,27.1,95.5,27.1,95.5z"/>
<path class="st1" d="M26.7,97.5l-0.5-2.3c0-0.1,0.1-0.1,0.1,0l1.7,2.5c0,0,0,0.1,0,0.1L26.7,97.5C26.7,97.5,26.7,97.5,26.7,97.5z"/>
<path class="st1" d="M31,95.1l-1.8-2.5c0,0,0,0,0,0l0.9-3c0,0,0.1,0,0.1,0l1.4,4.1c0,0,0,0,0,0L31,95.1C31.1,95.1,31,95.2,31,95.1z"
	/>
<path class="st1" d="M31.4,95.7l0.9-2.8c0,0,0,0,0,0H33c0,0,0.1,0,0,0.1l-0.7,3.9c0,0-0.1,0.1-0.1,0L31.4,95.7
	C31.4,95.7,31.4,95.7,31.4,95.7z"/>
<path class="st1" d="M33.7,92.4h-1.2c0,0-0.1-0.1,0-0.1l0.5-0.5c0,0,0,0,0.1,0L33.7,92.4C33.7,92.3,33.7,92.4,33.7,92.4z"/>
<rect x="12" y="0" class="st1" width="12" height="12"/>
<path class="st0" d="M16.5,5.1c-0.7,0-0.9-0.6-0.9-0.8c0-0.7,0.4-0.9,0.8-0.9C16.3,2,17.2,2,17.7,2.2c1.1-0.8,2.2,0.2,2.1,0.8
	c0.5,0.3,0.6,0.9,0.6,1.1c0,1-0.6,1.3-1,1.4c-0.7,0.1-1-0.3-1.1-0.6c-0.4-0.3-0.8-0.2-1-0.1C16.9,5.1,16.6,5.1,16.5,5.1z"/>
<path class="st9" d="M16.2,3.8C16.1,4,16,4.5,16.5,4.5c0.6,0,0.8-1,0-1.1c0,0-0.1,0-0.2,0 M18.4,4.9c-0.4-0.3-0.8-0.2-1-0.1
	c-0.4,0.2-0.8,0.3-0.9,0.3c-0.7,0-0.9-0.6-0.9-0.8c0-0.7,0.4-0.9,0.8-0.9 M18.4,4.9c0.1,0.2,0.4,0.7,1.1,0.6c0.3-0.1,1-0.4,1-1.4
	c0-0.2-0.1-0.7-0.6-1.1c0.1-0.7-1-1.6-2.1-0.8 M18.4,4.9c-0.1-0.4,0.1-1.2,0.8-1.2c0.7,0,0.9,1.2,0.1,1.2c-0.1,0-0.5,0-0.5-0.4
	c0-0.1,0.1-0.4,0.4-0.3 M17.7,2.2c0.6,0.3,0.8,1.3-0.2,1.3c-0.4,0-0.6-0.3-0.5-0.7c0.1-0.3,0.5-0.4,0.6-0.1 M17.7,2.2
	C17.2,2,16.3,2,16.4,3.3"/>
<path class="st0" d="M19.5,6.9c0.7,0,0.9,0.6,0.9,0.8c0,0.7-0.4,0.9-0.8,0.9c0.1,1.3-0.9,1.3-1.3,1.1c-1.1,0.8-2.2-0.2-2.1-0.8
	c-0.5-0.3-0.6-0.9-0.6-1.1c0-1,0.6-1.3,1-1.4c0.7-0.1,1,0.3,1.1,0.6c0.4,0.3,0.8,0.2,1,0.1C19.1,6.9,19.4,6.9,19.5,6.9z"/>
<path class="st9" d="M19.8,8.2C20,8,20,7.5,19.5,7.5c-0.6,0-0.8,1,0,1.1c0,0,0.1,0,0.2,0 M17.7,7.1c0.4,0.3,0.8,0.2,1,0.1
	c0.4-0.2,0.8-0.3,0.9-0.3c0.7,0,0.9,0.6,0.9,0.8c0,0.7-0.4,0.9-0.8,0.9 M17.7,7.1c-0.1-0.2-0.4-0.7-1.1-0.6c-0.3,0.1-1,0.4-1,1.4
	c0,0.2,0.1,0.7,0.6,1.1c-0.1,0.7,1,1.6,2.1,0.8 M17.7,7.1c0.1,0.4-0.1,1.2-0.8,1.2c-0.7,0-0.9-1.2-0.1-1.2c0.1,0,0.5,0,0.5,0.4
	c0,0.1-0.1,0.4-0.4,0.3 M18.3,9.8c-0.6-0.3-0.8-1.3,0.2-1.3c0.4,0,0.6,0.3,0.5,0.7c-0.1,0.3-0.5,0.4-0.6,0.1 M18.3,9.8
	c0.5,0.2,1.4,0.2,1.3-1.1"/>
<rect x="88" y="12" class="st1" width="12" height="12"/>
<path class="st0" d="M92.5,17.1c-0.7,0-0.9-0.6-0.9-0.8c0-0.7,0.4-0.9,0.8-0.9c-0.1-1.3,0.9-1.3,1.3-1.1c1.1-0.8,2.2,0.2,2.1,0.8
	c0.5,0.3,0.6,0.9,0.6,1.1c0,1-0.6,1.3-1,1.4c-0.7,0.1-1-0.3-1.1-0.6c-0.4-0.3-0.8-0.2-1-0.1C92.9,17.1,92.6,17.1,92.5,17.1z"/>
<path class="st9" d="M92.2,15.8c-0.2,0.2-0.2,0.6,0.3,0.7c0.6,0,0.8-1,0-1.1c0,0-0.1,0-0.2,0 M94.4,16.9c-0.4-0.3-0.8-0.2-1-0.1
	c-0.4,0.2-0.8,0.3-0.9,0.3c-0.7,0-0.9-0.6-0.9-0.8c0-0.7,0.4-0.9,0.8-0.9 M94.4,16.9c0.1,0.2,0.4,0.7,1.1,0.6c0.3-0.1,1-0.4,1-1.4
	c0-0.2-0.1-0.7-0.6-1.1c0.1-0.7-1-1.6-2.1-0.8 M94.4,16.9c-0.1-0.4,0.1-1.2,0.8-1.2c0.7,0,0.9,1.2,0.1,1.2c-0.1,0-0.5,0-0.5-0.4
	c0-0.1,0.1-0.4,0.4-0.3 M93.7,14.2c0.6,0.3,0.8,1.3-0.2,1.3c-0.4,0-0.6-0.3-0.5-0.7c0.1-0.3,0.5-0.4,0.6-0.1 M93.7,14.2
	c-0.5-0.2-1.4-0.2-1.3,1.1"/>
<path class="st0" d="M95.5,18.9c0.7,0,0.9,0.6,0.9,0.8c0,0.7-0.4,0.9-0.8,0.9c0.1,1.3-0.9,1.3-1.3,1.1c-1.1,0.8-2.2-0.2-2.1-0.8
	c-0.5-0.3-0.6-0.9-0.6-1.1c0-1,0.6-1.3,1-1.4c0.7-0.1,1,0.3,1.1,0.6c0.4,0.3,0.8,0.2,1,0.1C95.1,18.9,95.4,18.9,95.5,18.9z"/>
<path class="st9" d="M95.8,20.2c0.2-0.2,0.2-0.6-0.3-0.7c-0.6,0-0.8,1,0,1.1c0,0,0.1,0,0.2,0 M93.7,19.1c0.4,0.3,0.8,0.2,1,0.1
	c0.4-0.2,0.8-0.3,0.9-0.3c0.7,0,0.9,0.6,0.9,0.8c0,0.7-0.4,0.9-0.8,0.9 M93.7,19.1c-0.1-0.2-0.4-0.7-1.1-0.6c-0.3,0.1-1,0.4-1,1.4
	c0,0.2,0.1,0.7,0.6,1.1c-0.1,0.7,1,1.6,2.1,0.8 M93.7,19.1c0.1,0.4-0.1,1.2-0.8,1.2c-0.7,0-0.9-1.2-0.1-1.2c0.1,0,0.5,0,0.5,0.4
	c0,0.1-0.1,0.4-0.4,0.3 M94.3,21.8c-0.6-0.3-0.8-1.3,0.2-1.3c0.4,0,0.6,0.3,0.5,0.7c-0.1,0.3-0.5,0.4-0.6,0.1 M94.3,21.8
	c0.5,0.2,1.4,0.2,1.3-1.1"/>
<rect x="76" y="88" class="st1" width="12" height="12"/>
<path class="st0" d="M80.5,93.1c-0.7,0-0.9-0.6-0.9-0.8c0-0.7,0.4-0.9,0.8-0.9c-0.1-1.3,0.9-1.3,1.3-1.1c1.1-0.8,2.2,0.2,2.1,0.8
	c0.5,0.3,0.6,0.9,0.6,1.1c0,1-0.6,1.3-1,1.4c-0.7,0.1-1-0.3-1.1-0.6c-0.4-0.3-0.8-0.2-1-0.1C80.9,93.1,80.6,93.1,80.5,93.1z"/>
<path class="st9" d="M80.2,91.8c-0.2,0.2-0.2,0.6,0.3,0.7c0.6,0,0.8-1,0-1.1c0,0-0.1,0-0.2,0 M82.4,92.9c-0.4-0.3-0.8-0.2-1-0.1
	c-0.4,0.2-0.8,0.3-0.9,0.3c-0.7,0-0.9-0.6-0.9-0.8c0-0.7,0.4-0.9,0.8-0.9 M82.4,92.9c0.1,0.2,0.4,0.7,1.1,0.6c0.3-0.1,1-0.4,1-1.4
	c0-0.2-0.1-0.7-0.6-1.1c0.1-0.7-1-1.6-2.1-0.8 M82.4,92.9c-0.1-0.4,0.1-1.2,0.8-1.2c0.7,0,0.9,1.2,0.1,1.2c-0.1,0-0.5,0-0.5-0.4
	c0-0.1,0.1-0.4,0.4-0.3 M81.7,90.2c0.6,0.3,0.8,1.3-0.2,1.3c-0.4,0-0.6-0.3-0.5-0.7c0.1-0.3,0.5-0.4,0.6-0.1 M81.7,90.2
	c-0.5-0.2-1.4-0.2-1.3,1.1"/>
<path class="st0" d="M83.5,94.9c0.7,0,0.9,0.6,0.9,0.8c0,0.7-0.4,0.9-0.8,0.9c0.1,1.3-0.9,1.3-1.3,1.1c-1.1,0.8-2.2-0.2-2.1-0.8
	c-0.5-0.3-0.6-0.9-0.6-1.1c0-1,0.6-1.3,1-1.4c0.7-0.1,1,0.3,1.1,0.6c0.4,0.3,0.8,0.2,1,0.1C83.1,94.9,83.4,94.9,83.5,94.9z"/>
<path class="st9" d="M83.8,96.2c0.2-0.2,0.2-0.6-0.3-0.7c-0.6,0-0.8,1,0,1.1c0,0,0.1,0,0.2,0 M81.7,95.1c0.4,0.3,0.8,0.2,1,0.1
	c0.4-0.2,0.8-0.3,0.9-0.3c0.7,0,0.9,0.6,0.9,0.8c0,0.7-0.4,0.9-0.8,0.9 M81.7,95.1c-0.1-0.2-0.4-0.7-1.1-0.6c-0.3,0.1-1,0.4-1,1.4
	c0,0.2,0.1,0.7,0.6,1.1c-0.1,0.7,1,1.6,2.1,0.8 M81.7,95.1c0.1,0.4-0.1,1.2-0.8,1.2c-0.7,0-0.9-1.2-0.1-1.2c0.1,0,0.5,0,0.5,0.4
	c0,0.1-0.1,0.4-0.4,0.3 M82.3,97.8c-0.6-0.3-0.8-1.3,0.2-1.3c0.4,0,0.6,0.3,0.5,0.7c-0.1,0.3-0.5,0.4-0.6,0.1 M82.3,97.8
	c0.5,0.2,1.4,0.2,1.3-1.1"/>
<rect y="76" class="st1" width="12" height="12"/>
<path class="st0" d="M4.5,81.1c-0.7,0-0.9-0.6-0.9-0.8c0-0.7,0.4-0.9,0.8-0.9C4.3,78,5.2,78,5.7,78.2c1.1-0.8,2.2,0.2,2.1,0.8
	c0.5,0.3,0.6,0.9,0.6,1.1c0,1-0.6,1.3-1,1.4c-0.7,0.1-1-0.3-1.1-0.6c-0.4-0.3-0.8-0.2-1-0.1C4.9,81.1,4.6,81.1,4.5,81.1z"/>
<path class="st9" d="M4.2,79.8C4.1,80,4,80.5,4.5,80.5c0.6,0,0.8-1,0-1.1c0,0-0.1,0-0.2,0 M6.4,80.9c-0.4-0.3-0.8-0.2-1-0.1
	c-0.4,0.2-0.8,0.3-0.9,0.3c-0.7,0-0.9-0.6-0.9-0.8c0-0.7,0.4-0.9,0.8-0.9 M6.4,80.9c0.1,0.2,0.4,0.7,1.1,0.6c0.3-0.1,1-0.4,1-1.4
	c0-0.2-0.1-0.7-0.6-1.1c0.1-0.7-1-1.6-2.1-0.8 M6.4,80.9c-0.1-0.4,0.1-1.2,0.8-1.2c0.7,0,0.9,1.2,0.1,1.2c-0.1,0-0.5,0-0.5-0.4
	c0-0.1,0.1-0.4,0.4-0.3 M5.7,78.2c0.6,0.3,0.8,1.3-0.2,1.3c-0.4,0-0.6-0.3-0.5-0.7c0.1-0.3,0.5-0.4,0.6-0.1 M5.7,78.2
	C5.2,78,4.3,78,4.4,79.3"/>
<path class="st0" d="M7.5,82.9c0.7,0,0.9,0.6,0.9,0.8c0,0.7-0.4,0.9-0.8,0.9C7.8,86,6.8,86,6.3,85.8c-1.1,0.8-2.2-0.2-2.1-0.8
	c-0.5-0.3-0.6-0.9-0.6-1.1c0-1,0.6-1.3,1-1.4c0.7-0.1,1,0.3,1.1,0.6c0.4,0.3,0.8,0.2,1,0.1C7.1,82.9,7.4,82.9,7.5,82.9z"/>
<path class="st9" d="M7.8,84.2C8,84,8,83.5,7.5,83.5c-0.6,0-0.8,1,0,1.1c0,0,0.1,0,0.2,0 M5.7,83.1c0.4,0.3,0.8,0.2,1,0.1
	c0.4-0.2,0.8-0.3,0.9-0.3c0.7,0,0.9,0.6,0.9,0.8c0,0.7-0.4,0.9-0.8,0.9 M5.7,83.1c-0.1-0.2-0.4-0.7-1.1-0.6c-0.3,0.1-1,0.4-1,1.4
	c0,0.2,0.1,0.7,0.6,1.1c-0.1,0.7,1,1.6,2.1,0.8 M5.7,83.1c0.1,0.4-0.1,1.2-0.8,1.2s-0.9-1.2-0.1-1.2c0.1,0,0.5,0,0.5,0.4
	c0,0.1-0.1,0.4-0.4,0.3 M6.3,85.8c-0.6-0.3-0.8-1.3,0.2-1.3c0.4,0,0.6,0.3,0.5,0.7c-0.1,0.3-0.5,0.4-0.6,0.1 M6.3,85.8
	C6.8,86,7.8,86,7.7,84.7"/>
<g>
	<defs>
		<rect id="SVGID_9_" x="12" y="88" width="12" height="12"/>
	</defs>
	<clipPath id="SVGID_10_">
		<use xlink:href="#SVGID_9_"  style="overflow:visible;"/>
	</clipPath>
	<g class="st10">
		<rect x="12" y="88" class="st1" width="12" height="12"/>
		<circle class="st4" cx="15" cy="91" r="2.9"/>
		<circle class="st4" cx="15" cy="97" r="2.9"/>
		<circle class="st4" cx="21" cy="91" r="2.9"/>
		<circle class="st11" cx="18" cy="93.9" r="3"/>
		<circle class="st11" cx="18" cy="87.9" r="3"/>
		<circle class="st11" cx="24" cy="87.9" r="3"/>
		<circle class="st11" cx="12" cy="87.9" r="3"/>
		<circle class="st11" cx="12" cy="99.9" r="3"/>
		<circle class="st11" cx="24" cy="99.9" r="3"/>
		<circle class="st11" cx="18" cy="99.9" r="3"/>
		<circle class="st11" cx="24" cy="93.9" r="3"/>
		<circle class="st11" cx="12" cy="93.9" r="3"/>
		<circle class="st4" cx="21" cy="97" r="2.9"/>
	</g>
</g>
<g>
	<defs>
		<rect id="SVGID_11_" x="88" y="76" width="12" height="12"/>
	</defs>
	<clipPath id="SVGID_12_">
		<use xlink:href="#SVGID_11_"  style="overflow:visible;"/>
	</clipPath>
	<g class="st12">
		<rect x="88" y="76" class="st1" width="12" height="12"/>
		<circle class="st4" cx="91" cy="79" r="2.9"/>
		<circle class="st4" cx="91" cy="85" r="2.9"/>
		<circle class="st4" cx="97" cy="79" r="2.9"/>
		<circle class="st11" cx="94" cy="81.9" r="3"/>
		<circle class="st11" cx="94" cy="75.9" r="3"/>
		<circle class="st11" cx="100" cy="75.9" r="3"/>
		<circle class="st11" cx="88" cy="75.9" r="3"/>
		<circle class="st11" cx="88" cy="87.9" r="3"/>
		<circle class="st11" cx="100" cy="87.9" r="3"/>
		<circle class="st11" cx="94" cy="87.9" r="3"/>
		<circle class="st11" cx="100" cy="81.9" r="3"/>
		<circle class="st11" cx="88" cy="81.9" r="3"/>
		<circle class="st4" cx="97" cy="85" r="2.9"/>
	</g>
</g>
<g>
	<defs>
		<rect id="SVGID_13_" x="76" y="0" width="12" height="12"/>
	</defs>
	<clipPath id="SVGID_14_">
		<use xlink:href="#SVGID_13_"  style="overflow:visible;"/>
	</clipPath>
	<g class="st13">
		<rect x="76" y="0" class="st1" width="12" height="12"/>
		<circle class="st4" cx="79" cy="3" r="2.9"/>
		<circle class="st4" cx="79" cy="9" r="2.9"/>
		<circle class="st4" cx="85" cy="3" r="2.9"/>
		<circle class="st11" cx="82" cy="5.9" r="3"/>
		<circle class="st11" cx="82" cy="-0.1" r="3"/>
		<circle class="st11" cx="88" cy="-0.1" r="3"/>
		<circle class="st11" cx="76" cy="-0.1" r="3"/>
		<circle class="st11" cx="76" cy="11.9" r="3"/>
		<circle class="st11" cx="88" cy="11.9" r="3"/>
		<circle class="st11" cx="82" cy="11.9" r="3"/>
		<circle class="st11" cx="88" cy="5.9" r="3"/>
		<circle class="st11" cx="76" cy="5.9" r="3"/>
		<circle class="st4" cx="85" cy="9" r="2.9"/>
	</g>
</g>
<g>
	<defs>
		<rect id="SVGID_15_" y="12" width="12" height="12"/>
	</defs>
	<clipPath id="SVGID_16_">
		<use xlink:href="#SVGID_15_"  style="overflow:visible;"/>
	</clipPath>
	<g class="st14">
		<rect y="12" class="st1" width="12" height="12"/>
		<circle class="st4" cx="3" cy="15" r="2.9"/>
		<circle class="st4" cx="3" cy="21" r="2.9"/>
		<circle class="st4" cx="9" cy="15" r="2.9"/>
		<circle class="st11" cx="6" cy="17.9" r="3"/>
		<circle class="st11" cx="6" cy="11.9" r="3"/>
		<circle class="st11" cx="12" cy="11.9" r="3"/>
		<circle class="st11" cx="0" cy="11.9" r="3"/>
		<circle class="st11" cx="0" cy="23.9" r="3"/>
		<circle class="st11" cx="12" cy="23.9" r="3"/>
		<circle class="st11" cx="6" cy="23.9" r="3"/>
		<circle class="st11" cx="12" cy="17.9" r="3"/>
		<circle class="st11" cx="0" cy="17.9" r="3"/>
		<circle class="st4" cx="9" cy="21" r="2.9"/>
	</g>
</g>
<rect x="24" y="0" class="st0" width="12" height="12"/>
<circle class="st15" cx="30" cy="6" r="4.7"/>
<circle class="st15" cx="30" cy="6" r="3.7"/>
<circle class="st15" cx="30" cy="6" r="2.8"/>
<circle class="st15" cx="30" cy="6" r="1.8"/>
<circle class="st15" cx="30" cy="6" r="0.8"/>
<rect x="88" y="24" class="st0" width="12" height="12"/>
<circle class="st15" cx="94" cy="30" r="4.7"/>
<circle class="st15" cx="94" cy="30" r="3.7"/>
<circle class="st15" cx="94" cy="30" r="2.8"/>
<circle class="st15" cx="94" cy="30" r="1.8"/>
<circle class="st15" cx="94" cy="30" r="0.8"/>
<rect x="64" y="88" class="st0" width="12" height="12"/>
<circle class="st15" cx="70" cy="94" r="4.7"/>
<circle class="st15" cx="70" cy="94" r="3.7"/>
<circle class="st15" cx="70" cy="94" r="2.8"/>
<circle class="st15" cx="70" cy="94" r="1.8"/>
<circle class="st15" cx="70" cy="94" r="0.8"/>
<rect y="64" class="st0" width="12" height="12"/>
<circle class="st15" cx="6" cy="70" r="4.7"/>
<circle class="st15" cx="6" cy="70" r="3.7"/>
<circle class="st15" cx="6" cy="70" r="2.8"/>
<circle class="st15" cx="6" cy="70" r="1.8"/>
<circle class="st15" cx="6" cy="70" r="0.8"/>
</svg>
