<svg xmlns="http://www.w3.org/2000/svg" viewBox="0 0 100 100"><defs><style>.cls-1{fill:#fff;}.cls-2{fill:#242857;}.cls-3{fill:#f6f6f6;}.cls-4,.cls-5{fill:#b52620;}.cls-5{stroke:#fff;stroke-miterlimit:10;stroke-width:0.1px;}</style></defs><g id="Onder"><rect class="cls-1" y="0.04" width="100" height="12"/><rect class="cls-1" x="44" y="44.08" width="100" height="12" transform="translate(144.07 -43.91) rotate(90)"/><rect class="cls-1" y="88.04" width="100" height="12" transform="translate(99.99 188.09) rotate(-180)"/><rect class="cls-1" x="-44" y="44" width="100" height="12" transform="translate(-44 56.01) rotate(-90)"/></g><g id="Laag_2" data-name="Laag 2"><rect class="cls-2" x="0.12" y="0.09" width="12" height="12"/><polygon class="cls-3" points="1.23 0.09 0.11 0.09 4.98 4.72 5.96 4.72 1.23 0.09"/><polygon class="cls-3" points="4.84 0.09 5.96 0.09 1.1 4.72 0.11 4.72 4.84 0.09"/><rect class="cls-3" x="2.55" y="0.09" width="1" height="4.62"/><rect class="cls-3" x="2.54" y="-0.47" width="1" height="5.86" transform="translate(5.5 -0.58) rotate(90)"/><polygon class="cls-4" points="0.49 0.09 0.87 0.09 5.58 4.72 5.26 4.72 0.49 0.09"/><polygon class="cls-4" points="5.63 0.09 5.25 0.09 0.54 4.72 0.86 4.72 5.63 0.09"/><rect class="cls-4" x="2.78" y="0.09" width="0.53" height="4.62"/><rect class="cls-4" x="0.11" y="2.2" width="5.86" height="0.46"/><polygon class="cls-5" points="9.41 3.35 8.89 3.07 8.37 3.35 8.47 2.77 8.05 2.35 8.63 2.27 8.89 1.74 9.15 2.27 9.74 2.36 9.31 2.77 9.41 3.35"/><polygon class="cls-5" points="7.49 6.49 6.97 6.21 6.44 6.49 6.54 5.91 6.12 5.49 6.71 5.41 6.97 4.88 7.23 5.41 7.81 5.5 7.39 5.91 7.49 6.49"/><polygon class="cls-5" points="11.42 6.18 10.89 5.9 10.37 6.18 10.47 5.6 10.05 5.18 10.63 5.1 10.9 4.57 11.16 5.1 11.74 5.19 11.32 5.6 11.42 6.18"/><polygon class="cls-5" points="9.41 10.77 8.89 10.5 8.37 10.77 8.47 10.19 8.05 9.78 8.63 9.69 8.89 9.17 9.15 9.7 9.74 9.78 9.31 10.19 9.41 10.77"/><rect class="cls-2" x="88.01" y="0.02" width="12" height="12"/><polygon class="cls-3" points="89.12 0.02 87.99 0.02 92.86 4.65 93.85 4.65 89.12 0.02"/><polygon class="cls-3" points="92.72 0.02 93.85 0.02 88.98 4.65 87.99 4.65 92.72 0.02"/><rect class="cls-3" x="90.43" y="0.02" width="1" height="4.62"/><rect class="cls-3" x="90.42" y="-0.54" width="1" height="5.86" transform="translate(93.31 -88.53) rotate(90)"/><polygon class="cls-4" points="88.38 0.02 88.75 0.02 93.47 4.65 93.15 4.65 88.38 0.02"/><polygon class="cls-4" points="93.52 0.02 93.14 0.02 88.42 4.65 88.74 4.65 93.52 0.02"/><rect class="cls-4" x="90.67" y="0.02" width="0.53" height="4.62"/><rect class="cls-4" x="87.99" y="2.13" width="5.86" height="0.46"/><polygon class="cls-5" points="97.3 3.28 96.78 3 96.25 3.28 96.35 2.7 95.93 2.28 96.52 2.2 96.78 1.67 97.04 2.2 97.62 2.29 97.2 2.7 97.3 3.28"/><polygon class="cls-5" points="95.37 6.42 94.85 6.14 94.33 6.42 94.43 5.84 94.01 5.42 94.59 5.34 94.85 4.81 95.11 5.34 95.7 5.43 95.27 5.84 95.37 6.42"/><polygon class="cls-5" points="99.3 6.11 98.78 5.83 98.26 6.11 98.36 5.53 97.94 5.11 98.52 5.03 98.78 4.5 99.04 5.03 99.63 5.12 99.2 5.53 99.3 6.11"/><polygon class="cls-5" points="97.3 10.7 96.78 10.43 96.25 10.7 96.35 10.12 95.93 9.71 96.52 9.62 96.78 9.1 97.04 9.63 97.62 9.71 97.2 10.12 97.3 10.7"/><rect class="cls-2" x="88" y="88.04" width="12" height="12"/><polygon class="cls-3" points="89.11 88.04 87.99 88.04 92.86 92.67 93.84 92.67 89.11 88.04"/><polygon class="cls-3" points="92.72 88.04 93.84 88.04 88.97 92.67 87.99 92.67 92.72 88.04"/><rect class="cls-3" x="90.42" y="88.04" width="1" height="4.62"/><rect class="cls-3" x="90.41" y="87.48" width="1" height="5.86" transform="translate(181.32 -0.51) rotate(90)"/><polygon class="cls-4" points="88.37 88.04 88.75 88.04 93.46 92.67 93.14 92.67 88.37 88.04"/><polygon class="cls-4" points="93.51 88.04 93.13 88.04 88.42 92.67 88.74 92.67 93.51 88.04"/><rect class="cls-4" x="90.66" y="88.04" width="0.53" height="4.62"/><rect class="cls-4" x="87.99" y="90.15" width="5.86" height="0.46"/><polygon class="cls-5" points="97.29 91.3 96.77 91.02 96.25 91.3 96.35 90.72 95.92 90.3 96.51 90.22 96.77 89.69 97.03 90.22 97.61 90.31 97.19 90.72 97.29 91.3"/><polygon class="cls-5" points="95.36 94.44 94.84 94.16 94.32 94.44 94.42 93.86 94 93.44 94.58 93.36 94.84 92.83 95.11 93.36 95.69 93.45 95.27 93.86 95.36 94.44"/><polygon class="cls-5" points="99.29 94.13 98.77 93.85 98.25 94.13 98.35 93.55 97.93 93.13 98.51 93.05 98.78 92.52 99.03 93.05 99.62 93.14 99.19 93.55 99.29 94.13"/><polygon class="cls-5" points="97.29 98.72 96.77 98.45 96.25 98.72 96.35 98.14 95.92 97.73 96.51 97.64 96.77 97.11 97.03 97.64 97.61 97.73 97.19 98.14 97.29 98.72"/><rect class="cls-2" x="0.01" y="87.99" width="12" height="12"/><polygon class="cls-3" points="1.12 88 -0.01 88 4.86 92.62 5.85 92.62 1.12 88"/><polygon class="cls-3" points="4.72 88 5.85 88 0.98 92.62 -0.01 92.62 4.72 88"/><rect class="cls-3" x="2.43" y="87.99" width="1" height="4.62"/><rect class="cls-3" x="2.42" y="87.43" width="1" height="5.86" transform="translate(93.28 87.44) rotate(90)"/><polygon class="cls-4" points="0.38 88 0.75 88 5.47 92.62 5.15 92.62 0.38 88"/><polygon class="cls-4" points="5.51 88 5.14 88 0.43 92.62 0.74 92.62 5.51 88"/><rect class="cls-4" x="2.67" y="87.99" width="0.53" height="4.62"/><rect class="cls-4" x="-0.01" y="90.1" width="5.86" height="0.46"/><polygon class="cls-5" points="9.3 91.25 8.78 90.97 8.25 91.25 8.35 90.67 7.93 90.25 8.52 90.17 8.78 89.64 9.04 90.17 9.62 90.26 9.2 90.67 9.3 91.25"/><polygon class="cls-5" points="7.37 94.39 6.85 94.11 6.33 94.39 6.43 93.81 6.01 93.39 6.59 93.31 6.85 92.78 7.11 93.31 7.7 93.4 7.27 93.81 7.37 94.39"/><polygon class="cls-5" points="11.3 94.08 10.78 93.8 10.26 94.08 10.36 93.5 9.94 93.08 10.52 93 10.78 92.47 11.04 93 11.63 93.09 11.2 93.5 11.3 94.08"/><polygon class="cls-5" points="9.3 98.67 8.78 98.4 8.25 98.67 8.35 98.09 7.93 97.68 8.52 97.59 8.78 97.07 9.04 97.6 9.62 97.68 9.2 98.09 9.3 98.67"/><rect class="cls-2" x="44.12" y="0.04" width="12" height="12"/><rect class="cls-4" x="45.92" y="1.82" width="8.44" height="8.44" transform="translate(10.41 37.23) rotate(-45)"/><rect class="cls-1" x="47.17" y="3.06" width="5.93" height="5.99"/><rect class="cls-2" x="48.01" y="3.93" width="4.24" height="4.24" transform="translate(10.4 37.22) rotate(-45)"/><rect class="cls-4" x="48.64" y="4.54" width="2.98" height="3.02"/><rect class="cls-1" x="49.06" y="4.99" width="2.12" height="2.12" transform="translate(10.45 37.27) rotate(-45.09)"/><rect class="cls-2" x="49.37" y="5.29" width="1.5" height="1.52"/><rect class="cls-2" x="88" y="44" width="12" height="12"/><rect class="cls-4" x="89.81" y="45.78" width="8.44" height="8.44" transform="translate(-7.82 81.13) rotate(-45)"/><rect class="cls-1" x="91.05" y="47.01" width="5.93" height="5.99"/><rect class="cls-2" x="91.89" y="47.89" width="4.24" height="4.24" transform="translate(-7.82 81.12) rotate(-45)"/><rect class="cls-4" x="92.52" y="48.49" width="2.98" height="3.02"/><rect class="cls-1" x="92.94" y="48.95" width="2.12" height="2.12" transform="translate(-7.78 81.27) rotate(-45.09)"/><rect class="cls-2" x="93.25" y="49.25" width="1.5" height="1.52"/><rect class="cls-2" x="44.16" y="87.99" width="12" height="12"/><rect class="cls-4" x="45.96" y="89.77" width="8.44" height="8.44" transform="translate(-51.76 63.01) rotate(-45)"/><rect class="cls-1" x="47.2" y="91" width="5.93" height="5.99"/><rect class="cls-2" x="48.05" y="91.88" width="4.24" height="4.24" transform="translate(-51.77 63.01) rotate(-45)"/><rect class="cls-4" x="48.68" y="92.48" width="2.98" height="3.02"/><rect class="cls-1" x="49.1" y="92.93" width="2.12" height="2.12" transform="translate(-51.82 63.16) rotate(-45.09)"/><rect class="cls-2" x="49.41" y="93.24" width="1.5" height="1.52"/><rect class="cls-2" y="43.89" width="12" height="12"/><rect class="cls-4" x="1.82" y="45.65" width="8.44" height="8.44" transform="translate(-33.5 18.88) rotate(-45)"/><rect class="cls-1" x="3.06" y="46.88" width="5.93" height="5.99"/><rect class="cls-2" x="3.91" y="47.76" width="4.24" height="4.24" transform="translate(-33.51 18.87) rotate(-45)"/><rect class="cls-4" x="4.53" y="48.37" width="2.98" height="3.02"/><rect class="cls-1" x="4.96" y="48.82" width="2.12" height="2.12" transform="translate(-33.56 18.92) rotate(-45.09)"/><rect class="cls-2" x="5.26" y="49.12" width="1.5" height="1.52"/><rect class="cls-2" x="23.98" y="0.01" width="12" height="12"/><polygon class="cls-1" points="23.98 0.43 24.98 1.52 25.75 0.69 25.56 0.48 25.78 0.27 26.45 1.01 23.99 3.38 23.98 4.03 24.91 5.13 25.77 4.35 25.52 4.04 25.69 3.87 26.37 4.6 23.98 6.96 23.98 7.71 24.91 8.8 25.73 8.01 25.46 7.71 25.68 7.52 26.38 8.26 23.98 10.63 23.98 11.38 24.49 12.01 25.29 12.01 25.7 11.6 25.48 11.32 25.69 11.16 26.36 11.87 26.23 12.01 26.78 12.01 26.92 11.89 25.64 10.53 24.89 11.27 25.12 11.57 24.91 11.76 24.22 10.99 26.92 8.26 25.71 6.91 24.91 7.69 25.18 7.97 24.95 8.19 24.23 7.36 27 4.62 25.69 3.27 24.91 4.07 25.19 4.34 24.93 4.56 24.23 3.78 27.06 0.99 26.05 0.01 25.38 0 24.92 0.44 25.19 0.66 24.97 0.87 24.24 0.01 23.98 0.01 23.98 0.43"/><polygon class="cls-1" points="23.98 1.4 24.52 1.99 23.98 2.58 23.98 1.4"/><polygon class="cls-1" points="23.98 5.07 24.47 5.58 23.98 6.18 23.98 5.07"/><polygon class="cls-1" points="23.98 8.7 24.43 9.21 23.98 9.8 23.98 8.7"/><polygon class="cls-1" points="27.06 0 28.94 2.12 28.28 2.78 28.02 2.57 28.27 2.36 27.5 1.52 26.19 2.83 28.94 5.72 28.24 6.44 28.03 6.2 28.27 5.98 27.49 5.12 26.17 6.41 28.91 9.3 28.19 10.07 27.95 9.85 28.22 9.58 27.48 8.73 26.13 10.11 27.95 12.01 28.53 12.01 26.72 10.05 27.44 9.33 27.67 9.6 27.37 9.88 28.15 10.66 29.44 9.34 26.75 6.45 27.49 5.76 27.7 6 27.43 6.25 28.17 7.04 29.44 5.77 26.77 2.81 27.49 2.08 27.71 2.32 27.45 2.6 28.26 3.36 29.49 2.09 27.55 0 27.06 0"/><polygon class="cls-1" points="28.97 0 28.72 0.29 29.98 1.63 30.8 0.81 30.54 0.55 30.75 0.33 31.43 1.09 28.72 3.85 29.98 5.24 30.72 4.51 30.45 4.22 30.72 3.96 31.43 4.75 28.66 7.49 29.9 8.83 30.71 8.08 30.49 7.86 30.72 7.64 31.36 8.3 28.66 11.12 29.4 12.01 30.43 12.01 30.72 11.73 30.46 11.43 30.62 11.27 31.39 12.01 31.92 12.02 30.66 10.64 29.89 11.43 30.14 11.71 29.92 11.9 29.23 11.18 31.98 8.3 30.71 7 29.98 7.79 30.21 8.05 29.98 8.26 29.22 7.48 31.98 4.73 30.74 3.36 29.93 4.14 30.18 4.41 29.98 4.65 29.26 3.93 31.98 1.09 30.99 0 30.49 0 29.98 0.54 30.21 0.81 29.98 1.03 29.28 0.27 29.49 0 28.97 0"/><polygon class="cls-1" points="31.93 0.01 33.82 2.13 33.16 2.79 32.9 2.57 33.15 2.36 32.38 1.52 31.07 2.83 33.82 5.72 33.12 6.45 32.91 6.21 33.15 5.98 32.37 5.12 31.05 6.42 33.78 9.3 33.06 10.07 32.82 9.85 33.1 9.59 32.35 8.74 31.01 10.12 32.83 12.01 33.4 12.01 31.6 10.06 32.32 9.33 32.55 9.6 32.24 9.89 33.03 10.66 34.32 9.34 31.63 6.46 32.37 5.76 32.57 6.01 32.3 6.26 33.05 7.05 34.32 5.78 31.64 2.82 32.37 2.08 32.59 2.32 32.33 2.6 33.13 3.37 34.36 2.1 32.42 0.01 31.93 0.01"/><polygon class="cls-1" points="34.63 0 34.29 0.34 34.97 1.02 35.21 0.78 34.99 0.61 35.6 0 36 0.01 36 0.67 35.77 0.43 35.58 0.65 35.8 0.9 34.99 1.66 33.73 0.3 34.05 0 34.63 0"/><polygon class="cls-1" points="35.98 1.66 33.73 3.9 34.94 5.26 35.73 4.47 35.48 4.2 35.71 4 36 4.29 36 3.61 35.81 3.36 35.04 4.15 35.28 4.42 34.99 4.7 34.31 3.97 36 2.18 35.98 1.66"/><polygon class="cls-1" points="35.99 5.19 33.73 7.55 34.95 8.81 35.7 8.13 35.46 7.84 35.71 7.6 35.98 7.94 36 7.31 35.77 7 34.94 7.78 35.2 8.11 34.96 8.34 34.25 7.58 36 5.78 35.99 5.19"/><polygon class="cls-1" points="35.98 8.81 33.65 11.19 34.36 12.01 35.44 12.01 35.71 11.75 35.44 11.45 35.69 11.22 36 11.57 36 10.94 35.76 10.61 34.95 11.43 35.15 11.67 34.91 11.91 34.23 11.19 36 9.38 35.98 8.81"/><rect class="cls-2" x="64.19" y="0.02" width="12" height="12"/><polygon class="cls-1" points="76.19 0.44 75.2 1.54 74.42 0.71 74.61 0.49 74.39 0.28 73.73 1.02 76.19 3.4 76.19 4.05 75.26 5.15 74.41 4.37 74.65 4.06 74.48 3.89 73.8 4.62 76.19 6.98 76.19 7.73 75.26 8.81 74.44 8.03 74.72 7.72 74.49 7.54 73.79 8.27 76.19 10.65 76.19 11.4 75.68 12.02 74.88 12.02 74.48 11.61 74.69 11.33 74.48 11.17 73.82 11.88 73.95 12.02 73.4 12.02 73.25 11.91 74.54 10.54 75.28 11.29 75.06 11.59 75.27 11.78 75.95 11.01 73.26 8.28 74.46 6.93 75.27 7.71 75 7.99 75.22 8.2 75.94 7.38 73.17 4.64 74.48 3.29 75.26 4.08 74.98 4.36 75.24 4.58 75.94 3.8 73.12 1 74.13 0.02 74.8 0.02 75.26 0.46 74.99 0.68 75.2 0.89 75.93 0.02 76.19 0.02 76.19 0.44"/><polygon class="cls-1" points="76.19 1.42 75.66 2 76.19 2.59 76.19 1.42"/><polygon class="cls-1" points="76.19 5.09 75.7 5.6 76.19 6.2 76.19 5.09"/><polygon class="cls-1" points="76.19 8.72 75.75 9.23 76.19 9.82 76.19 8.72"/><polygon class="cls-1" points="73.12 0.02 71.23 2.14 71.89 2.8 72.15 2.58 71.9 2.38 72.67 1.53 73.98 2.84 71.23 5.74 71.93 6.46 72.14 6.22 71.9 5.99 72.68 5.13 74.01 6.43 71.27 9.31 71.99 10.08 72.23 9.86 71.95 9.6 72.7 8.75 74.04 10.13 72.22 12.02 71.65 12.02 73.45 10.07 72.73 9.34 72.5 9.61 72.81 9.9 72.02 10.68 70.73 9.36 73.42 6.47 72.68 5.77 72.48 6.02 72.75 6.27 72.01 7.06 70.73 5.79 73.41 2.83 72.68 2.1 72.46 2.33 72.72 2.62 71.92 3.38 70.69 2.11 72.63 0.02 73.12 0.02"/><polygon class="cls-1" points="71.21 0.02 71.45 0.31 70.19 1.64 69.37 0.83 69.64 0.57 69.42 0.35 68.74 1.1 71.45 3.87 70.19 5.26 69.45 4.52 69.72 4.23 69.45 3.98 68.74 4.77 71.51 7.5 70.27 8.85 69.47 8.1 69.68 7.88 69.45 7.65 68.81 8.32 71.51 11.14 70.78 12.02 69.74 12.02 69.45 11.75 69.71 11.45 69.55 11.29 68.79 12.02 68.25 12.03 69.52 10.65 70.28 11.45 70.03 11.73 70.25 11.91 70.94 11.19 68.2 8.32 69.47 7.02 70.19 7.8 69.96 8.06 70.19 8.28 70.95 7.49 68.2 4.75 69.43 3.37 70.24 4.16 69.99 4.43 70.19 4.66 70.92 3.94 68.2 1.1 69.19 0.02 69.68 0.02 70.19 0.56 69.96 0.82 70.19 1.05 70.89 0.29 70.69 0.02 71.21 0.02"/><polygon class="cls-1" points="68.24 0.03 66.35 2.14 67.02 2.81 67.27 2.59 67.03 2.38 67.79 1.54 69.11 2.85 66.35 5.74 67.06 6.46 67.27 6.23 67.02 6 67.8 5.14 69.13 6.43 66.39 9.32 67.11 10.09 67.35 9.87 67.08 9.61 67.82 8.76 69.17 10.14 67.34 12.03 66.77 12.03 68.57 10.08 67.86 9.35 67.62 9.62 67.93 9.9 67.15 10.68 65.86 9.36 68.54 6.48 67.8 5.78 67.6 6.03 67.87 6.27 67.13 7.07 65.86 5.8 68.53 2.83 67.8 2.1 67.58 2.34 67.84 2.62 67.04 3.38 65.81 2.11 67.75 0.03 68.24 0.03"/><polygon class="cls-1" points="65.55 0.02 65.89 0.36 65.2 1.04 64.96 0.8 65.18 0.63 64.58 0.02 64.18 0.02 64.18 0.69 64.4 0.45 64.6 0.66 64.37 0.92 65.18 1.68 66.45 0.32 66.13 0.02 65.55 0.02"/><polygon class="cls-1" points="64.19 1.68 66.45 3.92 65.24 5.28 64.44 4.49 64.69 4.21 64.46 4.02 64.18 4.3 64.18 3.63 64.36 3.38 65.13 4.17 64.89 4.44 65.18 4.72 65.86 3.99 64.18 2.19 64.19 1.68"/><polygon class="cls-1" points="64.19 5.21 66.45 7.57 65.23 8.82 64.47 8.15 64.71 7.86 64.46 7.62 64.2 7.96 64.18 7.33 64.4 7.02 65.24 7.8 64.97 8.13 65.21 8.36 65.92 7.59 64.18 5.8 64.19 5.21"/><polygon class="cls-1" points="64.19 8.82 66.53 11.21 65.81 12.02 64.73 12.02 64.46 11.77 64.73 11.46 64.48 11.23 64.18 11.59 64.18 10.96 64.42 10.63 65.23 11.45 65.02 11.69 65.26 11.93 65.94 11.21 64.18 9.4 64.19 8.82"/><rect class="cls-2" x="87.99" y="23.97" width="12" height="12"/><polygon class="cls-1" points="99.57 23.97 98.47 24.97 99.3 25.74 99.52 25.55 99.73 25.77 98.99 26.44 96.61 23.98 95.96 23.97 94.86 24.9 95.64 25.75 95.95 25.51 96.12 25.68 95.39 26.36 93.03 23.97 92.28 23.97 91.2 24.9 91.99 25.72 92.29 25.45 92.47 25.67 91.74 26.37 89.36 23.97 88.61 23.97 87.99 24.48 87.99 25.28 88.4 25.69 88.68 25.47 88.84 25.68 88.13 26.34 87.99 26.21 87.99 26.77 88.1 26.91 89.47 25.62 88.72 24.88 88.42 25.11 88.24 24.89 89.01 24.21 91.73 26.9 93.08 25.7 92.3 24.89 92.02 25.16 91.81 24.94 92.63 24.22 95.38 26.99 96.72 25.68 95.93 24.9 95.65 25.18 95.43 24.92 96.21 24.22 99.01 27.05 99.99 26.04 99.99 25.36 99.56 24.91 99.33 25.18 99.12 24.96 99.99 24.23 99.99 23.97 99.57 23.97"/><polygon class="cls-1" points="98.6 23.97 98.01 24.5 97.42 23.97 98.6 23.97"/><polygon class="cls-1" points="94.92 23.97 94.41 24.46 93.81 23.97 94.92 23.97"/><polygon class="cls-1" points="91.29 23.97 90.78 24.41 90.19 23.97 91.29 23.97"/><polygon class="cls-1" points="99.99 27.05 97.87 28.93 97.21 28.27 97.43 28.01 97.64 28.26 98.48 27.49 97.17 26.18 94.27 28.93 93.55 28.23 93.79 28.02 94.02 28.26 94.88 27.48 93.58 26.16 90.7 28.9 89.93 28.17 90.15 27.94 90.41 28.21 91.26 27.46 89.88 26.12 87.99 27.94 87.99 28.52 89.94 26.71 90.67 27.43 90.4 27.66 90.11 27.36 89.34 28.14 90.66 29.43 93.54 26.74 94.24 27.48 93.99 27.68 93.74 27.42 92.95 28.16 94.22 29.43 97.18 26.75 97.92 27.48 97.68 27.7 97.4 27.44 96.63 28.25 97.9 29.48 99.99 27.54 99.99 27.05"/><polygon class="cls-1" points="99.99 28.95 99.7 28.71 98.37 29.97 99.18 30.79 99.44 30.52 99.66 30.74 98.91 31.42 96.14 28.71 94.76 29.97 95.49 30.71 95.78 30.44 96.04 30.71 95.24 31.42 92.51 28.65 91.16 29.89 91.92 30.7 92.13 30.48 92.36 30.71 91.69 31.35 88.87 28.65 87.99 29.39 87.99 30.42 88.26 30.71 88.56 30.45 88.72 30.61 87.99 31.38 87.98 31.91 89.36 30.64 88.56 29.88 88.28 30.13 88.1 29.91 88.82 29.22 91.69 31.97 92.99 30.7 92.21 29.97 91.95 30.2 91.73 29.97 92.52 29.21 95.26 31.97 96.64 30.73 95.85 29.92 95.58 30.17 95.35 29.97 96.07 29.25 98.91 31.97 99.99 30.98 99.99 30.48 99.46 29.97 99.19 30.2 98.96 29.97 99.72 29.27 99.99 29.48 99.99 28.95"/><polygon class="cls-1" points="99.99 31.92 97.87 33.81 97.2 33.15 97.42 32.89 97.63 33.13 98.47 32.37 97.17 31.06 94.27 33.81 93.55 33.1 93.79 32.9 94.01 33.14 94.87 32.36 93.58 31.03 90.69 33.77 89.92 33.05 90.14 32.81 90.41 33.09 91.25 32.34 89.88 31 87.98 32.82 87.98 33.39 89.94 31.59 90.66 32.3 90.39 32.54 90.11 32.23 89.33 33.02 90.65 34.3 93.53 31.62 94.23 32.36 93.98 32.56 93.74 32.29 92.94 33.03 94.22 34.3 97.18 31.63 97.91 32.36 97.67 32.58 97.39 32.32 96.63 33.12 97.9 34.35 99.99 32.41 99.99 31.92"/><polygon class="cls-1" points="99.99 34.62 99.66 34.27 98.97 34.96 99.21 35.2 99.38 34.98 99.99 35.59 99.99 35.99 99.33 35.99 99.56 35.76 99.35 35.56 99.1 35.79 98.33 34.98 99.69 33.72 99.99 34.03 99.99 34.62"/><polygon class="cls-1" points="98.33 35.97 96.09 33.72 94.74 34.92 95.52 35.72 95.8 35.47 95.99 35.7 95.71 35.99 96.38 35.99 96.63 35.8 95.84 35.03 95.57 35.27 95.3 34.98 96.03 34.3 97.82 35.99 98.33 35.97"/><polygon class="cls-1" points="94.81 35.98 92.44 33.72 91.19 34.94 91.86 35.69 92.16 35.45 92.4 35.7 92.05 35.96 92.68 35.99 93 35.76 92.21 34.92 91.88 35.19 91.65 34.95 92.42 34.24 94.21 35.99 94.81 35.98"/><polygon class="cls-1" points="91.19 35.97 88.8 33.63 87.99 34.35 87.99 35.43 88.24 35.7 88.55 35.43 88.78 35.68 88.42 35.99 89.05 35.99 89.38 35.75 88.56 34.94 88.32 35.14 88.08 34.9 88.8 34.22 90.61 35.99 91.19 35.97"/><rect class="cls-2" x="87.97" y="64.04" width="12" height="12"/><polygon class="cls-1" points="99.55 76.04 98.46 75.05 99.29 74.27 99.5 74.46 99.71 74.24 98.97 73.58 96.59 76.04 95.95 76.05 94.84 75.11 95.63 74.26 95.94 74.5 96.11 74.33 95.38 73.65 93.01 76.04 92.27 76.05 91.18 75.11 91.97 74.29 92.27 74.57 92.46 74.34 91.72 73.64 89.35 76.04 88.59 76.05 87.97 75.53 87.97 74.73 88.38 74.33 88.66 74.55 88.82 74.33 88.11 73.67 87.97 73.8 87.97 73.25 88.08 73.1 89.45 74.39 88.71 75.13 88.4 74.91 88.22 75.12 88.99 75.81 91.71 73.11 93.06 74.31 92.29 75.12 92 74.85 91.79 75.07 92.61 75.79 95.36 73.02 96.7 74.33 95.91 75.11 95.63 74.83 95.42 75.09 96.19 75.79 98.99 72.97 99.97 73.98 99.97 74.65 99.54 75.11 99.31 74.84 99.11 75.06 99.97 75.78 99.97 76.04 99.55 76.04"/><polygon class="cls-1" points="98.58 76.04 97.99 75.51 97.4 76.05 98.58 76.04"/><polygon class="cls-1" points="94.9 76.04 94.39 75.56 93.79 76.04 94.9 76.04"/><polygon class="cls-1" points="91.28 76.04 90.77 75.6 90.18 76.04 91.28 76.04"/><polygon class="cls-1" points="99.97 72.97 97.86 71.08 97.19 71.74 97.41 72 97.62 71.75 98.46 72.52 97.15 73.83 94.26 71.08 93.53 71.78 93.77 71.99 94 71.75 94.86 72.53 93.56 73.86 90.68 71.12 89.91 71.84 90.13 72.08 90.39 71.8 91.24 72.55 89.86 73.89 87.97 72.07 87.97 71.5 89.92 73.3 90.65 72.58 90.38 72.35 90.1 72.66 89.32 71.87 90.64 70.58 93.52 73.27 94.22 72.53 93.97 72.33 93.73 72.6 92.93 71.86 94.2 70.58 97.16 73.26 97.9 72.53 97.66 72.31 97.38 72.57 96.61 71.77 97.89 70.54 99.97 72.48 99.97 72.97"/><polygon class="cls-1" points="99.97 71.06 99.69 71.31 98.35 70.04 99.16 69.22 99.43 69.49 99.64 69.27 98.89 68.59 96.13 71.31 94.74 70.04 95.47 69.31 95.76 69.57 96.02 69.31 95.22 68.59 92.49 71.36 91.15 70.12 91.9 69.32 92.11 69.53 92.34 69.31 91.67 68.66 88.86 71.36 87.97 70.63 87.97 69.59 88.24 69.31 88.54 69.56 88.7 69.4 87.97 68.64 87.96 68.1 89.34 69.37 88.54 70.13 88.26 69.89 88.08 70.1 88.8 70.79 91.67 68.05 92.97 69.32 92.19 70.04 91.93 69.81 91.72 70.04 92.5 70.8 95.24 68.05 96.62 69.28 95.84 70.09 95.57 69.84 95.33 70.04 96.05 70.77 98.89 68.05 99.97 69.04 99.97 69.53 99.44 70.04 99.17 69.81 98.94 70.04 99.71 70.75 99.97 70.54 99.97 71.06"/><polygon class="cls-1" points="99.97 68.09 97.85 66.2 97.19 66.87 97.4 67.12 97.61 66.88 98.45 67.64 97.15 68.96 94.25 66.2 93.53 66.91 93.77 67.12 94 66.87 94.86 67.65 93.56 68.98 90.68 66.24 89.91 66.96 90.13 67.2 90.39 66.93 91.24 67.67 89.86 69.02 87.97 67.19 87.97 66.62 89.92 68.42 90.65 67.71 90.38 67.47 90.09 67.78 89.31 67 90.64 65.71 93.52 68.39 94.22 67.65 93.97 67.45 93.72 67.72 92.93 66.98 94.2 65.71 97.16 68.38 97.89 67.65 97.66 67.43 97.38 67.7 96.61 66.89 97.88 65.66 99.97 67.6 99.97 68.09"/><polygon class="cls-1" points="99.97 65.4 99.64 65.74 98.95 65.05 99.19 64.81 99.36 65.03 99.97 64.43 99.97 64.03 99.31 64.03 99.55 64.25 99.33 64.45 99.08 64.22 98.31 65.03 99.67 66.3 99.97 65.98 99.97 65.4"/><polygon class="cls-1" points="98.31 64.04 96.08 66.3 94.72 65.09 95.51 64.29 95.78 64.54 95.97 64.31 95.69 64.03 96.36 64.03 96.61 64.21 95.83 64.98 95.55 64.75 95.28 65.03 96.01 65.72 97.8 64.03 98.31 64.04"/><polygon class="cls-1" points="94.79 64.04 92.42 66.3 91.17 65.08 91.84 64.32 92.14 64.56 92.38 64.31 92.04 64.05 92.66 64.03 92.98 64.25 92.2 65.09 91.86 64.83 91.64 65.06 92.4 65.77 94.19 64.03 94.79 64.04"/><polygon class="cls-1" points="91.17 64.04 88.78 66.38 87.97 65.66 87.97 64.59 88.22 64.31 88.53 64.59 88.76 64.33 88.41 64.03 89.03 64.03 89.36 64.27 88.54 65.08 88.3 64.87 88.06 65.11 88.78 65.8 90.6 64.03 91.17 64.04"/><rect class="cls-2" x="64.23" y="87.99" width="12" height="12"/><polygon class="cls-1" points="76.23 99.57 75.23 98.47 74.46 99.31 74.65 99.52 74.43 99.73 73.76 98.99 76.22 96.61 76.23 95.97 75.3 94.86 74.44 95.64 74.69 95.95 74.52 96.12 73.84 95.39 76.23 93.03 76.23 92.28 75.3 91.2 74.48 91.99 74.75 92.29 74.53 92.48 73.83 91.74 76.23 89.36 76.23 88.61 75.72 87.99 74.92 87.99 74.52 88.4 74.73 88.68 74.52 88.84 73.86 88.13 73.98 87.99 73.43 87.99 73.29 88.1 74.58 89.47 75.32 88.72 75.09 88.42 75.31 88.24 75.99 89.01 73.3 91.73 74.5 93.08 75.31 92.31 75.04 92.02 75.26 91.81 75.98 92.63 73.21 95.38 74.52 96.72 75.3 95.93 75.02 95.65 75.28 95.43 75.98 96.21 73.16 99.01 74.16 99.99 74.84 99.99 75.29 99.56 75.02 99.33 75.24 99.13 75.97 99.99 76.23 99.99 76.23 99.57"/><polygon class="cls-1" points="76.23 98.6 75.7 98.01 76.23 97.42 76.23 98.6"/><polygon class="cls-1" points="76.23 94.92 75.74 94.41 76.23 93.81 76.23 94.92"/><polygon class="cls-1" points="76.23 91.29 75.78 90.78 76.23 90.2 76.23 91.29"/><polygon class="cls-1" points="73.16 99.99 71.27 97.88 71.93 97.21 72.19 97.43 71.94 97.64 72.71 98.48 74.02 97.17 71.27 94.28 71.97 93.55 72.18 93.79 71.94 94.02 72.72 94.88 74.04 93.58 71.3 90.7 72.03 89.93 72.27 90.15 71.99 90.41 72.74 91.26 74.08 89.88 72.26 87.99 71.69 87.99 73.49 89.94 72.77 90.67 72.54 90.4 72.84 90.11 72.06 89.34 70.77 90.66 73.46 93.54 72.72 94.24 72.52 93.99 72.78 93.74 72.04 92.95 70.77 94.22 73.45 97.18 72.72 97.92 72.5 97.68 72.76 97.4 71.95 96.63 70.72 97.91 72.67 99.99 73.16 99.99"/><polygon class="cls-1" points="71.25 99.99 71.49 99.7 70.23 98.37 69.41 99.18 69.67 99.45 69.46 99.66 68.78 98.91 71.49 96.14 70.23 94.76 69.49 95.49 69.76 95.78 69.49 96.04 68.78 95.24 71.55 92.51 70.31 91.16 69.5 91.92 69.72 92.13 69.49 92.36 68.85 91.69 71.55 88.87 70.81 87.99 69.78 87.99 69.49 88.26 69.75 88.56 69.59 88.72 68.83 87.99 68.29 87.98 69.56 89.36 70.32 88.56 70.07 88.28 70.29 88.1 70.98 88.82 68.23 91.69 69.5 92.99 70.23 92.21 70 91.95 70.23 91.73 70.99 92.52 68.23 95.26 69.47 96.64 70.28 95.85 70.03 95.58 70.23 95.35 70.95 96.07 68.23 98.91 69.22 99.99 69.72 99.99 70.23 99.46 70 99.19 70.23 98.96 70.93 99.73 70.72 99.99 71.25 99.99"/><polygon class="cls-1" points="68.28 99.99 66.39 97.87 67.06 97.21 67.31 97.42 67.06 97.63 67.83 98.47 69.14 97.17 66.39 94.27 67.09 93.55 67.3 93.79 67.06 94.01 67.84 94.87 69.17 93.58 66.43 90.69 67.15 89.92 67.39 90.14 67.11 90.41 67.86 91.26 69.2 89.88 67.38 87.98 66.81 87.98 68.61 89.94 67.89 90.67 67.66 90.4 67.97 90.11 67.19 89.33 65.89 90.65 68.58 93.54 67.84 94.23 67.64 93.99 67.91 93.74 67.17 92.94 65.89 94.22 68.57 97.18 67.84 97.91 67.62 97.67 67.88 97.39 67.08 96.63 65.85 97.9 67.79 99.99 68.28 99.99"/><polygon class="cls-1" points="65.58 99.99 65.93 99.66 65.24 98.97 65 99.21 65.22 99.38 64.61 99.99 64.21 99.99 64.21 99.33 64.44 99.56 64.64 99.35 64.41 99.1 65.22 98.33 66.48 99.69 66.17 99.99 65.58 99.99"/><polygon class="cls-1" points="64.23 98.33 66.48 96.09 65.28 94.74 64.48 95.53 64.73 95.8 64.5 95.99 64.21 95.71 64.21 96.38 64.4 96.63 65.17 95.84 64.93 95.57 65.22 95.3 65.9 96.03 64.21 97.82 64.23 98.33"/><polygon class="cls-1" points="64.22 94.81 66.48 92.44 65.26 91.19 64.51 91.86 64.75 92.16 64.5 92.4 64.24 92.06 64.21 92.68 64.44 93 65.28 92.21 65.01 91.88 65.25 91.66 65.96 92.42 64.21 94.21 64.22 94.81"/><polygon class="cls-1" points="64.23 91.19 66.56 88.8 65.85 87.99 64.77 87.99 64.5 88.24 64.77 88.55 64.52 88.78 64.21 88.42 64.21 89.05 64.45 89.38 65.26 88.56 65.06 88.32 65.3 88.08 65.98 88.8 64.21 90.62 64.23 91.19"/><rect class="cls-2" x="23.95" y="88" width="12" height="12"/><polygon class="cls-1" points="23.95 99.58 24.94 98.48 25.71 99.31 25.53 99.53 25.75 99.73 26.41 99 23.95 96.62 23.95 95.97 24.88 94.87 25.73 95.65 25.49 95.96 25.66 96.13 26.34 95.4 23.95 93.04 23.95 92.29 24.88 91.21 25.7 92 25.42 92.3 25.65 92.48 26.34 91.75 23.95 89.37 23.95 88.62 24.45 88 25.26 88 25.66 88.41 25.45 88.69 25.66 88.85 26.32 88.14 26.19 88 26.74 88 26.89 88.11 25.6 89.48 24.86 88.73 25.08 88.43 24.87 88.25 24.18 89.02 26.88 91.74 25.68 93.09 24.87 92.31 25.14 92.03 24.92 91.82 24.2 92.64 26.97 95.39 25.66 96.73 24.88 95.94 25.16 95.66 24.9 95.44 24.2 96.22 27.02 99.02 26.01 100 25.34 100 24.88 99.56 25.15 99.34 24.93 99.13 24.21 100 23.95 100 23.95 99.58"/><polygon class="cls-1" points="23.95 98.61 24.48 98.02 23.95 97.43 23.95 98.61"/><polygon class="cls-1" points="23.95 94.93 24.43 94.42 23.95 93.82 23.95 94.93"/><polygon class="cls-1" points="23.95 91.3 24.39 90.79 23.95 90.2 23.95 91.3"/><polygon class="cls-1" points="27.02 100 28.91 97.88 28.25 97.22 27.99 97.44 28.23 97.64 27.47 98.49 26.16 97.18 28.91 94.28 28.2 93.56 28 93.8 28.24 94.03 27.46 94.89 26.13 93.59 28.87 90.71 28.15 89.94 27.91 90.16 28.19 90.42 27.44 91.27 26.1 89.89 27.92 88 28.49 88 26.69 89.95 27.41 90.68 27.64 90.41 27.33 90.12 28.11 89.35 29.41 90.67 26.72 93.55 27.46 94.25 27.66 94 27.39 93.75 28.13 92.96 29.41 94.23 26.73 97.19 27.46 97.92 27.68 97.69 27.42 97.41 28.22 96.64 29.45 97.91 27.51 100 27.02 100"/><polygon class="cls-1" points="28.93 100 28.68 99.71 29.95 98.38 30.77 99.19 30.5 99.45 30.72 99.67 31.39 98.92 28.68 96.15 29.95 94.77 30.68 95.5 30.42 95.79 30.68 96.05 31.39 95.25 28.63 92.52 29.87 91.17 30.67 91.93 30.46 92.14 30.68 92.37 31.33 91.7 28.63 88.88 29.36 88 30.39 88 30.68 88.27 30.43 88.57 30.59 88.73 31.35 88 31.89 87.99 30.62 89.37 29.86 88.57 30.1 88.29 29.89 88.11 29.2 88.83 31.94 91.7 30.67 93 29.95 92.22 30.18 91.96 29.95 91.74 29.19 92.53 31.94 95.27 30.71 96.65 29.9 95.86 30.15 95.59 29.95 95.36 29.22 96.08 31.94 98.92 30.95 100 30.46 100 29.95 99.47 30.18 99.2 29.95 98.97 29.24 99.73 29.45 100 28.93 100"/><polygon class="cls-1" points="31.9 100 33.79 97.88 33.12 97.22 32.87 97.43 33.11 97.64 32.35 98.48 31.03 97.17 33.79 94.28 33.08 93.56 32.87 93.8 33.12 94.02 32.34 94.88 31.01 93.59 33.75 90.7 33.03 89.93 32.79 90.15 33.06 90.42 32.32 91.26 30.98 89.89 32.8 87.99 33.37 87.99 31.57 89.94 32.28 90.67 32.52 90.4 32.21 90.12 32.99 89.34 34.28 90.66 31.59 93.55 32.34 94.24 32.54 94 32.27 93.75 33.01 92.95 34.28 94.22 31.61 97.19 32.34 97.92 32.56 97.68 32.29 97.4 33.1 96.64 34.33 97.91 32.39 100 31.9 100"/><polygon class="cls-1" points="34.59 100 34.25 99.67 34.94 98.98 35.18 99.22 34.96 99.39 35.56 100 35.96 100 35.96 99.33 35.73 99.57 35.54 99.36 35.77 99.11 34.96 98.34 33.69 99.7 34.01 100 34.59 100"/><polygon class="cls-1" points="35.95 98.34 33.69 96.1 34.9 94.75 35.7 95.53 35.45 95.81 35.68 96 35.96 95.72 35.96 96.39 35.78 96.64 35.01 95.85 35.24 95.58 34.96 95.31 34.27 96.03 35.96 97.83 35.95 98.34"/><polygon class="cls-1" points="35.95 94.81 33.69 92.45 34.91 91.19 35.67 91.87 35.43 92.17 35.68 92.41 35.94 92.06 35.96 92.69 35.73 93 34.9 92.22 35.16 91.89 34.92 91.66 34.22 92.43 35.96 94.22 35.95 94.81"/><polygon class="cls-1" points="35.95 91.19 33.61 88.81 34.33 88 35.4 88 35.68 88.25 35.4 88.56 35.66 88.79 35.96 88.43 35.96 89.06 35.72 89.39 34.91 88.57 35.12 88.33 34.88 88.09 34.19 88.81 35.96 90.63 35.95 91.19"/><rect class="cls-2" x="0.03" y="64.03" width="12" height="12"/><polygon class="cls-1" points="0.45 76.03 1.54 75.04 0.71 74.27 0.5 74.46 0.29 74.23 1.03 73.57 3.4 76.03 4.05 76.04 5.15 75.1 4.37 74.25 4.07 74.5 3.89 74.33 4.62 73.65 6.99 76.03 7.73 76.04 8.82 75.11 8.03 74.28 7.73 74.56 7.54 74.33 8.28 73.64 10.65 76.04 11.41 76.04 12.03 75.53 12.03 74.72 11.62 74.32 11.34 74.54 11.18 74.33 11.89 73.66 12.03 73.79 12.03 73.24 11.92 73.09 10.55 74.38 11.29 75.13 11.6 74.9 11.78 75.11 11.01 75.8 8.29 73.1 6.93 74.31 7.71 75.11 8 74.84 8.21 75.06 7.39 75.78 4.64 73.02 3.3 74.33 4.09 75.11 4.37 74.83 4.58 75.08 3.81 75.78 1.01 72.96 0.03 73.97 0.03 74.64 0.46 75.1 0.68 74.83 0.89 75.05 0.03 75.78 0.03 76.03 0.45 76.03"/><polygon class="cls-1" points="1.42 76.04 2.01 75.5 2.6 76.04 1.42 76.04"/><polygon class="cls-1" points="5.09 76.04 5.6 75.55 6.21 76.04 5.09 76.04"/><polygon class="cls-1" points="8.72 76.04 9.23 75.59 9.82 76.04 8.72 76.04"/><polygon class="cls-1" points="0.03 72.96 2.14 71.07 2.81 71.74 2.59 71.99 2.38 71.75 1.54 72.51 2.85 73.83 5.74 71.07 6.46 71.78 6.23 71.99 6 71.74 5.14 72.53 6.43 73.85 9.32 71.11 10.09 71.83 9.87 72.07 9.61 71.8 8.76 72.54 10.14 73.89 12.03 72.06 12.03 71.49 10.08 73.3 9.35 72.58 9.62 72.35 9.9 72.65 10.68 71.87 9.36 70.58 6.48 73.27 5.78 72.53 6.03 72.32 6.27 72.59 7.07 71.85 5.8 70.58 2.83 73.25 2.1 72.53 2.34 72.3 2.62 72.57 3.38 71.76 2.11 70.53 0.03 72.47 0.03 72.96"/><polygon class="cls-1" points="0.03 71.05 0.31 71.3 1.65 70.03 0.84 69.21 0.57 69.48 0.36 69.27 1.11 68.59 3.87 71.3 5.26 70.03 4.53 69.3 4.24 69.57 3.98 69.3 4.78 68.59 7.51 71.35 8.85 70.12 8.1 69.31 7.88 69.52 7.66 69.3 8.33 68.65 11.14 71.35 12.03 70.62 12.03 69.59 11.76 69.3 11.46 69.56 11.29 69.39 12.03 68.63 12.04 68.09 10.66 69.36 11.46 70.13 11.74 69.88 11.92 70.09 11.2 70.78 8.33 68.04 7.03 69.31 7.81 70.03 8.07 69.8 8.28 70.03 7.5 70.79 4.75 68.04 3.38 69.28 4.16 70.08 4.43 69.84 4.67 70.03 3.95 70.76 1.11 68.04 0.03 69.03 0.03 69.52 0.56 70.03 0.83 69.8 1.05 70.03 0.29 70.74 0.03 70.53 0.03 71.05"/><polygon class="cls-1" points="0.03 68.08 2.15 66.2 2.81 66.86 2.6 67.12 2.39 66.87 1.54 67.64 2.85 68.95 5.75 66.2 6.47 66.9 6.23 67.11 6 66.87 5.14 67.65 6.44 68.97 9.32 66.23 10.09 66.95 9.87 67.19 9.61 66.92 8.76 67.67 10.14 69.01 12.03 67.19 12.03 66.61 10.08 68.42 9.35 67.7 9.62 67.47 9.91 67.77 10.68 66.99 9.37 65.7 6.48 68.39 5.78 67.65 6.03 67.44 6.28 67.71 7.07 66.97 5.8 65.7 2.84 68.38 2.1 67.65 2.34 67.43 2.63 67.69 3.39 66.88 2.12 65.65 0.03 67.59 0.03 68.08"/><polygon class="cls-1" points="0.03 65.39 0.36 65.73 1.04 65.05 0.81 64.81 0.64 65.02 0.03 64.42 0.03 64.02 0.69 64.02 0.45 64.25 0.67 64.44 0.92 64.21 1.69 65.02 0.33 66.29 0.03 65.97 0.03 65.39"/><polygon class="cls-1" points="1.69 64.03 3.92 66.29 5.28 65.08 4.49 64.28 4.22 64.53 4.03 64.31 4.31 64.02 3.64 64.02 3.38 64.2 4.17 64.98 4.45 64.74 4.72 65.02 3.99 65.71 2.2 64.02 1.69 64.03"/><polygon class="cls-1" points="5.21 64.03 7.58 66.29 8.83 65.07 8.16 64.32 7.86 64.56 7.62 64.31 7.96 64.04 7.33 64.02 7.02 64.25 7.8 65.08 8.13 64.82 8.36 65.06 7.6 65.77 5.8 64.02 5.21 64.03"/><polygon class="cls-1" points="8.83 64.03 11.22 66.37 12.03 65.65 12.03 64.58 11.78 64.31 11.47 64.58 11.24 64.33 11.59 64.02 10.96 64.02 10.63 64.26 11.46 65.07 11.7 64.86 11.94 65.1 11.22 65.79 9.4 64.02 8.83 64.03"/><rect class="cls-2" x="0.05" y="23.97" width="12" height="12"/><polygon class="cls-1" points="0.47 23.97 1.56 24.96 0.73 25.73 0.52 25.54 0.31 25.77 1.05 26.43 3.42 23.97 4.07 23.96 5.17 24.9 4.39 25.75 4.08 25.5 3.91 25.67 4.64 26.35 7 23.97 7.75 23.96 8.84 24.89 8.05 25.71 7.75 25.44 7.56 25.67 8.3 26.36 10.67 23.96 11.42 23.96 12.04 24.47 12.04 25.28 11.64 25.68 11.36 25.46 11.2 25.67 11.9 26.34 12.04 26.21 12.04 26.76 11.93 26.91 10.57 25.62 11.31 24.87 11.61 25.1 11.8 24.89 11.03 24.2 8.3 26.9 6.95 25.7 7.73 24.89 8.01 25.16 8.22 24.94 7.4 24.22 4.66 26.98 3.31 25.67 4.11 24.89 4.38 25.17 4.6 24.92 3.82 24.22 1.03 27.04 0.05 26.03 0.04 25.36 0.48 24.9 0.7 25.17 0.91 24.95 0.05 24.22 0.05 23.97 0.47 23.97"/><polygon class="cls-1" points="1.44 23.96 2.03 24.5 2.62 23.96 1.44 23.96"/><polygon class="cls-1" points="5.11 23.96 5.62 24.45 6.22 23.96 5.11 23.96"/><polygon class="cls-1" points="8.74 23.96 9.25 24.41 9.84 23.96 8.74 23.96"/><polygon class="cls-1" points="0.04 27.04 2.16 28.93 2.82 28.26 2.61 28.01 2.4 28.25 1.56 27.49 2.86 26.17 5.76 28.93 6.48 28.22 6.24 28.01 6.02 28.26 5.16 27.48 6.45 26.15 9.34 28.89 10.11 28.17 9.88 27.93 9.62 28.2 8.77 27.46 10.15 26.11 12.04 27.93 12.04 28.51 10.09 26.7 9.37 27.42 9.63 27.65 9.92 27.35 10.7 28.13 9.38 29.42 6.49 26.73 5.79 27.48 6.04 27.68 6.29 27.41 7.08 28.15 5.81 29.42 2.85 26.75 2.12 27.48 2.36 27.7 2.64 27.43 3.4 28.24 2.13 29.47 0.04 27.53 0.04 27.04"/><polygon class="cls-1" points="0.04 28.95 0.33 28.7 1.66 29.97 0.85 30.79 0.59 30.52 0.37 30.73 1.13 31.41 3.89 28.7 5.28 29.97 4.55 30.7 4.26 30.43 4 30.7 4.79 31.41 7.53 28.65 8.87 29.88 8.12 30.69 7.9 30.48 7.68 30.7 8.34 31.35 11.16 28.65 12.04 29.38 12.04 30.41 11.77 30.7 11.47 30.44 11.31 30.61 12.04 31.37 12.05 31.91 10.68 30.64 11.47 29.87 11.75 30.12 11.94 29.91 11.21 29.22 8.34 31.96 7.04 30.69 7.83 29.97 8.09 30.2 8.3 29.97 7.51 29.21 4.77 31.96 3.4 30.72 4.18 29.92 4.45 30.16 4.69 29.97 3.97 29.24 1.13 31.96 0.04 30.97 0.04 30.48 0.58 29.97 0.85 30.2 1.07 29.97 0.31 29.26 0.04 29.47 0.04 28.95"/><polygon class="cls-1" points="0.05 31.92 2.16 33.8 2.83 33.14 2.61 32.88 2.4 33.13 1.56 32.36 2.87 31.05 5.76 33.8 6.49 33.1 6.25 32.89 6.02 33.13 5.16 32.35 6.46 31.03 9.34 33.77 10.11 33.05 9.89 32.81 9.63 33.08 8.78 32.33 10.16 30.99 12.05 32.81 12.05 33.38 10.1 31.58 9.37 32.3 9.64 32.53 9.93 32.23 10.7 33.01 9.38 34.3 6.5 31.61 5.8 32.35 6.05 32.55 6.29 32.29 7.09 33.03 5.82 34.3 2.86 31.62 2.12 32.35 2.36 32.57 2.64 32.31 3.41 33.12 2.13 34.35 0.05 32.41 0.05 31.92"/><polygon class="cls-1" points="0.04 34.61 0.38 34.27 1.06 34.95 0.82 35.19 0.65 34.98 0.04 35.58 0.05 35.98 0.71 35.98 0.47 35.75 0.69 35.56 0.94 35.79 1.7 34.98 0.34 33.71 0.04 34.03 0.04 34.61"/><polygon class="cls-1" points="1.7 35.97 3.94 33.71 5.3 34.92 4.51 35.72 4.24 35.47 4.04 35.7 4.33 35.98 3.65 35.98 3.4 35.8 4.19 35.02 4.46 35.26 4.74 34.98 4.01 34.29 2.22 35.98 1.7 35.97"/><polygon class="cls-1" points="5.23 35.97 7.59 33.71 8.85 34.93 8.17 35.68 7.88 35.44 7.64 35.7 7.98 35.96 7.35 35.98 7.04 35.75 7.82 34.92 8.15 35.18 8.38 34.94 7.62 34.23 5.82 35.98 5.23 35.97"/><polygon class="cls-1" points="8.85 35.97 11.23 33.63 12.04 34.35 12.04 35.42 11.79 35.7 11.48 35.42 11.26 35.67 11.61 35.98 10.98 35.98 10.65 35.74 11.47 34.93 11.71 35.13 11.95 34.9 11.23 34.21 9.42 35.98 8.85 35.97"/><rect class="cls-1" x="11.98" y="0.04" width="12" height="12"/><path class="cls-2" d="M18.1,4.75A1.77,1.77,0,0,0,18,4.41a2.65,2.65,0,0,0-.38-.6c-.51-.69-.59-.67-.73-.94A1,1,0,0,1,16.7,2c.08-.13.21,0,.4-.22a.38.38,0,0,0,.12-.28c0-.14-.1-.24-.06-.3s.23,0,.38.12a2.55,2.55,0,0,1,.33.47c.16.24.26.33.39.5a3.7,3.7,0,0,1,.56,1c.37,1-.05,1.5-.21,1.5s-.11,0-.12.06,0,.09,0,.13-.14.06-.26-.05A.62.62,0,0,1,18.1,4.75Z"/><path class="cls-4" d="M17.94,5.34a1,1,0,0,1,.63,0,.8.8,0,0,1,.49.41.6.6,0,0,1,0,.59.74.74,0,0,1-.46.31,1,1,0,0,1-.77,0,.6.6,0,0,1-.26-.27A.84.84,0,0,1,17.54,6a.67.67,0,0,1,.1-.41A.71.71,0,0,1,17.94,5.34Z"/><path class="cls-2" d="M19,4.85a1.58,1.58,0,0,0,.25-.26A3.42,3.42,0,0,0,19.59,4a11.93,11.93,0,0,1,.49-1.09c.18-.28.47-.55.66-.54s.12.18.38.25a.36.36,0,0,0,.3,0c.12-.08.17-.2.24-.2s.12.2.07.4a2.19,2.19,0,0,1-.26.5c-.13.26-.17.39-.26.59a3.74,3.74,0,0,1-.6.94c-.67.78-1.35.66-1.42.51s0-.1-.11-.08S19,5.3,19,5.31s-.12-.1-.08-.26A.9.9,0,0,1,19,4.85Z"/><path class="cls-2" d="M19.69,5.82A2.51,2.51,0,0,0,20,5.71a3.7,3.7,0,0,0,.61-.38,10.2,10.2,0,0,1,.94-.73,1.07,1.07,0,0,1,.84-.16c.12.08,0,.21.21.4a.38.38,0,0,0,.28.12c.15,0,.24-.09.3-.06s0,.23-.12.38a2.34,2.34,0,0,1-.46.32c-.25.17-.34.27-.51.4a4.06,4.06,0,0,1-1,.55c-1,.37-1.51,0-1.5-.22s0-.11-.06-.12-.09,0-.13,0-.06-.15.05-.27A.62.62,0,0,1,19.69,5.82Z"/><path class="cls-2" d="M19.58,6.71a2.15,2.15,0,0,0,.26.25,3.23,3.23,0,0,0,.62.36c.77.37.83.32,1.08.49s.54.47.53.67-.17.12-.25.37a.32.32,0,0,0,0,.3c.08.12.19.18.19.24s-.2.12-.4.07a2.19,2.19,0,0,1-.5-.26,6.38,6.38,0,0,0-.59-.26,3.91,3.91,0,0,1-.93-.6C18.84,7.66,19,7,19.11,6.91s.1,0,.08-.11-.06-.07-.06-.11.1-.12.25-.08A.59.59,0,0,1,19.58,6.71Z"/><path class="cls-2" d="M18.55,7.28a1.56,1.56,0,0,0,.12.34,3.6,3.6,0,0,0,.38.6c.53.68.6.67.75.93s.27.67.17.84-.21,0-.39.22a.34.34,0,0,0-.12.28c0,.14.1.24.07.3s-.24,0-.39-.12a2.11,2.11,0,0,1-.33-.46c-.17-.24-.27-.33-.4-.49a3.56,3.56,0,0,1-.56-1c-.39-1,0-1.51.19-1.5s.11,0,.12-.06,0-.09,0-.13.15-.06.27,0A.62.62,0,0,1,18.55,7.28Z"/><path class="cls-2" d="M17.66,7.19a1.27,1.27,0,0,0-.24.26,2.78,2.78,0,0,0-.36.62c-.36.78-.31.84-.47,1.09s-.46.55-.66.54-.12-.17-.38-.24a.32.32,0,0,0-.3,0c-.12.08-.17.19-.24.19s-.12-.2-.07-.4a2.26,2.26,0,0,1,.25-.5,4.27,4.27,0,0,0,.25-.59,3.88,3.88,0,0,1,.6-.95c.66-.78,1.34-.67,1.41-.52s0,.1.11.08.07-.06.11-.07.12.1.08.25A.61.61,0,0,1,17.66,7.19Z"/><path class="cls-2" d="M17,6.22l-.34.12a3.6,3.6,0,0,0-.6.38,10.77,10.77,0,0,1-.94.74,1,1,0,0,1-.83.17c-.13-.08,0-.21-.22-.39a.32.32,0,0,0-.29-.12c-.14,0-.23.09-.29.06s0-.23.12-.39A2.6,2.6,0,0,1,14,6.47c.24-.17.33-.27.5-.4a4,4,0,0,1,1-.56c1-.38,1.51,0,1.51.21s0,.1.06.12.09,0,.13,0,.06.14-.05.26A.47.47,0,0,1,17,6.22Z"/><path class="cls-2" d="M17.05,5.33a2.25,2.25,0,0,0-.26-.24,2.78,2.78,0,0,0-.62-.36c-.77-.36-.83-.31-1.09-.48s-.55-.46-.54-.66.18-.12.25-.38a.32.32,0,0,0,0-.3c-.08-.12-.19-.17-.19-.23s.2-.13.4-.08a2.41,2.41,0,0,1,.5.26,6,6,0,0,0,.59.25,3.74,3.74,0,0,1,.94.6c.78.67.67,1.35.52,1.42s-.1,0-.08.11.06.07.07.11-.1.12-.26.08A.71.71,0,0,1,17.05,5.33Z"/><path class="cls-2" d="M41.42,10.09A3.79,3.79,0,0,1,40,10a3.39,3.39,0,0,1-1.56-.91,3,3,0,0,1-.87-1.84,2.72,2.72,0,0,1,.68-2A2.58,2.58,0,0,1,39.8,4.4a2.29,2.29,0,0,1,1.78.41,1.36,1.36,0,0,1,.54.85,1.25,1.25,0,0,1-.36,1.08,1.17,1.17,0,0,1-1.47.11,1,1,0,0,1-.28-.5.88.88,0,0,0,.41.23.76.76,0,0,0,.68-.13.64.64,0,0,0,.2-.63c-.12-.41-.8-.58-1.3-.47a1.45,1.45,0,0,0-.94.72,1.72,1.72,0,0,0,.13,1.66,1.85,1.85,0,0,0,1,.7,2.59,2.59,0,0,0,2.1-.22,2.63,2.63,0,0,0,1.15-1.8,3.89,3.89,0,0,0-1.35-3.07,6.1,6.1,0,0,0-3.34-1.75,2,2,0,0,1,.3.59,1.68,1.68,0,0,1,0,.94,1.72,1.72,0,0,1-.5.82,4.93,4.93,0,0,1-.63.5,3.35,3.35,0,0,0-.79.95,3.47,3.47,0,0,0-.44,2A3.5,3.5,0,0,0,38,9.71a3.41,3.41,0,0,0,2,.69A3.35,3.35,0,0,0,41.42,10.09Z"/><path class="cls-2" d="M58.82,10.09A3.79,3.79,0,0,0,60.27,10a3.39,3.39,0,0,0,1.56-.91,3,3,0,0,0,.86-1.84,2.66,2.66,0,0,0-.67-2,2.58,2.58,0,0,0-1.59-.76,2.27,2.27,0,0,0-1.77.41,1.4,1.4,0,0,0-.55.85,1.3,1.3,0,0,0,.37,1.08A1.17,1.17,0,0,0,60,6.85a1,1,0,0,0,.28-.5.94.94,0,0,1-.41.23.76.76,0,0,1-.68-.13.66.66,0,0,1-.21-.63c.13-.41.81-.58,1.31-.47a1.48,1.48,0,0,1,.94.72,1.72,1.72,0,0,1-.13,1.66,1.85,1.85,0,0,1-1,.7A2.59,2.59,0,0,1,58,8.21a2.59,2.59,0,0,1-1.15-1.8,3.86,3.86,0,0,1,1.35-3.07A6.11,6.11,0,0,1,61.5,1.59a2,2,0,0,0-.29.59,1.68,1.68,0,0,0,0,.94,1.72,1.72,0,0,0,.5.82,4.32,4.32,0,0,0,.63.5,3.47,3.47,0,0,1,1.23,2.92,3.45,3.45,0,0,1-1.31,2.35,3.37,3.37,0,0,1-2,.69A3.31,3.31,0,0,1,58.82,10.09Z"/><rect class="cls-1" y="12" width="12" height="12"/><path class="cls-2" d="M6.12,16.71A1.77,1.77,0,0,0,6,16.37a2.65,2.65,0,0,0-.38-.6c-.51-.69-.59-.67-.73-.94s-.27-.67-.17-.84.21,0,.4-.22a.34.34,0,0,0,.12-.28c0-.14-.09-.24-.06-.3s.23,0,.38.12a2.55,2.55,0,0,1,.33.47c.16.24.26.33.39.5a3.41,3.41,0,0,1,.56,1c.38,1,0,1.5-.21,1.5,0,0-.11,0-.12.06s0,.09,0,.13-.15.06-.27-.05A.62.62,0,0,1,6.12,16.71Z"/><path class="cls-4" d="M6,17.3a1,1,0,0,1,.63,0,.8.8,0,0,1,.49.41.63.63,0,0,1,0,.59.79.79,0,0,1-.47.31,1,1,0,0,1-.77.05.6.6,0,0,1-.26-.27.74.74,0,0,1,0-.41.61.61,0,0,1,.09-.41A.71.71,0,0,1,6,17.3Z"/><path class="cls-2" d="M7,16.81a1.58,1.58,0,0,0,.25-.26,3.42,3.42,0,0,0,.35-.61,11.93,11.93,0,0,1,.49-1.09c.18-.28.47-.55.66-.54s.13.18.38.25a.36.36,0,0,0,.3,0c.12-.08.17-.2.24-.2s.12.2.07.4a2.19,2.19,0,0,1-.26.5c-.13.26-.17.39-.26.59a3.74,3.74,0,0,1-.6.94c-.67.78-1.34.66-1.42.51s0-.1-.11-.08-.07.06-.11.07-.12-.1-.08-.26A.9.9,0,0,1,7,16.81Z"/><path class="cls-2" d="M7.71,17.78a2.13,2.13,0,0,0,.34-.11,3.7,3.7,0,0,0,.61-.38c.69-.51.67-.59.94-.73a1.07,1.07,0,0,1,.84-.16c.13.08,0,.21.21.4a.38.38,0,0,0,.28.12c.15,0,.24-.09.3-.06s0,.23-.12.38a1.84,1.84,0,0,1-.46.32c-.25.17-.34.27-.51.4a4.06,4.06,0,0,1-1,.55c-1,.37-1.51-.05-1.5-.22,0,0,0-.11-.06-.12s-.09,0-.13,0-.06-.15,0-.27A.62.62,0,0,1,7.71,17.78Z"/><path class="cls-2" d="M7.6,18.67a2.15,2.15,0,0,0,.26.25,3.23,3.23,0,0,0,.62.36c.77.37.83.32,1.08.49s.54.47.53.67-.17.12-.25.37a.32.32,0,0,0,0,.3c.08.12.19.18.19.24s-.2.12-.4.07a2.19,2.19,0,0,1-.5-.26C8.9,21,8.77,21,8.58,20.9a4.06,4.06,0,0,1-.94-.6c-.78-.68-.66-1.36-.51-1.43s.1,0,.08-.11-.06-.07-.06-.11.1-.12.25-.08A.59.59,0,0,1,7.6,18.67Z"/><path class="cls-2" d="M6.57,19.24a1.56,1.56,0,0,0,.12.34,3.09,3.09,0,0,0,.39.6c.52.68.59.67.74.93A1,1,0,0,1,8,22c-.07.13-.21,0-.39.22a.34.34,0,0,0-.12.28c0,.14.1.24.07.3s-.24,0-.39-.12a2.11,2.11,0,0,1-.33-.46c-.17-.24-.27-.33-.4-.49a3.56,3.56,0,0,1-.56-1c-.39-1,0-1.51.19-1.5s.11,0,.12-.06,0-.09,0-.13.15-.06.27,0A.62.62,0,0,1,6.57,19.24Z"/><path class="cls-2" d="M5.68,19.15a1.27,1.27,0,0,0-.24.26,2.78,2.78,0,0,0-.36.62,11.61,11.61,0,0,1-.47,1.09c-.18.28-.46.55-.66.54s-.12-.17-.38-.24a.32.32,0,0,0-.3,0c-.12.08-.17.19-.23.19s-.13-.2-.08-.4a2.26,2.26,0,0,1,.25-.5,4.27,4.27,0,0,0,.25-.59,3.88,3.88,0,0,1,.6-.95c.66-.78,1.34-.67,1.41-.52s0,.1.11.08.07-.06.11-.07.12.1.08.25A.61.61,0,0,1,5.68,19.15Z"/><path class="cls-2" d="M5,18.18l-.34.12a3.6,3.6,0,0,0-.6.38,11.47,11.47,0,0,1-.93.74,1,1,0,0,1-.84.17c-.13-.08,0-.21-.22-.39a.31.31,0,0,0-.28-.12c-.15,0-.24.09-.3.06s0-.23.12-.39A2.6,2.6,0,0,1,2,18.43c.24-.17.33-.27.5-.4a4,4,0,0,1,1-.56c1-.38,1.5,0,1.5.21s0,.1.06.12.09,0,.13,0,.06.14,0,.26A.47.47,0,0,1,5,18.18Z"/><path class="cls-2" d="M5.07,17.29a2.25,2.25,0,0,0-.26-.24,2.78,2.78,0,0,0-.62-.36c-.77-.36-.83-.31-1.09-.48s-.54-.46-.53-.66.17-.12.24-.38a.32.32,0,0,0,0-.3c-.08-.12-.19-.17-.19-.23s.2-.13.4-.08a2.19,2.19,0,0,1,.5.26,6,6,0,0,0,.59.25,3.74,3.74,0,0,1,.94.6c.79.67.67,1.35.52,1.42s-.1,0-.08.11.06.07.07.11-.1.12-.26.08A.71.71,0,0,1,5.07,17.29Z"/><rect class="cls-1" x="76" y="0.01" width="12" height="12"/><path class="cls-2" d="M82.12,4.72A2,2,0,0,0,82,4.38a3.06,3.06,0,0,0-.38-.6c-.51-.69-.59-.67-.73-.94s-.27-.67-.17-.83.21,0,.4-.22a.33.33,0,0,0,.11-.28c0-.15-.09-.25-.06-.3s.24,0,.39.12a1.84,1.84,0,0,1,.32.46c.17.24.27.33.4.5a4.24,4.24,0,0,1,.56,1c.37,1,0,1.51-.22,1.5s-.1,0-.12.06,0,.09,0,.13-.14.06-.26,0A.47.47,0,0,1,82.12,4.72Z"/><path class="cls-4" d="M82,5.32a1,1,0,0,1,.63-.05.83.83,0,0,1,.49.41.65.65,0,0,1,0,.6.86.86,0,0,1-.46.31,1,1,0,0,1-.77,0,.56.56,0,0,1-.26-.27.74.74,0,0,1,0-.41.8.8,0,0,1,.09-.41A.74.74,0,0,1,82,5.32Z"/><path class="cls-2" d="M83,4.83a1.38,1.38,0,0,0,.24-.27A2.51,2.51,0,0,0,83.61,4c.37-.77.32-.83.49-1.09s.46-.54.66-.53.12.17.38.25a.32.32,0,0,0,.3,0c.12-.08.17-.19.23-.19s.13.2.08.4a3.52,3.52,0,0,1-.26.5,6.34,6.34,0,0,0-.26.58,3.74,3.74,0,0,1-.6.94c-.67.78-1.35.67-1.42.51,0,0,0-.09-.11-.07s-.07.06-.11.06-.12-.1-.08-.25A.59.59,0,0,1,83,4.83Z"/><path class="cls-2" d="M83.71,5.8l.34-.12a2.65,2.65,0,0,0,.6-.38c.69-.51.68-.58.94-.73s.68-.26.84-.16,0,.21.22.4a.34.34,0,0,0,.28.12c.14,0,.24-.09.3-.06s0,.23-.12.39a3.28,3.28,0,0,1-.47.32c-.24.16-.33.26-.5.39a3.71,3.71,0,0,1-1,.55c-1,.37-1.51,0-1.5-.22,0,0,0-.1-.06-.12s-.09,0-.13,0-.06-.15,0-.26A.47.47,0,0,1,83.71,5.8Z"/><path class="cls-2" d="M83.6,6.69a1.63,1.63,0,0,0,.26.24,3,3,0,0,0,.61.36c.78.37.84.33,1.09.49s.54.48.53.67-.17.12-.25.38a.36.36,0,0,0,0,.3c.08.12.2.17.2.24s-.2.12-.4.06a2.07,2.07,0,0,1-.5-.25c-.26-.14-.39-.18-.59-.27a3.74,3.74,0,0,1-.94-.6c-.77-.68-.65-1.35-.5-1.43s.1,0,.08-.1-.06-.08-.07-.12.11-.11.26-.07A.52.52,0,0,1,83.6,6.69Z"/><path class="cls-2" d="M82.57,7.25a1.56,1.56,0,0,0,.12.34,3.23,3.23,0,0,0,.38.6c.52.68.6.67.75.93s.27.67.17.84-.21,0-.39.22a.32.32,0,0,0-.12.29c0,.14.09.23.06.29s-.23,0-.38-.11a2.79,2.79,0,0,1-.33-.46c-.17-.24-.27-.33-.4-.5a4,4,0,0,1-.57-1c-.38-1,0-1.5.2-1.5,0,0,.11,0,.12-.06s0-.09,0-.13.15-.06.26,0A.74.74,0,0,1,82.57,7.25Z"/><path class="cls-2" d="M81.68,7.16a2.15,2.15,0,0,0-.25.26,3.5,3.5,0,0,0-.35.62c-.36.78-.31.84-.47,1.09s-.47.55-.66.54-.13-.17-.38-.24a.32.32,0,0,0-.3,0c-.12.08-.17.19-.24.19s-.12-.19-.07-.4a2.5,2.5,0,0,1,.25-.5,6,6,0,0,0,.25-.59,4.16,4.16,0,0,1,.59-.94c.67-.79,1.35-.68,1.42-.53s0,.1.11.08.07-.06.11-.07.12.1.08.26A.78.78,0,0,1,81.68,7.16Z"/><path class="cls-2" d="M81,6.2a1.56,1.56,0,0,0-.34.12,2.65,2.65,0,0,0-.6.38c-.69.51-.67.59-.94.74a1.07,1.07,0,0,1-.84.16c-.12-.07,0-.21-.22-.39a.33.33,0,0,0-.28-.12c-.14,0-.24.1-.3.06s0-.23.12-.38A2.79,2.79,0,0,1,78,6.44a4,4,0,0,0,.5-.4,3.71,3.71,0,0,1,1-.55c1-.39,1.51,0,1.51.2,0,0,0,.11.06.12s.09,0,.13,0,0,.15,0,.26A.73.73,0,0,1,81,6.2Z"/><path class="cls-2" d="M81.07,5.31a2.15,2.15,0,0,0-.26-.25,3.5,3.5,0,0,0-.62-.35c-.78-.37-.84-.32-1.09-.48s-.55-.47-.54-.67.17-.12.25-.37a.34.34,0,0,0,0-.31c-.08-.11-.19-.16-.19-.23s.2-.12.4-.07a2.5,2.5,0,0,1,.5.25c.26.14.39.17.58.26a3.74,3.74,0,0,1,1,.59c.78.68.67,1.35.51,1.42s-.09,0-.07.11.06.07.06.11-.1.12-.25.08A.46.46,0,0,1,81.07,5.31Z"/><rect class="cls-1" x="88" y="12.01" width="12" height="12"/><path class="cls-2" d="M94.12,16.72a2,2,0,0,0-.12-.34,2.65,2.65,0,0,0-.38-.6c-.51-.69-.59-.67-.73-.94s-.27-.67-.17-.83.21,0,.4-.22a.35.35,0,0,0,.12-.28c0-.15-.09-.25-.06-.3s.23,0,.38.12a2.11,2.11,0,0,1,.33.46c.16.24.26.33.39.5a3.56,3.56,0,0,1,.56,1c.38,1,0,1.51-.21,1.5,0,0-.11,0-.12.06s0,.09,0,.13-.15.06-.27-.05A.62.62,0,0,1,94.12,16.72Z"/><path class="cls-4" d="M94,17.32a1,1,0,0,1,.63-.05.83.83,0,0,1,.49.41.64.64,0,0,1,0,.6.89.89,0,0,1-.47.31,1,1,0,0,1-.77,0,.56.56,0,0,1-.26-.27.74.74,0,0,1,0-.41.64.64,0,0,1,.09-.41A.67.67,0,0,1,94,17.32Z"/><path class="cls-2" d="M95,16.83a1.75,1.75,0,0,0,.25-.27,2.84,2.84,0,0,0,.35-.61c.37-.77.32-.83.49-1.09s.47-.54.66-.53.13.17.38.25a.32.32,0,0,0,.3,0c.12-.08.17-.19.24-.19s.12.2.07.4a2.69,2.69,0,0,1-.26.5c-.13.25-.17.39-.26.58a3.74,3.74,0,0,1-.6.94c-.67.78-1.34.67-1.42.51,0,0,0-.09-.11-.07s-.07.06-.11.06-.12-.1-.08-.25A.59.59,0,0,1,95,16.83Z"/><path class="cls-2" d="M95.71,17.8a2.39,2.39,0,0,0,.34-.12,2.72,2.72,0,0,0,.61-.38c.69-.51.67-.58.94-.73a1.07,1.07,0,0,1,.84-.16c.13.08,0,.21.21.4a.34.34,0,0,0,.28.12c.15,0,.24-.09.3-.06s0,.23-.12.39a2.6,2.6,0,0,1-.46.32,5.5,5.5,0,0,0-.51.39,3.71,3.71,0,0,1-1,.55c-1,.37-1.51-.05-1.5-.22s0-.1-.06-.12-.09,0-.13,0-.06-.15,0-.26A.47.47,0,0,1,95.71,17.8Z"/><path class="cls-2" d="M95.6,18.69a2.25,2.25,0,0,0,.26.24,2.78,2.78,0,0,0,.62.36c.77.37.83.33,1.08.49s.54.48.53.67-.17.12-.25.38a.32.32,0,0,0,0,.3c.08.12.19.17.19.24s-.2.12-.4.06a2.07,2.07,0,0,1-.5-.25c-.26-.14-.39-.18-.58-.27a3.74,3.74,0,0,1-.94-.6c-.78-.68-.66-1.35-.51-1.43s.1,0,.08-.1-.06-.08-.06-.12.1-.11.25-.07A.45.45,0,0,1,95.6,18.69Z"/><path class="cls-2" d="M94.57,19.25a1.56,1.56,0,0,0,.12.34,2.82,2.82,0,0,0,.39.6c.52.68.59.67.74.93A1,1,0,0,1,96,22c-.07.13-.21,0-.39.22a.35.35,0,0,0-.12.29c0,.14.1.23.07.29s-.24,0-.39-.11a2.79,2.79,0,0,1-.33-.46c-.17-.24-.27-.33-.4-.5a3.56,3.56,0,0,1-.56-1c-.39-.95,0-1.5.19-1.5s.11,0,.12-.06,0-.09,0-.13.15-.06.27,0A.62.62,0,0,1,94.57,19.25Z"/><path class="cls-2" d="M93.68,19.16a1.61,1.61,0,0,0-.24.26,3,3,0,0,0-.36.62,11.61,11.61,0,0,1-.47,1.09c-.18.29-.46.55-.66.54s-.12-.17-.38-.24a.32.32,0,0,0-.3,0c-.12.08-.17.19-.23.19s-.13-.19-.08-.4a2.5,2.5,0,0,1,.25-.5,4.27,4.27,0,0,0,.25-.59,3.74,3.74,0,0,1,.6-.94c.66-.79,1.34-.68,1.41-.53s0,.1.11.08.07-.06.11-.07.12.1.08.26A.54.54,0,0,1,93.68,19.16Z"/><path class="cls-2" d="M93,18.2a1.77,1.77,0,0,0-.34.12,2.65,2.65,0,0,0-.6.38c-.68.51-.67.59-.93.74a1.07,1.07,0,0,1-.84.16c-.13-.07,0-.21-.22-.39a.34.34,0,0,0-.28-.12c-.15,0-.24.1-.3.06s0-.23.12-.38a2.11,2.11,0,0,1,.46-.33,4.84,4.84,0,0,0,.5-.4,3.56,3.56,0,0,1,1-.55c1-.39,1.5,0,1.5.2,0,0,0,.11.06.12s.09,0,.13,0,.06.15,0,.26A.73.73,0,0,1,93,18.2Z"/><path class="cls-2" d="M93.07,17.31a2.15,2.15,0,0,0-.26-.25,3.18,3.18,0,0,0-.62-.35c-.77-.37-.83-.32-1.09-.48s-.54-.47-.53-.67.17-.12.24-.37a.34.34,0,0,0,0-.31c-.08-.11-.19-.16-.19-.23s.2-.12.4-.07a2.07,2.07,0,0,1,.5.25,6.38,6.38,0,0,0,.59.26,3.82,3.82,0,0,1,.94.59c.79.68.67,1.35.52,1.42s-.1,0-.08.11.06.07.07.11-.1.12-.26.08A.54.54,0,0,1,93.07,17.31Z"/><rect class="cls-1" x="88" y="75.99" width="12" height="12"/><path class="cls-2" d="M94.12,80.7a1.77,1.77,0,0,0-.12-.34,2.65,2.65,0,0,0-.38-.6c-.51-.69-.59-.67-.73-.94s-.27-.67-.17-.84.21,0,.4-.22a.33.33,0,0,0,.12-.28c0-.14-.09-.24-.06-.3s.23,0,.38.13a2.11,2.11,0,0,1,.33.46c.16.24.26.33.39.5a3.56,3.56,0,0,1,.56,1c.38,1,0,1.5-.21,1.5,0,0-.11,0-.12.06s0,.09,0,.13-.15.06-.27-.05A.62.62,0,0,1,94.12,80.7Z"/><path class="cls-4" d="M94,81.29a1.05,1.05,0,0,1,.63,0,.8.8,0,0,1,.49.41.64.64,0,0,1,0,.6.82.82,0,0,1-.47.3,1,1,0,0,1-.77,0,.6.6,0,0,1-.26-.27.74.74,0,0,1,0-.41.61.61,0,0,1,.09-.41A.8.8,0,0,1,94,81.29Z"/><path class="cls-2" d="M95,80.8a1.58,1.58,0,0,0,.25-.26,3.42,3.42,0,0,0,.35-.61,11.93,11.93,0,0,1,.49-1.09c.18-.28.47-.55.66-.53s.13.17.38.24a.33.33,0,0,0,.3,0c.12-.08.17-.2.24-.2s.12.2.07.4a2.19,2.19,0,0,1-.26.5c-.13.26-.17.39-.26.59a3.74,3.74,0,0,1-.6.94c-.67.78-1.34.66-1.42.51s0-.1-.11-.08-.07.06-.11.07-.12-.1-.08-.25A.82.82,0,0,1,95,80.8Z"/><path class="cls-2" d="M95.71,81.77a2.13,2.13,0,0,0,.34-.11,3.7,3.7,0,0,0,.61-.38c.69-.51.67-.58.94-.73a1.07,1.07,0,0,1,.84-.16c.13.08,0,.21.21.4a.38.38,0,0,0,.28.12c.15,0,.24-.09.3-.06s0,.23-.12.38a2.11,2.11,0,0,1-.46.33,5.5,5.5,0,0,0-.51.39,3.71,3.71,0,0,1-1,.55c-1,.37-1.51,0-1.5-.22,0,0,0-.11-.06-.12s-.09,0-.13,0-.06-.15,0-.27A.92.92,0,0,1,95.71,81.77Z"/><path class="cls-2" d="M95.6,82.66a2.15,2.15,0,0,0,.26.25,2.78,2.78,0,0,0,.62.36c.77.37.83.32,1.08.49s.54.47.53.67-.17.12-.25.37a.35.35,0,0,0,0,.31c.08.11.19.17.19.23s-.2.12-.4.07a2.19,2.19,0,0,1-.5-.26c-.26-.14-.39-.17-.58-.26a4.06,4.06,0,0,1-.94-.6c-.78-.68-.66-1.36-.51-1.43s.1,0,.08-.11-.06-.07-.06-.11.1-.12.25-.08A.59.59,0,0,1,95.6,82.66Z"/><path class="cls-2" d="M94.57,83.23a1.56,1.56,0,0,0,.12.34,3.09,3.09,0,0,0,.39.6c.52.68.59.67.74.93a1,1,0,0,1,.17.84c-.07.13-.21,0-.39.22a.34.34,0,0,0-.12.28c0,.15.1.24.07.3s-.24,0-.39-.12a2.11,2.11,0,0,1-.33-.46c-.17-.23-.27-.33-.4-.49a3.56,3.56,0,0,1-.56-1c-.39-1,0-1.51.19-1.5s.11,0,.12-.06,0-.09,0-.13.15-.06.27,0A.62.62,0,0,1,94.57,83.23Z"/><path class="cls-2" d="M93.68,83.14a1.27,1.27,0,0,0-.24.26,2.78,2.78,0,0,0-.36.62,11.61,11.61,0,0,1-.47,1.09c-.18.28-.46.55-.66.54s-.12-.17-.38-.24a.32.32,0,0,0-.3,0c-.12.08-.17.19-.23.19s-.13-.2-.08-.4a2.26,2.26,0,0,1,.25-.5,4.27,4.27,0,0,0,.25-.59,4.1,4.1,0,0,1,.6-1c.66-.78,1.34-.67,1.41-.52s0,.1.11.08.07-.06.11-.07.12.1.08.25A.61.61,0,0,1,93.68,83.14Z"/><path class="cls-2" d="M93,82.18a1.59,1.59,0,0,0-.34.11,3.6,3.6,0,0,0-.6.38,11.47,11.47,0,0,1-.93.74,1,1,0,0,1-.84.17c-.13-.08,0-.21-.22-.39a.31.31,0,0,0-.28-.12c-.15,0-.24.09-.3.06s0-.23.12-.39a2.6,2.6,0,0,1,.46-.32c.24-.17.33-.27.5-.4a4,4,0,0,1,1-.56c1-.38,1.5,0,1.5.21,0,0,0,.1.06.12s.09,0,.13,0,.06.14,0,.26A.73.73,0,0,1,93,82.18Z"/><path class="cls-2" d="M93.07,81.28a2.25,2.25,0,0,0-.26-.24,3.85,3.85,0,0,0-.62-.36c-.77-.36-.83-.31-1.09-.48s-.54-.46-.53-.66.17-.12.24-.38a.32.32,0,0,0,0-.3c-.08-.12-.19-.17-.19-.23s.2-.13.4-.08a2.19,2.19,0,0,1,.5.26,6,6,0,0,0,.59.25,3.74,3.74,0,0,1,.94.6c.79.67.67,1.35.52,1.42s-.1,0-.08.11.06.07.07.11-.1.12-.26.08A.71.71,0,0,1,93.07,81.28Z"/><rect class="cls-1" x="76" y="87.99" width="12" height="12"/><path class="cls-2" d="M82.12,92.7a1.77,1.77,0,0,0-.12-.34,2.65,2.65,0,0,0-.38-.6c-.51-.69-.59-.67-.73-.94s-.27-.67-.17-.84.21,0,.4-.22a.33.33,0,0,0,.12-.28c0-.14-.09-.24-.06-.3s.23,0,.38.13a2.11,2.11,0,0,1,.33.46c.16.24.26.33.39.5a3.56,3.56,0,0,1,.56,1c.38,1,0,1.5-.21,1.5,0,0-.11,0-.12.06s0,.09,0,.13-.15.06-.27-.05A.62.62,0,0,1,82.12,92.7Z"/><path class="cls-4" d="M82,93.29a1.05,1.05,0,0,1,.63,0,.8.8,0,0,1,.49.41.64.64,0,0,1,0,.6.82.82,0,0,1-.47.3,1,1,0,0,1-.77,0,.6.6,0,0,1-.26-.27.74.74,0,0,1,0-.41.61.61,0,0,1,.09-.41A.8.8,0,0,1,82,93.29Z"/><path class="cls-2" d="M83,92.8a1.58,1.58,0,0,0,.25-.26,3.42,3.42,0,0,0,.35-.61,11.93,11.93,0,0,1,.49-1.09c.18-.28.47-.55.66-.53s.13.17.38.24a.33.33,0,0,0,.3,0c.12-.08.17-.2.24-.2s.12.2.07.4a2.19,2.19,0,0,1-.26.5c-.13.26-.17.39-.26.59a3.74,3.74,0,0,1-.6.94c-.67.78-1.34.66-1.42.51s0-.1-.11-.08-.07.06-.11.07-.12-.1-.08-.25A.82.82,0,0,1,83,92.8Z"/><path class="cls-2" d="M83.71,93.77a2.13,2.13,0,0,0,.34-.11,3.7,3.7,0,0,0,.61-.38c.69-.51.67-.58.94-.73a1.07,1.07,0,0,1,.84-.16c.13.08,0,.21.21.4a.38.38,0,0,0,.28.12c.15,0,.24-.09.3-.06s0,.23-.12.38a2.11,2.11,0,0,1-.46.33,5.5,5.5,0,0,0-.51.39,3.71,3.71,0,0,1-1,.55c-1,.37-1.51,0-1.5-.22,0,0,0-.11-.06-.12s-.09,0-.13,0-.06-.15,0-.27A.92.92,0,0,1,83.71,93.77Z"/><path class="cls-2" d="M83.6,94.66a2.15,2.15,0,0,0,.26.25,2.78,2.78,0,0,0,.62.36c.77.37.83.32,1.08.49s.54.47.53.67-.17.12-.25.37a.35.35,0,0,0,0,.31c.08.11.19.17.19.23s-.2.12-.4.07a2.19,2.19,0,0,1-.5-.26c-.26-.14-.39-.17-.58-.26a4.06,4.06,0,0,1-.94-.6c-.78-.68-.66-1.36-.51-1.43s.1,0,.08-.11-.06-.07-.06-.11.1-.12.25-.08A.59.59,0,0,1,83.6,94.66Z"/><path class="cls-2" d="M82.57,95.23a1.56,1.56,0,0,0,.12.34,3.09,3.09,0,0,0,.39.6c.52.68.59.67.74.93a1,1,0,0,1,.17.84c-.07.13-.21,0-.39.22a.34.34,0,0,0-.12.28c0,.15.1.24.07.3s-.24,0-.39-.12a2.11,2.11,0,0,1-.33-.46c-.17-.23-.27-.33-.4-.49a3.56,3.56,0,0,1-.56-1c-.39-1,0-1.51.19-1.5s.11,0,.12-.06,0-.09,0-.13.15-.06.27,0A.62.62,0,0,1,82.57,95.23Z"/><path class="cls-2" d="M81.68,95.14a1.27,1.27,0,0,0-.24.26,2.78,2.78,0,0,0-.36.62,11.61,11.61,0,0,1-.47,1.09c-.18.28-.46.55-.66.54s-.12-.17-.38-.24a.32.32,0,0,0-.3,0c-.12.08-.17.19-.23.19s-.13-.2-.08-.4a2.26,2.26,0,0,1,.25-.5,4.27,4.27,0,0,0,.25-.59,4.1,4.1,0,0,1,.6-1c.66-.78,1.34-.67,1.41-.52s0,.1.11.08.07-.06.11-.07.12.1.08.25A.61.61,0,0,1,81.68,95.14Z"/><path class="cls-2" d="M81,94.18a1.59,1.59,0,0,0-.34.11,3.6,3.6,0,0,0-.6.38,11.47,11.47,0,0,1-.93.74,1,1,0,0,1-.84.17c-.13-.08,0-.21-.22-.39a.31.31,0,0,0-.28-.12c-.15,0-.24.09-.3.06s0-.23.12-.39a2.6,2.6,0,0,1,.46-.32c.24-.17.33-.27.5-.4a4,4,0,0,1,1-.56c1-.38,1.5,0,1.5.21,0,0,0,.1.06.12s.09,0,.13,0,.06.14,0,.26A.73.73,0,0,1,81,94.18Z"/><path class="cls-2" d="M81.07,93.28a2.25,2.25,0,0,0-.26-.24,3.85,3.85,0,0,0-.62-.36c-.77-.36-.83-.31-1.09-.48s-.54-.46-.53-.66.17-.12.24-.38a.32.32,0,0,0,0-.3c-.08-.12-.19-.17-.19-.23s.2-.13.4-.08a2.41,2.41,0,0,1,.5.26,6,6,0,0,0,.59.25,3.74,3.74,0,0,1,.94.6c.79.67.67,1.35.52,1.42s-.1,0-.08.11.06.07.07.11-.1.12-.26.08A.71.71,0,0,1,81.07,93.28Z"/><rect class="cls-1" x="11.94" y="87.99" width="12" height="12"/><path class="cls-2" d="M18.06,92.71a1.43,1.43,0,0,0-.11-.34,3.6,3.6,0,0,0-.38-.6c-.51-.69-.59-.68-.74-.94a1.07,1.07,0,0,1-.16-.84c.08-.13.21,0,.39-.22a.31.31,0,0,0,.12-.28c0-.14-.09-.24-.06-.3s.24,0,.39.12a3.7,3.7,0,0,1,.32.46c.17.25.27.34.4.51a3.56,3.56,0,0,1,.55,1c.38,1,0,1.5-.21,1.5s-.1,0-.12.06,0,.09,0,.13-.15.06-.26,0A.73.73,0,0,1,18.06,92.71Z"/><path class="cls-4" d="M17.9,93.3a1,1,0,0,1,.63,0,.83.83,0,0,1,.5.41.63.63,0,0,1,0,.59.76.76,0,0,1-.47.31,1,1,0,0,1-.77.05.62.62,0,0,1-.25-.27.74.74,0,0,1,0-.41.68.68,0,0,1,.09-.41A.77.77,0,0,1,17.9,93.3Z"/><path class="cls-2" d="M19,92.81a1.63,1.63,0,0,0,.24-.26,3,3,0,0,0,.36-.61c.37-.78.32-.84.48-1.09s.47-.55.67-.54.12.18.37.25a.39.39,0,0,0,.31,0c.12-.09.17-.2.23-.2s.12.2.07.4a2.07,2.07,0,0,1-.25.5,6.38,6.38,0,0,0-.26.59,3.74,3.74,0,0,1-.6.94c-.68.78-1.35.66-1.42.51s0-.1-.11-.08-.07.06-.11.07-.12-.1-.08-.26A.52.52,0,0,1,19,92.81Z"/><path class="cls-2" d="M19.66,93.78a2,2,0,0,0,.34-.12,3,3,0,0,0,.6-.37c.69-.51.68-.59.94-.73a1.07,1.07,0,0,1,.84-.16c.13.08,0,.21.22.4a.32.32,0,0,0,.28.11c.14,0,.24-.09.3,0s0,.23-.13.38a1.84,1.84,0,0,1-.46.32c-.24.17-.33.27-.5.4a3.87,3.87,0,0,1-1,.55c-1,.37-1.5-.05-1.5-.22s0-.11-.06-.12-.09,0-.13,0-.05-.14.06-.26A.51.51,0,0,1,19.66,93.78Z"/><path class="cls-2" d="M19.55,94.67a1.58,1.58,0,0,0,.26.25,3.48,3.48,0,0,0,.61.36c.77.37.83.32,1.09.49s.54.47.53.67-.18.12-.25.37a.3.3,0,0,0,0,.3c.08.12.19.17.19.24s-.2.12-.4.07a2.69,2.69,0,0,1-.5-.26,5.32,5.32,0,0,0-.58-.26,3.67,3.67,0,0,1-.94-.61c-.78-.67-.65-1.35-.5-1.42s.1,0,.08-.11-.06-.07-.07-.11.1-.12.26-.08A.71.71,0,0,1,19.55,94.67Z"/><path class="cls-2" d="M18.52,95.24a1.27,1.27,0,0,0,.12.34,3.06,3.06,0,0,0,.38.6,11.47,11.47,0,0,1,.74.93c.17.29.28.67.18.84s-.21,0-.4.22a.32.32,0,0,0-.11.28c0,.14.09.24.06.3s-.23,0-.39-.12a2.6,2.6,0,0,1-.32-.46,4.77,4.77,0,0,0-.41-.49,4.24,4.24,0,0,1-.56-1c-.38-1,0-1.51.2-1.5,0,0,.1,0,.12-.06s0-.1,0-.13.14-.06.26,0A.73.73,0,0,1,18.52,95.24Z"/><path class="cls-2" d="M17.62,95.14a2.55,2.55,0,0,0-.24.27A3.18,3.18,0,0,0,17,96a10.43,10.43,0,0,1-.48,1.09c-.18.28-.46.55-.65.54s-.13-.17-.38-.24a.35.35,0,0,0-.31,0c-.11.09-.16.2-.23.2s-.12-.2-.08-.4a3.05,3.05,0,0,1,.26-.5,6,6,0,0,0,.25-.59,4,4,0,0,1,.59-1c.67-.78,1.34-.67,1.42-.52s0,.1.11.08.07-.06.11-.07.12.1.08.25A.59.59,0,0,1,17.62,95.14Z"/><path class="cls-2" d="M16.92,94.18a2.39,2.39,0,0,0-.34.12,3.7,3.7,0,0,0-.61.38,9.82,9.82,0,0,1-.93.74,1,1,0,0,1-.84.17c-.13-.08,0-.21-.22-.4a.32.32,0,0,0-.28-.11c-.14,0-.24.09-.3.06s0-.23.12-.39a3.7,3.7,0,0,1,.46-.32c.24-.17.33-.27.5-.4a3.56,3.56,0,0,1,1-.56c1-.38,1.51,0,1.5.21,0,0,0,.1.06.12s.09,0,.13,0,.06.14-.05.26A.46.46,0,0,1,16.92,94.18Z"/><path class="cls-2" d="M17,93.29a2.55,2.55,0,0,0-.27-.24,3,3,0,0,0-.61-.36,10.43,10.43,0,0,1-1.09-.48c-.28-.18-.55-.46-.54-.66s.17-.12.25-.38a.32.32,0,0,0,0-.3c-.08-.12-.19-.17-.19-.24s.2-.12.4-.07a2.69,2.69,0,0,1,.5.26,6,6,0,0,0,.58.25,3.67,3.67,0,0,1,.95.6c.78.67.66,1.35.51,1.42s-.09,0-.08.11.07.07.07.11-.1.12-.25.08A.59.59,0,0,1,17,93.29Z"/><rect class="cls-1" y="75.99" width="12" height="12"/><path class="cls-2" d="M6.12,80.7A1.77,1.77,0,0,0,6,80.36a2.65,2.65,0,0,0-.38-.6c-.51-.69-.59-.67-.73-.94s-.27-.67-.17-.84.21,0,.4-.22a.33.33,0,0,0,.12-.28c0-.14-.09-.24-.06-.3s.23,0,.38.13a2.11,2.11,0,0,1,.33.46c.16.24.26.33.39.5a3.56,3.56,0,0,1,.56,1c.38,1,0,1.5-.21,1.5,0,0-.11,0-.12.06s0,.09,0,.13-.15.06-.27-.05A.62.62,0,0,1,6.12,80.7Z"/><path class="cls-4" d="M6,81.29a1.05,1.05,0,0,1,.63,0,.8.8,0,0,1,.49.41.64.64,0,0,1,0,.6.82.82,0,0,1-.47.3,1,1,0,0,1-.77,0,.6.6,0,0,1-.26-.27.74.74,0,0,1,0-.41.61.61,0,0,1,.09-.41A.8.8,0,0,1,6,81.29Z"/><path class="cls-2" d="M7,80.8a1.58,1.58,0,0,0,.25-.26,3.42,3.42,0,0,0,.35-.61,11.93,11.93,0,0,1,.49-1.09c.18-.28.47-.55.66-.53s.13.17.38.24a.33.33,0,0,0,.3,0c.12-.08.17-.2.24-.2s.12.2.07.4a2.19,2.19,0,0,1-.26.5c-.13.26-.17.39-.26.59a3.74,3.74,0,0,1-.6.94c-.67.78-1.34.66-1.42.51s0-.1-.11-.08-.07.06-.11.07-.12-.1-.08-.25A.82.82,0,0,1,7,80.8Z"/><path class="cls-2" d="M7.71,81.77a2.13,2.13,0,0,0,.34-.11,3.7,3.7,0,0,0,.61-.38c.69-.51.67-.58.94-.73a1.07,1.07,0,0,1,.84-.16c.13.08,0,.21.21.4a.38.38,0,0,0,.28.12c.15,0,.24-.09.3-.06s0,.23-.12.38a2.11,2.11,0,0,1-.46.33,5.5,5.5,0,0,0-.51.39,3.71,3.71,0,0,1-1,.55c-1,.37-1.51,0-1.5-.22,0,0,0-.11-.06-.12s-.09,0-.13,0-.06-.15,0-.27A.92.92,0,0,1,7.71,81.77Z"/><path class="cls-2" d="M7.6,82.66a2.15,2.15,0,0,0,.26.25,2.78,2.78,0,0,0,.62.36c.77.37.83.32,1.08.49s.54.47.53.67-.17.12-.25.37a.35.35,0,0,0,0,.31c.08.11.19.17.19.23s-.2.12-.4.07a2.19,2.19,0,0,1-.5-.26c-.26-.14-.39-.17-.58-.26a4.06,4.06,0,0,1-.94-.6c-.78-.68-.66-1.36-.51-1.43s.1,0,.08-.11-.06-.07-.06-.11.1-.12.25-.08A.59.59,0,0,1,7.6,82.66Z"/><path class="cls-2" d="M6.57,83.23a1.56,1.56,0,0,0,.12.34,3.09,3.09,0,0,0,.39.6c.52.68.59.67.74.93a1,1,0,0,1,.17.84c-.07.13-.21,0-.39.22a.34.34,0,0,0-.12.28c0,.15.1.24.07.3s-.24,0-.39-.12a2.11,2.11,0,0,1-.33-.46c-.17-.23-.27-.33-.4-.49a3.56,3.56,0,0,1-.56-1c-.39-1,0-1.51.19-1.5s.11,0,.12-.06,0-.09,0-.13.15-.06.27,0A.62.62,0,0,1,6.57,83.23Z"/><path class="cls-2" d="M5.68,83.14a1.27,1.27,0,0,0-.24.26,2.78,2.78,0,0,0-.36.62,11.61,11.61,0,0,1-.47,1.09c-.18.28-.46.55-.66.54s-.12-.17-.38-.24a.32.32,0,0,0-.3,0c-.12.08-.17.19-.23.19s-.13-.2-.08-.4a2.26,2.26,0,0,1,.25-.5,4.27,4.27,0,0,0,.25-.59,4.1,4.1,0,0,1,.6-1c.66-.78,1.34-.67,1.41-.52s0,.1.11.08.07-.06.11-.07.12.1.08.25A.61.61,0,0,1,5.68,83.14Z"/><path class="cls-2" d="M5,82.18a1.59,1.59,0,0,0-.34.11,3.6,3.6,0,0,0-.6.38,11.47,11.47,0,0,1-.93.74,1,1,0,0,1-.84.17c-.13-.08,0-.21-.22-.39a.31.31,0,0,0-.28-.12c-.15,0-.24.09-.3.06s0-.23.12-.39A2.6,2.6,0,0,1,2,82.42c.24-.17.33-.27.5-.4a4,4,0,0,1,1-.56c1-.38,1.5,0,1.5.21,0,0,0,.1.06.12s.09,0,.13,0,.06.14,0,.26A.73.73,0,0,1,5,82.18Z"/><path class="cls-2" d="M5.07,81.28A2.25,2.25,0,0,0,4.81,81a3.85,3.85,0,0,0-.62-.36c-.77-.36-.83-.31-1.09-.48s-.54-.46-.53-.66.17-.12.24-.38a.32.32,0,0,0,0-.3c-.08-.12-.19-.17-.19-.23s.2-.13.4-.08a2.19,2.19,0,0,1,.5.26,6,6,0,0,0,.59.25,3.74,3.74,0,0,1,.94.6c.79.67.67,1.35.52,1.42s-.1,0-.08.11.06.07.07.11-.1.12-.26.08A.71.71,0,0,1,5.07,81.28Z"/><path class="cls-2" d="M58.88,90.13a3.81,3.81,0,0,1,1.45.13,3.42,3.42,0,0,1,1.55.91A3,3,0,0,1,62.75,93a2.66,2.66,0,0,1-.67,2,2.63,2.63,0,0,1-1.59.77,2.34,2.34,0,0,1-1.78-.41,1.46,1.46,0,0,1-.54-.86,1.28,1.28,0,0,1,.37-1.08A1.17,1.17,0,0,1,60,93.37a.92.92,0,0,1,.27.5.88.88,0,0,0-.41-.23.74.74,0,0,0-.67.13.65.65,0,0,0-.21.63c.12.41.81.58,1.31.47a1.48,1.48,0,0,0,.94-.72,1.75,1.75,0,0,0-.13-1.66,1.89,1.89,0,0,0-1-.7,2.43,2.43,0,0,0-3.24,2,3.81,3.81,0,0,0,1.35,3.06,6,6,0,0,0,3.33,1.75,1.89,1.89,0,0,1-.29-.59,1.75,1.75,0,0,1-.05-.94,2,2,0,0,1,.5-.82,4.93,4.93,0,0,1,.63-.5,3.43,3.43,0,0,0,.8-1,3.55,3.55,0,0,0,.44-2,3.49,3.49,0,0,0-1.31-2.35,3.41,3.41,0,0,0-2-.69A3.29,3.29,0,0,0,58.88,90.13Z"/><path class="cls-2" d="M41.44,90.13a3.79,3.79,0,0,0-1.45.13,3.49,3.49,0,0,0-1.56.91A3,3,0,0,0,37.57,93a2.66,2.66,0,0,0,.67,2,2.61,2.61,0,0,0,1.59.77,2.31,2.31,0,0,0,1.77-.41,1.47,1.47,0,0,0,.55-.86,1.32,1.32,0,0,0-.37-1.08,1.17,1.17,0,0,0-1.47-.11,1,1,0,0,0-.28.5.88.88,0,0,1,.41-.23.76.76,0,0,1,.68.13.64.64,0,0,1,.2.63c-.12.41-.8.58-1.3.47a1.45,1.45,0,0,1-.94-.72,1.72,1.72,0,0,1,.13-1.66,1.91,1.91,0,0,1,1-.7,2.59,2.59,0,0,1,2.1.22,2.62,2.62,0,0,1,1.15,1.81,3.84,3.84,0,0,1-1.35,3.06,6,6,0,0,1-3.34,1.75,1.89,1.89,0,0,0,.34-1.53,1.77,1.77,0,0,0-.5-.82,4.32,4.32,0,0,0-.63-.5,3.53,3.53,0,0,1-.79-1A3.31,3.31,0,0,1,38,90.51a3.34,3.34,0,0,1,2-.69A3.31,3.31,0,0,1,41.44,90.13Z"/><path class="cls-2" d="M89.9,41.28A3.84,3.84,0,0,1,90,39.83,3.3,3.3,0,0,1,91,38.27a2.93,2.93,0,0,1,1.83-.86,2.67,2.67,0,0,1,2.06.67,2.63,2.63,0,0,1,.76,1.59,2.31,2.31,0,0,1-.41,1.77,1.36,1.36,0,0,1-.85.55,1.33,1.33,0,0,1-1.09-.37,1.17,1.17,0,0,1-.1-1.47.91.91,0,0,1,.5-.28.85.85,0,0,0-.24.41.79.79,0,0,0,.13.68.68.68,0,0,0,.64.21c.41-.13.57-.81.47-1.31a1.51,1.51,0,0,0-.72-.94,1.75,1.75,0,0,0-1.66.13,1.86,1.86,0,0,0-.71,1,2.66,2.66,0,0,0,.22,2.09,2.61,2.61,0,0,0,1.81,1.15,3.86,3.86,0,0,0,3.07-1.35A6,6,0,0,0,98.4,38.6a1.93,1.93,0,0,1-.58.29,1.69,1.69,0,0,1-.94,0,1.8,1.8,0,0,1-.82-.49,4.26,4.26,0,0,1-.5-.64,3.52,3.52,0,0,0-2.93-1.23,3.39,3.39,0,0,0-2.34,1.31,3.24,3.24,0,0,0-.69,2A3.33,3.33,0,0,0,89.9,41.28Z"/><path class="cls-2" d="M89.9,58.72A3.84,3.84,0,0,0,90,60.17,3.3,3.3,0,0,0,91,61.73a2.93,2.93,0,0,0,1.83.86,2.67,2.67,0,0,0,2.06-.67,2.63,2.63,0,0,0,.76-1.59,2.31,2.31,0,0,0-.41-1.77,1.36,1.36,0,0,0-.85-.55,1.33,1.33,0,0,0-1.09.37,1.17,1.17,0,0,0-.1,1.47.91.91,0,0,0,.5.28.85.85,0,0,1-.24-.41.79.79,0,0,1,.13-.68.68.68,0,0,1,.64-.21c.41.13.57.81.47,1.31a1.51,1.51,0,0,1-.72.94A1.75,1.75,0,0,1,92.27,61a1.86,1.86,0,0,1-.71-1,2.66,2.66,0,0,1,.22-2.09,2.61,2.61,0,0,1,1.81-1.15,3.86,3.86,0,0,1,3.07,1.35A6,6,0,0,1,98.4,61.4a1.93,1.93,0,0,0-.58-.29,1.69,1.69,0,0,0-.94,0,1.8,1.8,0,0,0-.82.49,4.26,4.26,0,0,0-.5.64,3.52,3.52,0,0,1-2.93,1.23,3.39,3.39,0,0,1-2.34-1.31,3.24,3.24,0,0,1-.69-2A3.33,3.33,0,0,1,89.9,58.72Z"/><path class="cls-2" d="M10,58.6a3.84,3.84,0,0,1-.13,1.46A3.33,3.33,0,0,1,9,61.61a3,3,0,0,1-1.84.87,2.68,2.68,0,0,1-2.05-.68,2.65,2.65,0,0,1-.77-1.58,2.35,2.35,0,0,1,.42-1.78,1.36,1.36,0,0,1,.85-.54,1.23,1.23,0,0,1,1.08.37,1.16,1.16,0,0,1,.11,1.46,1,1,0,0,1-.5.28.88.88,0,0,0,.23-.41.74.74,0,0,0-.13-.67.65.65,0,0,0-.63-.21c-.41.12-.58.81-.47,1.31A1.48,1.48,0,0,0,6,61a1.75,1.75,0,0,0,1.66-.13,1.86,1.86,0,0,0,.7-1,2.61,2.61,0,0,0-.22-2.1,2.57,2.57,0,0,0-1.8-1.14A3.83,3.83,0,0,0,3.24,58a6.11,6.11,0,0,0-1.75,3.33A2,2,0,0,1,2.08,61,1.75,1.75,0,0,1,3,61a1.8,1.8,0,0,1,.82.5,4.93,4.93,0,0,1,.5.63,3.43,3.43,0,0,0,1,.8,3.56,3.56,0,0,0,2,.44A3.49,3.49,0,0,0,9.61,62,3.29,3.29,0,0,0,10,58.6Z"/><path class="cls-2" d="M10,41.17a3.79,3.79,0,0,0-.13-1.45A3.39,3.39,0,0,0,9,38.16a3,3,0,0,0-1.84-.87A2.72,2.72,0,0,0,5.06,38a2.67,2.67,0,0,0-.77,1.58,2.35,2.35,0,0,0,.42,1.78,1.36,1.36,0,0,0,.85.54,1.25,1.25,0,0,0,1.08-.36A1.17,1.17,0,0,0,6.75,40a1,1,0,0,0-.5-.28.88.88,0,0,1,.23.41.76.76,0,0,1-.13.68.64.64,0,0,1-.63.2c-.41-.12-.58-.8-.47-1.3A1.45,1.45,0,0,1,6,38.81a1.72,1.72,0,0,1,1.66.13,1.91,1.91,0,0,1,.7,1A2.59,2.59,0,0,1,8.11,42a2.63,2.63,0,0,1-1.8,1.15,3.89,3.89,0,0,1-3.07-1.35,6.1,6.1,0,0,1-1.75-3.34,2,2,0,0,0,.59.3,1.68,1.68,0,0,0,.94,0,1.72,1.72,0,0,0,.82-.5,4.93,4.93,0,0,0,.5-.63,3.35,3.35,0,0,1,1-.79,3.47,3.47,0,0,1,2-.44,3.5,3.5,0,0,1,2.35,1.3,3.41,3.41,0,0,1,.69,2A3.35,3.35,0,0,1,10,41.17Z"/></g></svg>