<svg id="Laag_1" data-name="Laag 1" xmlns="http://www.w3.org/2000/svg" viewBox="0 0 100 100"><defs><style>.cls-1{fill:#fff;}.cls-2,.cls-8{fill:#097f41;}.cls-3,.cls-4,.cls-5,.cls-6{fill:none;}.cls-3,.cls-6,.cls-7{stroke:#fff;}.cls-3,.cls-4{stroke-linecap:round;stroke-linejoin:round;}.cls-3{stroke-width:0.28px;}.cls-4,.cls-5{stroke:#097f41;stroke-width:0.24px;}.cls-6{stroke-width:0.12px;}.cls-7{fill:#1c8e57;stroke-width:0.1px;}.cls-8{fill-rule:evenodd;}</style></defs><rect class="cls-1" width="100" height="100"/><rect class="cls-2" width="12" height="12"/><rect class="cls-1" x="4.08" width="4" height="12"/><rect class="cls-2" y="88" width="12" height="12"/><rect class="cls-1" x="4.08" y="88" width="4" height="12"/><rect class="cls-2" x="88" width="12" height="12"/><rect class="cls-1" x="92.08" width="4" height="12"/><rect class="cls-2" x="88" y="88" width="12" height="12"/><rect class="cls-1" x="92.08" y="88" width="4" height="12"/><rect class="cls-2" x="24" width="12" height="12"/><circle class="cls-1" cx="30.03" cy="4.09" r="1.21"/><path class="cls-3" d="M31.63,4A1.6,1.6,0,0,1,30,5.64m0,0A1.59,1.59,0,0,1,28.44,4M30,5.64V8.39" transform="translate(0 0)"/><circle class="cls-1" cx="32.63" cy="7.67" r="1.21"/><path class="cls-3" d="M34.22,7.72a1.61,1.61,0,0,0-.47-1.13,1.57,1.57,0,0,0-1.12-.47m0,0a1.59,1.59,0,0,0-1.13.47A1.61,1.61,0,0,0,31,7.72m1.6-1.6V3.37" transform="translate(0 0)"/><circle class="cls-1" cx="27.27" cy="7.67" r="1.21"/><path class="cls-3" d="M28.87,7.72a1.61,1.61,0,0,0-.47-1.13,1.58,1.58,0,0,0-1.12-.47m0,0a1.59,1.59,0,0,0-1.13.47,1.61,1.61,0,0,0-.47,1.13m1.6-1.6V3.37" transform="translate(0 0)"/><rect class="cls-2" x="88" y="24" width="12" height="12"/><circle class="cls-1" cx="94.03" cy="28.09" r="1.21"/><path class="cls-3" d="M95.63,28a1.6,1.6,0,0,1-1.6,1.6m0,0A1.59,1.59,0,0,1,92.44,28M94,29.64v2.75" transform="translate(0 0)"/><circle class="cls-1" cx="96.63" cy="31.67" r="1.21"/><path class="cls-3" d="M98.22,31.72a1.61,1.61,0,0,0-.47-1.13,1.57,1.57,0,0,0-1.12-.47m0,0a1.59,1.59,0,0,0-1.13.47A1.61,1.61,0,0,0,95,31.72m1.6-1.6V27.37" transform="translate(0 0)"/><circle class="cls-1" cx="91.28" cy="31.67" r="1.21"/><path class="cls-3" d="M92.87,31.72a1.61,1.61,0,0,0-.47-1.13,1.58,1.58,0,0,0-1.12-.47m0,0a1.59,1.59,0,0,0-1.13.47,1.61,1.61,0,0,0-.47,1.13m1.6-1.6V27.37" transform="translate(0 0)"/><rect class="cls-2" x="64" y="88" width="12" height="12"/><circle class="cls-1" cx="70.03" cy="92.09" r="1.21"/><path class="cls-3" d="M71.63,92a1.6,1.6,0,0,1-1.6,1.6m0,0A1.59,1.59,0,0,1,68.44,92M70,93.64v2.75" transform="translate(0 0)"/><circle class="cls-1" cx="72.63" cy="95.67" r="1.21"/><path class="cls-3" d="M74.22,95.72a1.61,1.61,0,0,0-.47-1.13,1.57,1.57,0,0,0-1.12-.47m0,0a1.59,1.59,0,0,0-1.13.47A1.61,1.61,0,0,0,71,95.72m1.6-1.6V91.37" transform="translate(0 0)"/><circle class="cls-1" cx="67.28" cy="95.67" r="1.21"/><path class="cls-3" d="M68.87,95.72a1.61,1.61,0,0,0-.47-1.13,1.58,1.58,0,0,0-1.12-.47m0,0a1.59,1.59,0,0,0-1.13.47,1.61,1.61,0,0,0-.47,1.13m1.6-1.6V91.37" transform="translate(0 0)"/><rect class="cls-2" y="64" width="12" height="12"/><circle class="cls-1" cx="6.03" cy="68.09" r="1.21"/><path class="cls-3" d="M7.63,68A1.6,1.6,0,0,1,6,69.64m0,0A1.59,1.59,0,0,1,4.44,68M6,69.64v2.75" transform="translate(0 0)"/><circle class="cls-1" cx="8.63" cy="71.67" r="1.21"/><path class="cls-3" d="M10.22,71.72a1.61,1.61,0,0,0-.47-1.13,1.57,1.57,0,0,0-1.12-.47m0,0a1.59,1.59,0,0,0-1.13.47A1.61,1.61,0,0,0,7,71.72m1.6-1.6V67.37" transform="translate(0 0)"/><circle class="cls-1" cx="3.28" cy="71.67" r="1.21"/><path class="cls-3" d="M4.87,71.72a1.61,1.61,0,0,0-.47-1.13,1.58,1.58,0,0,0-1.12-.47m0,0a1.59,1.59,0,0,0-1.13.47,1.61,1.61,0,0,0-.47,1.13m1.6-1.6V67.37" transform="translate(0 0)"/><rect class="cls-2" x="24" y="88" width="12" height="12"/><circle class="cls-1" cx="30" cy="94" r="4.32"/><path class="cls-4" d="M35,96.16a8.77,8.77,0,0,1-6.36-.6,3,3,0,0,0-4.44,1.92" transform="translate(0 0)"/><path class="cls-4" d="M33.12,97.24a9.74,9.74,0,0,1-6.72-.6" transform="translate(0 0)"/><path class="cls-4" d="M35,94.6a7.71,7.71,0,0,1-6.36-.6,3.16,3.16,0,0,0-4.44,1.92" transform="translate(0 0)"/><path class="cls-4" d="M35,92.68c1-.6-1.48,2.41-5.4.36-2.76-1.44-4.92-1.44-5.4,1" transform="translate(0 0)"/><path class="cls-5" d="M34.44,91.36a2.8,2.8,0,0,1-3.6.72c-2.4-1.08-3.36-2.4-5-1.32" transform="translate(0 0)"/><rect class="cls-2" x="88" y="64" width="12" height="12"/><circle class="cls-1" cx="94" cy="70" r="4.32"/><path class="cls-4" d="M99,72.16a8.77,8.77,0,0,1-6.36-.6,3,3,0,0,0-4.44,1.92" transform="translate(0 0)"/><path class="cls-4" d="M97.12,73.24a9.74,9.74,0,0,1-6.72-.6" transform="translate(0 0)"/><path class="cls-4" d="M99,70.6a7.71,7.71,0,0,1-6.36-.6,3.16,3.16,0,0,0-4.44,1.92" transform="translate(0 0)"/><path class="cls-4" d="M99,68.68c1-.6-1.48,2.41-5.4.36-2.76-1.44-4.92-1.44-5.4,1" transform="translate(0 0)"/><path class="cls-5" d="M98.44,67.36a2.8,2.8,0,0,1-3.6.72c-2.4-1.08-3.36-2.4-5-1.32" transform="translate(0 0)"/><rect class="cls-2" x="64" width="12" height="12"/><circle class="cls-1" cx="70" cy="6" r="4.32"/><path class="cls-4" d="M75,8.16a8.77,8.77,0,0,1-6.36-.6,3,3,0,0,0-4.44,1.92" transform="translate(0 0)"/><path class="cls-4" d="M73.12,9.24a9.74,9.74,0,0,1-6.72-.6" transform="translate(0 0)"/><path class="cls-4" d="M75,6.6A7.71,7.71,0,0,1,68.68,6a3.16,3.16,0,0,0-4.44,1.92" transform="translate(0 0)"/><path class="cls-4" d="M75,4.68c1-.6-1.48,2.41-5.4.36-2.76-1.44-4.92-1.44-5.4,1" transform="translate(0 0)"/><path class="cls-5" d="M74.44,3.36a2.8,2.8,0,0,1-3.6.72c-2.4-1.08-3.36-2.4-5-1.32" transform="translate(0 0)"/><rect class="cls-2" y="24" width="12" height="12"/><circle class="cls-1" cx="6" cy="30" r="4.32"/><path class="cls-4" d="M11,32.16a8.77,8.77,0,0,1-6.36-.6A3,3,0,0,0,.24,33.48" transform="translate(0 0)"/><path class="cls-4" d="M9.12,33.24a9.74,9.74,0,0,1-6.72-.6" transform="translate(0 0)"/><path class="cls-4" d="M11,30.6A7.71,7.71,0,0,1,4.68,30,3.16,3.16,0,0,0,.24,31.92" transform="translate(0 0)"/><path class="cls-4" d="M11,28.68c1-.6-1.48,2.41-5.4.36C2.88,27.6.72,27.6.24,30" transform="translate(0 0)"/><path class="cls-5" d="M10.44,27.36a2.8,2.8,0,0,1-3.6.72c-2.4-1.08-3.36-2.4-5-1.32" transform="translate(0 0)"/><rect class="cls-1" x="12" width="12" height="12"/><path class="cls-2" d="M18,1.44V5.16h1.32l.48-3.4A5.13,5.13,0,0,0,18,1.44Z" transform="translate(0 0)"/><path class="cls-2" d="M21.14,2.53a4.46,4.46,0,0,0-1.34-.77l-.48,3.4h1.32Z" transform="translate(0 0)"/><path class="cls-2" d="M22.44,5.16a3.45,3.45,0,0,0-1.3-2.63l-.5,2.63Z" transform="translate(0 0)"/><path class="cls-2" d="M18,1.44V5.16H16.68l-.48-3.4A5.13,5.13,0,0,1,18,1.44Z" transform="translate(0 0)"/><path class="cls-2" d="M14.86,2.53a4.46,4.46,0,0,1,1.34-.77l.48,3.4H15.36Z" transform="translate(0 0)"/><path class="cls-2" d="M13.56,5.16a3.45,3.45,0,0,1,1.3-2.63l.5,2.63Z" transform="translate(0 0)"/><path class="cls-6" d="M21.14,2.53a3.45,3.45,0,0,1,1.3,2.63h-1.8m.5-2.63a4.46,4.46,0,0,0-1.34-.77m1.34.77-.5,2.63M18,1.44V5.16m0-3.72a5.13,5.13,0,0,1,1.8.32M18,1.44a5.13,5.13,0,0,0-1.8.32M18,5.16h1.32M18,5.16H16.68m3.12-3.4-.48,3.4m0,0h1.32M14.86,2.53a3.45,3.45,0,0,0-1.3,2.63h1.8m-.5-2.63a4.46,4.46,0,0,1,1.34-.77m-1.34.77.5,2.63m.84-3.4.48,3.4m0,0H15.36" transform="translate(0 0)"/><path class="cls-2" d="M18,10.56V6.84h1.32l.48,3.4A5.13,5.13,0,0,1,18,10.56Z" transform="translate(0 0)"/><path class="cls-2" d="M21.14,9.47a4.46,4.46,0,0,1-1.34.77l-.48-3.4h1.32Z" transform="translate(0 0)"/><path class="cls-2" d="M22.44,6.84a3.45,3.45,0,0,1-1.3,2.63l-.5-2.63Z" transform="translate(0 0)"/><path class="cls-2" d="M18,10.56V6.84H16.68l-.48,3.4A5.13,5.13,0,0,0,18,10.56Z" transform="translate(0 0)"/><path class="cls-2" d="M14.86,9.47a4.46,4.46,0,0,0,1.34.77l.48-3.4H15.36Z" transform="translate(0 0)"/><path class="cls-2" d="M13.56,6.84a3.45,3.45,0,0,0,1.3,2.63l.5-2.63Z" transform="translate(0 0)"/><path class="cls-6" d="M21.14,9.47a3.45,3.45,0,0,0,1.3-2.63h-1.8m.5,2.63a4.46,4.46,0,0,1-1.34.77m1.34-.77-.5-2.63M18,10.56V6.84m0,3.72a5.13,5.13,0,0,0,1.8-.32m-1.8.32a5.13,5.13,0,0,1-1.8-.32M18,6.84h1.32M18,6.84H16.68m3.12,3.4-.48-3.4m0,0h1.32M14.86,9.47a3.45,3.45,0,0,1-1.3-2.63h1.8m-.5,2.63a4.46,4.46,0,0,0,1.34.77m-1.34-.77.5-2.63m.84,3.4.48-3.4m0,0H15.36" transform="translate(0 0)"/><circle class="cls-7" cx="13.8" cy="6" r="0.31"/><circle class="cls-7" cx="15" cy="6" r="0.31"/><circle class="cls-7" cx="16.2" cy="6" r="0.31"/><circle class="cls-7" cx="17.4" cy="6" r="0.31"/><circle class="cls-7" cx="18.6" cy="6" r="0.31"/><circle class="cls-7" cx="19.8" cy="6" r="0.31"/><circle class="cls-7" cx="21" cy="6" r="0.31"/><circle class="cls-7" cx="22.2" cy="6" r="0.31"/><rect class="cls-1" x="88" y="12" width="12" height="12"/><path class="cls-2" d="M94,13.44v3.72h1.32l.48-3.4A5.13,5.13,0,0,0,94,13.44Z" transform="translate(0 0)"/><path class="cls-2" d="M97.14,14.53a4.46,4.46,0,0,0-1.34-.77l-.48,3.4h1.32Z" transform="translate(0 0)"/><path class="cls-2" d="M98.44,17.16a3.45,3.45,0,0,0-1.3-2.63l-.5,2.63Z" transform="translate(0 0)"/><path class="cls-2" d="M94,13.44v3.72H92.68l-.48-3.4A5.13,5.13,0,0,1,94,13.44Z" transform="translate(0 0)"/><path class="cls-2" d="M90.86,14.53a4.46,4.46,0,0,1,1.34-.77l.48,3.4H91.36Z" transform="translate(0 0)"/><path class="cls-2" d="M89.56,17.16a3.45,3.45,0,0,1,1.3-2.63l.5,2.63Z" transform="translate(0 0)"/><path class="cls-6" d="M97.14,14.53a3.45,3.45,0,0,1,1.3,2.63h-1.8m.5-2.63a4.46,4.46,0,0,0-1.34-.77m1.34.77-.5,2.63M94,13.44v3.72m0-3.72a5.13,5.13,0,0,1,1.8.32M94,13.44a5.13,5.13,0,0,0-1.8.32m1.8,3.4h1.32m-1.32,0H92.68m3.12-3.4-.48,3.4m0,0h1.32m-5.78-2.63a3.45,3.45,0,0,0-1.3,2.63h1.8m-.5-2.63a4.46,4.46,0,0,1,1.34-.77m-1.34.77.5,2.63m.84-3.4.48,3.4m0,0H91.36" transform="translate(0 0)"/><path class="cls-2" d="M94,22.56V18.84h1.32l.48,3.4A5.13,5.13,0,0,1,94,22.56Z" transform="translate(0 0)"/><path class="cls-2" d="M97.14,21.47a4.46,4.46,0,0,1-1.34.77l-.48-3.4h1.32Z" transform="translate(0 0)"/><path class="cls-2" d="M98.44,18.84a3.45,3.45,0,0,1-1.3,2.63l-.5-2.63Z" transform="translate(0 0)"/><path class="cls-2" d="M94,22.56V18.84H92.68l-.48,3.4A5.13,5.13,0,0,0,94,22.56Z" transform="translate(0 0)"/><path class="cls-2" d="M90.86,21.47a4.46,4.46,0,0,0,1.34.77l.48-3.4H91.36Z" transform="translate(0 0)"/><path class="cls-2" d="M89.56,18.84a3.45,3.45,0,0,0,1.3,2.63l.5-2.63Z" transform="translate(0 0)"/><path class="cls-6" d="M97.14,21.47a3.45,3.45,0,0,0,1.3-2.63h-1.8m.5,2.63a4.46,4.46,0,0,1-1.34.77m1.34-.77-.5-2.63M94,22.56V18.84m0,3.72a5.13,5.13,0,0,0,1.8-.32m-1.8.32a5.13,5.13,0,0,1-1.8-.32m1.8-3.4h1.32m-1.32,0H92.68m3.12,3.4-.48-3.4m0,0h1.32m-5.78,2.63a3.45,3.45,0,0,1-1.3-2.63h1.8m-.5,2.63a4.46,4.46,0,0,0,1.34.77m-1.34-.77.5-2.63m.84,3.4.48-3.4m0,0H91.36" transform="translate(0 0)"/><circle class="cls-7" cx="89.8" cy="18" r="0.31"/><circle class="cls-7" cx="91" cy="18" r="0.31"/><circle class="cls-7" cx="92.2" cy="18" r="0.31"/><circle class="cls-7" cx="93.4" cy="18" r="0.31"/><circle class="cls-7" cx="94.6" cy="18" r="0.31"/><circle class="cls-7" cx="95.8" cy="18" r="0.31"/><circle class="cls-7" cx="97" cy="18" r="0.31"/><circle class="cls-7" cx="98.2" cy="18" r="0.31"/><rect class="cls-1" x="76" y="88" width="12" height="12"/><path class="cls-2" d="M82,89.44v3.72h1.32l.48-3.4A5.13,5.13,0,0,0,82,89.44Z" transform="translate(0 0)"/><path class="cls-2" d="M85.14,90.53a4.46,4.46,0,0,0-1.34-.77l-.48,3.4h1.32Z" transform="translate(0 0)"/><path class="cls-2" d="M86.44,93.16a3.45,3.45,0,0,0-1.3-2.63l-.5,2.63Z" transform="translate(0 0)"/><path class="cls-2" d="M82,89.44v3.72H80.68l-.48-3.4A5.13,5.13,0,0,1,82,89.44Z" transform="translate(0 0)"/><path class="cls-2" d="M78.86,90.53a4.46,4.46,0,0,1,1.34-.77l.48,3.4H79.36Z" transform="translate(0 0)"/><path class="cls-2" d="M77.56,93.16a3.45,3.45,0,0,1,1.3-2.63l.5,2.63Z" transform="translate(0 0)"/><path class="cls-6" d="M85.14,90.53a3.45,3.45,0,0,1,1.3,2.63h-1.8m.5-2.63a4.46,4.46,0,0,0-1.34-.77m1.34.77-.5,2.63M82,89.44v3.72m0-3.72a5.13,5.13,0,0,1,1.8.32M82,89.44a5.13,5.13,0,0,0-1.8.32m1.8,3.4h1.32m-1.32,0H80.68m3.12-3.4-.48,3.4m0,0h1.32m-5.78-2.63a3.45,3.45,0,0,0-1.3,2.63h1.8m-.5-2.63a4.46,4.46,0,0,1,1.34-.77m-1.34.77.5,2.63m.84-3.4.48,3.4m0,0H79.36" transform="translate(0 0)"/><path class="cls-2" d="M82,98.56V94.84h1.32l.48,3.4A5.13,5.13,0,0,1,82,98.56Z" transform="translate(0 0)"/><path class="cls-2" d="M85.14,97.47a4.46,4.46,0,0,1-1.34.77l-.48-3.4h1.32Z" transform="translate(0 0)"/><path class="cls-2" d="M86.44,94.84a3.45,3.45,0,0,1-1.3,2.63l-.5-2.63Z" transform="translate(0 0)"/><path class="cls-2" d="M82,98.56V94.84H80.68l-.48,3.4A5.13,5.13,0,0,0,82,98.56Z" transform="translate(0 0)"/><path class="cls-2" d="M78.86,97.47a4.46,4.46,0,0,0,1.34.77l.48-3.4H79.36Z" transform="translate(0 0)"/><path class="cls-2" d="M77.56,94.84a3.45,3.45,0,0,0,1.3,2.63l.5-2.63Z" transform="translate(0 0)"/><path class="cls-6" d="M85.14,97.47a3.45,3.45,0,0,0,1.3-2.63h-1.8m.5,2.63a4.46,4.46,0,0,1-1.34.77m1.34-.77-.5-2.63M82,98.56V94.84m0,3.72a5.13,5.13,0,0,0,1.8-.32m-1.8.32a5.13,5.13,0,0,1-1.8-.32m1.8-3.4h1.32m-1.32,0H80.68m3.12,3.4-.48-3.4m0,0h1.32m-5.78,2.63a3.45,3.45,0,0,1-1.3-2.63h1.8m-.5,2.63a4.46,4.46,0,0,0,1.34.77m-1.34-.77.5-2.63m.84,3.4.48-3.4m0,0H79.36" transform="translate(0 0)"/><circle class="cls-7" cx="77.8" cy="94" r="0.31"/><circle class="cls-7" cx="79" cy="94" r="0.31"/><circle class="cls-7" cx="80.2" cy="94" r="0.31"/><circle class="cls-7" cx="81.4" cy="94" r="0.31"/><circle class="cls-7" cx="82.6" cy="94" r="0.31"/><circle class="cls-7" cx="83.8" cy="94" r="0.31"/><circle class="cls-7" cx="85" cy="94" r="0.31"/><circle class="cls-7" cx="86.2" cy="94" r="0.31"/><rect class="cls-1" y="76" width="12" height="12"/><path class="cls-2" d="M6,77.44v3.72H7.32l.48-3.4A5.13,5.13,0,0,0,6,77.44Z" transform="translate(0 0)"/><path class="cls-2" d="M9.14,78.53a4.46,4.46,0,0,0-1.34-.77l-.48,3.4H8.64Z" transform="translate(0 0)"/><path class="cls-2" d="M10.44,81.16a3.45,3.45,0,0,0-1.3-2.63l-.5,2.63Z" transform="translate(0 0)"/><path class="cls-2" d="M6,77.44v3.72H4.68l-.48-3.4A5.13,5.13,0,0,1,6,77.44Z" transform="translate(0 0)"/><path class="cls-2" d="M2.86,78.53a4.46,4.46,0,0,1,1.34-.77l.48,3.4H3.36Z" transform="translate(0 0)"/><path class="cls-2" d="M1.56,81.16a3.45,3.45,0,0,1,1.3-2.63l.5,2.63Z" transform="translate(0 0)"/><path class="cls-6" d="M9.14,78.53a3.45,3.45,0,0,1,1.3,2.63H8.64m.5-2.63a4.46,4.46,0,0,0-1.34-.77m1.34.77-.5,2.63M6,77.44v3.72m0-3.72a5.13,5.13,0,0,1,1.8.32M6,77.44a5.13,5.13,0,0,0-1.8.32M6,81.16H7.32M6,81.16H4.68m3.12-3.4-.48,3.4m0,0H8.64M2.86,78.53a3.45,3.45,0,0,0-1.3,2.63h1.8m-.5-2.63a4.46,4.46,0,0,1,1.34-.77m-1.34.77.5,2.63m.84-3.4.48,3.4m0,0H3.36" transform="translate(0 0)"/><path class="cls-2" d="M6,86.56V82.84H7.32l.48,3.4A5.13,5.13,0,0,1,6,86.56Z" transform="translate(0 0)"/><path class="cls-2" d="M9.14,85.47a4.46,4.46,0,0,1-1.34.77l-.48-3.4H8.64Z" transform="translate(0 0)"/><path class="cls-2" d="M10.44,82.84a3.45,3.45,0,0,1-1.3,2.63l-.5-2.63Z" transform="translate(0 0)"/><path class="cls-2" d="M6,86.56V82.84H4.68l-.48,3.4A5.13,5.13,0,0,0,6,86.56Z" transform="translate(0 0)"/><path class="cls-2" d="M2.86,85.47a4.46,4.46,0,0,0,1.34.77l.48-3.4H3.36Z" transform="translate(0 0)"/><path class="cls-2" d="M1.56,82.84a3.45,3.45,0,0,0,1.3,2.63l.5-2.63Z" transform="translate(0 0)"/><path class="cls-6" d="M9.14,85.47a3.45,3.45,0,0,0,1.3-2.63H8.64m.5,2.63a4.46,4.46,0,0,1-1.34.77m1.34-.77-.5-2.63M6,86.56V82.84m0,3.72a5.13,5.13,0,0,0,1.8-.32M6,86.56a5.13,5.13,0,0,1-1.8-.32M6,82.84H7.32M6,82.84H4.68m3.12,3.4-.48-3.4m0,0H8.64M2.86,85.47a3.45,3.45,0,0,1-1.3-2.63h1.8m-.5,2.63a4.46,4.46,0,0,0,1.34.77m-1.34-.77.5-2.63m.84,3.4.48-3.4m0,0H3.36" transform="translate(0 0)"/><circle class="cls-7" cx="1.8" cy="82" r="0.31"/><circle class="cls-7" cx="3" cy="82" r="0.31"/><circle class="cls-7" cx="4.2" cy="82" r="0.31"/><circle class="cls-7" cx="5.4" cy="82" r="0.31"/><circle class="cls-7" cx="6.6" cy="82" r="0.31"/><circle class="cls-7" cx="7.8" cy="82" r="0.31"/><circle class="cls-7" cx="9" cy="82" r="0.31"/><circle class="cls-7" cx="10.2" cy="82" r="0.31"/><rect class="cls-1" y="44" width="12" height="12"/><rect class="cls-2" y="44" width="3.6" height="3.6"/><rect class="cls-2" x="3.6" y="47.6" width="4.8" height="4.8"/><rect class="cls-2" y="52.4" width="3.6" height="3.6"/><rect class="cls-2" x="8.4" y="44" width="3.6" height="3.6"/><rect class="cls-2" x="8.4" y="52.4" width="3.6" height="3.6"/><rect class="cls-2" x="3.36" y="44" width="5.28" height="0.24"/><rect class="cls-2" x="6.48" y="48.32" width="5.28" height="0.24"/><rect class="cls-2" y="48.32" width="5.28" height="0.24"/><rect class="cls-2" x="6.48" y="49.28" width="5.28" height="0.24"/><rect class="cls-2" x="3.6" y="53.12" width="5.28" height="0.24"/><rect class="cls-2" x="3.6" y="44.72" width="5.28" height="0.24"/><rect class="cls-2" y="49.28" width="5.28" height="0.24"/><rect class="cls-2" x="6.48" y="50.24" width="5.28" height="0.24"/><rect class="cls-2" x="3.6" y="54.08" width="5.28" height="0.24"/><rect class="cls-2" x="3.6" y="45.68" width="5.28" height="0.24"/><rect class="cls-2" y="50.24" width="5.28" height="0.24"/><rect class="cls-2" x="6.48" y="51.2" width="5.28" height="0.24"/><rect class="cls-2" x="3.6" y="55.04" width="5.28" height="0.24"/><rect class="cls-2" x="3.6" y="46.64" width="5.28" height="0.24"/><rect class="cls-2" y="51.2" width="5.28" height="0.24"/><rect class="cls-2" x="6.48" y="52.16" width="5.28" height="0.24"/><rect class="cls-2" x="3.6" y="55.76" width="5.28" height="0.24"/><rect class="cls-2" y="52.16" width="5.28" height="0.24"/><rect class="cls-2" x="3.36" y="55.76" width="5.28" height="0.24"/><rect class="cls-2" x="11.76" y="47.6" width="0.24" height="4.8"/><rect class="cls-2" y="47.6" width="0.24" height="4.8"/><rect class="cls-1" x="88" y="43" width="12" height="12"/><rect class="cls-2" x="88" y="43" width="3.6" height="3.6"/><rect class="cls-2" x="91.6" y="46.6" width="4.8" height="4.8"/><rect class="cls-2" x="88" y="51.4" width="3.6" height="3.6"/><rect class="cls-2" x="96.4" y="43" width="3.6" height="3.6"/><rect class="cls-2" x="96.4" y="51.4" width="3.6" height="3.6"/><rect class="cls-2" x="91.36" y="43" width="5.28" height="0.24"/><rect class="cls-2" x="94.48" y="47.32" width="5.28" height="0.24"/><rect class="cls-2" x="88" y="47.32" width="5.28" height="0.24"/><rect class="cls-2" x="94.48" y="48.28" width="5.28" height="0.24"/><rect class="cls-2" x="91.6" y="52.12" width="5.28" height="0.24"/><rect class="cls-2" x="91.6" y="43.72" width="5.28" height="0.24"/><rect class="cls-2" x="88" y="48.28" width="5.28" height="0.24"/><rect class="cls-2" x="94.48" y="49.24" width="5.28" height="0.24"/><rect class="cls-2" x="91.6" y="53.08" width="5.28" height="0.24"/><rect class="cls-2" x="91.6" y="44.68" width="5.28" height="0.24"/><rect class="cls-2" x="88" y="49.24" width="5.28" height="0.24"/><rect class="cls-2" x="94.48" y="50.2" width="5.28" height="0.24"/><rect class="cls-2" x="91.6" y="54.04" width="5.28" height="0.24"/><rect class="cls-2" x="91.6" y="45.64" width="5.28" height="0.24"/><rect class="cls-2" x="88" y="50.2" width="5.28" height="0.24"/><rect class="cls-2" x="94.48" y="51.16" width="5.28" height="0.24"/><rect class="cls-2" x="91.6" y="54.76" width="5.28" height="0.24"/><rect class="cls-2" x="88" y="51.16" width="5.28" height="0.24"/><rect class="cls-2" x="91.36" y="54.76" width="5.28" height="0.24"/><rect class="cls-2" x="99.76" y="46.6" width="0.24" height="4.8"/><rect class="cls-2" x="88" y="46.6" width="0.24" height="4.8"/><rect class="cls-1" x="44" y="88" width="12" height="12"/><rect class="cls-2" x="44" y="88" width="3.6" height="3.6"/><rect class="cls-2" x="47.6" y="91.6" width="4.8" height="4.8"/><rect class="cls-2" x="44" y="96.4" width="3.6" height="3.6"/><rect class="cls-2" x="52.4" y="88" width="3.6" height="3.6"/><rect class="cls-2" x="52.4" y="96.4" width="3.6" height="3.6"/><rect class="cls-2" x="47.36" y="88" width="5.28" height="0.24"/><rect class="cls-2" x="50.48" y="92.32" width="5.28" height="0.24"/><rect class="cls-2" x="44" y="92.32" width="5.28" height="0.24"/><rect class="cls-2" x="50.48" y="93.28" width="5.28" height="0.24"/><rect class="cls-2" x="47.6" y="97.12" width="5.28" height="0.24"/><rect class="cls-2" x="47.6" y="88.72" width="5.28" height="0.24"/><rect class="cls-2" x="44" y="93.28" width="5.28" height="0.24"/><rect class="cls-2" x="50.48" y="94.24" width="5.28" height="0.24"/><rect class="cls-2" x="47.6" y="98.08" width="5.28" height="0.24"/><rect class="cls-2" x="47.6" y="89.68" width="5.28" height="0.24"/><rect class="cls-2" x="44" y="94.24" width="5.28" height="0.24"/><rect class="cls-2" x="50.48" y="95.2" width="5.28" height="0.24"/><rect class="cls-2" x="47.6" y="99.04" width="5.28" height="0.24"/><rect class="cls-2" x="47.6" y="90.64" width="5.28" height="0.24"/><rect class="cls-2" x="44" y="95.2" width="5.28" height="0.24"/><rect class="cls-2" x="50.48" y="96.16" width="5.28" height="0.24"/><rect class="cls-2" x="47.6" y="99.76" width="5.28" height="0.24"/><rect class="cls-2" x="44" y="96.16" width="5.28" height="0.24"/><rect class="cls-2" x="47.36" y="99.76" width="5.28" height="0.24"/><rect class="cls-2" x="55.76" y="91.6" width="0.24" height="4.8"/><rect class="cls-2" x="44" y="91.6" width="0.24" height="4.8"/><rect class="cls-1" x="44" width="12" height="12"/><rect class="cls-2" x="44" width="3.6" height="3.6"/><rect class="cls-2" x="47.6" y="3.6" width="4.8" height="4.8"/><rect class="cls-2" x="44" y="8.4" width="3.6" height="3.6"/><rect class="cls-2" x="52.4" width="3.6" height="3.6"/><rect class="cls-2" x="52.4" y="8.4" width="3.6" height="3.6"/><rect class="cls-2" x="47.36" width="5.28" height="0.24"/><rect class="cls-2" x="50.48" y="4.32" width="5.28" height="0.24"/><rect class="cls-2" x="44" y="4.32" width="5.28" height="0.24"/><rect class="cls-2" x="50.48" y="5.28" width="5.28" height="0.24"/><rect class="cls-2" x="47.6" y="9.12" width="5.28" height="0.24"/><rect class="cls-2" x="47.6" y="0.72" width="5.28" height="0.24"/><rect class="cls-2" x="44" y="5.28" width="5.28" height="0.24"/><rect class="cls-2" x="50.48" y="6.24" width="5.28" height="0.24"/><rect class="cls-2" x="47.6" y="10.08" width="5.28" height="0.24"/><rect class="cls-2" x="47.6" y="1.68" width="5.28" height="0.24"/><rect class="cls-2" x="44" y="6.24" width="5.28" height="0.24"/><rect class="cls-2" x="50.48" y="7.2" width="5.28" height="0.24"/><rect class="cls-2" x="47.6" y="11.04" width="5.28" height="0.24"/><rect class="cls-2" x="47.6" y="2.64" width="5.28" height="0.24"/><rect class="cls-2" x="44" y="7.2" width="5.28" height="0.24"/><rect class="cls-2" x="50.48" y="8.16" width="5.28" height="0.24"/><rect class="cls-2" x="47.6" y="11.76" width="5.28" height="0.24"/><rect class="cls-2" x="44" y="8.16" width="5.28" height="0.24"/><rect class="cls-2" x="47.36" y="11.76" width="5.28" height="0.24"/><rect class="cls-2" x="55.76" y="3.6" width="0.24" height="4.8"/><rect class="cls-2" x="44" y="3.6" width="0.24" height="4.8"/><path class="cls-2" d="M59.58,10c-1.09-1.37-1.8-5.65.12-8C61.81,5,60.46,9,59.58,10Z" transform="translate(0 0)"/><path class="cls-2" d="M40.08,10c-1.09-1.37-1.8-5.65.12-8C42.31,5,41,9,40.08,10Z" transform="translate(0 0)"/><path class="cls-2" d="M59.58,10c-1.09-1.37-1.8-5.65.12-8C61.81,5,60.46,9,59.58,10Z" transform="translate(0 0)"/><path class="cls-2" d="M40.08,10c-1.09-1.37-1.8-5.65.12-8C42.31,5,41,9,40.08,10Z" transform="translate(0 0)"/><path class="cls-2" d="M59.58,98c-1.09-1.37-1.8-5.65.12-8C61.81,93,60.46,97,59.58,98Z" transform="translate(0 0)"/><path class="cls-2" d="M40.08,98c-1.09-1.37-1.8-5.65.12-8C42.31,93,41,97,40.08,98Z" transform="translate(0 0)"/><path class="cls-2" d="M98,39.92c-1.37,1.09-5.65,1.8-8-.12C93,37.69,97,39,98,39.92Z" transform="translate(0 0)"/><path class="cls-2" d="M98,59.42c-1.37,1.09-5.65,1.8-8-.12C93,57.19,97,58.54,98,59.42Z" transform="translate(0 0)"/><path class="cls-2" d="M10,39.92C8.63,41,4.35,41.72,2,39.8,5,37.69,9,39,10,39.92Z" transform="translate(0 0)"/><path class="cls-2" d="M10,59.42c-1.37,1.09-5.65,1.8-8-.12C5,57.19,9,58.54,10,59.42Z" transform="translate(0 0)"/><rect class="cls-1" y="12" width="12" height="12"/><path class="cls-8" d="M3,16.94A7.9,7.9,0,0,0,.48,18.13,6.86,6.86,0,0,0,3,19.4a7.9,7.9,0,0,0-.91,2.66,7,7,0,0,0,2.63-.91,7,7,0,0,0,1.09,2.48A7.79,7.79,0,0,0,7.06,21a7.87,7.87,0,0,0,2.76,1,7.43,7.43,0,0,0-1-2.66,7.09,7.09,0,0,0,2.58-1.11,7.79,7.79,0,0,0-2.62-1.24,7.19,7.19,0,0,0,1.05-2.71,7.5,7.5,0,0,0-2.62,1A8,8,0,0,0,6,12.72a7,7,0,0,0-1.26,2.52,6.93,6.93,0,0,0-2.62-.9A8.39,8.39,0,0,0,3,16.94Zm1.47-.29a9.51,9.51,0,0,1,.28-1.41A10.29,10.29,0,0,1,6,16.1c-.21.15-.42.32-.63.49Zm-.08.87a12.26,12.26,0,0,1,1-.93,10.37,10.37,0,0,1,1.25.05,12.14,12.14,0,0,1,.93,1,10,10,0,0,1,0,1.23,12.09,12.09,0,0,1-.86.9c-.44,0-.89,0-1.34,0a12,12,0,0,1-.89-.86A12.49,12.49,0,0,1,4.36,17.52Zm-.57.68A9.09,9.09,0,0,1,3,16.94a9.55,9.55,0,0,1,1.47-.29c0,.29-.06.58-.08.87C4.17,17.74,4,18,3.79,18.2Zm.66,1.48.82.07c.23.19.46.38.7.55a10.46,10.46,0,0,1-1.24.85A12.77,12.77,0,0,1,4.45,19.68Zm0,0c0-.26,0-.52-.07-.79-.21-.22-.4-.45-.59-.69A8.24,8.24,0,0,0,3,19.4,9.9,9.9,0,0,0,4.45,19.68Zm2.91,0A12.58,12.58,0,0,1,7.06,21c-.36-.21-.73-.45-1.09-.71.22-.18.44-.37.64-.56ZM8,18.2a12.19,12.19,0,0,1,.82,1.2,12.44,12.44,0,0,1-1.45.27c0-.27.08-.55.11-.83C7.65,18.63,7.83,18.41,8,18.2Zm-.52-1.45c.45.08.89.19,1.3.3A13,13,0,0,1,8,18.2c-.15-.2-.31-.4-.47-.59C7.51,17.33,7.5,17,7.47,16.75Zm0,0-.88-.11c-.2-.19-.41-.37-.62-.54a11.51,11.51,0,0,1,1.23-.79A9.11,9.11,0,0,1,7.47,16.75Z" transform="translate(0 0)"/><circle class="cls-2" cx="5.93" cy="18.24" r="0.96"/><rect class="cls-1" x="76" width="12" height="12"/><path class="cls-8" d="M79,4.94a7.9,7.9,0,0,0-2.49,1.19A6.86,6.86,0,0,0,79,7.4a7.9,7.9,0,0,0-.91,2.66,7,7,0,0,0,2.63-.91,7,7,0,0,0,1.09,2.48A7.79,7.79,0,0,0,83.06,9a7.87,7.87,0,0,0,2.76,1.05,7.43,7.43,0,0,0-1-2.66,7.09,7.09,0,0,0,2.58-1.11,7.79,7.79,0,0,0-2.62-1.24,7.19,7.19,0,0,0,1-2.71,7.5,7.5,0,0,0-2.62,1A8,8,0,0,0,82,.72a7,7,0,0,0-1.26,2.52,6.93,6.93,0,0,0-2.62-.9A8.39,8.39,0,0,0,79,4.94Zm1.47-.29a9.51,9.51,0,0,1,.28-1.41A10.29,10.29,0,0,1,82,4.1c-.21.15-.42.32-.63.49Q80.89,4.6,80.44,4.65Zm-.08.87a12.26,12.26,0,0,1,1-.93,10.37,10.37,0,0,1,1.25,0,12.14,12.14,0,0,1,.93,1,10,10,0,0,1,0,1.23,12.09,12.09,0,0,1-.86.9c-.44,0-.89,0-1.34,0a12,12,0,0,1-.89-.86A12.49,12.49,0,0,1,80.36,5.52Zm-.57.68A9.09,9.09,0,0,1,79,4.94a9.55,9.55,0,0,1,1.47-.29c0,.29-.06.58-.08.87C80.17,5.74,80,6,79.79,6.2Zm.66,1.48.82.07c.23.19.46.38.7.55a10.46,10.46,0,0,1-1.24.85A12.77,12.77,0,0,1,80.45,7.68Zm0,0c0-.26-.06-.52-.07-.79-.21-.22-.4-.45-.59-.69A8.24,8.24,0,0,0,79,7.4,9.9,9.9,0,0,0,80.45,7.68Zm2.91,0A12.58,12.58,0,0,1,83.06,9c-.36-.21-.73-.45-1.09-.71.22-.18.44-.37.64-.56ZM84,6.2a12.19,12.19,0,0,1,.82,1.2,10.65,10.65,0,0,1-1.45.27c0-.27.08-.55.11-.83C83.65,6.63,83.83,6.41,84,6.2Zm-.52-1.45c.45.08.89.19,1.3.3A13,13,0,0,1,84,6.2c-.15-.2-.31-.4-.47-.59C83.51,5.33,83.5,5,83.47,4.75Zm0,0-.88-.11c-.2-.19-.41-.37-.62-.54a11.51,11.51,0,0,1,1.23-.79A9.11,9.11,0,0,1,83.47,4.75Z" transform="translate(0 0)"/><circle class="cls-2" cx="81.93" cy="6.24" r="0.96"/><rect class="cls-1" x="88" y="76" width="12" height="12"/><path class="cls-8" d="M91,80.94a7.9,7.9,0,0,0-2.49,1.19A6.86,6.86,0,0,0,91,83.4a7.9,7.9,0,0,0-.91,2.66,7,7,0,0,0,2.63-.91,7,7,0,0,0,1.09,2.48A7.79,7.79,0,0,0,95.06,85a7.87,7.87,0,0,0,2.76,1,7.43,7.43,0,0,0-1-2.66,7.09,7.09,0,0,0,2.58-1.11,7.79,7.79,0,0,0-2.62-1.24,7.19,7.19,0,0,0,1-2.71,7.5,7.5,0,0,0-2.62,1A8,8,0,0,0,94,76.72a7,7,0,0,0-1.26,2.52,6.93,6.93,0,0,0-2.62-.9A8.39,8.39,0,0,0,91,80.94Zm1.47-.29a9.51,9.51,0,0,1,.28-1.41A10.29,10.29,0,0,1,94,80.1c-.21.15-.42.32-.63.49Q92.89,80.6,92.44,80.65Zm-.08.87a12.26,12.26,0,0,1,1-.93,10.37,10.37,0,0,1,1.25,0,12.14,12.14,0,0,1,.93,1,10,10,0,0,1,0,1.23,12.09,12.09,0,0,1-.86.9c-.44,0-.89,0-1.34,0a12,12,0,0,1-.89-.86A12.49,12.49,0,0,1,92.36,81.52Zm-.57.68A9.09,9.09,0,0,1,91,80.94a9.55,9.55,0,0,1,1.47-.29c0,.29-.06.58-.08.87C92.17,81.74,92,82,91.79,82.2Zm.66,1.48.82.07c.23.19.46.38.7.55a10.46,10.46,0,0,1-1.24.85A12.77,12.77,0,0,1,92.45,83.68Zm0,0c0-.26-.06-.52-.07-.79-.21-.22-.4-.45-.59-.69A8.24,8.24,0,0,0,91,83.4,9.9,9.9,0,0,0,92.45,83.68Zm2.91,0a12.58,12.58,0,0,1-.3,1.34c-.36-.21-.73-.45-1.09-.71.22-.18.44-.37.64-.56ZM96,82.2a12.19,12.19,0,0,1,.82,1.2,12.44,12.44,0,0,1-1.45.27c0-.27.08-.55.11-.83C95.65,82.63,95.83,82.41,96,82.2Zm-.52-1.45c.45.08.89.19,1.3.3A13,13,0,0,1,96,82.2c-.15-.2-.31-.4-.47-.59C95.51,81.33,95.5,81,95.47,80.75Zm0,0-.88-.11c-.2-.19-.41-.37-.62-.54a11.51,11.51,0,0,1,1.23-.79A9.11,9.11,0,0,1,95.47,80.75Z" transform="translate(0 0)"/><circle class="cls-2" cx="93.93" cy="82.24" r="0.96"/><rect class="cls-1" x="12" y="88" width="12" height="12"/><path class="cls-8" d="M15,92.94a7.9,7.9,0,0,0-2.49,1.19A6.86,6.86,0,0,0,15,95.4a7.9,7.9,0,0,0-.91,2.66,7,7,0,0,0,2.63-.91,7,7,0,0,0,1.09,2.48A7.79,7.79,0,0,0,19.06,97a7.87,7.87,0,0,0,2.76,1,7.43,7.43,0,0,0-1-2.66,7.09,7.09,0,0,0,2.58-1.11,7.79,7.79,0,0,0-2.62-1.24,7.19,7.19,0,0,0,1.05-2.71,7.5,7.5,0,0,0-2.62,1A8,8,0,0,0,18,88.72a7,7,0,0,0-1.26,2.52,6.93,6.93,0,0,0-2.62-.9A8.39,8.39,0,0,0,15,92.94Zm1.47-.29a9.51,9.51,0,0,1,.28-1.41A10.29,10.29,0,0,1,18,92.1c-.21.15-.42.32-.63.49Q16.89,92.6,16.44,92.65Zm-.08.87a12.26,12.26,0,0,1,1-.93,10.37,10.37,0,0,1,1.25,0,12.14,12.14,0,0,1,.93,1,10,10,0,0,1-.05,1.23,12.09,12.09,0,0,1-.86.9c-.44,0-.89,0-1.34,0a12,12,0,0,1-.89-.86A12.49,12.49,0,0,1,16.36,93.52Zm-.57.68A9.09,9.09,0,0,1,15,92.94a9.55,9.55,0,0,1,1.47-.29c0,.29-.06.58-.08.87C16.17,93.74,16,94,15.79,94.2Zm.66,1.48.82.07c.23.19.46.38.7.55a10.46,10.46,0,0,1-1.24.85A12.77,12.77,0,0,1,16.45,95.68Zm0,0c0-.26-.05-.52-.07-.79-.21-.22-.4-.45-.59-.69A8.24,8.24,0,0,0,15,95.4,9.9,9.9,0,0,0,16.45,95.68Zm2.91,0a12.58,12.58,0,0,1-.3,1.34c-.36-.21-.73-.45-1.09-.71.22-.18.44-.37.64-.56ZM20,94.2a12.19,12.19,0,0,1,.82,1.2,12.44,12.44,0,0,1-1.45.27c.05-.27.08-.55.11-.83C19.65,94.63,19.83,94.41,20,94.2Zm-.52-1.45c.45.08.89.19,1.3.3A13,13,0,0,1,20,94.2c-.15-.2-.31-.4-.47-.59C19.51,93.33,19.5,93,19.47,92.75Zm0,0-.88-.11c-.2-.19-.41-.37-.62-.54a11.51,11.51,0,0,1,1.23-.79A9.11,9.11,0,0,1,19.47,92.75Z" transform="translate(0 0)"/><circle class="cls-2" cx="17.93" cy="94.24" r="0.96"/></svg>