<svg xmlns="http://www.w3.org/2000/svg" viewBox="0 0 68.03 68.03"><defs><style>.cls-1{fill:#1a67a3;}.cls-2{fill:#f71123;}.cls-3{fill:#fff;}.cls-4{fill:#f87311;}</style></defs><g id="Laag_2" data-name="Laag 2"><g id="Laag_1-2" data-name="Laag 1"><rect class="cls-1" width="68.03" height="68.03"/><rect class="cls-2" width="68.03" height="23.13"/><rect class="cls-3" y="23.13" width="68.03" height="22.68"/><path class="cls-4" d="M36.17,33.81c0-4.4-1-8-2.17-8s-2.17,3.56-2.17,8,1,7.95,2.17,7.95S36.17,38.2,36.17,33.81Z"/><path class="cls-4" d="M40.6,37.51c3.1-3.11,4.94-6.31,4.09-7.16s-4.06,1-7.16,4.09-4.94,6.32-4.1,7.16S37.49,40.62,40.6,37.51Z"/><path class="cls-4" d="M30.47,34.44c3.1,3.11,4.94,6.32,4.09,7.16s-4.05-1-7.16-4.09-4.94-6.31-4.09-7.16S27.36,31.34,30.47,34.44Z"/></g></g></svg>