<svg xmlns="http://www.w3.org/2000/svg" viewBox="0 0 100 100"><defs><style>.cls-1{fill:#fff;}.cls-2{fill:#c71620;}.cls-3{fill:#23398c;}.cls-4{fill:#1d1d1b;}.cls-5{fill:#007847;}.cls-6{fill:#ffde00;}.cls-10,.cls-7,.cls-8{fill:none;stroke-miterlimit:10;}.cls-7{stroke:#ffde00;stroke-width:0.47px;}.cls-8{stroke:#007847;stroke-width:1.8px;}.cls-9{fill:#1d71b8;}.cls-10{stroke:#1d1d1b;stroke-width:0.13px;}.cls-11{fill:#f3e600;}</style></defs><g id="Onder"><rect class="cls-1" x="0.29" y="0.29" width="100" height="12"/><rect class="cls-1" x="44.28" y="44.33" width="100" height="12" transform="translate(144.61 -43.95) rotate(90)"/><rect class="cls-1" y="88" width="100" height="12" transform="translate(100 188) rotate(-180)"/><rect class="cls-1" x="-44" y="43.97" width="100" height="12" transform="translate(-43.97 55.97) rotate(-90)"/></g><g id="Laag_2" data-name="Laag 2"><rect class="cls-2" x="-0.01" y="0.01" width="12.02" height="3.96"/><rect class="cls-3" x="-0.01" y="8.05" width="12.02" height="3.96"/><path class="cls-4" d="M3.16,10.32,0,12V0L3.6,1.6S5.1,5.7,5.22,5.89C5.23,5.91,3.17,10.29,3.16,10.32Z"/><polygon class="cls-5" points="-0.01 1.74 -0.01 0.01 2.55 0.01 8.05 4.43 11.99 4.43 12 7.64 8.18 7.64 2.55 12.01 -0.01 12.01 -0.01 10.06 5.11 6.01 -0.01 1.74"/><polygon class="cls-6" points="-0.01 2.44 -0.01 1.44 5.75 6.01 -0.01 10.55 -0.01 9.57 4.49 6.01 -0.01 2.44"/><polygon class="cls-1" points="1.86 0.01 3.05 0.01 8.06 4 12 4 12 4.8 7.84 4.8 1.86 0.01"/><polygon class="cls-1" points="1.86 12.01 3.05 12.01 8.06 8.02 12 8.02 12 7.22 7.84 7.22 1.86 12.01"/><rect class="cls-2" x="-0.05" y="87.97" width="12.02" height="3.96"/><rect class="cls-3" x="-0.06" y="96.01" width="12.02" height="3.96"/><path class="cls-4" d="M3.12,98.29,0,100V88l3.6,1.59s1.51,4.1,1.62,4.29C5.19,93.88,3.12,98.26,3.12,98.29Z"/><polygon class="cls-5" points="-0.05 89.71 -0.05 87.97 2.51 87.97 8.01 92.39 11.95 92.39 11.95 95.6 8.13 95.6 2.51 99.97 -0.05 99.97 -0.05 98.03 5.06 93.97 -0.05 89.71"/><polygon class="cls-6" points="-0.05 90.41 -0.05 89.41 5.7 93.97 -0.05 98.51 -0.05 97.53 4.45 93.97 -0.05 90.41"/><polygon class="cls-1" points="1.81 87.97 3.01 87.97 8.01 91.96 11.95 91.96 11.95 92.76 7.8 92.76 1.81 87.97"/><polygon class="cls-1" points="1.81 99.97 3.01 99.97 8.01 95.98 11.95 95.98 11.95 95.18 7.8 95.18 1.81 99.97"/><rect class="cls-2" x="87.97" width="12.02" height="3.96"/><rect class="cls-3" x="87.96" y="8.04" width="12.02" height="3.96"/><path class="cls-4" d="M91.14,10.32,88,12V0l3.6,1.59s1.51,4.1,1.62,4.29C93.21,5.91,91.14,10.29,91.14,10.32Z"/><polygon class="cls-5" points="87.97 1.74 87.97 0 90.52 0 96.02 4.42 99.97 4.42 99.97 7.63 96.15 7.63 90.52 12 87.97 12 87.97 10.06 93.08 6 87.97 1.74"/><polygon class="cls-6" points="87.97 2.44 87.97 1.43 93.72 6 87.97 10.54 87.97 9.56 92.46 6 87.97 2.44"/><polygon class="cls-1" points="89.83 0 91.03 0 96.03 3.99 99.97 3.99 99.97 4.79 95.82 4.79 89.83 0"/><polygon class="cls-1" points="89.83 12 91.03 12 96.03 8.01 99.97 8.01 99.97 7.21 95.82 7.21 89.83 12"/><rect class="cls-2" x="44" y="0.01" width="12" height="12"/><path class="cls-1" d="M44.58,2.26V8.14a3.84,3.84,0,0,0,1.23-1.67,3.93,3.93,0,0,0,.32-1.36A3.5,3.5,0,0,0,44.58,2.26Z"/><path class="cls-3" d="M48.7.88H45a3.59,3.59,0,0,0,1.05,1.49,1.53,1.53,0,0,0,.86.39C47.61,2.8,48.29,2,48.7.88Z"/><path class="cls-1" d="M55.26,2.26V8.14A3.84,3.84,0,0,1,54,6.47a3.9,3.9,0,0,1-.33-1.36A3.53,3.53,0,0,1,55.26,2.26Z"/><path class="cls-3" d="M51.14.88h3.69a3.59,3.59,0,0,1-1,1.49,1.53,1.53,0,0,1-.85.39C52.24,2.8,51.56,2,51.14.88Z"/><polyline class="cls-7" points="44.73 11.01 49.92 1.18 55.07 11.01"/><polyline class="cls-8" points="46.86 11.01 49.9 5.2 52.89 11.01"/><ellipse class="cls-4" cx="49.94" cy="10.11" rx="0.47" ry="0.5"/><rect class="cls-2" x="88" y="43.69" width="12" height="12"/><path class="cls-1" d="M97.74,44.27H91.86a4.37,4.37,0,0,0,3,1.55A3.48,3.48,0,0,0,97.74,44.27Z"/><path class="cls-3" d="M99.13,48.4V44.7a3.62,3.62,0,0,0-1.49,1,1.61,1.61,0,0,0-.4.86C97.21,47.3,98,48,99.13,48.4Z"/><path class="cls-1" d="M97.74,55H91.86a4,4,0,0,1,1.68-1.22,4.14,4.14,0,0,1,1.36-.33A3.54,3.54,0,0,1,97.74,55Z"/><path class="cls-3" d="M99.13,50.83v3.7a3.57,3.57,0,0,1-1.49-1.06,1.61,1.61,0,0,1-.4-.85C97.21,51.93,98,51.25,99.13,50.83Z"/><polyline class="cls-7" points="89 44.42 98.83 49.61 89 54.76"/><polyline class="cls-8" points="89 46.55 94.8 49.59 89 52.58"/><ellipse class="cls-4" cx="89.9" cy="49.63" rx="0.5" ry="0.47"/><rect class="cls-2" x="44.24" y="87.97" width="12" height="12"/><path class="cls-1" d="M55.65,97.71V91.83a4.41,4.41,0,0,0-1.54,3A3.48,3.48,0,0,0,55.65,97.71Z"/><path class="cls-3" d="M51.53,99.1h3.7a3.57,3.57,0,0,0-1.06-1.49,1.61,1.61,0,0,0-.85-.4C52.63,97.18,52,98,51.53,99.1Z"/><path class="cls-1" d="M45,97.71V91.83a3.88,3.88,0,0,1,1.23,1.68,3.93,3.93,0,0,1,.32,1.36A3.47,3.47,0,0,1,45,97.71Z"/><path class="cls-3" d="M49.1,99.1H45.4a3.62,3.62,0,0,1,1.05-1.49,1.68,1.68,0,0,1,.86-.4C48,97.18,48.68,98,49.1,99.1Z"/><polyline class="cls-7" points="55.51 88.97 50.32 98.8 45.17 88.97"/><polyline class="cls-8" points="53.38 88.97 50.34 94.77 47.35 88.97"/><ellipse class="cls-4" cx="50.3" cy="89.87" rx="0.47" ry="0.5"/><rect class="cls-1" x="12" y="0.01" width="12" height="12"/><path class="cls-2" d="M17.11,5.16H18V.49Z"/><path class="cls-2" d="M18.89,5.16H18V.49Z"/><path class="cls-2" d="M18.89,5.16v.9h4.68Z"/><path class="cls-2" d="M18.89,7V6.06h4.68Z"/><path class="cls-2" d="M18.89,7H18v4.68Z"/><path class="cls-2" d="M17.11,7H18v4.68Z"/><path class="cls-2" d="M17.11,7V6.06H12.43Z"/><path class="cls-2" d="M17.11,5.16v.9H12.43Z"/><path class="cls-5" d="M18,5.14l.47.47,2.38-2.37Z"/><path class="cls-5" d="M18.93,6.08l-.47-.47,2.38-2.37Z"/><path class="cls-5" d="M18.93,6.08l-.45.46L21,9Z"/><path class="cls-5" d="M18,7l.45-.45L21,9Z"/><path class="cls-5" d="M18,7l-.48-.47L15.18,8.9Z"/><path class="cls-5" d="M17.08,6.05l.47.47L15.18,8.9Z"/><path class="cls-5" d="M17.08,6.05l.46-.45L15.07,3.13Z"/><path class="cls-5" d="M18,5.14l-.45.46L15.07,3.13Z"/><path class="cls-6" d="M18.53,5.53v.55h2.65Z"/><path class="cls-6" d="M18.53,6.64V6.08h2.65Z"/><path class="cls-6" d="M18.53,6.64H18v2.9Z"/><path class="cls-6" d="M17.52,6.64H18v2.9Z"/><path class="cls-6" d="M17.52,6.64V6.08H14.87Z"/><path class="cls-6" d="M17.52,5.53v.55H14.87Z"/><path class="cls-6" d="M17.52,5.53H18V2.63Z"/><path class="cls-6" d="M18.53,5.53H18V2.63Z"/><path class="cls-9" d="M18.56,6.06l-.28.28,1.35,1.35Z"/><path class="cls-9" d="M18,6.62l.28-.28,1.35,1.35Z"/><path class="cls-9" d="M18,6.62l-.26-.25L16.27,7.84Z"/><path class="cls-9" d="M17.49,6.11l.25.26L16.27,7.84Z"/><path class="cls-9" d="M17.49,6.11l.28-.28L16.42,4.48Z"/><path class="cls-9" d="M18.05,5.55l-.28.28L16.42,4.48Z"/><path class="cls-9" d="M18.05,5.55l.26.25,1.47-1.47Z"/><path class="cls-9" d="M18.56,6.06l-.25-.26,1.47-1.47Z"/><rect class="cls-4" x="17.63" y="5.71" width="0.8" height="0.75" transform="translate(0.97 14.53) rotate(-44.99)"/><rect class="cls-1" x="76.02" width="12" height="12"/><path class="cls-2" d="M81.13,5.16H82V.48Z"/><path class="cls-2" d="M82.92,5.16H82V.48Z"/><path class="cls-2" d="M82.92,5.16v.89H87.6Z"/><path class="cls-2" d="M82.92,6.94V6.05H87.6Z"/><path class="cls-2" d="M82.92,6.94H82v4.68Z"/><path class="cls-2" d="M81.13,6.94H82v4.68Z"/><path class="cls-2" d="M81.13,6.94V6.05H76.45Z"/><path class="cls-2" d="M81.13,5.16v.89H76.45Z"/><path class="cls-5" d="M82,5.14l.48.47,2.37-2.38Z"/><path class="cls-5" d="M83,6.08l-.47-.47,2.37-2.38Z"/><path class="cls-5" d="M83,6.08l-.46.45L85,9Z"/><path class="cls-5" d="M82.05,7l.45-.46L85,9Z"/><path class="cls-5" d="M82.05,7l-.47-.48L79.2,8.89Z"/><path class="cls-5" d="M81.11,6l.47.47L79.2,8.89Z"/><path class="cls-5" d="M81.11,6l.45-.45L79.09,3.12Z"/><path class="cls-5" d="M82,5.14l-.45.45L79.09,3.12Z"/><path class="cls-6" d="M82.56,5.53v.55h2.65Z"/><path class="cls-6" d="M82.56,6.63V6.08h2.65Z"/><path class="cls-6" d="M82.56,6.63h-.51v2.9Z"/><path class="cls-6" d="M81.54,6.63h.51v2.9Z"/><path class="cls-6" d="M81.54,6.63V6.08H78.89Z"/><path class="cls-6" d="M81.54,5.53v.55H78.89Z"/><path class="cls-6" d="M81.54,5.53h.51V2.63Z"/><path class="cls-6" d="M82.56,5.53h-.51V2.63Z"/><path class="cls-9" d="M82.59,6.05l-.28.29,1.34,1.34Z"/><path class="cls-9" d="M82,6.62l.28-.28,1.34,1.34Z"/><path class="cls-9" d="M82,6.62l-.26-.26L80.3,7.83Z"/><path class="cls-9" d="M81.51,6.1l.26.26L80.3,7.83Z"/><path class="cls-9" d="M81.51,6.1l.28-.28L80.45,4.47Z"/><path class="cls-9" d="M82.07,5.54l-.28.28L80.45,4.47Z"/><path class="cls-9" d="M82.07,5.54l.26.26L83.8,4.33Z"/><path class="cls-9" d="M82.59,6.05l-.26-.25L83.8,4.33Z"/><rect class="cls-4" x="81.65" y="5.71" width="0.8" height="0.75" transform="translate(19.72 59.79) rotate(-44.99)"/><rect class="cls-1" x="12.01" y="88" width="12" height="12"/><path class="cls-2" d="M17.11,93.16H18V88.48Z"/><path class="cls-2" d="M18.9,93.16H18V88.48Z"/><path class="cls-2" d="M18.9,93.16v.89h4.68Z"/><path class="cls-2" d="M18.9,94.94v-.89h4.68Z"/><path class="cls-2" d="M18.9,94.94H18v4.68Z"/><path class="cls-2" d="M17.11,94.94H18v4.68Z"/><path class="cls-2" d="M17.11,94.94v-.89H12.43Z"/><path class="cls-2" d="M17.11,93.16v.89H12.43Z"/><path class="cls-5" d="M18,93.14l.47.47,2.37-2.38Z"/><path class="cls-5" d="M18.94,94.08l-.47-.47,2.37-2.38Z"/><path class="cls-5" d="M18.94,94.08l-.46.45L21,97Z"/><path class="cls-5" d="M18,95l.45-.46L21,97Z"/><path class="cls-5" d="M18,95l-.47-.48-2.38,2.38Z"/><path class="cls-5" d="M17.09,94l.47.47-2.38,2.38Z"/><path class="cls-5" d="M17.09,94l.45-.45-2.46-2.47Z"/><path class="cls-5" d="M18,93.14l-.46.45-2.46-2.47Z"/><path class="cls-6" d="M18.54,93.53v.55h2.65Z"/><path class="cls-6" d="M18.54,94.63v-.55h2.65Z"/><path class="cls-6" d="M18.54,94.63H18v2.9Z"/><path class="cls-6" d="M17.52,94.63H18v2.9Z"/><path class="cls-6" d="M17.52,94.63v-.55H14.87Z"/><path class="cls-6" d="M17.52,93.53v.55H14.87Z"/><path class="cls-6" d="M17.52,93.53H18v-2.9Z"/><path class="cls-6" d="M18.54,93.53H18v-2.9Z"/><path class="cls-9" d="M18.57,94.05l-.28.29,1.35,1.34Z"/><path class="cls-9" d="M18,94.62l.28-.28,1.35,1.34Z"/><path class="cls-9" d="M18,94.62l-.26-.26-1.47,1.47Z"/><path class="cls-9" d="M17.49,94.1l.26.26-1.47,1.47Z"/><path class="cls-9" d="M17.49,94.1l.28-.28-1.34-1.35Z"/><path class="cls-9" d="M18.05,93.54l-.28.28-1.34-1.35Z"/><path class="cls-9" d="M18.05,93.54l.26.26,1.47-1.47Z"/><path class="cls-9" d="M18.57,94.05l-.26-.25,1.47-1.47Z"/><rect class="cls-4" x="17.64" y="93.71" width="0.8" height="0.75" transform="translate(-61.23 40.29) rotate(-44.99)"/><rect class="cls-1" x="75.98" y="88" width="12" height="12"/><path class="cls-2" d="M81.09,93.16H82V88.48Z"/><path class="cls-2" d="M82.88,93.16H82V88.48Z"/><path class="cls-2" d="M82.88,93.16v.89h4.68Z"/><path class="cls-2" d="M82.88,94.94v-.89h4.68Z"/><path class="cls-2" d="M82.88,94.94H82v4.68Z"/><path class="cls-2" d="M81.09,94.94H82v4.68Z"/><path class="cls-2" d="M81.09,94.94v-.89H76.41Z"/><path class="cls-2" d="M81.09,93.16v.89H76.41Z"/><path class="cls-5" d="M82,93.14l.47.47,2.38-2.38Z"/><path class="cls-5" d="M82.92,94.08l-.48-.47,2.38-2.38Z"/><path class="cls-5" d="M82.92,94.08l-.46.45L84.93,97Z"/><path class="cls-5" d="M82,95l.45-.46L84.93,97Z"/><path class="cls-5" d="M82,95l-.47-.48-2.38,2.38Z"/><path class="cls-5" d="M81.07,94l.47.47-2.38,2.38Z"/><path class="cls-5" d="M81.07,94l.45-.45-2.47-2.47Z"/><path class="cls-5" d="M82,93.14l-.45.45-2.47-2.47Z"/><path class="cls-6" d="M82.51,93.53v.55h2.66Z"/><path class="cls-6" d="M82.51,94.63v-.55h2.66Z"/><path class="cls-6" d="M82.51,94.63H82v2.9Z"/><path class="cls-6" d="M81.5,94.63H82v2.9Z"/><path class="cls-6" d="M81.5,94.63v-.55H78.85Z"/><path class="cls-6" d="M81.5,93.53v.55H78.85Z"/><path class="cls-6" d="M81.5,93.53H82v-2.9Z"/><path class="cls-6" d="M82.51,93.53H82v-2.9Z"/><path class="cls-9" d="M82.55,94.05l-.28.29,1.34,1.34Z"/><path class="cls-9" d="M82,94.62l.29-.28,1.34,1.34Z"/><path class="cls-9" d="M82,94.62l-.25-.26-1.47,1.47Z"/><path class="cls-9" d="M81.47,94.1l.26.26-1.47,1.47Z"/><path class="cls-9" d="M81.47,94.1l.28-.28L80.4,92.47Z"/><path class="cls-9" d="M82,93.54l-.28.28L80.4,92.47Z"/><path class="cls-9" d="M82,93.54l.26.26,1.47-1.47Z"/><path class="cls-9" d="M82.55,94.05l-.26-.25,1.47-1.47Z"/><rect class="cls-4" x="81.61" y="93.71" width="0.8" height="0.75" transform="translate(-42.5 85.52) rotate(-44.99)"/><path class="cls-2" d="M26.19,0h1.1c0,2.09,0,3.41,0,3.42h0S26.73,3,26.2,2.57C26.19,1.72,26.19.87,26.19,0Z"/><path class="cls-1" d="M28.38,0H27.29V3.44h0s.56-.44,1.09-.87Z"/><path class="cls-1" d="M25.1,6H24V2.59h0l1.09.86C25.09,4.31,25.09,5.16,25.1,6Z"/><path class="cls-5" d="M29.46,6h1.09V2.59h0l-1.09.86Z"/><path class="cls-1" d="M29.46,6H28.37V2.59h0l1.09.86Z"/><path class="cls-5" d="M27.27,6h1.1V2.59h0s-.56.44-1.09.86C27.28,4.31,27.27,5.16,27.27,6Z"/><path class="cls-1" d="M27.29,6h-1.1V2.59h0s.56.44,1.09.86C27.28,4.31,27.29,5.16,27.29,6Z"/><path class="cls-5" d="M25.1,6h1.09V2.59h0l-1.09.86Z"/><path class="cls-2" d="M28.36,0h1.1V3.44h0S28.9,3,28.37,2.57C28.37,1.72,28.36.87,28.36,0Z"/><path class="cls-1" d="M30.55,0H29.46V3.44h0S30,3,30.55,2.57Z"/><path class="cls-2" d="M24,0h1.1c0,2.09,0,3.41,0,3.42h0S24.54,3,24,2.57Z"/><path class="cls-1" d="M26.19,0H25.1V3.44h0s.56-.44,1.09-.87Z"/><path class="cls-6" d="M26.2,6h1.1c0,2.09,0,3.41,0,3.42h0s-.56-.44-1.09-.87C26.2,7.71,26.2,6.86,26.2,6Z"/><path class="cls-6" d="M28.37,6h1.1V9.43h0s-.56-.44-1.09-.87C28.38,7.71,28.37,6.86,28.37,6Z"/><path class="cls-6" d="M24,6h1.1c0,2.09,0,3.41,0,3.42h0S24.54,9,24,8.56Z"/><path class="cls-3" d="M29.47,12h1.09V8.57h0l-1.09.87Z"/><path class="cls-3" d="M27.28,12h1.1V8.57h0s-.56.44-1.09.87C27.29,10.29,27.28,11.14,27.28,12Z"/><path class="cls-3" d="M25.11,12H26.2V8.57h0l-1.09.87Z"/><path class="cls-1" d="M28.39,6H27.3V9.43h0l1.09-.87Z"/><path class="cls-1" d="M30.56,6H29.47V9.43h0l1.09-.87Z"/><path class="cls-1" d="M26.2,6H25.11V9.43h0l1.09-.87Z"/><path class="cls-1" d="M25.1,12H24V8.57h0l1.09.87Z"/><path class="cls-1" d="M29.47,12H28.38V8.57h0l1.09.87Z"/><path class="cls-1" d="M27.29,12H26.2V8.57h0l1.09.87Z"/><path class="cls-2" d="M32.75,0h1.09V3.43h0l-1.09-.87Z"/><path class="cls-1" d="M34.94,0h-1.1V3.43h0s.56-.44,1.09-.87C34.93,1.71,34.94.86,34.94,0Z"/><path class="cls-1" d="M31.65,6h-1.1c0-2.09,0-3.41,0-3.42h0s.57.44,1.1.86Z"/><path class="cls-1" d="M36,6h-1.1V2.58h0s.56.44,1.09.86C36,4.3,36,5.15,36,6Z"/><path class="cls-5" d="M33.83,6h1.09V2.58h0s-.56.44-1.09.86Z"/><path class="cls-1" d="M33.84,6H32.75V2.58h0s.56.44,1.09.86Z"/><path class="cls-5" d="M31.65,6h1.1c0-2.09,0-3.41,0-3.42h0s-.56.44-1.1.86Z"/><path class="cls-2" d="M34.92,0H36V3.43h0l-1.09-.87Z"/><path class="cls-2" d="M30.55,0h1.1V3.43h0l-1.09-.87C30.56,1.71,30.56.86,30.55,0Z"/><path class="cls-1" d="M32.75,0h-1.1V3.43h0l1.09-.87C32.74,1.71,32.74.86,32.75,0Z"/><path class="cls-6" d="M32.76,6h1.09V9.42h0l-1.09-.87Z"/><path class="cls-6" d="M34.93,6H36V9.42h0l-1.09-.87Z"/><path class="cls-6" d="M30.56,6h1.1V9.42h0l-1.09-.87C30.57,7.7,30.57,6.85,30.56,6Z"/><path class="cls-3" d="M33.84,12h1.09V8.56h0l-1.09.87Z"/><path class="cls-3" d="M31.66,12h1.1c0-2.09,0-3.41,0-3.42h0s-.56.44-1.1.87Z"/><path class="cls-1" d="M35,6h-1.1V9.42h0s.56-.44,1.09-.87C34.94,7.7,35,6.85,35,6Z"/><path class="cls-1" d="M32.76,6h-1.1V9.42h0l1.09-.87C32.75,7.7,32.75,6.85,32.76,6Z"/><path class="cls-1" d="M31.66,12h-1.1V8.56h0s.56.44,1.09.87C31.65,10.28,31.66,11.13,31.66,12Z"/><path class="cls-1" d="M36,12h-1.1V8.56h0L36,9.43C36,10.28,36,11.13,36,12Z"/><path class="cls-1" d="M33.85,12h-1.1c0-2.09,0-3.41,0-3.42h0s.56.44,1.09.87C33.85,10.28,33.85,11.13,33.85,12Z"/><path class="cls-2" d="M66.19,0h1.1c0,2.09,0,3.41,0,3.42h0l-1.1-.87Z"/><path class="cls-1" d="M68.38,0H67.29V3.44h0l1.09-.87Z"/><path class="cls-1" d="M65.09,6H64V2.59h0l1.09.86Z"/><path class="cls-5" d="M69.46,6h1.09V2.59h0l-1.09.86Z"/><path class="cls-1" d="M69.46,6H68.37V2.59h0l1.09.86Z"/><path class="cls-5" d="M67.27,6h1.1c0-2.09,0-3.41,0-3.42h0s-.56.44-1.09.86C67.27,4.3,67.27,5.16,67.27,6Z"/><path class="cls-1" d="M67.29,6h-1.1V2.59h0l1.09.86C67.28,4.3,67.28,5.16,67.29,6Z"/><path class="cls-5" d="M65.09,6h1.1V2.59h0l-1.09.86C65.1,4.3,65.1,5.16,65.09,6Z"/><path class="cls-2" d="M68.36,0h1.1V3.44h0l-1.09-.87C68.37,1.72,68.36.87,68.36,0Z"/><path class="cls-1" d="M70.55,0H69.46V3.44h0l1.09-.87Z"/><path class="cls-2" d="M64,0h1.09V3.44h0L64,2.57Z"/><path class="cls-1" d="M66.19,0h-1.1c0,2.09,0,3.41,0,3.42h0l1.1-.87Z"/><path class="cls-6" d="M66.2,6h1.1c0,2.08,0,3.41,0,3.42h0s-.57-.44-1.1-.87Z"/><path class="cls-6" d="M68.37,6h1.1c0,2.08,0,3.41,0,3.42h0l-1.09-.87C68.37,7.71,68.37,6.86,68.37,6Z"/><path class="cls-6" d="M64,6H65.1V9.43h0L64,8.56Z"/><path class="cls-3" d="M69.47,12h1.09V8.57h0l-1.09.87Z"/><path class="cls-3" d="M67.28,12h1.1c0-2.09,0-3.41,0-3.42h0s-.56.44-1.09.87C67.28,10.29,67.28,11.14,67.28,12Z"/><path class="cls-3" d="M65.1,12h1.1V8.57h0s-.56.44-1.09.87C65.11,10.29,65.11,11.14,65.1,12Z"/><path class="cls-1" d="M68.39,6H67.3V9.43h0l1.09-.87Z"/><path class="cls-1" d="M70.56,6H69.47V9.43h0l1.09-.87Z"/><path class="cls-1" d="M66.2,6H65.1c0,2.08,0,3.41,0,3.42h0l1.09-.87C66.2,7.71,66.2,6.86,66.2,6Z"/><path class="cls-1" d="M65.1,12H64V8.57h0l1.09.87Z"/><path class="cls-1" d="M69.47,12h-1.1c0-2.09,0-3.41,0-3.42h0s.56.44,1.09.87C69.47,10.29,69.47,11.14,69.47,12Z"/><path class="cls-1" d="M67.29,12H66.2V8.57h0l1.09.87Z"/><path class="cls-2" d="M72.74,0h1.1V3.43h0l-1.09-.87C72.75,1.71,72.75.86,72.74,0Z"/><path class="cls-1" d="M74.94,0h-1.1V3.43h0l1.09-.87C74.93,1.71,74.93.86,74.94,0Z"/><path class="cls-1" d="M71.65,6h-1.1c0-2.09,0-3.41,0-3.42h0s.56.44,1.09.86C71.65,4.29,71.65,5.15,71.65,6Z"/><path class="cls-1" d="M76,6h-1.1V2.58h0s.56.44,1.09.86C76,4.29,76,5.15,76,6Z"/><path class="cls-5" d="M73.83,6h1.09V2.58h0s-.56.44-1.09.86Z"/><path class="cls-1" d="M73.84,6h-1.1c0-2.09,0-3.41,0-3.42h0s.56.44,1.1.86Z"/><path class="cls-5" d="M71.65,6h1.09V2.58h0s-.56.44-1.09.86Z"/><path class="cls-2" d="M74.92,0H76V3.43h0l-1.09-.87Z"/><path class="cls-2" d="M70.55,0h1.1V3.43h0s-.56-.44-1.09-.87C70.56,1.71,70.55.86,70.55,0Z"/><path class="cls-1" d="M72.74,0H71.65V3.43h0l1.09-.87Z"/><path class="cls-6" d="M72.75,6h1.1V9.42h0l-1.09-.87C72.76,7.7,72.76,6.85,72.75,6Z"/><path class="cls-6" d="M74.93,6H76V9.42h0l-1.09-.87Z"/><path class="cls-6" d="M70.56,6h1.1V9.42h0l-1.09-.87C70.57,7.7,70.56,6.85,70.56,6Z"/><path class="cls-3" d="M73.84,12h1.09V8.56h0l-1.09.87Z"/><path class="cls-3" d="M71.66,12h1.09V8.56h0l-1.09.87Z"/><path class="cls-1" d="M75,6h-1.1V9.42h0l1.09-.87C74.94,7.7,74.94,6.85,75,6Z"/><path class="cls-1" d="M72.75,6H71.66V9.42h0l1.09-.87Z"/><path class="cls-1" d="M71.66,12h-1.1V8.56h0s.56.44,1.09.87C71.65,10.28,71.65,11.13,71.66,12Z"/><path class="cls-1" d="M76,12H74.93V8.56h0L76,9.43Z"/><path class="cls-1" d="M73.85,12h-1.1V8.56h0s.56.44,1.09.87C73.84,10.28,73.85,11.13,73.85,12Z"/><path class="cls-2" d="M73.79,100H72.7V96.58h0l1.09.87Z"/><path class="cls-1" d="M71.6,100h1.1c0-2.09,0-3.41,0-3.43h0l-1.09.87C71.6,98.3,71.6,99.15,71.6,100Z"/><path class="cls-1" d="M74.89,94H76v3.42h0l-1.09-.87Z"/><path class="cls-5" d="M70.52,94H69.43v3.42h0l1.09-.87Z"/><path class="cls-1" d="M70.52,94h1.1c0,2.08,0,3.41,0,3.42h0s-.57-.44-1.1-.87Z"/><path class="cls-5" d="M72.71,94H71.62v3.42h0l1.09-.87Z"/><path class="cls-1" d="M72.7,94h1.09v3.42h0l-1.09-.87Z"/><path class="cls-5" d="M74.89,94h-1.1v3.42h0l1.09-.87C74.88,95.72,74.89,94.87,74.89,94Z"/><path class="cls-2" d="M71.62,100h-1.1c0-2.09,0-3.41,0-3.43h0l1.1.87Z"/><path class="cls-1" d="M69.43,100h1.09V96.58h0l-1.09.87Z"/><path class="cls-2" d="M76,100H74.89V96.58h0l1.09.87Z"/><path class="cls-1" d="M73.79,100h1.1V96.58h0l-1.09.87C73.8,98.3,73.79,99.15,73.79,100Z"/><path class="cls-6" d="M73.78,94H72.69V90.59h0l1.09.87Z"/><path class="cls-6" d="M71.61,94h-1.1c0-2.09,0-3.41,0-3.43h0s.57.44,1.1.87Z"/><path class="cls-6" d="M76,94H74.88V90.59h0l1.09.87Z"/><path class="cls-3" d="M70.51,88H69.42v3.42h0l1.09-.86Z"/><path class="cls-3" d="M72.7,88H71.61v3.42h0l1.09-.86Z"/><path class="cls-3" d="M74.88,88h-1.1v3.42h0s.56-.44,1.09-.86C74.88,89.73,74.88,88.88,74.88,88Z"/><path class="cls-1" d="M71.59,94h1.1c0-2.09,0-3.41,0-3.43h0l-1.09.87C71.59,92.31,71.59,93.17,71.59,94Z"/><path class="cls-1" d="M69.42,94h1.09V90.59h0l-1.09.87Z"/><path class="cls-1" d="M73.78,94h1.1V90.59h0l-1.09.87C73.79,92.31,73.78,93.17,73.78,94Z"/><path class="cls-1" d="M74.88,88H76c0,2.09,0,3.41,0,3.42h0s-.56-.44-1.09-.86C74.88,89.73,74.88,88.88,74.88,88Z"/><path class="cls-1" d="M70.51,88h1.1v3.42h0s-.56-.44-1.09-.86C70.52,89.73,70.51,88.88,70.51,88Z"/><path class="cls-1" d="M72.69,88h1.09v3.42h0l-1.09-.86Z"/><path class="cls-2" d="M67.24,100h-1.1V96.59h0l1.09.87C67.23,98.31,67.24,99.16,67.24,100Z"/><path class="cls-1" d="M65.05,100h1.09V96.59h0l-1.09.87Z"/><path class="cls-1" d="M68.33,94h1.1v3.42h0l-1.09-.87C68.34,95.73,68.33,94.88,68.33,94Z"/><path class="cls-1" d="M64,94h1.09v3.42h0L64,96.58Z"/><path class="cls-5" d="M66.16,94h-1.1v3.42h0l1.09-.87C66.15,95.73,66.15,94.88,66.16,94Z"/><path class="cls-1" d="M66.14,94h1.1v3.42h0l-1.09-.87C66.15,95.73,66.14,94.88,66.14,94Z"/><path class="cls-5" d="M68.33,94H67.24v3.42h0l1.09-.87Z"/><path class="cls-2" d="M65.07,100H64V96.59h0l1.09.87C65.06,98.31,65.06,99.16,65.07,100Z"/><path class="cls-2" d="M69.43,100h-1.1c0-2.09,0-3.41,0-3.43h0l1.09.87C69.43,98.31,69.43,99.16,69.43,100Z"/><path class="cls-1" d="M67.24,100h1.09V96.59h0l-1.09.87Z"/><path class="cls-6" d="M67.23,94h-1.1V90.6h0l1.09.87C67.22,92.32,67.23,93.17,67.23,94Z"/><path class="cls-6" d="M65.06,94H64V90.6h0l1.09.87C65.05,92.32,65.05,93.17,65.06,94Z"/><path class="cls-6" d="M69.42,94h-1.1c0-2.09,0-3.41,0-3.43h0l1.09.87C69.42,92.32,69.42,93.17,69.42,94Z"/><path class="cls-3" d="M66.15,88h-1.1v3.42h0s.56-.44,1.09-.86C66.14,89.74,66.15,88.89,66.15,88Z"/><path class="cls-3" d="M68.32,88H67.23v3.42h0s.56-.44,1.09-.86Z"/><path class="cls-1" d="M65,94h1.09V90.6h0L65,91.47Z"/><path class="cls-1" d="M67.23,94h1.09V90.6h0l-1.09.87Z"/><path class="cls-1" d="M68.33,88h1.09v3.42h0s-.56-.44-1.09-.86Z"/><path class="cls-1" d="M64,88h1.09v3.42h0S64.49,91,64,90.6Z"/><path class="cls-1" d="M66.13,88h1.1v3.42h0s-.56-.44-1.09-.86C66.14,89.74,66.14,88.89,66.13,88Z"/><path class="cls-2" d="M33.79,100H32.7V96.59h0s.56.44,1.09.86Z"/><path class="cls-1" d="M31.6,100h1.1V96.59h0s-.56.44-1.09.86C31.61,98.3,31.6,99.16,31.6,100Z"/><path class="cls-1" d="M34.89,94H36v3.42h0l-1.09-.87Z"/><path class="cls-5" d="M30.53,94h-1.1v3.42h0l1.09-.87C30.52,95.72,30.52,94.87,30.53,94Z"/><path class="cls-1" d="M30.52,94h1.1c0,2.09,0,3.41,0,3.42h0l-1.09-.87C30.52,95.72,30.52,94.87,30.52,94Z"/><path class="cls-5" d="M32.71,94H31.62v3.42h0l1.09-.87Z"/><path class="cls-1" d="M32.7,94h1.09v3.42h0l-1.09-.87Z"/><path class="cls-5" d="M34.89,94h-1.1c0,2.09,0,3.41,0,3.42h0l1.09-.87C34.89,95.72,34.89,94.87,34.89,94Z"/><path class="cls-2" d="M31.62,100H30.53V96.59h0s.56.44,1.09.86Z"/><path class="cls-1" d="M29.43,100h1.1c0-2.09,0-3.41,0-3.42h0s-.56.44-1.09.86C29.43,98.3,29.43,99.16,29.43,100Z"/><path class="cls-2" d="M36,100H34.89V96.59h0s.56.44,1.09.86Z"/><path class="cls-1" d="M33.79,100h1.1V96.59h0s-.56.44-1.09.86C33.8,98.3,33.8,99.16,33.79,100Z"/><path class="cls-6" d="M33.78,94H32.69V90.6h0l1.09.86Z"/><path class="cls-6" d="M31.61,94H30.52V90.6h0l1.09.86Z"/><path class="cls-6" d="M36,94h-1.1V90.6h0l1.09.86C36,92.32,36,93.17,36,94Z"/><path class="cls-3" d="M30.52,88h-1.1v3.42h0l1.09-.87C30.51,89.74,30.51,88.88,30.52,88Z"/><path class="cls-3" d="M32.7,88H31.61v3.42h0l1.09-.87Z"/><path class="cls-3" d="M34.88,88h-1.1c0,2.09,0,3.41,0,3.42h0l1.09-.87C34.88,89.74,34.88,88.88,34.88,88Z"/><path class="cls-1" d="M31.59,94h1.1V90.6h0s-.56.44-1.09.86C31.6,92.32,31.59,93.17,31.59,94Z"/><path class="cls-1" d="M29.42,94h1.1c0-2.09,0-3.41,0-3.42h0s-.56.44-1.09.86C29.42,92.32,29.42,93.17,29.42,94Z"/><path class="cls-1" d="M33.78,94h1.1V90.6h0s-.56.44-1.09.86C33.79,92.32,33.79,93.17,33.78,94Z"/><path class="cls-1" d="M34.88,88H36v3.42h0l-1.09-.87C34.89,89.74,34.88,88.88,34.88,88Z"/><path class="cls-1" d="M30.51,88h1.1v3.42h0l-1.09-.87C30.52,89.74,30.52,88.88,30.51,88Z"/><path class="cls-1" d="M32.69,88h1.1c0,2.09,0,3.41,0,3.42h0l-1.09-.87C32.69,89.74,32.69,88.88,32.69,88Z"/><path class="cls-2" d="M27.24,100h-1.1c0-2.09,0-3.41,0-3.42h0s.56.44,1.09.86C27.24,98.31,27.24,99.17,27.24,100Z"/><path class="cls-1" d="M25.05,100h1.09V96.6h0l-1.09.86Z"/><path class="cls-1" d="M28.33,94h1.1v3.42h0l-1.09-.87C28.34,95.73,28.34,94.88,28.33,94Z"/><path class="cls-1" d="M24,94h1.09v3.42h0L24,96.58Z"/><path class="cls-5" d="M26.16,94h-1.1v3.42h0l1.09-.87C26.15,95.73,26.16,94.88,26.16,94Z"/><path class="cls-1" d="M26.14,94h1.1v3.42h0l-1.09-.87C26.15,95.73,26.14,94.88,26.14,94Z"/><path class="cls-5" d="M28.33,94H27.24v3.42h0l1.09-.87Z"/><path class="cls-2" d="M25.07,100H24V96.6h0s.56.44,1.09.86C25.06,98.31,25.07,99.17,25.07,100Z"/><path class="cls-2" d="M29.43,100h-1.1c0-2.09,0-3.41,0-3.42h0s.57.44,1.1.86Z"/><path class="cls-1" d="M27.24,100h1.09V96.6h0l-1.09.86Z"/><path class="cls-6" d="M27.23,94h-1.1c0-2.09,0-3.41,0-3.42h0s.56.44,1.09.86C27.23,92.32,27.23,93.18,27.23,94Z"/><path class="cls-6" d="M25.06,94H24V90.61h0s.56.44,1.09.86C25.05,92.32,25.06,93.18,25.06,94Z"/><path class="cls-6" d="M29.42,94H28.33V90.61h0s.56.44,1.09.86Z"/><path class="cls-3" d="M26.15,88h-1.1v3.42h0s.56-.44,1.09-.86C26.15,89.75,26.15,88.89,26.15,88Z"/><path class="cls-3" d="M28.33,88h-1.1v3.42h0s.56-.44,1.09-.86C28.32,89.75,28.32,88.89,28.33,88Z"/><path class="cls-1" d="M25,94h1.09V90.61h0s-.56.44-1.09.86Z"/><path class="cls-1" d="M27.23,94h1.1c0-2.09,0-3.41,0-3.42h0s-.57.44-1.1.86Z"/><path class="cls-1" d="M28.33,88h1.09v3.42h0s-.56-.44-1.09-.86Z"/><path class="cls-1" d="M24,88h1.09v3.42h0S24.49,91,24,90.6Z"/><path class="cls-1" d="M26.14,88h1.09v3.42h0s-.56-.44-1.09-.86Z"/><rect class="cls-1" x="87.91" y="75.98" width="12" height="12"/><path class="cls-2" d="M93.07,82.87V82H88.39Z"/><path class="cls-2" d="M93.07,81.08V82H88.39Z"/><path class="cls-2" d="M93.07,81.08H94V76.41Z"/><path class="cls-2" d="M94.86,81.08H94V76.41Z"/><path class="cls-2" d="M94.86,81.08V82h4.67Z"/><path class="cls-2" d="M94.86,82.87V82h4.67Z"/><path class="cls-2" d="M94.86,82.87H94v4.68Z"/><path class="cls-2" d="M93.07,82.87H94v4.68Z"/><path class="cls-5" d="M93.05,82l.47-.47-2.38-2.38Z"/><path class="cls-5" d="M94,81.05l-.47.47-2.38-2.38Z"/><path class="cls-5" d="M94,81.05l.45.45L96.91,79Z"/><path class="cls-5" d="M94.9,82l-.46-.45L96.91,79Z"/><path class="cls-5" d="M94.9,82l-.47.47L96.8,84.8Z"/><path class="cls-5" d="M94,82.89l.48-.47L96.8,84.8Z"/><path class="cls-5" d="M94,82.89l-.45-.45L91,84.91Z"/><path class="cls-5" d="M93.05,82l.45.45L91,84.91Z"/><path class="cls-6" d="M93.44,81.45H94V78.79Z"/><path class="cls-6" d="M94.54,81.45H94V78.79Z"/><path class="cls-6" d="M94.54,81.45V82h2.9Z"/><path class="cls-6" d="M94.54,82.46V82h2.9Z"/><path class="cls-6" d="M94.54,82.46H94v2.65Z"/><path class="cls-6" d="M93.44,82.46H94v2.65Z"/><path class="cls-6" d="M93.44,82.46V82h-2.9Z"/><path class="cls-6" d="M93.44,81.45V82h-2.9Z"/><path class="cls-9" d="M94,81.41l.28.29,1.34-1.35Z"/><path class="cls-9" d="M94.53,82l-.28-.28,1.34-1.35Z"/><path class="cls-9" d="M94.53,82l-.26.25,1.47,1.47Z"/><path class="cls-9" d="M94,82.49l.26-.26,1.47,1.47Z"/><path class="cls-9" d="M94,82.49l-.28-.28-1.34,1.35Z"/><path class="cls-9" d="M93.45,81.93l.28.28-1.34,1.35Z"/><path class="cls-9" d="M93.45,81.93l.26-.26L92.24,80.2Z"/><path class="cls-9" d="M94,81.41l-.26.26L92.24,80.2Z"/><rect class="cls-4" x="93.62" y="81.55" width="0.75" height="0.8" transform="translate(-30.42 90.44) rotate(-44.99)"/><rect class="cls-1" x="87.91" y="12" width="12" height="12"/><path class="cls-2" d="M93.07,18.89V18H88.39Z"/><path class="cls-2" d="M93.07,17.11V18H88.39Z"/><path class="cls-2" d="M93.07,17.11H94V12.43Z"/><path class="cls-2" d="M94.86,17.11H94V12.43Z"/><path class="cls-2" d="M94.86,17.11V18h4.67Z"/><path class="cls-2" d="M94.86,18.89V18h4.67Z"/><path class="cls-2" d="M94.86,18.89H94v4.68Z"/><path class="cls-2" d="M93.07,18.89H94v4.68Z"/><path class="cls-5" d="M93.05,18l.47-.47-2.38-2.38Z"/><path class="cls-5" d="M94,17.07l-.47.47-2.38-2.38Z"/><path class="cls-5" d="M94,17.07l.45.45,2.47-2.47Z"/><path class="cls-5" d="M94.9,18l-.46-.45,2.47-2.47Z"/><path class="cls-5" d="M94.9,18l-.47.48,2.37,2.37Z"/><path class="cls-5" d="M94,18.92l.48-.47,2.37,2.37Z"/><path class="cls-5" d="M94,18.92l-.45-.46L91,20.93Z"/><path class="cls-5" d="M93.05,18l.45.45L91,20.93Z"/><path class="cls-6" d="M93.44,17.47H94V14.82Z"/><path class="cls-6" d="M94.54,17.47H94V14.82Z"/><path class="cls-6" d="M94.54,17.47V18h2.9Z"/><path class="cls-6" d="M94.54,18.48V18h2.9Z"/><path class="cls-6" d="M94.54,18.48H94v2.65Z"/><path class="cls-6" d="M93.44,18.48H94v2.65Z"/><path class="cls-6" d="M93.44,18.48V18h-2.9Z"/><path class="cls-6" d="M93.44,17.47V18h-2.9Z"/><path class="cls-9" d="M94,17.44l.28.28,1.34-1.35Z"/><path class="cls-9" d="M94.53,18l-.28-.28,1.34-1.35Z"/><path class="cls-9" d="M94.53,18l-.26.26,1.47,1.47Z"/><path class="cls-9" d="M94,18.51l.26-.25,1.47,1.47Z"/><path class="cls-9" d="M94,18.51l-.28-.28-1.34,1.35Z"/><path class="cls-9" d="M93.45,18l.28.28-1.34,1.35Z"/><path class="cls-9" d="M93.45,18l.26-.26-1.47-1.47Z"/><path class="cls-9" d="M94,17.44l-.26.25-1.47-1.47Z"/><rect class="cls-4" x="93.62" y="17.57" width="0.75" height="0.8" transform="translate(14.81 71.71) rotate(-44.99)"/><path class="cls-2" d="M99.92,26.19v1.1H96.5s.44-.56.86-1.09Z"/><path class="cls-1" d="M99.92,28.38V27.29H96.5s.44.56.86,1.09Z"/><path class="cls-1" d="M93.93,25.1V24h3.42l-.87,1.09Z"/><path class="cls-5" d="M93.93,29.46v1.09h3.42l-.87-1.09Z"/><path class="cls-1" d="M93.93,29.46V28.37h3.42l-.87,1.09Z"/><path class="cls-5" d="M93.93,27.27v1.1h3.42s-.44-.56-.87-1.09Z"/><path class="cls-1" d="M93.93,27.29v-1.1h3.42l-.87,1.09Z"/><path class="cls-5" d="M93.93,25.1v1.09h3.42l-.87-1.09Z"/><path class="cls-2" d="M99.92,28.36v1.1H96.5s.44-.56.86-1.09Z"/><path class="cls-1" d="M99.92,30.55V29.46H96.5s.44.56.86,1.09Z"/><path class="cls-2" d="M99.92,24v1.1c-2.09,0-3.41,0-3.42,0h0s.44-.56.86-1.1Z"/><path class="cls-1" d="M99.92,26.19V25.1H96.5s.44.56.86,1.09Z"/><path class="cls-6" d="M93.93,26.2v1.1c-2.09,0-3.41,0-3.42,0h0s.44-.56.86-1.09Z"/><path class="cls-6" d="M93.93,28.37v1.1H90.51s.44-.56.86-1.09Z"/><path class="cls-6" d="M93.93,24v1.1H90.51s.44-.57.86-1.1Z"/><path class="cls-3" d="M87.94,29.47v1.09h3.43l-.87-1.09Z"/><path class="cls-3" d="M87.94,27.28v1.1h3.43l-.87-1.09Z"/><path class="cls-3" d="M87.94,25.11V26.2h3.43l-.87-1.09Z"/><path class="cls-1" d="M93.93,28.39V27.3H90.51s.44.56.86,1.09Z"/><path class="cls-1" d="M93.93,30.56V29.47H90.51s.44.56.86,1.09Z"/><path class="cls-1" d="M93.93,26.2V25.11H90.51s.44.56.86,1.09Z"/><path class="cls-1" d="M87.94,25.1V24h3.43L90.5,25.1Z"/><path class="cls-1" d="M87.94,29.47V28.38h3.43l-.87,1.09Z"/><path class="cls-1" d="M87.94,27.29V26.2h3.43l-.87,1.09Z"/><path class="cls-2" d="M99.93,32.75v1.09H96.51s.43-.56.86-1.09Z"/><path class="cls-1" d="M99.93,34.94v-1.1H96.51s.43.56.86,1.09Z"/><path class="cls-1" d="M93.94,31.65v-1.1h3.42s-.44.57-.87,1.1Z"/><path class="cls-1" d="M93.94,36v-1.1h3.42L96.49,36Z"/><path class="cls-5" d="M93.94,33.83v1.09h3.42l-.87-1.09Z"/><path class="cls-1" d="M93.94,33.84V32.75h3.42l-.87,1.09Z"/><path class="cls-5" d="M93.94,31.65v1.1h3.42l-.87-1.1Z"/><path class="cls-2" d="M99.93,34.92V36H96.51s.43-.56.86-1.09Z"/><path class="cls-2" d="M99.93,30.55v1.1H96.51s.43-.56.86-1.09Z"/><path class="cls-1" d="M99.93,32.75v-1.1H96.51s.43.56.86,1.09Z"/><path class="cls-6" d="M93.94,32.76v1.09H90.52s.44-.56.86-1.09Z"/><path class="cls-6" d="M93.94,34.93V36H90.52s.44-.56.86-1.09Z"/><path class="cls-6" d="M93.94,30.56v1.1H90.52s.44-.56.86-1.09Z"/><path class="cls-3" d="M88,33.84v1.09h3.42s-.44-.56-.86-1.09Z"/><path class="cls-3" d="M88,31.66v1.1h3.42s-.44-.56-.86-1.1Z"/><path class="cls-1" d="M93.94,35v-1.1H90.52s.44.56.86,1.09Z"/><path class="cls-1" d="M93.94,32.76v-1.1H90.52s.44.56.86,1.09Z"/><path class="cls-1" d="M88,31.66v-1.1h3.42s-.44.56-.86,1.09Z"/><path class="cls-1" d="M88,36v-1.1h3.42s-.44.56-.86,1.09Z"/><path class="cls-1" d="M88,33.85v-1.1h3.42s-.44.56-.86,1.09Z"/><path class="cls-2" d="M99.92,66.19v1.1c-2.09,0-3.41,0-3.42,0h0s.44-.57.86-1.1Z"/><path class="cls-1" d="M99.92,68.38V67.29H96.5s.44.56.86,1.09Z"/><path class="cls-1" d="M93.93,65.09V64h3.42s-.44.56-.87,1.09Z"/><path class="cls-5" d="M93.93,69.46v1.09h3.42s-.44-.56-.87-1.09Z"/><path class="cls-1" d="M93.93,69.46V68.37h3.42s-.44.56-.87,1.09Z"/><path class="cls-5" d="M93.93,67.27v1.1c2.09,0,3.41,0,3.42,0h0s-.44-.56-.87-1.09Z"/><path class="cls-1" d="M93.93,67.29v-1.1h3.42s-.44.56-.87,1.09Z"/><path class="cls-5" d="M93.93,65.09v1.1h3.42s-.44-.56-.87-1.09Z"/><path class="cls-2" d="M99.92,68.36v1.1H96.5s.44-.56.86-1.09Z"/><path class="cls-1" d="M99.92,70.55V69.46H96.5s.44.56.86,1.09Z"/><path class="cls-2" d="M99.92,64v1.09H96.5s.44-.56.86-1.09Z"/><path class="cls-1" d="M99.92,66.19v-1.1H96.5s.44.56.86,1.1Z"/><path class="cls-6" d="M93.93,66.2v1.1H90.51s.44-.57.87-1.1Z"/><path class="cls-6" d="M93.93,68.37v1.1c-2.09,0-3.41,0-3.42,0h0s.44-.56.87-1.09Z"/><path class="cls-6" d="M93.93,64V65.1H90.51s.44-.56.87-1.09Z"/><path class="cls-3" d="M87.94,69.47v1.09h3.43l-.87-1.09Z"/><path class="cls-3" d="M87.94,67.28v1.1h3.43l-.87-1.09Z"/><path class="cls-3" d="M87.94,65.1v1.1h3.43s-.44-.56-.87-1.09Z"/><path class="cls-1" d="M93.93,68.39V67.3H90.51s.44.56.87,1.09Z"/><path class="cls-1" d="M93.93,70.56V69.47H90.51s.44.56.87,1.09Z"/><path class="cls-1" d="M93.93,66.2V65.1c-2.09,0-3.41,0-3.42,0h0s.44.56.87,1.09Z"/><path class="cls-1" d="M87.94,65.1V64h3.43L90.5,65.1Z"/><path class="cls-1" d="M87.94,69.47v-1.1h3.43l-.87,1.09Z"/><path class="cls-1" d="M87.94,67.29V66.2h3.43l-.87,1.09Z"/><path class="cls-2" d="M99.93,72.74v1.1H96.51s.44-.56.86-1.09Z"/><path class="cls-1" d="M99.93,74.94v-1.1H96.51s.44.56.86,1.09Z"/><path class="cls-1" d="M93.94,71.65v-1.1c2.09,0,3.41,0,3.42,0h0s-.44.56-.87,1.09Z"/><path class="cls-1" d="M93.94,76v-1.1h3.42s-.44.56-.87,1.09Z"/><path class="cls-5" d="M93.94,73.83v1.09h3.42s-.44-.56-.87-1.09Z"/><path class="cls-1" d="M93.94,73.84v-1.1c2.09,0,3.41,0,3.42,0h0s-.44.56-.87,1.1Z"/><path class="cls-5" d="M93.94,71.65v1.09h3.42s-.44-.56-.87-1.09Z"/><path class="cls-2" d="M99.93,74.92V76H96.51s.44-.56.86-1.09Z"/><path class="cls-2" d="M99.93,70.55v1.1H96.51s.44-.56.86-1.09Z"/><path class="cls-1" d="M99.93,72.74V71.65H96.51s.44.56.86,1.09Z"/><path class="cls-6" d="M93.94,72.75v1.1H90.52s.44-.56.86-1.09Z"/><path class="cls-6" d="M93.94,74.93V76H90.52s.44-.56.86-1.09Z"/><path class="cls-6" d="M93.94,70.56v1.1H90.52s.44-.56.86-1.09Z"/><path class="cls-3" d="M88,73.84v1.09h3.43l-.87-1.09Z"/><path class="cls-3" d="M88,71.66v1.09h3.43l-.87-1.09Z"/><path class="cls-1" d="M93.94,75v-1.1H90.52s.44.56.86,1.09Z"/><path class="cls-1" d="M93.94,72.75V71.66H90.52s.44.56.86,1.09Z"/><path class="cls-1" d="M88,71.66v-1.1h3.43l-.87,1.09Z"/><path class="cls-1" d="M88,76V74.93h3.43L90.51,76Z"/><path class="cls-1" d="M88,73.85v-1.1h3.43s-.44.56-.87,1.09Z"/><rect class="cls-1" y="12" width="12" height="12"/><path class="cls-2" d="M6.84,17.11V18h4.68Z"/><path class="cls-2" d="M6.84,18.89V18h4.68Z"/><path class="cls-2" d="M6.84,18.89H6v4.68Z"/><path class="cls-2" d="M5.05,18.89H6v4.68Z"/><path class="cls-2" d="M5.05,18.89V18H.38Z"/><path class="cls-2" d="M5.05,17.11V18H.38Z"/><path class="cls-2" d="M5.05,17.11H6V12.43Z"/><path class="cls-2" d="M6.84,17.11H6V12.43Z"/><path class="cls-5" d="M6.86,18l-.47.47,2.38,2.38Z"/><path class="cls-5" d="M5.92,18.93l.47-.47,2.38,2.38Z"/><path class="cls-5" d="M5.92,18.93l-.45-.45L3,21Z"/><path class="cls-5" d="M5,18l.46.45L3,21Z"/><path class="cls-5" d="M5,18l.47-.48L3.11,15.18Z"/><path class="cls-5" d="M6,17.08l-.48.47L3.11,15.18Z"/><path class="cls-5" d="M6,17.08l.45.46,2.47-2.47Z"/><path class="cls-5" d="M6.86,18l-.45-.45,2.47-2.47Z"/><path class="cls-6" d="M6.47,18.53H5.92v2.65Z"/><path class="cls-6" d="M5.37,18.53h.55v2.65Z"/><path class="cls-6" d="M5.37,18.53V18H2.47Z"/><path class="cls-6" d="M5.37,17.52V18H2.47Z"/><path class="cls-6" d="M5.37,17.52h.55V14.87Z"/><path class="cls-6" d="M6.47,17.52H5.92V14.87Z"/><path class="cls-6" d="M6.47,17.52V18h2.9Z"/><path class="cls-6" d="M6.47,18.53V18h2.9Z"/><path class="cls-9" d="M5.94,18.56l-.28-.28L4.32,19.63Z"/><path class="cls-9" d="M5.38,18l.28.28L4.32,19.63Z"/><path class="cls-9" d="M5.38,18l.26-.26L4.17,16.27Z"/><path class="cls-9" d="M5.9,17.49l-.26.25L4.17,16.27Z"/><path class="cls-9" d="M5.9,17.49l.28.28,1.34-1.35Z"/><path class="cls-9" d="M6.46,18.05l-.28-.28,1.34-1.35Z"/><path class="cls-9" d="M6.46,18.05l-.26.26,1.47,1.47Z"/><path class="cls-9" d="M5.94,18.56l.26-.25,1.47,1.47Z"/><rect class="cls-4" x="5.54" y="17.63" width="0.75" height="0.8" transform="translate(-11.01 9.46) rotate(-44.99)"/><rect class="cls-1" y="75.98" width="12" height="12"/><path class="cls-2" d="M6.84,81.08V82h4.68Z"/><path class="cls-2" d="M6.84,82.87V82h4.68Z"/><path class="cls-2" d="M6.84,82.87H6v4.68Z"/><path class="cls-2" d="M5.05,82.87H6v4.68Z"/><path class="cls-2" d="M5.05,82.87V82H.38Z"/><path class="cls-2" d="M5.05,81.08V82H.38Z"/><path class="cls-2" d="M5.05,81.08H6V76.41Z"/><path class="cls-2" d="M6.84,81.08H6V76.41Z"/><path class="cls-5" d="M6.86,82l-.47.47,2.38,2.37Z"/><path class="cls-5" d="M5.92,82.91l.47-.47,2.38,2.37Z"/><path class="cls-5" d="M5.92,82.91l-.45-.45L3,84.92Z"/><path class="cls-5" d="M5,82l.46.46L3,84.92Z"/><path class="cls-5" d="M5,82l.47-.47L3.11,79.16Z"/><path class="cls-5" d="M6,81.06l-.48.47L3.11,79.16Z"/><path class="cls-5" d="M6,81.06l.45.45,2.47-2.46Z"/><path class="cls-5" d="M6.86,82l-.45-.46,2.47-2.46Z"/><path class="cls-6" d="M6.47,82.51H5.92v2.65Z"/><path class="cls-6" d="M5.37,82.51h.55v2.65Z"/><path class="cls-6" d="M5.37,82.51V82H2.47Z"/><path class="cls-6" d="M5.37,81.5V82H2.47Z"/><path class="cls-6" d="M5.37,81.5h.55V78.84Z"/><path class="cls-6" d="M6.47,81.5H5.92V78.84Z"/><path class="cls-6" d="M6.47,81.5V82h2.9Z"/><path class="cls-6" d="M6.47,82.51V82h2.9Z"/><path class="cls-9" d="M5.94,82.54l-.28-.28L4.32,83.61Z"/><path class="cls-9" d="M5.38,82l.28.28L4.32,83.61Z"/><path class="cls-9" d="M5.38,82l.26-.26L4.17,80.25Z"/><path class="cls-9" d="M5.9,81.46l-.26.26L4.17,80.25Z"/><path class="cls-9" d="M5.9,81.46l.28.29L7.52,80.4Z"/><path class="cls-9" d="M6.46,82l-.28-.28L7.52,80.4Z"/><path class="cls-9" d="M6.46,82l-.26.25,1.47,1.48Z"/><path class="cls-9" d="M5.94,82.54l.26-.26,1.47,1.48Z"/><rect class="cls-4" x="5.54" y="81.61" width="0.75" height="0.8" transform="translate(-56.24 28.19) rotate(-44.99)"/><path class="cls-2" d="M0,73.79v-1.1H3.41s-.44.56-.86,1.09Z"/><path class="cls-1" d="M0,71.59v1.1H3.41S3,72.13,2.55,71.6Z"/><path class="cls-1" d="M6,74.88V76H2.56s.44-.56.87-1.09Z"/><path class="cls-5" d="M6,70.52v-1.1c-2.09,0-3.41,0-3.42,0h0s.44.56.87,1.09Z"/><path class="cls-1" d="M6,70.51v1.1H2.56s.44-.56.87-1.09Z"/><path class="cls-5" d="M6,72.7V71.61H2.56l.87,1.09Z"/><path class="cls-1" d="M6,72.69v1.1c-2.09,0-3.41,0-3.42,0h0s.44-.56.87-1.09Z"/><path class="cls-5" d="M6,74.88V73.79H2.56l.87,1.09Z"/><path class="cls-2" d="M0,71.61V70.52H3.41s-.44.56-.86,1.09Z"/><path class="cls-1" d="M0,69.42v1.1H3.41S3,70,2.55,69.43Z"/><path class="cls-2" d="M0,76v-1.1H3.41S3,75.44,2.55,76Z"/><path class="cls-1" d="M0,73.79v1.09H3.41s-.44-.56-.86-1.09Z"/><path class="cls-6" d="M6,73.78v-1.1H9.4s-.44.56-.86,1.09Z"/><path class="cls-6" d="M6,71.6V70.51H9.4s-.44.56-.86,1.09Z"/><path class="cls-6" d="M6,76v-1.1H9.4S9,75.43,8.54,76Z"/><path class="cls-3" d="M12,70.51v-1.1c-2.09,0-3.41,0-3.42,0h0S9,70,9.41,70.5Z"/><path class="cls-3" d="M12,72.7V71.6H8.54l.87,1.09Z"/><path class="cls-3" d="M12,74.87V73.78H8.54l.87,1.09Z"/><path class="cls-1" d="M6,71.59v1.09H9.4s-.44-.56-.86-1.09Z"/><path class="cls-1" d="M6,69.41v1.1H9.4S9,70,8.54,69.42Z"/><path class="cls-1" d="M6,73.78v1.09H9.4s-.44-.56-.86-1.09Z"/><path class="cls-1" d="M12,74.87V76H8.54l.87-1.09Z"/><path class="cls-1" d="M12,70.51V71.6H8.54l.87-1.09Z"/><path class="cls-1" d="M12,72.68v1.1H8.54s.44-.56.87-1.09Z"/><path class="cls-2" d="M0,67.23V66.14H3.41l-.87,1.09Z"/><path class="cls-1" d="M0,65v1.1c2.09,0,3.41,0,3.42,0h0S3,65.58,2.54,65Z"/><path class="cls-1" d="M6,68.33v1.09H2.55l.87-1.09Z"/><path class="cls-1" d="M6,64v1.09H2.55L3.42,64Z"/><path class="cls-5" d="M6,66.15v-1.1c-2.08,0-3.41,0-3.42,0h0s.44.57.87,1.1Z"/><path class="cls-1" d="M6,66.14v1.09H2.55l.87-1.09Z"/><path class="cls-5" d="M6,68.33v-1.1H2.55l.87,1.09Z"/><path class="cls-2" d="M0,65.06V64H3.41l-.87,1.09Z"/><path class="cls-2" d="M0,69.42V68.33H3.41l-.87,1.09Z"/><path class="cls-1" d="M0,67.23v1.1c2.09,0,3.41,0,3.42,0h0s-.44-.56-.87-1.09Z"/><path class="cls-6" d="M6,67.22V66.13H9.39s-.44.56-.86,1.09Z"/><path class="cls-6" d="M6,65.05V64H9.39s-.44.56-.86,1.1Z"/><path class="cls-6" d="M6,69.41V68.32H9.39s-.44.56-.86,1.09Z"/><path class="cls-3" d="M12,66.14V65.05H8.54s.44.56.86,1.09Z"/><path class="cls-3" d="M12,68.32v-1.1H8.54s.44.56.86,1.09Z"/><path class="cls-1" d="M6,65v1.1H9.39S9,65.57,8.53,65Z"/><path class="cls-1" d="M6,67.22v1.1H9.39s-.44-.56-.86-1.09Z"/><path class="cls-1" d="M12,68.32v1.1c-2.09,0-3.41,0-3.42,0h0s.44-.56.86-1.1Z"/><path class="cls-1" d="M12,64v1.1H8.54S9,64.49,9.4,64Z"/><path class="cls-1" d="M12,66.13v1.09H8.54s.44-.56.86-1.09Z"/><path class="cls-2" d="M0,33.79v-1.1H3.41s-.44.56-.86,1.09Z"/><path class="cls-1" d="M0,31.6v1.09H3.41S3,32.13,2.55,31.6Z"/><path class="cls-1" d="M6,34.88V36H2.56s.44-.56.87-1.09Z"/><path class="cls-5" d="M6,30.52v-1.1H2.56s.44.56.87,1.1Z"/><path class="cls-1" d="M6,30.52v1.09H2.56s.44-.56.87-1.09Z"/><path class="cls-5" d="M6,32.71v-1.1H2.56s.44.56.87,1.09Z"/><path class="cls-1" d="M6,32.69v1.1H2.56s.44-.56.87-1.09Z"/><path class="cls-5" d="M6,34.88V33.79H2.56s.44.56.87,1.09Z"/><path class="cls-2" d="M0,31.62v-1.1H3.41s-.44.56-.86,1.09Z"/><path class="cls-1" d="M0,29.42v1.1H3.41S3,30,2.55,29.43Z"/><path class="cls-2" d="M0,36v-1.1H3.41S3,35.44,2.55,36Z"/><path class="cls-1" d="M0,33.79v1.09H3.41s-.44-.56-.86-1.09Z"/><path class="cls-6" d="M6,33.78v-1.1H9.4s-.44.56-.86,1.09Z"/><path class="cls-6" d="M6,31.61v-1.1H9.4s-.44.56-.86,1.09Z"/><path class="cls-6" d="M6,36v-1.1c2.09,0,3.41,0,3.42,0h0S9,35.43,8.54,36Z"/><path class="cls-3" d="M12,30.51v-1.1c-2.09,0-3.42,0-3.43,0h0s.44.57.87,1.1Z"/><path class="cls-3" d="M12,32.7V31.6H8.54l.87,1.09Z"/><path class="cls-3" d="M12,34.87V33.78H8.54l.87,1.09Z"/><path class="cls-1" d="M6,31.59v1.09H9.4s-.44-.56-.86-1.09Z"/><path class="cls-1" d="M6,29.41v1.1H9.4S9,30,8.54,29.42Z"/><path class="cls-1" d="M6,33.78v1.09H9.4s-.44-.56-.86-1.09Z"/><path class="cls-1" d="M12,34.88V36H8.54l.87-1.09Z"/><path class="cls-1" d="M12,30.51V31.6H8.54l.87-1.09Z"/><path class="cls-1" d="M12,32.68v1.1H8.54l.87-1.09Z"/><path class="cls-2" d="M0,27.23V26.14H3.4s-.44.56-.86,1.09Z"/><path class="cls-1" d="M0,25v1.1H3.4s-.44-.56-.86-1.09Z"/><path class="cls-1" d="M6,28.33v1.09H2.55s.44-.56.87-1.09Z"/><path class="cls-1" d="M6,24v1.1H2.55S3,24.5,3.42,24Z"/><path class="cls-5" d="M6,26.15V25.06H2.55s.44.56.87,1.09Z"/><path class="cls-1" d="M6,26.14v1.09H2.55s.44-.56.87-1.09Z"/><path class="cls-5" d="M6,28.33v-1.1H2.55s.44.56.87,1.09Z"/><path class="cls-2" d="M0,25.06V24H3.4s-.44.56-.86,1.09Z"/><path class="cls-2" d="M0,29.42V28.33H3.4s-.44.56-.86,1.09Z"/><path class="cls-1" d="M0,27.23v1.1H3.4s-.44-.56-.86-1.09Z"/><path class="cls-6" d="M6,27.22V26.13H9.39s-.44.56-.86,1.09Z"/><path class="cls-6" d="M6,25.05V24H9.39s-.44.56-.86,1.09Z"/><path class="cls-6" d="M6,29.41V28.32H9.39s-.44.56-.86,1.09Z"/><path class="cls-3" d="M12,26.14V25.05H8.53l.87,1.09Z"/><path class="cls-3" d="M12,28.32v-1.1c-2.09,0-3.41,0-3.43,0h0s.44.56.87,1.09Z"/><path class="cls-1" d="M6,25v1.1H9.39S9,25.57,8.53,25Z"/><path class="cls-1" d="M6,27.22v1.1H9.39s-.44-.56-.86-1.09Z"/><path class="cls-1" d="M12,28.32v1.1c-2.09,0-3.41,0-3.43,0h0s.44-.56.87-1.09Z"/><path class="cls-1" d="M12,24v1.1H8.53S9,24.49,9.4,24Z"/><path class="cls-1" d="M12,26.13v1.1c-2.09,0-3.41,0-3.43,0h0s.44-.56.87-1.1Z"/><line class="cls-10" x1="39.02" y1="9.47" x2="38.04" y2="11.54"/><circle class="cls-3" cx="38.03" cy="11.55" r="0.23"/><line class="cls-10" x1="41.03" y1="9.47" x2="42" y2="11.54"/><circle class="cls-3" cx="42.01" cy="11.55" r="0.23"/><line class="cls-10" x1="38.51" y1="2.43" x2="39.35" y2="4.68"/><path class="cls-3" d="M37.71.44l0,1.2.84,1.05,0-1.24Z"/><line class="cls-10" x1="41.54" y1="2.45" x2="40.69" y2="4.7"/><path class="cls-3" d="M42.33.46l0,1.21-.84,1.05,0-1.24Z"/><path class="cls-2" d="M37.47,6.54c0,.16,0,.4.09.67A6.52,6.52,0,0,0,38,8.6c.24.51.2.32.73,1.33.2.4.5.73.7,1.13a.66.66,0,0,0,.32.35.51.51,0,0,0,.22,0V6.53Z"/><path class="cls-2" d="M42.55,6.54a4.3,4.3,0,0,1-.09.67A6.52,6.52,0,0,1,42,8.6c-.23.51-.19.32-.72,1.33-.21.4-.51.73-.7,1.13a.74.74,0,0,1-.33.35.47.47,0,0,1-.22,0V6.53Z"/><path class="cls-2" d="M42.55,6.61a4.15,4.15,0,0,0-.09-.67A6.33,6.33,0,0,0,42,4.55c-.23-.52-.19-.32-.72-1.34-.21-.39-.51-.73-.7-1.12a.7.7,0,0,0-.33-.35A.49.49,0,0,0,40,1.69V6.62Z"/><path class="cls-2" d="M37.47,6.61c0-.17,0-.4.09-.67A6.33,6.33,0,0,1,38,4.55c.24-.52.2-.32.73-1.34,0-.08.17-.26.33-.54l.31-.49a.28.28,0,0,1,.06-.09.79.79,0,0,1,.32-.35A.55.55,0,0,1,40,1.69V6.62Z"/><path class="cls-5" d="M38.88,3l.18-.29.25-.41s.08-.13.18-.28a1.2,1.2,0,0,1,.16-.21.51.51,0,0,1,.23-.13.4.4,0,0,1,.19,0,.58.58,0,0,1,.32.15,1,1,0,0,1,.15.2l.07.15a3.38,3.38,0,0,0,.2.32c.2.3.25.35.35.53l.1.17A1.36,1.36,0,0,1,40.5,4a1.47,1.47,0,0,1-.61,0c-.13,0-.85-.09-1.09-.58a.42.42,0,0,1-.06-.18Z"/><path class="cls-5" d="M41.15,10.14l-.18.28c-.08.12-.16.24-.26.41l-.17.28a1.2,1.2,0,0,1-.16.21.48.48,0,0,1-.23.13.4.4,0,0,1-.19,0,.58.58,0,0,1-.32-.15,1,1,0,0,1-.15-.2L39.42,11l-.2-.31c-.2-.31-.25-.36-.36-.54L38.77,10a1.36,1.36,0,0,1,.76-.75,1.3,1.3,0,0,1,.61,0,1.38,1.38,0,0,1,1.09.57.47.47,0,0,1,.05.16A1.53,1.53,0,0,1,41.15,10.14Z"/><path class="cls-6" d="M38.81,3.11l-.19.38a2.17,2.17,0,0,0,.34.34,1.61,1.61,0,0,0,.58.33,1.45,1.45,0,0,0,.47,0V3.85a1.81,1.81,0,0,1-.34-.1A2.08,2.08,0,0,1,38.81,3.11Z"/><path class="cls-6" d="M41.21,3.11l.2.38a2.17,2.17,0,0,1-.34.34,1.7,1.7,0,0,1-.58.33,1.52,1.52,0,0,1-.48,0V3.85a1.69,1.69,0,0,0,.35-.1A2.11,2.11,0,0,0,41.21,3.11Z"/><path class="cls-6" d="M41.21,10l.2-.38a2.17,2.17,0,0,0-.34-.34A1.7,1.7,0,0,0,40.49,9,1.28,1.28,0,0,0,40,8.92v.36a1.69,1.69,0,0,1,.35.1A2.11,2.11,0,0,1,41.21,10Z"/><path class="cls-6" d="M38.81,10l-.19-.38A2.17,2.17,0,0,1,39,9.3,1.61,1.61,0,0,1,39.54,9,1.22,1.22,0,0,1,40,8.92v.36a1.81,1.81,0,0,0-.34.1A2.08,2.08,0,0,0,38.81,10Z"/><path class="cls-11" d="M42.73,3.42l-2.28-.34"/><rect class="cls-1" x="38.6" y="4.77" width="1.08" height="0.38"/><rect class="cls-1" x="38.6" y="5.57" width="1.08" height="0.38"/><rect class="cls-1" x="38.6" y="6.37" width="1.08" height="0.38"/><rect class="cls-1" x="38.6" y="7.17" width="1.08" height="0.38"/><rect class="cls-1" x="38.6" y="7.97" width="1.08" height="0.38"/><rect class="cls-1" x="40.37" y="4.77" width="1.08" height="0.38"/><rect class="cls-1" x="40.37" y="5.57" width="1.08" height="0.38"/><rect class="cls-1" x="40.37" y="6.37" width="1.08" height="0.38"/><rect class="cls-1" x="40.37" y="7.17" width="1.08" height="0.38"/><rect class="cls-1" x="40.37" y="7.97" width="1.08" height="0.38"/><line class="cls-10" x1="59.01" y1="9.47" x2="58.04" y2="11.54"/><circle class="cls-3" cx="58.03" cy="11.55" r="0.23"/><line class="cls-10" x1="61.03" y1="9.47" x2="62" y2="11.54"/><circle class="cls-3" cx="62.01" cy="11.55" r="0.23"/><line class="cls-10" x1="58.51" y1="2.43" x2="59.35" y2="4.68"/><path class="cls-3" d="M57.71.44l0,1.2.84,1.05,0-1.24Z"/><line class="cls-10" x1="61.54" y1="2.45" x2="60.69" y2="4.7"/><path class="cls-3" d="M62.33.46l0,1.21-.84,1.05,0-1.24Z"/><path class="cls-2" d="M57.47,6.54c0,.16,0,.4.09.67A6.52,6.52,0,0,0,58,8.6c.24.51.2.32.73,1.33.2.4.5.73.7,1.13a.66.66,0,0,0,.32.35.51.51,0,0,0,.22,0V6.53Z"/><path class="cls-2" d="M62.55,6.54a4.3,4.3,0,0,1-.09.67A6.52,6.52,0,0,1,62,8.6c-.23.51-.19.32-.72,1.33-.21.4-.51.73-.7,1.13a.74.74,0,0,1-.33.35.47.47,0,0,1-.22,0V6.53Z"/><path class="cls-2" d="M62.55,6.61a4.15,4.15,0,0,0-.09-.67A6.33,6.33,0,0,0,62,4.55c-.23-.52-.19-.32-.72-1.34-.21-.39-.51-.73-.7-1.12a.7.7,0,0,0-.33-.35A.49.49,0,0,0,60,1.69V6.62Z"/><path class="cls-2" d="M57.47,6.61c0-.17,0-.4.09-.67A6.33,6.33,0,0,1,58,4.55c.24-.52.2-.32.73-1.34,0-.08.16-.26.33-.54l.31-.49a.28.28,0,0,1,.06-.09.79.79,0,0,1,.32-.35A.55.55,0,0,1,60,1.69V6.62Z"/><path class="cls-5" d="M58.88,3l.18-.29.25-.41s.08-.13.18-.28l.15-.21a.64.64,0,0,1,.24-.13.4.4,0,0,1,.19,0,.62.62,0,0,1,.32.15,1,1,0,0,1,.15.2l.07.15a3.38,3.38,0,0,0,.2.32c.2.3.25.35.35.53l.1.17A1.36,1.36,0,0,1,60.5,4a1.47,1.47,0,0,1-.61,0c-.13,0-.85-.09-1.09-.58a.42.42,0,0,1-.06-.18Z"/><path class="cls-5" d="M61.15,10.14l-.18.28c-.08.12-.16.24-.26.41l-.17.28a1.2,1.2,0,0,1-.16.21.48.48,0,0,1-.23.13.42.42,0,0,1-.19,0,.58.58,0,0,1-.32-.15,1,1,0,0,1-.15-.2L59.42,11l-.2-.31c-.2-.31-.25-.36-.36-.54L58.77,10a1.36,1.36,0,0,1,.76-.75,1.3,1.3,0,0,1,.61,0,1.38,1.38,0,0,1,1.09.57.47.47,0,0,1,.05.16A1.53,1.53,0,0,1,61.15,10.14Z"/><path class="cls-6" d="M58.81,3.11l-.19.38a2.17,2.17,0,0,0,.34.34,1.61,1.61,0,0,0,.58.33,1.45,1.45,0,0,0,.47,0V3.85a2.13,2.13,0,0,1-.35-.1A2.11,2.11,0,0,1,58.81,3.11Z"/><path class="cls-6" d="M61.21,3.11l.2.38a2.17,2.17,0,0,1-.34.34,1.7,1.7,0,0,1-.58.33,1.52,1.52,0,0,1-.48,0V3.85a1.69,1.69,0,0,0,.35-.1A2.11,2.11,0,0,0,61.21,3.11Z"/><path class="cls-6" d="M61.21,10l.2-.38a2.17,2.17,0,0,0-.34-.34A1.7,1.7,0,0,0,60.49,9,1.28,1.28,0,0,0,60,8.92v.36a1.69,1.69,0,0,1,.35.1A2.11,2.11,0,0,1,61.21,10Z"/><path class="cls-6" d="M58.81,10l-.19-.38A2.17,2.17,0,0,1,59,9.3,1.61,1.61,0,0,1,59.54,9,1.22,1.22,0,0,1,60,8.92v.36a2.13,2.13,0,0,0-.35.1A2.11,2.11,0,0,0,58.81,10Z"/><path class="cls-11" d="M62.73,3.42l-2.28-.34"/><rect class="cls-1" x="58.6" y="4.77" width="1.08" height="0.38"/><rect class="cls-1" x="58.6" y="5.57" width="1.08" height="0.38"/><rect class="cls-1" x="58.6" y="6.37" width="1.08" height="0.38"/><rect class="cls-1" x="58.6" y="7.17" width="1.08" height="0.38"/><rect class="cls-1" x="58.6" y="7.97" width="1.08" height="0.38"/><rect class="cls-1" x="60.37" y="4.77" width="1.08" height="0.38"/><rect class="cls-1" x="60.37" y="5.57" width="1.08" height="0.38"/><rect class="cls-1" x="60.37" y="6.37" width="1.08" height="0.38"/><rect class="cls-1" x="60.37" y="7.17" width="1.08" height="0.38"/><rect class="cls-1" x="60.37" y="7.97" width="1.08" height="0.38"/><line class="cls-10" x1="61.32" y1="90.44" x2="62.3" y2="88.37"/><circle class="cls-3" cx="62.3" cy="88.36" r="0.23"/><line class="cls-10" x1="59.31" y1="90.44" x2="58.34" y2="88.37"/><circle class="cls-3" cx="58.33" cy="88.36" r="0.23"/><line class="cls-10" x1="61.83" y1="97.47" x2="60.99" y2="95.23"/><path class="cls-3" d="M62.63,99.47l-.06-1.21-.84-1.05,0,1.24Z"/><line class="cls-10" x1="58.8" y1="97.45" x2="59.65" y2="95.2"/><path class="cls-3" d="M58,99.44l.05-1.2.84-1,0,1.23Z"/><path class="cls-2" d="M62.86,93.36a5.48,5.48,0,0,0-.08-.66,6.05,6.05,0,0,0-.49-1.39c-.23-.52-.19-.32-.72-1.34-.2-.39-.5-.73-.7-1.13a.65.65,0,0,0-.33-.35.63.63,0,0,0-.21,0v4.92Z"/><path class="cls-2" d="M57.79,93.36a4.2,4.2,0,0,1,.09-.66,6.33,6.33,0,0,1,.48-1.39c.23-.52.19-.32.72-1.34.2-.39.51-.73.7-1.13a.69.69,0,0,1,.33-.35.64.64,0,0,1,.22,0v4.92Z"/><path class="cls-2" d="M57.79,93.3a4.46,4.46,0,0,0,.09.67,6.52,6.52,0,0,0,.48,1.39c.23.51.19.31.72,1.33.2.39.51.73.7,1.13a.69.69,0,0,0,.33.35.64.64,0,0,0,.22,0V93.29Z"/><path class="cls-2" d="M62.86,93.3a5.85,5.85,0,0,1-.08.67,6.23,6.23,0,0,1-.49,1.39c-.23.51-.19.31-.72,1.33,0,.08-.17.27-.34.54s-.28.45-.3.5l-.06.09c-.1.15-.18.29-.33.35a.63.63,0,0,1-.21,0V93.29Z"/><path class="cls-5" d="M61.46,96.88l-.18.28a4.37,4.37,0,0,0-.25.41,2.88,2.88,0,0,0-.18.28.71.71,0,0,1-.16.21.57.57,0,0,1-.23.14.77.77,0,0,1-.19,0,.58.58,0,0,1-.32-.15,1,1,0,0,1-.15-.2l-.07-.14s-.06-.11-.2-.32-.25-.36-.35-.54a1.19,1.19,0,0,1-.1-.17,1.36,1.36,0,0,1,.76-.75,1.3,1.3,0,0,1,.61,0c.13,0,.85.08,1.09.57a.62.62,0,0,1,.06.18Z"/><path class="cls-5" d="M59.19,89.77l.18-.29.25-.4s.08-.14.18-.29a1.2,1.2,0,0,1,.16-.21.51.51,0,0,1,.23-.13.46.46,0,0,1,.19,0,.59.59,0,0,1,.32.14,1,1,0,0,1,.15.2l.07.15a3.38,3.38,0,0,0,.2.32,5.57,5.57,0,0,1,.35.54c.05.07.08.13.1.16a1.37,1.37,0,0,1-.76.76,1.3,1.3,0,0,1-.61,0c-.13,0-.85-.09-1.09-.58a.47.47,0,0,1,0-.16A1.17,1.17,0,0,1,59.19,89.77Z"/><path class="cls-6" d="M61.53,96.8l.19-.39a2.72,2.72,0,0,0-.34-.33,1.49,1.49,0,0,0-.58-.34,1.28,1.28,0,0,0-.47,0v.35a3.3,3.3,0,0,1,.34.11A2.15,2.15,0,0,1,61.53,96.8Z"/><path class="cls-6" d="M59.12,96.8l-.19-.39a2.72,2.72,0,0,1,.34-.33,1.56,1.56,0,0,1,.58-.34,1.31,1.31,0,0,1,.48,0v.35a2.79,2.79,0,0,0-.35.11A2.15,2.15,0,0,0,59.12,96.8Z"/><path class="cls-6" d="M59.12,89.88l-.19.39a2.72,2.72,0,0,0,.34.33,1.71,1.71,0,0,0,.58.34,1.31,1.31,0,0,0,.48,0v-.36a1.69,1.69,0,0,1-.35-.1A2.15,2.15,0,0,1,59.12,89.88Z"/><path class="cls-6" d="M61.53,89.88l.19.39a2.72,2.72,0,0,1-.34.33,1.62,1.62,0,0,1-.58.34,1.28,1.28,0,0,1-.47,0v-.36a1.81,1.81,0,0,0,.34-.1A2.15,2.15,0,0,0,61.53,89.88Z"/><path class="cls-11" d="M57.61,96.48l2.28.34"/><rect class="cls-1" x="60.65" y="94.75" width="1.08" height="0.38" transform="translate(122.39 189.87) rotate(-180)"/><rect class="cls-1" x="60.65" y="93.95" width="1.08" height="0.38" transform="translate(122.39 188.28) rotate(-180)"/><rect class="cls-1" x="60.65" y="93.15" width="1.08" height="0.38" transform="translate(122.39 186.68) rotate(-180)"/><rect class="cls-1" x="60.65" y="92.35" width="1.08" height="0.38" transform="translate(122.39 185.08) rotate(-180)"/><rect class="cls-1" x="60.65" y="91.55" width="1.08" height="0.38" transform="translate(122.39 183.48) rotate(-180)"/><rect class="cls-1" x="58.89" y="94.75" width="1.08" height="0.38" transform="translate(118.87 189.87) rotate(-180)"/><rect class="cls-1" x="58.89" y="93.95" width="1.08" height="0.38" transform="translate(118.87 188.28) rotate(-180)"/><rect class="cls-1" x="58.89" y="93.15" width="1.08" height="0.38" transform="translate(118.87 186.68) rotate(-180)"/><rect class="cls-1" x="58.89" y="92.35" width="1.08" height="0.38" transform="translate(118.87 185.08) rotate(-180)"/><rect class="cls-1" x="58.89" y="91.55" width="1.08" height="0.38" transform="translate(118.87 183.48) rotate(-180)"/><line class="cls-10" x1="41.32" y1="90.44" x2="42.3" y2="88.37"/><circle class="cls-3" cx="42.3" cy="88.36" r="0.23"/><line class="cls-10" x1="39.31" y1="90.44" x2="38.34" y2="88.37"/><circle class="cls-3" cx="38.33" cy="88.36" r="0.23"/><line class="cls-10" x1="41.83" y1="97.47" x2="40.99" y2="95.23"/><path class="cls-3" d="M42.63,99.47l-.06-1.21-.84-1.05,0,1.24Z"/><line class="cls-10" x1="38.8" y1="97.45" x2="39.65" y2="95.2"/><path class="cls-3" d="M38,99.44l.05-1.2.84-1,0,1.23Z"/><path class="cls-2" d="M42.86,93.36a5.48,5.48,0,0,0-.08-.66,6.33,6.33,0,0,0-.48-1.39c-.24-.52-.2-.32-.73-1.34-.2-.39-.5-.73-.7-1.13a.65.65,0,0,0-.33-.35.63.63,0,0,0-.21,0v4.92Z"/><path class="cls-2" d="M37.79,93.36a4.2,4.2,0,0,1,.09-.66,6.33,6.33,0,0,1,.48-1.39c.23-.52.19-.32.72-1.34.2-.39.51-.73.7-1.13a.69.69,0,0,1,.33-.35.64.64,0,0,1,.22,0v4.92Z"/><path class="cls-2" d="M37.79,93.3a4.46,4.46,0,0,0,.09.67,6.52,6.52,0,0,0,.48,1.39c.23.51.19.31.72,1.33.2.39.51.73.7,1.13a.69.69,0,0,0,.33.35.64.64,0,0,0,.22,0V93.29Z"/><path class="cls-2" d="M42.86,93.3a5.85,5.85,0,0,1-.08.67,6.52,6.52,0,0,1-.48,1.39c-.24.51-.2.31-.73,1.33,0,.08-.17.27-.34.54s-.28.45-.3.5l-.06.09c-.1.15-.18.29-.33.35a.63.63,0,0,1-.21,0V93.29Z"/><path class="cls-5" d="M41.46,96.88l-.18.28a4.37,4.37,0,0,0-.25.41,2.88,2.88,0,0,0-.18.28.71.71,0,0,1-.16.21.57.57,0,0,1-.23.14.77.77,0,0,1-.19,0,.58.58,0,0,1-.32-.15,1,1,0,0,1-.15-.2l-.07-.14s-.06-.11-.2-.32-.25-.36-.35-.54a1.19,1.19,0,0,1-.1-.17,1.36,1.36,0,0,1,.76-.75,1.3,1.3,0,0,1,.61,0c.13,0,.85.08,1.09.57a.62.62,0,0,1,.06.18Z"/><path class="cls-5" d="M39.19,89.77l.18-.29a4.1,4.1,0,0,0,.25-.4s.09-.14.18-.29a1.2,1.2,0,0,1,.16-.21.51.51,0,0,1,.23-.13.46.46,0,0,1,.19,0,.59.59,0,0,1,.32.14,1,1,0,0,1,.15.2l.07.15a3.38,3.38,0,0,0,.2.32,5.57,5.57,0,0,1,.35.54c.05.07.08.13.1.16a1.37,1.37,0,0,1-.76.76,1.3,1.3,0,0,1-.61,0c-.13,0-.85-.09-1.09-.58a.47.47,0,0,1,0-.16A1.17,1.17,0,0,1,39.19,89.77Z"/><path class="cls-6" d="M41.53,96.8l.19-.39a2.72,2.72,0,0,0-.34-.33,1.49,1.49,0,0,0-.58-.34,1.28,1.28,0,0,0-.47,0v.35a3.3,3.3,0,0,1,.34.11A2.08,2.08,0,0,1,41.53,96.8Z"/><path class="cls-6" d="M39.12,96.8l-.19-.39a2.72,2.72,0,0,1,.34-.33,1.56,1.56,0,0,1,.58-.34,1.31,1.31,0,0,1,.48,0v.35a2.79,2.79,0,0,0-.35.11A2.15,2.15,0,0,0,39.12,96.8Z"/><path class="cls-6" d="M39.12,89.88l-.19.39a2.72,2.72,0,0,0,.34.33,1.71,1.71,0,0,0,.58.34,1.31,1.31,0,0,0,.48,0v-.36a1.69,1.69,0,0,1-.35-.1A2.15,2.15,0,0,1,39.12,89.88Z"/><path class="cls-6" d="M41.53,89.88l.19.39a2.72,2.72,0,0,1-.34.33,1.62,1.62,0,0,1-.58.34,1.28,1.28,0,0,1-.47,0v-.36a1.81,1.81,0,0,0,.34-.1A2.08,2.08,0,0,0,41.53,89.88Z"/><path class="cls-11" d="M37.61,96.48l2.28.34"/><rect class="cls-1" x="40.65" y="94.75" width="1.08" height="0.38" transform="translate(82.39 189.87) rotate(-180)"/><rect class="cls-1" x="40.65" y="93.95" width="1.08" height="0.38" transform="translate(82.39 188.28) rotate(-180)"/><rect class="cls-1" x="40.65" y="93.15" width="1.08" height="0.38" transform="translate(82.39 186.68) rotate(-180)"/><rect class="cls-1" x="40.65" y="92.35" width="1.08" height="0.38" transform="translate(82.39 185.08) rotate(-180)"/><rect class="cls-1" x="40.65" y="91.55" width="1.08" height="0.38" transform="translate(82.39 183.48) rotate(-180)"/><rect class="cls-1" x="38.89" y="94.75" width="1.08" height="0.38" transform="translate(78.87 189.87) rotate(-180)"/><rect class="cls-1" x="38.89" y="93.95" width="1.08" height="0.38" transform="translate(78.87 188.28) rotate(-180)"/><rect class="cls-1" x="38.89" y="93.15" width="1.08" height="0.38" transform="translate(78.87 186.68) rotate(-180)"/><rect class="cls-1" x="38.89" y="92.35" width="1.08" height="0.38" transform="translate(78.87 185.08) rotate(-180)"/><rect class="cls-1" x="38.89" y="91.55" width="1.08" height="0.38" transform="translate(78.87 183.48) rotate(-180)"/><line class="cls-10" x1="90.69" y1="38.6" x2="88.63" y2="37.63"/><circle class="cls-3" cx="88.61" cy="37.62" r="0.23"/><line class="cls-10" x1="90.69" y1="40.61" x2="88.63" y2="41.59"/><circle class="cls-3" cx="88.61" cy="41.6" r="0.23"/><line class="cls-10" x1="97.73" y1="38.1" x2="95.49" y2="38.94"/><path class="cls-3" d="M99.73,37.3l-1.21.05-1,.84,1.24,0Z"/><line class="cls-10" x1="97.71" y1="41.13" x2="95.46" y2="40.28"/><path class="cls-3" d="M99.7,41.92l-1.2-.05-1-.84,1.23,0Z"/><path class="cls-2" d="M93.62,37.06c-.16,0-.39,0-.67.09a6.52,6.52,0,0,0-1.39.48c-.51.24-.31.2-1.33.73-.39.2-.73.5-1.13.7a.66.66,0,0,0-.35.32.73.73,0,0,0,0,.22h4.92Z"/><path class="cls-2" d="M93.62,42.14a4.46,4.46,0,0,1-.67-.09,6.52,6.52,0,0,1-1.39-.48c-.51-.23-.31-.19-1.33-.72-.39-.21-.73-.51-1.13-.7a.74.74,0,0,1-.35-.33.64.64,0,0,1,0-.22h4.92Z"/><path class="cls-2" d="M93.56,42.14a4.2,4.2,0,0,0,.66-.09,6.33,6.33,0,0,0,1.39-.48c.52-.23.32-.19,1.34-.72.39-.21.73-.51,1.13-.7a.79.79,0,0,0,.35-.33.64.64,0,0,0,0-.22H93.55Z"/><path class="cls-2" d="M93.56,37.06c.16,0,.39,0,.66.09a6.33,6.33,0,0,1,1.39.48c.52.24.32.2,1.34.73l.54.33L98,39l.09.06a.91.91,0,0,1,.35.32.73.73,0,0,1,0,.22H93.55Z"/><path class="cls-5" d="M97.14,38.47l.28.18.41.25.28.18a1.49,1.49,0,0,1,.21.15.52.52,0,0,1,.13.24.4.4,0,0,1,0,.19.62.62,0,0,1-.15.32,1,1,0,0,1-.2.15L98,40.2a2.69,2.69,0,0,0-.31.2c-.31.2-.36.25-.54.35l-.17.1a1.36,1.36,0,0,1-.75-.76,1.3,1.3,0,0,1,0-.61c0-.13.08-.85.57-1.09a.42.42,0,0,1,.18-.06Z"/><path class="cls-5" d="M90,40.74l-.29-.18-.4-.26-.29-.17a1.2,1.2,0,0,1-.21-.16.58.58,0,0,1-.13-.23.48.48,0,0,1,0-.19.53.53,0,0,1,.14-.32,1,1,0,0,1,.2-.15l.15-.07.32-.2c.3-.2.35-.25.53-.36l.17-.09a1.36,1.36,0,0,1,.75.76,1.31,1.31,0,0,1,.05.61c0,.13-.09.84-.58,1.09a.47.47,0,0,1-.16,0A1.17,1.17,0,0,1,90,40.74Z"/><path class="cls-6" d="M97.06,38.4l-.39-.19a3.58,3.58,0,0,0-.34.34,1.53,1.53,0,0,0-.33.58,1.25,1.25,0,0,0,0,.47h.35a2.28,2.28,0,0,1,.11-.35A2.11,2.11,0,0,1,97.06,38.4Z"/><path class="cls-6" d="M97.06,40.8l-.39.2a3.58,3.58,0,0,1-.34-.34,1.7,1.7,0,0,1-.33-.58,1.31,1.31,0,0,1,0-.48h.35a1.75,1.75,0,0,0,.11.35A2.11,2.11,0,0,0,97.06,40.8Z"/><path class="cls-6" d="M90.14,40.8l.39.2a2.72,2.72,0,0,0,.33-.34,1.71,1.71,0,0,0,.34-.58,1.31,1.31,0,0,0,0-.48h-.36a1.69,1.69,0,0,1-.1.35A2.11,2.11,0,0,1,90.14,40.8Z"/><path class="cls-6" d="M90.14,38.4l.39-.19a2.72,2.72,0,0,1,.33.34,1.54,1.54,0,0,1,.34.58,1.25,1.25,0,0,1,0,.47h-.36a2.13,2.13,0,0,0-.1-.35A2.11,2.11,0,0,0,90.14,38.4Z"/><path class="cls-11" d="M96.74,42.32,97.08,40"/><rect class="cls-1" x="94.66" y="38.54" width="1.08" height="0.38" transform="translate(133.93 -56.46) rotate(90)"/><rect class="cls-1" x="93.86" y="38.54" width="1.08" height="0.38" transform="translate(133.13 -55.66) rotate(90)"/><rect class="cls-1" x="93.06" y="38.54" width="1.08" height="0.38" transform="translate(132.33 -54.86) rotate(90)"/><rect class="cls-1" x="92.26" y="38.54" width="1.08" height="0.38" transform="translate(131.53 -54.06) rotate(90)"/><rect class="cls-1" x="91.46" y="38.54" width="1.08" height="0.38" transform="translate(130.73 -53.26) rotate(90)"/><rect class="cls-1" x="94.66" y="40.3" width="1.08" height="0.38" transform="translate(135.69 -54.7) rotate(90)"/><rect class="cls-1" x="93.86" y="40.3" width="1.08" height="0.38" transform="translate(134.89 -53.9) rotate(90)"/><rect class="cls-1" x="93.06" y="40.3" width="1.08" height="0.38" transform="translate(134.09 -53.1) rotate(90)"/><rect class="cls-1" x="92.26" y="40.3" width="1.08" height="0.38" transform="translate(133.29 -52.3) rotate(90)"/><rect class="cls-1" x="91.46" y="40.3" width="1.08" height="0.38" transform="translate(132.49 -51.5) rotate(90)"/><line class="cls-10" x1="90.69" y1="58.6" x2="88.63" y2="57.63"/><circle class="cls-3" cx="88.61" cy="57.62" r="0.23"/><line class="cls-10" x1="90.69" y1="60.61" x2="88.63" y2="61.59"/><circle class="cls-3" cx="88.61" cy="61.6" r="0.23"/><line class="cls-10" x1="97.73" y1="58.09" x2="95.49" y2="58.94"/><path class="cls-3" d="M99.73,57.3l-1.21.05-1,.84,1.24,0Z"/><line class="cls-10" x1="97.71" y1="61.13" x2="95.46" y2="60.28"/><path class="cls-3" d="M99.7,61.92l-1.2-.05-1-.84,1.23,0Z"/><path class="cls-2" d="M93.62,57.06a6.32,6.32,0,0,0-.67.09,6.52,6.52,0,0,0-1.39.48c-.51.24-.31.2-1.33.73-.39.2-.73.5-1.13.7a.66.66,0,0,0-.35.32.73.73,0,0,0,0,.22h4.92Z"/><path class="cls-2" d="M93.62,62.14a4.46,4.46,0,0,1-.67-.09,6.52,6.52,0,0,1-1.39-.48c-.51-.23-.31-.2-1.33-.72-.39-.21-.73-.51-1.13-.7a.74.74,0,0,1-.35-.33.69.69,0,0,1,0-.22h4.92Z"/><path class="cls-2" d="M93.56,62.14a4.2,4.2,0,0,0,.66-.09,6.33,6.33,0,0,0,1.39-.48c.52-.23.32-.2,1.34-.72.39-.21.73-.51,1.13-.7a.79.79,0,0,0,.35-.33.69.69,0,0,0,0-.22H93.55Z"/><path class="cls-2" d="M93.56,57.06a5.88,5.88,0,0,1,.66.09,6.33,6.33,0,0,1,1.39.48c.52.24.32.2,1.34.73l.54.33L98,59l.09.06a.91.91,0,0,1,.35.32.73.73,0,0,1,0,.22H93.55Z"/><path class="cls-5" d="M97.14,58.47l.28.18.41.25.28.18a1,1,0,0,1,.21.15.52.52,0,0,1,.13.24.4.4,0,0,1,0,.19.62.62,0,0,1-.15.32.72.72,0,0,1-.2.14L98,60.2a1.67,1.67,0,0,0-.31.2c-.31.2-.36.25-.54.35l-.17.1a1.36,1.36,0,0,1-.75-.76,1.3,1.3,0,0,1,0-.61c0-.13.08-.85.57-1.09a.71.71,0,0,1,.18-.07Z"/><path class="cls-5" d="M90,60.74l-.29-.18-.4-.26-.29-.17a1.2,1.2,0,0,1-.21-.16.58.58,0,0,1-.13-.23.48.48,0,0,1,0-.19.53.53,0,0,1,.14-.32,1,1,0,0,1,.2-.15.93.93,0,0,1,.15-.07l.32-.2c.3-.2.35-.25.53-.36l.17-.09a1.36,1.36,0,0,1,.75.76,1.31,1.31,0,0,1,.05.61c0,.13-.09.84-.58,1.09a.47.47,0,0,1-.16,0A2,2,0,0,1,90,60.74Z"/><path class="cls-6" d="M97.06,58.4l-.39-.19a2.68,2.68,0,0,0-.34.34,1.53,1.53,0,0,0-.33.58,1.25,1.25,0,0,0,0,.47h.35a2,2,0,0,1,.11-.35A2.11,2.11,0,0,1,97.06,58.4Z"/><path class="cls-6" d="M97.06,60.8l-.39.2a3.58,3.58,0,0,1-.34-.34,1.7,1.7,0,0,1-.33-.58,1.31,1.31,0,0,1,0-.48h.35a1.75,1.75,0,0,0,.11.35A2.11,2.11,0,0,0,97.06,60.8Z"/><path class="cls-6" d="M90.14,60.8l.39.2a2.72,2.72,0,0,0,.33-.34,1.71,1.71,0,0,0,.34-.58,1.31,1.31,0,0,0,0-.48h-.36a1.69,1.69,0,0,1-.1.35A2.11,2.11,0,0,1,90.14,60.8Z"/><path class="cls-6" d="M90.14,58.4l.39-.19a2.16,2.16,0,0,1,.33.34,1.54,1.54,0,0,1,.34.58,1.25,1.25,0,0,1,0,.47h-.36a1.89,1.89,0,0,0-.1-.35A2.11,2.11,0,0,0,90.14,58.4Z"/><path class="cls-11" d="M96.74,62.32,97.08,60"/><rect class="cls-1" x="94.66" y="58.54" width="1.08" height="0.38" transform="translate(153.93 -36.46) rotate(90)"/><rect class="cls-1" x="93.86" y="58.54" width="1.08" height="0.38" transform="translate(153.13 -35.66) rotate(90)"/><rect class="cls-1" x="93.06" y="58.54" width="1.08" height="0.38" transform="translate(152.33 -34.86) rotate(90)"/><rect class="cls-1" x="92.26" y="58.54" width="1.08" height="0.38" transform="translate(151.53 -34.06) rotate(90)"/><rect class="cls-1" x="91.46" y="58.54" width="1.08" height="0.38" transform="translate(150.73 -33.27) rotate(90)"/><rect class="cls-1" x="94.66" y="60.3" width="1.08" height="0.38" transform="translate(155.69 -34.7) rotate(90)"/><rect class="cls-1" x="93.86" y="60.3" width="1.08" height="0.38" transform="translate(154.89 -33.9) rotate(90)"/><rect class="cls-1" x="93.06" y="60.3" width="1.08" height="0.38" transform="translate(154.09 -33.1) rotate(90)"/><rect class="cls-1" x="92.26" y="60.3" width="1.08" height="0.38" transform="translate(153.29 -32.3) rotate(90)"/><rect class="cls-1" x="91.46" y="60.3" width="1.08" height="0.38" transform="translate(152.49 -31.5) rotate(90)"/><line class="cls-10" x1="9.49" y1="60.85" x2="11.56" y2="61.82"/><circle class="cls-3" cx="11.57" cy="61.83" r="0.23"/><line class="cls-10" x1="9.49" y1="58.84" x2="11.56" y2="57.86"/><circle class="cls-3" cx="11.57" cy="57.85" r="0.23"/><line class="cls-10" x1="2.45" y1="61.35" x2="4.7" y2="60.51"/><path class="cls-3" d="M.46,62.15l1.2,0,1.05-.84-1.24,0Z"/><line class="cls-10" x1="2.47" y1="58.32" x2="4.72" y2="59.17"/><path class="cls-3" d="M.48,57.53l1.21,0,1.05.84-1.24,0Z"/><path class="cls-2" d="M6.56,62.39c.16,0,.4,0,.67-.09a6.52,6.52,0,0,0,1.39-.48c.51-.24.32-.2,1.33-.73.39-.2.73-.5,1.13-.7a.66.66,0,0,0,.35-.32.51.51,0,0,0,0-.22H6.55Z"/><path class="cls-2" d="M6.56,57.31a4.3,4.3,0,0,1,.67.09,6.52,6.52,0,0,1,1.39.48c.51.23.32.19,1.33.72.39.21.73.51,1.13.7a.74.74,0,0,1,.35.33.49.49,0,0,1,0,.22H6.55Z"/><path class="cls-2" d="M6.62,57.31A4.2,4.2,0,0,0,6,57.4a6.33,6.33,0,0,0-1.39.48c-.52.23-.32.19-1.34.72-.39.21-.73.51-1.12.7a.7.7,0,0,0-.35.33.52.52,0,0,0-.05.22H6.64Z"/><path class="cls-2" d="M6.62,62.39c-.16,0-.39,0-.66-.09a6.33,6.33,0,0,1-1.39-.48c-.52-.24-.32-.2-1.34-.73l-.54-.33-.5-.31-.08-.06a.79.79,0,0,1-.35-.32.55.55,0,0,1-.05-.22H6.64Z"/><path class="cls-5" d="M3.05,61l-.29-.18-.41-.25-.28-.18-.21-.15A.64.64,0,0,1,1.73,60a.4.4,0,0,1,0-.19.62.62,0,0,1,.15-.32,1,1,0,0,1,.2-.15l.15-.07a1.94,1.94,0,0,0,.32-.2c.3-.2.35-.25.53-.35l.17-.1a1.36,1.36,0,0,1,.75.76A1.47,1.47,0,0,1,4,60c0,.13-.09.85-.58,1.09a.42.42,0,0,1-.18.06Z"/><path class="cls-5" d="M10.15,58.71l.29.18c.11.08.24.16.41.26l.28.17a1.2,1.2,0,0,1,.21.16.58.58,0,0,1,.13.23.42.42,0,0,1,0,.19.58.58,0,0,1-.15.32,1,1,0,0,1-.2.15l-.15.07-.32.2c-.3.2-.35.25-.53.36l-.17.09a1.36,1.36,0,0,1-.75-.76,1.46,1.46,0,0,1-.05-.61c0-.13.09-.84.58-1.09a.47.47,0,0,1,.16-.05A1.17,1.17,0,0,1,10.15,58.71Z"/><path class="cls-6" d="M3.13,61.05l.38.19a2.17,2.17,0,0,0,.34-.34,1.53,1.53,0,0,0,.33-.58,1.45,1.45,0,0,0,.05-.47H3.87a3.21,3.21,0,0,1-.1.35A2.11,2.11,0,0,1,3.13,61.05Z"/><path class="cls-6" d="M3.13,58.65l.38-.2a2.17,2.17,0,0,1,.34.34,1.7,1.7,0,0,1,.33.58,1.52,1.52,0,0,1,.05.48H3.87a2.68,2.68,0,0,0-.1-.35A2.11,2.11,0,0,0,3.13,58.65Z"/><path class="cls-6" d="M10,58.65l-.38-.2a2.17,2.17,0,0,0-.34.34,1.55,1.55,0,0,0-.33.58,1.28,1.28,0,0,0-.05.48H9.3a1.69,1.69,0,0,1,.1-.35A2.11,2.11,0,0,1,10,58.65Z"/><path class="cls-6" d="M10,61.05l-.38.19a1.8,1.8,0,0,1-.34-.34A1.41,1.41,0,0,1,9,60.32a1.22,1.22,0,0,1-.05-.47H9.3a1.89,1.89,0,0,0,.1.35A2.11,2.11,0,0,0,10,61.05Z"/><path class="cls-11" d="M3.44,57.13,3.1,59.41"/><rect class="cls-1" x="4.45" y="60.52" width="1.08" height="0.38" transform="translate(-55.73 65.7) rotate(-90)"/><rect class="cls-1" x="5.24" y="60.52" width="1.08" height="0.38" transform="translate(-54.93 66.5) rotate(-90)"/><rect class="cls-1" x="6.04" y="60.52" width="1.08" height="0.38" transform="translate(-54.13 67.3) rotate(-90)"/><rect class="cls-1" x="6.84" y="60.52" width="1.08" height="0.38" transform="translate(-53.33 68.1) rotate(-90)"/><rect class="cls-1" x="7.64" y="60.52" width="1.08" height="0.38" transform="translate(-52.53 68.9) rotate(-90)"/><rect class="cls-1" x="4.45" y="58.76" width="1.08" height="0.38" transform="translate(-53.97 63.94) rotate(-90)"/><rect class="cls-1" x="5.24" y="58.76" width="1.08" height="0.38" transform="translate(-53.17 64.74) rotate(-90)"/><rect class="cls-1" x="6.04" y="58.76" width="1.08" height="0.38" transform="translate(-52.37 65.54) rotate(-90)"/><rect class="cls-1" x="6.84" y="58.76" width="1.08" height="0.38" transform="translate(-51.57 66.34) rotate(-90)"/><rect class="cls-1" x="7.64" y="58.76" width="1.08" height="0.38" transform="translate(-50.77 67.14) rotate(-90)"/><line class="cls-10" x1="9.49" y1="40.85" x2="11.56" y2="41.82"/><circle class="cls-3" cx="11.57" cy="41.83" r="0.23"/><line class="cls-10" x1="9.49" y1="38.84" x2="11.56" y2="37.86"/><circle class="cls-3" cx="11.57" cy="37.85" r="0.23"/><line class="cls-10" x1="2.45" y1="41.36" x2="4.7" y2="40.51"/><path class="cls-3" d="M.46,42.15l1.2,0,1.05-.84-1.24,0Z"/><line class="cls-10" x1="2.47" y1="38.32" x2="4.72" y2="39.17"/><path class="cls-3" d="M.48,37.53l1.21,0,1.05.84-1.24,0Z"/><path class="cls-2" d="M6.56,42.39a6,6,0,0,0,.67-.09,6.52,6.52,0,0,0,1.39-.48c.51-.24.32-.2,1.33-.73.39-.2.73-.5,1.13-.7a.66.66,0,0,0,.35-.32.51.51,0,0,0,0-.22H6.55Z"/><path class="cls-2" d="M6.56,37.31a4.3,4.3,0,0,1,.67.09,6.52,6.52,0,0,1,1.39.48c.51.23.32.2,1.33.72.39.21.73.51,1.13.7a.74.74,0,0,1,.35.33.49.49,0,0,1,0,.22H6.55Z"/><path class="cls-2" d="M6.62,37.31A4.2,4.2,0,0,0,6,37.4a6.33,6.33,0,0,0-1.39.48c-.52.23-.32.2-1.34.72-.39.21-.73.51-1.12.7a.7.7,0,0,0-.35.33.52.52,0,0,0-.05.22H6.64Z"/><path class="cls-2" d="M6.62,42.39A5.88,5.88,0,0,1,6,42.3a6.33,6.33,0,0,1-1.39-.48c-.52-.24-.32-.2-1.34-.73l-.54-.33-.5-.31-.08-.06a.79.79,0,0,1-.35-.32.55.55,0,0,1-.05-.22H6.64Z"/><path class="cls-5" d="M3.05,41l-.29-.18-.41-.25-.28-.18a1.3,1.3,0,0,1-.21-.15A.64.64,0,0,1,1.73,40a.4.4,0,0,1,0-.19.62.62,0,0,1,.15-.32.72.72,0,0,1,.2-.14l.15-.08a1.94,1.94,0,0,0,.32-.2c.3-.2.35-.25.53-.35l.17-.1a1.36,1.36,0,0,1,.75.76A1.47,1.47,0,0,1,4,40c0,.13-.09.85-.58,1.09a.71.71,0,0,1-.18.07Z"/><path class="cls-5" d="M10.15,38.71l.29.18c.11.08.24.16.41.26l.28.17a1.2,1.2,0,0,1,.21.16.58.58,0,0,1,.13.23.42.42,0,0,1,0,.19.58.58,0,0,1-.15.32,1,1,0,0,1-.2.15.66.66,0,0,1-.15.07l-.32.2c-.3.2-.35.25-.53.36l-.17.09a1.36,1.36,0,0,1-.75-.76,1.46,1.46,0,0,1-.05-.61c0-.13.09-.84.58-1.09a.47.47,0,0,1,.16-.05A2,2,0,0,1,10.15,38.71Z"/><path class="cls-6" d="M3.13,41.05l.38.19a1.8,1.8,0,0,0,.34-.34,1.53,1.53,0,0,0,.33-.58,1.45,1.45,0,0,0,.05-.47H3.87a3.21,3.21,0,0,1-.1.35A2.11,2.11,0,0,1,3.13,41.05Z"/><path class="cls-6" d="M3.13,38.65l.38-.2a2.17,2.17,0,0,1,.34.34,1.7,1.7,0,0,1,.33.58,1.52,1.52,0,0,1,.05.48H3.87a2.68,2.68,0,0,0-.1-.35A2.11,2.11,0,0,0,3.13,38.65Z"/><path class="cls-6" d="M10,38.65l-.38-.2a2.17,2.17,0,0,0-.34.34,1.55,1.55,0,0,0-.33.58,1.28,1.28,0,0,0-.05.48H9.3a1.69,1.69,0,0,1,.1-.35A2.11,2.11,0,0,1,10,38.65Z"/><path class="cls-6" d="M10,41.05l-.38.19a1.8,1.8,0,0,1-.34-.34A1.41,1.41,0,0,1,9,40.32a1.22,1.22,0,0,1-.05-.47H9.3a1.89,1.89,0,0,0,.1.35A2.11,2.11,0,0,0,10,41.05Z"/><path class="cls-11" d="M3.44,37.13,3.1,39.41"/><rect class="cls-1" x="4.45" y="40.52" width="1.08" height="0.38" transform="translate(-35.73 45.7) rotate(-90)"/><rect class="cls-1" x="5.24" y="40.52" width="1.08" height="0.38" transform="translate(-34.93 46.5) rotate(-90)"/><rect class="cls-1" x="6.04" y="40.52" width="1.08" height="0.38" transform="translate(-34.13 47.3) rotate(-90)"/><rect class="cls-1" x="6.84" y="40.52" width="1.08" height="0.38" transform="translate(-33.33 48.1) rotate(-90)"/><rect class="cls-1" x="7.64" y="40.52" width="1.08" height="0.38" transform="translate(-32.53 48.9) rotate(-90)"/><rect class="cls-1" x="4.45" y="38.76" width="1.08" height="0.38" transform="translate(-33.97 43.94) rotate(-90)"/><rect class="cls-1" x="5.24" y="38.76" width="1.08" height="0.38" transform="translate(-33.17 44.74) rotate(-90)"/><rect class="cls-1" x="6.04" y="38.76" width="1.08" height="0.38" transform="translate(-32.37 45.54) rotate(-90)"/><rect class="cls-1" x="6.84" y="38.76" width="1.08" height="0.38" transform="translate(-31.57 46.34) rotate(-90)"/><rect class="cls-1" x="7.64" y="38.76" width="1.08" height="0.38" transform="translate(-30.77 47.14) rotate(-90)"/><rect class="cls-2" x="87.96" y="88" width="12.02" height="3.96"/><rect class="cls-3" x="87.95" y="96.04" width="12.02" height="3.96"/><path class="cls-4" d="M91.13,98.32,88,100V88l3.6,1.59s1.51,4.1,1.62,4.29C93.2,93.91,91.13,98.29,91.13,98.32Z"/><polygon class="cls-5" points="87.96 89.74 87.96 88 90.52 88 96.02 92.42 99.96 92.42 99.96 95.63 96.14 95.63 90.52 100 87.96 100 87.96 98.06 93.07 94 87.96 89.74"/><polygon class="cls-6" points="87.96 90.44 87.96 89.43 93.71 94 87.96 98.54 87.96 97.56 92.45 94 87.96 90.44"/><polygon class="cls-1" points="89.83 88 91.02 88 96.02 91.99 99.96 91.99 99.96 92.79 95.81 92.79 89.83 88"/><polygon class="cls-1" points="89.83 100 91.02 100 96.02 96.01 99.96 96.01 99.96 95.21 95.81 95.21 89.83 100"/><rect class="cls-2" y="43.88" width="12" height="12"/><path class="cls-1" d="M2.26,55.3H8.14a4,4,0,0,0-1.68-1.22,3.69,3.69,0,0,0-1.36-.33A3.51,3.51,0,0,0,2.26,55.3Z"/><path class="cls-3" d="M.87,51.18v3.69a3.53,3.53,0,0,0,1.49-1,1.61,1.61,0,0,0,.4-.86C2.79,52.28,2,51.59.87,51.18Z"/><path class="cls-1" d="M2.26,44.62H8.14a4,4,0,0,1-1.68,1.22,3.69,3.69,0,0,1-1.36.33A3.48,3.48,0,0,1,2.26,44.62Z"/><path class="cls-3" d="M.87,48.74V45.05A3.53,3.53,0,0,1,2.36,46.1a1.61,1.61,0,0,1,.4.86C2.79,47.64,2,48.33.87,48.74Z"/><polyline class="cls-7" points="11 55.15 1.17 49.96 11 44.81"/><polyline class="cls-8" points="11 53.03 5.2 49.98 11 47"/><ellipse class="cls-4" cx="10.1" cy="49.95" rx="0.5" ry="0.47"/></g></svg>