<svg id="Laag_1" data-name="Laag 1" xmlns="http://www.w3.org/2000/svg" viewBox="0 0 566.93 566.93"><defs><style>.cls-1,.cls-7{fill:#fff;}.cls-2,.cls-5{fill:#002f63;}.cls-2,.cls-3{fill-rule:evenodd;}.cls-3,.cls-4{fill:#b2002b;}.cls-6{fill:none;stroke:#000;stroke-width:0.08px;}.cls-7{stroke:#fff;stroke-width:0.72px;}</style></defs><rect class="cls-1" width="566.93" height="566.93"/><rect y="68.03" width="68.03" height="68.03"/><path class="cls-2" d="M12.25,102.05a20.41,20.41,0,0,0,20.41,20.41V81.64A20.41,20.41,0,0,0,12.25,102.05Z" transform="translate(0 0)"/><path class="cls-3" d="M55.79,102.05A20.41,20.41,0,0,0,35.38,81.64v40.82A20.41,20.41,0,0,0,55.79,102.05Z" transform="translate(0 0)"/><rect x="430.87" width="68.03" height="68.03"/><path class="cls-2" d="M464.89,55.79A20.41,20.41,0,0,0,485.3,35.38H444.48A20.41,20.41,0,0,0,464.89,55.79Z" transform="translate(0 0)"/><path class="cls-3" d="M464.88,12.25a20.4,20.4,0,0,0-20.4,20.41h40.81A20.4,20.4,0,0,0,464.88,12.25Z" transform="translate(0 0)"/><rect x="498.9" y="430.87" width="68.03" height="68.03"/><path class="cls-2" d="M511.15,464.88a20.4,20.4,0,0,0,20.41,20.41V444.47A20.41,20.41,0,0,0,511.15,464.88Z" transform="translate(0 0)"/><path class="cls-3" d="M554.69,464.88a20.41,20.41,0,0,0-20.41-20.41v40.82A20.41,20.41,0,0,0,554.69,464.88Z" transform="translate(0 0)"/><rect x="68.03" y="498.9" width="68.03" height="68.03"/><path class="cls-2" d="M102.05,554.69a20.41,20.41,0,0,0,20.41-20.41H81.64A20.41,20.41,0,0,0,102.05,554.69Z" transform="translate(0 0)"/><path class="cls-3" d="M102.05,511.14a20.41,20.41,0,0,0-20.41,20.41h40.82A20.41,20.41,0,0,0,102.05,511.14Z" transform="translate(0 0)"/><rect class="cls-1" x="136.06" width="68.03" height="68.03"/><path class="cls-4" d="M191.85,34a21.77,21.77,0,0,0-42.45-6.81c.27,8.85,12.52,17,21.36,4.77,4.61-6.39,18.37-5.45,18.37,12.59A21.76,21.76,0,0,0,191.85,34Z" transform="translate(0 0)"/><path class="cls-5" d="M148.31,34a21.77,21.77,0,0,0,40.82,10.55c0-18-13.76-19-18.37-12.59-8.84,12.24-21.09,4.08-21.36-4.77A21.59,21.59,0,0,0,148.31,34Z" transform="translate(0 0)"/><rect class="cls-1" x="498.9" y="136.06" width="68.03" height="68.03"/><path class="cls-4" d="M554.69,170.08a21.78,21.78,0,0,0-42.46-6.8c.28,8.84,12.52,17,21.37,4.76,4.61-6.38,18.37-5.44,18.37,12.59A21.73,21.73,0,0,0,554.69,170.08Z" transform="translate(0 0)"/><path class="cls-5" d="M511.15,170.08A21.77,21.77,0,0,0,552,180.63c0-18-13.76-19-18.37-12.59-8.85,12.24-21.09,4.08-21.37-4.76A21.81,21.81,0,0,0,511.15,170.08Z" transform="translate(0 0)"/><rect class="cls-1" x="362.83" y="498.9" width="68.03" height="68.03"/><path class="cls-4" d="M418.62,532.91a21.77,21.77,0,0,0-42.45-6.8c.27,8.84,12.52,17,21.36,4.76,4.61-6.38,18.37-5.44,18.37,12.59A21.59,21.59,0,0,0,418.62,532.91Z" transform="translate(0 0)"/><path class="cls-5" d="M375.08,532.91a21.77,21.77,0,0,0,40.82,10.55c0-18-13.76-19-18.37-12.59-8.84,12.25-21.09,4.08-21.36-4.76A21.57,21.57,0,0,0,375.08,532.91Z" transform="translate(0 0)"/><rect class="cls-1" y="362.84" width="68.03" height="68.03"/><path class="cls-4" d="M55.79,396.85a21.78,21.78,0,0,0-42.46-6.8c.28,8.84,12.53,17,21.37,4.76,4.61-6.38,18.37-5.44,18.37,12.59A21.73,21.73,0,0,0,55.79,396.85Z" transform="translate(0 0)"/><path class="cls-5" d="M12.25,396.85A21.77,21.77,0,0,0,53.07,407.4c0-18-13.76-19-18.37-12.59-8.84,12.25-21.09,4.08-21.37-4.76A21.86,21.86,0,0,0,12.25,396.85Z" transform="translate(0 0)"/><rect class="cls-1" width="68.03" height="68.03"/><path class="cls-4" d="M47.72,33.15a13.54,13.54,0,0,0-26.4-4.23c.17,5.5,7.78,10.58,13.28,3C37.47,27.91,46,28.5,46,39.71A13.56,13.56,0,0,0,47.72,33.15Z" transform="translate(0 0)"/><path class="cls-5" d="M20.64,33.15A13.54,13.54,0,0,0,46,39.71c0-11.21-8.56-11.8-11.43-7.83-5.5,7.62-13.11,2.54-13.28-3A13.44,13.44,0,0,0,20.64,33.15Z" transform="translate(0 0)"/><path d="M14.92,12l-1.8-1.12L5.45,22.39l1.8,1.13Z" transform="translate(0 0)"/><path d="M17.86,14.05l-1.81-1.36L8.38,24.2l1.8,1.35Z" transform="translate(0 0)"/><path d="M13.12,27.58l7.67-11.5-1.7-1.33L11.31,26.23Z" transform="translate(0 0)"/><path class="cls-6" d="M14.92,12l-1.8-1.12L5.45,22.39l1.8,1.13Z" transform="translate(0 0)"/><path class="cls-6" d="M17.86,14.05l-1.81-1.36L8.38,24.2l1.8,1.35Z" transform="translate(0 0)"/><path class="cls-6" d="M13.12,27.58l7.67-11.5-1.7-1.33L11.31,26.23Z" transform="translate(0 0)"/><path d="M13.12,38.87l-2,1.35L19,51.73l1.81-1.13Z" transform="translate(0 0)"/><path d="M10.18,40.9l-2,1.35,3.61,5.19,1.81-1.35Z" transform="translate(0 0)"/><path d="M14.25,47.21l-1.81,1.36,3.38,5.19,2-1.36Z" transform="translate(0 0)"/><path d="M7.25,42.93l-1.8,1.35,7.67,11.51,1.8-1.36Z" transform="translate(0 0)"/><path class="cls-6" d="M13.12,38.87l-2,1.35L19,51.73l1.81-1.13Z" transform="translate(0 0)"/><path class="cls-6" d="M10.18,40.9l-2,1.35,3.61,5.19,1.81-1.35Z" transform="translate(0 0)"/><path class="cls-6" d="M14.25,47.21l-1.81,1.36,3.38,5.19,2-1.36Z" transform="translate(0 0)"/><path class="cls-6" d="M7.25,42.93l-1.8,1.35,7.67,11.51,1.8-1.36Z" transform="translate(0 0)"/><path d="M57.12,40.45l-1.81-1.36-3.38,5.19,1.8,1.13Z" transform="translate(0 0)"/><path d="M53.05,46.54l-1.8-1.13L47.86,50.6l1.81,1.13Z" transform="translate(0 0)"/><path d="M58.24,40.9l-3.38,5.19,1.8,1.35,3.39-5.19Z" transform="translate(0 0)"/><path d="M56,48.57l-1.81-1.36L50.57,52.4l1.81,1.36Z" transform="translate(0 0)"/><path d="M61.18,42.93l-3.39,5.19,1.81,1.35L63,44.28Z" transform="translate(0 0)"/><path d="M58.69,50.6l-1.8-1.35-3.38,5.18,1.8,1.13Z" transform="translate(0 0)"/><path class="cls-6" d="M57.12,40.45l-1.81-1.36-3.38,5.19,1.8,1.13Z" transform="translate(0 0)"/><path class="cls-6" d="M53.05,46.54l-1.8-1.13L47.86,50.6l1.81,1.13Z" transform="translate(0 0)"/><path class="cls-6" d="M58.24,40.9l-3.38,5.19,1.8,1.35,3.39-5.19Z" transform="translate(0 0)"/><path class="cls-6" d="M56,48.57l-1.81-1.36L50.57,52.4l1.81,1.36Z" transform="translate(0 0)"/><path class="cls-6" d="M61.18,42.93l-3.39,5.19,1.81,1.35L63,44.28Z" transform="translate(0 0)"/><path class="cls-6" d="M58.69,50.6l-1.8-1.35-3.38,5.18,1.8,1.13Z" transform="translate(0 0)"/><path d="M49.67,14.72l-2,1.13L51.25,21l1.8-1.13Z" transform="translate(0 0)"/><path d="M52.38,12.69l-1.81,1.36,7.67,11.5,1.81-1.35Z" transform="translate(0 0)"/><path d="M53.73,21l-1.8,1.13,3.61,5.19,1.8-1.13Z" transform="translate(0 0)"/><path d="M55.54,10.89,53.73,12l3.39,5.19,1.8-1.35Z" transform="translate(0 0)"/><path d="M59.6,17.2l-1.81,1.13,3.39,5.19L63,22.39Z" transform="translate(0 0)"/><path class="cls-6" d="M49.67,14.72l-2,1.13L51.25,21l1.8-1.13Z" transform="translate(0 0)"/><path class="cls-6" d="M52.38,12.69l-1.81,1.36,7.67,11.5,1.81-1.35Z" transform="translate(0 0)"/><path class="cls-6" d="M53.73,21l-1.8,1.13,3.61,5.19,1.8-1.13Z" transform="translate(0 0)"/><path class="cls-6" d="M55.54,10.89,53.73,12l3.39,5.19,1.8-1.35Z" transform="translate(0 0)"/><path class="cls-6" d="M59.6,17.2l-1.81,1.13,3.39,5.19L63,22.39Z" transform="translate(0 0)"/><rect class="cls-1" y="498.9" width="68.03" height="68.03"/><path class="cls-4" d="M47.72,532.05a13.54,13.54,0,0,0-26.4-4.23c.17,5.5,7.78,10.57,13.28,3,2.87-4,11.43-3.39,11.43,7.83A13.59,13.59,0,0,0,47.72,532.05Z" transform="translate(0 0)"/><path class="cls-5" d="M20.64,532.05A13.54,13.54,0,0,0,46,538.61c0-11.22-8.56-11.8-11.43-7.83-5.5,7.61-13.11,2.54-13.28-3A13.44,13.44,0,0,0,20.64,532.05Z" transform="translate(0 0)"/><path d="M14.92,510.91l-1.8-1.13L5.45,521.29l1.8,1.13Z" transform="translate(0 0)"/><path d="M17.86,512.94l-1.81-1.35L8.38,523.1l1.8,1.35Z" transform="translate(0 0)"/><path d="M13.12,526.48,20.79,515l-1.7-1.32-7.78,11.48Z" transform="translate(0 0)"/><path class="cls-6" d="M14.92,510.91l-1.8-1.13L5.45,521.29l1.8,1.13Z" transform="translate(0 0)"/><path class="cls-6" d="M17.86,512.94l-1.81-1.35L8.38,523.1l1.8,1.35Z" transform="translate(0 0)"/><path class="cls-6" d="M13.12,526.48,20.79,515l-1.7-1.32-7.78,11.48Z" transform="translate(0 0)"/><path d="M13.12,537.76l-2,1.36L19,550.62l1.81-1.12Z" transform="translate(0 0)"/><path d="M10.18,539.79l-2,1.36,3.61,5.19L13.57,545Z" transform="translate(0 0)"/><path d="M14.25,546.11l-1.81,1.36,3.38,5.18,2-1.35Z" transform="translate(0 0)"/><path d="M7.25,541.82l-1.8,1.36,7.67,11.51,1.8-1.36Z" transform="translate(0 0)"/><path class="cls-6" d="M13.12,537.76l-2,1.36L19,550.62l1.81-1.12Z" transform="translate(0 0)"/><path class="cls-6" d="M10.18,539.79l-2,1.36,3.61,5.19L13.57,545Z" transform="translate(0 0)"/><path class="cls-6" d="M14.25,546.11l-1.81,1.36,3.38,5.18,2-1.35Z" transform="translate(0 0)"/><path class="cls-6" d="M7.25,541.82l-1.8,1.36,7.67,11.51,1.8-1.36Z" transform="translate(0 0)"/><path d="M57.12,539.34,55.31,538l-3.38,5.19,1.8,1.13Z" transform="translate(0 0)"/><path d="M53.05,545.43l-1.8-1.12-3.39,5.19,1.81,1.12Z" transform="translate(0 0)"/><path d="M58.24,539.79,54.86,545l1.8,1.36,3.39-5.19Z" transform="translate(0 0)"/><path d="M56,547.47l-1.81-1.36-3.61,5.19,1.81,1.35Z" transform="translate(0 0)"/><path d="M61.18,541.82,57.79,547l1.81,1.36L63,543.18Z" transform="translate(0 0)"/><path d="M58.69,549.5l-1.8-1.36-3.38,5.19,1.8,1.13Z" transform="translate(0 0)"/><path class="cls-6" d="M57.12,539.34,55.31,538l-3.38,5.19,1.8,1.13Z" transform="translate(0 0)"/><path class="cls-6" d="M53.05,545.43l-1.8-1.12-3.39,5.19,1.81,1.12Z" transform="translate(0 0)"/><path class="cls-6" d="M58.24,539.79,54.86,545l1.8,1.36,3.39-5.19Z" transform="translate(0 0)"/><path class="cls-6" d="M56,547.47l-1.81-1.36-3.61,5.19,1.81,1.35Z" transform="translate(0 0)"/><path class="cls-6" d="M61.18,541.82,57.79,547l1.81,1.36L63,543.18Z" transform="translate(0 0)"/><path class="cls-6" d="M58.69,549.5l-1.8-1.36-3.38,5.19,1.8,1.13Z" transform="translate(0 0)"/><path d="M49.67,513.62l-2,1.13,3.61,5.19,1.8-1.13Z" transform="translate(0 0)"/><path d="M52.38,511.59l-1.81,1.35,7.67,11.51,1.81-1.35Z" transform="translate(0 0)"/><path d="M53.73,519.94l-1.8,1.13,3.61,5.18,1.8-1.12Z" transform="translate(0 0)"/><path d="M55.54,509.78l-1.81,1.13,3.39,5.19,1.8-1.35Z" transform="translate(0 0)"/><path d="M59.6,516.1l-1.81,1.13,3.39,5.19,1.8-1.13Z" transform="translate(0 0)"/><path class="cls-6" d="M49.67,513.62l-2,1.13,3.61,5.19,1.8-1.13Z" transform="translate(0 0)"/><path class="cls-6" d="M52.38,511.59l-1.81,1.35,7.67,11.51,1.81-1.35Z" transform="translate(0 0)"/><path class="cls-6" d="M53.73,519.94l-1.8,1.13,3.61,5.18,1.8-1.12Z" transform="translate(0 0)"/><path class="cls-6" d="M55.54,509.78l-1.81,1.13,3.39,5.19,1.8-1.35Z" transform="translate(0 0)"/><path class="cls-6" d="M59.6,516.1l-1.81,1.13,3.39,5.19,1.8-1.13Z" transform="translate(0 0)"/><rect class="cls-1" x="498.9" width="68.03" height="68.03"/><path class="cls-4" d="M546.61,33.15a13.54,13.54,0,0,0-26.4-4.23c.18,5.5,7.79,10.58,13.29,3,2.87-4,11.42-3.38,11.42,7.83A13.45,13.45,0,0,0,546.61,33.15Z" transform="translate(0 0)"/><path class="cls-5" d="M519.54,33.15a13.54,13.54,0,0,0,25.38,6.56c0-11.21-8.55-11.8-11.42-7.83-5.5,7.62-13.11,2.54-13.29-3A13.72,13.72,0,0,0,519.54,33.15Z" transform="translate(0 0)"/><path d="M513.82,12,512,10.89l-7.68,11.5,1.81,1.13Z" transform="translate(0 0)"/><path d="M516.75,14.05,515,12.69,507.28,24.2l1.8,1.35Z" transform="translate(0 0)"/><path d="M512,27.58l7.67-11.5L518,14.75l-7.77,11.48Z" transform="translate(0 0)"/><path class="cls-6" d="M513.82,12,512,10.89l-7.68,11.5,1.81,1.13Z" transform="translate(0 0)"/><path class="cls-6" d="M516.75,14.05,515,12.69,507.28,24.2l1.8,1.35Z" transform="translate(0 0)"/><path class="cls-6" d="M512,27.58l7.67-11.5L518,14.75l-7.77,11.48Z" transform="translate(0 0)"/><path d="M512,38.87l-2,1.35,7.9,11.51,1.81-1.13Z" transform="translate(0 0)"/><path d="M509.08,40.9l-2,1.35,3.61,5.19,1.81-1.35Z" transform="translate(0 0)"/><path d="M513.14,47.21l-1.8,1.36,3.38,5.19,2-1.36Z" transform="translate(0 0)"/><path d="M506.15,42.93l-1.81,1.35L512,55.79l1.8-1.36Z" transform="translate(0 0)"/><path class="cls-6" d="M512,38.87l-2,1.35,7.9,11.51,1.81-1.13Z" transform="translate(0 0)"/><path class="cls-6" d="M509.08,40.9l-2,1.35,3.61,5.19,1.81-1.35Z" transform="translate(0 0)"/><path class="cls-6" d="M513.14,47.21l-1.8,1.36,3.38,5.19,2-1.36Z" transform="translate(0 0)"/><path class="cls-6" d="M506.15,42.93l-1.81,1.35L512,55.79l1.8-1.36Z" transform="translate(0 0)"/><path d="M556,40.45l-1.8-1.36-3.39,5.19,1.81,1.13Z" transform="translate(0 0)"/><path d="M552,46.54l-1.8-1.13-3.39,5.19,1.81,1.13Z" transform="translate(0 0)"/><path d="M557.14,40.9l-3.38,5.19,1.8,1.35L559,42.25Z" transform="translate(0 0)"/><path d="M554.88,48.57l-1.8-1.36-3.61,5.19,1.8,1.36Z" transform="translate(0 0)"/><path d="M560.07,42.93l-3.38,5.19,1.8,1.35,3.39-5.19Z" transform="translate(0 0)"/><path d="M557.59,50.6l-1.8-1.35-3.39,5.18,1.81,1.13Z" transform="translate(0 0)"/><path class="cls-6" d="M556,40.45l-1.8-1.36-3.39,5.19,1.81,1.13Z" transform="translate(0 0)"/><path class="cls-6" d="M552,46.54l-1.8-1.13-3.39,5.19,1.81,1.13Z" transform="translate(0 0)"/><path class="cls-6" d="M557.14,40.9l-3.38,5.19,1.8,1.35L559,42.25Z" transform="translate(0 0)"/><path class="cls-6" d="M554.88,48.57l-1.8-1.36-3.61,5.19,1.8,1.36Z" transform="translate(0 0)"/><path class="cls-6" d="M560.07,42.93l-3.38,5.19,1.8,1.35,3.39-5.19Z" transform="translate(0 0)"/><path class="cls-6" d="M557.59,50.6l-1.8-1.35-3.39,5.18,1.81,1.13Z" transform="translate(0 0)"/><path d="M548.57,14.72l-2,1.13L550.15,21l1.8-1.13Z" transform="translate(0 0)"/><path d="M551.27,12.69l-1.8,1.36,7.67,11.5L559,24.2Z" transform="translate(0 0)"/><path d="M552.63,21l-1.81,1.13,3.61,5.19,1.81-1.13Z" transform="translate(0 0)"/><path d="M554.43,10.89,552.63,12,556,17.2l1.81-1.35Z" transform="translate(0 0)"/><path d="M558.49,17.2l-1.8,1.13,3.38,5.19,1.81-1.13Z" transform="translate(0 0)"/><path class="cls-6" d="M548.57,14.72l-2,1.13L550.15,21l1.8-1.13Z" transform="translate(0 0)"/><path class="cls-6" d="M551.27,12.69l-1.8,1.36,7.67,11.5L559,24.2Z" transform="translate(0 0)"/><path class="cls-6" d="M552.63,21l-1.81,1.13,3.61,5.19,1.81-1.13Z" transform="translate(0 0)"/><path class="cls-6" d="M554.43,10.89,552.63,12,556,17.2l1.81-1.35Z" transform="translate(0 0)"/><path class="cls-6" d="M558.49,17.2l-1.8,1.13,3.38,5.19,1.81-1.13Z" transform="translate(0 0)"/><rect class="cls-1" x="498.9" y="498.9" width="68.03" height="68.03"/><path class="cls-4" d="M546.61,532.05a13.54,13.54,0,0,0-26.4-4.23c.18,5.5,7.79,10.57,13.29,3,2.87-4,11.42-3.39,11.42,7.83A13.48,13.48,0,0,0,546.61,532.05Z" transform="translate(0 0)"/><path class="cls-5" d="M519.54,532.05a13.54,13.54,0,0,0,25.38,6.56c0-11.22-8.55-11.8-11.42-7.83-5.5,7.61-13.11,2.54-13.29-3A13.72,13.72,0,0,0,519.54,532.05Z" transform="translate(0 0)"/><path d="M513.82,510.91l-1.8-1.13-7.68,11.51,1.81,1.13Z" transform="translate(0 0)"/><path d="M516.75,512.94l-1.8-1.35-7.67,11.51,1.8,1.35Z" transform="translate(0 0)"/><path d="M512,526.48,519.69,515,518,513.65l-7.77,11.48Z" transform="translate(0 0)"/><path class="cls-6" d="M513.82,510.91l-1.8-1.13-7.68,11.51,1.81,1.13Z" transform="translate(0 0)"/><path class="cls-6" d="M516.75,512.94l-1.8-1.35-7.67,11.51,1.8,1.35Z" transform="translate(0 0)"/><path class="cls-6" d="M512,526.48,519.69,515,518,513.65l-7.77,11.48Z" transform="translate(0 0)"/><path d="M512,537.76l-2,1.36,7.9,11.5,1.81-1.12Z" transform="translate(0 0)"/><path d="M509.08,539.79l-2,1.36,3.61,5.19,1.81-1.36Z" transform="translate(0 0)"/><path d="M513.14,546.11l-1.8,1.36,3.38,5.18,2-1.35Z" transform="translate(0 0)"/><path d="M506.15,541.82l-1.81,1.36L512,554.69l1.8-1.36Z" transform="translate(0 0)"/><path class="cls-6" d="M512,537.76l-2,1.36,7.9,11.5,1.81-1.12Z" transform="translate(0 0)"/><path class="cls-6" d="M509.08,539.79l-2,1.36,3.61,5.19,1.81-1.36Z" transform="translate(0 0)"/><path class="cls-6" d="M513.14,546.11l-1.8,1.36,3.38,5.18,2-1.35Z" transform="translate(0 0)"/><path class="cls-6" d="M506.15,541.82l-1.81,1.36L512,554.69l1.8-1.36Z" transform="translate(0 0)"/><path d="M556,539.34l-1.8-1.35-3.39,5.19,1.81,1.13Z" transform="translate(0 0)"/><path d="M552,545.43l-1.8-1.12-3.39,5.19,1.81,1.12Z" transform="translate(0 0)"/><path d="M557.14,539.79,553.76,545l1.8,1.36,3.39-5.19Z" transform="translate(0 0)"/><path d="M554.88,547.47l-1.8-1.36-3.61,5.19,1.8,1.35Z" transform="translate(0 0)"/><path d="M560.07,541.82,556.69,547l1.8,1.36,3.39-5.19Z" transform="translate(0 0)"/><path d="M557.59,549.5l-1.8-1.36-3.39,5.19,1.81,1.13Z" transform="translate(0 0)"/><path class="cls-6" d="M556,539.34l-1.8-1.35-3.39,5.19,1.81,1.13Z" transform="translate(0 0)"/><path class="cls-6" d="M552,545.43l-1.8-1.12-3.39,5.19,1.81,1.12Z" transform="translate(0 0)"/><path class="cls-6" d="M557.14,539.79,553.76,545l1.8,1.36,3.39-5.19Z" transform="translate(0 0)"/><path class="cls-6" d="M554.88,547.47l-1.8-1.36-3.61,5.19,1.8,1.35Z" transform="translate(0 0)"/><path class="cls-6" d="M560.07,541.82,556.69,547l1.8,1.36,3.39-5.19Z" transform="translate(0 0)"/><path class="cls-6" d="M557.59,549.5l-1.8-1.36-3.39,5.19,1.81,1.13Z" transform="translate(0 0)"/><path d="M548.57,513.62l-2,1.13,3.61,5.19,1.8-1.13Z" transform="translate(0 0)"/><path d="M551.27,511.59l-1.8,1.35,7.67,11.51L559,523.1Z" transform="translate(0 0)"/><path d="M552.63,519.94l-1.81,1.13,3.61,5.18,1.81-1.12Z" transform="translate(0 0)"/><path d="M554.43,509.78l-1.8,1.13L556,516.1l1.81-1.35Z" transform="translate(0 0)"/><path d="M558.49,516.1l-1.8,1.13,3.38,5.19,1.81-1.13Z" transform="translate(0 0)"/><path class="cls-6" d="M548.57,513.62l-2,1.13,3.61,5.19,1.8-1.13Z" transform="translate(0 0)"/><path class="cls-6" d="M551.27,511.59l-1.8,1.35,7.67,11.51L559,523.1Z" transform="translate(0 0)"/><path class="cls-6" d="M552.63,519.94l-1.81,1.13,3.61,5.18,1.81-1.12Z" transform="translate(0 0)"/><path class="cls-6" d="M554.43,509.78l-1.8,1.13L556,516.1l1.81-1.35Z" transform="translate(0 0)"/><path class="cls-6" d="M558.49,516.1l-1.8,1.13,3.38,5.19,1.81-1.13Z" transform="translate(0 0)"/><rect class="cls-5" y="294.8" width="68.03" height="68.03"/><rect class="cls-1" x="6.8" y="308.41" width="25.85" height="10.89"/><rect class="cls-1" x="35.38" y="308.41" width="25.85" height="10.89"/><rect class="cls-1" x="6.8" y="323.38" width="25.85" height="10.89"/><rect class="cls-1" x="35.38" y="323.38" width="25.85" height="10.89"/><rect class="cls-1" x="6.8" y="338.34" width="25.85" height="10.89"/><rect class="cls-1" x="35.38" y="338.34" width="25.85" height="10.89"/><rect class="cls-4" x="204.09" width="68.03" height="68.03"/><rect x="210.9" y="13.61" width="25.85" height="10.89"/><rect x="239.47" y="13.61" width="25.85" height="10.89"/><rect x="210.9" y="43.54" width="25.85" height="10.89"/><rect x="239.47" y="43.54" width="25.85" height="10.89"/><rect x="210.9" y="28.57" width="54.43" height="10.89"/><rect class="cls-5" x="498.9" y="204.1" width="68.03" height="68.03"/><rect class="cls-1" x="505.7" y="232.67" width="54.43" height="10.89"/><rect class="cls-1" x="505.7" y="217.7" width="54.43" height="10.89"/><rect class="cls-1" x="505.7" y="247.63" width="54.43" height="10.89"/><rect class="cls-4" x="294.8" y="498.9" width="68.03" height="68.03"/><rect x="301.61" y="527.47" width="25.85" height="10.89"/><rect x="330.18" y="527.47" width="25.85" height="10.89"/><rect x="301.61" y="512.5" width="54.43" height="10.89"/><rect x="301.61" y="542.44" width="54.43" height="10.89"/><rect x="68.03" width="68.03" height="68.03"/><path class="cls-7" d="M102.4,9.38l20.41,12a.7.7,0,0,1,.33.59v24.1a.68.68,0,0,1-.33.58l-20.41,12a.71.71,0,0,1-.69,0l-20.41-12a.67.67,0,0,1-.34-.58V22a.68.68,0,0,1,.34-.59l20.41-12A.66.66,0,0,1,102.4,9.38Z" transform="translate(0 0)"/><circle cx="93.39" cy="25.36" r="4.08" transform="translate(45.56 109.48) rotate(-75.57)"/><circle cx="110.71" cy="42.68" r="4.08" transform="translate(37.74 136.24) rotate(-73.13)"/><circle cx="110.71" cy="25.36" r="4.08" transform="translate(55.77 124.77) rotate(-73.98)"/><circle cx="93.39" cy="42.68" r="4.08" transform="translate(27.3 121.26) rotate(-74.49)"/><rect x="92.53" y="32.66" width="19.05" height="2.72" transform="translate(5.83 82.12) rotate(-45)"/><rect x="100.69" y="24.49" width="2.72" height="19.05" transform="translate(5.83 82.12) rotate(-45)"/><rect x="498.9" y="68.03" width="68.03" height="68.03"/><path class="cls-7" d="M533.26,77.41l20.41,12A.68.68,0,0,1,554,90v24.1a.67.67,0,0,1-.34.58l-20.41,12a.66.66,0,0,1-.69,0l-20.41-12a.66.66,0,0,1-.33-.58V90a.68.68,0,0,1,.33-.59l20.41-12A.66.66,0,0,1,533.26,77.41Z" transform="translate(0 0)"/><circle cx="524.26" cy="93.39" r="4.08" transform="translate(8.99 227.81) rotate(-24.72)"/><circle cx="541.58" cy="110.71" r="4.08" transform="translate(7.72 254.09) rotate(-26.59)"/><circle cx="541.58" cy="93.39" r="4.08" transform="translate(10.58 235.05) rotate(-24.72)"/><circle cx="524.26" cy="110.71" r="4.08" transform="translate(5.89 246.34) rotate(-26.59)"/><rect x="523.39" y="100.69" width="19.05" height="2.72" transform="translate(83.92 406.72) rotate(-45)"/><rect x="531.56" y="92.53" width="2.72" height="19.05" transform="translate(83.92 406.72) rotate(-45)"/><rect x="430.87" y="498.9" width="68.03" height="68.03"/><path class="cls-7" d="M465.23,508.27l20.41,12a.66.66,0,0,1,.33.58V545a.68.68,0,0,1-.33.59l-20.41,12a.71.71,0,0,1-.69,0l-20.41-12a.68.68,0,0,1-.33-.59v-24.1a.66.66,0,0,1,.33-.58l20.41-12A.71.71,0,0,1,465.23,508.27Z" transform="translate(0 0)"/><circle cx="456.22" cy="524.25" r="4.08"/><circle cx="473.54" cy="541.57" r="4.08"/><circle cx="473.54" cy="524.25" r="4.08"/><circle cx="456.22" cy="541.57" r="4.08"/><rect x="455.36" y="531.55" width="19.05" height="2.72" transform="translate(-240.67 484.81) rotate(-45)"/><rect x="463.52" y="523.39" width="2.72" height="19.05" transform="translate(-240.67 484.81) rotate(-45)"/><rect y="430.87" width="68.03" height="68.03"/><path class="cls-7" d="M34.36,440.24l20.41,12a.67.67,0,0,1,.34.58v24.1a.68.68,0,0,1-.34.59l-20.41,12a.66.66,0,0,1-.69,0l-20.41-12a.7.7,0,0,1-.33-.59v-24.1a.68.68,0,0,1,.33-.58l20.41-12A.71.71,0,0,1,34.36,440.24Z" transform="translate(0 0)"/><circle cx="25.36" cy="456.22" r="4.08" transform="translate(-418.1 346.09) rotate(-72.87)"/><circle cx="42.68" cy="473.54" r="4.08" transform="translate(-422.88 376.99) rotate(-73.13)"/><circle cx="42.68" cy="456.22" r="4.08" transform="matrix(0.29, -0.96, 0.96, 0.29, -406.31, 364.7)"/><circle cx="25.36" cy="473.54" r="4.08" transform="translate(-434.65 358.31) rotate(-72.87)"/><rect x="24.49" y="463.52" width="19.05" height="2.72" transform="translate(-318.76 160.21) rotate(-45)"/><rect x="32.66" y="455.36" width="2.72" height="19.05" transform="translate(-318.76 160.22) rotate(-45)"/><rect class="cls-1" x="136.06" y="498.9" width="68.03" height="68.03"/><path class="cls-5" d="M195.51,538.68a43.8,43.8,0,0,0,.42-6.3c0-11.65-5.14-28.88-33.31-22.63-20.73,13.85-7,33,.74,33.37,10,.47,9.62-8.15,6.66-11.11-11.1-3.33-3.33-13.66,5.18-13.32C190,519.28,194.91,532.26,195.51,538.68Z" transform="translate(0 0)"/><path d="M195.51,538.68c-.6-6.42-5.5-19.4-20.31-20-8.51-.34-16.28,10-5.18,13.32,4.94-.24,14.59,1.63,13.7,11.11,0,4.38-5,13-25.17,12.49C174.22,559.84,192.5,559.26,195.51,538.68Z" transform="translate(0 0)"/><path class="cls-4" d="M145.59,515.35v35.54a84.4,84.4,0,0,0,13,4.72c20.13.51,25.17-8.11,25.17-12.49.89-9.48-8.76-11.35-13.7-11.11,3,3,3.33,11.58-6.66,11.11-7.77-.37-21.47-19.52-.74-33.37A101.73,101.73,0,0,0,145.59,515.35Z" transform="translate(0 0)"/><rect class="cls-1" x="498.9" y="362.84" width="68.03" height="68.03"/><path class="cls-5" d="M538.68,371.43a43.73,43.73,0,0,0-6.3-.43c-11.65,0-28.88,5.15-22.63,33.31,13.85,20.73,33,7,33.37-.74.47-10-8.14-9.62-11.11-6.66-3.33,11.11-13.66,3.33-13.32-5.18C519.28,376.92,532.26,372,538.68,371.43Z" transform="translate(0 0)"/><path d="M538.68,371.43c-6.42.59-19.4,5.49-20,20.3-.34,8.51,10,16.29,13.32,5.18-.24-4.93,1.63-14.58,11.11-13.7,4.38,0,13,5,12.49,25.18C559.84,392.71,559.26,374.43,538.68,371.43Z" transform="translate(0 0)"/><path class="cls-4" d="M515.36,421.34h35.53a82.85,82.85,0,0,0,4.72-12.95c.51-20.14-8.11-25.18-12.49-25.18-9.48-.88-11.35,8.77-11.11,13.7,3-3,11.58-3.33,11.11,6.66-.37,7.78-19.52,21.47-33.37.74A101.57,101.57,0,0,0,515.36,421.34Z" transform="translate(0 0)"/><rect class="cls-1" x="362.83" width="68.03" height="68.03"/><path class="cls-5" d="M371.43,28.26a43.58,43.58,0,0,0-.43,6.29c0,11.65,5.15,28.88,33.32,22.63,20.73-13.85,7-33-.74-33.37-10-.47-9.63,8.15-6.67,11.11,11.11,3.33,3.33,13.67-5.18,13.33C376.92,47.65,372,34.67,371.43,28.26Z" transform="translate(0 0)"/><path d="M371.43,28.26c.6,6.41,5.49,19.39,20.3,20,8.51.34,16.29-10,5.18-13.33-4.93.25-14.58-1.63-13.69-11.11,0-4.37,5-13,25.17-12.49C392.72,7.09,374.43,7.67,371.43,28.26Z" transform="translate(0 0)"/><path class="cls-4" d="M421.34,51.58V16a83.88,83.88,0,0,0-12.95-4.72c-20.14-.51-25.17,8.12-25.17,12.49-.89,9.48,8.76,11.36,13.69,11.11-3-3-3.33-11.58,6.67-11.11,7.77.37,21.47,19.52.74,33.37A101.65,101.65,0,0,0,421.34,51.58Z" transform="translate(0 0)"/><rect class="cls-1" y="136.06" width="68.03" height="68.03"/><path class="cls-5" d="M28.26,195.51a43.65,43.65,0,0,0,6.29.42c11.66,0,28.88-5.14,22.63-33.31-13.85-20.73-33-7-33.36.74-.48,10,8.14,9.62,11.1,6.66,3.33-11.1,13.67-3.33,13.33,5.18C47.66,190,34.67,194.91,28.26,195.51Z" transform="translate(0 0)"/><path d="M28.26,195.51c6.41-.6,19.4-5.5,20-20.31.34-8.51-10-16.28-13.33-5.18.25,4.94-1.63,14.59-11.1,13.7-4.38,0-13-5-12.49-25.17C7.09,174.22,7.67,192.5,28.26,195.51Z" transform="translate(0 0)"/><path class="cls-4" d="M51.58,145.59H16a83.38,83.38,0,0,0-4.71,13c-.52,20.13,8.11,25.17,12.49,25.17,9.47.89,11.35-8.76,11.1-13.7-3,3-11.58,3.33-11.1-6.66.36-7.78,19.51-21.47,33.36-.74A101.73,101.73,0,0,0,51.58,145.59Z" transform="translate(0 0)"/><rect class="cls-4" y="204.1" width="68.03" height="90.71"/><rect class="cls-4" x="498.9" y="272.13" width="68.03" height="90.71"/><rect class="cls-5" x="272.13" width="90.71" height="68.03"/><rect class="cls-5" x="204.09" y="498.9" width="90.71" height="68.03"/><path class="cls-1" d="M532.92,334.49a17,17,0,0,0,5.31-33.17c-6.91.22-13.29,9.78-3.72,16.69,5,3.6,4.25,14.35-9.83,14.35A16.87,16.87,0,0,0,532.92,334.49Z" transform="translate(0 0)"/><path d="M532.92,300.47a17,17,0,0,0-8.24,31.89c14.08,0,14.82-10.75,9.83-14.35-9.57-6.91-3.19-16.47,3.72-16.69A17,17,0,0,0,532.92,300.47Z" transform="translate(0 0)"/><path class="cls-1" d="M334.49,34a17,17,0,0,0-33.17-5.32c.22,6.91,9.79,13.29,16.7,3.72,3.6-5,14.35-4.25,14.35,9.84A17,17,0,0,0,334.49,34Z" transform="translate(0 0)"/><path d="M300.48,34a17,17,0,0,0,31.89,8.24c0-14.09-10.75-14.82-14.35-9.84-6.91,9.57-16.48,3.19-16.7-3.72A17,17,0,0,0,300.48,34Z" transform="translate(0 0)"/><path class="cls-1" d="M232.44,532.91a17,17,0,0,0,33.17,5.32c-.21-6.91-9.78-13.29-16.69-3.72-3.6,5-14.35,4.25-14.35-9.84A17,17,0,0,0,232.44,532.91Z" transform="translate(0 0)"/><path d="M266.46,532.91a17,17,0,0,0-31.89-8.24c0,14.09,10.75,14.83,14.35,9.84,6.91-9.57,16.48-3.19,16.69,3.72A17,17,0,0,0,266.46,532.91Z" transform="translate(0 0)"/><path class="cls-1" d="M34,232.44a17,17,0,0,0-5.32,33.17c6.91-.21,13.29-9.78,3.72-16.69-5-3.6-4.25-14.35,9.84-14.35A16.87,16.87,0,0,0,34,232.44Z" transform="translate(0 0)"/><path d="M34,266.46a17,17,0,0,0,8.24-31.89c-14.09,0-14.82,10.75-9.84,14.35,9.57,6.91,3.19,16.48-3.72,16.69A17,17,0,0,0,34,266.46Z" transform="translate(0 0)"/></svg>