<svg xmlns="http://www.w3.org/2000/svg" viewBox="0 0 100 100"><defs><style>.cls-1{fill:#fff;}.cls-2{fill:#c71620;}.cls-3{fill:#fdc309;}</style></defs><g id="Onder"><rect class="cls-1" y="0.04" width="100" height="12"/><rect class="cls-1" x="44" y="44.08" width="100" height="12" transform="translate(144.07 -43.92) rotate(90)"/><rect class="cls-1" y="88.04" width="100" height="12" transform="translate(100 188.08) rotate(-180)"/><rect class="cls-1" x="-43.99" y="44" width="100" height="12" transform="translate(-44 56.01) rotate(-90)"/></g><g id="Laag_1" data-name="Laag 1"><rect class="cls-2" x="88.31" y="0.04" width="11.8" height="11.92"/><rect class="cls-3" x="88.31" y="4.09" width="11.8" height="3.97"/><rect class="cls-2" x="23.83" width="12" height="12"/><circle class="cls-2" cx="41.92" cy="6.06" r="0.27"/><path class="cls-2" d="M42.59,1.51c0,.51-.29,3.86-.63,3.86S41.33,2,41.33,1.51s.28-.93.63-.93S42.59,1,42.59,1.51Z"/><path class="cls-2" d="M41.33,10.49c0-.51.28-3.86.63-3.86s.63,3.35.63,3.86-.29.93-.63.93S41.33,11,41.33,10.49Z"/><path class="cls-2" d="M37.29,5.37c.51,0,3.86.28,3.86.63s-3.35.63-3.86.63-.93-.28-.93-.63S36.77,5.37,37.29,5.37Z"/><path class="cls-2" d="M38.91,8.34c.29-.28,2.32-2,2.51-1.8S39.9,8.76,39.61,9.05s-.68.36-.87.17S38.62,8.63,38.91,8.34Z"/><path class="cls-2" d="M39.61,3.12c.29.28,2,2.31,1.81,2.51S39.2,4.11,38.91,3.82s-.36-.68-.17-.87S39.33,2.83,39.61,3.12Z"/><circle class="cls-2" cx="6.1" cy="41.97" r="0.27"/><path class="cls-2" d="M6.77,37.42c0,.51-.28,3.86-.63,3.86s-.63-3.35-.63-3.86.28-.93.63-.93S6.77,36.9,6.77,37.42Z"/><path class="cls-2" d="M10.81,42.54c-.52,0-3.87-.28-3.87-.63s3.35-.63,3.87-.63.93.28.93.63S11.32,42.54,10.81,42.54Z"/><path class="cls-2" d="M1.47,41.28c.51,0,3.86.28,3.86.63s-3.35.63-3.86.63-.93-.28-.93-.63S1,41.28,1.47,41.28Z"/><path class="cls-2" d="M9,39.77c-.29.29-2.32,2-2.51,1.81s1.52-2.23,1.81-2.52.67-.36.87-.16S9.33,39.48,9,39.77Z"/><path class="cls-2" d="M3.8,39c.28.28,2,2.31,1.8,2.51S3.38,40,3.09,39.73s-.36-.68-.17-.87S3.51,38.74,3.8,39Z"/><rect class="cls-2" x="0.1" y="88.06" width="11.8" height="11.92"/><rect class="cls-3" x="0.1" y="92.11" width="11.8" height="3.97"/><rect class="cls-2" x="-0.08" y="-0.06" width="11.8" height="11.92"/><rect class="cls-3" x="-0.08" y="3.99" width="11.8" height="3.97"/><rect class="cls-2" x="88.08" y="87.98" width="11.8" height="11.92"/><rect class="cls-3" x="88.08" y="92.03" width="11.8" height="3.97"/></g><g id="Laag_2" data-name="Laag 2"><rect class="cls-2" x="44.02" y="-0.02" width="12" height="12"/><path class="cls-3" d="M50.78,3.88c0,1.06-.39,1.92-.87,1.92S49,4.94,49,3.88,49.43,1,49.91,1,50.78,2.82,50.78,3.88Z"/><path class="cls-3" d="M51.83,6.67c-1.06,0-1.92-.39-1.92-.87s.86-.88,1.92-.88,2.92.39,2.92.88S52.89,6.67,51.83,6.67Z"/><path class="cls-3" d="M49,7.72c0-1.06.4-1.92.88-1.92s.87.86.87,1.92-.39,2.91-.87,2.91S49,8.78,49,7.72Z"/><path class="cls-3" d="M48,4.79c1.06,0,1.92.39,1.92.88s-.86.87-1.92.87-2.92-.39-2.92-.87S46.93,4.79,48,4.79Z"/><path class="cls-3" d="M51.89,5.1c-.75.75-1.64,1.08-2,.74s0-1.23.74-2S53,2.08,53.33,2.42,52.64,4.35,51.89,5.1Z"/><path class="cls-3" d="M50.65,7.82c-.75-.75-1.08-1.64-.74-2s1.23,0,2,.74,1.78,2.34,1.44,2.68S51.4,8.57,50.65,7.82Z"/><path class="cls-3" d="M47.93,6.58c.75-.75,1.64-1.08,2-.74s0,1.23-.74,2-2.34,1.79-2.68,1.44S47.18,7.33,47.93,6.58Z"/><path class="cls-3" d="M49.26,3.77c.75.75,1.08,1.64.74,2s-1.23,0-2-.74-1.78-2.34-1.44-2.68S48.51,3,49.26,3.77Z"/><path class="cls-2" d="M49.91,4.71c.17.48.15.93-.06,1s-.51-.24-.69-.71-.32-1.37-.11-1.46S49.73,4.24,49.91,4.71Z"/><path class="cls-2" d="M51,5.83c-.46.19-.89.16-1,0s.22-.55.67-.73,1.31-.34,1.39-.12S51.42,5.64,51,5.83Z"/><path class="cls-2" d="M49.87,6.79c-.18-.48-.16-.93.05-1s.51.23.69.7.32,1.38.12,1.46S50,7.26,49.87,6.79Z"/><path class="cls-2" d="M48.94,5.66c.45-.18.88-.16,1,.06s-.22.54-.67.73-1.16.31-1.24.09S48.49,5.85,48.94,5.66Z"/><path class="cls-2" d="M50.64,5.18c-.19.46-.51.77-.71.67s-.21-.54,0-1,.7-1.21.9-1.12S50.84,4.71,50.64,5.18Z"/><path class="cls-2" d="M50.57,6.49c-.44-.2-.73-.54-.64-.75s.52-.22,1,0,1.15.74,1.06,1S51,6.7,50.57,6.49Z"/><path class="cls-2" d="M49.21,6.47c.19-.46.51-.77.72-.67s.21.54,0,1S49.25,8,49,7.93,49,6.94,49.21,6.47Z"/><path class="cls-2" d="M49.18,5c.44.21.73.55.64.76s-.52.22-1,0-1.15-.74-1.06-1S48.73,4.78,49.18,5Z"/><path class="cls-3" d="M29.84,8.69l-6-1.09a6.16,6.16,0,0,1,6-5,5.8,5.8,0,0,1,6,4.81C33.72,7.79,31.85,8.46,29.84,8.69Z"/><ellipse class="cls-1" cx="30.7" cy="5.76" rx="3.06" ry="0.37" transform="translate(16.56 33.61) rotate(-73.7)"/><ellipse class="cls-1" cx="32.14" cy="6.62" rx="3.08" ry="0.37" transform="translate(3.72 23.04) rotate(-41.65)"/><ellipse class="cls-1" cx="27.88" cy="6.44" rx="0.37" ry="3.07" transform="translate(3.14 20.82) rotate(-43.18)"/><ellipse class="cls-1" cx="29.37" cy="5.7" rx="0.37" ry="3.05" transform="translate(-0.55 5.75) rotate(-11.07)"/><ellipse class="cls-1" cx="26.88" cy="8.11" rx="0.37" ry="3.05" transform="translate(14.32 33.22) rotate(-80.22)"/><ellipse class="cls-1" cx="32.81" cy="8.03" rx="3.06" ry="0.37" transform="translate(-0.94 6.73) rotate(-11.55)"/><path class="cls-2" d="M18.87,2.25c0,.76-.24,2.6-.91,2.6s-1-1.92-1-2.68S17.29.65,18,.65,18.87,1.49,18.87,2.25Z"/><circle class="cls-2" cx="17.93" cy="6" r="0.6"/><path class="cls-2" d="M21.71,7c-.76,0-2.6-.24-2.6-.91s1.92-1,2.67-1,1.53.32,1.53,1S22.47,7,21.71,7Z"/><path class="cls-2" d="M17,9.76c0-.76.24-2.6.91-2.6s1,1.91,1,2.67-.31,1.53-1,1.53S17,10.52,17,9.76Z"/><path class="cls-2" d="M14.14,5.05c.76,0,2.59.25,2.59.92s-1.91,1-2.67,1-1.52-.31-1.52-1S13.38,5.05,14.14,5.05Z"/><path class="cls-2" d="M6.77,14.24c0,.76-.25,2.6-.91,2.6s-1-1.91-1-2.67.32-1.52,1-1.52S6.77,13.49,6.77,14.24Z"/><circle class="cls-2" cx="5.82" cy="18" r="0.6"/><path class="cls-2" d="M9.6,19C8.84,19,7,18.71,7,18s1.91-1,2.67-1,1.52.32,1.52,1S10.36,19,9.6,19Z"/><path class="cls-2" d="M4.87,21.75c0-.76.24-2.59.91-2.59s1,1.91,1,2.67-.32,1.52-1,1.52S4.87,22.51,4.87,21.75Z"/><path class="cls-2" d="M2,17.05c.76,0,2.6.24,2.6.91S2.71,19,2,19,.43,18.63.43,18,1.27,17.05,2,17.05Z"/><rect class="cls-2" x="0.01" y="24" width="12" height="12"/><path class="cls-3" d="M8.7,30c-.36,2-.73,4-1.09,6a6.16,6.16,0,0,1-5-6,5.8,5.8,0,0,1,4.81-6C7.8,26.11,8.48,28,8.7,30Z"/><ellipse class="cls-1" cx="5.77" cy="29.13" rx="0.37" ry="3.06" transform="translate(-23.81 26.49) rotate(-73.7)"/><ellipse class="cls-1" cx="6.63" cy="27.69" rx="0.37" ry="3.08" transform="translate(-16.73 11.41) rotate(-41.65)"/><ellipse class="cls-1" cx="6.45" cy="31.95" rx="3.07" ry="0.37" transform="translate(-20.12 13.06) rotate(-43.18)"/><ellipse class="cls-1" cx="5.71" cy="30.46" rx="3.05" ry="0.37" transform="translate(-5.74 1.66) rotate(-11.07)"/><ellipse class="cls-1" cx="8.12" cy="32.95" rx="3.05" ry="0.37" transform="translate(-25.73 35.36) rotate(-80.22)"/><ellipse class="cls-1" cx="8.04" cy="27.03" rx="0.37" ry="3.06" transform="translate(-5.25 2.16) rotate(-11.55)"/><rect class="cls-2" x="88" y="23.82" width="12" height="12"/><circle class="cls-2" cx="93.94" cy="41.91" r="0.27"/><path class="cls-2" d="M98.49,42.57c-.51,0-3.86-.28-3.86-.63s3.35-.63,3.86-.63.93.28.93.63S99,42.57,98.49,42.57Z"/><path class="cls-2" d="M89.51,41.31c.51,0,3.86.28,3.86.63s-3.35.63-3.86.63-.93-.28-.93-.63S89,41.31,89.51,41.31Z"/><path class="cls-2" d="M94.63,37.27c0,.52-.28,3.87-.63,3.87s-.63-3.35-.63-3.87.28-.93.63-.93S94.63,36.76,94.63,37.27Z"/><path class="cls-2" d="M91.65,38.89c.29.29,2,2.32,1.81,2.52S91.24,39.89,91,39.6s-.36-.68-.17-.87S91.37,38.61,91.65,38.89Z"/><path class="cls-2" d="M96.88,39.6c-.28.29-2.31,2-2.51,1.81s1.52-2.23,1.81-2.52.68-.36.87-.16S97.17,39.31,96.88,39.6Z"/><circle class="cls-2" cx="58.03" cy="6.09" r="0.27"/><path class="cls-2" d="M62.58,6.75c-.51,0-3.86-.28-3.86-.63s3.35-.63,3.86-.63.93.29.93.63S63.1,6.75,62.58,6.75Z"/><path class="cls-2" d="M57.46,10.79c0-.51.28-3.86.63-3.86s.63,3.35.63,3.86-.28.93-.63.93S57.46,11.31,57.46,10.79Z"/><path class="cls-2" d="M58.72,1.46c0,.51-.28,3.86-.63,3.86S57.46,2,57.46,1.46s.28-.94.63-.94S58.72.94,58.72,1.46Z"/><path class="cls-2" d="M60.23,9c-.29-.29-2-2.32-1.81-2.52S60.65,8,60.93,8.32s.37.68.17.87S60.52,9.31,60.23,9Z"/><path class="cls-2" d="M61,3.78c-.28.29-2.31,2-2.51,1.81S60,3.36,60.27,3.08s.68-.37.87-.17S61.26,3.49,61,3.78Z"/><path class="cls-3" d="M91.31,29.83c.36-2,.73-4,1.09-6a6.14,6.14,0,0,1,5,6,5.8,5.8,0,0,1-4.81,6C92.2,33.71,91.53,31.84,91.31,29.83Z"/><ellipse class="cls-1" cx="94.24" cy="30.69" rx="0.37" ry="3.06" transform="translate(38.34 112.53) rotate(-73.7)"/><ellipse class="cls-1" cx="93.38" cy="32.13" rx="0.37" ry="3.08" transform="translate(2.26 70.18) rotate(-41.65)"/><ellipse class="cls-1" cx="93.56" cy="27.87" rx="3.07" ry="0.37" transform="translate(6.27 71.56) rotate(-43.18)"/><ellipse class="cls-1" cx="94.3" cy="29.36" rx="3.05" ry="0.37" transform="matrix(0.98, -0.19, 0.19, 0.98, -3.88, 18.66)"/><ellipse class="cls-1" cx="91.89" cy="26.86" rx="3.05" ry="0.37" transform="translate(49.8 112.85) rotate(-80.22)"/><ellipse class="cls-1" cx="91.97" cy="32.79" rx="0.37" ry="3.06" transform="translate(-4.7 19.07) rotate(-11.55)"/><path class="cls-2" d="M97.75,18.86c-.76,0-2.6-.24-2.6-.91s1.92-1,2.67-1,1.53.32,1.53,1S98.51,18.86,97.75,18.86Z"/><circle class="cls-2" cx="93.99" cy="17.91" r="0.6"/><path class="cls-2" d="M93.05,21.7c0-.76.24-2.6.91-2.6s1,1.91,1,2.67-.31,1.52-1,1.52S93.05,22.45,93.05,21.7Z"/><path class="cls-2" d="M90.24,17c.76,0,2.6.24,2.6.91s-1.92,1-2.67,1-1.53-.32-1.53-1S89.48,17,90.24,17Z"/><path class="cls-2" d="M94.94,14.12c0,.76-.24,2.6-.91,2.6s-1-1.91-1-2.67.31-1.53,1-1.53S94.94,13.36,94.94,14.12Z"/><path class="cls-2" d="M85.75,6.75c-.75,0-2.59-.24-2.59-.91s1.91-1,2.67-1,1.52.32,1.52,1S86.51,6.75,85.75,6.75Z"/><circle class="cls-2" cx="82" cy="5.8" r="0.6"/><path class="cls-2" d="M81.05,9.59c0-.76.24-2.6.91-2.6s1,1.91,1,2.67-.32,1.53-1,1.53S81.05,10.35,81.05,9.59Z"/><path class="cls-2" d="M78.25,4.85c.75,0,2.59.25,2.59.92s-1.91,1-2.67,1-1.52-.31-1.52-1S77.49,4.85,78.25,4.85Z"/><path class="cls-2" d="M83,2c0,.75-.24,2.59-.91,2.59s-1-1.91-1-2.67S81.37.42,82,.42,83,1.26,83,2Z"/><rect class="cls-2" x="64" width="12" height="12"/><path class="cls-3" d="M70,8.68,64,7.6a6.14,6.14,0,0,1,6-5,5.8,5.8,0,0,1,6,4.81C73.89,7.79,72,8.46,70,8.68Z"/><ellipse class="cls-1" cx="70.87" cy="5.75" rx="3.06" ry="0.37" transform="translate(45.46 72.16) rotate(-73.7)"/><ellipse class="cls-1" cx="72.31" cy="6.62" rx="3.08" ry="0.37" transform="translate(13.88 49.73) rotate(-41.65)"/><ellipse class="cls-1" cx="68.05" cy="6.43" rx="0.37" ry="3.07" transform="translate(14.02 48.3) rotate(-43.18)"/><ellipse class="cls-1" cx="69.54" cy="5.7" rx="0.37" ry="3.05" transform="translate(0.2 13.46) rotate(-11.07)"/><ellipse class="cls-1" cx="67.05" cy="8.11" rx="0.37" ry="3.05" transform="translate(47.66 72.8) rotate(-80.22)"/><ellipse class="cls-1" cx="72.97" cy="8.03" rx="3.06" ry="0.37" transform="translate(-0.13 14.77) rotate(-11.55)"/><rect class="cls-2" x="64.17" y="88" width="12" height="12"/><circle class="cls-2" cx="58.08" cy="93.94" r="0.27"/><path class="cls-2" d="M57.41,98.49c0-.51.29-3.86.63-3.86s.63,3.35.63,3.86-.28.93-.63.93S57.41,99,57.41,98.49Z"/><path class="cls-2" d="M58.67,89.51c0,.51-.28,3.86-.63,3.86s-.63-3.35-.63-3.86.29-.93.63-.93S58.67,89,58.67,89.51Z"/><path class="cls-2" d="M62.71,94.63c-.51,0-3.86-.28-3.86-.63s3.35-.63,3.86-.63.93.28.93.63S63.23,94.63,62.71,94.63Z"/><path class="cls-2" d="M61.09,91.65c-.29.29-2.32,2-2.51,1.81S60.1,91.24,60.39,91s.68-.36.87-.17A.65.65,0,0,1,61.09,91.65Z"/><path class="cls-2" d="M60.39,96.88c-.29-.28-2-2.31-1.81-2.51s2.22,1.52,2.51,1.81.36.68.17.87S60.67,97.17,60.39,96.88Z"/><circle class="cls-2" cx="93.9" cy="58.03" r="0.27"/><path class="cls-2" d="M93.23,62.58c0-.51.28-3.86.63-3.86s.63,3.35.63,3.86-.28.93-.63.93S93.23,63.1,93.23,62.58Z"/><path class="cls-2" d="M89.19,57.46c.52,0,3.87.28,3.87.63s-3.35.63-3.87.63-.93-.28-.93-.63S88.68,57.46,89.19,57.46Z"/><path class="cls-2" d="M98.53,58.72c-.51,0-3.86-.28-3.86-.63s3.35-.63,3.86-.63.93.28.93.63S99,58.72,98.53,58.72Z"/><path class="cls-2" d="M91,60.23c.29-.29,2.32-2,2.51-1.81S92,60.65,91.66,60.93s-.67.37-.87.17S90.67,60.52,91,60.23Z"/><path class="cls-2" d="M96.2,61c-.28-.28-2-2.31-1.8-2.51s2.22,1.52,2.51,1.81.36.68.17.87S96.49,61.26,96.2,61Z"/><path class="cls-3" d="M70.16,91.31l6,1.09a6.16,6.16,0,0,1-6,5,5.8,5.8,0,0,1-6-4.81C66.28,92.2,68.15,91.53,70.16,91.31Z"/><ellipse class="cls-1" cx="69.3" cy="94.24" rx="3.06" ry="0.37" transform="translate(-40.61 134.31) rotate(-73.7)"/><ellipse class="cls-1" cx="67.86" cy="93.38" rx="3.08" ry="0.37" transform="translate(-44.9 68.71) rotate(-41.65)"/><ellipse class="cls-1" cx="72.12" cy="93.56" rx="0.37" ry="3.07" transform="translate(-44.49 74.68) rotate(-43.18)"/><ellipse class="cls-1" cx="70.63" cy="94.3" rx="0.37" ry="3.05" transform="translate(-16.8 15.32) rotate(-11.07)"/><ellipse class="cls-1" cx="73.12" cy="91.89" rx="0.37" ry="3.05" transform="translate(-29.85 148.33) rotate(-80.22)"/><ellipse class="cls-1" cx="67.19" cy="91.97" rx="3.06" ry="0.37" transform="translate(-17.05 15.31) rotate(-11.55)"/><path class="cls-2" d="M81.13,97.75c0-.76.24-2.6.91-2.6s1,1.92,1,2.67-.31,1.53-1,1.53S81.13,98.51,81.13,97.75Z"/><circle class="cls-2" cx="82.07" cy="93.99" r="0.6"/><path class="cls-2" d="M78.29,93.05c.76,0,2.6.24,2.6.91s-1.92,1-2.67,1-1.53-.31-1.53-1S77.53,93.05,78.29,93.05Z"/><path class="cls-2" d="M83,90.24c0,.76-.24,2.6-.91,2.6s-1-1.92-1-2.67.31-1.53,1-1.53S83,89.48,83,90.24Z"/><path class="cls-2" d="M85.86,94.94c-.76,0-2.59-.24-2.59-.91s1.91-1,2.67-1,1.52.31,1.52,1S86.62,94.94,85.86,94.94Z"/><path class="cls-2" d="M93.23,85.75c0-.75.25-2.59.91-2.59s1,1.91,1,2.67-.32,1.52-1,1.52S93.23,86.51,93.23,85.75Z"/><circle class="cls-2" cx="94.18" cy="82" r="0.6"/><path class="cls-2" d="M90.4,81.05c.76,0,2.59.24,2.59.91s-1.91,1-2.67,1-1.52-.32-1.52-1S89.64,81.05,90.4,81.05Z"/><path class="cls-2" d="M95.13,78.25c0,.75-.24,2.59-.91,2.59s-1-1.91-1-2.67.32-1.52,1-1.52S95.13,77.49,95.13,78.25Z"/><path class="cls-2" d="M98,83c-.76,0-2.6-.24-2.6-.91s1.92-1,2.67-1,1.53.32,1.53,1S98.73,83,98,83Z"/><rect class="cls-2" x="87.99" y="64" width="12" height="12"/><path class="cls-3" d="M91.3,70c.36-2,.73-4,1.09-6a6.14,6.14,0,0,1,5,6,5.8,5.8,0,0,1-4.81,6C92.2,73.89,91.52,72,91.3,70Z"/><ellipse class="cls-1" cx="94.23" cy="70.87" rx="0.37" ry="3.06" transform="translate(-0.23 141.43) rotate(-73.7)"/><ellipse class="cls-1" cx="93.37" cy="72.31" rx="0.37" ry="3.08" transform="translate(-24.45 80.34) rotate(-41.65)"/><ellipse class="cls-1" cx="93.55" cy="68.05" rx="3.07" ry="0.37" transform="translate(-21.23 82.44) rotate(-43.18)"/><ellipse class="cls-1" cx="94.29" cy="69.54" rx="3.05" ry="0.37" transform="translate(-11.6 19.41) rotate(-11.07)"/><ellipse class="cls-1" cx="91.88" cy="67.05" rx="3.05" ry="0.37" transform="translate(10.19 146.19) rotate(-80.22)"/><ellipse class="cls-1" cx="91.96" cy="72.97" rx="0.37" ry="3.06" transform="translate(-12.74 19.88) rotate(-11.55)"/><rect class="cls-2" y="64.18" width="12" height="12"/><circle class="cls-2" cx="6.06" cy="58.09" r="0.27"/><path class="cls-2" d="M1.51,57.43c.51,0,3.86.28,3.86.63s-3.35.63-3.86.63-.93-.28-.93-.63S1,57.43,1.51,57.43Z"/><path class="cls-2" d="M10.49,58.69c-.51,0-3.86-.28-3.86-.63s3.35-.63,3.86-.63.93.28.93.63S11,58.69,10.49,58.69Z"/><path class="cls-2" d="M5.37,62.73c0-.52.28-3.87.63-3.87s.63,3.35.63,3.87-.28.93-.63.93S5.37,63.24,5.37,62.73Z"/><path class="cls-2" d="M8.35,61.1c-.29-.28-2-2.31-1.81-2.51s2.22,1.52,2.51,1.81.36.68.17.87S8.63,61.39,8.35,61.1Z"/><path class="cls-2" d="M3.12,60.4c.28-.29,2.31-2,2.51-1.81S4.11,60.82,3.82,61.1s-.68.37-.87.17S2.83,60.69,3.12,60.4Z"/><circle class="cls-2" cx="41.97" cy="93.91" r="0.27"/><path class="cls-2" d="M37.42,93.25c.51,0,3.86.28,3.86.63s-3.35.63-3.86.63-.93-.29-.93-.63S36.9,93.25,37.42,93.25Z"/><path class="cls-2" d="M42.54,89.21c0,.51-.28,3.86-.63,3.86s-.63-3.35-.63-3.86.28-.93.63-.93S42.54,88.69,42.54,89.21Z"/><path class="cls-2" d="M41.28,98.54c0-.51.28-3.86.63-3.86s.63,3.35.63,3.86-.28.93-.63.93S41.28,99.06,41.28,98.54Z"/><path class="cls-2" d="M39.77,91c.29.29,2,2.32,1.81,2.52S39.35,92,39.07,91.68s-.37-.68-.17-.87S39.48,90.69,39.77,91Z"/><path class="cls-2" d="M39,96.22c.28-.29,2.31-2,2.51-1.81S40,96.64,39.73,96.92s-.68.37-.87.17S38.74,96.51,39,96.22Z"/><path class="cls-3" d="M8.69,70.17c-.36,2-.73,4-1.09,6a6.14,6.14,0,0,1-5-6,5.8,5.8,0,0,1,4.81-6C7.8,66.29,8.47,68.16,8.69,70.17Z"/><ellipse class="cls-1" cx="5.76" cy="69.31" rx="0.37" ry="3.06" transform="matrix(0.28, -0.96, 0.96, 0.28, -62.38, 55.38)"/><ellipse class="cls-1" cx="6.62" cy="67.87" rx="0.37" ry="3.08" transform="translate(-43.44 21.56) rotate(-41.65)"/><ellipse class="cls-1" cx="6.44" cy="72.13" rx="3.07" ry="0.37" transform="translate(-47.61 23.94) rotate(-43.18)"/><ellipse class="cls-1" cx="5.7" cy="70.64" rx="3.05" ry="0.37" transform="translate(-13.46 2.41) rotate(-11.07)"/><ellipse class="cls-1" cx="8.11" cy="73.13" rx="3.05" ry="0.37" transform="translate(-65.33 68.7) rotate(-80.22)"/><ellipse class="cls-1" cx="8.03" cy="67.21" rx="0.37" ry="3.06" transform="translate(-13.29 2.97) rotate(-11.55)"/><path class="cls-2" d="M2.25,81.14c.76,0,2.6.24,2.6.91s-1.92,1-2.67,1-1.53-.32-1.53-1S1.49,81.14,2.25,81.14Z"/><circle class="cls-2" cx="6.01" cy="82.09" r="0.6"/><path class="cls-2" d="M7,78.3c0,.76-.24,2.6-.91,2.6s-1-1.91-1-2.67.31-1.52,1-1.52S7,77.55,7,78.3Z"/><path class="cls-2" d="M9.76,83c-.76,0-2.6-.25-2.6-.91s1.92-1,2.67-1,1.53.32,1.53,1S10.52,83,9.76,83Z"/><path class="cls-2" d="M5.06,85.88c0-.76.24-2.6.91-2.6S7,85.19,7,86s-.31,1.52-1,1.52S5.06,86.63,5.06,85.88Z"/><path class="cls-2" d="M14.25,93.25c.75,0,2.59.24,2.59.91s-1.91,1-2.67,1-1.52-.31-1.52-1S13.49,93.25,14.25,93.25Z"/><circle class="cls-2" cx="18" cy="94.2" r="0.6"/><path class="cls-2" d="M19,90.41c0,.76-.24,2.6-.91,2.6s-1-1.92-1-2.67.32-1.53,1-1.53S19,89.65,19,90.41Z"/><path class="cls-2" d="M21.75,95.14c-.75,0-2.59-.24-2.59-.91s1.91-1,2.67-1,1.52.31,1.52,1S22.51,95.14,21.75,95.14Z"/><path class="cls-2" d="M17.05,98c0-.76.24-2.59.91-2.59s1,1.91,1,2.67-.32,1.52-1,1.52S17.05,98.74,17.05,98Z"/><rect class="cls-2" x="24" y="88" width="12" height="12"/><path class="cls-3" d="M30,91.31l6,1.09a6.14,6.14,0,0,1-6,5,5.8,5.8,0,0,1-6-4.81C26.11,92.21,28,91.54,30,91.31Z"/><ellipse class="cls-1" cx="29.13" cy="94.25" rx="3.06" ry="0.37" transform="translate(-69.5 95.76) rotate(-73.7)"/><ellipse class="cls-1" cx="27.69" cy="93.38" rx="3.08" ry="0.37" transform="translate(-55.06 42.01) rotate(-41.65)"/><ellipse class="cls-1" cx="31.95" cy="93.57" rx="0.37" ry="3.07" transform="translate(-55.37 47.2) rotate(-43.18)"/><ellipse class="cls-1" cx="30.46" cy="94.3" rx="0.37" ry="3.05" transform="translate(-17.55 7.61) rotate(-11.07)"/><ellipse class="cls-1" cx="32.95" cy="91.89" rx="0.37" ry="3.05" transform="translate(-63.2 108.75) rotate(-80.22)"/><ellipse class="cls-1" cx="27.03" cy="91.97" rx="3.06" ry="0.37" transform="translate(-17.86 7.27) rotate(-11.55)"/><rect class="cls-2" x="43.95" y="87.91" width="12" height="12"/><path class="cls-3" d="M50.71,91.81c0,1.06-.39,1.92-.87,1.92S49,92.87,49,91.81s.39-2.92.88-2.92S50.71,90.75,50.71,91.81Z"/><path class="cls-3" d="M51.76,94.6c-1.06,0-1.92-.39-1.92-.87s.86-.88,1.92-.88,2.92.39,2.92.88S52.82,94.6,51.76,94.6Z"/><path class="cls-3" d="M49,95.65c0-1.06.39-1.92.88-1.92s.87.86.87,1.92-.39,2.92-.87,2.92S49,96.71,49,95.65Z"/><path class="cls-3" d="M47.92,92.72c1.06,0,1.92.4,1.92.88s-.86.87-1.92.87S45,94.08,45,93.6,46.86,92.72,47.92,92.72Z"/><path class="cls-3" d="M51.81,93c-.75.75-1.63,1.09-2,.74s0-1.22.74-2,2.34-1.79,2.68-1.45S52.56,92.29,51.81,93Z"/><path class="cls-3" d="M50.58,95.75c-.75-.75-1.09-1.63-.74-2s1.22,0,2,.74,1.79,2.34,1.45,2.68S51.32,96.5,50.58,95.75Z"/><path class="cls-3" d="M47.86,94.51c.75-.75,1.63-1.08,2-.74s0,1.23-.74,2-2.34,1.79-2.68,1.44S47.11,95.26,47.86,94.51Z"/><path class="cls-3" d="M49.19,91.71c.75.75,1.08,1.63.74,2s-1.23,0-2-.74-1.79-2.34-1.44-2.68S48.44,91,49.19,91.71Z"/><path class="cls-2" d="M49.83,92.64c.18.48.16.93,0,1s-.51-.23-.69-.71-.32-1.37-.12-1.46S49.66,92.17,49.83,92.64Z"/><path class="cls-2" d="M50.89,93.76c-.45.19-.88.16-1-.05s.22-.55.67-.73,1.31-.34,1.39-.12S51.34,93.58,50.89,93.76Z"/><path class="cls-2" d="M49.8,94.72c-.18-.47-.16-.93.05-1s.51.23.69.7.32,1.38.11,1.46S50,95.19,49.8,94.72Z"/><path class="cls-2" d="M48.86,93.6c.45-.19.89-.17,1,.05s-.22.54-.67.73-1.16.31-1.24.09S48.41,93.78,48.86,93.6Z"/><path class="cls-2" d="M50.57,93.11c-.19.46-.51.77-.72.67s-.2-.54,0-1,.7-1.21.9-1.12S50.76,92.64,50.57,93.11Z"/><path class="cls-2" d="M50.5,94.42c-.45-.2-.73-.54-.65-.75s.52-.22,1,0,1.15.74,1.06.95S50.94,94.63,50.5,94.42Z"/><path class="cls-2" d="M49.14,94.41c.19-.47.51-.78.71-.68s.21.54,0,1-.7,1.21-.9,1.12S49,94.87,49.14,94.41Z"/><path class="cls-2" d="M49.11,92.92c.44.2.73.54.64.75s-.52.22-1,0-1.15-.74-1.06-1S48.66,92.71,49.11,92.92Z"/><rect class="cls-2" x="88" y="43.97" width="12" height="12"/><path class="cls-3" d="M94.76,47.87c0,1.06-.39,1.92-.87,1.92S93,48.93,93,47.87,93.4,45,93.89,45,94.76,46.81,94.76,47.87Z"/><path class="cls-3" d="M95.81,50.66c-1.06,0-1.92-.39-1.92-.87s.86-.88,1.92-.88,2.91.4,2.91.88S96.87,50.66,95.81,50.66Z"/><path class="cls-3" d="M93,51.71c0-1.06.39-1.92.88-1.92s.87.86.87,1.92-.39,2.92-.87,2.92S93,52.77,93,51.71Z"/><path class="cls-3" d="M92,48.78c1.06,0,1.92.4,1.92.88s-.86.88-1.92.88-2.92-.4-2.92-.88S90.91,48.78,92,48.78Z"/><path class="cls-3" d="M95.86,49.1c-.75.75-1.63,1.08-2,.73s0-1.22.73-2,2.35-1.79,2.69-1.45S96.61,48.35,95.86,49.1Z"/><path class="cls-3" d="M94.62,51.81c-.75-.75-1.08-1.63-.73-2s1.22,0,2,.74,1.79,2.34,1.45,2.69S95.37,52.56,94.62,51.81Z"/><path class="cls-3" d="M91.91,50.57c.75-.75,1.63-1.08,2-.74s0,1.23-.74,2-2.34,1.79-2.69,1.45S91.16,51.32,91.91,50.57Z"/><path class="cls-3" d="M93.24,47.77c.75.75,1.08,1.63.74,2s-1.23,0-2-.74-1.79-2.34-1.44-2.68S92.49,47,93.24,47.77Z"/><path class="cls-2" d="M93.88,48.71c.18.47.16.92,0,1s-.51-.23-.69-.71-.32-1.37-.12-1.46S93.71,48.23,93.88,48.71Z"/><path class="cls-2" d="M94.94,49.82c-.45.19-.88.16-1,0s.22-.54.67-.73S96,48.7,96,48.92,95.39,49.64,94.94,49.82Z"/><path class="cls-2" d="M93.84,50.78c-.17-.47-.15-.93.06-1s.51.23.69.7.32,1.38.11,1.46S94,51.26,93.84,50.78Z"/><path class="cls-2" d="M92.91,49.66c.45-.19.88-.17,1,.05s-.21.54-.66.73-1.16.31-1.24.1S92.46,49.84,92.91,49.66Z"/><path class="cls-2" d="M94.62,49.17c-.19.47-.51.77-.72.68s-.21-.55,0-1,.69-1.21.9-1.12S94.81,48.7,94.62,49.17Z"/><path class="cls-2" d="M94.55,50.49c-.45-.21-.73-.55-.65-.76s.52-.22,1,0,1.15.74,1.06.95S95,50.69,94.55,50.49Z"/><path class="cls-2" d="M93.19,50.47c.19-.47.51-.77.71-.68s.21.55,0,1-.7,1.21-.9,1.12S93,50.93,93.19,50.47Z"/><path class="cls-2" d="M93.16,49c.44.2.73.54.64.75s-.52.22-1,0-1.15-.73-1.07-1S92.71,48.77,93.16,49Z"/><rect class="cls-2" x="0.06" y="44.16" width="12" height="12"/><path class="cls-3" d="M6.82,48.06C6.82,49.12,6.43,50,6,50s-.88-.86-.88-1.92.39-2.92.88-2.92S6.82,47,6.82,48.06Z"/><path class="cls-3" d="M7.87,50.85C6.81,50.85,6,50.46,6,50s.86-.88,1.92-.88,2.91.39,2.91.88S8.93,50.85,7.87,50.85Z"/><path class="cls-3" d="M5.07,51.9c0-1.06.39-1.92.88-1.92s.87.86.87,1.92S6.43,54.82,6,54.82,5.07,53,5.07,51.9Z"/><path class="cls-3" d="M4,49c1.06,0,1.92.4,1.92.88s-.86.87-1.92.87-2.92-.39-2.92-.87S3,49,4,49Z"/><path class="cls-3" d="M7.92,49.29C7.17,50,6.29,50.37,6,50s0-1.22.73-2S9,46.26,9.37,46.6,8.67,48.54,7.92,49.29Z"/><path class="cls-3" d="M6.68,52c-.75-.75-1.08-1.63-.73-2s1.22,0,2,.74,1.79,2.34,1.45,2.69S7.43,52.75,6.68,52Z"/><path class="cls-3" d="M4,50.76C4.72,50,5.6,49.68,6,50s0,1.23-.74,2-2.34,1.79-2.69,1.45S3.22,51.51,4,50.76Z"/><path class="cls-3" d="M5.3,48c.75.75,1.08,1.63.74,2s-1.23,0-2-.74-1.79-2.34-1.44-2.68S4.55,47.21,5.3,48Z"/><path class="cls-2" d="M5.94,48.89c.18.48.16.93-.05,1s-.51-.23-.69-.71-.32-1.37-.12-1.46S5.77,48.42,5.94,48.89Z"/><path class="cls-2" d="M7,50c-.45.19-.88.16-1,0s.22-.55.67-.73S8,48.89,8.1,49.11,7.45,49.83,7,50Z"/><path class="cls-2" d="M5.91,51c-.18-.47-.16-.93,0-1s.51.23.69.7S7,52,6.76,52.12,6.08,51.44,5.91,51Z"/><path class="cls-2" d="M5,49.85c.45-.19.88-.17,1,0s-.22.54-.67.73-1.16.31-1.24.09S4.52,50,5,49.85Z"/><path class="cls-2" d="M6.68,49.36c-.19.46-.51.77-.72.67s-.21-.54,0-1,.69-1.21.9-1.12S6.87,48.89,6.68,49.36Z"/><path class="cls-2" d="M6.61,50.67c-.45-.2-.73-.54-.65-.75s.52-.22,1,0,1.15.74,1.06,1S7.05,50.88,6.61,50.67Z"/><path class="cls-2" d="M5.25,50.66c.19-.47.51-.78.71-.68s.21.54,0,1-.7,1.21-.9,1.12S5.05,51.12,5.25,50.66Z"/><path class="cls-2" d="M5.22,49.17c.44.2.73.54.64.75s-.52.22-1,0S3.75,49.2,3.84,49,4.77,49,5.22,49.17Z"/></g></svg>