<svg id="Laag_1" data-name="Laag 1" xmlns="http://www.w3.org/2000/svg" viewBox="0 0 566.93 566.93"><defs><style>.cls-1,.cls-4{fill:#f8b60d;}.cls-2,.cls-5{fill:#146ea2;}.cls-3{fill:#fff;}.cls-4,.cls-5{fill-rule:evenodd;}</style></defs><rect class="cls-1" y="560.13" width="6.8" height="6.8"/><rect class="cls-1" x="61.23" y="560.13" width="6.8" height="6.8"/><rect class="cls-1" x="498.9" y="560.13" width="6.8" height="6.8"/><rect class="cls-1" x="560.13" y="560.13" width="6.8" height="6.8"/><rect class="cls-2" x="294.8" y="560.13" width="6.8" height="6.8"/><rect class="cls-2" x="356.03" y="560.13" width="6.8" height="6.8"/><rect class="cls-3" width="566.93" height="566.93"/><rect class="cls-2" width="68.03" height="68.03"/><rect class="cls-1" x="21.77" y="21.77" width="24.49" height="24.49"/><rect class="cls-1" x="13.61" y="29.93" width="40.82" height="8.16"/><rect class="cls-1" x="29.93" y="13.61" width="8.16" height="40.82"/><rect class="cls-1" width="6.8" height="6.8"/><rect class="cls-1" x="61.23" width="6.8" height="6.8"/><rect class="cls-1" y="61.23" width="6.8" height="6.8"/><rect class="cls-1" x="61.23" y="61.23" width="6.8" height="6.8"/><ellipse class="cls-2" cx="34.12" cy="19.8" rx="14.29" ry="2.72" transform="matrix(0, -1, 1, 0, 14.24, 53.86)"/><ellipse class="cls-2" cx="34.05" cy="48.37" rx="14.29" ry="2.72" transform="translate(-14.41 82.29) rotate(-89.85)"/><ellipse class="cls-2" cx="19.8" cy="34.05" rx="2.72" ry="14.29" transform="translate(-14.3 53.75) rotate(-89.85)"/><ellipse class="cls-2" cx="48.37" cy="34.2" rx="2.72" ry="14.29" transform="translate(14.05 82.48) rotate(-89.85)"/><rect class="cls-2" x="498.9" width="68.03" height="68.03"/><rect class="cls-1" x="520.67" y="21.77" width="24.49" height="24.49"/><rect class="cls-1" x="512.5" y="29.93" width="40.82" height="8.16"/><rect class="cls-1" x="528.83" y="13.61" width="8.16" height="40.82"/><rect class="cls-1" x="498.9" width="6.8" height="6.8"/><rect class="cls-1" x="560.13" width="6.8" height="6.8"/><rect class="cls-1" x="498.9" y="61.23" width="6.8" height="6.8"/><rect class="cls-1" x="560.13" y="61.23" width="6.8" height="6.8"/><ellipse class="cls-2" cx="533.02" cy="19.8" rx="14.29" ry="2.72" transform="matrix(0, -1, 1, 0, 511.84, 552.76)"/><ellipse class="cls-2" cx="532.94" cy="48.37" rx="14.29" ry="2.72" transform="matrix(0, -1, 1, 0, 483.19, 581.19)"/><ellipse class="cls-2" cx="518.69" cy="34.05" rx="2.72" ry="14.29" transform="translate(483.3 552.65) rotate(-89.85)"/><ellipse class="cls-2" cx="547.27" cy="34.2" rx="2.72" ry="14.29" transform="translate(511.65 581.37) rotate(-89.85)"/><rect class="cls-2" y="498.9" width="68.03" height="68.03"/><rect class="cls-1" x="21.77" y="520.67" width="24.49" height="24.49"/><rect class="cls-1" x="13.61" y="528.83" width="40.82" height="8.16"/><rect class="cls-1" x="29.93" y="512.5" width="8.16" height="40.82"/><rect class="cls-1" y="498.9" width="6.8" height="6.8"/><rect class="cls-1" x="61.23" y="498.9" width="6.8" height="6.8"/><ellipse class="cls-2" cx="34.12" cy="518.69" rx="14.29" ry="2.72" transform="matrix(0, -1, 1, 0, -484.66, 551.47)"/><ellipse class="cls-2" cx="34.05" cy="547.27" rx="14.29" ry="2.72" transform="translate(-513.31 579.89) rotate(-89.85)"/><ellipse class="cls-2" cx="19.8" cy="532.94" rx="2.72" ry="14.29" transform="translate(-513.2 551.35) rotate(-89.85)"/><ellipse class="cls-2" cx="48.37" cy="533.09" rx="2.72" ry="14.29" transform="translate(-484.85 580.08) rotate(-89.85)"/><rect class="cls-2" x="498.9" y="498.9" width="68.03" height="68.03"/><rect class="cls-1" x="520.67" y="520.67" width="24.49" height="24.49"/><rect class="cls-1" x="512.5" y="528.83" width="40.82" height="8.16"/><rect class="cls-1" x="528.83" y="512.5" width="8.16" height="40.82"/><rect class="cls-1" x="498.9" y="498.9" width="6.8" height="6.8"/><rect class="cls-1" x="560.13" y="498.9" width="6.8" height="6.8"/><ellipse class="cls-2" cx="533.02" cy="518.69" rx="14.29" ry="2.72" transform="translate(12.94 1050.36) rotate(-89.85)"/><ellipse class="cls-2" cx="532.94" cy="547.27" rx="14.29" ry="2.72" transform="translate(-15.71 1078.79) rotate(-89.85)"/><ellipse class="cls-2" cx="518.69" cy="532.94" rx="2.72" ry="14.29" transform="translate(-15.6 1050.25) rotate(-89.85)"/><ellipse class="cls-2" cx="547.27" cy="533.09" rx="2.72" ry="14.29" transform="translate(12.75 1078.97) rotate(-89.85)"/><path class="cls-1" d="M498.9,498.9h-34v32.59c.77-2.19,3.92-6.34,8.18-10.6,5.58-5.58,11-9.24,12-8.18s-2.59,6.45-8.17,12c-4.34,4.34-8.55,7.51-10.72,8.22,2.18.74,6.37,3.9,10.66,8.2,5.58,5.57,9.24,11,8.18,12s-6.45-2.6-12-8.18c-4.16-4.17-7.26-8.23-8.12-10.46v32.4h34Z" transform="translate(0 0)"/><path class="cls-4" d="M430.87,498.9h34v32.59c-.77-2.19-3.91-6.34-8.18-10.6-5.58-5.58-11-9.24-12-8.18s2.6,6.45,8.17,12c4.27,4.27,8.42,7.41,10.61,8.18-2.19.77-6.34,3.92-10.61,8.18-5.57,5.58-9.24,11-8.17,12s6.44-2.6,12-8.18c4.2-4.2,7.31-8.29,8.14-10.51l0-.1v32.6h-34Zm34,34h0Z" transform="translate(0 0)"/><path class="cls-2" d="M456.7,520.89c-5.58-5.58-11-9.24-12-8.18s2.6,6.45,8.17,12c4.27,4.27,8.42,7.41,10.61,8.18.68-.24,1.17-.25,1.42,0-.25-.25-.24-.74,0-1.42C464.11,529.3,461,525.15,456.7,520.89Z" transform="translate(0 0)"/><path class="cls-5" d="M464.88,534.53v-.2l0,.1Zm0-1.61h0Z" transform="translate(0 0)"/><path class="cls-2" d="M444.68,553.12c1.06,1.06,6.44-2.6,12-8.18,4.2-4.2,7.31-8.29,8.14-10.51-.25-.7-.27-1.21,0-1.46l.05-.05h0c-.25.25-.74.24-1.42,0-2.19.77-6.34,3.92-10.61,8.18C447.28,546.67,443.61,552.05,444.68,553.12Z" transform="translate(0 0)"/><path class="cls-2" d="M473,545c5.58,5.58,11,9.24,12,8.18s-2.6-6.45-8.18-12c-4.29-4.3-8.48-7.46-10.66-8.2-.62.2-1.07.2-1.31,0,.25.25.24.74,0,1.41v.2C465.74,536.76,468.84,540.82,473,545Z" transform="translate(0 0)"/><path class="cls-2" d="M485.08,512.71c-1.06-1.06-6.44,2.6-12,8.18-4.26,4.26-7.41,8.41-8.18,10.6.24.68.25,1.17,0,1.42h0c.26-.2.71-.18,1.31,0,2.17-.71,6.38-3.88,10.72-8.22C482.49,519.16,486.15,513.77,485.08,512.71Z" transform="translate(0 0)"/><path class="cls-2" d="M464.88,532.91c-.25-.25-.74-.24-1.42,0C464.14,533.15,464.63,533.16,464.88,532.91Z" transform="translate(0 0)"/><path class="cls-2" d="M464.88,532.92c.24.23.69.23,1.31,0C465.59,532.74,465.14,532.72,464.88,532.92Z" transform="translate(0 0)"/><path class="cls-2" d="M464.88,532.91c.25-.25.24-.74,0-1.42Z" transform="translate(0 0)"/><path class="cls-2" d="M464.88,531.49c-.24.68-.25,1.17,0,1.42Z" transform="translate(0 0)"/><path class="cls-2" d="M464.83,533c-.26.25-.24.76,0,1.46l0-.1v-1.41Z" transform="translate(0 0)"/><path class="cls-2" d="M464.88,534.33c.24-.67.25-1.16,0-1.41h0Z" transform="translate(0 0)"/><path class="cls-1" d="M68,430.87H34v32.59c.77-2.19,3.91-6.34,8.17-10.61,5.58-5.57,11-9.24,12-8.17s-2.6,6.44-8.18,12c-4.33,4.34-8.55,7.51-10.71,8.22,2.18.74,6.36,3.9,10.66,8.19,5.58,5.58,9.24,11,8.18,12s-6.45-2.6-12-8.18C38,472.79,34.87,468.73,34,466.5v32.4H68Z" transform="translate(0 0)"/><path class="cls-4" d="M0,430.87H34v32.59c-.78-2.19-3.92-6.34-8.18-10.61-5.58-5.57-11-9.24-12-8.17s2.6,6.44,8.18,12c4.26,4.27,8.41,7.41,10.6,8.18-2.19.77-6.34,3.92-10.6,8.18-5.58,5.58-9.24,11-8.18,12s6.45-2.6,12-8.18c4.19-4.2,7.31-8.29,8.14-10.51l0-.1v32.6H0Zm34,34h0Z" transform="translate(0 0)"/><path class="cls-2" d="M25.84,452.85c-5.58-5.57-11-9.24-12-8.17s2.6,6.44,8.18,12c4.26,4.27,8.41,7.41,10.6,8.18.68-.24,1.17-.25,1.43,0-.26-.25-.24-.74,0-1.42C33.24,461.27,30.1,457.12,25.84,452.85Z" transform="translate(0 0)"/><path class="cls-5" d="M34,466.5v-.2l0,.1Zm0-1.61h0Z" transform="translate(0 0)"/><path class="cls-2" d="M13.81,485.09c1.06,1.06,6.45-2.6,12-8.18,4.19-4.2,7.31-8.29,8.14-10.51-.26-.7-.28-1.21,0-1.46l.06-.05h0c-.26.25-.75.24-1.43,0-2.19.77-6.34,3.92-10.6,8.18C16.41,478.64,12.75,484,13.81,485.09Z" transform="translate(0 0)"/><path class="cls-2" d="M42.14,477c5.58,5.58,11,9.24,12,8.18s-2.6-6.45-8.18-12c-4.3-4.29-8.48-7.45-10.66-8.19-.62.2-1.07.2-1.31,0,.25.25.23.74,0,1.41v.2C34.87,468.73,38,472.79,42.14,477Z" transform="translate(0 0)"/><path class="cls-2" d="M54.22,444.68c-1.06-1.07-6.45,2.6-12,8.17-4.26,4.27-7.4,8.42-8.17,10.61.23.68.25,1.17,0,1.42h0c.26-.2.71-.18,1.31,0,2.16-.71,6.38-3.88,10.71-8.22C51.62,451.12,55.28,445.74,54.22,444.68Z" transform="translate(0 0)"/><path class="cls-2" d="M34,464.88c-.26-.25-.75-.24-1.43,0C33.27,465.12,33.76,465.13,34,464.88Z" transform="translate(0 0)"/><path class="cls-2" d="M34,464.89c.24.23.69.23,1.31,0C34.73,464.71,34.28,464.69,34,464.89Z" transform="translate(0 0)"/><path class="cls-2" d="M34,464.88c.25-.25.23-.74,0-1.42Z" transform="translate(0 0)"/><path class="cls-2" d="M34,463.46c-.24.68-.26,1.17,0,1.42Z" transform="translate(0 0)"/><path class="cls-2" d="M34,464.94c-.26.25-.24.76,0,1.46l0-.1v-1.41Z" transform="translate(0 0)"/><path class="cls-2" d="M34,466.3c.23-.67.25-1.16,0-1.41h0Z" transform="translate(0 0)"/><path class="cls-1" d="M136.06,0h-34V32.6c.77-2.2,3.91-6.35,8.17-10.61,5.58-5.58,11-9.24,12-8.18s-2.6,6.45-8.18,12c-4.33,4.33-8.54,7.51-10.71,8.21,2.18.74,6.36,3.9,10.66,8.2,5.58,5.58,9.24,11,8.18,12s-6.45-2.59-12-8.17c-4.17-4.17-7.27-8.23-8.12-10.46V68h34Z" transform="translate(0 0)"/><path class="cls-4" d="M68,0h34V32.6c-.78-2.2-3.92-6.35-8.18-10.61-5.58-5.58-11-9.24-12-8.18s2.6,6.45,8.18,12c4.26,4.26,8.41,7.4,10.61,8.18-2.2.77-6.35,3.91-10.61,8.17-5.58,5.58-9.24,11-8.18,12s6.45-2.6,12-8.18c4.2-4.2,7.31-8.28,8.14-10.5l0-.1V68H68Zm34,34Z" transform="translate(0 0)"/><path class="cls-2" d="M93.87,22c-5.58-5.58-11-9.24-12-8.18s2.6,6.45,8.18,12c4.26,4.26,8.41,7.4,10.61,8.18.67-.24,1.17-.26,1.42,0-.25-.26-.24-.75,0-1.42C101.27,30.4,98.13,26.25,93.87,22Z" transform="translate(0 0)"/><path class="cls-5" d="M102.05,35.64v-.2l0,.1Zm0-1.62Z" transform="translate(0 0)"/><path class="cls-2" d="M81.84,54.22c1.06,1.06,6.45-2.6,12-8.18,4.2-4.2,7.31-8.28,8.14-10.5-.26-.7-.27-1.21,0-1.47l.06,0h0c-.25.25-.75.23-1.42,0-2.2.77-6.35,3.91-10.61,8.17C84.44,47.77,80.78,53.16,81.84,54.22Z" transform="translate(0 0)"/><path class="cls-2" d="M110.17,46.1c5.58,5.58,11,9.24,12,8.17s-2.6-6.44-8.18-12c-4.3-4.3-8.48-7.46-10.66-8.2-.62.2-1.07.2-1.31,0,.25.25.23.74,0,1.42v.2C102.9,37.87,106,41.93,110.17,46.1Z" transform="translate(0 0)"/><path class="cls-2" d="M122.25,13.81c-1.06-1.06-6.45,2.6-12,8.18-4.26,4.26-7.4,8.41-8.17,10.61.24.67.25,1.16,0,1.42h0a1.52,1.52,0,0,1,1.31,0c2.17-.7,6.38-3.88,10.71-8.21C119.65,20.26,123.31,14.87,122.25,13.81Z" transform="translate(0 0)"/><path class="cls-2" d="M102.05,34c-.25-.26-.75-.24-1.42,0C101.3,34.25,101.8,34.27,102.05,34Z" transform="translate(0 0)"/><path class="cls-2" d="M102.05,34c.24.23.69.23,1.31,0A1.52,1.52,0,0,0,102.05,34Z" transform="translate(0 0)"/><path class="cls-2" d="M102.05,34c.25-.26.24-.75,0-1.42Z" transform="translate(0 0)"/><path class="cls-2" d="M102.05,32.6c-.24.67-.25,1.16,0,1.42Z" transform="translate(0 0)"/><path class="cls-2" d="M102,34.07c-.25.26-.24.77,0,1.47l0-.1V34Z" transform="translate(0 0)"/><path class="cls-2" d="M102.05,35.44c.23-.68.25-1.17,0-1.42h0Z" transform="translate(0 0)"/><path class="cls-1" d="M566.93,68h-34v32.6c.77-2.2,3.92-6.35,8.18-10.61,5.58-5.58,11-9.24,12-8.18s-2.6,6.45-8.18,12c-4.33,4.33-8.55,7.51-10.71,8.21,2.18.74,6.36,3.9,10.65,8.2,5.58,5.58,9.24,11,8.18,12s-6.45-2.6-12-8.18c-4.17-4.17-7.27-8.23-8.13-10.46v32.39h34Z" transform="translate(0 0)"/><path class="cls-4" d="M498.9,68h34v32.6c-.77-2.2-3.91-6.35-8.18-10.61-5.57-5.58-11-9.24-12-8.18s2.6,6.45,8.18,12c4.26,4.26,8.41,7.4,10.6,8.18-2.19.77-6.34,3.91-10.6,8.17-5.58,5.58-9.24,11-8.18,12s6.45-2.6,12-8.18c4.2-4.19,7.31-8.28,8.14-10.5l0-.1v32.59h-34Zm34,34Z" transform="translate(0 0)"/><path class="cls-2" d="M524.73,90c-5.57-5.58-11-9.24-12-8.18s2.6,6.45,8.18,12c4.26,4.26,8.41,7.4,10.6,8.18.68-.24,1.17-.25,1.42,0-.25-.25-.24-.75,0-1.42C532.14,98.43,529,94.28,524.73,90Z" transform="translate(0 0)"/><path class="cls-5" d="M532.91,103.67v-.2l0,.1Zm0-1.62Z" transform="translate(0 0)"/><path class="cls-2" d="M512.71,122.25c1.06,1.06,6.45-2.6,12-8.18,4.2-4.19,7.31-8.28,8.14-10.5-.25-.7-.27-1.21,0-1.47l0,0h0c-.25.25-.74.24-1.42,0-2.19.77-6.34,3.91-10.6,8.17C515.31,115.8,511.65,121.19,512.71,122.25Z" transform="translate(0 0)"/><path class="cls-2" d="M541,114.13c5.57,5.58,11,9.24,12,8.18s-2.6-6.45-8.18-12c-4.29-4.3-8.47-7.46-10.65-8.2-.62.21-1.08.2-1.31,0,.24.25.23.74,0,1.42v.2C533.77,105.9,536.87,110,541,114.13Z" transform="translate(0 0)"/><path class="cls-2" d="M553.12,81.84c-1.07-1.06-6.45,2.6-12,8.18-4.26,4.26-7.41,8.41-8.18,10.61.24.67.25,1.17,0,1.42h0c.25-.19.7-.17,1.31,0,2.16-.7,6.38-3.88,10.71-8.21C550.52,88.29,554.18,82.91,553.12,81.84Z" transform="translate(0 0)"/><path class="cls-2" d="M532.91,102.05c-.25-.25-.74-.24-1.42,0C532.17,102.29,532.66,102.3,532.91,102.05Z" transform="translate(0 0)"/><path class="cls-2" d="M532.92,102.05c.23.23.69.24,1.31,0C533.62,101.88,533.17,101.86,532.92,102.05Z" transform="translate(0 0)"/><path class="cls-2" d="M532.91,102.05c.25-.25.24-.75,0-1.42Z" transform="translate(0 0)"/><path class="cls-2" d="M532.91,100.63c-.24.67-.25,1.17,0,1.42Z" transform="translate(0 0)"/><path class="cls-2" d="M532.86,102.1c-.26.26-.24.77,0,1.47l0-.1v-1.42Z" transform="translate(0 0)"/><path class="cls-2" d="M532.91,103.47c.24-.68.25-1.17,0-1.42h0Z" transform="translate(0 0)"/><rect class="cls-1" y="68.03" width="68.03" height="68.03"/><rect class="cls-2" x="21.77" y="89.8" width="24.49" height="24.49"/><rect class="cls-2" x="13.61" y="97.97" width="40.82" height="8.16"/><rect class="cls-2" x="29.93" y="81.64" width="8.16" height="40.82"/><rect class="cls-1" x="68.03" y="498.9" width="68.03" height="68.03"/><rect class="cls-2" x="89.8" y="520.67" width="24.49" height="24.49"/><rect class="cls-2" x="81.64" y="528.83" width="40.82" height="8.16"/><rect class="cls-2" x="97.97" y="512.5" width="8.16" height="40.82"/><rect class="cls-1" x="498.9" y="430.87" width="68.03" height="68.03"/><rect class="cls-2" x="520.67" y="452.64" width="24.49" height="24.49"/><rect class="cls-2" x="512.5" y="460.8" width="40.82" height="8.16"/><rect class="cls-2" x="528.83" y="444.47" width="8.16" height="40.82"/><rect class="cls-1" x="430.87" width="68.03" height="68.03"/><rect class="cls-2" x="452.64" y="21.77" width="24.49" height="24.49"/><rect class="cls-2" x="444.47" y="29.93" width="40.82" height="8.16"/><rect class="cls-2" x="460.8" y="13.61" width="8.16" height="40.82"/><rect class="cls-2" y="136.06" width="68.03" height="68.03"/><rect class="cls-1" x="27.21" y="136.06" width="13.61" height="68.03"/><rect class="cls-1" y="163.28" width="68.03" height="13.61"/><rect class="cls-2" x="362.83" y="498.9" width="68.03" height="68.03"/><rect class="cls-1" x="390.05" y="498.9" width="13.61" height="68.03"/><rect class="cls-1" x="362.83" y="526.11" width="68.03" height="13.61"/><rect class="cls-2" x="136.06" width="68.03" height="68.03"/><rect class="cls-1" x="163.28" width="13.61" height="68.03"/><rect class="cls-1" x="136.06" y="27.21" width="68.03" height="13.61"/><rect class="cls-2" x="498.9" y="362.83" width="68.03" height="68.03"/><rect class="cls-1" x="526.11" y="362.83" width="13.61" height="68.03"/><rect class="cls-1" x="498.9" y="390.05" width="68.03" height="13.61"/><rect class="cls-2" x="498.9" y="136.06" width="68.03" height="68.03"/><rect class="cls-1" x="526.11" y="136.06" width="13.61" height="68.03"/><rect class="cls-1" x="498.9" y="163.28" width="68.03" height="13.61"/><rect class="cls-2" x="136.06" y="498.9" width="68.03" height="68.03"/><rect class="cls-1" x="163.28" y="498.9" width="13.61" height="68.03"/><rect class="cls-1" x="136.06" y="526.11" width="68.03" height="13.61"/><rect class="cls-2" y="366.61" width="68.03" height="68.03"/><rect class="cls-1" x="27.21" y="366.61" width="13.61" height="68.03"/><rect class="cls-1" y="393.83" width="68.03" height="13.61"/><rect class="cls-1" x="204.09" width="68.03" height="68.03"/><rect class="cls-2" x="225.86" y="21.77" width="24.49" height="24.49"/><rect class="cls-2" x="217.7" y="29.93" width="40.82" height="8.16"/><rect class="cls-2" x="234.03" y="13.61" width="8.16" height="40.82"/><rect class="cls-2" x="204.09" width="6.8" height="6.8"/><rect class="cls-2" x="265.32" width="6.8" height="6.8"/><rect class="cls-2" x="204.09" y="61.23" width="6.8" height="6.8"/><rect class="cls-2" x="265.32" y="61.23" width="6.8" height="6.8"/><path class="cls-1" d="M249.73,25.43c-5.58,5.58-11,9.24-12,8.18s2.6-6.45,8.18-12,11-9.24,12-8.18S255.3,19.85,249.73,25.43Z" transform="translate(0 0)"/><path class="cls-1" d="M229.52,45.63c-5.58,5.58-11,9.24-12,8.18s2.6-6.45,8.18-12,11-9.24,12-8.17S235.1,40.05,229.52,45.63Z" transform="translate(0 0)"/><path class="cls-1" d="M225.67,25.43c5.58,5.58,11,9.24,12,8.18s-2.6-6.45-8.18-12-11-9.24-12-8.18S220.09,19.85,225.67,25.43Z" transform="translate(0 0)"/><path class="cls-1" d="M245.82,45.69c5.58,5.58,11,9.24,12,8.17s-2.6-6.44-8.18-12-11-9.24-12-8.18S240.24,40.11,245.82,45.69Z" transform="translate(0 0)"/><rect class="cls-1" x="498.9" y="204.09" width="68.03" height="68.03"/><rect class="cls-2" x="520.67" y="225.86" width="24.49" height="24.49"/><rect class="cls-2" x="512.5" y="234.03" width="40.82" height="8.16"/><rect class="cls-2" x="528.83" y="217.7" width="8.16" height="40.82"/><rect class="cls-2" x="498.9" y="204.09" width="6.8" height="6.8"/><rect class="cls-2" x="560.13" y="204.09" width="6.8" height="6.8"/><rect class="cls-2" x="498.9" y="265.32" width="6.8" height="6.8"/><rect class="cls-2" x="560.13" y="265.32" width="6.8" height="6.8"/><path class="cls-1" d="M544.53,229.52c-5.58,5.58-11,9.24-12,8.18s2.6-6.45,8.18-12,11-9.24,12-8.17S550.11,223.94,544.53,229.52Z" transform="translate(0 0)"/><path class="cls-1" d="M524.32,249.73c-5.58,5.58-11,9.24-12,8.17s2.6-6.44,8.18-12,11-9.24,12-8.18S529.9,244.15,524.32,249.73Z" transform="translate(0 0)"/><path class="cls-1" d="M520.48,229.52c5.57,5.58,11,9.24,12,8.18s-2.6-6.45-8.18-12-11-9.24-12-8.17S514.9,223.94,520.48,229.52Z" transform="translate(0 0)"/><path class="cls-1" d="M540.63,249.78c5.58,5.58,11,9.24,12,8.18s-2.6-6.45-8.18-12-11-9.24-12-8.18S535.05,244.2,540.63,249.78Z" transform="translate(0 0)"/><rect class="cls-1" x="294.8" y="498.9" width="68.03" height="68.03"/><rect class="cls-2" x="316.57" y="520.67" width="24.49" height="24.49"/><rect class="cls-2" x="308.41" y="528.83" width="40.82" height="8.16"/><rect class="cls-2" x="324.74" y="512.5" width="8.16" height="40.82"/><rect class="cls-2" x="294.8" y="498.9" width="6.8" height="6.8"/><rect class="cls-2" x="356.03" y="498.9" width="6.8" height="6.8"/><path class="cls-1" d="M340.43,524.32c-5.58,5.58-11,9.25-12,8.18s2.6-6.44,8.18-12,11-9.24,12-8.18S346,518.75,340.43,524.32Z" transform="translate(0 0)"/><path class="cls-1" d="M320.23,544.53c-5.58,5.58-11,9.24-12,8.18s2.6-6.45,8.18-12,11-9.24,12-8.18S325.81,539,320.23,544.53Z" transform="translate(0 0)"/><path class="cls-1" d="M316.38,524.32c5.58,5.58,11,9.25,12,8.18s-2.6-6.44-8.18-12-11-9.24-12-8.18S310.8,518.75,316.38,524.32Z" transform="translate(0 0)"/><path class="cls-1" d="M336.53,544.58c5.58,5.58,11,9.24,12,8.18s-2.6-6.45-8.18-12-11-9.24-12-8.17S331,539,336.53,544.58Z" transform="translate(0 0)"/><rect class="cls-1" y="298.58" width="68.03" height="68.03"/><rect class="cls-2" x="21.77" y="320.35" width="24.49" height="24.49"/><rect class="cls-2" x="13.61" y="328.52" width="40.82" height="8.16"/><rect class="cls-2" x="29.93" y="312.19" width="8.16" height="40.82"/><rect class="cls-2" y="298.58" width="6.8" height="6.8"/><rect class="cls-2" x="61.23" y="298.58" width="6.8" height="6.8"/><rect class="cls-2" y="359.81" width="6.8" height="6.8"/><rect class="cls-2" x="61.23" y="359.81" width="6.8" height="6.8"/><path class="cls-1" d="M45.63,324c-5.58,5.58-11,9.24-12,8.18s2.6-6.45,8.18-12,11-9.24,12-8.18S51.21,318.43,45.63,324Z" transform="translate(0 0)"/><path class="cls-1" d="M25.43,344.21c-5.58,5.58-11,9.24-12,8.18s2.6-6.45,8.18-12,11-9.25,12-8.18S31,338.63,25.43,344.21Z" transform="translate(0 0)"/><path class="cls-1" d="M21.58,324c5.58,5.58,11,9.24,12,8.18s-2.59-6.45-8.17-12-11-9.24-12-8.18S16,318.43,21.58,324Z" transform="translate(0 0)"/><path class="cls-1" d="M41.73,344.27c5.58,5.58,11,9.24,12,8.18s-2.59-6.45-8.17-12-11-9.24-12-8.18S36.15,338.69,41.73,344.27Z" transform="translate(0 0)"/><rect class="cls-2" y="204.09" width="68.03" height="94.49"/><rect class="cls-2" x="498.9" y="268.35" width="68.03" height="94.49"/><rect class="cls-2" x="204.09" y="498.9" width="94.49" height="68.03"/><rect class="cls-2" x="272.13" width="90.71" height="68.03"/><rect class="cls-2" x="362.83" width="68.03" height="68.03"/><rect class="cls-1" x="390.05" width="13.61" height="68.03"/><rect class="cls-1" x="268.35" y="26.46" width="162.52" height="15.12"/><rect class="cls-2" y="136.06" width="68.03" height="68.03"/><rect class="cls-1" y="163.28" width="68.03" height="13.61"/><rect class="cls-1" x="26.46" y="136.06" width="15.12" height="162.52"/><rect class="cls-2" x="498.9" y="362.83" width="68.03" height="68.03"/><rect class="cls-1" x="498.9" y="390.05" width="68.03" height="13.61"/><rect class="cls-1" x="525.35" y="268.35" width="15.12" height="162.52"/><rect class="cls-2" x="136.06" y="498.9" width="68.03" height="68.03"/><rect class="cls-1" x="163.28" y="498.9" width="13.61" height="68.03"/><rect class="cls-1" x="136.06" y="525.35" width="162.52" height="15.12"/></svg>