<svg id="Laag_1" data-name="Laag 1" xmlns="http://www.w3.org/2000/svg" viewBox="0 0 566.93 566.93"><defs><style>.cls-1{fill:#fff;}.cls-2{fill:#f7121a;}</style></defs><rect class="cls-1" width="566.93" height="566.93"/><rect class="cls-2" width="68.03" height="68.03"/><rect class="cls-1" x="29.93" y="21.77" width="8.16" height="24.49"/><rect class="cls-1" x="21.77" y="29.93" width="24.49" height="8.16"/><rect class="cls-2" x="498.9" width="68.03" height="68.03"/><rect class="cls-1" x="528.83" y="21.77" width="8.16" height="24.49"/><rect class="cls-1" x="520.67" y="29.93" width="24.49" height="8.16"/><rect class="cls-2" y="498.9" width="68.03" height="68.03"/><rect class="cls-1" x="29.93" y="520.67" width="8.16" height="24.49"/><rect class="cls-1" x="21.77" y="528.83" width="24.49" height="8.16"/><rect class="cls-2" x="498.9" y="498.9" width="68.03" height="68.03"/><rect class="cls-1" x="528.83" y="520.67" width="8.16" height="24.49"/><rect class="cls-1" x="520.67" y="528.83" width="24.49" height="8.16"/><rect class="cls-1" y="68.03" width="68.03" height="68.03"/><path class="cls-2" d="M30.79,84.69c-2,0-1.67,6.67-1.25,10a25.61,25.61,0,0,0-5-1.25c-1,0,1.25,4.17,2.5,6.25-2.5,0-8,.25-10,1.25s4.17,2.92,7.51,3.76c-1.25.42-4,1.5-5,2.5s3.75,1.25,6.25,1.25c-2.92,2.51-8,7.76-5,8.76s7.92-4.59,10-7.51c0,2.51.5,7.26,2.5,6.26s2.5-4.59,2.5-6.26c3.76,2.92,11.52,8.26,12.52,6.26s-3.76-7.51-6.26-10c2.92.42,8.76,1,8.76,0s-5-3.75-7.51-5c3.34-2.92,9.26-8.76,6.26-8.76S42.47,94.7,40.8,96c.83-1.67,2-5,0-5s-3.34,2.51-3.75,3.76C35.79,91.36,32.79,84.69,30.79,84.69Z" transform="translate(-0.3 -0.33)"/><rect class="cls-1" x="68.03" y="498.9" width="68.03" height="68.03"/><path class="cls-2" d="M98.82,515.55c-2,0-1.67,6.68-1.25,10a26.35,26.35,0,0,0-5-1.25c-1,0,1.25,4.17,2.51,6.26-2.51,0-8,.25-10,1.25s4.18,2.92,7.51,3.75c-1.25.42-4,1.51-5,2.51s3.75,1.25,6.25,1.25c-2.92,2.5-8,7.76-5,8.76s7.92-4.59,10-7.51c0,2.5.5,7.26,2.5,6.26s2.51-4.59,2.51-6.26c3.75,2.92,11.51,8.26,12.51,6.26s-3.75-7.51-6.26-10c2.92.41,8.76,1,8.76,0s-5-3.76-7.51-5c3.34-2.92,9.26-8.76,6.26-8.76s-7.09,2.5-8.76,3.75c.84-1.66,2-5,0-5s-3.34,2.5-3.75,3.75C103.83,522.23,100.82,515.55,98.82,515.55Z" transform="translate(-0.3 -0.33)"/><rect class="cls-1" x="498.9" y="430.87" width="68.03" height="68.03"/><path class="cls-2" d="M529.69,447.52c-2,0-1.67,6.67-1.26,10a25.53,25.53,0,0,0-5-1.25c-1,0,1.25,4.17,2.5,6.26-2.5,0-8,.25-10,1.25s4.17,2.92,7.51,3.75c-1.25.42-4,1.5-5,2.51s3.76,1.25,6.26,1.25c-2.92,2.5-8,7.76-5,8.76s7.93-4.59,10-7.51c0,2.5.5,7.26,2.5,6.26s2.5-4.59,2.5-6.26c3.76,2.92,11.51,8.26,12.52,6.26s-3.76-7.51-6.26-10c2.92.42,8.76,1,8.76,0s-5-3.75-7.51-5c3.34-2.92,9.26-8.76,6.26-8.76s-7.09,2.5-8.76,3.75c.83-1.67,2-5,0-5s-3.34,2.5-3.76,3.75C534.69,454.19,531.69,447.52,529.69,447.52Z" transform="translate(-0.3 -0.33)"/><rect class="cls-1" x="430.87" width="68.03" height="68.03"/><path class="cls-2" d="M461.65,16.65c-2,0-1.66,6.68-1.25,10a25.6,25.6,0,0,0-5-1.26c-1,0,1.25,4.18,2.5,6.26-2.5,0-8,.25-10,1.25s4.17,2.92,7.51,3.76c-1.25.41-4,1.5-5,2.5s3.76,1.25,6.26,1.25c-2.92,2.5-8,7.76-5,8.76s7.93-4.59,10-7.51c0,2.51.51,7.26,2.51,6.26s2.5-4.59,2.5-6.26c3.75,2.92,11.51,8.26,12.51,6.26s-3.75-7.51-6.25-10c2.92.42,8.76,1,8.76,0s-5-3.76-7.51-5c3.34-2.92,9.26-8.76,6.26-8.76s-7.1,2.51-8.76,3.76c.83-1.67,2-5,0-5s-3.34,2.5-3.76,3.76C466.66,23.33,463.66,16.65,461.65,16.65Z" transform="translate(-0.3 -0.33)"/><rect class="cls-2" x="136.06" y="498.9" width="68.03" height="68.03"/><path class="cls-1" d="M158.84,539l17.32-17.32,5.77,5.78-17.32,17.32Z" transform="translate(-0.3 -0.33)"/><path class="cls-1" d="M176.16,521.69l5.77,5.78,1-6.74Z" transform="translate(-0.3 -0.33)"/><path class="cls-1" d="M164.61,544.79,158.84,539l-1,6.74Z" transform="translate(-0.3 -0.33)"/><path class="cls-1" d="M176.16,544.79l-17.32-17.32,5.77-5.78L181.93,539Z" transform="translate(-0.3 -0.33)"/><path class="cls-1" d="M158.84,527.47l5.77-5.78-6.73-1Z" transform="translate(-0.3 -0.33)"/><path class="cls-1" d="M181.93,539l-5.77,5.78,6.73,1Z" transform="translate(-0.3 -0.33)"/><rect class="cls-2" x="498.9" y="362.83" width="68.03" height="68.03"/><path class="cls-1" d="M521.67,403,539,385.63l5.77,5.77-17.31,17.32Z" transform="translate(-0.3 -0.33)"/><path class="cls-1" d="M539,385.63l5.77,5.77,1-6.73Z" transform="translate(-0.3 -0.33)"/><path class="cls-1" d="M527.45,408.72,521.67,403l-1,6.73Z" transform="translate(-0.3 -0.33)"/><path class="cls-1" d="M539,408.72,521.67,391.4l5.78-5.77L544.76,403Z" transform="translate(-0.3 -0.33)"/><path class="cls-1" d="M521.67,391.4l5.78-5.77-6.74-1Z" transform="translate(-0.3 -0.33)"/><path class="cls-1" d="M544.76,403,539,408.72l6.74,1Z" transform="translate(-0.3 -0.33)"/><rect class="cls-2" x="362.83" width="68.03" height="68.03"/><path class="cls-1" d="M385.61,40.12,402.93,22.8l5.77,5.77L391.38,45.89Z" transform="translate(-0.3 -0.33)"/><path class="cls-1" d="M402.93,22.8l5.77,5.77,1-6.74Z" transform="translate(-0.3 -0.33)"/><path class="cls-1" d="M391.38,45.89l-5.77-5.77-1,6.73Z" transform="translate(-0.3 -0.33)"/><path class="cls-1" d="M402.93,45.89,385.61,28.57l5.77-5.77L408.7,40.12Z" transform="translate(-0.3 -0.33)"/><path class="cls-1" d="M385.61,28.57l5.77-5.77-6.73-1Z" transform="translate(-0.3 -0.33)"/><path class="cls-1" d="M408.7,40.12l-5.77,5.77,6.73,1Z" transform="translate(-0.3 -0.33)"/><rect class="cls-2" y="136.06" width="68.03" height="68.03"/><path class="cls-1" d="M22.77,176.18l17.32-17.32,5.78,5.77L28.55,182Z" transform="translate(-0.3 -0.33)"/><path class="cls-1" d="M40.09,158.86l5.78,5.77,1-6.73Z" transform="translate(-0.3 -0.33)"/><path class="cls-1" d="M28.55,182l-5.78-5.77-1,6.73Z" transform="translate(-0.3 -0.33)"/><path class="cls-1" d="M40.09,182,22.77,164.63l5.78-5.77,17.32,17.32Z" transform="translate(-0.3 -0.33)"/><path class="cls-1" d="M22.77,164.63l5.78-5.77-6.74-1Z" transform="translate(-0.3 -0.33)"/><path class="cls-1" d="M45.87,176.18,40.09,182l6.74,1Z" transform="translate(-0.3 -0.33)"/><rect class="cls-2" x="68.03" width="34.02" height="68.03"/><rect class="cls-1" x="102.05" width="34.02" height="68.03"/><path class="cls-1" d="M102.35,7.13a27.22,27.22,0,0,0,0,54.43V7.13Z" transform="translate(-0.3 -0.33)"/><path class="cls-2" d="M102.35,7.13a27.22,27.22,0,0,1,25.14,37.63,27.27,27.27,0,0,1-14.72,14.72,27.25,27.25,0,0,1-10.42,2.08V7.13Z" transform="translate(-0.3 -0.33)"/><rect class="cls-2" x="464.88" y="498.9" width="34.02" height="68.03"/><rect class="cls-1" x="430.87" y="498.9" width="34.02" height="68.03"/><path class="cls-1" d="M465.19,506a27.21,27.21,0,1,1,0,54.42V506Z" transform="translate(-0.3 -0.33)"/><path class="cls-2" d="M465.19,506a27.21,27.21,0,1,0,0,54.42V506Z" transform="translate(-0.3 -0.33)"/><rect class="cls-2" x="498.9" y="68.03" width="68.03" height="34.02"/><rect class="cls-1" x="498.9" y="102.05" width="68.03" height="34.02"/><path class="cls-1" d="M560.43,102.37a27.21,27.21,0,1,0-54.42,0h54.42Z" transform="translate(-0.3 -0.33)"/><path class="cls-2" d="M560.43,102.37a27.21,27.21,0,1,1-54.42,0h54.42Z" transform="translate(-0.3 -0.33)"/><rect class="cls-2" y="464.88" width="68.03" height="34.02"/><rect class="cls-1" y="430.87" width="68.03" height="34.02"/><path class="cls-1" d="M7.11,465.21a27.21,27.21,0,1,0,54.42,0H7.11Z" transform="translate(-0.3 -0.33)"/><path class="cls-2" d="M7.11,465.21a27.16,27.16,0,0,1,8-19.24,27.21,27.21,0,0,1,29.65-5.9,27.24,27.24,0,0,1,14.73,14.72,27.24,27.24,0,0,1,2.07,10.42H7.11Z" transform="translate(-0.3 -0.33)"/><rect class="cls-2" x="136.06" width="68.03" height="68.03"/><path class="cls-1" d="M156.78,28.9c10.63,5.8,16.58,5.69,27.21,0v9.52c-10.69-4.25-16.65-4.28-27.21,0Z" transform="translate(-0.3 -0.33)"/><path class="cls-1" d="M164.94,48c5.8-10.63,5.69-16.58,0-27.21h9.52c-4.25,10.69-4.28,16.64,0,27.21Z" transform="translate(-0.3 -0.33)"/><rect class="cls-2" x="498.9" y="136.06" width="68.03" height="68.03"/><path class="cls-1" d="M519.61,165c10.63,5.8,16.58,5.69,27.21,0v9.53c-10.69-4.26-16.64-4.29-27.21,0Z" transform="translate(-0.3 -0.33)"/><path class="cls-1" d="M527.78,184c5.79-10.63,5.68-16.58,0-27.21h9.52c-4.25,10.69-4.29,16.65,0,27.21Z" transform="translate(-0.3 -0.33)"/><rect class="cls-2" x="362.83" y="498.9" width="68.03" height="68.03"/><path class="cls-1" d="M383.55,527.8c10.63,5.8,16.58,5.68,27.21,0v9.52c-10.69-4.25-16.65-4.28-27.21,0Z" transform="translate(-0.3 -0.33)"/><path class="cls-1" d="M391.71,546.85c5.8-10.63,5.69-16.59,0-27.22h9.53c-4.26,10.7-4.29,16.65,0,27.22Z" transform="translate(-0.3 -0.33)"/><rect class="cls-2" y="362.83" width="68.03" height="68.03"/><path class="cls-1" d="M20.71,391.73c10.63,5.8,16.59,5.69,27.22,0v9.53c-10.7-4.25-16.65-4.29-27.22,0Z" transform="translate(-0.3 -0.33)"/><path class="cls-1" d="M28.88,410.78c5.8-10.63,5.68-16.58,0-27.21H38.4c-4.25,10.69-4.28,16.65,0,27.21Z" transform="translate(-0.3 -0.33)"/><rect class="cls-2" y="204.09" width="68.03" height="158.74"/><rect class="cls-2" x="498.9" y="204.09" width="68.03" height="158.74"/><rect class="cls-2" x="204.09" width="158.74" height="68.03"/><rect class="cls-2" x="204.09" y="498.9" width="158.74" height="68.03"/><rect class="cls-1" x="209.76" width="68.03" height="68.03"/><rect class="cls-2" x="239.7" y="21.77" width="8.16" height="24.49"/><rect class="cls-2" x="231.53" y="29.93" width="24.49" height="8.16"/><rect class="cls-1" x="498.9" y="204.09" width="68.03" height="68.03"/><rect class="cls-2" x="528.83" y="225.86" width="8.16" height="24.49"/><rect class="cls-2" x="520.67" y="234.03" width="24.49" height="8.16"/><rect class="cls-1" x="294.8" y="498.9" width="68.03" height="68.03"/><rect class="cls-2" x="324.74" y="520.67" width="8.16" height="24.49"/><rect class="cls-2" x="316.57" y="528.83" width="24.49" height="8.16"/><rect class="cls-1" y="294.8" width="68.03" height="68.03"/><rect class="cls-2" x="29.93" y="316.57" width="8.16" height="24.49"/><rect class="cls-2" x="21.77" y="324.74" width="24.49" height="8.16"/><rect class="cls-2" x="289.13" width="68.03" height="68.03"/><path class="cls-1" d="M319.61,9.85c-2.92,0-2.44,9.73-1.83,14.6-1.82-.61-5.84-1.82-7.3-1.82s1.83,6.08,3.65,9.12c-3.65,0-11.68.37-14.6,1.83s6.09,4.25,11,5.47c-1.82.61-5.84,2.19-7.3,3.65s5.48,1.83,9.13,1.83c-4.26,3.65-11.68,11.31-7.3,12.77s11.56-6.69,14.6-10.95c0,3.65.73,10.59,3.65,9.13s3.65-6.7,3.65-9.13c5.47,4.26,16.79,12,18.25,9.13s-5.48-10.95-9.13-14.6c4.26.6,12.78,1.46,12.78,0s-7.3-5.48-10.95-7.3c4.86-4.26,13.5-12.78,9.12-12.78s-10.34,3.65-12.77,5.48c1.21-2.44,2.92-7.3,0-7.3s-4.87,3.65-5.48,5.47C326.91,19.58,322.53,9.85,319.61,9.85Z" transform="translate(-0.3 -0.33)"/><rect class="cls-2" x="498.9" y="277.8" width="68.03" height="68.03"/><path class="cls-1" d="M529.37,287.65c-2.92,0-2.43,9.73-1.82,14.6-1.83-.61-5.84-1.83-7.3-1.83s1.82,6.08,3.65,9.13c-3.65,0-11.68.36-14.6,1.82s6.08,4.26,10.95,5.48c-1.83.6-5.84,2.19-7.3,3.65s5.47,1.82,9.12,1.82c-4.26,3.65-11.68,11.32-7.3,12.78s11.56-6.7,14.6-11c0,3.65.73,10.58,3.65,9.12s3.65-6.69,3.65-9.12c5.48,4.25,16.79,12,18.25,9.12s-5.47-10.95-9.12-14.6c4.25.61,12.77,1.46,12.77,0s-7.3-5.47-11-7.3c4.87-4.26,13.51-12.77,9.13-12.77s-10.35,3.65-12.78,5.47c1.22-2.43,2.92-7.3,0-7.3s-4.87,3.65-5.47,5.48C536.67,297.38,532.29,287.65,529.37,287.65Z" transform="translate(-0.3 -0.33)"/><rect class="cls-2" x="209.76" y="498.9" width="68.03" height="68.03"/><path class="cls-1" d="M240.24,508.75c-2.92,0-2.44,9.73-1.83,14.6-1.82-.61-5.84-1.83-7.3-1.83s1.83,6.09,3.65,9.13c-3.65,0-11.68.36-14.6,1.82s6.09,4.26,11,5.48c-1.82.61-5.84,2.19-7.3,3.65s5.48,1.82,9.13,1.82c-4.26,3.65-11.68,11.32-7.3,12.78s11.56-6.69,14.6-11c0,3.65.73,10.58,3.65,9.12s3.65-6.69,3.65-9.12c5.47,4.26,16.79,12,18.25,9.12s-5.48-11-9.13-14.6c4.26.61,12.78,1.46,12.78,0s-7.3-5.47-10.95-7.3c4.86-4.26,13.5-12.77,9.12-12.77s-10.34,3.65-12.77,5.47c1.21-2.43,2.92-7.3,0-7.3s-4.87,3.65-5.48,5.48C247.54,518.48,243.16,508.75,240.24,508.75Z" transform="translate(-0.3 -0.33)"/><rect class="cls-2" y="209.76" width="68.03" height="68.03"/><path class="cls-1" d="M30.47,219.61c-2.92,0-2.43,9.74-1.82,14.6-1.83-.6-5.84-1.82-7.3-1.82s1.82,6.08,3.65,9.12c-3.65,0-11.68.37-14.6,1.83s6.08,4.26,11,5.47c-1.83.61-5.84,2.19-7.3,3.65s5.47,1.83,9.12,1.83c-4.25,3.65-11.68,11.31-7.3,12.77s11.56-6.69,14.6-10.95c0,3.65.73,10.59,3.65,9.13s3.65-6.69,3.65-9.13c5.48,4.26,16.79,12.05,18.25,9.13s-5.47-11-9.12-14.6c4.26.61,12.77,1.46,12.77,0s-7.3-5.48-11-7.3c4.87-4.26,13.51-12.78,9.13-12.78S47.51,234.21,45.07,236c1.22-2.43,2.92-7.3,0-7.3s-4.86,3.65-5.47,5.47C37.77,229.35,33.39,219.61,30.47,219.61Z" transform="translate(-0.3 -0.33)"/></svg>