<?xml version="1.0" encoding="utf-8"?>
<!-- Generator: Adobe Illustrator 25.2.3, SVG Export Plug-In . SVG Version: 6.00 Build 0)  -->
<svg version="1.1" xmlns="http://www.w3.org/2000/svg" xmlns:xlink="http://www.w3.org/1999/xlink" x="0px" y="0px"
	 viewBox="0 0 100 100" style="enable-background:new 0 0 100 100;" xml:space="preserve">
<style type="text/css">
	.st0{fill:#FFFFFF;}
	.st1{fill:#A51931;}
	.st2{fill:#2D2A4A;}
	.st3{fill:none;stroke:#FFFFFF;stroke-width:0.5;stroke-miterlimit:10;}
	.st4{fill:none;stroke:#2D2A4A;stroke-width:0.5;stroke-miterlimit:10;}
	.st5{fill:none;stroke:#B01E41;stroke-width:0.5;stroke-miterlimit:10;}
</style>
<g id="Layer_2">
	<rect x="0" y="2.1" class="st0" width="100" height="100"/>
</g>
<g id="Laag_1">
	<g>
		<rect x="88" y="0.2" class="st1" width="12" height="12"/>
		<rect x="88" y="2" class="st0" width="12" height="8.4"/>
		<rect x="88" y="4.2" class="st2" width="12" height="4"/>
	</g>
	<g>
		<rect x="0" y="0.2" class="st1" width="12" height="12"/>
		<rect x="0" y="2" class="st0" width="12" height="8.4"/>
		<rect x="0" y="4.2" class="st2" width="12" height="4"/>
	</g>
	<g>
		<rect x="0" y="88" class="st1" width="12" height="12"/>
		<rect x="0" y="89.8" class="st0" width="12" height="8.4"/>
		<rect x="0" y="92" class="st2" width="12" height="4"/>
	</g>
	<g>
		<rect x="88" y="88" class="st1" width="12" height="12"/>
		<rect x="88" y="89.8" class="st0" width="12" height="8.4"/>
		<rect x="88" y="92" class="st2" width="12" height="4"/>
	</g>
	<g>
		<g>
			<ellipse class="st2" cx="6" cy="18.2" rx="1.4" ry="1.1"/>
			<path class="st2" d="M4.7,17c0.4-0.4,0.9-0.2,1-0.5C5.7,16.3,5.2,16,5.2,16c-0.3-0.2-0.6-0.2-0.9-0.2c-0.4,0-0.4,0.1-0.7,0
				c-0.3-0.1-0.5-0.2-0.5-0.1c0,0.1,0.1,0.2,0.1,0.4c0,0.2,0,0.2,0,0.4c0,0,0,0.4,0.1,0.7c0.1,0.3,0.4,0.7,0.7,0.6
				C4.3,17.8,4.2,17.4,4.7,17z"/>
			<path class="st2" d="M7.3,17c-0.4-0.4-0.9-0.2-1-0.5C6.3,16.3,6.7,16,6.8,16c0.3-0.2,0.6-0.2,0.9-0.2c0.4,0,0.4,0.1,0.7,0
				c0.3-0.1,0.5-0.2,0.5-0.1c0,0.1-0.1,0.2-0.1,0.4c0,0.2,0,0.2,0,0.4c0,0,0,0.4-0.1,0.7c-0.1,0.3-0.4,0.7-0.7,0.6
				C7.7,17.8,7.7,17.4,7.3,17z"/>
			<path class="st2" d="M7.3,19.3c-0.4,0.4-0.9,0.2-1,0.5c-0.1,0.2,0.4,0.5,0.5,0.5c0.3,0.2,0.6,0.2,0.9,0.2c0.4,0,0.4-0.1,0.7,0
				c0.3,0.1,0.5,0.2,0.5,0.1c0-0.1-0.1-0.2-0.1-0.4c0-0.2,0-0.2,0-0.4c0,0,0-0.4-0.1-0.7c-0.1-0.3-0.4-0.7-0.7-0.6
				C7.7,18.5,7.7,18.9,7.3,19.3z"/>
			<path class="st2" d="M4.7,19.3c0.4,0.4,0.9,0.2,1,0.5c0.1,0.2-0.4,0.5-0.5,0.5c-0.3,0.2-0.6,0.2-0.9,0.2c-0.4,0-0.4-0.1-0.7,0
				c-0.3,0.1-0.5,0.2-0.5,0.1c0-0.1,0.1-0.2,0.1-0.4c0-0.2,0-0.2,0-0.4c0,0,0-0.4,0.1-0.7c0.1-0.3,0.4-0.7,0.7-0.6
				C4.3,18.5,4.2,18.9,4.7,19.3z"/>
			<path class="st2" d="M11.5,18.1c-0.7-0.6-1.4-0.9-1.8-0.9c-0.1,0-0.4,0-0.5,0.2c-0.1,0.1-0.1,0.2-0.3,0.4C8.8,18,8.6,18,8.6,18.1
				c0,0.1,0.1,0.1,0.3,0.4c0.2,0.2,0.2,0.3,0.3,0.4c0.2,0.3,0.7,0.2,1,0.1C10.9,18.9,11.3,18.3,11.5,18.1z"/>
			<path class="st2" d="M0.5,18.1c0.7-0.6,1.4-0.9,1.8-0.9c0.1,0,0.4,0,0.5,0.2c0.1,0.1,0.1,0.2,0.3,0.4c0.2,0.2,0.3,0.2,0.3,0.4
				c0,0.1-0.1,0.1-0.3,0.4c-0.2,0.2-0.2,0.3-0.3,0.4c-0.2,0.3-0.7,0.2-1,0.1C1.1,18.9,0.7,18.4,0.5,18.1z"/>
			<path class="st2" d="M6,23c-0.6-0.7-1-1.3-0.9-1.8c0-0.1,0-0.4,0.2-0.5c0.1-0.1,0.2-0.1,0.4-0.3c0.2-0.2,0.2-0.3,0.3-0.3
				c0.1,0,0.1,0.1,0.4,0.3c0.2,0.2,0.3,0.2,0.4,0.3c0.3,0.2,0.2,0.7,0.2,1C6.8,22.3,6.2,22.8,6,23z"/>
			<path class="st2" d="M6,13.3c-0.6,0.7-1,1.3-0.9,1.8c0,0.1,0,0.4,0.2,0.5c0.1,0.1,0.2,0.1,0.4,0.3C5.8,16,5.9,16.2,6,16.2
				c0.1,0,0.1-0.1,0.4-0.3c0.2-0.2,0.3-0.2,0.4-0.3c0.3-0.2,0.2-0.7,0.2-1C6.8,13.9,6.3,13.4,6,13.3z"/>
		</g>
	</g>
	<g>
		<g>
			<ellipse class="st2" cx="18" cy="6.2" rx="1.4" ry="1.1"/>
			<path class="st2" d="M16.7,5.1c0.4-0.4,0.9-0.2,1-0.5c0.1-0.2-0.4-0.5-0.5-0.5c-0.3-0.2-0.6-0.2-0.9-0.2c-0.4,0-0.4,0.1-0.7,0
				c-0.3-0.1-0.5-0.2-0.5-0.1c0,0.1,0.1,0.2,0.1,0.4c0,0.2,0,0.2,0,0.4c0,0,0,0.4,0.1,0.7C15.4,5.6,15.7,6,16,5.9
				C16.3,5.9,16.2,5.4,16.7,5.1z"/>
			<path class="st2" d="M19.3,5.1c-0.4-0.4-0.9-0.2-1-0.5c-0.1-0.2,0.4-0.5,0.5-0.5c0.3-0.2,0.6-0.2,0.9-0.2c0.4,0,0.4,0.1,0.7,0
				c0.3-0.1,0.5-0.2,0.5-0.1c0,0.1-0.1,0.2-0.1,0.4c0,0.2,0,0.2,0,0.4c0,0,0,0.4-0.1,0.7C20.6,5.6,20.2,6,20,5.9
				C19.7,5.9,19.7,5.4,19.3,5.1z"/>
			<path class="st2" d="M19.3,7.3c-0.4,0.4-0.9,0.2-1,0.5c-0.1,0.2,0.4,0.5,0.5,0.5c0.3,0.2,0.6,0.2,0.9,0.2c0.4,0,0.4-0.1,0.7,0
				c0.3,0.1,0.5,0.2,0.5,0.1c0-0.1-0.1-0.2-0.1-0.4c0-0.2,0-0.2,0-0.4c0,0,0-0.4-0.1-0.7c-0.1-0.3-0.4-0.7-0.7-0.6
				C19.7,6.5,19.7,6.9,19.3,7.3z"/>
			<path class="st2" d="M16.7,7.3c0.4,0.4,0.9,0.2,1,0.5c0.1,0.2-0.4,0.5-0.5,0.5c-0.3,0.2-0.6,0.2-0.9,0.2c-0.4,0-0.4-0.1-0.7,0
				c-0.3,0.1-0.5,0.2-0.5,0.1c0-0.1,0.1-0.2,0.1-0.4c0-0.2,0-0.2,0-0.4c0,0,0-0.4,0.1-0.7c0.1-0.3,0.4-0.7,0.7-0.6
				C16.3,6.5,16.2,6.9,16.7,7.3z"/>
			<path class="st2" d="M23.5,6.1c-0.7-0.6-1.4-0.9-1.8-0.9c-0.1,0-0.4,0-0.5,0.2c-0.1,0.1-0.1,0.2-0.3,0.4C20.8,6,20.6,6,20.6,6.2
				c0,0.1,0.1,0.1,0.3,0.4c0.2,0.2,0.2,0.3,0.3,0.4c0.2,0.3,0.7,0.2,1,0.1C22.9,6.9,23.3,6.4,23.5,6.1z"/>
			<path class="st2" d="M12.5,6.2c0.7-0.6,1.4-0.9,1.8-0.9c0.1,0,0.4,0,0.5,0.2c0.1,0.1,0.1,0.2,0.3,0.4c0.2,0.2,0.3,0.2,0.3,0.4
				c0,0.1-0.1,0.1-0.3,0.4c-0.2,0.2-0.2,0.3-0.3,0.4c-0.2,0.3-0.7,0.2-1,0.1C13.1,7,12.7,6.4,12.5,6.2z"/>
			<path class="st2" d="M18,11.1c-0.6-0.7-1-1.3-0.9-1.8c0-0.1,0-0.4,0.2-0.5c0.1-0.1,0.2-0.1,0.4-0.3c0.2-0.2,0.2-0.3,0.3-0.3
				c0.1,0,0.1,0.1,0.4,0.3c0.2,0.2,0.3,0.2,0.4,0.3c0.3,0.2,0.2,0.7,0.2,1C18.8,10.4,18.2,10.9,18,11.1z"/>
			<path class="st2" d="M18,1.3c-0.6,0.7-1,1.3-0.9,1.8c0,0.1,0,0.4,0.2,0.5c0.1,0.1,0.2,0.1,0.4,0.3c0.2,0.2,0.2,0.3,0.3,0.3
				c0.1,0,0.1-0.1,0.4-0.3c0.2-0.2,0.3-0.2,0.4-0.3c0.3-0.2,0.2-0.7,0.2-1C18.8,2,18.3,1.5,18,1.3z"/>
		</g>
	</g>
	<g>
		<g>
			<ellipse class="st2" cx="82" cy="6.2" rx="1.4" ry="1.1"/>
			<path class="st2" d="M80.7,5.1c0.4-0.4,0.9-0.2,1-0.5c0.1-0.2-0.4-0.5-0.5-0.5c-0.3-0.2-0.6-0.2-0.9-0.2c-0.4,0-0.4,0.1-0.7,0
				c-0.3-0.1-0.5-0.2-0.5-0.1c0,0.1,0.1,0.2,0.1,0.4c0,0.2,0,0.2,0,0.4c0,0,0,0.4,0.1,0.7C79.4,5.6,79.7,6,80,6
				C80.3,5.9,80.2,5.5,80.7,5.1z"/>
			<path class="st2" d="M83.3,5.1c-0.4-0.4-0.9-0.2-1-0.5c-0.1-0.2,0.4-0.5,0.5-0.5c0.3-0.2,0.6-0.2,0.9-0.2c0.4,0,0.4,0.1,0.7,0
				c0.3-0.1,0.5-0.2,0.5-0.1c0,0.1-0.1,0.2-0.1,0.4c0,0.2,0,0.2,0,0.4c0,0,0,0.4-0.1,0.7C84.6,5.6,84.2,6,84,6
				C83.7,5.9,83.7,5.5,83.3,5.1z"/>
			<path class="st2" d="M83.3,7.3c-0.4,0.4-0.9,0.2-1,0.5c-0.1,0.2,0.4,0.5,0.5,0.5c0.3,0.2,0.6,0.2,0.9,0.2c0.4,0,0.4-0.1,0.7,0
				c0.3,0.1,0.5,0.2,0.5,0.1c0-0.1-0.1-0.2-0.1-0.4c0-0.2,0-0.2,0-0.4c0,0,0-0.4-0.1-0.7c-0.1-0.3-0.4-0.7-0.7-0.6
				C83.7,6.5,83.7,7,83.3,7.3z"/>
			<path class="st2" d="M80.7,7.3c0.4,0.4,0.9,0.2,1,0.5c0.1,0.2-0.4,0.5-0.5,0.5c-0.3,0.2-0.6,0.2-0.9,0.2c-0.4,0-0.4-0.1-0.7,0
				c-0.3,0.1-0.5,0.2-0.5,0.1c0-0.1,0.1-0.2,0.1-0.4c0-0.2,0-0.2,0-0.4c0,0,0-0.4,0.1-0.7c0.1-0.3,0.4-0.7,0.7-0.6
				C80.3,6.5,80.2,7,80.7,7.3z"/>
			<path class="st2" d="M87.5,6.1c-0.7-0.6-1.4-0.9-1.8-0.9c-0.1,0-0.4,0-0.5,0.2c-0.1,0.1-0.1,0.2-0.3,0.4
				c-0.2,0.2-0.3,0.2-0.3,0.4c0,0.1,0.1,0.1,0.3,0.4c0.2,0.2,0.2,0.3,0.3,0.4c0.2,0.3,0.7,0.2,1,0.1C86.9,6.9,87.3,6.4,87.5,6.1z"/>
			<path class="st2" d="M76.5,6.2c0.7-0.6,1.4-0.9,1.8-0.9c0.1,0,0.4,0,0.5,0.2c0.1,0.1,0.1,0.2,0.3,0.4c0.2,0.2,0.3,0.2,0.3,0.4
				c0,0.1-0.1,0.1-0.3,0.4c-0.2,0.2-0.2,0.3-0.3,0.4c-0.2,0.3-0.7,0.2-1,0.1C77.1,7,76.7,6.4,76.5,6.2z"/>
			<path class="st2" d="M82,11.1c-0.6-0.7-1-1.3-0.9-1.8c0-0.1,0-0.4,0.2-0.5c0.1-0.1,0.2-0.1,0.4-0.3c0.2-0.2,0.2-0.3,0.3-0.3
				c0.1,0,0.1,0.1,0.4,0.3c0.2,0.2,0.3,0.2,0.4,0.3c0.3,0.2,0.2,0.7,0.2,1C82.8,10.4,82.2,10.9,82,11.1z"/>
			<path class="st2" d="M82,1.3c-0.6,0.7-1,1.3-0.9,1.8c0,0.1,0,0.4,0.2,0.5c0.1,0.1,0.2,0.1,0.4,0.3c0.2,0.2,0.2,0.3,0.3,0.3
				c0.1,0,0.1-0.1,0.4-0.3c0.2-0.2,0.3-0.2,0.4-0.3c0.3-0.2,0.2-0.7,0.2-1C82.8,2,82.3,1.5,82,1.3z"/>
		</g>
	</g>
	<g>
		<g>
			<ellipse class="st2" cx="94.1" cy="18.4" rx="1.4" ry="1.1"/>
			<path class="st2" d="M92.7,17.2c0.4-0.4,0.9-0.2,1-0.5c0.1-0.2-0.4-0.5-0.5-0.5C92.9,16,92.6,16,92.3,16c-0.4,0-0.4,0.1-0.7,0
				c-0.3-0.1-0.5-0.2-0.5-0.1c0,0.1,0.1,0.2,0.1,0.4c0,0.2,0,0.2,0,0.4c0,0,0,0.4,0.1,0.7c0.1,0.3,0.4,0.7,0.7,0.6
				C92.4,18,92.3,17.6,92.7,17.2z"/>
			<path class="st2" d="M95.4,17.2c-0.4-0.4-0.9-0.2-1-0.5c-0.1-0.2,0.4-0.5,0.5-0.5c0.3-0.2,0.6-0.2,0.9-0.2c0.4,0,0.4,0.1,0.7,0
				c0.3-0.1,0.5-0.2,0.5-0.1c0,0.1-0.1,0.2-0.1,0.4c0,0.2,0,0.2,0,0.4c0,0,0,0.4-0.1,0.7c-0.1,0.3-0.4,0.7-0.7,0.6
				C95.7,18,95.8,17.6,95.4,17.2z"/>
			<path class="st2" d="M95.4,19.4c-0.4,0.4-0.9,0.2-1,0.5c-0.1,0.2,0.4,0.5,0.5,0.5c0.3,0.2,0.6,0.2,0.9,0.2c0.4,0,0.4-0.1,0.7,0
				c0.3,0.1,0.5,0.2,0.5,0.1c0-0.1-0.1-0.2-0.1-0.4c0-0.2,0-0.2,0-0.4c0,0,0-0.4-0.1-0.7c-0.1-0.3-0.4-0.7-0.7-0.6
				C95.7,18.6,95.8,19.1,95.4,19.4z"/>
			<path class="st2" d="M92.7,19.4c0.4,0.4,0.9,0.2,1,0.5c0.1,0.2-0.4,0.5-0.5,0.5c-0.3,0.2-0.6,0.2-0.9,0.2c-0.4,0-0.4-0.1-0.7,0
				c-0.3,0.1-0.5,0.2-0.5,0.1c0-0.1,0.1-0.2,0.1-0.4c0-0.2,0-0.2,0-0.4c0,0,0-0.4,0.1-0.7c0.1-0.3,0.4-0.7,0.7-0.6
				C92.4,18.6,92.3,19.1,92.7,19.4z"/>
			<path class="st2" d="M99.6,18.3c-0.7-0.6-1.4-0.9-1.8-0.9c-0.1,0-0.4,0-0.5,0.2c-0.1,0.1-0.1,0.2-0.3,0.4
				c-0.2,0.2-0.3,0.2-0.3,0.4c0,0.1,0.1,0.1,0.3,0.4c0.2,0.2,0.2,0.3,0.3,0.4c0.2,0.3,0.7,0.2,1,0.1C98.9,19,99.4,18.5,99.6,18.3z"
				/>
			<path class="st2" d="M88.5,18.3c0.7-0.6,1.4-0.9,1.8-0.9c0.1,0,0.4,0,0.5,0.2c0.1,0.1,0.1,0.2,0.3,0.4c0.2,0.2,0.3,0.2,0.3,0.4
				c0,0.1-0.1,0.1-0.3,0.4C91,18.9,91,19,90.9,19.1c-0.2,0.3-0.7,0.2-1,0.1C89.2,19.1,88.7,18.6,88.5,18.3z"/>
			<path class="st2" d="M94.1,23.2c-0.6-0.7-1-1.3-0.9-1.8c0-0.1,0-0.4,0.2-0.5c0.1-0.1,0.2-0.1,0.4-0.3c0.2-0.2,0.2-0.3,0.3-0.3
				c0.1,0,0.1,0.1,0.4,0.3c0.2,0.2,0.3,0.2,0.4,0.3c0.3,0.2,0.2,0.7,0.2,1C94.8,22.5,94.3,23,94.1,23.2z"/>
			<path class="st2" d="M94.1,13.4c-0.6,0.7-1,1.3-0.9,1.8c0,0.1,0,0.4,0.2,0.5c0.1,0.1,0.2,0.1,0.4,0.3c0.2,0.2,0.2,0.3,0.3,0.3
				c0.1,0,0.1-0.1,0.4-0.3c0.2-0.2,0.3-0.2,0.4-0.3c0.3-0.2,0.2-0.7,0.2-1C94.8,14.1,94.3,13.6,94.1,13.4z"/>
		</g>
	</g>
	<g>
		<g>
			<ellipse class="st2" cx="94" cy="82" rx="1.4" ry="1.1"/>
			<path class="st2" d="M92.7,80.9c0.4-0.4,0.9-0.2,1-0.5c0.1-0.2-0.4-0.5-0.5-0.5c-0.3-0.2-0.6-0.2-0.9-0.2c-0.4,0-0.4,0.1-0.7,0
				c-0.3-0.1-0.5-0.2-0.5-0.1c0,0.1,0.1,0.2,0.1,0.4c0,0.2,0,0.2,0,0.4c0,0,0,0.4,0.1,0.7c0.1,0.3,0.4,0.7,0.7,0.6
				C92.3,81.7,92.2,81.3,92.7,80.9z"/>
			<path class="st2" d="M95.3,80.9c-0.4-0.4-0.9-0.2-1-0.5c-0.1-0.2,0.4-0.5,0.5-0.5c0.3-0.2,0.6-0.2,0.9-0.2c0.4,0,0.4,0.1,0.7,0
				c0.3-0.1,0.5-0.2,0.5-0.1c0,0.1-0.1,0.2-0.1,0.4c0,0.2,0,0.2,0,0.4c0,0,0,0.4-0.1,0.7c-0.1,0.3-0.4,0.7-0.7,0.6
				C95.7,81.7,95.7,81.3,95.3,80.9z"/>
			<path class="st2" d="M95.3,83.1c-0.4,0.4-0.9,0.2-1,0.5c-0.1,0.2,0.4,0.5,0.5,0.5c0.3,0.2,0.6,0.2,0.9,0.2c0.4,0,0.4-0.1,0.7,0
				c0.3,0.1,0.5,0.2,0.5,0.1c0-0.1-0.1-0.2-0.1-0.4c0-0.2,0-0.2,0-0.4c0,0,0-0.4-0.1-0.7c-0.1-0.3-0.4-0.7-0.7-0.6
				C95.7,82.3,95.7,82.8,95.3,83.1z"/>
			<path class="st2" d="M92.7,83.1c0.4,0.4,0.9,0.2,1,0.5c0.1,0.2-0.4,0.5-0.5,0.5c-0.3,0.2-0.6,0.2-0.9,0.2c-0.4,0-0.4-0.1-0.7,0
				c-0.3,0.1-0.5,0.2-0.5,0.1c0-0.1,0.1-0.2,0.1-0.4c0-0.2,0-0.2,0-0.4c0,0,0-0.4,0.1-0.7c0.1-0.3,0.4-0.7,0.7-0.6
				C92.3,82.3,92.2,82.8,92.7,83.1z"/>
			<path class="st2" d="M99.5,81.9c-0.7-0.6-1.4-0.9-1.8-0.9c-0.1,0-0.4,0-0.5,0.2c-0.1,0.1-0.1,0.2-0.3,0.4
				c-0.2,0.2-0.3,0.2-0.3,0.4c0,0.1,0.1,0.1,0.3,0.4c0.2,0.2,0.2,0.3,0.3,0.4c0.2,0.3,0.7,0.2,1,0.1C98.9,82.7,99.3,82.2,99.5,81.9z
				"/>
			<path class="st2" d="M88.5,82c0.7-0.6,1.4-0.9,1.8-0.9c0.1,0,0.4,0,0.5,0.2c0.1,0.1,0.1,0.2,0.3,0.4c0.2,0.2,0.3,0.2,0.3,0.4
				c0,0.1-0.1,0.1-0.3,0.4c-0.2,0.2-0.2,0.3-0.3,0.4c-0.2,0.3-0.7,0.2-1,0.1C89.1,82.8,88.7,82.2,88.5,82z"/>
			<path class="st2" d="M94,86.9c-0.6-0.7-1-1.3-0.9-1.8c0-0.1,0-0.4,0.2-0.5c0.1-0.1,0.2-0.1,0.4-0.3c0.2-0.2,0.2-0.3,0.3-0.3
				c0.1,0,0.1,0.1,0.4,0.3c0.2,0.2,0.3,0.2,0.4,0.3c0.3,0.2,0.2,0.7,0.2,1C94.8,86.2,94.2,86.7,94,86.9z"/>
			<path class="st2" d="M94,77.1c-0.6,0.7-1,1.3-0.9,1.8c0,0.1,0,0.4,0.2,0.5c0.1,0.1,0.2,0.1,0.4,0.3c0.2,0.2,0.2,0.3,0.3,0.3
				c0.1,0,0.1-0.1,0.4-0.3c0.2-0.2,0.3-0.2,0.4-0.3c0.3-0.2,0.2-0.7,0.2-1C94.8,77.8,94.3,77.3,94,77.1z"/>
		</g>
	</g>
	<g>
		<g>
			<ellipse class="st2" cx="82" cy="94" rx="1.4" ry="1.1"/>
			<path class="st2" d="M80.6,92.9c0.4-0.4,0.9-0.2,1-0.5c0.1-0.2-0.4-0.5-0.5-0.5c-0.3-0.2-0.6-0.2-0.9-0.2c-0.4,0-0.4,0.1-0.7,0
				c-0.3-0.1-0.5-0.2-0.5-0.1c0,0.1,0.1,0.2,0.1,0.4c0,0.2,0,0.2,0,0.4c0,0,0,0.4,0.1,0.7c0.1,0.3,0.4,0.7,0.7,0.6
				C80.3,93.7,80.2,93.3,80.6,92.9z"/>
			<path class="st2" d="M83.3,92.9c-0.4-0.4-0.9-0.2-1-0.5c-0.1-0.2,0.4-0.5,0.5-0.5c0.3-0.2,0.6-0.2,0.9-0.2c0.4,0,0.4,0.1,0.7,0
				c0.3-0.1,0.5-0.2,0.5-0.1c0,0.1-0.1,0.2-0.1,0.4c0,0.2,0,0.2,0,0.4c0,0,0,0.4-0.1,0.7c-0.1,0.3-0.4,0.7-0.7,0.6
				C83.7,93.7,83.7,93.3,83.3,92.9z"/>
			<path class="st2" d="M83.3,95.1c-0.4,0.4-0.9,0.2-1,0.5c-0.1,0.2,0.4,0.5,0.5,0.5c0.3,0.2,0.6,0.2,0.9,0.2c0.4,0,0.4-0.1,0.7,0
				c0.3,0.1,0.5,0.2,0.5,0.1c0-0.1-0.1-0.2-0.1-0.4c0-0.2,0-0.2,0-0.4c0,0,0-0.4-0.1-0.7c-0.1-0.3-0.4-0.7-0.7-0.6
				C83.7,94.3,83.7,94.8,83.3,95.1z"/>
			<path class="st2" d="M80.6,95.1c0.4,0.4,0.9,0.2,1,0.5c0.1,0.2-0.4,0.5-0.5,0.5c-0.3,0.2-0.6,0.2-0.9,0.2c-0.4,0-0.4-0.1-0.7,0
				c-0.3,0.1-0.5,0.2-0.5,0.1c0-0.1,0.1-0.2,0.1-0.4c0-0.2,0-0.2,0-0.4c0,0,0-0.4,0.1-0.7c0.1-0.3,0.4-0.7,0.7-0.6
				C80.3,94.3,80.2,94.8,80.6,95.1z"/>
			<path class="st2" d="M87.5,93.9c-0.7-0.6-1.4-0.9-1.8-0.9c-0.1,0-0.4,0-0.5,0.2c-0.1,0.1-0.1,0.2-0.3,0.4
				c-0.2,0.2-0.3,0.2-0.3,0.4c0,0.1,0.1,0.1,0.3,0.4c0.2,0.2,0.2,0.3,0.3,0.4c0.2,0.3,0.7,0.2,1,0.1C86.8,94.7,87.3,94.2,87.5,93.9z
				"/>
			<path class="st2" d="M76.5,94c0.7-0.6,1.4-0.9,1.8-0.9c0.1,0,0.4,0,0.5,0.2c0.1,0.1,0.1,0.2,0.3,0.4c0.2,0.2,0.3,0.2,0.3,0.4
				c0,0.1-0.1,0.1-0.3,0.4c-0.2,0.2-0.2,0.3-0.3,0.4c-0.2,0.3-0.7,0.2-1,0.1C77.1,94.8,76.6,94.2,76.5,94z"/>
			<path class="st2" d="M82,98.9c-0.6-0.7-1-1.3-0.9-1.8c0-0.1,0-0.4,0.2-0.5c0.1-0.1,0.2-0.1,0.4-0.3c0.2-0.2,0.2-0.3,0.3-0.3
				c0.1,0,0.1,0.1,0.4,0.3c0.2,0.2,0.3,0.2,0.4,0.3c0.3,0.2,0.2,0.7,0.2,1C82.7,98.2,82.2,98.7,82,98.9z"/>
			<path class="st2" d="M82,89.1c-0.6,0.7-1,1.3-0.9,1.8c0,0.1,0,0.4,0.2,0.5c0.1,0.1,0.2,0.1,0.4,0.3c0.2,0.2,0.2,0.3,0.3,0.3
				c0.1,0,0.1-0.1,0.4-0.3c0.2-0.2,0.3-0.2,0.4-0.3c0.3-0.2,0.2-0.7,0.2-1C82.8,89.8,82.2,89.3,82,89.1z"/>
		</g>
	</g>
	<g>
		<g>
			<ellipse class="st2" cx="6" cy="82.1" rx="1.4" ry="1.1"/>
			<path class="st2" d="M4.7,80.9c0.4-0.4,0.9-0.2,1-0.5c0.1-0.2-0.4-0.5-0.5-0.5c-0.3-0.2-0.6-0.2-0.9-0.2c-0.4,0-0.4,0.1-0.7,0
				c-0.3-0.1-0.5-0.2-0.5-0.1c0,0.1,0.1,0.2,0.1,0.4c0,0.2,0,0.2,0,0.4c0,0,0,0.4,0.1,0.7c0.1,0.3,0.4,0.7,0.7,0.6
				C4.3,81.7,4.2,81.3,4.7,80.9z"/>
			<path class="st2" d="M7.3,80.9c-0.4-0.4-0.9-0.2-1-0.5c-0.1-0.2,0.4-0.5,0.5-0.5c0.3-0.2,0.6-0.2,0.9-0.2c0.4,0,0.4,0.1,0.7,0
				c0.3-0.1,0.5-0.2,0.5-0.1c0,0.1-0.1,0.2-0.1,0.4c0,0.2,0,0.2,0,0.4c0,0,0,0.4-0.1,0.7c-0.1,0.3-0.4,0.7-0.7,0.6
				C7.7,81.7,7.7,81.3,7.3,80.9z"/>
			<path class="st2" d="M7.3,83.2c-0.4,0.4-0.9,0.2-1,0.5c-0.1,0.2,0.4,0.5,0.5,0.5c0.3,0.2,0.6,0.2,0.9,0.2c0.4,0,0.4-0.1,0.7,0
				c0.3,0.1,0.5,0.2,0.5,0.1c0-0.1-0.1-0.2-0.1-0.4c0-0.2,0-0.2,0-0.4c0,0,0-0.4-0.1-0.7c-0.1-0.3-0.4-0.7-0.7-0.6
				C7.7,82.3,7.7,82.8,7.3,83.2z"/>
			<path class="st2" d="M4.7,83.2c0.4,0.4,0.9,0.2,1,0.5c0.1,0.2-0.4,0.5-0.5,0.5c-0.3,0.2-0.6,0.2-0.9,0.2c-0.4,0-0.4-0.1-0.7,0
				c-0.3,0.1-0.5,0.2-0.5,0.1c0-0.1,0.1-0.2,0.1-0.4c0-0.2,0-0.2,0-0.4c0,0,0-0.4,0.1-0.7c0.1-0.3,0.4-0.7,0.7-0.6
				C4.3,82.3,4.2,82.8,4.7,83.2z"/>
			<path class="st2" d="M11.5,82c-0.7-0.6-1.4-0.9-1.8-0.9c-0.1,0-0.4,0-0.5,0.2c-0.1,0.1-0.1,0.2-0.3,0.4c-0.2,0.2-0.3,0.2-0.3,0.4
				c0,0.1,0.1,0.1,0.3,0.4c0.2,0.2,0.2,0.3,0.3,0.4c0.2,0.3,0.7,0.2,1,0.1C10.9,82.7,11.3,82.2,11.5,82z"/>
			<path class="st2" d="M0.5,82c0.7-0.6,1.4-0.9,1.8-0.9c0.1,0,0.4,0,0.5,0.2c0.1,0.1,0.1,0.2,0.3,0.4c0.2,0.2,0.3,0.2,0.3,0.4
				c0,0.1-0.1,0.1-0.3,0.4c-0.2,0.2-0.2,0.3-0.3,0.4c-0.2,0.3-0.7,0.2-1,0.1C1.1,82.8,0.7,82.3,0.5,82z"/>
			<path class="st2" d="M6,86.9c-0.6-0.7-1-1.3-0.9-1.8c0-0.1,0-0.4,0.2-0.5c0.1-0.1,0.2-0.1,0.4-0.3C5.8,84.1,5.8,84,5.9,84
				c0.1,0,0.1,0.1,0.4,0.3c0.2,0.2,0.3,0.2,0.4,0.3c0.3,0.2,0.2,0.7,0.2,1C6.8,86.2,6.2,86.7,6,86.9z"/>
			<path class="st2" d="M6,77.1c-0.6,0.7-1,1.3-0.9,1.8c0,0.1,0,0.4,0.2,0.5c0.1,0.1,0.2,0.1,0.4,0.3c0.2,0.2,0.2,0.3,0.3,0.3
				c0.1,0,0.1-0.1,0.4-0.3c0.2-0.2,0.3-0.2,0.4-0.3c0.3-0.2,0.2-0.7,0.2-1C6.8,77.8,6.3,77.3,6,77.1z"/>
		</g>
	</g>
	<g>
		<g>
			<ellipse class="st2" cx="18" cy="94" rx="1.4" ry="1.1"/>
			<path class="st2" d="M16.7,92.9c0.4-0.4,0.9-0.2,1-0.5c0.1-0.2-0.4-0.5-0.5-0.5c-0.3-0.2-0.6-0.2-0.9-0.2c-0.4,0-0.4,0.1-0.7,0
				c-0.3-0.1-0.5-0.2-0.5-0.1c0,0.1,0.1,0.2,0.1,0.4c0,0.2,0,0.2,0,0.4c0,0,0,0.4,0.1,0.7c0.1,0.3,0.4,0.7,0.7,0.6
				C16.3,93.7,16.2,93.2,16.7,92.9z"/>
			<path class="st2" d="M19.3,92.9c-0.4-0.4-0.9-0.2-1-0.5c-0.1-0.2,0.4-0.5,0.5-0.5c0.3-0.2,0.6-0.2,0.9-0.2c0.4,0,0.4,0.1,0.7,0
				c0.3-0.1,0.5-0.2,0.5-0.1c0,0.1-0.1,0.2-0.1,0.4c0,0.2,0,0.2,0,0.4c0,0,0,0.4-0.1,0.7c-0.1,0.3-0.4,0.7-0.7,0.6
				C19.7,93.7,19.7,93.2,19.3,92.9z"/>
			<path class="st2" d="M19.3,95.1c-0.4,0.4-0.9,0.2-1,0.5c-0.1,0.2,0.4,0.5,0.5,0.5c0.3,0.2,0.6,0.2,0.9,0.2c0.4,0,0.4-0.1,0.7,0
				c0.3,0.1,0.5,0.2,0.5,0.1c0-0.1-0.1-0.2-0.1-0.4c0-0.2,0-0.2,0-0.4c0,0,0-0.4-0.1-0.7c-0.1-0.3-0.4-0.7-0.7-0.6
				C19.7,94.3,19.7,94.7,19.3,95.1z"/>
			<path class="st2" d="M16.7,95.1c0.4,0.4,0.9,0.2,1,0.5c0.1,0.2-0.4,0.5-0.5,0.5c-0.3,0.2-0.6,0.2-0.9,0.2c-0.4,0-0.4-0.1-0.7,0
				c-0.3,0.1-0.5,0.2-0.5,0.1c0-0.1,0.1-0.2,0.1-0.4c0-0.2,0-0.2,0-0.4c0,0,0-0.4,0.1-0.7c0.1-0.3,0.4-0.7,0.7-0.6
				C16.3,94.3,16.2,94.7,16.7,95.1z"/>
			<path class="st2" d="M23.5,93.9c-0.7-0.6-1.4-0.9-1.8-0.9c-0.1,0-0.4,0-0.5,0.2c-0.1,0.1-0.1,0.2-0.3,0.4
				c-0.2,0.2-0.3,0.2-0.3,0.4c0,0.1,0.1,0.1,0.3,0.4c0.2,0.2,0.2,0.3,0.3,0.4c0.2,0.3,0.7,0.2,1,0.1C22.9,94.7,23.3,94.1,23.5,93.9z
				"/>
			<path class="st2" d="M12.5,94c0.7-0.6,1.4-0.9,1.8-0.9c0.1,0,0.4,0,0.5,0.2c0.1,0.1,0.1,0.2,0.3,0.4c0.2,0.2,0.3,0.2,0.3,0.4
				c0,0.1-0.1,0.1-0.3,0.4c-0.2,0.2-0.2,0.3-0.3,0.4c-0.2,0.3-0.7,0.2-1,0.1C13.1,94.7,12.7,94.2,12.5,94z"/>
			<path class="st2" d="M18,98.9c-0.6-0.7-1-1.3-0.9-1.8c0-0.1,0-0.4,0.2-0.5c0.1-0.1,0.2-0.1,0.4-0.3c0.2-0.2,0.2-0.3,0.3-0.3
				c0.1,0,0.1,0.1,0.4,0.3c0.2,0.2,0.3,0.2,0.4,0.3c0.3,0.2,0.2,0.7,0.2,1C18.8,98.2,18.2,98.7,18,98.9z"/>
			<path class="st2" d="M18,89.1c-0.6,0.7-1,1.3-0.9,1.8c0,0.1,0,0.4,0.2,0.5c0.1,0.1,0.2,0.1,0.4,0.3c0.2,0.2,0.2,0.3,0.3,0.3
				c0.1,0,0.1-0.1,0.4-0.3c0.2-0.2,0.3-0.2,0.4-0.3c0.3-0.2,0.2-0.7,0.2-1C18.8,89.8,18.3,89.3,18,89.1z"/>
		</g>
	</g>
	<g>
		<rect x="0" y="23.9" class="st1" width="12" height="12"/>
		<path class="st3" d="M3.4,34.1c0.8-0.7,1.3-0.9,1.7-0.8c0.7,0.1,0.9,0.6,1.8,1c0.1,0,1,0.4,1.8,0.2c0,0,0.1,0,0.3-0.1
			c0.2-0.1,0.5-0.1,1-0.2c0.2,0,0.5-0.1,0.8-0.1"/>
		<path class="st4" d="M0.7,33.6c0.7,0.2,1.2,0.2,1.4,0.1c0.7-0.3,0.7-0.8,1.7-1.3c0.4-0.2,0.7-0.2,0.9-0.2c0.3,0,0.6,0.1,0.8,0.2
			c0.2,0.1,0.6,0.3,1,0.6"/>
		<path class="st4" d="M10.6,33c-0.2,0.2-0.8,0.5-1.6,0.4c-0.5,0-0.9-0.2-1-0.3C7.7,33.1,7.6,33,7,32.4c-0.8-0.7-0.7-0.7-1-1
			c-0.7-0.5-1.2-0.7-1.3-0.7c-0.2-0.1-0.5-0.1-0.7-0.1c-0.4,0-0.6,0.2-1,0.4c-0.5,0.3-0.4,0.4-0.8,0.7c-0.4,0.3-0.8,0.4-0.9,0.5
			c-0.4,0.2-0.7,0.2-1,0.3"/>
		<path class="st3" d="M9.3,32.7C9.3,32.6,8.8,32,8.1,32c-0.2,0-0.4,0.1-0.6,0.1"/>
		<path class="st4" d="M9.8,31.9c-0.4-0.2-0.9-0.5-1.5-0.6c-0.5-0.1-0.8,0-1,0.1c-0.2,0.1-0.3,0.2-0.4,0.3"/>
		<path class="st4" d="M11.9,31.9c-0.3-0.1-0.6-0.2-1-0.4c-0.3-0.2-0.6-0.3-1-0.5c-0.7-0.4-0.6-0.6-1.1-0.9
			c-0.2-0.1-0.6-0.3-1.2-0.3c-0.5,0-0.9,0.3-1.1,0.4c-0.3,0.2-0.4,0.4-0.5,0.5"/>
		<path class="st3" d="M2.4,30.3c0.3-0.2,1.5-0.9,2.7-0.5c0.2,0.1,0.4,0.2,0.6,0.3"/>
	</g>
	<path class="st5" d="M8,35.6"/>
	<g>
		<rect x="88.1" y="24.3" class="st1" width="12" height="12"/>
		<path class="st3" d="M91.5,34.5c0.8-0.7,1.3-0.9,1.7-0.8c0.7,0.1,0.9,0.6,1.8,1c0.1,0,1,0.4,1.8,0.2c0,0,0.1,0,0.3-0.1
			c0.2-0.1,0.5-0.1,1-0.2c0.2,0,0.5-0.1,0.8-0.1"/>
		<path class="st4" d="M88.7,34c0.7,0.2,1.2,0.2,1.4,0.1c0.7-0.3,0.7-0.8,1.7-1.3c0.4-0.2,0.7-0.2,0.9-0.2c0.3,0,0.6,0.1,0.8,0.2
			c0.2,0.1,0.6,0.3,1,0.6"/>
		<path class="st4" d="M98.6,33.5c-0.2,0.2-0.8,0.5-1.6,0.4c-0.5,0-0.9-0.2-1-0.3c-0.2-0.1-0.3-0.2-0.9-0.7c-0.8-0.7-0.7-0.7-1-1
			c-0.7-0.5-1.2-0.7-1.3-0.7c-0.2-0.1-0.5-0.1-0.7-0.1c-0.4,0-0.6,0.2-1,0.4c-0.5,0.3-0.4,0.4-0.8,0.7c-0.4,0.3-0.8,0.4-0.9,0.5
			c-0.4,0.2-0.7,0.2-1,0.3"/>
		<path class="st3" d="M97.4,33.1c-0.1-0.1-0.5-0.6-1.2-0.6c-0.2,0-0.4,0.1-0.6,0.1"/>
		<path class="st4" d="M97.8,32.3c-0.4-0.2-0.9-0.5-1.5-0.6c-0.5-0.1-0.8,0-1,0.1C95.1,31.8,95,32,95,32"/>
		<path class="st4" d="M99.9,32.4c-0.3-0.1-0.6-0.2-1-0.4c-0.3-0.2-0.6-0.3-1-0.5c-0.7-0.4-0.6-0.6-1.1-0.9
			c-0.2-0.1-0.6-0.3-1.2-0.3c-0.5,0-0.9,0.3-1.1,0.4c-0.3,0.2-0.4,0.4-0.5,0.5"/>
		<path class="st3" d="M90.4,30.8c0.3-0.2,1.5-0.9,2.7-0.5c0.2,0.1,0.4,0.2,0.6,0.3"/>
	</g>
	<path class="st5" d="M96,36.1"/>
	<g>
		<rect x="0" y="64" class="st1" width="12" height="12"/>
		<path class="st3" d="M3.4,74.2c0.8-0.7,1.3-0.9,1.7-0.8c0.7,0.1,0.9,0.6,1.8,1c0.1,0,1,0.4,1.8,0.2c0,0,0.1,0,0.3-0.1
			c0.2-0.1,0.5-0.1,1-0.2c0.2,0,0.5-0.1,0.8-0.1"/>
		<path class="st4" d="M0.6,73.7C1.3,74,1.8,73.9,2,73.8c0.7-0.3,0.7-0.8,1.7-1.3c0.4-0.2,0.7-0.2,0.9-0.2c0.3,0,0.6,0.1,0.8,0.2
			c0.2,0.1,0.6,0.3,1,0.6"/>
		<path class="st4" d="M10.5,73.1c-0.2,0.2-0.8,0.5-1.6,0.4c-0.5,0-0.9-0.2-1-0.3C7.7,73.2,7.5,73,7,72.5c-0.8-0.7-0.7-0.7-1-1
			c-0.7-0.5-1.2-0.7-1.3-0.7c-0.2-0.1-0.5-0.1-0.7-0.1c-0.4,0-0.6,0.2-1,0.4c-0.5,0.3-0.4,0.4-0.8,0.7c-0.4,0.3-0.8,0.4-0.9,0.5
			c-0.4,0.2-0.7,0.2-1,0.3"/>
		<path class="st3" d="M9.3,72.8c-0.1-0.1-0.5-0.6-1.2-0.6c-0.2,0-0.4,0.1-0.6,0.1"/>
		<path class="st4" d="M9.7,72c-0.4-0.2-0.9-0.5-1.5-0.6c-0.5-0.1-0.8,0-1,0.1c-0.2,0.1-0.3,0.2-0.4,0.3"/>
		<path class="st4" d="M11.8,72c-0.3-0.1-0.6-0.2-1-0.4c-0.3-0.2-0.6-0.3-1-0.5c-0.7-0.4-0.6-0.6-1.1-0.9c-0.2-0.1-0.6-0.3-1.2-0.3
			c-0.5,0-0.9,0.3-1.1,0.4c-0.3,0.2-0.4,0.4-0.5,0.5"/>
		<path class="st3" d="M2.3,70.4C2.6,70.2,3.8,69.5,5,70c0.2,0.1,0.4,0.2,0.6,0.3"/>
	</g>
	<path class="st5" d="M7.9,75.7"/>
	<g>
		<rect x="88" y="64" class="st1" width="12" height="12"/>
		<path class="st3" d="M91.4,74.2c0.8-0.7,1.3-0.9,1.7-0.8c0.7,0.1,0.9,0.6,1.8,1c0.1,0,1,0.4,1.8,0.2c0,0,0.1,0,0.3-0.1
			c0.2-0.1,0.5-0.1,1-0.2c0.2,0,0.5-0.1,0.8-0.1"/>
		<path class="st4" d="M88.6,73.7c0.7,0.2,1.2,0.2,1.4,0.1c0.7-0.3,0.7-0.8,1.7-1.3c0.4-0.2,0.7-0.2,0.9-0.2c0.3,0,0.6,0.1,0.8,0.2
			c0.2,0.1,0.6,0.3,1,0.6"/>
		<path class="st4" d="M98.5,73.1c-0.2,0.2-0.8,0.5-1.6,0.4c-0.5,0-0.9-0.2-1-0.3c-0.2-0.1-0.3-0.2-0.9-0.7c-0.8-0.7-0.7-0.7-1-1
			c-0.7-0.5-1.2-0.7-1.3-0.7c-0.2-0.1-0.5-0.1-0.7-0.1c-0.4,0-0.6,0.2-1,0.4c-0.5,0.3-0.4,0.4-0.8,0.7c-0.4,0.3-0.8,0.4-0.9,0.5
			c-0.4,0.2-0.7,0.2-1,0.3"/>
		<path class="st3" d="M97.3,72.8c-0.1-0.1-0.5-0.6-1.2-0.6c-0.2,0-0.4,0.1-0.6,0.1"/>
		<path class="st4" d="M97.7,72c-0.4-0.2-0.9-0.5-1.5-0.6c-0.5-0.1-0.8,0-1,0.1c-0.2,0.1-0.3,0.2-0.4,0.3"/>
		<path class="st4" d="M99.9,72c-0.3-0.1-0.6-0.2-1-0.4c-0.3-0.2-0.6-0.3-1-0.5c-0.7-0.4-0.6-0.6-1.1-0.9c-0.2-0.1-0.6-0.3-1.2-0.3
			c-0.5,0-0.9,0.3-1.1,0.4c-0.3,0.2-0.4,0.4-0.5,0.5"/>
		<path class="st3" d="M90.3,70.4c0.3-0.2,1.5-0.9,2.7-0.5c0.2,0.1,0.4,0.2,0.6,0.3"/>
	</g>
	<path class="st5" d="M96,75.7"/>
	<g>
		<rect x="64.5" y="0" class="st1" width="12" height="12"/>
		<path class="st3" d="M67.9,10.2c0.8-0.7,1.3-0.9,1.7-0.8c0.7,0.1,0.9,0.6,1.8,1c0.1,0,1,0.4,1.8,0.2c0,0,0.1,0,0.3-0.1
			c0.2-0.1,0.5-0.1,1-0.2c0.2,0,0.5-0.1,0.8-0.1"/>
		<path class="st4" d="M65.1,9.7c0.7,0.2,1.2,0.2,1.4,0.1c0.7-0.3,0.7-0.8,1.7-1.3c0.4-0.2,0.7-0.2,0.9-0.2c0.3,0,0.6,0.1,0.8,0.2
			c0.2,0.1,0.6,0.3,1,0.6"/>
		<path class="st4" d="M75,9.1c-0.2,0.2-0.8,0.5-1.6,0.4c-0.5,0-0.9-0.2-1-0.3C72.2,9.1,72,9,71.5,8.5c-0.8-0.7-0.7-0.7-1-1
			c-0.7-0.5-1.2-0.7-1.3-0.7c-0.2-0.1-0.5-0.1-0.7-0.1c-0.4,0-0.6,0.2-1,0.4c-0.5,0.3-0.4,0.4-0.8,0.7c-0.4,0.3-0.8,0.4-0.9,0.5
			c-0.4,0.2-0.7,0.2-1,0.3"/>
		<path class="st3" d="M73.8,8.7c-0.1-0.1-0.5-0.6-1.2-0.6c-0.2,0-0.4,0.1-0.6,0.1"/>
		<path class="st4" d="M74.2,7.9c-0.4-0.2-0.9-0.5-1.5-0.6c-0.5-0.1-0.8,0-1,0.1c-0.2,0.1-0.3,0.2-0.4,0.3"/>
		<path class="st4" d="M76.3,8c-0.3-0.1-0.6-0.2-1-0.4c-0.3-0.2-0.6-0.3-1-0.5c-0.7-0.4-0.6-0.6-1.1-0.9c-0.2-0.1-0.6-0.3-1.2-0.3
			c-0.5,0-0.9,0.3-1.1,0.4c-0.3,0.2-0.4,0.4-0.5,0.5"/>
		<path class="st3" d="M66.8,6.4c0.3-0.2,1.5-0.9,2.7-0.5C69.8,6,70,6.1,70.1,6.2"/>
		<path class="st5" d="M72.5,11.7"/>
	</g>
	<g>
		<rect x="24" y="0.2" class="st1" width="12" height="12"/>
		<path class="st3" d="M27.4,10.4c0.8-0.7,1.3-0.9,1.7-0.8c0.7,0.1,0.9,0.6,1.8,1c0.1,0,1,0.4,1.8,0.2c0,0,0.1,0,0.3-0.1
			c0.2-0.1,0.5-0.1,1-0.2c0.2,0,0.5-0.1,0.8-0.1"/>
		<path class="st4" d="M24.6,9.9c0.7,0.2,1.2,0.2,1.4,0.1c0.7-0.3,0.7-0.8,1.7-1.3c0.4-0.2,0.7-0.2,0.9-0.2c0.3,0,0.6,0.1,0.8,0.2
			c0.2,0.1,0.6,0.3,1,0.6"/>
		<path class="st4" d="M34.5,9.3c-0.2,0.2-0.8,0.5-1.6,0.4c-0.5,0-0.9-0.2-1-0.3c-0.2-0.1-0.3-0.2-0.9-0.7c-0.8-0.7-0.7-0.7-1-1
			c-0.7-0.5-1.2-0.7-1.3-0.7C28.4,7,28.2,6.9,27.9,7c-0.4,0-0.6,0.2-1,0.4c-0.5,0.3-0.4,0.4-0.8,0.7c-0.4,0.3-0.8,0.4-0.9,0.5
			c-0.4,0.2-0.7,0.2-1,0.3"/>
		<path class="st3" d="M33.3,9c-0.1-0.1-0.5-0.6-1.2-0.6c-0.2,0-0.4,0.1-0.6,0.1"/>
		<path class="st4" d="M33.7,8.2c-0.4-0.2-0.9-0.5-1.5-0.6c-0.5-0.1-0.8,0-1,0.1c-0.2,0.1-0.3,0.2-0.4,0.3"/>
		<path class="st4" d="M35.9,8.2c-0.3-0.1-0.6-0.2-1-0.4c-0.3-0.2-0.6-0.3-1-0.5c-0.7-0.4-0.6-0.6-1.1-0.9c-0.2-0.1-0.6-0.3-1.2-0.3
			c-0.5,0-0.9,0.3-1.1,0.4c-0.3,0.2-0.4,0.4-0.5,0.5"/>
		<path class="st3" d="M26.3,6.6c0.3-0.2,1.5-0.9,2.7-0.5c0.2,0.1,0.4,0.2,0.6,0.3"/>
		<path class="st5" d="M32,11.9"/>
	</g>
	<g>
		<rect x="24" y="88" class="st1" width="12" height="12"/>
		<path class="st3" d="M27.4,98.2c0.8-0.7,1.3-0.9,1.7-0.8c0.7,0.1,0.9,0.6,1.8,1c0.1,0,1,0.4,1.8,0.2c0,0,0.1,0,0.3-0.1
			c0.2-0.1,0.5-0.1,1-0.2c0.2,0,0.5-0.1,0.8-0.1"/>
		<path class="st4" d="M24.6,97.7c0.7,0.2,1.2,0.2,1.4,0.1c0.7-0.3,0.7-0.8,1.7-1.3c0.4-0.2,0.7-0.2,0.9-0.2c0.3,0,0.6,0.1,0.8,0.2
			c0.2,0.1,0.6,0.3,1,0.6"/>
		<path class="st4" d="M34.5,97.2c-0.2,0.2-0.8,0.5-1.6,0.4c-0.5,0-0.9-0.2-1-0.3c-0.2-0.1-0.3-0.2-0.9-0.7c-0.8-0.7-0.7-0.7-1-1
			c-0.7-0.5-1.2-0.7-1.3-0.7c-0.2-0.1-0.5-0.1-0.7-0.1c-0.4,0-0.6,0.2-1,0.4c-0.5,0.3-0.4,0.4-0.8,0.7c-0.4,0.3-0.8,0.4-0.9,0.5
			c-0.4,0.2-0.7,0.2-1,0.3"/>
		<path class="st3" d="M33.3,96.8c-0.1-0.1-0.5-0.6-1.2-0.6c-0.2,0-0.4,0.1-0.6,0.1"/>
		<path class="st4" d="M33.8,96c-0.4-0.2-0.9-0.5-1.5-0.6c-0.5-0.1-0.8,0-1,0.1c-0.2,0.1-0.3,0.2-0.4,0.3"/>
		<path class="st4" d="M35.9,96.1c-0.3-0.1-0.6-0.2-1-0.4c-0.3-0.2-0.6-0.3-1-0.5c-0.7-0.4-0.6-0.6-1.1-0.9
			c-0.2-0.1-0.6-0.3-1.2-0.3c-0.5,0-0.9,0.3-1.1,0.4c-0.3,0.2-0.4,0.4-0.5,0.5"/>
		<path class="st3" d="M26.3,94.5c0.3-0.2,1.5-0.9,2.7-0.5c0.2,0.1,0.4,0.2,0.6,0.3"/>
	</g>
	<path class="st5" d="M32,99.8"/>
	<g>
		<rect x="64.1" y="87.9" class="st1" width="12" height="12"/>
		<path class="st3" d="M67.5,98.1c0.8-0.7,1.3-0.9,1.7-0.8c0.7,0.1,0.9,0.6,1.8,1c0.1,0,1,0.4,1.8,0.2c0,0,0.1,0,0.3-0.1
			c0.2-0.1,0.5-0.1,1-0.2c0.2,0,0.5-0.1,0.8-0.1"/>
		<path class="st4" d="M64.8,97.7c0.7,0.2,1.2,0.2,1.4,0.1c0.7-0.3,0.7-0.8,1.7-1.3c0.4-0.2,0.7-0.2,0.9-0.2c0.3,0,0.6,0.1,0.8,0.2
			c0.2,0.1,0.6,0.3,1,0.6"/>
		<path class="st4" d="M74.6,97.1c-0.2,0.2-0.8,0.5-1.6,0.4c-0.5,0-0.9-0.2-1-0.3c-0.2-0.1-0.3-0.2-0.9-0.7c-0.8-0.7-0.7-0.7-1-1
			c-0.7-0.5-1.2-0.7-1.3-0.7c-0.2-0.1-0.5-0.1-0.7-0.1c-0.4,0-0.6,0.2-1,0.4c-0.5,0.3-0.4,0.4-0.8,0.7c-0.4,0.3-0.8,0.4-0.9,0.5
			c-0.4,0.2-0.7,0.2-1,0.3"/>
		<path class="st3" d="M73.4,96.7c-0.1-0.1-0.5-0.6-1.2-0.6c-0.2,0-0.4,0.1-0.6,0.1"/>
		<path class="st4" d="M73.9,95.9c-0.4-0.2-0.9-0.5-1.5-0.6c-0.5-0.1-0.8,0-1,0.1c-0.2,0.1-0.3,0.2-0.4,0.3"/>
		<path class="st4" d="M76,96c-0.3-0.1-0.6-0.2-1-0.4c-0.3-0.2-0.6-0.3-1-0.5c-0.7-0.4-0.6-0.6-1.1-0.9c-0.2-0.1-0.6-0.3-1.2-0.3
			c-0.5,0-0.9,0.3-1.1,0.4c-0.3,0.2-0.4,0.4-0.5,0.5"/>
		<path class="st3" d="M66.5,94.4c0.3-0.2,1.5-0.9,2.7-0.5c0.2,0.1,0.4,0.2,0.6,0.3"/>
	</g>
	<path class="st5" d="M72.1,99.7"/>
	<g>
		<path class="st2" d="M42.6,4.5c-0.2-0.1-0.3-0.1-0.5-0.3c-0.4-0.4,0-0.9-0.2-1.6c-0.3-0.8-1.1-0.7-1.7-1.8C40,0.7,40,0.5,39.9,0.4
			l0-0.3c0,0,0,0.1,0,0.1c0,0,0-0.1,0-0.1l0,0.3c0,0.1-0.1,0.3-0.2,0.5c-0.6,1-1.4,1-1.7,1.8c-0.2,0.7,0.2,1.2-0.2,1.6
			c-0.2,0.2-0.3,0.1-0.5,0.3c-0.8,0.5-0.8,1.7-0.8,2c0,0.3,0,1.4,0.6,1.8c0.3,0.2,0.6,0.1,0.8,0.3c0.3,0.3,0,0.7,0.2,1.3
			c0.1,0.3,0.4,0.7,0.9,1.4c0.2,0.3,0.5,0.6,0.9,1.1l0,0.1c0,0,0,0,0.1-0.1c0,0,0,0,0.1,0.1l0-0.1c0.4-0.4,0.7-0.8,0.9-1.1
			c0.6-0.7,0.8-1,0.9-1.4c0.1-0.6-0.1-1,0.2-1.3c0.2-0.2,0.5-0.1,0.8-0.3c0.7-0.4,0.7-1.5,0.6-1.8C43.4,6.2,43.4,5,42.6,4.5z"/>
		<path class="st0" d="M41,5.6c-0.1-0.1-0.1,0-0.2-0.1c-0.2-0.2,0-0.4-0.1-0.6c-0.1-0.3-0.4-0.3-0.7-0.7c0-0.1-0.1-0.1-0.1-0.2
			l0-0.1c0,0,0,0,0,0.1c0,0,0,0,0-0.1l0,0.1c0,0.1,0,0.1-0.1,0.2c-0.2,0.4-0.6,0.4-0.7,0.7C39,5.1,39.2,5.3,39,5.5
			c-0.1,0.1-0.1,0.1-0.2,0.1c-0.3,0.2-0.3,0.7-0.3,0.8c0,0.1,0,0.6,0.3,0.7c0.1,0.1,0.2,0,0.3,0.1c0.1,0.1,0,0.3,0.1,0.5
			c0,0.1,0.1,0.3,0.4,0.5c0.1,0.1,0.2,0.3,0.4,0.4l0,0.1c0,0,0,0,0,0c0,0,0,0,0,0l0-0.1c0.2-0.2,0.3-0.3,0.4-0.4
			c0.2-0.3,0.3-0.4,0.4-0.5c0.1-0.3,0-0.4,0.1-0.5c0.1-0.1,0.2,0,0.3-0.1c0.3-0.2,0.3-0.6,0.3-0.7C41.3,6.3,41.3,5.8,41,5.6z"/>
	</g>
	<g>
		<path class="st2" d="M62.8,4.1c-0.2-0.1-0.3-0.1-0.5-0.3c-0.4-0.4,0-0.9-0.2-1.6c-0.3-0.8-1.1-0.7-1.7-1.8
			c-0.1-0.2-0.2-0.3-0.2-0.5l0-0.3c0,0,0,0.1,0,0.1c0,0,0-0.1,0-0.1l0,0.3c0,0.1-0.1,0.3-0.2,0.5c-0.6,1-1.4,1-1.7,1.8
			c-0.2,0.7,0.2,1.2-0.2,1.6c-0.2,0.2-0.3,0.1-0.5,0.3c-0.8,0.5-0.8,1.7-0.8,2c0,0.3,0,1.4,0.6,1.8C57.6,8.1,57.8,8,58,8.2
			c0.3,0.3,0,0.7,0.2,1.3c0.1,0.3,0.4,0.7,0.9,1.4c0.2,0.3,0.5,0.6,0.9,1.1l0,0.1c0,0,0,0,0.1-0.1c0,0,0,0,0.1,0.1l0-0.1
			c0.4-0.4,0.7-0.8,0.9-1.1c0.6-0.7,0.8-1,0.9-1.4c0.1-0.6-0.1-1,0.2-1.3C62.4,8,62.7,8.1,63,7.9c0.7-0.4,0.7-1.5,0.6-1.8
			C63.6,5.8,63.6,4.6,62.8,4.1z"/>
		<path class="st0" d="M61.2,5.2c-0.1-0.1-0.1,0-0.2-0.1c-0.2-0.2,0-0.4-0.1-0.6c-0.1-0.3-0.4-0.3-0.7-0.7c0-0.1-0.1-0.1-0.1-0.2
			l0-0.1c0,0,0,0,0,0.1c0,0,0,0,0-0.1l0,0.1c0,0.1,0,0.1-0.1,0.2c-0.2,0.4-0.6,0.4-0.7,0.7c-0.1,0.3,0.1,0.5-0.1,0.6
			c-0.1,0.1-0.1,0.1-0.2,0.1c-0.3,0.2-0.3,0.7-0.3,0.8c0,0.1,0,0.6,0.3,0.7c0.1,0.1,0.2,0,0.3,0.1c0.1,0.1,0,0.3,0.1,0.5
			c0,0.1,0.1,0.3,0.4,0.5c0.1,0.1,0.2,0.3,0.4,0.4l0,0.1c0,0,0,0,0,0c0,0,0,0,0,0l0-0.1c0.2-0.2,0.3-0.3,0.4-0.4
			c0.2-0.3,0.3-0.4,0.4-0.5c0.1-0.3,0-0.4,0.1-0.5c0.1-0.1,0.2,0,0.3-0.1c0.3-0.2,0.3-0.6,0.3-0.7C61.5,5.9,61.5,5.4,61.2,5.2z"/>
	</g>
	<g>
		<path class="st2" d="M43.1,92.1c-0.2-0.1-0.3-0.1-0.5-0.3c-0.4-0.4,0-0.9-0.2-1.6c-0.3-0.8-1.1-0.7-1.7-1.8
			c-0.1-0.2-0.2-0.3-0.2-0.5l0-0.3c0,0,0,0.1,0,0.1c0,0,0-0.1,0-0.1l0,0.3c0,0.1-0.1,0.3-0.2,0.5c-0.6,1-1.4,1-1.7,1.8
			c-0.2,0.7,0.2,1.2-0.2,1.6C38.1,92,38,92,37.7,92.1c-0.8,0.5-0.8,1.7-0.8,2c0,0.3,0,1.4,0.6,1.8c0.3,0.2,0.6,0.1,0.8,0.3
			c0.3,0.3,0,0.7,0.2,1.3c0.1,0.3,0.4,0.7,0.9,1.4c0.2,0.3,0.5,0.6,0.9,1.1l0,0.1c0,0,0,0,0.1-0.1c0,0,0,0,0.1,0.1l0-0.1
			c0.4-0.4,0.7-0.8,0.9-1.1c0.6-0.7,0.8-1,0.9-1.4c0.1-0.6-0.1-1,0.2-1.3c0.2-0.2,0.5-0.1,0.8-0.3c0.7-0.4,0.7-1.5,0.6-1.8
			C44,93.9,43.9,92.6,43.1,92.1z"/>
		<path class="st0" d="M41.5,93.2c-0.1-0.1-0.1,0-0.2-0.1c-0.2-0.2,0-0.4-0.1-0.6c-0.1-0.3-0.4-0.3-0.7-0.7c0-0.1-0.1-0.1-0.1-0.2
			l0-0.1c0,0,0,0,0,0.1c0,0,0,0,0-0.1l0,0.1c0,0.1,0,0.1-0.1,0.2c-0.2,0.4-0.6,0.4-0.7,0.7c-0.1,0.3,0.1,0.5-0.1,0.6
			c-0.1,0.1-0.1,0.1-0.2,0.1C39,93.4,39,93.9,39,94c0,0.1,0,0.6,0.3,0.7c0.1,0.1,0.2,0,0.3,0.1c0.1,0.1,0,0.3,0.1,0.5
			c0,0.1,0.1,0.3,0.4,0.5c0.1,0.1,0.2,0.3,0.4,0.4l0,0.1c0,0,0,0,0,0c0,0,0,0,0,0l0-0.1c0.2-0.2,0.3-0.3,0.4-0.4
			c0.2-0.3,0.3-0.4,0.4-0.5c0.1-0.3,0-0.4,0.1-0.5c0.1-0.1,0.2,0,0.3-0.1c0.3-0.2,0.3-0.6,0.3-0.7C41.8,93.9,41.8,93.4,41.5,93.2z"
			/>
	</g>
	<g>
		<path class="st2" d="M63.1,92.1c-0.2-0.1-0.3-0.1-0.5-0.3c-0.4-0.4,0-0.9-0.2-1.6c-0.3-0.8-1.1-0.7-1.7-1.8
			c-0.1-0.2-0.2-0.3-0.2-0.5l0-0.3c0,0,0,0.1,0,0.1c0,0,0-0.1,0-0.1l0,0.3c0,0.1-0.1,0.3-0.2,0.5c-0.6,1-1.4,1-1.7,1.8
			c-0.2,0.7,0.2,1.2-0.2,1.6c-0.2,0.2-0.3,0.1-0.5,0.3c-0.8,0.5-0.8,1.7-0.8,2c0,0.3,0,1.4,0.6,1.8c0.3,0.2,0.6,0.1,0.8,0.3
			c0.3,0.3,0,0.7,0.2,1.3c0.1,0.3,0.4,0.7,0.9,1.4c0.2,0.3,0.5,0.6,0.9,1.1l0,0.1c0,0,0,0,0.1-0.1c0,0,0,0,0.1,0.1l0-0.1
			c0.4-0.4,0.7-0.8,0.9-1.1c0.6-0.7,0.8-1,0.9-1.4c0.1-0.6-0.1-1,0.2-1.3c0.2-0.2,0.5-0.1,0.8-0.3c0.7-0.4,0.7-1.5,0.6-1.8
			C63.9,93.8,63.9,92.6,63.1,92.1z"/>
		<path class="st0" d="M61.5,93.2c-0.1-0.1-0.1,0-0.2-0.1c-0.2-0.2,0-0.4-0.1-0.6c-0.1-0.3-0.4-0.3-0.7-0.7c0-0.1-0.1-0.1-0.1-0.2
			l0-0.1c0,0,0,0,0,0.1c0,0,0,0,0-0.1l0,0.1c0,0.1,0,0.1-0.1,0.2c-0.2,0.4-0.6,0.4-0.7,0.7c-0.1,0.3,0.1,0.5-0.1,0.6
			c-0.1,0.1-0.1,0.1-0.2,0.1C59,93.4,59,93.8,59,93.9c0,0.1,0,0.6,0.3,0.7c0.1,0.1,0.2,0,0.3,0.1c0.1,0.1,0,0.3,0.1,0.5
			c0,0.1,0.1,0.3,0.4,0.5c0.1,0.1,0.2,0.3,0.4,0.4l0,0.1c0,0,0,0,0,0c0,0,0,0,0,0l0-0.1c0.2-0.2,0.3-0.3,0.4-0.4
			c0.2-0.3,0.3-0.4,0.4-0.5c0.1-0.3,0-0.4,0.1-0.5c0.1-0.1,0.2,0,0.3-0.1c0.3-0.2,0.3-0.6,0.3-0.7C61.8,93.8,61.8,93.4,61.5,93.2z"
			/>
	</g>
	<g>
		<path class="st2" d="M91.9,37.8c-0.1,0.2-0.1,0.3-0.3,0.5c-0.4,0.4-0.9,0-1.6,0.2c-0.8,0.3-0.7,1.1-1.8,1.7
			c-0.2,0.1-0.3,0.2-0.5,0.2l-0.3,0c0,0,0.1,0,0.1,0c0,0-0.1,0-0.1,0l0.3,0c0.1,0,0.3,0.1,0.5,0.2c1,0.6,1,1.4,1.8,1.7
			c0.7,0.2,1.2-0.2,1.6,0.2c0.2,0.2,0.1,0.3,0.3,0.5c0.5,0.8,1.7,0.8,2,0.8c0.3,0,1.4,0,1.8-0.6c0.2-0.3,0.1-0.6,0.3-0.8
			c0.3-0.3,0.7,0,1.3-0.2c0.3-0.1,0.7-0.4,1.4-0.9c0.3-0.2,0.6-0.5,1.1-0.9l0.1,0c0,0,0,0-0.1-0.1c0,0,0,0,0.1-0.1l-0.1,0
			c-0.4-0.4-0.8-0.7-1.1-0.9c-0.7-0.6-1-0.8-1.4-0.9c-0.6-0.1-1,0.1-1.3-0.2c-0.2-0.2-0.1-0.5-0.3-0.8c-0.4-0.7-1.5-0.7-1.8-0.6
			C93.6,36.9,92.4,36.9,91.9,37.8z"/>
		<path class="st0" d="M93,39.4c-0.1,0.1,0,0.1-0.1,0.2c-0.2,0.2-0.4,0-0.6,0.1c-0.3,0.1-0.3,0.4-0.7,0.7c-0.1,0-0.1,0.1-0.2,0.1
			l-0.1,0c0,0,0,0,0.1,0c0,0,0,0-0.1,0l0.1,0c0.1,0,0.1,0,0.2,0.1c0.4,0.2,0.4,0.6,0.7,0.7c0.3,0.1,0.5-0.1,0.6,0.1
			c0.1,0.1,0.1,0.1,0.1,0.2c0.2,0.3,0.7,0.3,0.8,0.3c0.1,0,0.6,0,0.7-0.3c0.1-0.1,0-0.2,0.1-0.3c0.1-0.1,0.3,0,0.5-0.1
			c0.1,0,0.3-0.1,0.5-0.4c0.1-0.1,0.3-0.2,0.4-0.4l0.1,0c0,0,0,0,0,0c0,0,0,0,0,0l-0.1,0c-0.2-0.2-0.3-0.3-0.4-0.4
			c-0.3-0.2-0.4-0.3-0.5-0.4c-0.3-0.1-0.4,0-0.5-0.1c-0.1-0.1,0-0.2-0.1-0.3C94.4,39,93.9,39,93.8,39C93.7,39,93.2,39,93,39.4z"/>
	</g>
	<g>
		<path class="st2" d="M91.8,57.6c-0.1,0.2-0.1,0.3-0.3,0.5c-0.4,0.4-0.9,0-1.6,0.2c-0.8,0.3-0.7,1.1-1.8,1.7
			c-0.2,0.1-0.3,0.2-0.5,0.2l-0.3,0c0,0,0.1,0,0.1,0c0,0-0.1,0-0.1,0l0.3,0c0.1,0,0.3,0.1,0.5,0.2c1,0.6,1,1.4,1.8,1.7
			c0.7,0.2,1.2-0.2,1.6,0.2c0.2,0.2,0.1,0.3,0.3,0.5c0.5,0.8,1.7,0.8,2,0.8c0.3,0,1.4,0,1.8-0.6c0.2-0.3,0.1-0.6,0.3-0.8
			c0.3-0.3,0.7,0,1.3-0.2c0.3-0.1,0.7-0.4,1.4-0.9c0.3-0.2,0.6-0.5,1.1-0.9l0.1,0c0,0,0,0-0.1-0.1c0,0,0,0,0.1-0.1l-0.1,0
			c-0.4-0.4-0.8-0.7-1.1-0.9c-0.7-0.6-1-0.8-1.4-0.9c-0.6-0.1-1,0.1-1.3-0.2c-0.2-0.2-0.1-0.5-0.3-0.8c-0.4-0.7-1.5-0.7-1.8-0.6
			C93.5,56.7,92.3,56.8,91.8,57.6z"/>
		<path class="st0" d="M92.8,59.2c-0.1,0.1,0,0.1-0.1,0.2c-0.2,0.2-0.4,0-0.6,0.1c-0.3,0.1-0.3,0.4-0.7,0.7c-0.1,0-0.1,0.1-0.2,0.1
			l-0.1,0c0,0,0,0,0.1,0c0,0,0,0-0.1,0l0.1,0c0.1,0,0.1,0,0.2,0.1c0.4,0.2,0.4,0.6,0.7,0.7c0.3,0.1,0.5-0.1,0.6,0.1
			c0.1,0.1,0.1,0.1,0.1,0.2c0.2,0.3,0.7,0.3,0.8,0.3c0.1,0,0.6,0,0.7-0.3c0.1-0.1,0-0.2,0.1-0.3c0.1-0.1,0.3,0,0.5-0.1
			c0.1,0,0.3-0.1,0.5-0.4c0.1-0.1,0.3-0.2,0.4-0.4l0.1,0c0,0,0,0,0,0c0,0,0,0,0,0l-0.1,0c-0.2-0.2-0.3-0.3-0.4-0.4
			c-0.3-0.2-0.4-0.3-0.5-0.4c-0.3-0.1-0.4,0-0.5-0.1c-0.1-0.1,0-0.2-0.1-0.3c-0.2-0.3-0.6-0.3-0.7-0.3C93.5,58.9,93,58.9,92.8,59.2z
			"/>
	</g>
	<g>
		<path class="st2" d="M3.6,37.7c-0.1,0.2-0.1,0.3-0.3,0.5c-0.4,0.4-0.9,0-1.6,0.2C1,38.7,1.1,39.5,0,40.1c-0.2,0.1-0.3,0.2-0.5,0.2
			l-0.3,0c0,0,0.1,0,0.1,0c0,0-0.1,0-0.1,0l0.3,0c0.1,0,0.3,0.1,0.5,0.2c1,0.6,1,1.4,1.8,1.7c0.7,0.2,1.2-0.2,1.6,0.2
			c0.2,0.2,0.1,0.3,0.3,0.5c0.5,0.8,1.7,0.8,2,0.8c0.3,0,1.4,0,1.8-0.6c0.2-0.3,0.1-0.6,0.3-0.8c0.3-0.3,0.7,0,1.3-0.2
			c0.3-0.1,0.7-0.4,1.4-0.9c0.3-0.2,0.6-0.5,1.1-0.9l0.1,0c0,0,0,0-0.1-0.1c0,0,0,0,0.1-0.1l-0.1,0c-0.4-0.4-0.8-0.7-1.1-0.9
			c-0.7-0.6-1-0.8-1.4-0.9c-0.6-0.1-1,0.1-1.3-0.2c-0.2-0.2-0.1-0.5-0.3-0.8c-0.4-0.7-1.5-0.7-1.8-0.6C5.4,36.8,4.1,36.8,3.6,37.7z"
			/>
		<path class="st0" d="M4.7,39.3c-0.1,0.1,0,0.1-0.1,0.2c-0.2,0.2-0.4,0-0.6,0.1c-0.3,0.1-0.3,0.4-0.7,0.7c-0.1,0-0.1,0.1-0.2,0.1
			l-0.1,0c0,0,0,0,0.1,0c0,0,0,0-0.1,0l0.1,0c0.1,0,0.1,0,0.2,0.1C3.7,40.7,3.7,41,4,41.1c0.3,0.1,0.5-0.1,0.6,0.1
			c0.1,0.1,0.1,0.1,0.1,0.2c0.2,0.3,0.7,0.3,0.8,0.3c0.1,0,0.6,0,0.7-0.3c0.1-0.1,0-0.2,0.1-0.3c0.1-0.1,0.3,0,0.5-0.1
			c0.1,0,0.3-0.1,0.5-0.4c0.1-0.1,0.3-0.2,0.4-0.4l0.1,0c0,0,0,0,0,0c0,0,0,0,0,0l-0.1,0c-0.2-0.2-0.3-0.3-0.4-0.4
			c-0.3-0.2-0.4-0.3-0.5-0.4c-0.3-0.1-0.4,0-0.5-0.1c-0.1-0.1,0-0.2-0.1-0.3c-0.2-0.3-0.6-0.3-0.7-0.3C5.4,38.9,4.9,38.9,4.7,39.3z"
			/>
	</g>
	<g>
		<path class="st2" d="M4.1,57.7C3.9,58,4,58.1,3.8,58.2c-0.4,0.4-0.9,0-1.6,0.2c-0.8,0.3-0.7,1.1-1.8,1.7c-0.2,0.1-0.3,0.2-0.5,0.2
			l-0.3,0c0,0,0.1,0,0.1,0c0,0-0.1,0-0.1,0l0.3,0c0.1,0,0.3,0.1,0.5,0.2c1,0.6,1,1.4,1.8,1.7c0.7,0.2,1.2-0.2,1.6,0.2
			c0.2,0.2,0.1,0.3,0.3,0.5c0.5,0.8,1.7,0.8,2,0.8c0.3,0,1.4,0,1.8-0.6C8.1,63,8,62.7,8.2,62.5c0.3-0.3,0.7,0,1.3-0.2
			c0.3-0.1,0.7-0.4,1.4-0.9c0.3-0.2,0.6-0.5,1.1-0.9l0.1,0c0,0,0,0-0.1-0.1c0,0,0,0,0.1-0.1l-0.1,0c-0.4-0.4-0.8-0.7-1.1-0.9
			c-0.7-0.6-1-0.8-1.4-0.9c-0.6-0.1-1,0.1-1.3-0.2c-0.2-0.2-0.1-0.5-0.3-0.8c-0.4-0.7-1.5-0.7-1.8-0.6C5.8,56.9,4.6,56.9,4.1,57.7z"
			/>
		<path class="st0" d="M5.2,59.3c-0.1,0.1,0,0.1-0.1,0.2c-0.2,0.2-0.4,0-0.6,0.1c-0.3,0.1-0.3,0.4-0.7,0.7c-0.1,0-0.1,0.1-0.2,0.1
			l-0.1,0c0,0,0,0,0.1,0c0,0,0,0-0.1,0l0.1,0c0.1,0,0.1,0,0.2,0.1c0.4,0.2,0.4,0.6,0.7,0.7c0.3,0.1,0.5-0.1,0.6,0.1
			c0.1,0.1,0.1,0.1,0.1,0.2c0.2,0.3,0.7,0.3,0.8,0.3c0.1,0,0.6,0,0.7-0.3c0.1-0.1,0-0.2,0.1-0.3c0.1-0.1,0.3,0,0.5-0.1
			c0.1,0,0.3-0.1,0.5-0.4c0.1-0.1,0.3-0.2,0.4-0.4l0.1,0c0,0,0,0,0,0c0,0,0,0,0,0l-0.1,0C8.2,60.2,8,60.1,7.9,60
			c-0.3-0.2-0.4-0.3-0.5-0.4c-0.3-0.1-0.4,0-0.5-0.1c-0.1-0.1,0-0.2-0.1-0.3C6.5,59,6.1,59,6,59C5.9,59,5.4,59,5.2,59.3z"/>
	</g>
	<g>
		<rect x="43.9" y="-0.2" class="st2" width="12" height="12"/>
		<g>
			<g>
				<line class="st0" x1="49.7" y1="3.5" x2="49.8" y2="11.2"/>
				<path class="st0" d="M53.2,4.9c0,0-0.2,0.2-0.6,0.6c-0.7,0.8-0.7,1-1.1,1.4c-0.2,0.2-0.2,0.1-0.9,0.7c-0.5,0.4-0.6,0.5-0.7,0.5
					c-0.1-0.1,0.4-0.6,0.8-1.1c0.2-0.2,0.4-0.4,0.9-0.9C52.4,5.5,53.2,4.9,53.2,4.9z"/>
				<path class="st0" d="M54,7.3c0,0-0.2,0.2-0.7,0.5c-0.9,0.6-0.9,0.8-1.5,1.1c-0.3,0.1-0.2,0.1-1.1,0.4c-0.6,0.2-0.8,0.3-0.8,0.3
					c0-0.1,0.5-0.5,1.1-0.8c0.3-0.2,0.5-0.3,1.1-0.6C53.1,7.6,54,7.2,54,7.3z"/>
				<path class="st0" d="M54.9,8.4c0,0-0.3,0.1-0.9,0.4c-1.2,0.5-1.2,0.7-1.9,0.9c-0.3,0.1-0.2,0-1.3,0.3c-0.7,0.2-0.9,0.2-0.9,0.2
					c0-0.1,0.7-0.4,1.4-0.7c0.3-0.1,0.6-0.2,1.4-0.5C53.8,8.6,54.9,8.3,54.9,8.4z"/>
				<path class="st0" d="M54.2,5.7c0,0-0.3,0.2-0.8,0.6c-1,0.8-1,1-1.6,1.4c-0.3,0.2-0.2,0.1-1.2,0.6c-0.6,0.3-0.8,0.5-0.8,0.4
					c0-0.1,0.6-0.6,1.1-1.1c0.3-0.2,0.5-0.4,1.2-0.8C53.3,6.3,54.2,5.7,54.2,5.7z"/>
				<path class="st0" d="M53,4c0,0-0.2,0.2-0.5,0.7c-0.7,0.9-0.6,1.1-1,1.5c-0.2,0.2-0.2,0.1-0.9,0.7c-0.4,0.4-0.6,0.6-0.6,0.5
					c-0.1,0,0.3-0.6,0.7-1.1c0.2-0.3,0.4-0.4,0.9-0.9C52.2,4.7,52.9,4,53,4z"/>
				<path class="st0" d="M52.9,3.4c0,0-0.2,0.2-0.5,0.6c-0.7,0.9-0.6,1-1.1,1.5c-0.2,0.2-0.2,0.1-0.9,0.7c-0.5,0.4-0.6,0.5-0.6,0.5
					c-0.1,0,0.4-0.6,0.8-1.1c0.2-0.2,0.4-0.4,0.9-0.9C52.1,4,52.8,3.3,52.9,3.4z"/>
				<path class="st0" d="M52.5,2.8c0,0-0.2,0.2-0.5,0.6c-0.6,0.8-0.5,1-0.9,1.4c-0.2,0.2-0.2,0.1-0.8,0.7c-0.4,0.4-0.5,0.5-0.6,0.5
					c-0.1,0,0.3-0.6,0.7-1c0.2-0.2,0.3-0.4,0.8-0.8C51.8,3.4,52.4,2.8,52.5,2.8z"/>
				<path class="st0" d="M52.3,1.9c0,0-0.1,0.2-0.4,0.6c-0.5,0.8-0.5,1-0.8,1.4c-0.2,0.2-0.1,0.1-0.7,0.7c-0.4,0.4-0.5,0.5-0.5,0.5
					c-0.1,0,0.3-0.6,0.6-1.1c0.2-0.2,0.3-0.4,0.7-0.9C51.7,2.5,52.2,1.9,52.3,1.9z"/>
				<path class="st0" d="M51.8,1.6c0,0-0.1,0.2-0.3,0.6c-0.4,0.7-0.4,0.9-0.7,1.3c-0.2,0.2-0.1,0.1-0.6,0.6
					c-0.3,0.3-0.4,0.5-0.5,0.4c-0.1,0,0.2-0.5,0.5-1c0.1-0.2,0.3-0.4,0.6-0.8C51.3,2.2,51.7,1.6,51.8,1.6z"/>
				<path class="st0" d="M51.3,0.9c0,0-0.1,0.2-0.2,0.5c-0.3,0.7-0.3,0.8-0.5,1.2c-0.1,0.2-0.1,0.1-0.5,0.6
					c-0.2,0.3-0.3,0.5-0.4,0.4c0,0,0.1-0.5,0.3-0.9c0.1-0.2,0.2-0.3,0.4-0.7C50.9,1.5,51.3,0.9,51.3,0.9z"/>
				<path class="st0" d="M49.8,0.4c0,0,0,0.2,0,0.6c0,0.8,0.1,0.8,0.1,1.3c0,0.2,0,0.1-0.1,0.8c-0.1,0.4-0.1,0.6-0.1,0.6
					c0,0-0.1-0.5-0.1-0.9c0-0.2,0-0.4,0.1-0.9C49.7,1.1,49.8,0.4,49.8,0.4z"/>
				<path class="st0" d="M48.8,0.5c0,0,0,0.2,0.1,0.6c0.1,0.7,0,0.8,0.2,1.2c0.1,0.2,0.1,0.1,0.3,0.7c0.2,0.4,0.2,0.5,0.2,0.5
					c0,0,0-0.5-0.1-0.9c0-0.2-0.1-0.4-0.2-0.8C49,1.1,48.8,0.5,48.8,0.5z"/>
				<path class="st0" d="M48,1.1c0,0,0.1,0.2,0.2,0.5c0.3,0.7,0.3,0.8,0.5,1.2c0.1,0.2,0.1,0.1,0.5,0.6c0.2,0.3,0.3,0.5,0.4,0.4
					c0,0-0.1-0.5-0.3-0.9c-0.1-0.2-0.2-0.3-0.4-0.7C48.4,1.6,48,1.1,48,1.1z"/>
				<path class="st0" d="M47.5,1.8c0,0,0.1,0.2,0.3,0.6c0.4,0.7,0.4,0.9,0.7,1.3c0.2,0.2,0.1,0.1,0.6,0.6c0.3,0.3,0.4,0.5,0.5,0.4
					c0.1,0-0.2-0.5-0.5-1C49,3.5,48.9,3.4,48.5,3C48,2.3,47.5,1.7,47.5,1.8z"/>
				<path class="st0" d="M49.6,5.6c0,0-0.2-0.2-0.5-0.6c-0.6-0.8-0.5-1-0.9-1.4C48,3.4,48,3.5,47.4,3c-0.4-0.3-0.5-0.5-0.6-0.5
					c-0.1,0,0.3,0.6,0.7,1c0.2,0.2,0.3,0.4,0.8,0.8C49,5,49.6,5.6,49.6,5.6z"/>
				<path class="st0" d="M46.3,3c0,0,0.2,0.2,0.5,0.7c0.7,0.9,0.7,1.1,1.1,1.5c0.2,0.2,0.2,0.1,0.9,0.8c0.5,0.4,0.6,0.6,0.7,0.5
					c0.1,0-0.4-0.6-0.8-1.1c-0.2-0.3-0.4-0.4-0.9-0.9C47,3.7,46.3,3,46.3,3z"/>
				<path class="st0" d="M46.2,4c0,0,0.2,0.2,0.6,0.6c0.7,0.8,0.7,1,1.2,1.4c0.2,0.2,0.2,0.1,0.9,0.7c0.5,0.4,0.6,0.5,0.7,0.5
					c0,0-0.4-0.6-0.8-1.1c-0.2-0.2-0.4-0.4-0.9-0.8C47,4.6,46.3,3.9,46.2,4z"/>
				<path class="st0" d="M46,4.8c0,0,0.2,0.2,0.6,0.6c0.8,0.8,0.8,0.9,1.3,1.3c0.2,0.2,0.2,0.1,1,0.6c0.5,0.3,0.7,0.5,0.7,0.4
					c0-0.1-0.4-0.6-0.9-1c-0.2-0.2-0.4-0.4-1-0.8C46.8,5.4,46,4.8,46,4.8z"/>
				<path class="st0" d="M45.8,5.7c0,0,0.2,0.2,0.7,0.5c0.9,0.7,0.8,0.8,1.4,1.2c0.3,0.2,0.2,0.1,1,0.5c0.5,0.3,0.7,0.4,0.7,0.4
					c0,0-0.5-0.5-1-0.9c-0.3-0.2-0.5-0.3-1-0.7C46.6,6.1,45.8,5.6,45.8,5.7z"/>
				<path class="st0" d="M45.2,5.9c0,0,0.3,0.2,0.8,0.6c1,0.8,1,1,1.6,1.4c0.3,0.2,0.2,0.1,1.2,0.6C49.4,8.9,49.6,9,49.6,9
					c0-0.1-0.6-0.6-1.1-1.1c-0.3-0.2-0.5-0.4-1.2-0.8C46.2,6.5,45.3,5.9,45.2,5.9z"/>
				<path class="st0" d="M45.5,7.2c0,0,0.2,0.2,0.7,0.5c0.9,0.6,0.9,0.8,1.5,1.1C48,8.9,48,8.8,48.8,9.2c0.6,0.2,0.8,0.3,0.8,0.3
					c0-0.1-0.5-0.5-1.1-0.8c-0.3-0.2-0.5-0.3-1.1-0.6C46.4,7.6,45.6,7.2,45.5,7.2z"/>
				<path class="st0" d="M45,7.7c0,0,0.3,0.2,0.8,0.5c1.1,0.6,1.1,0.8,1.8,1.1c0.3,0.1,0.2,0.1,1.3,0.5c0.6,0.3,0.9,0.4,0.9,0.3
					c0-0.1-0.6-0.5-1.3-0.9c-0.3-0.2-0.6-0.3-1.3-0.6C46,8.1,45,7.6,45,7.7z"/>
			</g>
		</g>
	</g>
	<g>
		<rect x="44.4" y="88.1" class="st2" width="12" height="12"/>
		<g>
			<g>
				<line class="st0" x1="50.7" y1="96.5" x2="50.6" y2="88.7"/>
				<path class="st0" d="M47.1,95c0,0,0.2-0.2,0.6-0.6c0.7-0.8,0.7-1,1.1-1.4c0.2-0.2,0.2-0.1,0.9-0.7c0.5-0.4,0.6-0.5,0.7-0.5
					c0.1,0.1-0.4,0.6-0.8,1.1c-0.2,0.2-0.4,0.4-0.9,0.9C47.9,94.4,47.2,95.1,47.1,95z"/>
				<path class="st0" d="M46.3,92.7c0,0,0.2-0.2,0.7-0.5c0.9-0.6,0.9-0.8,1.5-1.1c0.3-0.1,0.2-0.1,1.1-0.4c0.6-0.2,0.8-0.3,0.8-0.3
					c0,0.1-0.5,0.5-1.1,0.8c-0.3,0.2-0.5,0.3-1.1,0.6C47.2,92.3,46.4,92.7,46.3,92.7z"/>
				<path class="st0" d="M45.4,91.6c0,0,0.3-0.1,0.9-0.4c1.2-0.5,1.2-0.7,1.9-0.9c0.3-0.1,0.2,0,1.3-0.3c0.7-0.2,0.9-0.2,0.9-0.2
					c0,0.1-0.7,0.4-1.4,0.7c-0.3,0.1-0.6,0.2-1.4,0.5C46.5,91.3,45.5,91.6,45.4,91.6z"/>
				<path class="st0" d="M46.1,94.2c0,0,0.3-0.2,0.8-0.6c1-0.8,1-1,1.6-1.4c0.3-0.2,0.2-0.1,1.2-0.6c0.6-0.3,0.8-0.5,0.8-0.4
					c0,0.1-0.6,0.6-1.1,1.1c-0.3,0.2-0.5,0.4-1.2,0.8C47,93.7,46.1,94.3,46.1,94.2z"/>
				<path class="st0" d="M47.4,95.9c0,0,0.2-0.2,0.5-0.7c0.7-0.9,0.6-1.1,1-1.5c0.2-0.2,0.2-0.1,0.9-0.7c0.4-0.4,0.6-0.6,0.6-0.5
					c0.1,0-0.3,0.6-0.7,1.1c-0.2,0.3-0.4,0.4-0.9,0.9C48.1,95.3,47.4,96,47.4,95.9z"/>
				<path class="st0" d="M47.5,96.6c0,0,0.2-0.2,0.5-0.6c0.7-0.9,0.6-1,1.1-1.5c0.2-0.2,0.2-0.1,0.9-0.7c0.5-0.4,0.6-0.5,0.6-0.5
					c0.1,0-0.4,0.6-0.8,1.1c-0.2,0.2-0.4,0.4-0.9,0.9C48.2,95.9,47.5,96.6,47.5,96.6z"/>
				<path class="st0" d="M47.8,97.1c0,0,0.2-0.2,0.5-0.6c0.6-0.8,0.5-1,0.9-1.4c0.2-0.2,0.2-0.1,0.8-0.7c0.4-0.4,0.5-0.5,0.6-0.5
					c0.1,0-0.3,0.6-0.7,1c-0.2,0.2-0.3,0.4-0.8,0.8C48.5,96.6,47.9,97.2,47.8,97.1z"/>
				<path class="st0" d="M48,98c0,0,0.1-0.2,0.4-0.6c0.5-0.8,0.5-1,0.8-1.4c0.2-0.2,0.1-0.1,0.7-0.7c0.4-0.4,0.5-0.5,0.5-0.5
					c0.1,0-0.3,0.6-0.6,1.1c-0.2,0.2-0.3,0.4-0.7,0.9C48.6,97.4,48.1,98.1,48,98z"/>
				<path class="st0" d="M48.6,98.3c0,0,0.1-0.2,0.3-0.6c0.4-0.7,0.4-0.9,0.7-1.3c0.2-0.2,0.1-0.1,0.6-0.6c0.3-0.3,0.4-0.5,0.5-0.4
					c0.1,0-0.2,0.5-0.5,1c-0.1,0.2-0.3,0.4-0.6,0.8C49.1,97.8,48.6,98.3,48.6,98.3z"/>
				<path class="st0" d="M49,99c0,0,0.1-0.2,0.2-0.5c0.3-0.7,0.3-0.8,0.5-1.2c0.1-0.2,0.1-0.1,0.5-0.6c0.2-0.3,0.3-0.5,0.4-0.4
					c0,0-0.1,0.5-0.3,0.9c-0.1,0.2-0.2,0.3-0.4,0.7C49.4,98.5,49.1,99,49,99z"/>
				<path class="st0" d="M50.5,99.5c0,0,0-0.2,0-0.6c0-0.8-0.1-0.8-0.1-1.3c0-0.2,0-0.1,0.1-0.8c0.1-0.4,0.1-0.6,0.1-0.6
					c0,0,0.1,0.5,0.1,0.9c0,0.2,0,0.4-0.1,0.9C50.6,98.9,50.5,99.5,50.5,99.5z"/>
				<path class="st0" d="M51.5,99.4c0,0,0-0.2-0.1-0.6c-0.1-0.7,0-0.8-0.2-1.2c-0.1-0.2-0.1-0.1-0.3-0.7c-0.2-0.4-0.2-0.5-0.2-0.5
					c0,0,0,0.5,0.1,0.9c0,0.2,0.1,0.4,0.2,0.8C51.3,98.8,51.5,99.4,51.5,99.4z"/>
				<path class="st0" d="M52.3,98.9c0,0-0.1-0.2-0.2-0.5c-0.3-0.7-0.3-0.8-0.5-1.2c-0.1-0.2-0.1-0.1-0.5-0.6
					c-0.2-0.3-0.3-0.5-0.4-0.4c0,0,0.1,0.5,0.3,0.9c0.1,0.2,0.2,0.3,0.4,0.7C51.9,98.3,52.3,98.9,52.3,98.9z"/>
				<path class="st0" d="M52.8,98.2c0,0-0.1-0.2-0.3-0.6c-0.4-0.7-0.4-0.9-0.7-1.3c-0.2-0.2-0.1-0.1-0.6-0.6
					c-0.3-0.3-0.4-0.5-0.5-0.4c-0.1,0,0.2,0.5,0.5,1c0.1,0.2,0.3,0.4,0.6,0.8C52.3,97.6,52.8,98.2,52.8,98.2z"/>
				<path class="st0" d="M50.7,94.3c0,0,0.2,0.2,0.5,0.6c0.6,0.8,0.5,1,0.9,1.4c0.2,0.2,0.2,0.1,0.8,0.7c0.4,0.3,0.5,0.5,0.6,0.5
					c0.1,0-0.3-0.6-0.7-1c-0.2-0.2-0.3-0.4-0.8-0.8C51.4,94.9,50.7,94.3,50.7,94.3z"/>
				<path class="st0" d="M54,96.9c0,0-0.2-0.2-0.5-0.7c-0.7-0.9-0.7-1.1-1.1-1.5c-0.2-0.2-0.2-0.1-0.9-0.8c-0.5-0.4-0.6-0.6-0.7-0.5
					c-0.1,0,0.4,0.6,0.8,1.1c0.2,0.3,0.4,0.4,0.9,0.9C53.3,96.3,54,96.9,54,96.9z"/>
				<path class="st0" d="M54.1,96c0,0-0.2-0.2-0.6-0.6c-0.7-0.8-0.7-1-1.2-1.4c-0.2-0.2-0.2-0.1-0.9-0.7c-0.5-0.4-0.6-0.5-0.7-0.5
					c0,0,0.4,0.6,0.8,1.1c0.2,0.2,0.4,0.4,0.9,0.8C53.3,95.4,54,96,54.1,96z"/>
				<path class="st0" d="M54.4,95.1c0,0-0.2-0.2-0.6-0.6c-0.8-0.8-0.8-0.9-1.3-1.3c-0.2-0.2-0.2-0.1-1-0.6c-0.5-0.3-0.7-0.5-0.7-0.4
					c0,0.1,0.4,0.6,0.9,1c0.2,0.2,0.4,0.4,1,0.8C53.5,94.6,54.3,95.1,54.4,95.1z"/>
				<path class="st0" d="M54.6,94.3c0,0-0.2-0.2-0.7-0.5c-0.9-0.7-0.8-0.8-1.4-1.2c-0.3-0.2-0.2-0.1-1-0.5c-0.5-0.3-0.7-0.4-0.7-0.4
					c0,0,0.5,0.5,1,0.9c0.3,0.2,0.5,0.3,1,0.7C53.7,93.8,54.5,94.3,54.6,94.3z"/>
				<path class="st0" d="M55.1,94c0,0-0.3-0.2-0.8-0.6c-1-0.8-1-1-1.6-1.4c-0.3-0.2-0.2-0.1-1.2-0.6c-0.6-0.3-0.8-0.5-0.8-0.4
					c0,0.1,0.6,0.6,1.1,1.1c0.3,0.2,0.5,0.4,1.2,0.8C54.1,93.5,55,94.1,55.1,94z"/>
				<path class="st0" d="M54.8,92.7c0,0-0.2-0.2-0.7-0.5c-0.9-0.6-0.9-0.8-1.5-1.1c-0.3-0.1-0.2-0.1-1.1-0.4
					c-0.6-0.2-0.8-0.3-0.8-0.3c0,0.1,0.5,0.5,1.1,0.8c0.3,0.2,0.5,0.3,1.1,0.6C53.9,92.3,54.7,92.7,54.8,92.7z"/>
				<path class="st0" d="M55.4,92.3c0,0-0.3-0.2-0.8-0.5c-1.1-0.6-1.1-0.8-1.8-1.1c-0.3-0.1-0.2-0.1-1.3-0.5
					c-0.6-0.3-0.9-0.4-0.9-0.3c0,0.1,0.6,0.5,1.3,0.9c0.3,0.2,0.6,0.3,1.3,0.6C54.3,91.8,55.3,92.3,55.4,92.3z"/>
			</g>
		</g>
	</g>
	<g>
		<rect x="88.1" y="44.6" class="st2" width="12" height="12"/>
		<g>
			<g>
				<line class="st0" x1="96.4" y1="50.3" x2="88.7" y2="50.4"/>
				<path class="st0" d="M94.9,53.8c0,0-0.2-0.2-0.6-0.6c-0.8-0.7-1-0.7-1.4-1.1c-0.2-0.2-0.1-0.2-0.7-0.9c-0.4-0.5-0.5-0.6-0.5-0.7
					c0.1-0.1,0.6,0.4,1.1,0.8c0.2,0.2,0.4,0.4,0.9,0.9C94.3,53.1,95,53.8,94.9,53.8z"/>
				<path class="st0" d="M92.6,54.6c0,0-0.2-0.2-0.5-0.7C91.5,53,91.3,53,91,52.4c-0.1-0.3-0.1-0.2-0.4-1.1
					c-0.2-0.6-0.3-0.8-0.3-0.8c0.1,0,0.5,0.5,0.8,1.1c0.2,0.3,0.3,0.5,0.6,1.1C92.2,53.7,92.7,54.6,92.6,54.6z"/>
				<path class="st0" d="M91.5,55.5c0,0-0.1-0.3-0.4-0.9c-0.5-1.2-0.7-1.2-0.9-1.9c-0.1-0.3,0-0.2-0.3-1.3c-0.2-0.7-0.2-0.9-0.2-0.9
					c0.1,0,0.4,0.7,0.7,1.4c0.1,0.3,0.2,0.6,0.5,1.4C91.2,54.4,91.6,55.5,91.5,55.5z"/>
				<path class="st0" d="M94.2,54.9c0,0-0.2-0.3-0.6-0.8c-0.8-1-1-1-1.4-1.6c-0.2-0.3-0.1-0.2-0.6-1.2c-0.3-0.6-0.5-0.8-0.4-0.8
					c0.1,0,0.6,0.6,1.1,1.1c0.2,0.3,0.4,0.5,0.8,1.2C93.6,53.9,94.2,54.9,94.2,54.9z"/>
				<path class="st0" d="M95.9,53.6c0,0-0.2-0.2-0.7-0.5c-0.9-0.7-1.1-0.6-1.5-1c-0.2-0.2-0.1-0.2-0.7-0.9c-0.4-0.4-0.6-0.6-0.5-0.6
					c0-0.1,0.6,0.3,1.1,0.7c0.3,0.2,0.4,0.4,0.9,0.9C95.2,52.9,95.9,53.6,95.9,53.6z"/>
				<path class="st0" d="M96.5,53.5c0,0-0.2-0.2-0.6-0.5c-0.9-0.7-1-0.6-1.5-1.1c-0.2-0.2-0.1-0.2-0.7-0.9c-0.4-0.5-0.5-0.6-0.5-0.6
					c0-0.1,0.6,0.4,1.1,0.8c0.2,0.2,0.4,0.4,0.9,0.9C95.9,52.8,96.5,53.5,96.5,53.5z"/>
				<path class="st0" d="M97.1,53.1c0,0-0.2-0.2-0.6-0.5c-0.8-0.6-1-0.5-1.4-0.9c-0.2-0.2-0.1-0.2-0.7-0.8c-0.4-0.4-0.5-0.5-0.5-0.6
					c0-0.1,0.6,0.3,1,0.7c0.2,0.2,0.4,0.3,0.8,0.8C96.5,52.5,97.1,53.1,97.1,53.1z"/>
				<path class="st0" d="M98,52.9c0,0-0.2-0.1-0.6-0.4c-0.8-0.5-1-0.5-1.4-0.8c-0.2-0.2-0.1-0.1-0.7-0.7c-0.4-0.4-0.5-0.5-0.5-0.5
					c0-0.1,0.6,0.3,1.1,0.6c0.2,0.2,0.4,0.3,0.9,0.7C97.3,52.3,98,52.9,98,52.9z"/>
				<path class="st0" d="M98.2,52.4c0,0-0.2-0.1-0.6-0.3c-0.7-0.4-0.9-0.4-1.3-0.7c-0.2-0.2-0.1-0.1-0.6-0.6
					c-0.3-0.3-0.5-0.4-0.4-0.5c0-0.1,0.5,0.2,1,0.5c0.2,0.1,0.4,0.3,0.8,0.6C97.7,51.9,98.3,52.4,98.2,52.4z"/>
				<path class="st0" d="M99,51.9c0,0-0.2-0.1-0.5-0.2c-0.7-0.3-0.8-0.3-1.2-0.5c-0.2-0.1-0.1-0.1-0.6-0.5c-0.3-0.2-0.5-0.3-0.4-0.4
					c0,0,0.5,0.1,0.9,0.3c0.2,0.1,0.3,0.2,0.7,0.4C98.4,51.6,99,51.9,99,51.9z"/>
				<path class="st0" d="M99.5,50.5c0,0-0.2,0-0.6,0c-0.8,0-0.8,0.1-1.3,0.1c-0.2,0-0.1,0-0.8-0.1c-0.4-0.1-0.6-0.1-0.6-0.1
					c0,0,0.5-0.1,0.9-0.1c0.2,0,0.4,0,0.9,0.1C98.8,50.4,99.5,50.5,99.5,50.5z"/>
				<path class="st0" d="M99.4,49.5c0,0-0.2,0-0.6,0.1c-0.7,0.1-0.8,0-1.2,0.2c-0.2,0.1-0.1,0.1-0.7,0.3c-0.4,0.2-0.5,0.2-0.5,0.2
					c0,0,0.5,0,0.9-0.1c0.2,0,0.4-0.1,0.8-0.2C98.7,49.7,99.4,49.5,99.4,49.5z"/>
				<path class="st0" d="M98.8,48.6c0,0-0.2,0.1-0.5,0.2c-0.7,0.3-0.8,0.3-1.2,0.5c-0.2,0.1-0.1,0.1-0.6,0.5
					c-0.3,0.2-0.5,0.3-0.4,0.4c0,0,0.5-0.1,0.9-0.3c0.2-0.1,0.3-0.2,0.7-0.4C98.3,49,98.8,48.7,98.8,48.6z"/>
				<path class="st0" d="M98.1,48.1c0,0-0.2,0.1-0.6,0.3c-0.7,0.4-0.9,0.4-1.3,0.7c-0.2,0.2-0.1,0.1-0.6,0.6
					c-0.3,0.3-0.5,0.4-0.4,0.5c0,0.1,0.5-0.2,1-0.5c0.2-0.1,0.4-0.3,0.8-0.6C97.5,48.7,98.1,48.2,98.1,48.1z"/>
				<path class="st0" d="M94.3,50.3c0,0,0.2-0.2,0.6-0.5c0.8-0.6,1-0.5,1.4-0.9c0.2-0.2,0.1-0.2,0.7-0.8c0.3-0.4,0.5-0.5,0.5-0.6
					c0-0.1-0.6,0.3-1,0.7c-0.2,0.2-0.4,0.3-0.8,0.8C94.8,49.6,94.2,50.2,94.3,50.3z"/>
				<path class="st0" d="M96.9,46.9c0,0-0.2,0.2-0.7,0.5c-0.9,0.7-1.1,0.7-1.5,1.1c-0.2,0.2-0.1,0.2-0.8,0.9
					c-0.4,0.5-0.6,0.6-0.5,0.7c0,0.1,0.6-0.4,1.1-0.8c0.3-0.2,0.4-0.4,0.9-0.9C96.2,47.7,96.9,47,96.9,46.9z"/>
				<path class="st0" d="M95.9,46.9c0,0-0.2,0.2-0.6,0.6c-0.8,0.7-1,0.7-1.4,1.2c-0.2,0.2-0.1,0.2-0.7,0.9c-0.4,0.5-0.5,0.6-0.5,0.7
					c0,0,0.6-0.4,1.1-0.8c0.2-0.2,0.4-0.4,0.8-0.9C95.3,47.7,95.9,46.9,95.9,46.9z"/>
				<path class="st0" d="M95,46.6c0,0-0.2,0.2-0.6,0.6c-0.8,0.8-0.9,0.8-1.3,1.3c-0.2,0.2-0.1,0.2-0.6,1c-0.3,0.5-0.5,0.7-0.4,0.7
					c0.1,0,0.6-0.4,1-0.9c0.2-0.2,0.4-0.4,0.8-1C94.5,47.4,95.1,46.6,95,46.6z"/>
				<path class="st0" d="M94.2,46.4c0,0-0.2,0.2-0.5,0.7c-0.7,0.9-0.8,0.8-1.2,1.4c-0.2,0.3-0.1,0.2-0.5,1c-0.3,0.5-0.4,0.7-0.4,0.7
					c0,0,0.5-0.5,0.9-1c0.2-0.3,0.3-0.5,0.7-1C93.7,47.3,94.2,46.4,94.2,46.4z"/>
				<path class="st0" d="M94,45.9c0,0-0.2,0.3-0.6,0.8c-0.8,1-1,1-1.4,1.6c-0.2,0.3-0.1,0.2-0.6,1.2c-0.3,0.6-0.5,0.8-0.4,0.8
					c0.1,0,0.6-0.6,1.1-1.1c0.2-0.3,0.4-0.5,0.8-1.2C93.4,46.9,94,45.9,94,45.9z"/>
				<path class="st0" d="M92.6,46.2c0,0-0.2,0.2-0.5,0.7c-0.6,0.9-0.8,0.9-1.1,1.5c-0.1,0.3-0.1,0.2-0.4,1.1
					c-0.2,0.6-0.3,0.8-0.3,0.8c0.1,0,0.5-0.5,0.8-1.1c0.2-0.3,0.3-0.5,0.6-1.1C92.3,47.1,92.7,46.2,92.6,46.2z"/>
				<path class="st0" d="M92.2,45.6c0,0-0.2,0.3-0.5,0.8c-0.6,1.1-0.8,1.1-1.1,1.8c-0.1,0.3-0.1,0.2-0.5,1.3
					c-0.3,0.6-0.4,0.9-0.3,0.9c0.1,0,0.5-0.6,0.9-1.3c0.2-0.3,0.3-0.6,0.6-1.3C91.8,46.6,92.2,45.6,92.2,45.6z"/>
			</g>
		</g>
	</g>
	<g>
		<rect x="-0.3" y="44.8" class="st2" width="12" height="12"/>
		<g>
			<g>
				<line class="st0" x1="3.3" y1="50.5" x2="11" y2="50.6"/>
				<path class="st0" d="M4.8,54.1c0,0,0.2-0.2,0.6-0.6c0.8-0.7,1-0.7,1.4-1.1c0.2-0.2,0.1-0.2,0.7-0.9C7.9,51,8.1,50.8,8,50.8
					c-0.1-0.1-0.6,0.4-1.1,0.8c-0.2,0.2-0.4,0.4-0.9,0.9C5.4,53.3,4.7,54,4.8,54.1z"/>
				<path class="st0" d="M7.1,54.9c0,0,0.2-0.2,0.5-0.7c0.6-0.9,0.8-0.9,1.1-1.5c0.1-0.3,0.1-0.2,0.4-1.1c0.2-0.6,0.3-0.8,0.3-0.8
					c-0.1,0-0.5,0.5-0.8,1.1C8.4,52.2,8.2,52.4,8,53C7.5,54,7.1,54.8,7.1,54.9z"/>
				<path class="st0" d="M8.2,55.8c0,0,0.1-0.3,0.4-0.9c0.5-1.2,0.7-1.2,0.9-1.9c0.1-0.3,0-0.2,0.3-1.3C10,51,10,50.7,10,50.7
					c-0.1,0-0.4,0.7-0.7,1.4c-0.1,0.3-0.2,0.6-0.5,1.4C8.5,54.7,8.2,55.7,8.2,55.8z"/>
				<path class="st0" d="M5.6,55.1c0,0,0.2-0.3,0.6-0.8c0.8-1,1-1,1.4-1.6c0.2-0.3,0.1-0.2,0.6-1.2c0.3-0.6,0.5-0.8,0.4-0.8
					c-0.1,0-0.6,0.6-1.1,1.1c-0.2,0.3-0.4,0.5-0.8,1.2C6.1,54.2,5.5,55.1,5.6,55.1z"/>
				<path class="st0" d="M3.9,53.8c0,0,0.2-0.2,0.7-0.5c0.9-0.7,1.1-0.6,1.5-1c0.2-0.2,0.1-0.2,0.7-0.9c0.4-0.4,0.6-0.6,0.5-0.6
					c0-0.1-0.6,0.3-1.1,0.7c-0.3,0.2-0.4,0.4-0.9,0.9C4.5,53.1,3.8,53.8,3.9,53.8z"/>
				<path class="st0" d="M3.2,53.7c0,0,0.2-0.2,0.6-0.5c0.9-0.7,1-0.6,1.5-1.1c0.2-0.2,0.1-0.2,0.7-0.9c0.4-0.5,0.5-0.6,0.5-0.6
					c0-0.1-0.6,0.4-1.1,0.8c-0.2,0.2-0.4,0.4-0.9,0.9C3.8,53,3.2,53.7,3.2,53.7z"/>
				<path class="st0" d="M2.6,53.4c0,0,0.2-0.2,0.6-0.5c0.8-0.6,1-0.5,1.4-0.9c0.2-0.2,0.1-0.2,0.7-0.8c0.4-0.4,0.5-0.5,0.5-0.6
					c0-0.1-0.6,0.3-1,0.7c-0.2,0.2-0.4,0.3-0.8,0.8C3.2,52.7,2.6,53.3,2.6,53.4z"/>
				<path class="st0" d="M1.8,53.2c0,0,0.2-0.1,0.6-0.4c0.8-0.5,1-0.5,1.4-0.8c0.2-0.2,0.1-0.1,0.7-0.7c0.4-0.4,0.5-0.5,0.5-0.5
					c0-0.1-0.6,0.3-1.1,0.6c-0.2,0.2-0.4,0.3-0.9,0.7C2.4,52.6,1.7,53.1,1.8,53.2z"/>
				<path class="st0" d="M1.5,52.6c0,0,0.2-0.1,0.6-0.3c0.7-0.4,0.9-0.4,1.3-0.7C3.5,51.5,3.4,51.5,4,51c0.3-0.3,0.5-0.4,0.4-0.5
					c0-0.1-0.5,0.2-1,0.5c-0.2,0.1-0.4,0.3-0.8,0.6C2,52.1,1.4,52.6,1.5,52.6z"/>
				<path class="st0" d="M0.8,52.2c0,0,0.2-0.1,0.5-0.2c0.7-0.3,0.8-0.3,1.2-0.5c0.2-0.1,0.1-0.1,0.6-0.5c0.3-0.2,0.5-0.3,0.4-0.4
					c0,0-0.5,0.1-0.9,0.3c-0.2,0.1-0.3,0.2-0.7,0.4C1.3,51.8,0.8,52.1,0.8,52.2z"/>
				<path class="st0" d="M0.3,50.7c0,0,0.2,0,0.6,0c0.8,0,0.8,0.1,1.3,0.1c0.2,0,0.1,0,0.8-0.1c0.4-0.1,0.6-0.1,0.6-0.1
					c0,0-0.5-0.1-0.9-0.1c-0.2,0-0.4,0-0.9,0.1C0.9,50.6,0.3,50.7,0.3,50.7z"/>
				<path class="st0" d="M0.4,49.7c0,0,0.2,0,0.6,0.1c0.7,0.1,0.8,0,1.2,0.2C2.4,50,2.3,50,2.9,50.3c0.4,0.2,0.5,0.2,0.5,0.2
					c0,0-0.5,0-0.9-0.1c-0.2,0-0.4-0.1-0.8-0.2C1,49.9,0.4,49.7,0.4,49.7z"/>
				<path class="st0" d="M0.9,48.9c0,0,0.2,0.1,0.5,0.2c0.7,0.3,0.8,0.3,1.2,0.5c0.2,0.1,0.1,0.1,0.6,0.5c0.3,0.2,0.5,0.3,0.4,0.4
					c0,0-0.5-0.1-0.9-0.3c-0.2-0.1-0.3-0.2-0.7-0.4C1.5,49.3,0.9,48.9,0.9,48.9z"/>
				<path class="st0" d="M1.6,48.4c0,0,0.2,0.1,0.6,0.3c0.7,0.4,0.9,0.4,1.3,0.7c0.2,0.2,0.1,0.1,0.6,0.6c0.3,0.3,0.5,0.4,0.4,0.5
					c0,0.1-0.5-0.2-1-0.5c-0.2-0.1-0.4-0.3-0.8-0.6C2.2,48.9,1.6,48.4,1.6,48.4z"/>
				<path class="st0" d="M5.5,50.5c0,0-0.2-0.2-0.6-0.5c-0.8-0.6-1-0.5-1.4-0.9c-0.2-0.2-0.1-0.2-0.7-0.8c-0.3-0.4-0.5-0.5-0.5-0.6
					c0-0.1,0.6,0.3,1,0.7c0.2,0.2,0.4,0.3,0.8,0.8C4.9,49.8,5.5,50.5,5.5,50.5z"/>
				<path class="st0" d="M2.9,47.2c0,0,0.2,0.2,0.7,0.5c0.9,0.7,1.1,0.7,1.5,1.1c0.2,0.2,0.1,0.2,0.8,0.9c0.4,0.5,0.6,0.6,0.5,0.7
					c0,0.1-0.6-0.4-1.1-0.8c-0.3-0.2-0.4-0.4-0.9-0.9C3.5,47.9,2.8,47.2,2.9,47.2z"/>
				<path class="st0" d="M3.8,47.1c0,0,0.2,0.2,0.6,0.6c0.8,0.7,1,0.7,1.4,1.2C6,49.1,6,49,6.5,49.8c0.4,0.5,0.5,0.6,0.5,0.7
					c0,0-0.6-0.4-1.1-0.8c-0.2-0.2-0.4-0.4-0.8-0.9C4.4,47.9,3.8,47.2,3.8,47.1z"/>
				<path class="st0" d="M4.7,46.8c0,0,0.2,0.2,0.6,0.6c0.8,0.8,0.9,0.8,1.3,1.3c0.2,0.2,0.1,0.2,0.6,1c0.3,0.5,0.5,0.7,0.4,0.7
					c-0.1,0-0.6-0.4-1-0.9c-0.2-0.2-0.4-0.4-0.8-1C5.2,47.7,4.7,46.9,4.7,46.8z"/>
				<path class="st0" d="M5.5,46.6c0,0,0.2,0.2,0.5,0.7c0.7,0.9,0.8,0.8,1.2,1.4c0.2,0.3,0.1,0.2,0.5,1c0.3,0.5,0.4,0.7,0.4,0.7
					c0,0-0.5-0.5-0.9-1c-0.2-0.3-0.3-0.5-0.7-1C6,47.5,5.5,46.7,5.5,46.6z"/>
				<path class="st0" d="M5.7,46.1c0,0,0.2,0.3,0.6,0.8c0.8,1,1,1,1.4,1.6c0.2,0.3,0.1,0.2,0.6,1.2c0.3,0.6,0.5,0.8,0.4,0.8
					c-0.1,0-0.6-0.6-1.1-1.1C7.6,49,7.4,48.8,7,48.1C6.3,47.1,5.7,46.2,5.7,46.1z"/>
				<path class="st0" d="M7.1,46.4c0,0,0.2,0.2,0.5,0.7C8.2,48,8.4,48,8.6,48.6c0.1,0.3,0.1,0.2,0.4,1.1c0.2,0.6,0.3,0.8,0.3,0.8
					c-0.1,0-0.5-0.5-0.8-1.1c-0.2-0.3-0.3-0.5-0.6-1.1C7.5,47.3,7,46.5,7.1,46.4z"/>
				<path class="st0" d="M7.5,45.8c0,0,0.2,0.3,0.5,0.8c0.6,1.1,0.8,1.1,1.1,1.8c0.1,0.3,0.1,0.2,0.5,1.3c0.3,0.6,0.4,0.9,0.3,0.9
					c-0.1,0-0.5-0.6-0.9-1.3C8.9,49,8.8,48.7,8.5,48C7.9,46.9,7.5,45.9,7.5,45.8z"/>
			</g>
		</g>
	</g>
</g>
</svg>
