<?xml version="1.0" encoding="utf-8"?>
<!-- Generator: Adobe Illustrator 24.1.2, SVG Export Plug-In . SVG Version: 6.00 Build 0)  -->
<svg version="1.1" xmlns="http://www.w3.org/2000/svg" xmlns:xlink="http://www.w3.org/1999/xlink" x="0px" y="0px"
	 viewBox="0 0 100 100" style="enable-background:new 0 0 100 100;" xml:space="preserve">
<style type="text/css">
	.st0{fill:#FFFFFF;}
	.st1{fill:#B40D0A;}
	.st2{fill:#FFFFFF;stroke:#B40D0A;stroke-width:0.2623;stroke-miterlimit:10;}
	.st3{fill:#FFFFFF;stroke:#B40D0A;stroke-width:0.337;stroke-miterlimit:10;}
	.st4{fill:none;stroke:#B40D0A;stroke-width:0.5612;stroke-miterlimit:10;}
	.st5{fill:#B40D0A;stroke:#FFFFFF;stroke-width:6.046271e-02;stroke-miterlimit:10;}
	.st6{fill:#FFFFFF;stroke:#B40D0A;stroke-width:7.767452e-02;stroke-miterlimit:10;}
	.st7{fill:#B40D0A;stroke:#B40D0A;stroke-width:0.2622;stroke-miterlimit:10;}
	.st8{fill:#FFFFFF;stroke:#B40D0A;stroke-width:0.2622;stroke-miterlimit:10;}
	.st9{fill:#B40D0A;stroke:#FFFFFF;stroke-width:0.2622;stroke-miterlimit:10;}
</style>
<g id="Laag_1">
	<g>
		<path class="st0" d="M62.1-1.8"/>
		<rect x="44.1" y="0" class="st1" width="12" height="12"/>
		<path class="st0" d="M52.3,2.9c-0.2-0.2-0.5-0.5-1-0.7c-0.9-0.4-1.6-0.3-2-0.2c-0.3,0-1.8,0.2-2.8,1.5c-1.3,1.7-0.6,3.7-0.6,3.8
			c0.5,1.3,1.6,2.4,3.1,2.7c1.9,0.3,3.3-0.9,3.4-1c-0.2,0.1-0.6,0.1-1,0.1c-0.3,0-1.2-0.1-2.1-0.8c-0.2-0.2-1.1-1-1-2.3
			c0-1.5,1.1-2.3,1.2-2.4C50.7,2.5,52.1,2.9,52.3,2.9z"/>
		<polygon class="st0" points="55,7.2 53.8,6.9 52.8,7.8 52.7,6.6 51.6,6 52.7,5.4 52.9,4.2 53.8,5.1 55.1,4.9 54.5,6 		"/>
	</g>
	<g>
		<rect x="24.3" y="0" class="st1" width="12" height="12"/>
		<g>
			<g>
				<g>
					<ellipse transform="matrix(0.8845 -0.4665 0.4665 0.8845 -0.5033 13.4944)" class="st2" cx="27" cy="7.8" rx="2.2" ry="1.2"/>
					<ellipse transform="matrix(0.8845 -0.4665 0.4665 0.8845 1.9206 16.227)" class="st2" cx="33.7" cy="4.2" rx="2.2" ry="1.2"/>
					
						<ellipse transform="matrix(0.8953 -0.4454 0.4454 0.8953 -0.8351 15.2877)" class="st2" cx="32.1" cy="9.4" rx="1.2" ry="2.3"/>
					<ellipse transform="matrix(0.8953 -0.4454 0.4454 0.8953 1.8493 13.0238)" class="st2" cx="28.6" cy="2.6" rx="1.2" ry="2.3"/>
				</g>
				<g>
					<ellipse transform="matrix(0.315 -0.9491 0.9491 0.315 13.7439 28.7266)" class="st2" cx="26.8" cy="4.8" rx="1.2" ry="2.2"/>
					<ellipse transform="matrix(0.315 -0.9491 0.9491 0.315 16.4656 37.1784)" class="st2" cx="34" cy="7.2" rx="1.2" ry="2.2"/>
					
						<ellipse transform="matrix(0.2994 -0.9541 0.9541 0.2994 11.2415 34.6688)" class="st2" cx="29.2" cy="9.7" rx="2.3" ry="1.2"/>
					<ellipse transform="matrix(0.2994 -0.9541 0.9541 0.2994 19.855 31.7297)" class="st2" cx="31.5" cy="2.3" rx="2.3" ry="1.2"/>
				</g>
			</g>
			<ellipse class="st3" cx="30.4" cy="6" rx="1.8" ry="1.9"/>
		</g>
	</g>
	<g>
		<rect x="63.6" y="0" class="st1" width="12" height="12"/>
		<g>
			<g>
				<g>
					<ellipse transform="matrix(0.8845 -0.4665 0.4665 0.8845 4.0282 31.7988)" class="st2" cx="66.2" cy="7.8" rx="2.2" ry="1.2"/>
					<ellipse transform="matrix(0.8845 -0.4665 0.4665 0.8845 6.4521 34.5314)" class="st2" cx="73" cy="4.2" rx="2.2" ry="1.2"/>
					<ellipse transform="matrix(0.8953 -0.4454 0.4454 0.8953 3.2726 32.7651)" class="st2" cx="71.3" cy="9.4" rx="1.2" ry="2.3"/>
					<ellipse transform="matrix(0.8953 -0.4454 0.4454 0.8953 5.957 30.5012)" class="st2" cx="67.9" cy="2.6" rx="1.2" ry="2.3"/>
				</g>
				<g>
					<ellipse transform="matrix(0.315 -0.9491 0.9491 0.315 40.622 65.9652)" class="st2" cx="66" cy="4.8" rx="1.2" ry="2.2"/>
					<ellipse transform="matrix(0.315 -0.9491 0.9491 0.315 43.3438 74.417)" class="st2" cx="73.2" cy="7.2" rx="1.2" ry="2.2"/>
					
						<ellipse transform="matrix(0.2994 -0.9541 0.9541 0.2994 38.7315 72.1048)" class="st2" cx="68.5" cy="9.7" rx="2.3" ry="1.2"/>
					<ellipse transform="matrix(0.2994 -0.9541 0.9541 0.2994 47.345 69.1658)" class="st2" cx="70.8" cy="2.3" rx="2.3" ry="1.2"/>
				</g>
			</g>
			<ellipse class="st3" cx="69.6" cy="6" rx="1.8" ry="1.9"/>
		</g>
	</g>
	<path class="st0" d="M36.2,11.5"/>
	<g>
		<path class="st1" d="M42.3,4.3c0.1-0.1,0.3-0.4,0.5-0.7C43.1,3.1,43,2.6,43,2.3c0-0.2-0.2-1.2-1-1.8c-1.1-0.8-2.4-0.4-2.5-0.4
			c-0.9,0.3-1.6,1-1.7,2c-0.2,1.2,0.6,2.1,0.7,2.2c0-0.2-0.1-0.4-0.1-0.7c0-0.2,0-0.8,0.5-1.3c0.1-0.1,0.6-0.7,1.5-0.7
			c0.9,0,1.5,0.7,1.6,0.8C42.6,3.3,42.4,4.2,42.3,4.3z"/>
		<polygon class="st1" points="39.3,7.6 39.5,6.4 38.7,5.5 39.8,5.4 40.4,4.3 40.9,5.4 42.1,5.6 41.2,6.5 41.4,7.6 40.3,7.1 		"/>
		<path class="st1" d="M38.3,7.6c-0.1,0.1-0.3,0.4-0.5,0.7c-0.3,0.6-0.2,1.1-0.2,1.3c0,0.2,0.2,1.2,1,1.8c1.1,0.8,2.4,0.4,2.5,0.4
			c0.9-0.3,1.6-1,1.7-2c0.2-1.2-0.6-2.1-0.7-2.2c0,0.2,0.1,0.4,0.1,0.7c0,0.2,0,0.8-0.5,1.3c-0.1,0.1-0.6,0.7-1.5,0.7
			c-0.9,0-1.5-0.7-1.6-0.8C38,8.6,38.2,7.7,38.3,7.6z"/>
	</g>
	<g>
		<path class="st1" d="M61.9,4.3c0.1-0.1,0.3-0.4,0.5-0.7c0.3-0.6,0.2-1.1,0.2-1.3c0-0.2-0.2-1.2-1-1.8c-1.1-0.8-2.4-0.4-2.5-0.4
			c-0.9,0.3-1.6,1-1.7,2C57.2,3.4,58,4.3,58,4.4C58,4.2,58,4,58,3.7c0-0.2,0-0.8,0.5-1.3c0.1-0.1,0.6-0.7,1.5-0.7
			c0.9,0,1.5,0.7,1.6,0.8C62.2,3.3,62,4.2,61.9,4.3z"/>
		<polygon class="st1" points="58.9,7.6 59.1,6.4 58.3,5.5 59.5,5.4 60,4.3 60.5,5.4 61.7,5.6 60.8,6.5 61,7.6 59.9,7.1 		"/>
		<path class="st1" d="M57.9,7.6c-0.1,0.1-0.3,0.4-0.5,0.7c-0.3,0.6-0.2,1.1-0.2,1.3c0,0.2,0.2,1.2,1,1.8c1.1,0.8,2.4,0.4,2.5,0.4
			c0.9-0.3,1.6-1,1.7-2c0.2-1.2-0.6-2.1-0.7-2.2c0,0.2,0.1,0.4,0.1,0.7c0,0.2,0,0.8-0.5,1.3c-0.1,0.1-0.6,0.7-1.5,0.7
			c-0.9,0-1.5-0.7-1.6-0.8C57.6,8.6,57.8,7.7,57.9,7.6z"/>
	</g>
</g>
<g id="Laag_2">
	<g>
		<g>
			<path class="st4" d="M15.4,1.8c0.9,0.8,1.8,1.6,2.8,2.4c0.8-0.9,1.6-1.7,2.4-2.6c-0.2,1.1-0.5,2.3-0.7,3.4
				c1.1,0.3,2.3,0.5,3.4,0.8c-1.1,0.3-2.2,0.6-3.3,1c0.3,1.1,0.7,2.2,1,3.4c-0.9-0.7-1.8-1.5-2.6-2.2c-0.8,0.8-1.6,1.6-2.5,2.4
				c0.2-1.1,0.5-2.2,0.7-3.4c-1.2-0.2-2.3-0.4-3.5-0.6c1.1-0.3,2.2-0.7,3.4-1C16.1,4.1,15.8,3,15.4,1.8z"/>
			<path class="st4" d="M13.7,3.8c1.2,0.2,2.4,0.4,3.6,0.6c0.2-1.1,0.5-2.3,0.7-3.4c0.4,1.1,0.8,2.2,1.2,3.3c1.1-0.3,2.2-0.7,3.3-1
				c-0.8,0.8-1.6,1.7-2.3,2.5c0.9,0.8,1.8,1.6,2.7,2.3c-1.1-0.2-2.3-0.4-3.4-0.6c-0.3,1.1-0.6,2.2-0.8,3.3c-0.4-1.1-0.8-2.2-1.2-3.2
				C16.2,8,15.1,8.4,14,8.8c0.8-0.9,1.6-1.7,2.3-2.6C15.5,5.5,14.6,4.6,13.7,3.8z"/>
		</g>
		<g>
			<g>
				<g>
					<ellipse transform="matrix(0.9029 -0.4299 0.4299 0.9029 -1.0723 8.1337)" class="st5" cx="17.5" cy="6.4" rx="0.5" ry="0.3"/>
					<ellipse transform="matrix(0.9029 -0.4299 0.4299 0.9029 -0.5775 8.7433)" class="st5" cx="19.1" cy="5.6" rx="0.5" ry="0.3"/>
					<ellipse transform="matrix(0.8754 -0.4834 0.4834 0.8754 -0.9656 9.8762)" class="st5" cx="18.7" cy="6.8" rx="0.3" ry="0.5"/>
					<ellipse transform="matrix(0.8754 -0.4834 0.4834 0.8754 -0.3274 9.287)" class="st5" cx="17.9" cy="5.3" rx="0.3" ry="0.5"/>
				</g>
				<g>
					<ellipse transform="matrix(0.287 -0.9579 0.9579 0.287 6.8704 20.8028)" class="st5" cx="17.4" cy="5.8" rx="0.3" ry="0.5"/>
					<ellipse transform="matrix(0.287 -0.9579 0.9579 0.287 7.5886 22.8161)" class="st5" cx="19.1" cy="6.3" rx="0.3" ry="0.5"/>
					<ellipse transform="matrix(0.329 -0.9443 0.9443 0.329 5.5868 21.6009)" class="st5" cx="18" cy="6.9" rx="0.5" ry="0.3"/>
					<ellipse transform="matrix(0.329 -0.9443 0.9443 0.329 7.505 21.015)" class="st5" cx="18.5" cy="5.2" rx="0.5" ry="0.3"/>
				</g>
			</g>
			<ellipse class="st6" cx="18.3" cy="6.1" rx="0.4" ry="0.4"/>
		</g>
	</g>
	<g>
		<rect x="0" y="0" class="st1" width="12" height="12"/>
		<ellipse transform="matrix(0.9775 -0.2109 0.2109 0.9775 -1.1304 1.3899)" class="st0" cx="6" cy="6" rx="6" ry="6"/>
		<path class="st7" d="M5.9,2C5.1,2.6,4.5,3.1,4.1,3.5c-0.5,0.6-1,1.1-1.2,2C2.8,5.9,2.5,6.8,2.9,7.8c0.4,1.1,1.5,1.9,2.8,2
			c1.2,0.1,2.3-0.5,3-1.4C9.4,7.2,9.1,5.9,9,5.6c-0.3-1-0.9-1.7-1.6-2.4C6.8,2.7,6.3,2.3,5.9,2z"/>
		<ellipse class="st8" cx="6" cy="6.6" rx="2" ry="2"/>
		<ellipse class="st9" cx="6" cy="6.6" rx="0.8" ry="0.8"/>
	</g>
	<g>
		<rect x="88" y="0" class="st1" width="12" height="12"/>
		<ellipse transform="matrix(0.9775 -0.2109 0.2109 0.9775 0.8496 19.9523)" class="st0" cx="93.9" cy="6" rx="6" ry="6"/>
		<path class="st7" d="M93.9,2c-0.9,0.5-1.4,1.1-1.8,1.5c-0.5,0.6-1,1.1-1.2,2c-0.1,0.4-0.3,1.3,0.1,2.3c0.4,1.1,1.5,1.9,2.8,2
			c1.2,0.1,2.3-0.5,3-1.4c0.8-1.2,0.4-2.5,0.3-2.8c-0.3-1-0.9-1.7-1.6-2.4C94.8,2.7,94.3,2.3,93.9,2z"/>
		<ellipse class="st8" cx="94" cy="6.6" rx="2" ry="2"/>
		<ellipse class="st9" cx="94" cy="6.6" rx="0.8" ry="0.8"/>
	</g>
	<g>
		<g>
			<path class="st4" d="M79,1.8c0.9,0.8,1.8,1.6,2.8,2.4c0.8-0.9,1.6-1.7,2.4-2.6c-0.2,1.1-0.5,2.3-0.7,3.4c1.1,0.3,2.3,0.5,3.4,0.8
				c-1.1,0.3-2.2,0.6-3.3,1c0.3,1.1,0.7,2.2,1,3.4c-0.9-0.7-1.8-1.5-2.6-2.2c-0.8,0.8-1.6,1.6-2.5,2.4c0.2-1.1,0.5-2.2,0.7-3.4
				c-1.2-0.2-2.3-0.4-3.5-0.6c1.1-0.3,2.2-0.7,3.4-1C79.7,4.1,79.4,3,79,1.8z"/>
			<path class="st4" d="M77.2,3.8c1.2,0.2,2.4,0.4,3.6,0.6c0.2-1.1,0.5-2.3,0.7-3.4c0.4,1.1,0.8,2.2,1.2,3.3c1.1-0.3,2.2-0.7,3.3-1
				c-0.8,0.8-1.6,1.7-2.3,2.5c0.9,0.8,1.8,1.6,2.7,2.3c-1.1-0.2-2.3-0.4-3.4-0.6c-0.3,1.1-0.6,2.2-0.8,3.3c-0.4-1.1-0.8-2.2-1.2-3.2
				c-1.1,0.4-2.2,0.8-3.3,1.2c0.8-0.9,1.6-1.7,2.3-2.6C79,5.4,78.1,4.6,77.2,3.8z"/>
		</g>
		<g>
			<g>
				<g>
					<ellipse transform="matrix(0.9029 -0.4299 0.4299 0.9029 5.1068 35.456)" class="st5" cx="81" cy="6.4" rx="0.5" ry="0.3"/>
					<ellipse transform="matrix(0.9029 -0.4299 0.4299 0.9029 5.6017 36.0656)" class="st5" cx="82.6" cy="5.6" rx="0.5" ry="0.3"/>
					<ellipse transform="matrix(0.8754 -0.4834 0.4834 0.8754 6.9606 40.5984)" class="st5" cx="82.2" cy="6.8" rx="0.3" ry="0.5"/>
					<ellipse transform="matrix(0.8754 -0.4834 0.4834 0.8754 7.5987 40.0091)" class="st5" cx="81.4" cy="5.3" rx="0.3" ry="0.5"/>
				</g>
				<g>
					<ellipse transform="matrix(0.287 -0.9579 0.9579 0.287 52.1994 81.6772)" class="st5" cx="81" cy="5.8" rx="0.3" ry="0.5"/>
					<ellipse transform="matrix(0.287 -0.9579 0.9579 0.287 52.9175 83.6904)" class="st5" cx="82.7" cy="6.3" rx="0.3" ry="0.5"/>
					<ellipse transform="matrix(0.329 -0.9443 0.9443 0.329 48.2511 81.6131)" class="st5" cx="81.6" cy="6.9" rx="0.5" ry="0.3"/>
					<ellipse transform="matrix(0.329 -0.9443 0.9443 0.329 50.1694 81.0272)" class="st5" cx="82.1" cy="5.2" rx="0.5" ry="0.3"/>
				</g>
			</g>
			<ellipse class="st6" cx="81.8" cy="6" rx="0.4" ry="0.4"/>
		</g>
	</g>
	<g>
		<path class="st0" d="M62.1,86.2"/>
		<rect x="44.1" y="88" class="st1" width="12" height="12"/>
		<path class="st0" d="M52.3,90.9c-0.2-0.2-0.5-0.5-1-0.7c-0.9-0.4-1.6-0.3-2-0.2c-0.3,0-1.8,0.2-2.8,1.5c-1.3,1.7-0.6,3.7-0.6,3.8
			c0.5,1.3,1.6,2.4,3.1,2.7c1.9,0.3,3.3-0.9,3.4-1c-0.2,0.1-0.6,0.1-1,0.1c-0.3,0-1.2-0.1-2.1-0.8c-0.2-0.2-1.1-1-1-2.3
			c0-1.5,1.1-2.3,1.2-2.4C50.7,90.5,52.1,90.9,52.3,90.9z"/>
		<polygon class="st0" points="55,95.2 53.8,94.9 52.8,95.8 52.7,94.6 51.6,94 52.7,93.4 52.9,92.2 53.8,93.1 55.1,92.9 54.5,94 		
			"/>
	</g>
	<g>
		<rect x="24.3" y="88" class="st1" width="12" height="12"/>
		<g>
			<g>
				<g>
					
						<ellipse transform="matrix(0.8845 -0.4665 0.4665 0.8845 -41.5568 23.6576)" class="st2" cx="27" cy="95.8" rx="2.2" ry="1.2"/>
					
						<ellipse transform="matrix(0.8845 -0.4665 0.4665 0.8845 -39.1329 26.3902)" class="st2" cx="33.7" cy="92.2" rx="2.2" ry="1.2"/>
					
						<ellipse transform="matrix(0.8953 -0.4454 0.4454 0.8953 -40.0337 24.5005)" class="st2" cx="32.1" cy="97.4" rx="1.2" ry="2.3"/>
					
						<ellipse transform="matrix(0.8953 -0.4454 0.4454 0.8953 -37.3493 22.2366)" class="st2" cx="28.6" cy="90.6" rx="1.2" ry="2.3"/>
				</g>
				<g>
					
						<ellipse transform="matrix(0.315 -0.9491 0.9491 0.315 -69.7757 89.0096)" class="st2" cx="26.8" cy="92.8" rx="1.2" ry="2.2"/>
					<ellipse transform="matrix(0.315 -0.9491 0.9491 0.315 -67.054 97.4614)" class="st2" cx="34" cy="95.2" rx="1.2" ry="2.2"/>
					
						<ellipse transform="matrix(0.2994 -0.9541 0.9541 0.2994 -72.721 96.324)" class="st2" cx="29.2" cy="97.7" rx="2.3" ry="1.2"/>
					
						<ellipse transform="matrix(0.2994 -0.9541 0.9541 0.2994 -64.1075 93.3849)" class="st2" cx="31.5" cy="90.3" rx="2.3" ry="1.2"/>
				</g>
			</g>
			<ellipse class="st3" cx="30.4" cy="94" rx="1.8" ry="1.9"/>
		</g>
	</g>
	<g>
		<rect x="63.6" y="88" class="st1" width="12" height="12"/>
		<g>
			<g>
				<g>
					
						<ellipse transform="matrix(0.8845 -0.4665 0.4665 0.8845 -37.0254 41.962)" class="st2" cx="66.2" cy="95.8" rx="2.2" ry="1.2"/>
					
						<ellipse transform="matrix(0.8845 -0.4665 0.4665 0.8845 -34.6014 44.6946)" class="st2" cx="73" cy="92.2" rx="2.2" ry="1.2"/>
					
						<ellipse transform="matrix(0.8953 -0.4454 0.4454 0.8953 -35.926 41.9778)" class="st2" cx="71.3" cy="97.4" rx="1.2" ry="2.3"/>
					
						<ellipse transform="matrix(0.8953 -0.4454 0.4454 0.8953 -33.2416 39.714)" class="st2" cx="67.9" cy="90.6" rx="1.2" ry="2.3"/>
				</g>
				<g>
					<ellipse transform="matrix(0.315 -0.9491 0.9491 0.315 -42.8975 126.2482)" class="st2" cx="66" cy="92.8" rx="1.2" ry="2.2"/>
					<ellipse transform="matrix(0.315 -0.9491 0.9491 0.315 -40.1758 134.7)" class="st2" cx="73.2" cy="95.2" rx="1.2" ry="2.2"/>
					
						<ellipse transform="matrix(0.2994 -0.9541 0.9541 0.2994 -45.231 133.7601)" class="st2" cx="68.5" cy="97.7" rx="2.3" ry="1.2"/>
					
						<ellipse transform="matrix(0.2994 -0.9541 0.9541 0.2994 -36.6175 130.821)" class="st2" cx="70.8" cy="90.3" rx="2.3" ry="1.2"/>
				</g>
			</g>
			<ellipse class="st3" cx="69.6" cy="94" rx="1.8" ry="1.9"/>
		</g>
	</g>
	<path class="st0" d="M36.2,99.5"/>
	<g>
		<path class="st1" d="M42.3,92.3c0.1-0.1,0.3-0.4,0.5-0.7c0.3-0.6,0.2-1.1,0.2-1.3c0-0.2-0.2-1.2-1-1.8c-1.1-0.8-2.4-0.4-2.5-0.4
			c-0.9,0.3-1.6,1-1.7,2c-0.2,1.2,0.6,2.1,0.7,2.2c0-0.2-0.1-0.4-0.1-0.7c0-0.2,0-0.8,0.5-1.3c0.1-0.1,0.6-0.7,1.5-0.7
			c0.9,0,1.5,0.7,1.6,0.8C42.6,91.3,42.4,92.2,42.3,92.3z"/>
		<polygon class="st1" points="39.3,95.6 39.5,94.4 38.7,93.5 39.8,93.4 40.4,92.3 40.9,93.4 42.1,93.6 41.2,94.5 41.4,95.6 
			40.3,95.1 		"/>
		<path class="st1" d="M38.3,95.6c-0.1,0.1-0.3,0.4-0.5,0.7c-0.3,0.6-0.2,1.1-0.2,1.3c0,0.2,0.2,1.2,1,1.8c1.1,0.8,2.4,0.4,2.5,0.4
			c0.9-0.3,1.6-1,1.7-2c0.2-1.2-0.6-2.1-0.7-2.2c0,0.2,0.1,0.4,0.1,0.7c0,0.2,0,0.8-0.5,1.3c-0.1,0.1-0.6,0.7-1.5,0.7
			c-0.9,0-1.5-0.7-1.6-0.8C38,96.6,38.2,95.7,38.3,95.6z"/>
	</g>
	<g>
		<path class="st1" d="M61.9,92.3c0.1-0.1,0.3-0.4,0.5-0.7c0.3-0.6,0.2-1.1,0.2-1.3c0-0.2-0.2-1.2-1-1.8c-1.1-0.8-2.4-0.4-2.5-0.4
			c-0.9,0.3-1.6,1-1.7,2c-0.2,1.2,0.6,2.1,0.7,2.2c0-0.2-0.1-0.4-0.1-0.7c0-0.2,0-0.8,0.5-1.3c0.1-0.1,0.6-0.7,1.5-0.7
			c0.9,0,1.5,0.7,1.6,0.8C62.2,91.3,62,92.2,61.9,92.3z"/>
		<polygon class="st1" points="58.9,95.6 59.1,94.4 58.3,93.5 59.5,93.4 60,92.3 60.5,93.4 61.7,93.6 60.8,94.5 61,95.6 59.9,95.1 
					"/>
		<path class="st1" d="M57.9,95.6c-0.1,0.1-0.3,0.4-0.5,0.7c-0.3,0.6-0.2,1.1-0.2,1.3c0,0.2,0.2,1.2,1,1.8c1.1,0.8,2.4,0.4,2.5,0.4
			c0.9-0.3,1.6-1,1.7-2c0.2-1.2-0.6-2.1-0.7-2.2c0,0.2,0.1,0.4,0.1,0.7c0,0.2,0,0.8-0.5,1.3c-0.1,0.1-0.6,0.7-1.5,0.7
			c-0.9,0-1.5-0.7-1.6-0.8C57.6,96.6,57.8,95.7,57.9,95.6z"/>
	</g>
	<g>
		<g>
			<path class="st4" d="M15.4,89.8c0.9,0.8,1.8,1.6,2.8,2.4c0.8-0.9,1.6-1.7,2.4-2.6c-0.2,1.1-0.5,2.3-0.7,3.4
				c1.1,0.3,2.3,0.5,3.4,0.8c-1.1,0.3-2.2,0.6-3.3,1c0.3,1.1,0.7,2.2,1,3.4c-0.9-0.7-1.8-1.5-2.6-2.2c-0.8,0.8-1.6,1.6-2.5,2.4
				c0.2-1.1,0.5-2.2,0.7-3.4c-1.2-0.2-2.3-0.4-3.5-0.6c1.1-0.3,2.2-0.7,3.4-1C16.1,92.1,15.8,91,15.4,89.8z"/>
			<path class="st4" d="M13.7,91.8c1.2,0.2,2.4,0.4,3.6,0.6c0.2-1.1,0.5-2.3,0.7-3.4c0.4,1.1,0.8,2.2,1.2,3.3c1.1-0.3,2.2-0.7,3.3-1
				c-0.8,0.8-1.6,1.7-2.3,2.5c0.9,0.8,1.8,1.6,2.7,2.3c-1.1-0.2-2.3-0.4-3.4-0.6c-0.3,1.1-0.6,2.2-0.8,3.3c-0.4-1.1-0.8-2.2-1.2-3.2
				c-1.1,0.4-2.2,0.8-3.3,1.2c0.8-0.9,1.6-1.7,2.3-2.6C15.5,93.4,14.6,92.6,13.7,91.8z"/>
		</g>
		<g>
			<g>
				<g>
					<ellipse transform="matrix(0.9029 -0.4299 0.4299 0.9029 -38.902 16.68)" class="st5" cx="17.5" cy="94.4" rx="0.5" ry="0.3"/>
					
						<ellipse transform="matrix(0.9029 -0.4299 0.4299 0.9029 -38.4071 17.2896)" class="st5" cx="19.1" cy="93.6" rx="0.5" ry="0.3"/>
					
						<ellipse transform="matrix(0.8754 -0.4834 0.4834 0.8754 -43.5028 20.8403)" class="st5" cx="18.7" cy="94.8" rx="0.3" ry="0.5"/>
					
						<ellipse transform="matrix(0.8754 -0.4834 0.4834 0.8754 -42.8647 20.251)" class="st5" cx="17.9" cy="93.3" rx="0.3" ry="0.5"/>
				</g>
				<g>
					
						<ellipse transform="matrix(0.287 -0.9579 0.9579 0.287 -77.4243 83.5415)" class="st5" cx="17.4" cy="93.8" rx="0.3" ry="0.5"/>
					
						<ellipse transform="matrix(0.287 -0.9579 0.9579 0.287 -76.7062 85.5547)" class="st5" cx="19.1" cy="94.3" rx="0.3" ry="0.5"/>
					<ellipse transform="matrix(0.329 -0.9443 0.9443 0.329 -77.5134 80.6507)" class="st5" cx="18" cy="94.9" rx="0.5" ry="0.3"/>
					
						<ellipse transform="matrix(0.329 -0.9443 0.9443 0.329 -75.5952 80.0648)" class="st5" cx="18.5" cy="93.2" rx="0.5" ry="0.3"/>
				</g>
			</g>
			<ellipse class="st6" cx="18.3" cy="94.1" rx="0.4" ry="0.4"/>
		</g>
	</g>
	<g>
		<rect x="0" y="88" class="st1" width="12" height="12"/>
		<ellipse transform="matrix(0.9776 -0.2103 0.2103 0.9776 -19.6339 3.3534)" class="st0" cx="6" cy="94" rx="6" ry="6"/>
		<path class="st7" d="M6,98c0.9-0.5,1.4-1.1,1.8-1.5c0.5-0.6,1-1.1,1.2-2c0.1-0.4,0.3-1.3-0.1-2.3c-0.4-1.1-1.5-1.9-2.8-2
			c-1.2-0.1-2.3,0.5-3,1.4c-0.8,1.2-0.4,2.5-0.3,2.8c0.3,1,0.9,1.7,1.6,2.4C5.1,97.3,5.6,97.7,6,98z"/>
		<ellipse class="st8" cx="6" cy="93.4" rx="2" ry="2"/>
		<ellipse class="st9" cx="6" cy="93.4" rx="0.8" ry="0.8"/>
	</g>
	<g>
		<rect x="87.9" y="88" class="st1" width="12" height="12"/>
		<ellipse transform="matrix(0.9778 -0.2093 0.2093 0.9778 -17.5936 21.7488)" class="st0" cx="94" cy="94" rx="6" ry="6"/>
		<path class="st7" d="M94,98c0.9-0.5,1.4-1.1,1.8-1.5c0.5-0.6,1-1.1,1.2-2c0.1-0.4,0.3-1.3-0.1-2.3c-0.4-1.1-1.5-1.9-2.8-2
			c-1.2-0.1-2.3,0.5-3,1.4c-0.8,1.2-0.4,2.5-0.3,2.8c0.3,1,0.9,1.7,1.6,2.4C93.1,97.3,93.6,97.7,94,98z"/>
		<ellipse class="st8" cx="93.9" cy="93.4" rx="2" ry="2"/>
		<ellipse class="st9" cx="93.9" cy="93.4" rx="0.8" ry="0.8"/>
	</g>
	<g>
		<g>
			<path class="st4" d="M79,89.8c0.9,0.8,1.8,1.6,2.8,2.4c0.8-0.9,1.6-1.7,2.4-2.6c-0.2,1.1-0.5,2.3-0.7,3.4
				c1.1,0.3,2.3,0.5,3.4,0.8c-1.1,0.3-2.2,0.6-3.3,1c0.3,1.1,0.7,2.2,1,3.4c-0.9-0.7-1.8-1.5-2.6-2.2c-0.8,0.8-1.6,1.6-2.5,2.4
				c0.2-1.1,0.5-2.2,0.7-3.4c-1.2-0.2-2.3-0.4-3.5-0.6c1.1-0.3,2.2-0.7,3.4-1C79.7,92.1,79.4,91,79,89.8z"/>
			<path class="st4" d="M77.2,91.8c1.2,0.2,2.4,0.4,3.6,0.6c0.2-1.1,0.5-2.3,0.7-3.4c0.4,1.1,0.8,2.2,1.2,3.3c1.1-0.3,2.2-0.7,3.3-1
				c-0.8,0.8-1.6,1.7-2.3,2.5c0.9,0.8,1.8,1.6,2.7,2.3c-1.1-0.2-2.3-0.4-3.4-0.6c-0.3,1.1-0.6,2.2-0.8,3.3c-0.4-1.1-0.8-2.2-1.2-3.2
				c-1.1,0.4-2.2,0.8-3.3,1.2c0.8-0.9,1.6-1.7,2.3-2.6C79,93.4,78.1,92.6,77.2,91.8z"/>
		</g>
		<g>
			<g>
				<g>
					
						<ellipse transform="matrix(0.9029 -0.4299 0.4299 0.9029 -32.7229 44.0024)" class="st5" cx="81" cy="94.4" rx="0.5" ry="0.3"/>
					
						<ellipse transform="matrix(0.9029 -0.4299 0.4299 0.9029 -32.228 44.6119)" class="st5" cx="82.6" cy="93.6" rx="0.5" ry="0.3"/>
					
						<ellipse transform="matrix(0.8754 -0.4834 0.4834 0.8754 -35.5767 51.5624)" class="st5" cx="82.2" cy="94.8" rx="0.3" ry="0.5"/>
					
						<ellipse transform="matrix(0.8754 -0.4834 0.4834 0.8754 -34.9385 50.9731)" class="st5" cx="81.4" cy="93.3" rx="0.3" ry="0.5"/>
				</g>
				<g>
					<ellipse transform="matrix(0.287 -0.9579 0.9579 0.287 -32.0954 144.4158)" class="st5" cx="81" cy="93.8" rx="0.3" ry="0.5"/>
					
						<ellipse transform="matrix(0.287 -0.9579 0.9579 0.287 -31.3773 146.429)" class="st5" cx="82.7" cy="94.3" rx="0.3" ry="0.5"/>
					
						<ellipse transform="matrix(0.329 -0.9443 0.9443 0.329 -34.8491 140.6628)" class="st5" cx="81.6" cy="94.9" rx="0.5" ry="0.3"/>
					
						<ellipse transform="matrix(0.329 -0.9443 0.9443 0.329 -32.9308 140.077)" class="st5" cx="82.1" cy="93.2" rx="0.5" ry="0.3"/>
				</g>
			</g>
			<ellipse class="st6" cx="81.8" cy="94" rx="0.4" ry="0.4"/>
		</g>
	</g>
	<g>
		<g>
			<path class="st4" d="M91,78c0.9,0.8,1.8,1.6,2.8,2.4c0.8-0.9,1.6-1.7,2.4-2.6c-0.2,1.1-0.5,2.3-0.7,3.4c1.1,0.3,2.3,0.5,3.4,0.8
				c-1.1,0.3-2.2,0.6-3.3,1c0.3,1.1,0.7,2.2,1,3.4c-0.9-0.7-1.8-1.5-2.6-2.2c-0.8,0.8-1.6,1.6-2.5,2.4c0.2-1.1,0.5-2.2,0.7-3.4
				c-1.2-0.2-2.3-0.4-3.5-0.6c1.1-0.3,2.2-0.7,3.4-1C91.7,80.3,91.4,79.2,91,78z"/>
			<path class="st4" d="M89.3,80.1c1.2,0.2,2.4,0.4,3.6,0.6c0.2-1.1,0.5-2.3,0.7-3.4c0.4,1.1,0.8,2.2,1.2,3.3c1.1-0.3,2.2-0.7,3.3-1
				c-0.8,0.8-1.6,1.7-2.3,2.5c0.9,0.8,1.8,1.6,2.7,2.3c-1.1-0.2-2.3-0.4-3.4-0.6c-0.3,1.1-0.6,2.2-0.8,3.3c-0.4-1.1-0.8-2.2-1.2-3.2
				c-1.1,0.4-2.2,0.8-3.3,1.2c0.8-0.9,1.6-1.7,2.3-2.6C91.1,81.7,90.2,80.9,89.3,80.1z"/>
		</g>
		<g>
			<g>
				<g>
					
						<ellipse transform="matrix(0.9029 -0.4299 0.4299 0.9029 -26.4894 48.0347)" class="st5" cx="93.1" cy="82.6" rx="0.5" ry="0.3"/>
					
						<ellipse transform="matrix(0.9029 -0.4299 0.4299 0.9029 -25.9946 48.6443)" class="st5" cx="94.7" cy="81.9" rx="0.5" ry="0.3"/>
					
						<ellipse transform="matrix(0.8754 -0.4834 0.4834 0.8754 -28.3822 55.9152)" class="st5" cx="94.3" cy="83" rx="0.3" ry="0.5"/>
					
						<ellipse transform="matrix(0.8754 -0.4834 0.4834 0.8754 -27.7441 55.326)" class="st5" cx="93.5" cy="81.5" rx="0.3" ry="0.5"/>
				</g>
				<g>
					<ellipse transform="matrix(0.287 -0.9579 0.9579 0.287 -12.2266 147.5517)" class="st5" cx="93" cy="82" rx="0.3" ry="0.5"/>
					
						<ellipse transform="matrix(0.287 -0.9579 0.9579 0.287 -11.5085 149.5649)" class="st5" cx="94.7" cy="82.5" rx="0.3" ry="0.5"/>
					
						<ellipse transform="matrix(0.329 -0.9443 0.9443 0.329 -15.645 144.1291)" class="st5" cx="93.6" cy="83.1" rx="0.5" ry="0.3"/>
					
						<ellipse transform="matrix(0.329 -0.9443 0.9443 0.329 -13.7268 143.5432)" class="st5" cx="94.1" cy="81.4" rx="0.5" ry="0.3"/>
				</g>
			</g>
			<ellipse class="st6" cx="93.9" cy="82.3" rx="0.4" ry="0.4"/>
		</g>
	</g>
	<g>
		<rect x="88" y="64.2" class="st1" width="12" height="12"/>
		<g>
			<g>
				<g>
					<ellipse transform="matrix(0.8845 -0.4665 0.4665 0.8845 -23.127 50.5961)" class="st2" cx="90.6" cy="72" rx="2.2" ry="1.2"/>
					
						<ellipse transform="matrix(0.8845 -0.4665 0.4665 0.8845 -20.703 53.3287)" class="st2" cx="97.4" cy="68.5" rx="2.2" ry="1.2"/>
					
						<ellipse transform="matrix(0.8953 -0.4454 0.4454 0.8953 -22.7917 50.3544)" class="st2" cx="95.7" cy="73.7" rx="1.2" ry="2.3"/>
					
						<ellipse transform="matrix(0.8953 -0.4454 0.4454 0.8953 -20.1073 48.0906)" class="st2" cx="92.3" cy="66.8" rx="1.2" ry="2.3"/>
				</g>
				<g>
					
						<ellipse transform="matrix(0.315 -0.9491 0.9491 0.315 -3.6459 133.1222)" class="st2" cx="90.4" cy="69.1" rx="1.2" ry="2.2"/>
					<ellipse transform="matrix(0.315 -0.9491 0.9491 0.315 -0.9242 141.574)" class="st2" cx="97.6" cy="71.4" rx="1.2" ry="2.2"/>
					
						<ellipse transform="matrix(0.2994 -0.9541 0.9541 0.2994 -5.4795 140.3864)" class="st2" cx="92.8" cy="73.9" rx="2.3" ry="1.2"/>
					
						<ellipse transform="matrix(0.2994 -0.9541 0.9541 0.2994 3.134 137.4473)" class="st2" cx="95.2" cy="66.6" rx="2.3" ry="1.2"/>
				</g>
			</g>
			<ellipse class="st3" cx="94" cy="70.3" rx="1.8" ry="1.9"/>
		</g>
	</g>
	<g>
		<g>
			<path class="st4" d="M91,13.8c0.9,0.8,1.8,1.6,2.8,2.4c0.8-0.9,1.6-1.7,2.4-2.6c-0.2,1.1-0.5,2.3-0.7,3.4
				c1.1,0.3,2.3,0.5,3.4,0.8c-1.1,0.3-2.2,0.6-3.3,1c0.3,1.1,0.7,2.2,1,3.4c-0.9-0.7-1.8-1.5-2.6-2.2c-0.8,0.8-1.6,1.6-2.5,2.4
				c0.2-1.1,0.5-2.2,0.7-3.4c-1.2-0.2-2.3-0.4-3.5-0.6c1.1-0.3,2.2-0.7,3.4-1C91.8,16.1,91.4,14.9,91,13.8z"/>
			<path class="st4" d="M89.3,15.8c1.2,0.2,2.4,0.4,3.6,0.6c0.2-1.1,0.5-2.3,0.7-3.4c0.4,1.1,0.8,2.2,1.2,3.3c1.1-0.3,2.2-0.7,3.3-1
				c-0.8,0.8-1.6,1.7-2.3,2.5c0.9,0.8,1.8,1.6,2.7,2.3c-1.1-0.2-2.3-0.4-3.4-0.6c-0.3,1.1-0.6,2.2-0.8,3.3c-0.4-1.1-0.8-2.2-1.2-3.2
				c-1.1,0.4-2.2,0.8-3.3,1.2c0.8-0.9,1.6-1.7,2.3-2.6C91.1,17.4,90.2,16.6,89.3,15.8z"/>
		</g>
		<g>
			<g>
				<g>
					<ellipse transform="matrix(0.9029 -0.4299 0.4299 0.9029 1.124 41.7989)" class="st5" cx="93.1" cy="18.4" rx="0.5" ry="0.3"/>
					
						<ellipse transform="matrix(0.9029 -0.4299 0.4299 0.9029 1.6188 42.4085)" class="st5" cx="94.7" cy="17.6" rx="0.5" ry="0.3"/>
					
						<ellipse transform="matrix(0.8754 -0.4834 0.4834 0.8754 2.6675 47.9151)" class="st5" cx="94.3" cy="18.8" rx="0.3" ry="0.5"/>
					
						<ellipse transform="matrix(0.8754 -0.4834 0.4834 0.8754 3.3057 47.3258)" class="st5" cx="93.5" cy="17.3" rx="0.3" ry="0.5"/>
				</g>
				<g>
					<ellipse transform="matrix(0.287 -0.9579 0.9579 0.287 49.3064 101.7627)" class="st5" cx="93" cy="17.8" rx="0.3" ry="0.5"/>
					<ellipse transform="matrix(0.287 -0.9579 0.9579 0.287 50.0245 103.776)" class="st5" cx="94.7" cy="18.3" rx="0.3" ry="0.5"/>
					
						<ellipse transform="matrix(0.329 -0.9443 0.9443 0.329 45.0158 101.0326)" class="st5" cx="93.6" cy="18.8" rx="0.5" ry="0.3"/>
					
						<ellipse transform="matrix(0.329 -0.9443 0.9443 0.329 46.9341 100.4467)" class="st5" cx="94.1" cy="17.2" rx="0.5" ry="0.3"/>
				</g>
			</g>
			<ellipse class="st6" cx="93.9" cy="18" rx="0.4" ry="0.4"/>
		</g>
	</g>
	<g>
		<rect x="87.9" y="23.8" class="st1" width="12" height="12"/>
		<g>
			<g>
				<g>
					
						<ellipse transform="matrix(0.8845 -0.4665 0.4665 0.8845 -4.2779 45.9194)" class="st2" cx="90.6" cy="31.6" rx="2.2" ry="1.2"/>
					<ellipse transform="matrix(0.8845 -0.4665 0.4665 0.8845 -1.854 48.652)" class="st2" cx="97.3" cy="28.1" rx="2.2" ry="1.2"/>
					
						<ellipse transform="matrix(0.8953 -0.4454 0.4454 0.8953 -4.7942 46.1146)" class="st2" cx="95.7" cy="33.3" rx="1.2" ry="2.3"/>
					
						<ellipse transform="matrix(0.8953 -0.4454 0.4454 0.8953 -2.1098 43.8507)" class="st2" cx="92.2" cy="26.4" rx="1.2" ry="2.3"/>
				</g>
				<g>
					
						<ellipse transform="matrix(0.315 -0.9491 0.9491 0.315 34.6912 105.4207)" class="st2" cx="90.4" cy="28.7" rx="1.2" ry="2.2"/>
					<ellipse transform="matrix(0.315 -0.9491 0.9491 0.315 37.4129 113.8725)" class="st2" cx="97.6" cy="31" rx="1.2" ry="2.2"/>
					
						<ellipse transform="matrix(0.2994 -0.9541 0.9541 0.2994 33.0607 112.0546)" class="st2" cx="92.8" cy="33.5" rx="2.3" ry="1.2"/>
					
						<ellipse transform="matrix(0.2994 -0.9541 0.9541 0.2994 41.6742 109.1156)" class="st2" cx="95.1" cy="26.2" rx="2.3" ry="1.2"/>
				</g>
			</g>
			<ellipse class="st3" cx="94" cy="29.9" rx="1.8" ry="1.9"/>
		</g>
	</g>
	<g>
		<path class="st0" d="M105.9,41.9"/>
		<rect x="87.9" y="43.7" class="st1" width="12" height="12"/>
		<path class="st0" d="M96.1,46.6c-0.2-0.2-0.5-0.5-1-0.7c-0.9-0.4-1.6-0.3-2-0.2c-0.3,0-1.8,0.2-2.8,1.5c-1.3,1.7-0.6,3.7-0.6,3.8
			c0.5,1.3,1.6,2.4,3.1,2.7c1.9,0.3,3.3-0.9,3.4-1c-0.2,0.1-0.6,0.1-1,0.1c-0.3,0-1.2-0.1-2.1-0.8c-0.2-0.2-1.1-1-1-2.3
			c0-1.5,1.1-2.3,1.2-2.4C94.5,46.2,95.9,46.6,96.1,46.6z"/>
		<polygon class="st0" points="98.8,50.9 97.6,50.6 96.6,51.5 96.5,50.3 95.4,49.7 96.5,49.1 96.8,47.9 97.6,48.8 98.9,48.6 
			98.3,49.7 		"/>
	</g>
	<g>
		<path class="st1" d="M95.6,61.9c0.1,0.1,0.4,0.3,0.7,0.5c0.6,0.3,1.1,0.2,1.3,0.2c0.2,0,1.2-0.2,1.8-1c0.8-1.1,0.4-2.4,0.4-2.5
			c-0.3-0.9-1-1.6-2-1.7c-1.2-0.2-2.1,0.6-2.2,0.7c0.2,0,0.4-0.1,0.7-0.1c0.2,0,0.8,0,1.3,0.5c0.1,0.1,0.7,0.6,0.7,1.5
			c0,0.9-0.7,1.5-0.8,1.6C96.6,62.1,95.7,61.9,95.6,61.9z"/>
		<polygon class="st1" points="92.3,58.8 93.5,59 94.4,58.2 94.5,59.4 95.6,59.9 94.5,60.4 94.3,61.6 93.5,60.7 92.3,60.9 
			92.9,59.9 		"/>
		<path class="st1" d="M92.3,57.8c-0.1-0.1-0.4-0.3-0.7-0.5c-0.6-0.3-1.1-0.2-1.3-0.2c-0.2,0-1.2,0.2-1.8,1
			c-0.8,1.1-0.4,2.4-0.4,2.5c0.3,0.9,1,1.6,2,1.7c1.2,0.2,2.1-0.6,2.2-0.7c-0.2,0-0.4,0.1-0.7,0.1c-0.2,0-0.8,0-1.3-0.5
			c-0.1-0.1-0.7-0.6-0.7-1.5c0-0.9,0.7-1.5,0.8-1.6C91.3,57.5,92.2,57.8,92.3,57.8z"/>
	</g>
	<g>
		<path class="st1" d="M95.6,41.7c0.1,0.1,0.4,0.3,0.7,0.5c0.6,0.3,1.1,0.2,1.3,0.2c0.2,0,1.2-0.2,1.8-1c0.8-1.1,0.4-2.4,0.4-2.5
			c-0.3-0.9-1-1.6-2-1.7c-1.2-0.2-2.1,0.6-2.2,0.7c0.2,0,0.4-0.1,0.7-0.1c0.2,0,0.8,0,1.3,0.5c0.1,0.1,0.7,0.6,0.7,1.5
			c0,0.9-0.7,1.5-0.8,1.6C96.6,42,95.7,41.7,95.6,41.7z"/>
		<polygon class="st1" points="92.3,38.6 93.5,38.9 94.3,38 94.5,39.2 95.5,39.8 94.5,40.3 94.3,41.5 93.4,40.6 92.3,40.8 
			92.8,39.7 		"/>
		<path class="st1" d="M92.3,37.7c-0.1-0.1-0.4-0.3-0.7-0.5C91,36.9,90.5,37,90.3,37c-0.2,0-1.2,0.2-1.8,1c-0.8,1.1-0.4,2.4-0.4,2.5
			c0.3,0.9,1,1.6,2,1.7c1.2,0.2,2.1-0.6,2.2-0.7c-0.2,0-0.4,0.1-0.7,0.1c-0.2,0-0.8,0-1.3-0.5c-0.1-0.1-0.7-0.6-0.7-1.5
			c0-0.9,0.7-1.5,0.8-1.6C91.3,37.4,92.2,37.6,92.3,37.7z"/>
	</g>
	<g>
		<g>
			<path class="st4" d="M3.1,78c0.9,0.8,1.8,1.6,2.8,2.4c0.8-0.9,1.6-1.7,2.4-2.6C8,78.9,7.7,80,7.5,81.2c1.1,0.3,2.3,0.5,3.4,0.8
				c-1.1,0.3-2.2,0.6-3.3,1c0.3,1.1,0.7,2.2,1,3.4c-0.9-0.7-1.8-1.5-2.6-2.2c-0.8,0.8-1.6,1.6-2.5,2.4c0.2-1.1,0.5-2.2,0.7-3.4
				c-1.2-0.2-2.3-0.4-3.5-0.6c1.1-0.3,2.2-0.7,3.4-1C3.8,80.3,3.4,79.1,3.1,78z"/>
			<path class="st4" d="M1.3,80c1.2,0.2,2.4,0.4,3.6,0.6c0.2-1.1,0.5-2.3,0.7-3.4c0.4,1.1,0.8,2.2,1.2,3.3c1.1-0.3,2.2-0.7,3.3-1
				c-0.8,0.8-1.6,1.7-2.3,2.5c0.9,0.8,1.8,1.6,2.7,2.3c-1.1-0.2-2.3-0.4-3.4-0.6c-0.3,1.1-0.6,2.2-0.8,3.3c-0.4-1.1-0.8-2.2-1.2-3.2
				c-1.1,0.4-2.2,0.8-3.3,1.2c0.8-0.9,1.6-1.7,2.3-2.6C3.1,81.6,2.2,80.8,1.3,80z"/>
		</g>
		<g>
			<g>
				<g>
					
						<ellipse transform="matrix(0.9029 -0.4299 0.4299 0.9029 -35.0116 10.2068)" class="st5" cx="5.1" cy="82.6" rx="0.5" ry="0.3"/>
					
						<ellipse transform="matrix(0.9029 -0.4299 0.4299 0.9029 -34.5167 10.8164)" class="st5" cx="6.7" cy="81.8" rx="0.5" ry="0.3"/>
					<ellipse transform="matrix(0.8754 -0.4834 0.4834 0.8754 -39.3188 13.3792)" class="st5" cx="6.3" cy="83" rx="0.3" ry="0.5"/>
					
						<ellipse transform="matrix(0.8754 -0.4834 0.4834 0.8754 -38.6807 12.7899)" class="st5" cx="5.5" cy="81.4" rx="0.3" ry="0.5"/>
				</g>
				<g>
					<ellipse transform="matrix(0.287 -0.9579 0.9579 0.287 -74.9033 63.2347)" class="st5" cx="5" cy="81.9" rx="0.3" ry="0.5"/>
					<ellipse transform="matrix(0.287 -0.9579 0.9579 0.287 -74.1852 65.248)" class="st5" cx="6.7" cy="82.5" rx="0.3" ry="0.5"/>
					<ellipse transform="matrix(0.329 -0.9443 0.9443 0.329 -74.6343 61.0087)" class="st5" cx="5.6" cy="83" rx="0.5" ry="0.3"/>
					<ellipse transform="matrix(0.329 -0.9443 0.9443 0.329 -72.716 60.4228)" class="st5" cx="6.2" cy="81.4" rx="0.5" ry="0.3"/>
				</g>
			</g>
			<ellipse class="st6" cx="5.9" cy="82.2" rx="0.4" ry="0.4"/>
		</g>
	</g>
	<g>
		<rect x="0" y="64.2" class="st1" width="12" height="12"/>
		<g>
			<g>
				<g>
					<ellipse transform="matrix(0.8845 -0.4665 0.4665 0.8845 -33.2637 9.544)" class="st2" cx="2.6" cy="72" rx="2.2" ry="1.2"/>
					
						<ellipse transform="matrix(0.8845 -0.4665 0.4665 0.8845 -30.8398 12.2766)" class="st2" cx="9.4" cy="68.4" rx="2.2" ry="1.2"/>
					
						<ellipse transform="matrix(0.8953 -0.4454 0.4454 0.8953 -31.9793 11.1574)" class="st2" cx="7.7" cy="73.6" rx="1.2" ry="2.3"/>
					
						<ellipse transform="matrix(0.8953 -0.4454 0.4454 0.8953 -29.2949 8.8936)" class="st2" cx="4.3" cy="66.8" rx="1.2" ry="2.3"/>
				</g>
				<g>
					<ellipse transform="matrix(0.315 -0.9491 0.9491 0.315 -63.8679 49.5817)" class="st2" cx="2.4" cy="69" rx="1.2" ry="2.2"/>
					<ellipse transform="matrix(0.315 -0.9491 0.9491 0.315 -61.1462 58.0335)" class="st2" cx="9.6" cy="71.4" rx="1.2" ry="2.2"/>
					
						<ellipse transform="matrix(0.2994 -0.9541 0.9541 0.2994 -67.0732 56.4023)" class="st2" cx="4.9" cy="73.9" rx="2.3" ry="1.2"/>
					
						<ellipse transform="matrix(0.2994 -0.9541 0.9541 0.2994 -58.4598 53.4632)" class="st2" cx="7.2" cy="66.5" rx="2.3" ry="1.2"/>
				</g>
			</g>
			<ellipse class="st3" cx="6" cy="70.2" rx="1.8" ry="1.9"/>
		</g>
	</g>
	<g>
		<g>
			<path class="st4" d="M3.1,13.7c0.9,0.8,1.8,1.6,2.8,2.4c0.8-0.9,1.6-1.7,2.4-2.6c-0.2,1.1-0.5,2.3-0.7,3.4
				c1.1,0.3,2.3,0.5,3.4,0.8c-1.1,0.3-2.2,0.6-3.3,1c0.3,1.1,0.7,2.2,1,3.4c-0.9-0.7-1.8-1.5-2.6-2.2c-0.8,0.8-1.6,1.6-2.5,2.4
				C3.8,21.1,4,20,4.2,18.8c-1.2-0.2-2.3-0.4-3.5-0.6c1.1-0.3,2.2-0.7,3.4-1C3.8,16,3.4,14.9,3.1,13.7z"/>
			<path class="st4" d="M1.3,15.8c1.2,0.2,2.4,0.4,3.6,0.6c0.2-1.1,0.5-2.3,0.7-3.4c0.4,1.1,0.8,2.2,1.2,3.3c1.1-0.3,2.2-0.7,3.3-1
				c-0.8,0.8-1.6,1.7-2.3,2.5c0.9,0.8,1.8,1.6,2.7,2.3c-1.1-0.2-2.3-0.4-3.4-0.6c-0.3,1.1-0.6,2.2-0.8,3.3c-0.4-1.1-0.8-2.2-1.2-3.2
				c-1.1,0.4-2.2,0.8-3.3,1.2C2.4,19.9,3.2,19,4,18.2C3.1,17.4,2.2,16.6,1.3,15.8z"/>
		</g>
		<g>
			<g>
				<g>
					<ellipse transform="matrix(0.9029 -0.4299 0.4299 0.9029 -7.3982 3.9711)" class="st5" cx="5.1" cy="18.4" rx="0.5" ry="0.3"/>
					<ellipse transform="matrix(0.9029 -0.4299 0.4299 0.9029 -6.9033 4.5807)" class="st5" cx="6.7" cy="17.6" rx="0.5" ry="0.3"/>
					<ellipse transform="matrix(0.8754 -0.4834 0.4834 0.8754 -8.2691 5.379)" class="st5" cx="6.3" cy="18.7" rx="0.3" ry="0.5"/>
					<ellipse transform="matrix(0.8754 -0.4834 0.4834 0.8754 -7.6309 4.7898)" class="st5" cx="5.5" cy="17.2" rx="0.3" ry="0.5"/>
				</g>
				<g>
					<ellipse transform="matrix(0.287 -0.9579 0.9579 0.287 -13.3703 17.4458)" class="st5" cx="5" cy="17.7" rx="0.3" ry="0.5"/>
					<ellipse transform="matrix(0.287 -0.9579 0.9579 0.287 -12.6522 19.459)" class="st5" cx="6.7" cy="18.2" rx="0.3" ry="0.5"/>
					<ellipse transform="matrix(0.329 -0.9443 0.9443 0.329 -13.9734 17.9122)" class="st5" cx="5.6" cy="18.8" rx="0.5" ry="0.3"/>
					<ellipse transform="matrix(0.329 -0.9443 0.9443 0.329 -12.0552 17.3263)" class="st5" cx="6.2" cy="17.1" rx="0.5" ry="0.3"/>
				</g>
			</g>
			<ellipse class="st6" cx="5.9" cy="18" rx="0.4" ry="0.4"/>
		</g>
	</g>
	<g>
		<rect x="0" y="23.8" class="st1" width="12" height="12"/>
		<g>
			<g>
				<g>
					
						<ellipse transform="matrix(0.8845 -0.4665 0.4665 0.8845 -14.4147 4.8673)" class="st2" cx="2.6" cy="31.5" rx="2.2" ry="1.2"/>
					<ellipse transform="matrix(0.8845 -0.4665 0.4665 0.8845 -11.9908 7.5999)" class="st2" cx="9.4" cy="28" rx="2.2" ry="1.2"/>
					
						<ellipse transform="matrix(0.8953 -0.4454 0.4454 0.8953 -13.9818 6.9176)" class="st2" cx="7.7" cy="33.2" rx="1.2" ry="2.3"/>
					
						<ellipse transform="matrix(0.8953 -0.4454 0.4454 0.8953 -11.2974 4.6538)" class="st2" cx="4.3" cy="26.4" rx="1.2" ry="2.3"/>
				</g>
				<g>
					<ellipse transform="matrix(0.315 -0.9491 0.9491 0.315 -25.5308 21.8803)" class="st2" cx="2.4" cy="28.6" rx="1.2" ry="2.2"/>
					<ellipse transform="matrix(0.315 -0.9491 0.9491 0.315 -22.809 30.3321)" class="st2" cx="9.6" cy="31" rx="1.2" ry="2.2"/>
					
						<ellipse transform="matrix(0.2994 -0.9541 0.9541 0.2994 -28.5331 28.0705)" class="st2" cx="4.8" cy="33.5" rx="2.3" ry="1.2"/>
					
						<ellipse transform="matrix(0.2994 -0.9541 0.9541 0.2994 -19.9196 25.1315)" class="st2" cx="7.2" cy="26.1" rx="2.3" ry="1.2"/>
				</g>
			</g>
			<ellipse class="st3" cx="6" cy="29.8" rx="1.8" ry="1.9"/>
		</g>
	</g>
	<g>
		<path class="st0" d="M17.9,41.8"/>
		<rect x="0" y="43.6" class="st1" width="12" height="12"/>
		<path class="st0" d="M8.1,46.6c-0.2-0.2-0.5-0.5-1-0.7c-0.9-0.4-1.6-0.3-2-0.2c-0.3,0-1.8,0.2-2.8,1.5c-1.3,1.7-0.6,3.7-0.6,3.8
			c0.5,1.3,1.6,2.4,3.1,2.7c1.9,0.3,3.3-0.9,3.4-1c-0.2,0.1-0.6,0.1-1,0.1c-0.3,0-1.2-0.1-2.1-0.8c-0.2-0.2-1.1-1-1-2.3
			c0-1.5,1.1-2.3,1.2-2.4C6.5,46.2,7.9,46.5,8.1,46.6z"/>
		<polygon class="st0" points="10.9,50.8 9.6,50.6 8.7,51.5 8.5,50.2 7.4,49.6 8.6,49.1 8.8,47.8 9.6,48.8 10.9,48.6 10.3,49.7 		
			"/>
	</g>
	<g>
		<path class="st1" d="M7.6,61.8c0.1,0.1,0.4,0.3,0.7,0.5c0.6,0.3,1.1,0.2,1.3,0.2c0.2,0,1.2-0.2,1.8-1c0.8-1.1,0.4-2.4,0.4-2.5
			c-0.3-0.9-1-1.6-2-1.7c-1.2-0.2-2.1,0.6-2.2,0.7c0.2,0,0.4-0.1,0.7-0.1c0.2,0,0.8,0,1.3,0.5c0.1,0.1,0.7,0.6,0.7,1.5
			c0,0.9-0.7,1.5-0.8,1.6C8.6,62.1,7.7,61.8,7.6,61.8z"/>
		<polygon class="st1" points="4.4,58.7 5.5,59 6.4,58.1 6.5,59.3 7.6,59.9 6.5,60.4 6.3,61.6 5.5,60.7 4.3,60.9 4.9,59.8 		"/>
		<path class="st1" d="M4.3,57.7c-0.1-0.1-0.4-0.3-0.7-0.5c-0.6-0.3-1.1-0.2-1.3-0.2c-0.2,0-1.2,0.2-1.8,1c-0.8,1.1-0.4,2.4-0.4,2.5
			c0.3,0.9,1,1.6,2,1.7c1.2,0.2,2.1-0.6,2.2-0.7c-0.2,0-0.4,0.1-0.7,0.1c-0.2,0-0.8,0-1.3-0.5c-0.1-0.1-0.7-0.6-0.7-1.5
			c0-0.9,0.7-1.5,0.8-1.6C3.3,57.5,4.2,57.7,4.3,57.7z"/>
	</g>
	<g>
		<path class="st1" d="M7.6,41.7c0.1,0.1,0.4,0.3,0.7,0.5c0.6,0.3,1.1,0.2,1.3,0.2c0.2,0,1.2-0.2,1.8-1c0.8-1.1,0.4-2.4,0.4-2.5
			c-0.3-0.9-1-1.6-2-1.7c-1.2-0.2-2.1,0.6-2.2,0.7c0.2,0,0.4-0.1,0.7-0.1c0.2,0,0.8,0,1.3,0.5c0.1,0.1,0.7,0.6,0.7,1.5
			c0,0.9-0.7,1.5-0.8,1.6C8.6,41.9,7.7,41.7,7.6,41.7z"/>
		<polygon class="st1" points="4.3,38.6 5.5,38.8 6.4,38 6.5,39.2 7.6,39.7 6.5,40.2 6.3,41.4 5.5,40.5 4.3,40.7 4.9,39.7 		"/>
		<path class="st1" d="M4.3,37.6c-0.1-0.1-0.4-0.3-0.7-0.5c-0.6-0.3-1.1-0.2-1.3-0.2c-0.2,0-1.2,0.2-1.8,1c-0.8,1.1-0.4,2.4-0.4,2.5
			c0.3,0.9,1,1.6,2,1.7c1.2,0.2,2.1-0.6,2.2-0.7c-0.2,0-0.4,0.1-0.7,0.1c-0.2,0-0.8,0-1.3-0.5c-0.1-0.1-0.7-0.6-0.7-1.5
			c0-0.9,0.7-1.5,0.8-1.6C3.3,37.3,4.2,37.6,4.3,37.6z"/>
	</g>
</g>
</svg>
